<?xml version="1.0" standalone="no"?><!DOCTYPE svg PUBLIC "-//W3C//DTD SVG 1.1//EN" "http://www.w3.org/Graphics/SVG/1.1/DTD/svg11.dtd"><svg width="16" height="16" viewBox="0 0 16 16" version="1.1" xmlns="http://www.w3.org/2000/svg" xmlns:xlink="http://www.w3.org/1999/xlink"><path fill-rule="evenodd" fill="currentColor" d="M9,12 L7,12 L7,14.0001925 C7,14.5523709 6.55613518,15 6,15 C5.44771525,15 5,14.5463799 5,14.0005894 L5,13.3951931 C5,13.0104476 5,12.462972 5,11.9759843 L4.99703014,12 C4.4463856,12 4,11.5490248 4,11.009222 L4,6 L12,6 L12,11.009222 C12,11.5564136 11.5469637,12 11.0029699,12 L11,12 L11,14.0001925 C11,14.5523709 10.5561352,15 10,15 C9.44771525,15 9,14.5463799 9,14.0005894 L9,13.3951931 C9,13.0104476 9,12.462972 9,11.9759843 Z M13,9.39519307 C13,8.84323384 13,7.95635904 13,7.39363658 L13,7.00214589 C13,6.448676 13.4438648,6 14,6 C14.5522847,6 15,6.44371665 15,6.99980749 L15,10.0001925 C15,10.5523709 14.5561352,11 14,11 C13.4477153,11 13,10.5463799 13,10.0005894 L13,9.39519307 Z M12,4.95307961 C12,4.95307961 4,4.95307961 4,4.95307961 C4,2.76985408 5.790861,1 8,1 C10.209139,1 12,2.76985408 12,4.95307961 Z M1,9.39519307 C1,8.84323384 1,7.95635904 1,7.39363658 L1,7.00214589 C1,6.448676 1.44386482,6 2,6 C2.55228475,6 3,6.44371665 3,6.99980749 L3,10.0001925 C3,10.5523709 2.55613518,11 2,11 C1.44771525,11 1,10.5463799 1,10.0005894 L1,9.39519307 Z"/></svg>