<?xml version="1.0" standalone="no"?><!DOCTYPE svg PUBLIC "-//W3C//DTD SVG 1.1//EN" "http://www.w3.org/Graphics/SVG/1.1/DTD/svg11.dtd"><svg width="12" height="12" viewBox="0 0 12 12" version="1.1" xmlns="http://www.w3.org/2000/svg" xmlns:xlink="http://www.w3.org/1999/xlink"><path fill-rule="evenodd" fill="currentColor" d="M7,9.77240785 L5,9.77240785 L5,10.9906311 C5,11.5480902 4.55613518,12 4,12 C3.44771525,12 3,11.5566468 3,10.9906311 L3,9.0093689 C3,8.96924473 3.00229952,8.92966739 3.00677491,8.89076601 C3.00230056,8.85185992 3,8.81221644 3,8.77195477 L3,4.99999999 L9.02068424,4.99999999 L9.02068418,8.77195477 C9.02068418,8.84217205 9.01337589,8.91069979 8.99950513,8.97683339 C8.99983423,8.98763162 9,8.99847755 9,9.0093689 L9,10.9906311 C9,11.5480902 8.55613518,12 8,12 C7.44771525,12 7,11.5566468 7,10.9906311 L7,9.77240785 Z M9,4 C9,4 3,4 3,4 C3,2.5 4,1 6,1 C8,1 9,2.5 9,4 Z M-4.4408921e-16,7.9094998 C-4.4408921e-16,7.36115073 -4.4408921e-16,6.47209603 -4.4408921e-16,5.91340669 L-4.4408921e-16,6.00321929 C-4.4408921e-16,5.44915657 0.443864822,5 1,5 C1.55228475,5 2,5.44335318 2,6.0093689 L2,7.9906311 C2,8.54809015 1.55613518,9 1,9 C0.44771525,9 -4.4408921e-16,8.55816995 -4.4408921e-16,8.00712617 L-4.4408921e-16,7.9094998 Z M10,7.9094998 C10,7.36115073 10,6.47209603 10,5.91340669 L10,6.00321929 C10,5.44915657 10.4438648,5 11,5 C11.5522847,5 12,5.44335318 12,6.0093689 L12,7.9906311 C12,8.54809015 11.5561352,9 11,9 C10.4477153,9 10,8.55816995 10,8.00712617 L10,7.9094998 Z"/></svg>