<?xml version="1.0" standalone="no"?><!DOCTYPE svg PUBLIC "-//W3C//DTD SVG 1.1//EN" "http://www.w3.org/Graphics/SVG/1.1/DTD/svg11.dtd"><svg width="12" height="12" viewBox="0 0 12 12" class="appleMicro" style="height:12px;margin-right:16px;width:12px;perspective-origin:6px 6px;transform-origin:6px 6px;shape-rendering:geometricprecision;" version="1.1" xmlns="http://www.w3.org/2000/svg" xmlns:xlink="http://www.w3.org/1999/xlink"><path fill-rule="evenodd" class="" fill="currentColor" d="M9.88479476,4.09592772 C9.17082599,4.60100606 8.81384696,5.20896162 8.81384696,5.91981263 C8.81384696,6.77096317 9.25500445,7.42412568 10.1373327,7.87931975 C9.90038234,8.56522861 9.55743305,9.16227215 9.10847452,9.67046826 C8.65951599,10.1786644 8.2495357,10.4327586 7.87852136,10.4327586 C7.70392638,10.4327586 7.46542074,10.3750808 7.16299728,10.2597234 L7.01802181,10.2036039 C6.7218339,10.0882464 6.45994535,10.0305686 6.23234832,10.0305686 C6.01722235,10.0305686 5.78183443,10.0757756 5.52617749,10.1661908 L5.343789,10.2316636 L5.11463423,10.3251962 C4.93380371,10.3969048 4.75141704,10.4327586 4.56746876,10.4327586 C4.13409906,10.4327586 3.65552892,10.0757796 3.13174397,9.36181081 C2.37724422,8.33918305 2,7.22459786 2,6.01802181 C2,5.16063573 2.23538792,4.47006057 2.70617082,3.94627562 C3.17695373,3.42249067 3.80049789,3.16060212 4.57682201,3.16060212 C4.8667744,3.16060212 5.13801611,3.21360338 5.39055528,3.31960747 L5.56359052,3.38975689 L5.74597901,3.46458294 C5.90810292,3.53317383 6.03904719,3.56746876 6.13881576,3.56746876 C6.26664423,3.56746876 6.40850052,3.53785041 6.5643889,3.47861283 L6.80289693,3.38508027 L6.98060879,3.31960747 C7.26432564,3.21672114 7.57765658,3.16527875 7.92061101,3.16527875 C8.73434835,3.16527875 9.38906972,3.47549197 9.88479476,4.09592772 L9.88479476,4.09592772 Z M7.95802404,1 C7.96737734,1.10912186 7.97205392,1.19330033 7.97205392,1.25253791 C7.97205392,1.7919117 7.77563751,2.26502583 7.3827988,2.6718945 C6.98996008,3.07876317 6.53321398,3.28219445 6.0125468,3.28219445 C5.99695796,3.16060152 5.98916366,3.07330533 5.98916366,3.02030328 C5.98916366,2.56199145 6.17155033,2.13174598 6.53632913,1.72955396 C6.90110794,1.32736195 7.32355911,1.09197403 7.80369531,1.02338314 C7.83799076,1.0171476 7.88943315,1.0093533 7.95802404,1 L7.95802404,1 Z" style="display:inline;height:auto;min-height:0px;min-width:0px;overflow-x:visible;overflow-y:visible;width:auto;perspective-origin:0px 0px;transform-origin:0px 0px;fill:rgb(51, 51, 51);fill-rule:evenodd;shape-rendering:geometricprecision;d:path(&quot;M 9.8848 4.09593 C 9.17083 4.60101 8.81385 5.20896 8.81385 5.91981 C 8.81385 6.77096 9.255 7.42413 10.1373 7.87932 C 9.90038 8.56523 9.55743 9.16227 9.10847 9.67047 C 8.65952 10.1787 8.24954 10.4328 7.87852 10.4328 C 7.70393 10.4328 7.46542 10.3751 7.163 10.2597 L 7.01802 10.2036 C 6.72183 10.0882 6.45995 10.0306 6.23235 10.0306 C 6.01722 10.0306 5.78183 10.0758 5.52618 10.1662 L 5.34379 10.2317 L 5.11463 10.3252 C 4.9338 10.3969 4.75142 10.4328 4.56747 10.4328 C 4.1341 10.4328 3.65553 10.0758 3.13174 9.36181 C 2.37724 8.33918 2 7.2246 2 6.01802 C 2 5.16064 2.23539 4.47006 2.70617 3.94628 C 3.17695 3.42249 3.8005 3.1606 4.57682 3.1606 C 4.86677 3.1606 5.13802 3.2136 5.39056 3.31961 L 5.56359 3.38976 L 5.74598 3.46458 C 5.9081 3.53317 6.03905 3.56747 6.13882 3.56747 C 6.26664 3.56747 6.4085 3.53785 6.56439 3.47861 L 6.8029 3.38508 L 6.98061 3.31961 C 7.26433 3.21672 7.57766 3.16528 7.92061 3.16528 C 8.73435 3.16528 9.38907 3.47549 9.8848 4.09593 L 9.8848 4.09593 Z M 7.95802 1 C 7.96738 1.10912 7.97205 1.1933 7.97205 1.25254 C 7.97205 1.79191 7.77564 2.26503 7.3828 2.67189 C 6.98996 3.07876 6.53321 3.28219 6.01255 3.28219 C 5.99696 3.1606 5.98916 3.07331 5.98916 3.0203 C 5.98916 2.56199 6.17155 2.13175 6.53633 1.72955 C 6.90111 1.32736 7.32356 1.09197 7.8037 1.02338 C 7.83799 1.01715 7.88943 1.00935 7.95802 1 L 7.95802 1 Z&quot;);"/></svg>