<?xml version="1.0" standalone="no"?><!DOCTYPE svg PUBLIC "-//W3C//DTD SVG 1.1//EN" "http://www.w3.org/Graphics/SVG/1.1/DTD/svg11.dtd"><svg width="12" height="12" viewBox="0 0 12 12" version="1.1" xmlns="http://www.w3.org/2000/svg" xmlns:xlink="http://www.w3.org/1999/xlink"><path fill-rule="evenodd" fill="currentColor" d="M9.88479476,4.09592772 C9.17082599,4.60100606 8.81384696,5.20896162 8.81384696,5.91981263 C8.81384696,6.77096317 9.25500445,7.42412568 10.1373327,7.87931975 C9.90038234,8.56522861 9.55743305,9.16227215 9.10847452,9.67046826 C8.65951599,10.1786644 8.2495357,10.4327586 7.87852136,10.4327586 C7.70392638,10.4327586 7.46542074,10.3750808 7.16299728,10.2597234 L7.01802181,10.2036039 C6.7218339,10.0882464 6.45994535,10.0305686 6.23234832,10.0305686 C6.01722235,10.0305686 5.78183443,10.0757756 5.52617749,10.1661908 L5.343789,10.2316636 L5.11463423,10.3251962 C4.93380371,10.3969048 4.75141704,10.4327586 4.56746876,10.4327586 C4.13409906,10.4327586 3.65552892,10.0757796 3.13174397,9.36181081 C2.37724422,8.33918305 2,7.22459786 2,6.01802181 C2,5.16063573 2.23538792,4.47006057 2.70617082,3.94627562 C3.17695373,3.42249067 3.80049789,3.16060212 4.57682201,3.16060212 C4.8667744,3.16060212 5.13801611,3.21360338 5.39055528,3.31960747 L5.56359052,3.38975689 L5.74597901,3.46458294 C5.90810292,3.53317383 6.03904719,3.56746876 6.13881576,3.56746876 C6.26664423,3.56746876 6.40850052,3.53785041 6.5643889,3.47861283 L6.80289693,3.38508027 L6.98060879,3.31960747 C7.26432564,3.21672114 7.57765658,3.16527875 7.92061101,3.16527875 C8.73434835,3.16527875 9.38906972,3.47549197 9.88479476,4.09592772 L9.88479476,4.09592772 Z M7.95802404,1 C7.96737734,1.10912186 7.97205392,1.19330033 7.97205392,1.25253791 C7.97205392,1.7919117 7.77563751,2.26502583 7.3827988,2.6718945 C6.98996008,3.07876317 6.53321398,3.28219445 6.0125468,3.28219445 C5.99695796,3.16060152 5.98916366,3.07330533 5.98916366,3.02030328 C5.98916366,2.56199145 6.17155033,2.13174598 6.53632913,1.72955396 C6.90110794,1.32736195 7.32355911,1.09197403 7.80369531,1.02338314 C7.83799076,1.0171476 7.88943315,1.0093533 7.95802404,1 L7.95802404,1 Z"/></svg>