<?xml version="1.0" standalone="no"?><!DOCTYPE svg PUBLIC "-//W3C//DTD SVG 1.1//EN" "http://www.w3.org/Graphics/SVG/1.1/DTD/svg11.dtd"><svg width="16" height="16" viewBox="0 0 16 16" class="apple" style="height:16px;margin-right:8px;width:16px;perspective-origin:8px 8px;transform-origin:8px 8px;shape-rendering:geometricprecision;" version="1.1" xmlns="http://www.w3.org/2000/svg" xmlns:xlink="http://www.w3.org/1999/xlink"><path fill-rule="evenodd" class="" fill="currentColor" d="M13.4429308,5.49301317 C12.4067726,6.22601596 11.8887012,7.1083209 11.8887012,8.13995446 C11.8887012,9.37519991 12.5289379,10.3231121 13.8094304,10.9837196 C13.4655525,11.9791555 12.9678421,12.8456242 12.316284,13.5831517 C11.664726,14.3206792 11.0697357,14.6894374 10.5312954,14.6894374 C10.2779117,14.6894374 9.9317767,14.6057316 9.49287997,14.4383173 L9.28248207,14.356873 C8.85263476,14.1894588 8.47256494,14.1057529 8.14226121,14.1057529 C7.83005631,14.1057529 7.48844594,14.1713602 7.11741984,14.3025768 L6.85272571,14.3975952 L6.52016129,14.5333357 C6.25772819,14.637404 5.99303671,14.6894374 5.7260789,14.6894374 C5.0971444,14.6894374 4.40261205,14.171366 3.64246101,13.1352078 C2.54748153,11.6511034 2,10.0335443 2,8.28248207 C2,7.03818721 2.34161037,6.03597929 3.02484137,5.27582824 C3.70807237,4.5156772 4.61300052,4.13560738 5.73965296,4.13560738 C6.16045086,4.13560738 6.5540946,4.21252627 6.920596,4.36636636 L7.17171607,4.4681718 L7.4364102,4.57676426 C7.67169504,4.67630785 7.86172995,4.7260789 8.00652063,4.7260789 C8.19203368,4.7260789 8.39790483,4.68309481 8.62414026,4.59712535 L8.97027874,4.46138477 L9.22818584,4.36636636 C9.63993432,4.21705098 10.0946607,4.14239441 10.5923787,4.14239441 C11.7733276,4.14239441 12.7235022,4.59259616 13.4429308,5.49301317 L13.4429308,5.49301317 Z M10.6466749,1 C10.660249,1.1583648 10.667036,1.2805301 10.667036,1.36649956 C10.667036,2.14927415 10.3819836,2.83588838 9.81187033,3.42636285 C9.24175705,4.01683732 8.57889718,4.31207013 7.82327085,4.31207013 C7.8006473,4.1356065 7.7893357,4.00891656 7.7893357,3.93199651 C7.7893357,3.26686435 8.05402718,2.64246393 8.58341809,2.05877652 C9.112809,1.47508911 9.72589781,1.13347873 10.4227029,1.03393514 C10.4724747,1.02488573 10.5471313,1.01357413 10.6466749,1 L10.6466749,1 Z" style="display:inline;height:auto;min-height:0px;min-width:0px;overflow-x:visible;overflow-y:visible;width:auto;perspective-origin:0px 0px;transform-origin:0px 0px;fill:rgb(51, 51, 51);fill-rule:evenodd;shape-rendering:geometricprecision;d:path(&quot;M 13.4429 5.49301 C 12.4068 6.22602 11.8887 7.10832 11.8887 8.13995 C 11.8887 9.3752 12.5289 10.3231 13.8094 10.9837 C 13.4656 11.9792 12.9678 12.8456 12.3163 13.5832 C 11.6647 14.3207 11.0697 14.6894 10.5313 14.6894 C 10.2779 14.6894 9.93178 14.6057 9.49288 14.4383 L 9.28248 14.3569 C 8.85263 14.1895 8.47256 14.1058 8.14226 14.1058 C 7.83006 14.1058 7.48845 14.1714 7.11742 14.3026 L 6.85273 14.3976 L 6.52016 14.5333 C 6.25773 14.6374 5.99304 14.6894 5.72608 14.6894 C 5.09714 14.6894 4.40261 14.1714 3.64246 13.1352 C 2.54748 11.6511 2 10.0335 2 8.28248 C 2 7.03819 2.34161 6.03598 3.02484 5.27583 C 3.70807 4.51568 4.613 4.13561 5.73965 4.13561 C 6.16045 4.13561 6.55409 4.21253 6.9206 4.36637 L 7.17172 4.46817 L 7.43641 4.57676 C 7.6717 4.67631 7.86173 4.72608 8.00652 4.72608 C 8.19203 4.72608 8.3979 4.68309 8.62414 4.59713 L 8.97028 4.46138 L 9.22819 4.36637 C 9.63993 4.21705 10.0947 4.14239 10.5924 4.14239 C 11.7733 4.14239 12.7235 4.5926 13.4429 5.49301 L 13.4429 5.49301 Z M 10.6467 1 C 10.6602 1.15836 10.667 1.28053 10.667 1.3665 C 10.667 2.14927 10.382 2.83589 9.81187 3.42636 C 9.24176 4.01684 8.5789 4.31207 7.82327 4.31207 C 7.80065 4.13561 7.78934 4.00892 7.78934 3.932 C 7.78934 3.26686 8.05403 2.64246 8.58342 2.05878 C 9.11281 1.47509 9.7259 1.13348 10.4227 1.03394 C 10.4725 1.02489 10.5471 1.01357 10.6467 1 L 10.6467 1 Z&quot;);"/></svg>