<?xml version="1.0" standalone="no"?><!DOCTYPE svg PUBLIC "-//W3C//DTD SVG 1.1//EN" "http://www.w3.org/Graphics/SVG/1.1/DTD/svg11.dtd"><svg width="16" height="16" viewBox="0 0 16 16" class="ascending" style="height:16px;margin-right:8px;width:16px;perspective-origin:8px 8px;transform-origin:8px 8px;shape-rendering:geometricprecision;" version="1.1" xmlns="http://www.w3.org/2000/svg" xmlns:xlink="http://www.w3.org/1999/xlink"><path fill-rule="evenodd" class="" fill="currentColor" d="M14 4h1a.5.5 0 0 1 .416.777l-1.341 1.906c-.317.45-.832.451-1.15 0l-1.341-1.906A.5.5 0 0 1 12 4h1V.5c0-.275.225-.5.5-.5s.5.225.5.5V4zM1 2a1 1 0 0 1 1.01-1h1.98a1 1 0 1 1 0 2H2.01C1.451 3 1 2.556 1 2zm0 3a1 1 0 0 1 .99-1h4.02c.546 0 .99.444.99 1a1 1 0 0 1-.99 1H1.99A.993.993 0 0 1 1 5zm0 3c0-.552.453-1 .997-1h6.006C8.553 7 9 7.444 9 8c0 .552-.453 1-.997 1H1.997A.996.996 0 0 1 1 8zm0 3c0-.552.445-1 .996-1h9.008c.55 0 .996.444.996 1 0 .552-.445 1-.996 1H1.996A.995.995 0 0 1 1 11zm0 3c0-.552.45-1 1.007-1h11.986c.556 0 1.007.444 1.007 1 0 .552-.45 1-1.007 1H2.007A1.001 1.001 0 0 1 1 14z" style="display:inline;height:auto;min-height:0px;min-width:0px;overflow-x:visible;overflow-y:visible;width:auto;perspective-origin:0px 0px;transform-origin:0px 0px;fill:rgb(51, 51, 51);fill-rule:evenodd;shape-rendering:geometricprecision;d:path(&quot;M 14 4 H 15 A 0.5 0.5 0 0 1 15.416 4.777 L 14.075 6.683 C 13.758 7.133 13.243 7.134 12.925 6.683 L 11.584 4.777 A 0.5 0.5 0 0 1 12 4 H 13 V 0.5 C 13 0.225 13.225 0 13.5 0 S 14 0.225 14 0.5 V 4 Z M 1 2 A 1 1 0 0 1 2.01 1 H 3.99 A 1 1 0 1 1 3.99 3 H 2.01 C 1.451 3 1 2.556 1 2 Z M 1 5 A 1 1 0 0 1 1.99 4 H 6.01 C 6.556 4 7 4.444 7 5 A 1 1 0 0 1 6.01 6 H 1.99 A 0.993 0.993 0 0 1 1 5 Z M 1 8 C 1 7.448 1.453 7 1.997 7 H 8.003 C 8.553 7 9 7.444 9 8 C 9 8.552 8.547 9 8.003 9 H 1.997 A 0.996 0.996 0 0 1 1 8 Z M 1 11 C 1 10.448 1.445 10 1.996 10 H 11.004 C 11.554 10 12 10.444 12 11 C 12 11.552 11.555 12 11.004 12 H 1.996 A 0.995 0.995 0 0 1 1 11 Z M 1 14 C 1 13.448 1.45 13 2.007 13 H 13.993 C 14.549 13 15 13.444 15 14 C 15 14.552 14.55 15 13.993 15 H 2.007 A 1.001 1.001 0 0 1 1 14 Z&quot;);"/></svg>