<?xml version="1.0" standalone="no"?><!DOCTYPE svg PUBLIC "-//W3C//DTD SVG 1.1//EN" "http://www.w3.org/Graphics/SVG/1.1/DTD/svg11.dtd"><svg width="16" height="16" viewBox="0 0 16 16" version="1.1" xmlns="http://www.w3.org/2000/svg" xmlns:xlink="http://www.w3.org/1999/xlink"><path fill-rule="evenodd" fill="currentColor" d="M14 4h1a.5.5 0 0 1 .416.777l-1.341 1.906c-.317.45-.832.451-1.15 0l-1.341-1.906A.5.5 0 0 1 12 4h1V.5c0-.275.225-.5.5-.5s.5.225.5.5V4zM1 2a1 1 0 0 1 1.01-1h1.98a1 1 0 1 1 0 2H2.01C1.451 3 1 2.556 1 2zm0 3a1 1 0 0 1 .99-1h4.02c.546 0 .99.444.99 1a1 1 0 0 1-.99 1H1.99A.993.993 0 0 1 1 5zm0 3c0-.552.453-1 .997-1h6.006C8.553 7 9 7.444 9 8c0 .552-.453 1-.997 1H1.997A.996.996 0 0 1 1 8zm0 3c0-.552.445-1 .996-1h9.008c.55 0 .996.444.996 1 0 .552-.445 1-.996 1H1.996A.995.995 0 0 1 1 11zm0 3c0-.552.45-1 1.007-1h11.986c.556 0 1.007.444 1.007 1 0 .552-.45 1-1.007 1H2.007A1.001 1.001 0 0 1 1 14z"/></svg>