<?xml version="1.0" standalone="no"?><!DOCTYPE svg PUBLIC "-//W3C//DTD SVG 1.1//EN" "http://www.w3.org/Graphics/SVG/1.1/DTD/svg11.dtd"><svg width="12" height="12" viewBox="0 0 12 12" version="1.1" xmlns="http://www.w3.org/2000/svg" xmlns:xlink="http://www.w3.org/1999/xlink"><path fill-rule="evenodd" fill="currentColor" d="M1,4.5 C1,4.22385763 1.2157526,4 1.49538898,4 L3.50461102,4 C3.7782068,4 4,4.23193359 4,4.5 C4,4.77614237 3.7842474,5 3.50461102,5 L1.49538898,5 C1.2217932,5 1,4.76806641 1,4.5 Z M1,6.5 C1,6.22385763 1.21505737,6 1.49047852,6 L4.50952148,6 C4.78040529,6 5,6.23193359 5,6.5 C5,6.77614237 4.78494263,7 4.50952148,7 L1.49047852,7 C1.21959471,7 1,6.76806641 1,6.5 Z M1,10.5 C1,10.2238576 1.22765279,10 1.50964952,10 L10.4903505,10 C10.7718221,10 11,10.2319336 11,10.5 C11,10.7761424 10.7723472,11 10.4903505,11 L1.50964952,11 C1.22817786,11 1,10.7680664 1,10.5 Z M1,2.5 C1,2.22385763 1.21403503,2 1.50468445,2 L2.49531555,2 C2.77404508,2 3,2.23193359 3,2.5 C3,2.77614237 2.78596497,3 2.49531555,3 L1.50468445,3 C1.22595492,3 1,2.76806641 1,2.5 Z M1,8.5 C1,8.22385763 1.23290253,8 1.50342274,8 L7.49657726,8 C7.77460996,8 8,8.23193359 8,8.5 C8,8.77614237 7.76709747,9 7.49657726,9 L1.50342274,9 C1.22539004,9 1,8.76806641 1,8.5 Z"/></svg>