<?xml version="1.0" standalone="no"?><!DOCTYPE svg PUBLIC "-//W3C//DTD SVG 1.1//EN" "http://www.w3.org/Graphics/SVG/1.1/DTD/svg11.dtd"><svg width="12" height="12" viewBox="0 0 12 12" class="attachmentMicro" style="height:12px;margin-right:16px;width:12px;perspective-origin:6px 6px;transform-origin:6px 6px;shape-rendering:geometricprecision;" version="1.1" xmlns="http://www.w3.org/2000/svg" xmlns:xlink="http://www.w3.org/1999/xlink"><path fill-rule="evenodd" class="" fill="currentColor" d="M3.0681802,11.6504133 C1.43593291,11.6504133 0,10.3913686 0,8.71859676 C0,7.89479722 0.282835753,7.06368859 0.916192745,6.43450711 L6.52840542,0.860641096 C6.67627262,0.693800279 6.96789836,0.68556392 7.1249551,0.843772923 C7.28201183,1.00199556 7.27161683,1.29355449 7.1036892,1.44018623 L1.49573788,7.01405225 C1.02807073,7.4786429 0.818181435,8.07992439 0.818181435,8.71859676 C0.818181435,9.92169156 1.85207359,10.832232 3.0681802,10.832232 C3.63101248,10.832232 4.19857125,10.6001548 4.64488387,10.1546687 L10.7684599,4.0438848 C11.0339598,3.77887585 11.181812,3.44485331 11.181812,3.13620802 C11.181812,2.73917188 11.0567066,2.35946754 10.7727213,2.07513588 C10.2237964,1.52552255 9.36137068,1.52552255 8.81249507,2.07513588 C6.79174528,4.09852567 4.76931549,6.11990274 2.7485781,8.14330617 C2.51463823,8.41841966 2.50518687,8.73868312 2.68465768,8.9444421 C2.94349863,9.1482238 3.26824859,9.12573745 3.44744135,8.95726027 C5.29258324,7.12201128 7.13777054,5.28679775 8.98294271,3.45157603 C9.13081672,3.28476249 9.42241928,3.27652613 9.57946783,3.43473513 C9.73651638,3.59294414 9.72613639,3.88448943 9.5582333,4.03112117 L4.02272512,9.53681904 C3.37311775,10.0584233 2.56841729,10.0613006 2.10938059,9.53259177 C1.59256133,8.99766479 1.65898143,8.1604198 2.12642603,7.61071101 C4.25070441,5.48370673 6.41303626,3.31798065 8.23295662,1.49565893 C9.09213569,0.63534122 10.4930586,0.635368493 11.3522729,1.49565893 C11.8126774,1.95663595 12,2.56644016 12,3.13628984 C12,3.69619862 11.7430912,4.22490742 11.3437502,4.62349811 L5.22017433,10.7342957 C4.62852011,11.3248453 3.85531813,11.649527 3.06818674,11.6504815 L3.0681802,11.6504133 Z" style="display:inline;height:auto;min-height:0px;min-width:0px;overflow-x:visible;overflow-y:visible;width:auto;perspective-origin:0px 0px;transform-origin:0px 0px;fill:rgb(51, 51, 51);fill-rule:evenodd;shape-rendering:geometricprecision;d:path(&quot;M 3.06818 11.6504 C 1.43593 11.6504 0 10.3914 0 8.7186 C 0 7.8948 0.282836 7.06369 0.916193 6.43451 L 6.52841 0.860641 C 6.67627 0.6938 6.9679 0.685564 7.12496 0.843773 C 7.28201 1.002 7.27162 1.29355 7.10369 1.44019 L 1.49574 7.01405 C 1.02807 7.47864 0.818182 8.07992 0.818182 8.7186 C 0.818182 9.92169 1.85207 10.8322 3.06818 10.8322 C 3.63101 10.8322 4.19857 10.6002 4.64488 10.1547 L 10.7685 4.04388 C 11.034 3.77888 11.1818 3.44485 11.1818 3.13621 C 11.1818 2.73917 11.0567 2.35947 10.7727 2.07514 C 10.2238 1.52552 9.36137 1.52552 8.8125 2.07514 C 6.79175 4.09853 4.76932 6.1199 2.74858 8.14331 C 2.51464 8.41842 2.50519 8.73868 2.68466 8.94444 C 2.9435 9.14822 3.26825 9.12574 3.44744 8.95726 C 5.29258 7.12201 7.13777 5.2868 8.98294 3.45158 C 9.13082 3.28476 9.42242 3.27653 9.57947 3.43474 C 9.73652 3.59294 9.72614 3.88449 9.55823 4.03112 L 4.02273 9.53682 C 3.37312 10.0584 2.56842 10.0613 2.10938 9.53259 C 1.59256 8.99766 1.65898 8.16042 2.12643 7.61071 C 4.2507 5.48371 6.41304 3.31798 8.23296 1.49566 C 9.09214 0.635341 10.4931 0.635369 11.3523 1.49566 C 11.8127 1.95664 12 2.56644 12 3.13629 C 12 3.6962 11.7431 4.22491 11.3438 4.6235 L 5.22017 10.7343 C 4.62852 11.3248 3.85532 11.6495 3.06819 11.6505 L 3.06818 11.6504 Z&quot;);"/></svg>