<?xml version="1.0" standalone="no"?><!DOCTYPE svg PUBLIC "-//W3C//DTD SVG 1.1//EN" "http://www.w3.org/Graphics/SVG/1.1/DTD/svg11.dtd"><svg width="16" height="16" viewBox="0 0 16 16" class="attachment" style="height:16px;margin-right:8px;width:16px;perspective-origin:8px 8px;transform-origin:8px 8px;shape-rendering:geometricprecision;" version="1.1" xmlns="http://www.w3.org/2000/svg" xmlns:xlink="http://www.w3.org/1999/xlink"><path fill-rule="evenodd" class="" fill="currentColor" d="M4.12795501,15.5676428 C1.87687279,15.5675529 0,13.8212128 0,11.6196199 C0,10.4486805 0.420638556,9.35581869 1.23235957,8.54944909 L8.63356792,1.19903861 C8.85919166,0.944463878 9.29724097,0.932082289 9.53689735,1.17349695 C9.77654716,1.41492579 9.76093193,1.85287584 9.50845916,2.07311062 L2.1093749,9.42722301 C1.53097937,10.0018136 1.23895186,10.7605807 1.23895186,11.6196199 C1.23895186,13.1339723 2.53617509,14.3286012 4.12784969,14.3286012 C4.86258085,14.3286012 5.58771406,14.0209847 6.15181951,13.4579239 L14.2311924,5.39542877 C14.5633474,5.06388791 14.7531612,4.64391315 14.7531612,4.2542769 C14.7531612,3.72270107 14.5792166,3.25355641 14.2367273,2.91064936 C13.5436253,2.21667802 12.4562863,2.21667802 11.763248,2.91064789 C10.6563772,4.01896471 9.77025638,4.905638 7.77760475,6.8990783 C5.76956909,8.90790872 4.87725323,9.80078376 3.76690642,10.9122342 C3.49061263,11.237156 3.46573716,11.6173475 3.67115157,11.8549556 C3.96631394,12.0873326 4.35296561,12.0838953 4.57201962,11.8779838 C6.10713053,10.3511035 7.31080493,9.15391265 10.0496233,6.42987044 L10.506093,5.97586364 C11.1907974,5.29485347 11.1907974,5.29485347 11.8720632,4.6174838 C12.0977026,4.36294485 12.5357182,4.350577 12.7753538,4.59198336 C13.0149919,4.83339212 12.9993995,5.2713218 12.7469777,5.49154243 L5.43718225,12.7613395 C4.54618257,13.4767704 3.43672836,13.4762194 2.80548295,12.7489922 C2.119796,12.0392809 2.15443194,10.8943185 2.82889849,10.1015488 C3.24963845,9.68026487 3.24963845,9.68026487 3.67088076,9.25846312 C4.9479987,7.97963825 9.8106632,3.10995955 10.8857874,2.03341674 C12.0505098,0.867150747 13.949408,0.867162204 15.1142015,2.03341444 C15.696511,2.61644811 15.9921218,3.41311072 15.9921218,4.25438485 C15.9921218,4.98991655 15.665113,5.71183108 15.1028628,6.27302499 L7.02348952,14.3355386 C6.23191583,15.1256346 5.1929814,15.5663513 4.12795501,15.5676428 Z" style="display:inline;height:auto;min-height:0px;min-width:0px;overflow-x:visible;overflow-y:visible;width:auto;perspective-origin:0px 0px;transform-origin:0px 0px;fill:rgb(51, 51, 51);fill-rule:evenodd;shape-rendering:geometricprecision;d:path(&quot;M 4.12795 15.5676 C 1.87687 15.5676 0 13.8212 0 11.6196 C 0 10.4487 0.420639 9.35582 1.23236 8.54945 L 8.63357 1.19904 C 8.85919 0.944464 9.29724 0.932082 9.5369 1.1735 C 9.77655 1.41493 9.76093 1.85288 9.50846 2.07311 L 2.10938 9.42722 C 1.53098 10.0018 1.23895 10.7606 1.23895 11.6196 C 1.23895 13.134 2.53618 14.3286 4.12785 14.3286 C 4.86258 14.3286 5.58771 14.021 6.15182 13.4579 L 14.2312 5.39543 C 14.5633 5.06389 14.7532 4.64391 14.7532 4.25428 C 14.7532 3.7227 14.5792 3.25356 14.2367 2.91065 C 13.5436 2.21668 12.4563 2.21668 11.7632 2.91065 C 10.6564 4.01896 9.77026 4.90564 7.7776 6.89908 C 5.76957 8.90791 4.87725 9.80078 3.76691 10.9122 C 3.49061 11.2372 3.46574 11.6173 3.67115 11.855 C 3.96631 12.0873 4.35297 12.0839 4.57202 11.878 C 6.10713 10.3511 7.3108 9.15391 10.0496 6.42987 L 10.5061 5.97586 C 11.1908 5.29485 11.1908 5.29485 11.8721 4.61748 C 12.0977 4.36295 12.5357 4.35058 12.7754 4.59198 C 13.015 4.83339 12.9994 5.27132 12.747 5.49154 L 5.43718 12.7613 C 4.54618 13.4768 3.43673 13.4762 2.80548 12.749 C 2.1198 12.0393 2.15443 10.8943 2.8289 10.1015 C 3.24964 9.68026 3.24964 9.68026 3.67088 9.25846 C 4.948 7.97964 9.81066 3.10996 10.8858 2.03342 C 12.0505 0.867151 13.9494 0.867162 15.1142 2.03341 C 15.6965 2.61645 15.9921 3.41311 15.9921 4.25438 C 15.9921 4.98992 15.6651 5.71183 15.1029 6.27303 L 7.02349 14.3355 C 6.23192 15.1256 5.19298 15.5664 4.12795 15.5676 Z&quot;);"/></svg>