<?xml version="1.0" standalone="no"?><!DOCTYPE svg PUBLIC "-//W3C//DTD SVG 1.1//EN" "http://www.w3.org/Graphics/SVG/1.1/DTD/svg11.dtd"><svg width="12" height="12" viewBox="0 0 12 12" version="1.1" xmlns="http://www.w3.org/2000/svg" xmlns:xlink="http://www.w3.org/1999/xlink"><path fill-rule="evenodd" fill="currentColor" d="M3.0681802,11.6504133 C1.43593291,11.6504133 0,10.3913686 0,8.71859676 C0,7.89479722 0.282835753,7.06368859 0.916192745,6.43450711 L6.52840542,0.860641096 C6.67627262,0.693800279 6.96789836,0.68556392 7.1249551,0.843772923 C7.28201183,1.00199556 7.27161683,1.29355449 7.1036892,1.44018623 L1.49573788,7.01405225 C1.02807073,7.4786429 0.818181435,8.07992439 0.818181435,8.71859676 C0.818181435,9.92169156 1.85207359,10.832232 3.0681802,10.832232 C3.63101248,10.832232 4.19857125,10.6001548 4.64488387,10.1546687 L10.7684599,4.0438848 C11.0339598,3.77887585 11.181812,3.44485331 11.181812,3.13620802 C11.181812,2.73917188 11.0567066,2.35946754 10.7727213,2.07513588 C10.2237964,1.52552255 9.36137068,1.52552255 8.81249507,2.07513588 C6.79174528,4.09852567 4.76931549,6.11990274 2.7485781,8.14330617 C2.51463823,8.41841966 2.50518687,8.73868312 2.68465768,8.9444421 C2.94349863,9.1482238 3.26824859,9.12573745 3.44744135,8.95726027 C5.29258324,7.12201128 7.13777054,5.28679775 8.98294271,3.45157603 C9.13081672,3.28476249 9.42241928,3.27652613 9.57946783,3.43473513 C9.73651638,3.59294414 9.72613639,3.88448943 9.5582333,4.03112117 L4.02272512,9.53681904 C3.37311775,10.0584233 2.56841729,10.0613006 2.10938059,9.53259177 C1.59256133,8.99766479 1.65898143,8.1604198 2.12642603,7.61071101 C4.25070441,5.48370673 6.41303626,3.31798065 8.23295662,1.49565893 C9.09213569,0.63534122 10.4930586,0.635368493 11.3522729,1.49565893 C11.8126774,1.95663595 12,2.56644016 12,3.13628984 C12,3.69619862 11.7430912,4.22490742 11.3437502,4.62349811 L5.22017433,10.7342957 C4.62852011,11.3248453 3.85531813,11.649527 3.06818674,11.6504815 L3.0681802,11.6504133 Z"/></svg>