<?xml version="1.0" standalone="no"?><!DOCTYPE svg PUBLIC "-//W3C//DTD SVG 1.1//EN" "http://www.w3.org/Graphics/SVG/1.1/DTD/svg11.dtd"><svg width="16" height="16" viewBox="0 0 16 16" version="1.1" xmlns="http://www.w3.org/2000/svg" xmlns:xlink="http://www.w3.org/1999/xlink"><path fill-rule="evenodd" fill="currentColor" d="M5.583 11.406c.097-.107.248-.39.248-.577 0-.355-.24-.647-.638-.647-.444 0-.728.257-.728.647v.15c0 .098-.08.178-.177.178h-.843a.178.178 0 0 1-.177-.177v-.142c0-1.038.851-1.854 1.89-1.854 1.046 0 1.87.816 1.87 1.854 0 .488-.221.958-.55 1.313l-1.667 1.765c-.053.053-.062.177.089.177h1.96c.098 0 .177.08.177.177v.843c0 .097-.08.177-.177.177H3.383a.178.178 0 0 1-.177-.177v-1.047c0-.133.044-.186.08-.221l2.297-2.44zm-.835-4.327V2.825c0-.115-.115-.124-.168-.07l-.771.747c-.107.107-.302.036-.302-.142v-.85a.5.5 0 0 1 .142-.39l.727-.854a.587.587 0 0 1 .443-.213h.984c.097 0 .177.08.177.177v5.85c0 .097-.08.177-.177.177h-.878a.178.178 0 0 1-.177-.178zM12 12.5V2c0-.552-.444-1-1-1-.552 0-1 .45-1 1v10.5h-.508c-.548 0-.743.365-.424.831l1.365 2.001c.314.46.817.467 1.135 0l1.365-2c.313-.46.125-.832-.425-.832H12z"/></svg>