<?xml version="1.0" standalone="no"?><!DOCTYPE svg PUBLIC "-//W3C//DTD SVG 1.1//EN" "http://www.w3.org/Graphics/SVG/1.1/DTD/svg11.dtd"><svg width="16" height="16" viewBox="0 0 16 16" class="autonumber" style="height:16px;margin-right:8px;width:16px;perspective-origin:8px 8px;transform-origin:8px 8px;shape-rendering:geometricprecision;" version="1.1" xmlns="http://www.w3.org/2000/svg" xmlns:xlink="http://www.w3.org/1999/xlink"><path fill-rule="evenodd" class="" fill="currentColor" d="M5.583 11.406c.097-.107.248-.39.248-.577 0-.355-.24-.647-.638-.647-.444 0-.728.257-.728.647v.15c0 .098-.08.178-.177.178h-.843a.178.178 0 0 1-.177-.177v-.142c0-1.038.851-1.854 1.89-1.854 1.046 0 1.87.816 1.87 1.854 0 .488-.221.958-.55 1.313l-1.667 1.765c-.053.053-.062.177.089.177h1.96c.098 0 .177.08.177.177v.843c0 .097-.08.177-.177.177H3.383a.178.178 0 0 1-.177-.177v-1.047c0-.133.044-.186.08-.221l2.297-2.44zm-.835-4.327V2.825c0-.115-.115-.124-.168-.07l-.771.747c-.107.107-.302.036-.302-.142v-.85a.5.5 0 0 1 .142-.39l.727-.854a.587.587 0 0 1 .443-.213h.984c.097 0 .177.08.177.177v5.85c0 .097-.08.177-.177.177h-.878a.178.178 0 0 1-.177-.178zM12 12.5V2c0-.552-.444-1-1-1-.552 0-1 .45-1 1v10.5h-.508c-.548 0-.743.365-.424.831l1.365 2.001c.314.46.817.467 1.135 0l1.365-2c.313-.46.125-.832-.425-.832H12z" style="display:inline;height:auto;min-height:0px;min-width:0px;overflow-x:visible;overflow-y:visible;width:auto;perspective-origin:0px 0px;transform-origin:0px 0px;fill:rgb(51, 51, 51);fill-rule:evenodd;shape-rendering:geometricprecision;d:path(&quot;M 5.583 11.406 C 5.68 11.299 5.831 11.016 5.831 10.829 C 5.831 10.474 5.591 10.182 5.193 10.182 C 4.749 10.182 4.465 10.439 4.465 10.829 V 10.979 C 4.465 11.077 4.385 11.157 4.288 11.157 H 3.445 A 0.178 0.178 0 0 1 3.268 10.98 V 10.838 C 3.268 9.8 4.119 8.984 5.158 8.984 C 6.204 8.984 7.028 9.8 7.028 10.838 C 7.028 11.326 6.807 11.796 6.478 12.151 L 4.811 13.916 C 4.758 13.969 4.749 14.093 4.9 14.093 H 6.86 C 6.958 14.093 7.037 14.173 7.037 14.27 V 15.113 C 7.037 15.21 6.957 15.29 6.86 15.29 H 3.383 A 0.178 0.178 0 0 1 3.206 15.113 V 14.066 C 3.206 13.933 3.25 13.88 3.286 13.845 L 5.583 11.405 Z M 4.748 7.079 V 2.825 C 4.748 2.71 4.633 2.701 4.58 2.755 L 3.809 3.502 C 3.702 3.609 3.507 3.538 3.507 3.36 V 2.51 A 0.5 0.5 0 0 1 3.649 2.12 L 4.376 1.266 A 0.587 0.587 0 0 1 4.819 1.053 H 5.803 C 5.9 1.053 5.98 1.133 5.98 1.23 V 7.08 C 5.98 7.177 5.9 7.257 5.803 7.257 H 4.925 A 0.178 0.178 0 0 1 4.748 7.079 Z M 12 12.5 V 2 C 12 1.448 11.556 1 11 1 C 10.448 1 10 1.45 10 2 V 12.5 H 9.492 C 8.944 12.5 8.749 12.865 9.068 13.331 L 10.433 15.332 C 10.747 15.792 11.25 15.799 11.568 15.332 L 12.933 13.332 C 13.246 12.872 13.058 12.5 12.508 12.5 H 12 Z&quot;);"/></svg>