<?xml version="1.0" standalone="no"?><!DOCTYPE svg PUBLIC "-//W3C//DTD SVG 1.1//EN" "http://www.w3.org/Graphics/SVG/1.1/DTD/svg11.dtd"><svg width="12" height="12" viewBox="0 0 12 12" class="autonumberMicro" style="height:12px;margin-right:16px;width:12px;perspective-origin:6px 6px;transform-origin:6px 6px;shape-rendering:geometricprecision;" version="1.1" xmlns="http://www.w3.org/2000/svg" xmlns:xlink="http://www.w3.org/1999/xlink"><path fill-rule="evenodd" class="" fill="currentColor" d="M3.95 8.597c.062-.07.16-.252.16-.373 0-.229-.155-.418-.413-.418-.286 0-.47.166-.47.418v.098a.115.115 0 0 1-.114.114h-.544a.115.115 0 0 1-.115-.114V8.23c0-.67.55-1.197 1.22-1.197.676 0 1.209.527 1.209 1.197 0 .315-.144.619-.355.848l-1.077 1.14c-.035.034-.04.114.057.114h1.266c.063 0 .114.052.114.115v.544a.115.115 0 0 1-.114.114H2.529a.115.115 0 0 1-.115-.114v-.676c0-.086.029-.12.052-.143l1.483-1.575zm-.56-3.473v-2.75c0-.074-.074-.08-.108-.045l-.693.647c-.069.069-.195.023-.195-.091v-.55c0-.092.012-.166.092-.252l.664-.716a.38.38 0 0 1 .287-.138h.635c.063 0 .115.052.115.115v3.78a.115.115 0 0 1-.115.115h-.568a.115.115 0 0 1-.114-.115zM9 8.997v-7A.996.996 0 0 0 8 1c-.552 0-1 .453-1 .997v7h-.508c-.548 0-.715.35-.374.783l1.265 1.6c.341.433.895.433 1.236 0l1.263-1.6c.341-.433.176-.783-.374-.783H9z" style="display:inline;height:auto;min-height:0px;min-width:0px;overflow-x:visible;overflow-y:visible;width:auto;perspective-origin:0px 0px;transform-origin:0px 0px;fill:rgb(51, 51, 51);fill-rule:evenodd;shape-rendering:geometricprecision;d:path(&quot;M 3.95 8.597 C 4.012 8.527 4.11 8.345 4.11 8.224 C 4.11 7.995 3.955 7.806 3.697 7.806 C 3.411 7.806 3.227 7.972 3.227 8.224 V 8.322 A 0.115 0.115 0 0 1 3.113 8.436 H 2.569 A 0.115 0.115 0 0 1 2.454 8.322 V 8.23 C 2.454 7.56 3.004 7.033 3.674 7.033 C 4.35 7.033 4.883 7.56 4.883 8.23 C 4.883 8.545 4.739 8.849 4.528 9.078 L 3.451 10.218 C 3.416 10.252 3.411 10.332 3.508 10.332 H 4.774 C 4.837 10.332 4.888 10.384 4.888 10.447 V 10.991 A 0.115 0.115 0 0 1 4.774 11.105 H 2.529 A 0.115 0.115 0 0 1 2.414 10.991 V 10.315 C 2.414 10.229 2.443 10.195 2.466 10.172 L 3.949 8.597 Z M 3.39 5.124 V 2.374 C 3.39 2.3 3.316 2.294 3.282 2.329 L 2.589 2.976 C 2.52 3.045 2.394 2.999 2.394 2.885 V 2.335 C 2.394 2.243 2.406 2.169 2.486 2.083 L 3.15 1.367 A 0.38 0.38 0 0 1 3.437 1.229 H 4.072 C 4.135 1.229 4.187 1.281 4.187 1.344 V 5.124 A 0.115 0.115 0 0 1 4.072 5.239 H 3.504 A 0.115 0.115 0 0 1 3.39 5.124 Z M 9 8.997 V 1.997 A 0.996 0.996 0 0 0 8 1 C 7.448 1 7 1.453 7 1.997 V 8.997 H 6.492 C 5.944 8.997 5.777 9.347 6.118 9.78 L 7.383 11.38 C 7.724 11.813 8.278 11.813 8.619 11.38 L 9.882 9.78 C 10.223 9.347 10.058 8.997 9.508 8.997 H 9 Z&quot;);"/></svg>