<?xml version="1.0" standalone="no"?><!DOCTYPE svg PUBLIC "-//W3C//DTD SVG 1.1//EN" "http://www.w3.org/Graphics/SVG/1.1/DTD/svg11.dtd"><svg width="12" height="12" viewBox="0 0 12 12" version="1.1" xmlns="http://www.w3.org/2000/svg" xmlns:xlink="http://www.w3.org/1999/xlink"><path fill-rule="evenodd" fill="currentColor" d="M3.95 8.597c.062-.07.16-.252.16-.373 0-.229-.155-.418-.413-.418-.286 0-.47.166-.47.418v.098a.115.115 0 0 1-.114.114h-.544a.115.115 0 0 1-.115-.114V8.23c0-.67.55-1.197 1.22-1.197.676 0 1.209.527 1.209 1.197 0 .315-.144.619-.355.848l-1.077 1.14c-.035.034-.04.114.057.114h1.266c.063 0 .114.052.114.115v.544a.115.115 0 0 1-.114.114H2.529a.115.115 0 0 1-.115-.114v-.676c0-.086.029-.12.052-.143l1.483-1.575zm-.56-3.473v-2.75c0-.074-.074-.08-.108-.045l-.693.647c-.069.069-.195.023-.195-.091v-.55c0-.092.012-.166.092-.252l.664-.716a.38.38 0 0 1 .287-.138h.635c.063 0 .115.052.115.115v3.78a.115.115 0 0 1-.115.115h-.568a.115.115 0 0 1-.114-.115zM9 8.997v-7A.996.996 0 0 0 8 1c-.552 0-1 .453-1 .997v7h-.508c-.548 0-.715.35-.374.783l1.265 1.6c.341.433.895.433 1.236 0l1.263-1.6c.341-.433.176-.783-.374-.783H9z"/></svg>