<?xml version="1.0" standalone="no"?><!DOCTYPE svg PUBLIC "-//W3C//DTD SVG 1.1//EN" "http://www.w3.org/Graphics/SVG/1.1/DTD/svg11.dtd"><svg width="16" height="16" viewBox="0 0 16 16" class="barcode" style="height:16px;margin-right:8px;width:16px;perspective-origin:8px 8px;transform-origin:8px 8px;shape-rendering:geometricprecision;" version="1.1" xmlns="http://www.w3.org/2000/svg" xmlns:xlink="http://www.w3.org/1999/xlink"><path fill-rule="evenodd" class="" fill="currentColor" d="M4.5,15 L2.5,15 C2.224,15 2,14.7386667 2,14.4166667 L2,1.58333333 C2,1.26133333 2.224,1 2.5,1 L4.5,1 C4.776,1 5,1.26133333 5,1.58333333 L5,14.4166667 C5,14.7386667 4.776,15 4.5,15 Z M7,14.3 C7,14.6861667 6.776,15 6.5,15 C6.224,15 6,14.6861667 6,14.3 L6,1.7 C6,1.31383333 6.224,1 6.5,1 C6.776,1 7,1.31383333 7,1.7 L7,14.3 Z M9.5,15 L8.5,15 C8.224,15 8,14.7386667 8,14.4166667 L8,1.58333333 C8,1.26133333 8.224,1 8.5,1 L9.5,1 C9.776,1 10,1.26133333 10,1.58333333 L10,14.4166667 C10,14.7386667 9.776,15 9.5,15 Z M15.5,15 L13.5,15 C13.224,15 13,14.7386667 13,14.4166667 L13,1.58333333 C13,1.26133333 13.224,1 13.5,1 L15.5,1 C15.776,1 16,1.26133333 16,1.58333333 L16,14.4166667 C16,14.7386667 15.776,15 15.5,15 Z M12,14.3 C12,14.6861667 11.776,15 11.5,15 C11.224,15 11,14.6861667 11,14.3 L11,1.7 C11,1.31383333 11.224,1 11.5,1 C11.776,1 12,1.31383333 12,1.7 L12,14.3 Z M1,14.3 C1,14.6861667 0.776,15 0.5,15 C0.224,15 0,14.6861667 0,14.3 L0,1.7 C0,1.31383333 0.224,1 0.5,1 C0.776,1 1,1.31383333 1,1.7 L1,14.3 Z" style="display:inline;height:auto;min-height:0px;min-width:0px;overflow-x:visible;overflow-y:visible;width:auto;perspective-origin:0px 0px;transform-origin:0px 0px;fill:rgb(51, 51, 51);fill-rule:evenodd;shape-rendering:geometricprecision;d:path(&quot;M 4.5 15 L 2.5 15 C 2.224 15 2 14.7387 2 14.4167 L 2 1.58333 C 2 1.26133 2.224 1 2.5 1 L 4.5 1 C 4.776 1 5 1.26133 5 1.58333 L 5 14.4167 C 5 14.7387 4.776 15 4.5 15 Z M 7 14.3 C 7 14.6862 6.776 15 6.5 15 C 6.224 15 6 14.6862 6 14.3 L 6 1.7 C 6 1.31383 6.224 1 6.5 1 C 6.776 1 7 1.31383 7 1.7 L 7 14.3 Z M 9.5 15 L 8.5 15 C 8.224 15 8 14.7387 8 14.4167 L 8 1.58333 C 8 1.26133 8.224 1 8.5 1 L 9.5 1 C 9.776 1 10 1.26133 10 1.58333 L 10 14.4167 C 10 14.7387 9.776 15 9.5 15 Z M 15.5 15 L 13.5 15 C 13.224 15 13 14.7387 13 14.4167 L 13 1.58333 C 13 1.26133 13.224 1 13.5 1 L 15.5 1 C 15.776 1 16 1.26133 16 1.58333 L 16 14.4167 C 16 14.7387 15.776 15 15.5 15 Z M 12 14.3 C 12 14.6862 11.776 15 11.5 15 C 11.224 15 11 14.6862 11 14.3 L 11 1.7 C 11 1.31383 11.224 1 11.5 1 C 11.776 1 12 1.31383 12 1.7 L 12 14.3 Z M 1 14.3 C 1 14.6862 0.776 15 0.5 15 C 0.224 15 0 14.6862 0 14.3 L 0 1.7 C 0 1.31383 0.224 1 0.5 1 C 0.776 1 1 1.31383 1 1.7 L 1 14.3 Z&quot;);"/></svg>