<?xml version="1.0" standalone="no"?><!DOCTYPE svg PUBLIC "-//W3C//DTD SVG 1.1//EN" "http://www.w3.org/Graphics/SVG/1.1/DTD/svg11.dtd"><svg width="12" height="12" viewBox="0 0 12 12" version="1.1" xmlns="http://www.w3.org/2000/svg" xmlns:xlink="http://www.w3.org/1999/xlink"><path fill-rule="evenodd" fill="currentColor" d="M5,10.5 C5,10.776 4.776,11 4.5,11 L2.5,11 C2.224,11 2,10.776 2,10.5 L2,1.5 C2,1.224 2.224,1 2.5,1 L4.5,1 C4.776,1 5,1.224 5,1.5 L5,10.5 Z M7,10.5 C7,10.776 6.776,11 6.5,11 C6.224,11 6,10.776 6,10.5 L6,1.5 C6,1.224 6.224,1 6.5,1 C6.776,1 7,1.224 7,1.5 L7,10.5 Z M10,10.5 C10,10.776 9.776,11 9.5,11 L8.5,11 C8.224,11 8,10.776 8,10.5 L8,1.5 C8,1.224 8.224,1 8.5,1 L9.5,1 C9.776,1 10,1.224 10,1.5 L10,10.5 Z M12,10.5 C12,10.776 11.776,11 11.5,11 C11.224,11 11,10.776 11,10.5 L11,1.5 C11,1.224 11.224,1 11.5,1 C11.776,1 12,1.224 12,1.5 L12,10.5 Z M1,10.5 C1,10.776 0.776,11 0.5,11 C0.224,11 0,10.776 0,10.5 L0,1.5 C0,1.224 0.224,1 0.5,1 C0.776,1 1,1.224 1,1.5 L1,10.5 Z"/></svg>