<?xml version="1.0" standalone="no"?><!DOCTYPE svg PUBLIC "-//W3C//DTD SVG 1.1//EN" "http://www.w3.org/Graphics/SVG/1.1/DTD/svg11.dtd"><svg width="16" height="16" viewBox="0 0 16 16" version="1.1" xmlns="http://www.w3.org/2000/svg" xmlns:xlink="http://www.w3.org/1999/xlink"><path fill-rule="evenodd" fill="currentColor" d="M4.5,15 L2.5,15 C2.224,15 2,14.7386667 2,14.4166667 L2,1.58333333 C2,1.26133333 2.224,1 2.5,1 L4.5,1 C4.776,1 5,1.26133333 5,1.58333333 L5,14.4166667 C5,14.7386667 4.776,15 4.5,15 Z M7,14.3 C7,14.6861667 6.776,15 6.5,15 C6.224,15 6,14.6861667 6,14.3 L6,1.7 C6,1.31383333 6.224,1 6.5,1 C6.776,1 7,1.31383333 7,1.7 L7,14.3 Z M9.5,15 L8.5,15 C8.224,15 8,14.7386667 8,14.4166667 L8,1.58333333 C8,1.26133333 8.224,1 8.5,1 L9.5,1 C9.776,1 10,1.26133333 10,1.58333333 L10,14.4166667 C10,14.7386667 9.776,15 9.5,15 Z M15.5,15 L13.5,15 C13.224,15 13,14.7386667 13,14.4166667 L13,1.58333333 C13,1.26133333 13.224,1 13.5,1 L15.5,1 C15.776,1 16,1.26133333 16,1.58333333 L16,14.4166667 C16,14.7386667 15.776,15 15.5,15 Z M12,14.3 C12,14.6861667 11.776,15 11.5,15 C11.224,15 11,14.6861667 11,14.3 L11,1.7 C11,1.31383333 11.224,1 11.5,1 C11.776,1 12,1.31383333 12,1.7 L12,14.3 Z M1,14.3 C1,14.6861667 0.776,15 0.5,15 C0.224,15 0,14.6861667 0,14.3 L0,1.7 C0,1.31383333 0.224,1 0.5,1 C0.776,1 1,1.31383333 1,1.7 L1,14.3 Z"/></svg>