<?xml version="1.0" standalone="no"?><!DOCTYPE svg PUBLIC "-//W3C//DTD SVG 1.1//EN" "http://www.w3.org/Graphics/SVG/1.1/DTD/svg11.dtd"><svg width="16" height="16" viewBox="0 0 16 16" version="1.1" xmlns="http://www.w3.org/2000/svg" xmlns:xlink="http://www.w3.org/1999/xlink"><path fill-rule="evenodd" fill="currentColor" d="M13,8 L13.2946243,8.29462433 C13.6835938,8.68359375 14,9.44724809 14,9.99895656 L14,11.0010434 C14,11.5573397 13.5511774,12 12.9975267,12 L3.00247329,12 C2.45576096,12 2,11.5527519 2,11.0010434 L2,9.99895656 C2,9.44266033 2.31580745,8.68419255 2.70537567,8.29462433 L3,8 L3,6.984 C3,4.559 4.728,2.555 7.02,2.099 C7.017,2.065 7,2.035 7,2 C7,1.45 7.45,1 8,1 C8.55,1 9,1.45 9,2 C9,2.035 8.983,2.065 8.98,2.099 C11.272,2.555 13,4.574 13,7 L13,8 Z M10,13 C10,14.104 9.105,15 8,15 C6.895,15 6,14.104 6,13 L10,13 Z"/></svg>