<?xml version="1.0" standalone="no"?><!DOCTYPE svg PUBLIC "-//W3C//DTD SVG 1.1//EN" "http://www.w3.org/Graphics/SVG/1.1/DTD/svg11.dtd"><svg width="16" height="16" viewBox="0 0 16 16" class="bell" style="height:16px;margin-right:8px;width:16px;perspective-origin:8px 8px;transform-origin:8px 8px;shape-rendering:geometricprecision;" version="1.1" xmlns="http://www.w3.org/2000/svg" xmlns:xlink="http://www.w3.org/1999/xlink"><path fill-rule="evenodd" class="" fill="currentColor" d="M13,8 L13.2946243,8.29462433 C13.6835938,8.68359375 14,9.44724809 14,9.99895656 L14,11.0010434 C14,11.5573397 13.5511774,12 12.9975267,12 L3.00247329,12 C2.45576096,12 2,11.5527519 2,11.0010434 L2,9.99895656 C2,9.44266033 2.31580745,8.68419255 2.70537567,8.29462433 L3,8 L3,6.984 C3,4.559 4.728,2.555 7.02,2.099 C7.017,2.065 7,2.035 7,2 C7,1.45 7.45,1 8,1 C8.55,1 9,1.45 9,2 C9,2.035 8.983,2.065 8.98,2.099 C11.272,2.555 13,4.574 13,7 L13,8 Z M10,13 C10,14.104 9.105,15 8,15 C6.895,15 6,14.104 6,13 L10,13 Z" style="display:inline;height:auto;min-height:0px;min-width:0px;overflow-x:visible;overflow-y:visible;width:auto;perspective-origin:0px 0px;transform-origin:0px 0px;fill:rgb(51, 51, 51);fill-rule:evenodd;shape-rendering:geometricprecision;d:path(&quot;M 13 8 L 13.2946 8.29462 C 13.6836 8.68359 14 9.44725 14 9.99896 L 14 11.001 C 14 11.5573 13.5512 12 12.9975 12 L 3.00247 12 C 2.45576 12 2 11.5528 2 11.001 L 2 9.99896 C 2 9.44266 2.31581 8.68419 2.70538 8.29462 L 3 8 L 3 6.984 C 3 4.559 4.728 2.555 7.02 2.099 C 7.017 2.065 7 2.035 7 2 C 7 1.45 7.45 1 8 1 C 8.55 1 9 1.45 9 2 C 9 2.035 8.983 2.065 8.98 2.099 C 11.272 2.555 13 4.574 13 7 L 13 8 Z M 10 13 C 10 14.104 9.105 15 8 15 C 6.895 15 6 14.104 6 13 L 10 13 Z&quot;);"/></svg>