<?xml version="1.0" standalone="no"?><!DOCTYPE svg PUBLIC "-//W3C//DTD SVG 1.1//EN" "http://www.w3.org/Graphics/SVG/1.1/DTD/svg11.dtd"><svg width="12" height="12" viewBox="0 0 12 12" class="blocksMicro" style="height:12px;margin-right:16px;width:12px;perspective-origin:6px 6px;transform-origin:6px 6px;shape-rendering:geometricprecision;" version="1.1" xmlns="http://www.w3.org/2000/svg" xmlns:xlink="http://www.w3.org/1999/xlink"><path fill-rule="evenodd" class="" fill="currentColor" d="M1.5 9.99V8.01C1.5 7.442 1.952 7 2.51 7h1.98c.567 0 1.01.452 1.01 1.01v1.98c0 .567-.452 1.01-1.01 1.01H2.51c-.567 0-1.01-.452-1.01-1.01zM1.044 3.5c0-1.39 1.119-2.5 2.5-2.5 1.39 0 2.5 1.12 2.5 2.5 0 1.39-1.12 2.5-2.5 2.5-1.39 0-2.5-1.12-2.5-2.5zm5.473 1.154L8.23 1.846c.282-.462.748-.467 1.034 0l1.717 2.808c.283.462.066.846-.49.846H7.008c-.559 0-.778-.379-.492-.846zm.6 5.153l1.236-.99-1.236-.988a.811.811 0 1 1 1.014-1.267l2.027 1.623a.811.811 0 0 1 0 1.266l-2.027 1.622a.811.811 0 0 1-1.014-1.266z" style="display:inline;height:auto;min-height:0px;min-width:0px;overflow-x:visible;overflow-y:visible;width:auto;perspective-origin:0px 0px;transform-origin:0px 0px;fill:rgb(51, 51, 51);fill-rule:evenodd;shape-rendering:geometricprecision;d:path(&quot;M 1.5 9.99 V 8.01 C 1.5 7.442 1.952 7 2.51 7 H 4.49 C 5.057 7 5.5 7.452 5.5 8.01 V 9.99 C 5.5 10.557 5.048 11 4.49 11 H 2.51 C 1.943 11 1.5 10.548 1.5 9.99 Z M 1.044 3.5 C 1.044 2.11 2.163 1 3.544 1 C 4.934 1 6.044 2.12 6.044 3.5 C 6.044 4.89 4.924 6 3.544 6 C 2.154 6 1.044 4.88 1.044 3.5 Z M 6.517 4.654 L 8.23 1.846 C 8.512 1.384 8.978 1.379 9.264 1.846 L 10.981 4.654 C 11.264 5.116 11.047 5.5 10.491 5.5 H 7.008 C 6.449 5.5 6.23 5.121 6.516 4.654 Z M 7.117 9.807 L 8.353 8.817 L 7.117 7.829 A 0.811 0.811 0 1 1 8.131 6.562 L 10.158 8.185 A 0.811 0.811 0 0 1 10.158 9.451 L 8.131 11.073 A 0.811 0.811 0 0 1 7.117 9.807 Z&quot;);"/></svg>