<?xml version="1.0" standalone="no"?><!DOCTYPE svg PUBLIC "-//W3C//DTD SVG 1.1//EN" "http://www.w3.org/Graphics/SVG/1.1/DTD/svg11.dtd"><svg width="16" height="16" viewBox="0 0 16 16" class="blocks" style="height:16px;margin-right:8px;width:16px;perspective-origin:8px 8px;transform-origin:8px 8px;shape-rendering:geometricprecision;" version="1.1" xmlns="http://www.w3.org/2000/svg" xmlns:xlink="http://www.w3.org/1999/xlink"><path fill-rule="evenodd" class="" fill="currentColor" d="M1 14.01V9.99c0-.539.444-.99.99-.99h4.02c.539 0 .99.444.99.99v4.02c0 .54-.444.99-.99.99H1.99a.996.996 0 0 1-.99-.99zm0-9.76A3.252 3.252 0 0 1 4.25 1 3.252 3.252 0 0 1 7.5 4.25 3.252 3.252 0 0 1 4.25 7.5 3.252 3.252 0 0 1 1 4.25zm7.05 2.22L11 1.366c.276-.479.727-.478 1.007 0l2.986 5.104c.28.479.056.866-.5.866H8.557c-.556 0-.783-.388-.506-.866zm1.8 6.85L11.5 12l-1.65-1.32a1.083 1.083 0 0 1 1.353-1.693l2.708 2.167a1.083 1.083 0 0 1 0 1.692l-2.708 2.167a1.083 1.083 0 1 1-1.354-1.692z" style="display:inline;height:auto;min-height:0px;min-width:0px;overflow-x:visible;overflow-y:visible;width:auto;perspective-origin:0px 0px;transform-origin:0px 0px;fill:rgb(51, 51, 51);fill-rule:evenodd;shape-rendering:geometricprecision;d:path(&quot;M 1 14.01 V 9.99 C 1 9.451 1.444 9 1.99 9 H 6.01 C 6.549 9 7 9.444 7 9.99 V 14.01 C 7 14.55 6.556 15 6.01 15 H 1.99 A 0.996 0.996 0 0 1 1 14.01 Z M 1 4.25 A 3.252 3.252 0 0 1 4.25 1 A 3.252 3.252 0 0 1 7.5 4.25 A 3.252 3.252 0 0 1 4.25 7.5 A 3.252 3.252 0 0 1 1 4.25 Z M 8.05 6.47 L 11 1.366 C 11.276 0.887 11.727 0.888 12.007 1.366 L 14.993 6.47 C 15.273 6.949 15.049 7.336 14.493 7.336 H 8.557 C 8.001 7.336 7.774 6.948 8.051 6.47 Z M 9.85 13.32 L 11.5 12 L 9.85 10.68 A 1.083 1.083 0 0 1 11.203 8.987 L 13.911 11.154 A 1.083 1.083 0 0 1 13.911 12.846 L 11.203 15.013 A 1.083 1.083 0 1 1 9.849 13.321 Z&quot;);"/></svg>