<?xml version="1.0" standalone="no"?><!DOCTYPE svg PUBLIC "-//W3C//DTD SVG 1.1//EN" "http://www.w3.org/Graphics/SVG/1.1/DTD/svg11.dtd"><svg width="16" height="16" viewBox="0 0 16 16" version="1.1" xmlns="http://www.w3.org/2000/svg" xmlns:xlink="http://www.w3.org/1999/xlink"><path fill-rule="evenodd" fill="currentColor" d="M1 14.01V9.99c0-.539.444-.99.99-.99h4.02c.539 0 .99.444.99.99v4.02c0 .54-.444.99-.99.99H1.99a.996.996 0 0 1-.99-.99zm0-9.76A3.252 3.252 0 0 1 4.25 1 3.252 3.252 0 0 1 7.5 4.25 3.252 3.252 0 0 1 4.25 7.5 3.252 3.252 0 0 1 1 4.25zm7.05 2.22L11 1.366c.276-.479.727-.478 1.007 0l2.986 5.104c.28.479.056.866-.5.866H8.557c-.556 0-.783-.388-.506-.866zm1.8 6.85L11.5 12l-1.65-1.32a1.083 1.083 0 0 1 1.353-1.693l2.708 2.167a1.083 1.083 0 0 1 0 1.692l-2.708 2.167a1.083 1.083 0 1 1-1.354-1.692z"/></svg>