<?xml version="1.0" standalone="no"?><!DOCTYPE svg PUBLIC "-//W3C//DTD SVG 1.1//EN" "http://www.w3.org/Graphics/SVG/1.1/DTD/svg11.dtd"><svg width="12" height="12" viewBox="0 0 12 12" version="1.1" xmlns="http://www.w3.org/2000/svg" xmlns:xlink="http://www.w3.org/1999/xlink"><path fill-rule="evenodd" fill="currentColor" d="M1.5 9.99V8.01C1.5 7.442 1.952 7 2.51 7h1.98c.567 0 1.01.452 1.01 1.01v1.98c0 .567-.452 1.01-1.01 1.01H2.51c-.567 0-1.01-.452-1.01-1.01zM1.044 3.5c0-1.39 1.119-2.5 2.5-2.5 1.39 0 2.5 1.12 2.5 2.5 0 1.39-1.12 2.5-2.5 2.5-1.39 0-2.5-1.12-2.5-2.5zm5.473 1.154L8.23 1.846c.282-.462.748-.467 1.034 0l1.717 2.808c.283.462.066.846-.49.846H7.008c-.559 0-.778-.379-.492-.846zm.6 5.153l1.236-.99-1.236-.988a.811.811 0 1 1 1.014-1.267l2.027 1.623a.811.811 0 0 1 0 1.266l-2.027 1.622a.811.811 0 0 1-1.014-1.266z"/></svg>