<?xml version="1.0" standalone="no"?><!DOCTYPE svg PUBLIC "-//W3C//DTD SVG 1.1//EN" "http://www.w3.org/Graphics/SVG/1.1/DTD/svg11.dtd"><svg width="12" height="12" viewBox="0 0 12 12" version="1.1" xmlns="http://www.w3.org/2000/svg" xmlns:xlink="http://www.w3.org/1999/xlink"><path fill-rule="evenodd" fill="currentColor" d="M6.46375 10.4926C8.38103 10.4926 9.56999 9.4966 9.56999 7.92169C9.56999 6.76385 8.70473 5.80192 7.51576 5.71477C8.43705 5.57782 9.14047 4.7034 9.14047 3.75099C9.14047 2.36283 8.10091 1.51001 6.35793 1.51001H3.42999C2.87771 1.51001 2.42999 1.95773 2.42999 2.51001V9.49259C2.42999 10.0449 2.87771 10.4926 3.42999 10.4926H6.46375ZM4.30992 3.44797C4.30992 3.17183 4.53378 2.94797 4.80992 2.94797H5.87861C6.775 2.94797 7.29167 3.37749 7.29167 4.09336C7.29167 4.81545 6.73765 5.23252 5.72298 5.23252H4.80992C4.53378 5.23252 4.30992 5.00866 4.30992 4.73252V3.44797ZM4.80992 9.05463C4.53378 9.05463 4.30992 8.83077 4.30992 8.55463V7.00241C4.30992 6.72626 4.53378 6.50241 4.80992 6.50241H5.94086C7.04889 6.50241 7.65271 6.93815 7.65271 7.75984C7.65271 8.60021 7.06757 9.05463 5.98443 9.05463H4.80992Z"/></svg>