<?xml version="1.0" standalone="no"?><!DOCTYPE svg PUBLIC "-//W3C//DTD SVG 1.1//EN" "http://www.w3.org/Graphics/SVG/1.1/DTD/svg11.dtd"><svg width="16" height="16" viewBox="0 0 16 16" class="bold" style="font-weight:500;height:16px;margin-right:8px;width:16px;perspective-origin:8px 8px;transform-origin:8px 8px;shape-rendering:geometricprecision;" version="1.1" xmlns="http://www.w3.org/2000/svg" xmlns:xlink="http://www.w3.org/1999/xlink"><path fill-rule="evenodd" class="" fill="currentColor" d="M8.6189 13.978C11.1755 13.978 12.761 12.6499 12.761 10.5498C12.761 9.00586 11.6072 7.72314 10.0217 7.60693C11.2502 7.42432 12.1882 6.2583 12.1882 4.98828C12.1882 3.13721 10.802 2 8.47778 2H4.23999C3.68771 2 3.23999 2.44772 3.23999 3V12.978C3.23999 13.5303 3.68771 13.978 4.23999 13.978H8.6189ZM5.74683 4.41748C5.74683 4.14134 5.97068 3.91748 6.24683 3.91748H7.83862C9.03394 3.91748 9.7229 4.49023 9.7229 5.44482C9.7229 6.40771 8.98413 6.96387 7.6311 6.96387H6.24683C5.97068 6.96387 5.74683 6.74001 5.74683 6.46387V4.41748ZM6.24683 12.0605C5.97068 12.0605 5.74683 11.8367 5.74683 11.5605V9.15723C5.74683 8.88108 5.97068 8.65723 6.24683 8.65723H7.92163C9.39917 8.65723 10.2043 9.23828 10.2043 10.334C10.2043 11.4546 9.42407 12.0605 7.97974 12.0605H6.24683Z" style="display:inline;font-weight:500;height:auto;min-height:0px;min-width:0px;overflow-x:visible;overflow-y:visible;width:auto;perspective-origin:0px 0px;transform-origin:0px 0px;fill:rgb(51, 51, 51);fill-rule:evenodd;shape-rendering:geometricprecision;d:path(&quot;M 8.6189 13.978 C 11.1755 13.978 12.761 12.6499 12.761 10.5498 C 12.761 9.00586 11.6072 7.72314 10.0217 7.60693 C 11.2502 7.42432 12.1882 6.2583 12.1882 4.98828 C 12.1882 3.13721 10.802 2 8.47778 2 H 4.23999 C 3.68771 2 3.23999 2.44772 3.23999 3 V 12.978 C 3.23999 13.5303 3.68771 13.978 4.23999 13.978 H 8.6189 Z M 5.74683 4.41748 C 5.74683 4.14134 5.97068 3.91748 6.24683 3.91748 H 7.83862 C 9.03394 3.91748 9.7229 4.49023 9.7229 5.44482 C 9.7229 6.40771 8.98413 6.96387 7.6311 6.96387 H 6.24683 C 5.97068 6.96387 5.74683 6.74001 5.74683 6.46387 V 4.41748 Z M 6.24683 12.0605 C 5.97068 12.0605 5.74683 11.8367 5.74683 11.5605 V 9.15723 C 5.74683 8.88108 5.97068 8.65723 6.24683 8.65723 H 7.92163 C 9.39917 8.65723 10.2043 9.23828 10.2043 10.334 C 10.2043 11.4546 9.42407 12.0605 7.97974 12.0605 H 6.24683 Z&quot;);"/></svg>