<?xml version="1.0" standalone="no"?><!DOCTYPE svg PUBLIC "-//W3C//DTD SVG 1.1//EN" "http://www.w3.org/Graphics/SVG/1.1/DTD/svg11.dtd"><svg width="16" height="16" viewBox="0 0 16 16" version="1.1" xmlns="http://www.w3.org/2000/svg" xmlns:xlink="http://www.w3.org/1999/xlink"><path fill-rule="evenodd" fill="currentColor" d="M4.80174958,2.56642553 L6.86021296,1.19411658 C6.96034005,1.12736519 7.17754804,1.10399495 7.28797443,1.14646664 L12.8530465,3.28687901 C12.9135034,3.31013166 13,3.43615143 13,3.50643687 L13,13.5 C13,13.7761424 13.2238576,14 13.5,14 C13.7761424,14 14,13.7761424 14,13.5 L14,3.50643687 C14,3.02249465 13.6587819,2.52536277 13.2120256,2.35353341 L7.64695351,0.213121038 C7.23469471,0.0545599575 6.67672037,0.114594545 6.30551275,0.362066294 L3.7226499,2.0839749 L3.3887068,2.30660363 L3.39124028,2.31313598 C3.15415362,2.42018545 3,2.66652877 3,2.99998686 L3,12.0487316 C3,12.6010091 3.41815763,13.2032369 3.93181341,13.3930439 L10.0549429,15.6556745 C10.5695692,15.8458402 10.9867563,15.5496113 10.9867563,15.0005108 L10.9867563,5.51032795 C10.9867563,4.95832531 10.5573536,4.37584515 10.039207,4.21295267 L4.80174958,2.56642553 Z"/></svg>