<?xml version="1.0" standalone="no"?><!DOCTYPE svg PUBLIC "-//W3C//DTD SVG 1.1//EN" "http://www.w3.org/Graphics/SVG/1.1/DTD/svg11.dtd"><svg width="12" height="12" viewBox="0 0 12 12" class="bookMicro" style="height:12px;margin-right:16px;width:12px;perspective-origin:6px 6px;transform-origin:6px 6px;shape-rendering:geometricprecision;" version="1.1" xmlns="http://www.w3.org/2000/svg" xmlns:xlink="http://www.w3.org/1999/xlink"><path fill-rule="evenodd" class="" fill="currentColor" d="M2.00496559,2.57085198 C2.00168282,2.60427476 2,2.6389821 2,2.67492473 L2,8.10042709 C2,8.65379807 2.40207146,9.31078259 2.88586767,9.56152824 L6.70486157,11.540866 C7.19411277,11.7944389 7.59072924,11.5567585 7.59072924,11.0087 L7.59072924,5.16425827 C7.59072924,4.61677821 7.18865778,3.9931641 6.68003918,3.76572571 L3.49727483,2.34249261 L4.92172253,1.20293441 C4.98966163,1.14858313 5.17170735,1.12347315 5.24485967,1.15598529 L8.84900186,2.75782629 C8.91304855,2.78629148 9,2.91980273 9,2.99209597 L9,10 C9,10.2761424 9.22385763,10.5 9.5,10.5 C9.77614237,10.5 10,10.2761424 10,10 L10,2.99209597 C10,2.52422963 9.67996486,2.03282565 9.25514033,1.84401474 L5.65099814,0.242173747 C5.23323363,0.0565006263 4.65413885,0.136376505 4.29702747,0.422065615 L2.18765247,2.10956567 C2.04440363,2.22416475 1.98088937,2.40149459 2.00496559,2.57085198 Z" style="display:inline;height:auto;min-height:0px;min-width:0px;overflow-x:visible;overflow-y:visible;width:auto;perspective-origin:0px 0px;transform-origin:0px 0px;fill:rgb(51, 51, 51);fill-rule:evenodd;shape-rendering:geometricprecision;d:path(&quot;M 2.00497 2.57085 C 2.00168 2.60427 2 2.63898 2 2.67492 L 2 8.10043 C 2 8.6538 2.40207 9.31078 2.88587 9.56153 L 6.70486 11.5409 C 7.19411 11.7944 7.59073 11.5568 7.59073 11.0087 L 7.59073 5.16426 C 7.59073 4.61678 7.18866 3.99316 6.68004 3.76573 L 3.49727 2.34249 L 4.92172 1.20293 C 4.98966 1.14858 5.17171 1.12347 5.24486 1.15599 L 8.849 2.75783 C 8.91305 2.78629 9 2.9198 9 2.9921 L 9 10 C 9 10.2761 9.22386 10.5 9.5 10.5 C 9.77614 10.5 10 10.2761 10 10 L 10 2.9921 C 10 2.52423 9.67997 2.03283 9.25514 1.84401 L 5.651 0.242174 C 5.23323 0.0565006 4.65414 0.136377 4.29703 0.422066 L 2.18765 2.10957 C 2.0444 2.22416 1.98089 2.40149 2.00497 2.57085 Z&quot;);"/></svg>