<?xml version="1.0" standalone="no"?><!DOCTYPE svg PUBLIC "-//W3C//DTD SVG 1.1//EN" "http://www.w3.org/Graphics/SVG/1.1/DTD/svg11.dtd"><svg width="16" height="16" viewBox="0 0 16 16" class="book" style="height:16px;margin-right:8px;width:16px;perspective-origin:8px 8px;transform-origin:8px 8px;shape-rendering:geometricprecision;" version="1.1" xmlns="http://www.w3.org/2000/svg" xmlns:xlink="http://www.w3.org/1999/xlink"><path fill-rule="evenodd" class="" fill="currentColor" d="M4.80174958,2.56642553 L6.86021296,1.19411658 C6.96034005,1.12736519 7.17754804,1.10399495 7.28797443,1.14646664 L12.8530465,3.28687901 C12.9135034,3.31013166 13,3.43615143 13,3.50643687 L13,13.5 C13,13.7761424 13.2238576,14 13.5,14 C13.7761424,14 14,13.7761424 14,13.5 L14,3.50643687 C14,3.02249465 13.6587819,2.52536277 13.2120256,2.35353341 L7.64695351,0.213121038 C7.23469471,0.0545599575 6.67672037,0.114594545 6.30551275,0.362066294 L3.7226499,2.0839749 L3.3887068,2.30660363 L3.39124028,2.31313598 C3.15415362,2.42018545 3,2.66652877 3,2.99998686 L3,12.0487316 C3,12.6010091 3.41815763,13.2032369 3.93181341,13.3930439 L10.0549429,15.6556745 C10.5695692,15.8458402 10.9867563,15.5496113 10.9867563,15.0005108 L10.9867563,5.51032795 C10.9867563,4.95832531 10.5573536,4.37584515 10.039207,4.21295267 L4.80174958,2.56642553 Z" style="display:inline;height:auto;min-height:0px;min-width:0px;overflow-x:visible;overflow-y:visible;width:auto;perspective-origin:0px 0px;transform-origin:0px 0px;fill:rgb(51, 51, 51);fill-rule:evenodd;shape-rendering:geometricprecision;d:path(&quot;M 4.80175 2.56643 L 6.86021 1.19412 C 6.96034 1.12737 7.17755 1.10399 7.28797 1.14647 L 12.853 3.28688 C 12.9135 3.31013 13 3.43615 13 3.50644 L 13 13.5 C 13 13.7761 13.2239 14 13.5 14 C 13.7761 14 14 13.7761 14 13.5 L 14 3.50644 C 14 3.02249 13.6588 2.52536 13.212 2.35353 L 7.64695 0.213121 C 7.23469 0.05456 6.67672 0.114595 6.30551 0.362066 L 3.72265 2.08397 L 3.38871 2.3066 L 3.39124 2.31314 C 3.15415 2.42019 3 2.66653 3 2.99999 L 3 12.0487 C 3 12.601 3.41816 13.2032 3.93181 13.393 L 10.0549 15.6557 C 10.5696 15.8458 10.9868 15.5496 10.9868 15.0005 L 10.9868 5.51033 C 10.9868 4.95833 10.5574 4.37584 10.0392 4.21295 L 4.80175 2.56643 Z&quot;);"/></svg>