<?xml version="1.0" standalone="no"?><!DOCTYPE svg PUBLIC "-//W3C//DTD SVG 1.1//EN" "http://www.w3.org/Graphics/SVG/1.1/DTD/svg11.dtd"><svg width="12" height="12" viewBox="0 0 12 12" version="1.1" xmlns="http://www.w3.org/2000/svg" xmlns:xlink="http://www.w3.org/1999/xlink"><path fill-rule="evenodd" fill="currentColor" d="M9.991 0A2.01 2.01 0 0 1 12 2.009V9.99A2.01 2.01 0 0 1 9.991 12H2.01A2.01 2.01 0 0 1 0 9.991V2.01A2.01 2.01 0 0 1 2.009 0H9.99zM5.505 2h.99c.279 0 .505.214.505.505v.99A.497.497 0 0 1 6.495 4h-.99A.497.497 0 0 1 5 3.495v-.99C5 2.226 5.214 2 5.505 2zm3 0h.99c.279 0 .505.214.505.505v.99A.497.497 0 0 1 9.495 4h-.99A.497.497 0 0 1 8 3.495v-.99C8 2.226 8.214 2 8.505 2zm-6 3h.99c.279 0 .505.214.505.505v.99A.497.497 0 0 1 3.495 7h-.99A.497.497 0 0 1 2 6.495v-.99C2 5.226 2.214 5 2.505 5zm3 0h.99c.279 0 .505.214.505.505v.99A.497.497 0 0 1 6.495 7h-.99A.497.497 0 0 1 5 6.495v-.99C5 5.226 5.214 5 5.505 5zm3 0h.99c.279 0 .505.214.505.505v.99A.497.497 0 0 1 9.495 7h-.99A.497.497 0 0 1 8 6.495v-.99C8 5.226 8.214 5 8.505 5zm-6 3h.99c.279 0 .505.214.505.505v.99a.497.497 0 0 1-.505.505h-.99A.497.497 0 0 1 2 9.495v-.99C2 8.226 2.214 8 2.505 8zm3 0h.99c.279 0 .505.214.505.505v.99a.497.497 0 0 1-.505.505h-.99A.497.497 0 0 1 5 9.495v-.99C5 8.226 5.214 8 5.505 8z"/></svg>