<?xml version="1.0" standalone="no"?><!DOCTYPE svg PUBLIC "-//W3C//DTD SVG 1.1//EN" "http://www.w3.org/Graphics/SVG/1.1/DTD/svg11.dtd"><svg width="16" height="16" viewBox="0 0 16 16" version="1.1" xmlns="http://www.w3.org/2000/svg" xmlns:xlink="http://www.w3.org/1999/xlink"><path fill-rule="evenodd" fill="currentColor" d="M12 2c0-.556-.448-1-1-1-.556 0-1 .448-1 1H6c0-.556-.448-1-1-1-.556 0-1 .448-1 1h-.998C2.456 2 2 2.449 2 3.002v9.996C2 13.544 2.449 14 3.002 14h9.996c.546 0 1.002-.449 1.002-1.002V3.002C14 2.456 13.551 2 12.998 2H12zm2.006-2C15.107 0 16 .895 16 1.994v12.012A1.995 1.995 0 0 1 14.006 16H1.994A1.995 1.995 0 0 1 0 14.006V1.994C0 .893.895 0 1.994 0h12.012zM7.505 4h.99c.279 0 .505.214.505.505v.99A.497.497 0 0 1 8.495 6h-.99A.497.497 0 0 1 7 5.495v-.99C7 4.226 7.214 4 7.505 4zm3 0h.99c.279 0 .505.214.505.505v.99a.497.497 0 0 1-.505.505h-.99A.497.497 0 0 1 10 5.495v-.99c0-.279.214-.505.505-.505zm-6 3h.99c.279 0 .505.214.505.505v.99A.497.497 0 0 1 5.495 9h-.99A.497.497 0 0 1 4 8.495v-.99C4 7.226 4.214 7 4.505 7zm3 0h.99c.279 0 .505.214.505.505v.99A.497.497 0 0 1 8.495 9h-.99A.497.497 0 0 1 7 8.495v-.99C7 7.226 7.214 7 7.505 7zm3 0h.99c.279 0 .505.214.505.505v.99a.497.497 0 0 1-.505.505h-.99A.497.497 0 0 1 10 8.495v-.99c0-.279.214-.505.505-.505zm-6 3h.99c.279 0 .505.214.505.505v.99a.497.497 0 0 1-.505.505h-.99A.497.497 0 0 1 4 11.495v-.99c0-.279.214-.505.505-.505zm3 0h.99c.279 0 .505.214.505.505v.99a.497.497 0 0 1-.505.505h-.99A.497.497 0 0 1 7 11.495v-.99c0-.279.214-.505.505-.505z"/></svg>