<?xml version="1.0" standalone="no"?><!DOCTYPE svg PUBLIC "-//W3C//DTD SVG 1.1//EN" "http://www.w3.org/Graphics/SVG/1.1/DTD/svg11.dtd"><svg width="16" height="16" viewBox="0 0 16 16" class="calendar" style="height:16px;margin-right:8px;width:16px;perspective-origin:8px 8px;transform-origin:8px 8px;shape-rendering:geometricprecision;" version="1.1" xmlns="http://www.w3.org/2000/svg" xmlns:xlink="http://www.w3.org/1999/xlink"><path fill-rule="evenodd" class="" fill="currentColor" d="M12 2c0-.556-.448-1-1-1-.556 0-1 .448-1 1H6c0-.556-.448-1-1-1-.556 0-1 .448-1 1h-.998C2.456 2 2 2.449 2 3.002v9.996C2 13.544 2.449 14 3.002 14h9.996c.546 0 1.002-.449 1.002-1.002V3.002C14 2.456 13.551 2 12.998 2H12zm2.006-2C15.107 0 16 .895 16 1.994v12.012A1.995 1.995 0 0 1 14.006 16H1.994A1.995 1.995 0 0 1 0 14.006V1.994C0 .893.895 0 1.994 0h12.012zM7.505 4h.99c.279 0 .505.214.505.505v.99A.497.497 0 0 1 8.495 6h-.99A.497.497 0 0 1 7 5.495v-.99C7 4.226 7.214 4 7.505 4zm3 0h.99c.279 0 .505.214.505.505v.99a.497.497 0 0 1-.505.505h-.99A.497.497 0 0 1 10 5.495v-.99c0-.279.214-.505.505-.505zm-6 3h.99c.279 0 .505.214.505.505v.99A.497.497 0 0 1 5.495 9h-.99A.497.497 0 0 1 4 8.495v-.99C4 7.226 4.214 7 4.505 7zm3 0h.99c.279 0 .505.214.505.505v.99A.497.497 0 0 1 8.495 9h-.99A.497.497 0 0 1 7 8.495v-.99C7 7.226 7.214 7 7.505 7zm3 0h.99c.279 0 .505.214.505.505v.99a.497.497 0 0 1-.505.505h-.99A.497.497 0 0 1 10 8.495v-.99c0-.279.214-.505.505-.505zm-6 3h.99c.279 0 .505.214.505.505v.99a.497.497 0 0 1-.505.505h-.99A.497.497 0 0 1 4 11.495v-.99c0-.279.214-.505.505-.505zm3 0h.99c.279 0 .505.214.505.505v.99a.497.497 0 0 1-.505.505h-.99A.497.497 0 0 1 7 11.495v-.99c0-.279.214-.505.505-.505z" style="display:inline;height:auto;min-height:0px;min-width:0px;overflow-x:visible;overflow-y:visible;width:auto;perspective-origin:0px 0px;transform-origin:0px 0px;fill:rgb(51, 51, 51);fill-rule:evenodd;shape-rendering:geometricprecision;d:path(&quot;M 12 2 C 12 1.444 11.552 1 11 1 C 10.444 1 10 1.448 10 2 H 6 C 6 1.444 5.552 1 5 1 C 4.444 1 4 1.448 4 2 H 3.002 C 2.456 2 2 2.449 2 3.002 V 12.998 C 2 13.544 2.449 14 3.002 14 H 12.998 C 13.544 14 14 13.551 14 12.998 V 3.002 C 14 2.456 13.551 2 12.998 2 H 12 Z M 14.006 0 C 15.107 0 16 0.895 16 1.994 V 14.006 A 1.995 1.995 0 0 1 14.006 16 H 1.994 A 1.995 1.995 0 0 1 0 14.006 V 1.994 C 0 0.893 0.895 0 1.994 0 H 14.006 Z M 7.505 4 H 8.495 C 8.774 4 9 4.214 9 4.505 V 5.495 A 0.497 0.497 0 0 1 8.495 6 H 7.505 A 0.497 0.497 0 0 1 7 5.495 V 4.505 C 7 4.226 7.214 4 7.505 4 Z M 10.505 4 H 11.495 C 11.774 4 12 4.214 12 4.505 V 5.495 A 0.497 0.497 0 0 1 11.495 6 H 10.505 A 0.497 0.497 0 0 1 10 5.495 V 4.505 C 10 4.226 10.214 4 10.505 4 Z M 4.505 7 H 5.495 C 5.774 7 6 7.214 6 7.505 V 8.495 A 0.497 0.497 0 0 1 5.495 9 H 4.505 A 0.497 0.497 0 0 1 4 8.495 V 7.505 C 4 7.226 4.214 7 4.505 7 Z M 7.505 7 H 8.495 C 8.774 7 9 7.214 9 7.505 V 8.495 A 0.497 0.497 0 0 1 8.495 9 H 7.505 A 0.497 0.497 0 0 1 7 8.495 V 7.505 C 7 7.226 7.214 7 7.505 7 Z M 10.505 7 H 11.495 C 11.774 7 12 7.214 12 7.505 V 8.495 A 0.497 0.497 0 0 1 11.495 9 H 10.505 A 0.497 0.497 0 0 1 10 8.495 V 7.505 C 10 7.226 10.214 7 10.505 7 Z M 4.505 10 H 5.495 C 5.774 10 6 10.214 6 10.505 V 11.495 A 0.497 0.497 0 0 1 5.495 12 H 4.505 A 0.497 0.497 0 0 1 4 11.495 V 10.505 C 4 10.226 4.214 10 4.505 10 Z M 7.505 10 H 8.495 C 8.774 10 9 10.214 9 10.505 V 11.495 A 0.497 0.497 0 0 1 8.495 12 H 7.505 A 0.497 0.497 0 0 1 7 11.495 V 10.505 C 7 10.226 7.214 10 7.505 10 Z&quot;);"/></svg>