<?xml version="1.0" standalone="no"?><!DOCTYPE svg PUBLIC "-//W3C//DTD SVG 1.1//EN" "http://www.w3.org/Graphics/SVG/1.1/DTD/svg11.dtd"><svg width="12" height="12" viewBox="0 0 12 12" class="calendarMicro" style="height:12px;margin-right:16px;width:12px;perspective-origin:6px 6px;transform-origin:6px 6px;shape-rendering:geometricprecision;" version="1.1" xmlns="http://www.w3.org/2000/svg" xmlns:xlink="http://www.w3.org/1999/xlink"><path fill-rule="evenodd" class="" fill="currentColor" d="M9.991 0A2.01 2.01 0 0 1 12 2.009V9.99A2.01 2.01 0 0 1 9.991 12H2.01A2.01 2.01 0 0 1 0 9.991V2.01A2.01 2.01 0 0 1 2.009 0H9.99zM5.505 2h.99c.279 0 .505.214.505.505v.99A.497.497 0 0 1 6.495 4h-.99A.497.497 0 0 1 5 3.495v-.99C5 2.226 5.214 2 5.505 2zm3 0h.99c.279 0 .505.214.505.505v.99A.497.497 0 0 1 9.495 4h-.99A.497.497 0 0 1 8 3.495v-.99C8 2.226 8.214 2 8.505 2zm-6 3h.99c.279 0 .505.214.505.505v.99A.497.497 0 0 1 3.495 7h-.99A.497.497 0 0 1 2 6.495v-.99C2 5.226 2.214 5 2.505 5zm3 0h.99c.279 0 .505.214.505.505v.99A.497.497 0 0 1 6.495 7h-.99A.497.497 0 0 1 5 6.495v-.99C5 5.226 5.214 5 5.505 5zm3 0h.99c.279 0 .505.214.505.505v.99A.497.497 0 0 1 9.495 7h-.99A.497.497 0 0 1 8 6.495v-.99C8 5.226 8.214 5 8.505 5zm-6 3h.99c.279 0 .505.214.505.505v.99a.497.497 0 0 1-.505.505h-.99A.497.497 0 0 1 2 9.495v-.99C2 8.226 2.214 8 2.505 8zm3 0h.99c.279 0 .505.214.505.505v.99a.497.497 0 0 1-.505.505h-.99A.497.497 0 0 1 5 9.495v-.99C5 8.226 5.214 8 5.505 8z" style="display:inline;height:auto;min-height:0px;min-width:0px;overflow-x:visible;overflow-y:visible;width:auto;perspective-origin:0px 0px;transform-origin:0px 0px;fill:rgb(51, 51, 51);fill-rule:evenodd;shape-rendering:geometricprecision;d:path(&quot;M 9.991 0 A 2.01 2.01 0 0 1 12 2.009 V 9.99 A 2.01 2.01 0 0 1 9.991 12 H 2.01 A 2.01 2.01 0 0 1 0 9.991 V 2.01 A 2.01 2.01 0 0 1 2.009 0 H 9.99 Z M 5.505 2 H 6.495 C 6.774 2 7 2.214 7 2.505 V 3.495 A 0.497 0.497 0 0 1 6.495 4 H 5.505 A 0.497 0.497 0 0 1 5 3.495 V 2.505 C 5 2.226 5.214 2 5.505 2 Z M 8.505 2 H 9.495 C 9.774 2 10 2.214 10 2.505 V 3.495 A 0.497 0.497 0 0 1 9.495 4 H 8.505 A 0.497 0.497 0 0 1 8 3.495 V 2.505 C 8 2.226 8.214 2 8.505 2 Z M 2.505 5 H 3.495 C 3.774 5 4 5.214 4 5.505 V 6.495 A 0.497 0.497 0 0 1 3.495 7 H 2.505 A 0.497 0.497 0 0 1 2 6.495 V 5.505 C 2 5.226 2.214 5 2.505 5 Z M 5.505 5 H 6.495 C 6.774 5 7 5.214 7 5.505 V 6.495 A 0.497 0.497 0 0 1 6.495 7 H 5.505 A 0.497 0.497 0 0 1 5 6.495 V 5.505 C 5 5.226 5.214 5 5.505 5 Z M 8.505 5 H 9.495 C 9.774 5 10 5.214 10 5.505 V 6.495 A 0.497 0.497 0 0 1 9.495 7 H 8.505 A 0.497 0.497 0 0 1 8 6.495 V 5.505 C 8 5.226 8.214 5 8.505 5 Z M 2.505 8 H 3.495 C 3.774 8 4 8.214 4 8.505 V 9.495 A 0.497 0.497 0 0 1 3.495 10 H 2.505 A 0.497 0.497 0 0 1 2 9.495 V 8.505 C 2 8.226 2.214 8 2.505 8 Z M 5.505 8 H 6.495 C 6.774 8 7 8.214 7 8.505 V 9.495 A 0.497 0.497 0 0 1 6.495 10 H 5.505 A 0.497 0.497 0 0 1 5 9.495 V 8.505 C 5 8.226 5.214 8 5.505 8 Z&quot;);"/></svg>