<?xml version="1.0" standalone="no"?><!DOCTYPE svg PUBLIC "-//W3C//DTD SVG 1.1//EN" "http://www.w3.org/Graphics/SVG/1.1/DTD/svg11.dtd"><svg width="12" height="12" viewBox="0 0 12 12" version="1.1" xmlns="http://www.w3.org/2000/svg" xmlns:xlink="http://www.w3.org/1999/xlink"><path fill-rule="evenodd" fill="currentColor" d="M1.5 10V9a.5.5 0 0 1 1 0v1a.5.5 0 0 1-1 0zm2 0V8a.5.5 0 0 1 1 0v2a.5.5 0 0 1-1 0zm2 0V7a.5.5 0 0 1 1 0v3a.5.5 0 0 1-1 0zm2 0V5a.5.5 0 0 1 1 0v5a.5.5 0 0 1-1 0zm2 0V2a.5.5 0 1 1 1 0v8a.5.5 0 1 1-1 0z"/></svg>