<?xml version="1.0" standalone="no"?><!DOCTYPE svg PUBLIC "-//W3C//DTD SVG 1.1//EN" "http://www.w3.org/Graphics/SVG/1.1/DTD/svg11.dtd"><svg width="12" height="12" viewBox="0 0 12 12" class="chartMicro" style="height:12px;margin-right:16px;width:12px;perspective-origin:6px 6px;transform-origin:6px 6px;shape-rendering:geometricprecision;" version="1.1" xmlns="http://www.w3.org/2000/svg" xmlns:xlink="http://www.w3.org/1999/xlink"><path fill-rule="evenodd" class="" fill="currentColor" d="M1.5 10V9a.5.5 0 0 1 1 0v1a.5.5 0 0 1-1 0zm2 0V8a.5.5 0 0 1 1 0v2a.5.5 0 0 1-1 0zm2 0V7a.5.5 0 0 1 1 0v3a.5.5 0 0 1-1 0zm2 0V5a.5.5 0 0 1 1 0v5a.5.5 0 0 1-1 0zm2 0V2a.5.5 0 1 1 1 0v8a.5.5 0 1 1-1 0z" style="display:inline;height:auto;min-height:0px;min-width:0px;overflow-x:visible;overflow-y:visible;width:auto;perspective-origin:0px 0px;transform-origin:0px 0px;fill:rgb(51, 51, 51);fill-rule:evenodd;shape-rendering:geometricprecision;d:path(&quot;M 1.5 10 V 9 A 0.5 0.5 0 0 1 2.5 9 V 10 A 0.5 0.5 0 0 1 1.5 10 Z M 3.5 10 V 8 A 0.5 0.5 0 0 1 4.5 8 V 10 A 0.5 0.5 0 0 1 3.5 10 Z M 5.5 10 V 7 A 0.5 0.5 0 0 1 6.5 7 V 10 A 0.5 0.5 0 0 1 5.5 10 Z M 7.5 10 V 5 A 0.5 0.5 0 0 1 8.5 5 V 10 A 0.5 0.5 0 0 1 7.5 10 Z M 9.5 10 V 2 A 0.5 0.5 0 1 1 10.5 2 V 10 A 0.5 0.5 0 1 1 9.5 10 Z&quot;);"/></svg>