<?xml version="1.0" standalone="no"?><!DOCTYPE svg PUBLIC "-//W3C//DTD SVG 1.1//EN" "http://www.w3.org/Graphics/SVG/1.1/DTD/svg11.dtd"><svg width="12" height="12" viewBox="0 0 12 12" class="checkboxMicro" style="height:12px;margin-right:16px;width:12px;perspective-origin:6px 6px;transform-origin:6px 6px;shape-rendering:geometricprecision;" version="1.1" xmlns="http://www.w3.org/2000/svg" xmlns:xlink="http://www.w3.org/1999/xlink"><path fill-rule="evenodd" class="" fill="currentColor" d="M1 3c0-1.105.887-2 2-2h6c1.105 0 2 .887 2 2v6c0 1.105-.887 2-2 2H3c-1.105 0-2-.887-2-2V3zm3.417 5.353a1.01 1.01 0 0 0 1.412.001l2.852-2.83a.997.997 0 0 0-.004-1.406l.134.135a.974.974 0 0 0-1.398.01L5.467 6.28a.46.46 0 0 1-.674-.009L4.636 6.1a.957.957 0 0 0-1.387-.037l.135-.135a.993.993 0 0 0 0 1.407l1.033 1.02z" style="display:inline;height:auto;min-height:0px;min-width:0px;overflow-x:visible;overflow-y:visible;width:auto;perspective-origin:0px 0px;transform-origin:0px 0px;fill:rgb(51, 51, 51);fill-rule:evenodd;shape-rendering:geometricprecision;d:path(&quot;M 1 3 C 1 1.895 1.887 1 3 1 H 9 C 10.105 1 11 1.887 11 3 V 9 C 11 10.105 10.113 11 9 11 H 3 C 1.895 11 1 10.113 1 9 V 3 Z M 4.417 8.353 A 1.01 1.01 0 0 0 5.829 8.354 L 8.681 5.524 A 0.997 0.997 0 0 0 8.677 4.118 L 8.811 4.253 A 0.974 0.974 0 0 0 7.413 4.263 L 5.467 6.28 A 0.46 0.46 0 0 1 4.793 6.271 L 4.636 6.1 A 0.957 0.957 0 0 0 3.249 6.063 L 3.384 5.928 A 0.993 0.993 0 0 0 3.384 7.335 L 4.417 8.355 Z&quot;);"/></svg>