<?xml version="1.0" standalone="no"?><!DOCTYPE svg PUBLIC "-//W3C//DTD SVG 1.1//EN" "http://www.w3.org/Graphics/SVG/1.1/DTD/svg11.dtd"><svg width="12" height="12" viewBox="0 0 12 12" class="checkboxUncheckedMicro" style="height:12px;margin-right:16px;width:12px;perspective-origin:6px 6px;transform-origin:6px 6px;shape-rendering:geometricprecision;" version="1.1" xmlns="http://www.w3.org/2000/svg" xmlns:xlink="http://www.w3.org/1999/xlink"><path fill-rule="evenodd" class="" fill="currentColor" d="M0,2.50098635 C0,1.11972973 1.12893087,0 2.50098635,0 L9.49901365,0 C10.8802703,0 12,1.12893087 12,2.50098635 L12,9.49901365 C12,10.8802703 10.8710691,12 9.49901365,12 L2.50098635,12 C1.11972973,12 0,10.8710691 0,9.49901365 L0,2.50098635 Z M1,2.49710104 L1,9.50289896 C1,10.328344 1.67027497,11 2.49710104,11 L9.50289896,11 C10.328344,11 11,10.329725 11,9.50289896 L11,2.49710104 C11,1.67165598 10.329725,1 9.50289896,1 L2.49710104,1 C1.67165598,1 1,1.67027497 1,2.49710104 Z" style="display:inline;height:auto;min-height:0px;min-width:0px;overflow-x:visible;overflow-y:visible;width:auto;perspective-origin:0px 0px;transform-origin:0px 0px;fill:rgb(51, 51, 51);fill-rule:evenodd;shape-rendering:geometricprecision;d:path(&quot;M 0 2.50099 C 0 1.11973 1.12893 0 2.50099 0 L 9.49901 0 C 10.8803 0 12 1.12893 12 2.50099 L 12 9.49901 C 12 10.8803 10.8711 12 9.49901 12 L 2.50099 12 C 1.11973 12 0 10.8711 0 9.49901 L 0 2.50099 Z M 1 2.4971 L 1 9.5029 C 1 10.3283 1.67027 11 2.4971 11 L 9.5029 11 C 10.3283 11 11 10.3297 11 9.5029 L 11 2.4971 C 11 1.67166 10.3297 1 9.5029 1 L 2.4971 1 C 1.67166 1 1 1.67027 1 2.4971 Z&quot;);"/></svg>