<?xml version="1.0" standalone="no"?><!DOCTYPE svg PUBLIC "-//W3C//DTD SVG 1.1//EN" "http://www.w3.org/Graphics/SVG/1.1/DTD/svg11.dtd"><svg width="16" height="16" viewBox="0 0 16 16" class="checkboxUnchecked" style="height:16px;margin-right:8px;width:16px;perspective-origin:8px 8px;transform-origin:8px 8px;shape-rendering:geometricprecision;" version="1.1" xmlns="http://www.w3.org/2000/svg" xmlns:xlink="http://www.w3.org/1999/xlink"><path fill-rule="evenodd" class="" fill="currentColor" d="M1.13686838e-13,3.00947762 C1.13686838e-13,1.34738902 1.33663106,0 3.00947762,0 L12.9905224,0 C14.652611,0 16,1.33663106 16,3.00947762 L16,12.9905224 C16,14.652611 14.6633689,16 12.9905224,16 L3.00947762,16 C1.34738902,16 1.13686838e-13,14.6633689 1.13686838e-13,12.9905224 L1.13686838e-13,3.00947762 Z M1,3.00585866 L1,12.9941413 C1,14.1029399 1.89805351,15 3.00585866,15 L12.9941413,15 C14.1029399,15 15,14.1019465 15,12.9941413 L15,3.00585866 C15,1.89706013 14.1019465,1 12.9941413,1 L3.00585866,1 C1.89706013,1 1,1.89805351 1,3.00585866 Z" style="display:inline;height:auto;min-height:0px;min-width:0px;overflow-x:visible;overflow-y:visible;width:auto;perspective-origin:0px 0px;transform-origin:0px 0px;fill:rgb(51, 51, 51);fill-rule:evenodd;shape-rendering:geometricprecision;d:path(&quot;M 1.13687e-13 3.00948 C 1.13687e-13 1.34739 1.33663 0 3.00948 0 L 12.9905 0 C 14.6526 0 16 1.33663 16 3.00948 L 16 12.9905 C 16 14.6526 14.6634 16 12.9905 16 L 3.00948 16 C 1.34739 16 1.13687e-13 14.6634 1.13687e-13 12.9905 L 1.13687e-13 3.00948 Z M 1 3.00586 L 1 12.9941 C 1 14.1029 1.89805 15 3.00586 15 L 12.9941 15 C 14.1029 15 15 14.1019 15 12.9941 L 15 3.00586 C 15 1.89706 14.1019 1 12.9941 1 L 3.00586 1 C 1.89706 1 1 1.89805 1 3.00586 Z&quot;);"/></svg>