<?xml version="1.0" standalone="no"?><!DOCTYPE svg PUBLIC "-//W3C//DTD SVG 1.1//EN" "http://www.w3.org/Graphics/SVG/1.1/DTD/svg11.dtd"><svg width="12" height="12" viewBox="0 0 12 12" version="1.1" xmlns="http://www.w3.org/2000/svg" xmlns:xlink="http://www.w3.org/1999/xlink"><path fill-rule="evenodd" fill="currentColor" d="M0,2.50098635 C0,1.11972973 1.12893087,0 2.50098635,0 L9.49901365,0 C10.8802703,0 12,1.12893087 12,2.50098635 L12,9.49901365 C12,10.8802703 10.8710691,12 9.49901365,12 L2.50098635,12 C1.11972973,12 0,10.8710691 0,9.49901365 L0,2.50098635 Z M1,2.49710104 L1,9.50289896 C1,10.328344 1.67027497,11 2.49710104,11 L9.50289896,11 C10.328344,11 11,10.329725 11,9.50289896 L11,2.49710104 C11,1.67165598 10.329725,1 9.50289896,1 L2.49710104,1 C1.67165598,1 1,1.67027497 1,2.49710104 Z"/></svg>