<?xml version="1.0" standalone="no"?><!DOCTYPE svg PUBLIC "-//W3C//DTD SVG 1.1//EN" "http://www.w3.org/Graphics/SVG/1.1/DTD/svg11.dtd"><svg width="12" height="12" viewBox="0 0 12 12" class="checkboxCheckedMicro" style="height:12px;margin-right:16px;width:12px;perspective-origin:6px 6px;transform-origin:6px 6px;shape-rendering:geometricprecision;" version="1.1" xmlns="http://www.w3.org/2000/svg" xmlns:xlink="http://www.w3.org/1999/xlink"><path fill-rule="evenodd" class="" fill="currentColor" d="M0 2.501A2.507 2.507 0 0 1 2.501 0h6.998A2.507 2.507 0 0 1 12 2.501v6.998A2.507 2.507 0 0 1 9.499 12H2.501A2.507 2.507 0 0 1 0 9.499V2.501zm1-.004v7.006C1 10.328 1.67 11 2.497 11h7.006C10.328 11 11 10.33 11 9.503V2.497C11 1.672 10.33 1 9.503 1H2.497C1.672 1 1 1.67 1 2.497zm3.289 6.18L3.004 7.41A.995.995 0 0 1 3 6a.947.947 0 0 1 1.384.033l.276.303c.192.209.498.208.692.006l2.243-2.325A.974.974 0 0 1 9 4a.997.997 0 0 1-.008 1.417L5.715 8.67a1.019 1.019 0 0 1-1.426.008z" style="display:inline;height:auto;min-height:0px;min-width:0px;overflow-x:visible;overflow-y:visible;width:auto;perspective-origin:0px 0px;transform-origin:0px 0px;fill:rgb(51, 51, 51);fill-rule:evenodd;shape-rendering:geometricprecision;d:path(&quot;M 0 2.501 A 2.507 2.507 0 0 1 2.501 0 H 9.499 A 2.507 2.507 0 0 1 12 2.501 V 9.499 A 2.507 2.507 0 0 1 9.499 12 H 2.501 A 2.507 2.507 0 0 1 0 9.499 V 2.501 Z M 1 2.497 V 9.503 C 1 10.328 1.67 11 2.497 11 H 9.503 C 10.328 11 11 10.33 11 9.503 V 2.497 C 11 1.672 10.33 1 9.503 1 H 2.497 C 1.672 1 1 1.67 1 2.497 Z M 4.289 8.677 L 3.004 7.41 A 0.995 0.995 0 0 1 3 6 A 0.947 0.947 0 0 1 4.384 6.033 L 4.66 6.336 C 4.852 6.545 5.158 6.544 5.352 6.342 L 7.595 4.017 A 0.974 0.974 0 0 1 9 4 A 0.997 0.997 0 0 1 8.992 5.417 L 5.715 8.67 A 1.019 1.019 0 0 1 4.289 8.678 Z&quot;);"/></svg>