<?xml version="1.0" standalone="no"?><!DOCTYPE svg PUBLIC "-//W3C//DTD SVG 1.1//EN" "http://www.w3.org/Graphics/SVG/1.1/DTD/svg11.dtd"><svg width="16" height="16" viewBox="0 0 16 16" version="1.1" xmlns="http://www.w3.org/2000/svg" xmlns:xlink="http://www.w3.org/1999/xlink"><path fill-rule="evenodd" fill="currentColor" d="M1.13686838e-13,3.00947762 C1.13686838e-13,1.34738902 1.33663106,0 3.00947762,0 L12.9905224,0 C14.652611,0 16,1.33663106 16,3.00947762 L16,12.9905224 C16,14.652611 14.6633689,16 12.9905224,16 L3.00947762,16 C1.34738902,16 1.13686838e-13,14.6633689 1.13686838e-13,12.9905224 L1.13686838e-13,3.00947762 Z M1,3.00585866 L1,12.9941413 C1,14.1029399 1.89805351,15 3.00585866,15 L12.9941413,15 C14.1029399,15 15,14.1019465 15,12.9941413 L15,3.00585866 C15,1.89706013 14.1019465,1 12.9941413,1 L3.00585866,1 C1.89706013,1 1,1.89805351 1,3.00585866 Z"/></svg>