<?xml version="1.0" standalone="no"?><!DOCTYPE svg PUBLIC "-//W3C//DTD SVG 1.1//EN" "http://www.w3.org/Graphics/SVG/1.1/DTD/svg11.dtd"><svg width="16" height="16" viewBox="0 0 16 16" version="1.1" xmlns="http://www.w3.org/2000/svg" xmlns:xlink="http://www.w3.org/1999/xlink"><path fill-rule="evenodd" fill="currentColor" d="M1 4.003A3.002 3.002 0 0 1 4.003 1h7.994A3.002 3.002 0 0 1 15 4.003v7.994A3.002 3.002 0 0 1 11.997 15H4.003A3.002 3.002 0 0 1 1 11.997V4.003zm5.28 7.42c.41.368 1.064.35 1.454-.035l4.67-4.606c.515-.508.52-1.331.012-1.84l.062.063a1.27 1.27 0 0 0-1.817.008l-3.298 3.42a.505.505 0 0 1-.707.014l-1.162-1.08a1.36 1.36 0 0 0-1.872.036l.063-.062A1.225 1.225 0 0 0 3.73 9.13l2.55 2.293z"/></svg>