<?xml version="1.0" standalone="no"?><!DOCTYPE svg PUBLIC "-//W3C//DTD SVG 1.1//EN" "http://www.w3.org/Graphics/SVG/1.1/DTD/svg11.dtd"><svg width="16" height="16" viewBox="0 0 16 16" class="checkbox" style="height:16px;margin-right:8px;width:16px;perspective-origin:8px 8px;transform-origin:8px 8px;shape-rendering:geometricprecision;" version="1.1" xmlns="http://www.w3.org/2000/svg" xmlns:xlink="http://www.w3.org/1999/xlink"><path fill-rule="evenodd" class="" fill="currentColor" d="M1 4.003A3.002 3.002 0 0 1 4.003 1h7.994A3.002 3.002 0 0 1 15 4.003v7.994A3.002 3.002 0 0 1 11.997 15H4.003A3.002 3.002 0 0 1 1 11.997V4.003zm5.28 7.42c.41.368 1.064.35 1.454-.035l4.67-4.606c.515-.508.52-1.331.012-1.84l.062.063a1.27 1.27 0 0 0-1.817.008l-3.298 3.42a.505.505 0 0 1-.707.014l-1.162-1.08a1.36 1.36 0 0 0-1.872.036l.063-.062A1.225 1.225 0 0 0 3.73 9.13l2.55 2.293z" style="display:inline;height:auto;min-height:0px;min-width:0px;overflow-x:visible;overflow-y:visible;width:auto;perspective-origin:0px 0px;transform-origin:0px 0px;fill:rgb(51, 51, 51);fill-rule:evenodd;shape-rendering:geometricprecision;d:path(&quot;M 1 4.003 A 3.002 3.002 0 0 1 4.003 1 H 11.997 A 3.002 3.002 0 0 1 15 4.003 V 11.997 A 3.002 3.002 0 0 1 11.997 15 H 4.003 A 3.002 3.002 0 0 1 1 11.997 V 4.003 Z M 6.28 11.423 C 6.69 11.791 7.344 11.773 7.734 11.388 L 12.404 6.782 C 12.919 6.274 12.924 5.451 12.416 4.942 L 12.478 5.005 A 1.27 1.27 0 0 0 10.661 5.013 L 7.363 8.433 A 0.505 0.505 0 0 1 6.656 8.447 L 5.494 7.367 A 1.36 1.36 0 0 0 3.622 7.403 L 3.685 7.341 A 1.225 1.225 0 0 0 3.73 9.13 L 6.28 11.423 Z&quot;);"/></svg>