<?xml version="1.0" standalone="no"?><!DOCTYPE svg PUBLIC "-//W3C//DTD SVG 1.1//EN" "http://www.w3.org/Graphics/SVG/1.1/DTD/svg11.dtd"><svg width="16" height="16" viewBox="0 0 16 16" class="checkboxChecked" style="height:16px;margin-right:8px;width:16px;perspective-origin:8px 8px;transform-origin:8px 8px;shape-rendering:geometricprecision;" version="1.1" xmlns="http://www.w3.org/2000/svg" xmlns:xlink="http://www.w3.org/1999/xlink"><path fill-rule="evenodd" class="" fill="currentColor" d="M0 3.01A3.003 3.003 0 0 1 3.01 0h9.98A3.003 3.003 0 0 1 16 3.01v9.98A3.003 3.003 0 0 1 12.99 16H3.01A3.003 3.003 0 0 1 0 12.99V3.01zm1-.004v9.988C1 14.103 1.898 15 3.006 15h9.988A2.005 2.005 0 0 0 15 12.994V3.006A2.005 2.005 0 0 0 12.994 1H3.006A2.005 2.005 0 0 0 1 3.006zm4.944 9.299l-2.266-2.199A1.473 1.473 0 0 1 3.66 8a1.42 1.42 0 0 1 2.075.05l.587.641a.465.465 0 0 0 .685.01l3.544-3.676A1.468 1.468 0 0 1 12.661 5c.59.59.58 1.533-.012 2.115l-5.272 5.181a1.031 1.031 0 0 1-1.433.009z" style="display:inline;height:auto;min-height:0px;min-width:0px;overflow-x:visible;overflow-y:visible;width:auto;perspective-origin:0px 0px;transform-origin:0px 0px;fill:rgb(51, 51, 51);fill-rule:evenodd;shape-rendering:geometricprecision;d:path(&quot;M 0 3.01 A 3.003 3.003 0 0 1 3.01 0 H 12.99 A 3.003 3.003 0 0 1 16 3.01 V 12.99 A 3.003 3.003 0 0 1 12.99 16 H 3.01 A 3.003 3.003 0 0 1 0 12.99 V 3.01 Z M 1 3.006 V 12.994 C 1 14.103 1.898 15 3.006 15 H 12.994 A 2.005 2.005 0 0 0 15 12.994 V 3.006 A 2.005 2.005 0 0 0 12.994 1 H 3.006 A 2.005 2.005 0 0 0 1 3.006 Z M 5.944 12.305 L 3.678 10.106 A 1.473 1.473 0 0 1 3.66 8 A 1.42 1.42 0 0 1 5.735 8.05 L 6.322 8.691 A 0.465 0.465 0 0 0 7.007 8.701 L 10.551 5.025 A 1.468 1.468 0 0 1 12.661 5 C 13.251 5.59 13.241 6.533 12.649 7.115 L 7.377 12.296 A 1.031 1.031 0 0 1 5.944 12.305 Z&quot;);"/></svg>