<?xml version="1.0" standalone="no"?><!DOCTYPE svg PUBLIC "-//W3C//DTD SVG 1.1//EN" "http://www.w3.org/Graphics/SVG/1.1/DTD/svg11.dtd"><svg width="16" height="16" viewBox="0 0 16 16" class="checklist" style="height:16px;margin-right:8px;width:16px;perspective-origin:8px 8px;transform-origin:8px 8px;shape-rendering:geometricprecision;" version="1.1" xmlns="http://www.w3.org/2000/svg" xmlns:xlink="http://www.w3.org/1999/xlink"><path fill-rule="evenodd" class="" fill="currentColor" d="M5.94 3c0-.552.457-1 1.005-1h6.05a1 1 0 1 1 0 2h-6.05A1 1 0 0 1 5.94 3zm0 5c0-.552.457-1 1.005-1h6.05a1 1 0 1 1 0 2h-6.05A1 1 0 0 1 5.94 8zm0 5c0-.552.457-1 1.005-1h6.05a1 1 0 1 1 0 2h-6.05a1 1 0 0 1-1.005-1zM3.28 4.15a1 1 0 0 1-1.406.002l-.636-.627a.667.667 0 0 1-.003-.947l.02-.02a.615.615 0 0 1 .889.02l.075.082a.5.5 0 0 0 .729.01l1.375-1.426a.66.66 0 0 1 .94-.009.668.668 0 0 1 0 .948L3.28 4.15zm0 5a1 1 0 0 1-1.406.002l-.636-.627a.667.667 0 0 1-.003-.947l.02-.02a.615.615 0 0 1 .889.02l.075.082a.5.5 0 0 0 .729.01l1.375-1.426a.66.66 0 0 1 .943-.007.669.669 0 0 1-.004.946L3.281 9.15zm0 5a1 1 0 0 1-1.406.002l-.636-.627a.667.667 0 0 1-.003-.947l.02-.02a.615.615 0 0 1 .889.02l.075.082a.5.5 0 0 0 .729.01l1.375-1.426a.66.66 0 0 1 .943-.007.669.669 0 0 1-.004.946L3.281 14.15z" style="display:inline;height:auto;min-height:0px;min-width:0px;overflow-x:visible;overflow-y:visible;width:auto;perspective-origin:0px 0px;transform-origin:0px 0px;fill:rgb(51, 51, 51);fill-rule:evenodd;shape-rendering:geometricprecision;d:path(&quot;M 5.94 3 C 5.94 2.448 6.397 2 6.945 2 H 12.995 A 1 1 0 1 1 12.995 4 H 6.945 A 1 1 0 0 1 5.94 3 Z M 5.94 8 C 5.94 7.448 6.397 7 6.945 7 H 12.995 A 1 1 0 1 1 12.995 9 H 6.945 A 1 1 0 0 1 5.94 8 Z M 5.94 13 C 5.94 12.448 6.397 12 6.945 12 H 12.995 A 1 1 0 1 1 12.995 14 H 6.945 A 1 1 0 0 1 5.94 13 Z M 3.28 4.15 A 1 1 0 0 1 1.874 4.152 L 1.238 3.525 A 0.667 0.667 0 0 1 1.235 2.578 L 1.255 2.558 A 0.615 0.615 0 0 1 2.144 2.578 L 2.219 2.66 A 0.5 0.5 0 0 0 2.948 2.67 L 4.323 1.244 A 0.66 0.66 0 0 1 5.263 1.235 A 0.668 0.668 0 0 1 5.263 2.183 L 3.28 4.15 Z M 3.28 9.15 A 1 1 0 0 1 1.874 9.152 L 1.238 8.525 A 0.667 0.667 0 0 1 1.235 7.578 L 1.255 7.558 A 0.615 0.615 0 0 1 2.144 7.578 L 2.219 7.66 A 0.5 0.5 0 0 0 2.948 7.67 L 4.323 6.244 A 0.66 0.66 0 0 1 5.266 6.237 A 0.669 0.669 0 0 1 5.262 7.183 L 3.281 9.15 Z M 3.28 14.15 A 1 1 0 0 1 1.874 14.152 L 1.238 13.525 A 0.667 0.667 0 0 1 1.235 12.578 L 1.255 12.558 A 0.615 0.615 0 0 1 2.144 12.578 L 2.219 12.66 A 0.5 0.5 0 0 0 2.948 12.67 L 4.323 11.244 A 0.66 0.66 0 0 1 5.266 11.237 A 0.669 0.669 0 0 1 5.262 12.183 L 3.281 14.15 Z&quot;);"/></svg>