<?xml version="1.0" standalone="no"?><!DOCTYPE svg PUBLIC "-//W3C//DTD SVG 1.1//EN" "http://www.w3.org/Graphics/SVG/1.1/DTD/svg11.dtd"><svg width="12" height="12" viewBox="0 0 12 12" class="checklistMicro" style="height:12px;margin-right:16px;width:12px;perspective-origin:6px 6px;transform-origin:6px 6px;shape-rendering:geometricprecision;" version="1.1" xmlns="http://www.w3.org/2000/svg" xmlns:xlink="http://www.w3.org/1999/xlink"><path fill-rule="evenodd" class="" fill="currentColor" d="M5.051 2c0-.552.453-1 .993-1h2.92c.549 0 .994.444.994 1 0 .552-.453 1-.993 1h-2.92a.994.994 0 0 1-.994-1zm0 4c0-.552.453-1 .993-1h2.92c.549 0 .994.444.994 1 0 .552-.453 1-.993 1h-2.92a.994.994 0 0 1-.994-1zm0 4c0-.552.453-1 .993-1h2.92c.549 0 .994.444.994 1 0 .552-.453 1-.993 1h-2.92a.994.994 0 0 1-.994-1zM2.395 2.88l1.47-1.46a.454.454 0 0 0 .002-.643.448.448 0 0 0-.639.006l-1 1.036a.25.25 0 0 1-.364-.005l-.115-.126a.417.417 0 0 0-.603-.013l-.013.013a.453.453 0 0 0 .002.643l.557.55a.5.5 0 0 0 .703-.001zm0 4l1.47-1.46a.454.454 0 0 0 .002-.643.448.448 0 0 0-.639.006l-1 1.036a.25.25 0 0 1-.364-.005l-.115-.126a.417.417 0 0 0-.603-.013l-.013.013a.453.453 0 0 0 .002.643l.557.55a.5.5 0 0 0 .703-.001zm0 4l1.47-1.46a.454.454 0 0 0 .002-.643.448.448 0 0 0-.639.006l-1 1.036a.25.25 0 0 1-.364-.005l-.115-.126a.417.417 0 0 0-.603-.013l-.013.013a.453.453 0 0 0 .002.643l.557.55a.5.5 0 0 0 .703-.001z" style="display:inline;height:auto;min-height:0px;min-width:0px;overflow-x:visible;overflow-y:visible;width:auto;perspective-origin:0px 0px;transform-origin:0px 0px;fill:rgb(51, 51, 51);fill-rule:evenodd;shape-rendering:geometricprecision;d:path(&quot;M 5.051 2 C 5.051 1.448 5.504 1 6.044 1 H 8.964 C 9.513 1 9.958 1.444 9.958 2 C 9.958 2.552 9.505 3 8.965 3 H 6.045 A 0.994 0.994 0 0 1 5.051 2 Z M 5.051 6 C 5.051 5.448 5.504 5 6.044 5 H 8.964 C 9.513 5 9.958 5.444 9.958 6 C 9.958 6.552 9.505 7 8.965 7 H 6.045 A 0.994 0.994 0 0 1 5.051 6 Z M 5.051 10 C 5.051 9.448 5.504 9 6.044 9 H 8.964 C 9.513 9 9.958 9.444 9.958 10 C 9.958 10.552 9.505 11 8.965 11 H 6.045 A 0.994 0.994 0 0 1 5.051 10 Z M 2.395 2.88 L 3.865 1.42 A 0.454 0.454 0 0 0 3.867 0.777 A 0.448 0.448 0 0 0 3.228 0.783 L 2.228 1.819 A 0.25 0.25 0 0 1 1.864 1.814 L 1.749 1.688 A 0.417 0.417 0 0 0 1.146 1.675 L 1.133 1.688 A 0.453 0.453 0 0 0 1.135 2.331 L 1.692 2.881 A 0.5 0.5 0 0 0 2.395 2.88 Z M 2.395 6.88 L 3.865 5.42 A 0.454 0.454 0 0 0 3.867 4.777 A 0.448 0.448 0 0 0 3.228 4.783 L 2.228 5.819 A 0.25 0.25 0 0 1 1.864 5.814 L 1.749 5.688 A 0.417 0.417 0 0 0 1.146 5.675 L 1.133 5.688 A 0.453 0.453 0 0 0 1.135 6.331 L 1.692 6.881 A 0.5 0.5 0 0 0 2.395 6.88 Z M 2.395 10.88 L 3.865 9.42 A 0.454 0.454 0 0 0 3.867 8.777 A 0.448 0.448 0 0 0 3.228 8.783 L 2.228 9.819 A 0.25 0.25 0 0 1 1.864 9.814 L 1.749 9.688 A 0.417 0.417 0 0 0 1.146 9.675 L 1.133 9.688 A 0.453 0.453 0 0 0 1.135 10.331 L 1.692 10.881 A 0.5 0.5 0 0 0 2.395 10.88 Z&quot;);"/></svg>