<?xml version="1.0" standalone="no"?><!DOCTYPE svg PUBLIC "-//W3C//DTD SVG 1.1//EN" "http://www.w3.org/Graphics/SVG/1.1/DTD/svg11.dtd"><svg width="12" height="12" viewBox="0 0 12 12" version="1.1" xmlns="http://www.w3.org/2000/svg" xmlns:xlink="http://www.w3.org/1999/xlink"><path fill-rule="evenodd" fill="currentColor" d="M1 3c0-1.105.887-2 2-2h6c1.105 0 2 .887 2 2v6c0 1.105-.887 2-2 2H3c-1.105 0-2-.887-2-2V3zm3.417 5.353a1.01 1.01 0 0 0 1.412.001l2.852-2.83a.997.997 0 0 0-.004-1.406l.134.135a.974.974 0 0 0-1.398.01L5.467 6.28a.46.46 0 0 1-.674-.009L4.636 6.1a.957.957 0 0 0-1.387-.037l.135-.135a.993.993 0 0 0 0 1.407l1.033 1.02z"/></svg>