<?xml version="1.0" standalone="no"?><!DOCTYPE svg PUBLIC "-//W3C//DTD SVG 1.1//EN" "http://www.w3.org/Graphics/SVG/1.1/DTD/svg11.dtd"><svg width="12" height="12" viewBox="0 0 12 12" version="1.1" xmlns="http://www.w3.org/2000/svg" xmlns:xlink="http://www.w3.org/1999/xlink"><path fill-rule="evenodd" fill="currentColor" d="M5.051 2c0-.552.453-1 .993-1h2.92c.549 0 .994.444.994 1 0 .552-.453 1-.993 1h-2.92a.994.994 0 0 1-.994-1zm0 4c0-.552.453-1 .993-1h2.92c.549 0 .994.444.994 1 0 .552-.453 1-.993 1h-2.92a.994.994 0 0 1-.994-1zm0 4c0-.552.453-1 .993-1h2.92c.549 0 .994.444.994 1 0 .552-.453 1-.993 1h-2.92a.994.994 0 0 1-.994-1zM2.395 2.88l1.47-1.46a.454.454 0 0 0 .002-.643.448.448 0 0 0-.639.006l-1 1.036a.25.25 0 0 1-.364-.005l-.115-.126a.417.417 0 0 0-.603-.013l-.013.013a.453.453 0 0 0 .002.643l.557.55a.5.5 0 0 0 .703-.001zm0 4l1.47-1.46a.454.454 0 0 0 .002-.643.448.448 0 0 0-.639.006l-1 1.036a.25.25 0 0 1-.364-.005l-.115-.126a.417.417 0 0 0-.603-.013l-.013.013a.453.453 0 0 0 .002.643l.557.55a.5.5 0 0 0 .703-.001zm0 4l1.47-1.46a.454.454 0 0 0 .002-.643.448.448 0 0 0-.639.006l-1 1.036a.25.25 0 0 1-.364-.005l-.115-.126a.417.417 0 0 0-.603-.013l-.013.013a.453.453 0 0 0 .002.643l.557.55a.5.5 0 0 0 .703-.001z"/></svg>