<?xml version="1.0" standalone="no"?><!DOCTYPE svg PUBLIC "-//W3C//DTD SVG 1.1//EN" "http://www.w3.org/Graphics/SVG/1.1/DTD/svg11.dtd"><svg width="16" height="16" viewBox="0 0 16 16" version="1.1" xmlns="http://www.w3.org/2000/svg" xmlns:xlink="http://www.w3.org/1999/xlink"><path fill-rule="evenodd" fill="currentColor" d="M5.94 3c0-.552.457-1 1.005-1h6.05a1 1 0 1 1 0 2h-6.05A1 1 0 0 1 5.94 3zm0 5c0-.552.457-1 1.005-1h6.05a1 1 0 1 1 0 2h-6.05A1 1 0 0 1 5.94 8zm0 5c0-.552.457-1 1.005-1h6.05a1 1 0 1 1 0 2h-6.05a1 1 0 0 1-1.005-1zM3.28 4.15a1 1 0 0 1-1.406.002l-.636-.627a.667.667 0 0 1-.003-.947l.02-.02a.615.615 0 0 1 .889.02l.075.082a.5.5 0 0 0 .729.01l1.375-1.426a.66.66 0 0 1 .94-.009.668.668 0 0 1 0 .948L3.28 4.15zm0 5a1 1 0 0 1-1.406.002l-.636-.627a.667.667 0 0 1-.003-.947l.02-.02a.615.615 0 0 1 .889.02l.075.082a.5.5 0 0 0 .729.01l1.375-1.426a.66.66 0 0 1 .943-.007.669.669 0 0 1-.004.946L3.281 9.15zm0 5a1 1 0 0 1-1.406.002l-.636-.627a.667.667 0 0 1-.003-.947l.02-.02a.615.615 0 0 1 .889.02l.075.082a.5.5 0 0 0 .729.01l1.375-1.426a.66.66 0 0 1 .943-.007.669.669 0 0 1-.004.946L3.281 14.15z"/></svg>