<?xml version="1.0" standalone="no"?><!DOCTYPE svg PUBLIC "-//W3C//DTD SVG 1.1//EN" "http://www.w3.org/Graphics/SVG/1.1/DTD/svg11.dtd"><svg width="12" height="12" viewBox="0 0 12 12" version="1.1" xmlns="http://www.w3.org/2000/svg" xmlns:xlink="http://www.w3.org/1999/xlink"><path fill-rule="evenodd" fill="currentColor" d="M0 2.501A2.507 2.507 0 0 1 2.501 0h6.998A2.507 2.507 0 0 1 12 2.501v6.998A2.507 2.507 0 0 1 9.499 12H2.501A2.507 2.507 0 0 1 0 9.499V2.501zm1-.004v7.006C1 10.328 1.67 11 2.497 11h7.006C10.328 11 11 10.33 11 9.503V2.497C11 1.672 10.33 1 9.503 1H2.497C1.672 1 1 1.67 1 2.497zm3.289 6.18L3.004 7.41A.995.995 0 0 1 3 6a.947.947 0 0 1 1.384.033l.276.303c.192.209.498.208.692.006l2.243-2.325A.974.974 0 0 1 9 4a.997.997 0 0 1-.008 1.417L5.715 8.67a1.019 1.019 0 0 1-1.426.008z"/></svg>