<?xml version="1.0" standalone="no"?><!DOCTYPE svg PUBLIC "-//W3C//DTD SVG 1.1//EN" "http://www.w3.org/Graphics/SVG/1.1/DTD/svg11.dtd"><svg width="16" height="16" viewBox="0 0 16 16" version="1.1" xmlns="http://www.w3.org/2000/svg" xmlns:xlink="http://www.w3.org/1999/xlink"><path fill-rule="evenodd" fill="currentColor" d="M6.48 2l-.045.094c-.24.501.017.906.574.906h1.982c.566 0 .807-.395.558-.883L9.489 2H11v1a1 1 0 0 1-.99 1H5.99A.993.993 0 0 1 5 3V2h1.48l.045-.094c.24-.5.883-.906 1.444-.906.558 0 1.216.405 1.46.883L9.49 2h3.015A1.49 1.49 0 0 1 14 3.491V13.51A1.5 1.5 0 0 1 12.504 15H3.496A1.49 1.49 0 0 1 2 13.509V3.49A1.5 1.5 0 0 1 3.496 2H6.48zM12 12v-.505a.494.494 0 0 0-.5-.495c-.268 0-.5.222-.5.495V12h-.505a.494.494 0 0 0-.495.5c0 .268.222.5.495.5H11v.505c0 .28.224.495.5.495.268 0 .5-.222.5-.495V13h.505c.28 0 .495-.224.495-.5 0-.268-.222-.5-.495-.5H12zM4 6.5c0 .268.22.5.491.5h5.018a.5.5 0 0 0 0-1H4.491A.5.5 0 0 0 4 6.5zm0 2c0 .268.224.5.5.5h7c.27 0 .5-.224.5-.5 0-.268-.224-.5-.5-.5h-7c-.27 0-.5.224-.5.5zm0 2c0 .268.22.5.491.5h5.018a.5.5 0 0 0 0-1H4.491a.5.5 0 0 0-.491.5zm0 2c0 .268.222.5.495.5h2.01c.28 0 .495-.224.495-.5 0-.268-.222-.5-.495-.5h-2.01a.494.494 0 0 0-.495.5z"/></svg>