<?xml version="1.0" standalone="no"?><!DOCTYPE svg PUBLIC "-//W3C//DTD SVG 1.1//EN" "http://www.w3.org/Graphics/SVG/1.1/DTD/svg11.dtd"><svg width="12" height="12" viewBox="0 0 12 12" class="clipboardMicro" style="height:12px;margin-right:16px;width:12px;perspective-origin:6px 6px;transform-origin:6px 6px;shape-rendering:geometricprecision;" version="1.1" xmlns="http://www.w3.org/2000/svg" xmlns:xlink="http://www.w3.org/1999/xlink"><path fill-rule="evenodd" class="" fill="currentColor" d="M4.48 1l-.045.094c-.24.501.017.906.574.906h1.982c.566 0 .807-.395.558-.883L7.489 1H9v1a1 1 0 0 1-.99 1H3.99A.993.993 0 0 1 3 2V1h1.48l.045-.094C4.765.406 5.408 0 5.97 0c.558 0 1.216.405 1.46.883L7.49 1h2.014A1.5 1.5 0 0 1 11 2.506v7.988C11 11.326 10.328 12 9.503 12H2.497A1.5 1.5 0 0 1 1 10.494V2.506C1 1.674 1.672 1 2.497 1H4.48zM9 9v-.505A.494.494 0 0 0 8.5 8c-.268 0-.5.222-.5.495V9h-.505A.494.494 0 0 0 7 9.5c0 .268.222.5.495.5H8v.505c0 .28.224.495.5.495.268 0 .5-.222.5-.495V10h.505c.28 0 .495-.224.495-.5 0-.268-.222-.5-.495-.5H9zM2 5.5c0 .268.225.5.503.5h5.994C8.767 6 9 5.776 9 5.5c0-.268-.225-.5-.503-.5H2.503A.507.507 0 0 0 2 5.5zm0 2c0 .268.22.5.49.5h3.02c.275 0 .49-.224.49-.5a.5.5 0 0 0-.49-.5H2.49a.492.492 0 0 0-.49.5zm0 2c0 .268.222.5.495.5h2.01c.28 0 .495-.224.495-.5 0-.268-.222-.5-.495-.5h-2.01A.494.494 0 0 0 2 9.5z" style="display:inline;height:auto;min-height:0px;min-width:0px;overflow-x:visible;overflow-y:visible;width:auto;perspective-origin:0px 0px;transform-origin:0px 0px;fill:rgb(51, 51, 51);fill-rule:evenodd;shape-rendering:geometricprecision;d:path(&quot;M 4.48 1 L 4.435 1.094 C 4.195 1.595 4.452 2 5.009 2 H 6.991 C 7.557 2 7.798 1.605 7.549 1.117 L 7.489 1 H 9 V 2 A 1 1 0 0 1 8.01 3 H 3.99 A 0.993 0.993 0 0 1 3 2 V 1 H 4.48 L 4.525 0.906 C 4.765 0.406 5.408 0 5.97 0 C 6.528 0 7.186 0.405 7.43 0.883 L 7.49 1 H 9.504 A 1.5 1.5 0 0 1 11 2.506 V 10.494 C 11 11.326 10.328 12 9.503 12 H 2.497 A 1.5 1.5 0 0 1 1 10.494 V 2.506 C 1 1.674 1.672 1 2.497 1 H 4.48 Z M 9 9 V 8.495 A 0.494 0.494 0 0 0 8.5 8 C 8.232 8 8 8.222 8 8.495 V 9 H 7.495 A 0.494 0.494 0 0 0 7 9.5 C 7 9.768 7.222 10 7.495 10 H 8 V 10.505 C 8 10.785 8.224 11 8.5 11 C 8.768 11 9 10.778 9 10.505 V 10 H 9.505 C 9.785 10 10 9.776 10 9.5 C 10 9.232 9.778 9 9.505 9 H 9 Z M 2 5.5 C 2 5.768 2.225 6 2.503 6 H 8.497 C 8.767 6 9 5.776 9 5.5 C 9 5.232 8.775 5 8.497 5 H 2.503 A 0.507 0.507 0 0 0 2 5.5 Z M 2 7.5 C 2 7.768 2.22 8 2.49 8 H 5.51 C 5.785 8 6 7.776 6 7.5 A 0.5 0.5 0 0 0 5.51 7 H 2.49 A 0.492 0.492 0 0 0 2 7.5 Z M 2 9.5 C 2 9.768 2.222 10 2.495 10 H 4.505 C 4.785 10 5 9.776 5 9.5 C 5 9.232 4.778 9 4.505 9 H 2.495 A 0.494 0.494 0 0 0 2 9.5 Z&quot;);"/></svg>