<?xml version="1.0" standalone="no"?><!DOCTYPE svg PUBLIC "-//W3C//DTD SVG 1.1//EN" "http://www.w3.org/Graphics/SVG/1.1/DTD/svg11.dtd"><svg width="16" height="16" viewBox="0 0 16 16" class="clipboard" style="height:16px;margin-right:8px;width:16px;perspective-origin:8px 8px;transform-origin:8px 8px;shape-rendering:geometricprecision;" version="1.1" xmlns="http://www.w3.org/2000/svg" xmlns:xlink="http://www.w3.org/1999/xlink"><path fill-rule="evenodd" class="" fill="currentColor" d="M6.48 2l-.045.094c-.24.501.017.906.574.906h1.982c.566 0 .807-.395.558-.883L9.489 2H11v1a1 1 0 0 1-.99 1H5.99A.993.993 0 0 1 5 3V2h1.48l.045-.094c.24-.5.883-.906 1.444-.906.558 0 1.216.405 1.46.883L9.49 2h3.015A1.49 1.49 0 0 1 14 3.491V13.51A1.5 1.5 0 0 1 12.504 15H3.496A1.49 1.49 0 0 1 2 13.509V3.49A1.5 1.5 0 0 1 3.496 2H6.48zM12 12v-.505a.494.494 0 0 0-.5-.495c-.268 0-.5.222-.5.495V12h-.505a.494.494 0 0 0-.495.5c0 .268.222.5.495.5H11v.505c0 .28.224.495.5.495.268 0 .5-.222.5-.495V13h.505c.28 0 .495-.224.495-.5 0-.268-.222-.5-.495-.5H12zM4 6.5c0 .268.22.5.491.5h5.018a.5.5 0 0 0 0-1H4.491A.5.5 0 0 0 4 6.5zm0 2c0 .268.224.5.5.5h7c.27 0 .5-.224.5-.5 0-.268-.224-.5-.5-.5h-7c-.27 0-.5.224-.5.5zm0 2c0 .268.22.5.491.5h5.018a.5.5 0 0 0 0-1H4.491a.5.5 0 0 0-.491.5zm0 2c0 .268.222.5.495.5h2.01c.28 0 .495-.224.495-.5 0-.268-.222-.5-.495-.5h-2.01a.494.494 0 0 0-.495.5z" style="display:inline;height:auto;min-height:0px;min-width:0px;overflow-x:visible;overflow-y:visible;width:auto;perspective-origin:0px 0px;transform-origin:0px 0px;fill:rgb(51, 51, 51);fill-rule:evenodd;shape-rendering:geometricprecision;d:path(&quot;M 6.48 2 L 6.435 2.094 C 6.195 2.595 6.452 3 7.009 3 H 8.991 C 9.557 3 9.798 2.605 9.549 2.117 L 9.489 2 H 11 V 3 A 1 1 0 0 1 10.01 4 H 5.99 A 0.993 0.993 0 0 1 5 3 V 2 H 6.48 L 6.525 1.906 C 6.765 1.406 7.408 1 7.969 1 C 8.527 1 9.185 1.405 9.429 1.883 L 9.49 2 H 12.505 A 1.49 1.49 0 0 1 14 3.491 V 13.51 A 1.5 1.5 0 0 1 12.504 15 H 3.496 A 1.49 1.49 0 0 1 2 13.509 V 3.49 A 1.5 1.5 0 0 1 3.496 2 H 6.48 Z M 12 12 V 11.495 A 0.494 0.494 0 0 0 11.5 11 C 11.232 11 11 11.222 11 11.495 V 12 H 10.495 A 0.494 0.494 0 0 0 10 12.5 C 10 12.768 10.222 13 10.495 13 H 11 V 13.505 C 11 13.785 11.224 14 11.5 14 C 11.768 14 12 13.778 12 13.505 V 13 H 12.505 C 12.785 13 13 12.776 13 12.5 C 13 12.232 12.778 12 12.505 12 H 12 Z M 4 6.5 C 4 6.768 4.22 7 4.491 7 H 9.509 A 0.5 0.5 0 0 0 9.509 6 H 4.491 A 0.5 0.5 0 0 0 4 6.5 Z M 4 8.5 C 4 8.768 4.224 9 4.5 9 H 11.5 C 11.77 9 12 8.776 12 8.5 C 12 8.232 11.776 8 11.5 8 H 4.5 C 4.23 8 4 8.224 4 8.5 Z M 4 10.5 C 4 10.768 4.22 11 4.491 11 H 9.509 A 0.5 0.5 0 0 0 9.509 10 H 4.491 A 0.5 0.5 0 0 0 4 10.5 Z M 4 12.5 C 4 12.768 4.222 13 4.495 13 H 6.505 C 6.785 13 7 12.776 7 12.5 C 7 12.232 6.778 12 6.505 12 H 4.495 A 0.494 0.494 0 0 0 4 12.5 Z&quot;);"/></svg>