<?xml version="1.0" standalone="no"?><!DOCTYPE svg PUBLIC "-//W3C//DTD SVG 1.1//EN" "http://www.w3.org/Graphics/SVG/1.1/DTD/svg11.dtd"><svg width="12" height="12" viewBox="0 0 12 12" version="1.1" xmlns="http://www.w3.org/2000/svg" xmlns:xlink="http://www.w3.org/1999/xlink"><path fill-rule="evenodd" fill="currentColor" d="M4.48 1l-.045.094c-.24.501.017.906.574.906h1.982c.566 0 .807-.395.558-.883L7.489 1H9v1a1 1 0 0 1-.99 1H3.99A.993.993 0 0 1 3 2V1h1.48l.045-.094C4.765.406 5.408 0 5.97 0c.558 0 1.216.405 1.46.883L7.49 1h2.014A1.5 1.5 0 0 1 11 2.506v7.988C11 11.326 10.328 12 9.503 12H2.497A1.5 1.5 0 0 1 1 10.494V2.506C1 1.674 1.672 1 2.497 1H4.48zM9 9v-.505A.494.494 0 0 0 8.5 8c-.268 0-.5.222-.5.495V9h-.505A.494.494 0 0 0 7 9.5c0 .268.222.5.495.5H8v.505c0 .28.224.495.5.495.268 0 .5-.222.5-.495V10h.505c.28 0 .495-.224.495-.5 0-.268-.222-.5-.495-.5H9zM2 5.5c0 .268.225.5.503.5h5.994C8.767 6 9 5.776 9 5.5c0-.268-.225-.5-.503-.5H2.503A.507.507 0 0 0 2 5.5zm0 2c0 .268.22.5.49.5h3.02c.275 0 .49-.224.49-.5a.5.5 0 0 0-.49-.5H2.49a.492.492 0 0 0-.49.5zm0 2c0 .268.222.5.495.5h2.01c.28 0 .495-.224.495-.5 0-.268-.222-.5-.495-.5h-2.01A.494.494 0 0 0 2 9.5z"/></svg>