<?xml version="1.0" standalone="no"?><!DOCTYPE svg PUBLIC "-//W3C//DTD SVG 1.1//EN" "http://www.w3.org/Graphics/SVG/1.1/DTD/svg11.dtd"><svg width="12" height="12" viewBox="0 0 12 12" version="1.1" xmlns="http://www.w3.org/2000/svg" xmlns:xlink="http://www.w3.org/1999/xlink"><path fill-rule="evenodd" fill="currentColor" d="M1.3559202,4.6440798 L3.6440798,2.3559202 C3.83870697,2.16129303 4.15658907,2.15658907 4.34975147,2.34975147 L4.65024853,2.65024853 C4.84375,2.84375 4.8406491,3.1593509 4.6440798,3.3559202 L2.3559202,5.6440798 C2.16129303,5.83870697 2.1593509,6.1593509 2.3559202,6.3559202 L4.6440798,8.6440798 C4.83870697,8.83870697 4.84341093,9.15658907 4.65024853,9.34975147 L4.34975147,9.65024853 C4.15625,9.84375 3.8406491,9.8406491 3.6440798,9.6440798 L1.3559202,7.3559202 C1.16129303,7.16129303 1,6.77404508 1,6.49531555 L1,5.50468445 C1,5.21403503 1.1593509,4.8406491 1.3559202,4.6440798 Z M10.6440798,7.3559202 L8.3559202,9.6440798 C8.16129303,9.83870697 7.84341093,9.84341093 7.65024853,9.65024853 L7.34975147,9.34975147 C7.15625,9.15625 7.1593509,8.8406491 7.3559202,8.6440798 L9.6440798,6.3559202 C9.83870697,6.16129303 9.8406491,5.8406491 9.6440798,5.6440798 L7.3559202,3.3559202 C7.16129303,3.16129303 7.15658907,2.84341093 7.34975147,2.65024853 L7.65024853,2.34975147 C7.84375,2.15625 8.1593509,2.1593509 8.3559202,2.3559202 L10.6440798,4.6440798 C10.838707,4.83870697 11,5.22595492 11,5.50468445 L11,6.49531555 C11,6.78596497 10.8406491,7.1593509 10.6440798,7.3559202 Z"/></svg>