<?xml version="1.0" standalone="no"?><!DOCTYPE svg PUBLIC "-//W3C//DTD SVG 1.1//EN" "http://www.w3.org/Graphics/SVG/1.1/DTD/svg11.dtd"><svg width="16" height="16" viewBox="0 0 16 16" version="1.1" xmlns="http://www.w3.org/2000/svg" xmlns:xlink="http://www.w3.org/1999/xlink"><path fill-rule="evenodd" fill="currentColor" d="M0.359587669,6.64041233 L4.29422684,2.70577316 C4.68722761,2.31277239 5.31821654,2.31821654 5.71075654,2.71075654 L6.28924346,3.28924346 C6.6875,3.6875 6.68395241,4.31604759 6.29408795,4.70591205 L3.35497332,7.64502668 C3.15192032,7.84807968 3.15892697,8.15892697 3.35497332,8.35497332 L6.29408795,11.2940879 C6.68612671,11.6861267 6.68178346,12.3182165 6.28924346,12.7107565 L5.71075654,13.2892435 C5.3125,13.6875 4.68401459,13.6840146 4.29422684,13.2942268 L0.359587669,9.35958767 C0.155122876,9.15512288 0,8.77404508 0,8.49531555 L0,7.50468445 C0,7.21403503 0.160992883,6.83900712 0.359587669,6.64041233 Z M15.6404123,9.35958767 L11.7057732,13.2942268 C11.3127724,13.6872276 10.6817835,13.6817835 10.2892435,13.2892435 L9.71075654,12.7107565 C9.3125,12.3125 9.31604759,11.6839524 9.70591205,11.2940879 L12.6450267,8.35497332 C12.8480797,8.15192032 12.841073,7.84107303 12.6450267,7.64502668 L9.70591205,4.70591205 C9.31387329,4.31387329 9.31821654,3.68178346 9.71075654,3.28924346 L10.2892435,2.71075654 C10.6875,2.3125 11.3159854,2.31598541 11.7057732,2.70577316 L15.6404123,6.64041233 C15.8448771,6.84487712 16,7.22595492 16,7.50468445 L16,8.49531555 C16,8.78596497 15.8390071,9.16099288 15.6404123,9.35958767 Z"/></svg>