<?xml version="1.0" standalone="no"?><!DOCTYPE svg PUBLIC "-//W3C//DTD SVG 1.1//EN" "http://www.w3.org/Graphics/SVG/1.1/DTD/svg11.dtd"><svg width="12" height="12" viewBox="0 0 12 12" class="codeMicro" style="height:12px;margin-right:16px;width:12px;perspective-origin:6px 6px;transform-origin:6px 6px;shape-rendering:geometricprecision;" version="1.1" xmlns="http://www.w3.org/2000/svg" xmlns:xlink="http://www.w3.org/1999/xlink"><path fill-rule="evenodd" class="" fill="currentColor" d="M1.3559202,4.6440798 L3.6440798,2.3559202 C3.83870697,2.16129303 4.15658907,2.15658907 4.34975147,2.34975147 L4.65024853,2.65024853 C4.84375,2.84375 4.8406491,3.1593509 4.6440798,3.3559202 L2.3559202,5.6440798 C2.16129303,5.83870697 2.1593509,6.1593509 2.3559202,6.3559202 L4.6440798,8.6440798 C4.83870697,8.83870697 4.84341093,9.15658907 4.65024853,9.34975147 L4.34975147,9.65024853 C4.15625,9.84375 3.8406491,9.8406491 3.6440798,9.6440798 L1.3559202,7.3559202 C1.16129303,7.16129303 1,6.77404508 1,6.49531555 L1,5.50468445 C1,5.21403503 1.1593509,4.8406491 1.3559202,4.6440798 Z M10.6440798,7.3559202 L8.3559202,9.6440798 C8.16129303,9.83870697 7.84341093,9.84341093 7.65024853,9.65024853 L7.34975147,9.34975147 C7.15625,9.15625 7.1593509,8.8406491 7.3559202,8.6440798 L9.6440798,6.3559202 C9.83870697,6.16129303 9.8406491,5.8406491 9.6440798,5.6440798 L7.3559202,3.3559202 C7.16129303,3.16129303 7.15658907,2.84341093 7.34975147,2.65024853 L7.65024853,2.34975147 C7.84375,2.15625 8.1593509,2.1593509 8.3559202,2.3559202 L10.6440798,4.6440798 C10.838707,4.83870697 11,5.22595492 11,5.50468445 L11,6.49531555 C11,6.78596497 10.8406491,7.1593509 10.6440798,7.3559202 Z" style="display:inline;height:auto;min-height:0px;min-width:0px;overflow-x:visible;overflow-y:visible;width:auto;perspective-origin:0px 0px;transform-origin:0px 0px;fill:rgb(51, 51, 51);fill-rule:evenodd;shape-rendering:geometricprecision;d:path(&quot;M 1.35592 4.64408 L 3.64408 2.35592 C 3.83871 2.16129 4.15659 2.15659 4.34975 2.34975 L 4.65025 2.65025 C 4.84375 2.84375 4.84065 3.15935 4.64408 3.35592 L 2.35592 5.64408 C 2.16129 5.83871 2.15935 6.15935 2.35592 6.35592 L 4.64408 8.64408 C 4.83871 8.83871 4.84341 9.15659 4.65025 9.34975 L 4.34975 9.65025 C 4.15625 9.84375 3.84065 9.84065 3.64408 9.64408 L 1.35592 7.35592 C 1.16129 7.16129 1 6.77404 1 6.49532 L 1 5.50468 C 1 5.21404 1.15935 4.84065 1.35592 4.64408 Z M 10.6441 7.35592 L 8.35592 9.64408 C 8.16129 9.83871 7.84341 9.84341 7.65025 9.65025 L 7.34975 9.34975 C 7.15625 9.15625 7.15935 8.84065 7.35592 8.64408 L 9.64408 6.35592 C 9.83871 6.16129 9.84065 5.84065 9.64408 5.64408 L 7.35592 3.35592 C 7.16129 3.16129 7.15659 2.84341 7.34975 2.65025 L 7.65025 2.34975 C 7.84375 2.15625 8.15935 2.15935 8.35592 2.35592 L 10.6441 4.64408 C 10.8387 4.83871 11 5.22596 11 5.50468 L 11 6.49532 C 11 6.78596 10.8406 7.15935 10.6441 7.35592 Z&quot;);"/></svg>