<?xml version="1.0" standalone="no"?><!DOCTYPE svg PUBLIC "-//W3C//DTD SVG 1.1//EN" "http://www.w3.org/Graphics/SVG/1.1/DTD/svg11.dtd"><svg width="16" height="16" viewBox="0 0 16 16" class="cog" style="height:16px;margin-right:8px;width:16px;perspective-origin:8px 8px;transform-origin:8px 8px;shape-rendering:geometricprecision;" version="1.1" xmlns="http://www.w3.org/2000/svg" xmlns:xlink="http://www.w3.org/1999/xlink"><path fill-rule="evenodd" class="" fill="currentColor" d="M7.7773,11.0131 C6.9493,10.9881 6.2103,10.6301 5.6843,10.0711 C5.6833,10.0711 5.6833,10.0701 5.6833,10.0701 C5.1573,9.5111 4.8443,8.7511 4.8693,7.9231 C4.8943,7.0951 5.2533,6.3561 5.8123,5.8301 L5.8123,5.8301 C6.3713,5.3031 7.1313,4.9911 7.9593,5.0161 C8.7873,5.0411 9.5263,5.3991 10.0523,5.9581 L10.0533,5.9581 C10.5793,6.5181 10.8923,7.2771 10.8673,8.1051 C10.8413,8.9331 10.4833,9.6731 9.9243,10.1991 L9.9243,10.1991 C9.3653,10.7251 8.6053,11.0381 7.7773,11.0131 M15.4953,7.1651 L13.7293,6.7551 C13.6003,6.1561 13.3833,5.5911 13.0903,5.0721 L14.1413,3.5941 C14.2803,3.4001 14.2613,3.1351 14.0983,2.9611 L13.2893,2.1021 C13.1263,1.9281 12.8633,1.8941 12.6603,2.0201 L11.1213,2.9801 C10.6213,2.6561 10.0703,2.4051 9.4803,2.2411 L9.1783,0.4531 C9.1383,0.2181 8.9383,0.0431 8.7003,0.0361 L7.5213,0.0001 C7.2823,-0.0069 7.0723,0.1551 7.0183,0.3871 L6.6093,2.1541 C6.0103,2.2821 5.4453,2.4991 4.9253,2.7921 L3.4473,1.7411 C3.2533,1.6031 2.9883,1.6211 2.8153,1.7841 L1.9553,2.5931 C1.7823,2.7561 1.7483,3.0201 1.8743,3.2221 L2.8343,4.7611 C2.5103,5.2611 2.2593,5.8131 2.0943,6.4031 L0.3063,6.7041 C0.0713,6.7441 -0.1027,6.9441 -0.1107,7.1821 L-0.1457,8.3621 C-0.1537,8.6001 0.0083,8.8101 0.2413,8.8641 L2.0073,9.2731 C2.1363,9.8721 2.3533,10.4381 2.6463,10.9571 L1.5943,12.4351 C1.4563,12.6291 1.4743,12.8941 1.6383,13.0671 L2.4473,13.9271 C2.6103,14.1001 2.8733,14.1351 3.0753,14.0081 L4.6143,13.0481 C5.1153,13.3731 5.6663,13.6241 6.2563,13.7881 L6.5583,15.5761 C6.5973,15.8111 6.7973,15.9861 7.0363,15.9931 L8.2153,16.0291 C8.4543,16.0361 8.6643,15.8741 8.7183,15.6421 L9.1273,13.8751 C9.7263,13.7471 10.2913,13.5301 10.8103,13.2361 L12.2893,14.2881 C12.4833,14.4261 12.7473,14.4081 12.9213,14.2441 L13.7803,13.4361 C13.9543,13.2721 13.9883,13.0091 13.8623,12.8071 L12.9023,11.2681 C13.2263,10.7671 13.4773,10.2161 13.6413,9.6261 L15.4303,9.3251 C15.6653,9.2851 15.8393,9.0851 15.8463,8.8471 L15.8823,7.6671 C15.8893,7.4291 15.7273,7.2191 15.4953,7.1651" style="display:inline;height:auto;min-height:0px;min-width:0px;overflow-x:visible;overflow-y:visible;width:auto;perspective-origin:0px 0px;transform-origin:0px 0px;fill:rgb(51, 51, 51);fill-rule:evenodd;shape-rendering:geometricprecision;d:path(&quot;M 7.7773 11.0131 C 6.9493 10.9881 6.2103 10.6301 5.6843 10.0711 C 5.6833 10.0711 5.6833 10.0701 5.6833 10.0701 C 5.1573 9.5111 4.8443 8.7511 4.8693 7.9231 C 4.8943 7.0951 5.2533 6.3561 5.8123 5.8301 L 5.8123 5.8301 C 6.3713 5.3031 7.1313 4.9911 7.9593 5.0161 C 8.7873 5.0411 9.5263 5.3991 10.0523 5.9581 L 10.0533 5.9581 C 10.5793 6.5181 10.8923 7.2771 10.8673 8.1051 C 10.8413 8.9331 10.4833 9.6731 9.9243 10.1991 L 9.9243 10.1991 C 9.3653 10.7251 8.6053 11.0381 7.7773 11.0131 M 15.4953 7.1651 L 13.7293 6.7551 C 13.6003 6.1561 13.3833 5.5911 13.0903 5.0721 L 14.1413 3.5941 C 14.2803 3.4001 14.2613 3.1351 14.0983 2.9611 L 13.2893 2.1021 C 13.1263 1.9281 12.8633 1.8941 12.6603 2.0201 L 11.1213 2.9801 C 10.6213 2.6561 10.0703 2.4051 9.4803 2.2411 L 9.1783 0.4531 C 9.1383 0.2181 8.9383 0.0431 8.7003 0.0361 L 7.5213 0.0001 C 7.2823 -0.0069 7.0723 0.1551 7.0183 0.3871 L 6.6093 2.1541 C 6.0103 2.2821 5.4453 2.4991 4.9253 2.7921 L 3.4473 1.7411 C 3.2533 1.6031 2.9883 1.6211 2.8153 1.7841 L 1.9553 2.5931 C 1.7823 2.7561 1.7483 3.0201 1.8743 3.2221 L 2.8343 4.7611 C 2.5103 5.2611 2.2593 5.8131 2.0943 6.4031 L 0.3063 6.7041 C 0.0713 6.7441 -0.1027 6.9441 -0.1107 7.1821 L -0.1457 8.3621 C -0.1537 8.6001 0.0083 8.8101 0.2413 8.8641 L 2.0073 9.2731 C 2.1363 9.8721 2.3533 10.4381 2.6463 10.9571 L 1.5943 12.4351 C 1.4563 12.6291 1.4743 12.8941 1.6383 13.0671 L 2.4473 13.9271 C 2.6103 14.1001 2.8733 14.1351 3.0753 14.0081 L 4.6143 13.0481 C 5.1153 13.3731 5.6663 13.6241 6.2563 13.7881 L 6.5583 15.5761 C 6.5973 15.8111 6.7973 15.9861 7.0363 15.9931 L 8.2153 16.0291 C 8.4543 16.0361 8.6643 15.8741 8.7183 15.6421 L 9.1273 13.8751 C 9.7263 13.7471 10.2913 13.5301 10.8103 13.2361 L 12.2893 14.2881 C 12.4833 14.4261 12.7473 14.4081 12.9213 14.2441 L 13.7803 13.4361 C 13.9543 13.2721 13.9883 13.0091 13.8623 12.8071 L 12.9023 11.2681 C 13.2263 10.7671 13.4773 10.2161 13.6413 9.6261 L 15.4303 9.3251 C 15.6653 9.2851 15.8393 9.0851 15.8463 8.8471 L 15.8823 7.6671 C 15.8893 7.4291 15.7273 7.2191 15.4953 7.1651&quot;);"/></svg>