<?xml version="1.0" standalone="no"?><!DOCTYPE svg PUBLIC "-//W3C//DTD SVG 1.1//EN" "http://www.w3.org/Graphics/SVG/1.1/DTD/svg11.dtd"><svg width="12" height="12" viewBox="0 0 12 12" version="1.1" xmlns="http://www.w3.org/2000/svg" xmlns:xlink="http://www.w3.org/1999/xlink"><path fill-rule="evenodd" fill="currentColor" d="M5.72898814,7.89860903 C4.64515943,7.86621197 3.79301874,6.96007619 3.82639752,5.87624748 C3.85879458,4.79241877 4.76394863,3.94027808 5.84777734,3.97365686 C6.93160605,4.00605391 7.78374674,4.91120796 7.75134969,5.99601841 C7.71797091,7.07984712 6.81281686,7.93100608 5.72898814,7.89860903 M9.66081241,5.3097899 L10.5767655,4.47630206 L9.64706821,2.74747745 L8.43168782,3.0547586 C8.07139331,2.72391596 7.65219507,2.46179434 7.18489211,2.28311968 L6.91884358,1.05988546 L4.95636749,1 L4.61570756,2.20458137 C4.13858731,2.35478589 3.70466314,2.59138256 3.32473405,2.90062716 L2.12996997,2.51873462 L1.09719116,4.18865549 L1.9611126,5.07613842 C1.90711751,5.31568027 1.87079354,5.56209423 1.86293971,5.81734374 C1.85606761,6.07161153 1.87668391,6.31998894 1.91595307,6.56247598 L1,7.39596383 L1.92969727,9.12478843 L3.14507766,8.81750728 C3.50537217,9.14834992 3.92457041,9.41047154 4.39187337,9.5891462 L4.65890363,10.8123804 L6.62137972,10.8722659 L6.96105792,9.66670279 C7.43817817,9.51747999 7.87210235,9.28088333 8.25301316,8.97163872 L9.44679551,9.35254954 L10.4795743,7.6836104 L9.61565288,6.79612746 C9.66964797,6.55658561 9.70597194,6.30918993 9.71382577,6.05492214 C9.72167961,5.80065435 9.70008157,5.55227694 9.66081241,5.3097899 Z"/></svg>