<?xml version="1.0" standalone="no"?><!DOCTYPE svg PUBLIC "-//W3C//DTD SVG 1.1//EN" "http://www.w3.org/Graphics/SVG/1.1/DTD/svg11.dtd"><svg width="16" height="16" viewBox="0 0 16 16" version="1.1" xmlns="http://www.w3.org/2000/svg" xmlns:xlink="http://www.w3.org/1999/xlink"><path fill-rule="evenodd" fill="currentColor" d="M3.29 9.381l2.96-.423c.56-.08.935.305.856.857l-.423 2.96c-.078.55-.458.674-.848.283l-.707-.707-1.899 1.898a.997.997 0 0 1-1.414 0 .997.997 0 0 1 0-1.414l1.899-1.898-.708-.707c-.393-.394-.264-.77.283-.849zm9.485-2.688l-2.96.422c-.56.08-.936-.304-.857-.856l.423-2.96c.079-.551.458-.674.849-.283l.707.707 1.907-1.908a.997.997 0 0 1 1.414 0 .997.997 0 0 1 0 1.415l-1.907 1.907.707.707c.393.393.264.77-.283.849z"/></svg>