<?xml version="1.0" standalone="no"?><!DOCTYPE svg PUBLIC "-//W3C//DTD SVG 1.1//EN" "http://www.w3.org/Graphics/SVG/1.1/DTD/svg11.dtd"><svg width="16" height="16" viewBox="0 0 16 16" class="collapse" style="height:16px;margin-right:8px;width:16px;perspective-origin:8px 8px;transform-origin:8px 8px;shape-rendering:geometricprecision;" version="1.1" xmlns="http://www.w3.org/2000/svg" xmlns:xlink="http://www.w3.org/1999/xlink"><path fill-rule="evenodd" class="" fill="currentColor" d="M3.29 9.381l2.96-.423c.56-.08.935.305.856.857l-.423 2.96c-.078.55-.458.674-.848.283l-.707-.707-1.899 1.898a.997.997 0 0 1-1.414 0 .997.997 0 0 1 0-1.414l1.899-1.898-.708-.707c-.393-.394-.264-.77.283-.849zm9.485-2.688l-2.96.422c-.56.08-.936-.304-.857-.856l.423-2.96c.079-.551.458-.674.849-.283l.707.707 1.907-1.908a.997.997 0 0 1 1.414 0 .997.997 0 0 1 0 1.415l-1.907 1.907.707.707c.393.393.264.77-.283.849z" style="display:inline;height:auto;min-height:0px;min-width:0px;overflow-x:visible;overflow-y:visible;width:auto;perspective-origin:0px 0px;transform-origin:0px 0px;fill:rgb(51, 51, 51);fill-rule:evenodd;shape-rendering:geometricprecision;d:path(&quot;M 3.29 9.381 L 6.25 8.958 C 6.81 8.878 7.185 9.263 7.106 9.815 L 6.683 12.775 C 6.605 13.325 6.225 13.449 5.835 13.058 L 5.128 12.351 L 3.229 14.249 A 0.997 0.997 0 0 1 1.815 14.249 A 0.997 0.997 0 0 1 1.815 12.835 L 3.714 10.937 L 3.006 10.23 C 2.613 9.836 2.742 9.46 3.289 9.381 Z M 12.775 6.693 L 9.815 7.115 C 9.255 7.195 8.879 6.811 8.958 6.259 L 9.381 3.299 C 9.46 2.748 9.839 2.625 10.23 3.016 L 10.937 3.723 L 12.844 1.815 A 0.997 0.997 0 0 1 14.258 1.815 A 0.997 0.997 0 0 1 14.258 3.23 L 12.351 5.137 L 13.058 5.844 C 13.451 6.237 13.322 6.614 12.775 6.693 Z&quot;);"/></svg>