<?xml version="1.0" standalone="no"?><!DOCTYPE svg PUBLIC "-//W3C//DTD SVG 1.1//EN" "http://www.w3.org/Graphics/SVG/1.1/DTD/svg11.dtd"><svg width="12" height="12" viewBox="0 0 12 12" version="1.1" xmlns="http://www.w3.org/2000/svg" xmlns:xlink="http://www.w3.org/1999/xlink"><path fill-rule="evenodd" fill="currentColor" d="M1.56 6.882l2.96-.423c.56-.08.936.305.857.857l-.423 2.96c-.079.551-.458.674-.848.283l-.708-.707-1.169 1.17a.997.997 0 0 1-1.414-.001.997.997 0 0 1 0-1.414l1.17-1.17-.708-.706c-.393-.393-.264-.77.283-.849zM10 5.271l-2.96.423c-.56.08-.936-.305-.857-.857l.423-2.96c.079-.55.458-.674.849-.283l.707.707L9.647.815a.997.997 0 0 1 1.414 0 .997.997 0 0 1 0 1.415L9.577 3.715l.707.707c.393.394.264.77-.283.849z"/></svg>