<?xml version="1.0" standalone="no"?><!DOCTYPE svg PUBLIC "-//W3C//DTD SVG 1.1//EN" "http://www.w3.org/Graphics/SVG/1.1/DTD/svg11.dtd"><svg width="12" height="12" viewBox="0 0 12 12" class="collapseMicro" style="height:12px;margin-right:16px;width:12px;perspective-origin:6px 6px;transform-origin:6px 6px;shape-rendering:geometricprecision;" version="1.1" xmlns="http://www.w3.org/2000/svg" xmlns:xlink="http://www.w3.org/1999/xlink"><path fill-rule="evenodd" class="" fill="currentColor" d="M1.56 6.882l2.96-.423c.56-.08.936.305.857.857l-.423 2.96c-.079.551-.458.674-.848.283l-.708-.707-1.169 1.17a.997.997 0 0 1-1.414-.001.997.997 0 0 1 0-1.414l1.17-1.17-.708-.706c-.393-.393-.264-.77.283-.849zM10 5.271l-2.96.423c-.56.08-.936-.305-.857-.857l.423-2.96c.079-.55.458-.674.849-.283l.707.707L9.647.815a.997.997 0 0 1 1.414 0 .997.997 0 0 1 0 1.415L9.577 3.715l.707.707c.393.394.264.77-.283.849z" style="display:inline;height:auto;min-height:0px;min-width:0px;overflow-x:visible;overflow-y:visible;width:auto;perspective-origin:0px 0px;transform-origin:0px 0px;fill:rgb(51, 51, 51);fill-rule:evenodd;shape-rendering:geometricprecision;d:path(&quot;M 1.56 6.882 L 4.52 6.459 C 5.08 6.379 5.456 6.764 5.377 7.316 L 4.954 10.276 C 4.875 10.827 4.496 10.95 4.106 10.559 L 3.398 9.852 L 2.229 11.022 A 0.997 0.997 0 0 1 0.815 11.021 A 0.997 0.997 0 0 1 0.815 9.607 L 1.985 8.437 L 1.277 7.731 C 0.884 7.338 1.013 6.961 1.56 6.882 Z M 10 5.271 L 7.04 5.694 C 6.48 5.774 6.104 5.389 6.183 4.837 L 6.606 1.877 C 6.685 1.327 7.064 1.203 7.455 1.594 L 8.162 2.301 L 9.647 0.815 A 0.997 0.997 0 0 1 11.061 0.815 A 0.997 0.997 0 0 1 11.061 2.23 L 9.577 3.715 L 10.284 4.422 C 10.677 4.816 10.548 5.192 10.001 5.271 Z&quot;);"/></svg>