<?xml version="1.0" standalone="no"?><!DOCTYPE svg PUBLIC "-//W3C//DTD SVG 1.1//EN" "http://www.w3.org/Graphics/SVG/1.1/DTD/svg11.dtd"><svg width="12" height="12" viewBox="0 0 12 12" version="1.1" xmlns="http://www.w3.org/2000/svg" xmlns:xlink="http://www.w3.org/1999/xlink"><path fill-rule="evenodd" fill="currentColor" d="M8 1H1.833A.833.833 0 0 0 1 1.833v8.334c0 .46.373.833.833.833H8V1zM1.714 0h8.572C11.232 0 12 .768 12 1.714v8.572c0 .946-.768 1.714-1.714 1.714H1.714A1.714 1.714 0 0 1 0 10.286V1.714C0 .768.768 0 1.714 0zM5.78 7.818a.655.655 0 0 1 0 .98.795.795 0 0 1-1.06 0L2.22 6.49a.655.655 0 0 1 0-.98l2.5-2.307a.795.795 0 0 1 1.06 0 .655.655 0 0 1 0 .979L3.81 6l1.97 1.818z"/></svg>