<?xml version="1.0" standalone="no"?><!DOCTYPE svg PUBLIC "-//W3C//DTD SVG 1.1//EN" "http://www.w3.org/Graphics/SVG/1.1/DTD/svg11.dtd"><svg width="12" height="12" viewBox="0 0 12 12" class="collapseSidebarMicro" style="height:12px;margin-right:16px;width:12px;perspective-origin:6px 6px;transform-origin:6px 6px;shape-rendering:geometricprecision;" version="1.1" xmlns="http://www.w3.org/2000/svg" xmlns:xlink="http://www.w3.org/1999/xlink"><path fill-rule="evenodd" class="" fill="currentColor" d="M8 1H1.833A.833.833 0 0 0 1 1.833v8.334c0 .46.373.833.833.833H8V1zM1.714 0h8.572C11.232 0 12 .768 12 1.714v8.572c0 .946-.768 1.714-1.714 1.714H1.714A1.714 1.714 0 0 1 0 10.286V1.714C0 .768.768 0 1.714 0zM5.78 7.818a.655.655 0 0 1 0 .98.795.795 0 0 1-1.06 0L2.22 6.49a.655.655 0 0 1 0-.98l2.5-2.307a.795.795 0 0 1 1.06 0 .655.655 0 0 1 0 .979L3.81 6l1.97 1.818z" style="display:inline;height:auto;min-height:0px;min-width:0px;overflow-x:visible;overflow-y:visible;width:auto;perspective-origin:0px 0px;transform-origin:0px 0px;fill:rgb(51, 51, 51);fill-rule:evenodd;shape-rendering:geometricprecision;d:path(&quot;M 8 1 H 1.833 A 0.833 0.833 0 0 0 1 1.833 V 10.167 C 1 10.627 1.373 11 1.833 11 H 8 V 1 Z M 1.714 0 H 10.286 C 11.232 0 12 0.768 12 1.714 V 10.286 C 12 11.232 11.232 12 10.286 12 H 1.714 A 1.714 1.714 0 0 1 0 10.286 V 1.714 C 0 0.768 0.768 0 1.714 0 Z M 5.78 7.818 A 0.655 0.655 0 0 1 5.78 8.798 A 0.795 0.795 0 0 1 4.72 8.798 L 2.22 6.49 A 0.655 0.655 0 0 1 2.22 5.51 L 4.72 3.203 A 0.795 0.795 0 0 1 5.78 3.203 A 0.655 0.655 0 0 1 5.78 4.182 L 3.81 6 L 5.78 7.818 Z&quot;);"/></svg>