<?xml version="1.0" standalone="no"?><!DOCTYPE svg PUBLIC "-//W3C//DTD SVG 1.1//EN" "http://www.w3.org/Graphics/SVG/1.1/DTD/svg11.dtd"><svg width="12" height="12" viewBox="0 0 12 12" class="countMicro" style="height:12px;margin-right:16px;width:12px;perspective-origin:6px 6px;transform-origin:6px 6px;shape-rendering:geometricprecision;" version="1.1" xmlns="http://www.w3.org/2000/svg" xmlns:xlink="http://www.w3.org/1999/xlink"><path fill-rule="evenodd" class="" fill="currentColor" d="M4.12535722,6 L1.35688031,10.6141282 C1.05694427,11.1140216 1.41702914,11.75 2,11.75 L9,11.75 C9.41421356,11.75 9.75,11.4142136 9.75,11 L9.75,9 C9.75,8.58578644 9.41421356,8.25 9,8.25 C8.58578644,8.25 8.25,8.58578644 8.25,9 L8.25,10.25 L3.32464278,10.25 L5.64311969,6.38587182 C5.78562677,6.14836003 5.78562677,5.85163997 5.64311969,5.61412818 L3.32464278,1.75 L8.25,1.75 L8.25,3 C8.25,3.41421356 8.58578644,3.75 9,3.75 C9.41421356,3.75 9.75,3.41421356 9.75,3 L9.75,1 C9.75,0.585786438 9.41421356,0.25 9,0.25 L2,0.25 C1.41702914,0.25 1.05694427,0.885978431 1.35688031,1.38587182 L4.12535722,6 Z" style="display:inline;height:auto;min-height:0px;min-width:0px;overflow-x:visible;overflow-y:visible;width:auto;perspective-origin:0px 0px;transform-origin:0px 0px;fill:rgb(51, 51, 51);fill-rule:evenodd;shape-rendering:geometricprecision;d:path(&quot;M 4.12536 6 L 1.35688 10.6141 C 1.05694 11.114 1.41703 11.75 2 11.75 L 9 11.75 C 9.41421 11.75 9.75 11.4142 9.75 11 L 9.75 9 C 9.75 8.58579 9.41421 8.25 9 8.25 C 8.58579 8.25 8.25 8.58579 8.25 9 L 8.25 10.25 L 3.32464 10.25 L 5.64312 6.38587 C 5.78563 6.14836 5.78563 5.85164 5.64312 5.61413 L 3.32464 1.75 L 8.25 1.75 L 8.25 3 C 8.25 3.41421 8.58579 3.75 9 3.75 C 9.41421 3.75 9.75 3.41421 9.75 3 L 9.75 1 C 9.75 0.585786 9.41421 0.25 9 0.25 L 2 0.25 C 1.41703 0.25 1.05694 0.885978 1.35688 1.38587 L 4.12536 6 Z&quot;);"/></svg>