<?xml version="1.0" standalone="no"?><!DOCTYPE svg PUBLIC "-//W3C//DTD SVG 1.1//EN" "http://www.w3.org/Graphics/SVG/1.1/DTD/svg11.dtd"><svg width="16" height="16" viewBox="0 0 16 16" class="count1" version="1.1" xmlns="http://www.w3.org/2000/svg" xmlns:xlink="http://www.w3.org/1999/xlink"><path fill-rule="evenodd" fill="currentColor" d="M10.085 8h-.17a1.5 1.5 0 0 1-2.83 0H3.51A.51.51 0 0 1 3 7.5c0-.276.228-.5.51-.5h3.575a1.5 1.5 0 0 1 2.83 0h.17a1.5 1.5 0 1 1 0 1zm-4.17 4h4.17a1.5 1.5 0 1 1 0 1h-4.17a1.5 1.5 0 1 1 0-1zm1.17-10h-1.17a1.5 1.5 0 1 0 0 1h1.17a1.5 1.5 0 0 0 2.83 0h2.575c.282 0 .51-.224.51-.5a.51.51 0 0 0-.51-.5H9.915a1.5 1.5 0 0 0-2.83 0zM0 2.343a.993.993 0 0 1 1-.99c.552 0 1 .447 1 .99v11.495a.993.993 0 0 1-1 .99c-.552 0-1-.448-1-.99V2.343zm14 0a.993.993 0 0 1 1-.99c.552 0 1 .447 1 .99v11.495a.993.993 0 0 1-1 .99c-.552 0-1-.448-1-.99V2.343z"/></svg>