<?xml version="1.0" standalone="no"?><!DOCTYPE svg PUBLIC "-//W3C//DTD SVG 1.1//EN" "http://www.w3.org/Graphics/SVG/1.1/DTD/svg11.dtd"><svg width="12" height="12" viewBox="0 0 12 12" class="count1Micro" style="height:12px;margin-right:16px;width:12px;perspective-origin:6px 6px;transform-origin:6px 6px;shape-rendering:geometricprecision;" version="1.1" xmlns="http://www.w3.org/2000/svg" xmlns:xlink="http://www.w3.org/1999/xlink"><path fill-rule="evenodd" class="" fill="currentColor" d="M11 9V6H9.915a1.5 1.5 0 0 1-2.83 0h-.17a1.5 1.5 0 0 1-2.83 0H1v3h.085a1.5 1.5 0 0 1 2.83 0h4.17a1.5 1.5 0 0 1 2.83 0H11zm0 1h-.085a1.5 1.5 0 0 1-2.83 0h-4.17a1.5 1.5 0 0 1-2.83 0H1v1.5c0 .276-.232.5-.5.5a.503.503 0 0 1-.5-.5V.5C0 .224.232 0 .5 0c.276 0 .5.229.5.5V1h1.085a1.5 1.5 0 0 1 2.83 0H11V.5a.5.5 0 1 1 1 0v10.647a.5.5 0 1 1-1 0V10zm0-8H4.915a1.5 1.5 0 0 1-2.83 0H1v3h3.085a1.5 1.5 0 0 1 2.83 0h.17a1.5 1.5 0 0 1 2.83 0H11V2z" style="display:inline;height:auto;min-height:0px;min-width:0px;overflow-x:visible;overflow-y:visible;width:auto;perspective-origin:0px 0px;transform-origin:0px 0px;fill:rgb(51, 51, 51);fill-rule:evenodd;shape-rendering:geometricprecision;d:path(&quot;M 11 9 V 6 H 9.915 A 1.5 1.5 0 0 1 7.085 6 H 6.915 A 1.5 1.5 0 0 1 4.085 6 H 1 V 9 H 1.085 A 1.5 1.5 0 0 1 3.915 9 H 8.085 A 1.5 1.5 0 0 1 10.915 9 H 11 Z M 11 10 H 10.915 A 1.5 1.5 0 0 1 8.085 10 H 3.915 A 1.5 1.5 0 0 1 1.085 10 H 1 V 11.5 C 1 11.776 0.768 12 0.5 12 A 0.503 0.503 0 0 1 0 11.5 V 0.5 C 0 0.224 0.232 0 0.5 0 C 0.776 0 1 0.229 1 0.5 V 1 H 2.085 A 1.5 1.5 0 0 1 4.915 1 H 11 V 0.5 A 0.5 0.5 0 1 1 12 0.5 V 11.147 A 0.5 0.5 0 1 1 11 11.147 V 10 Z M 11 2 H 4.915 A 1.5 1.5 0 0 1 2.085 2 H 1 V 5 H 4.085 A 1.5 1.5 0 0 1 6.915 5 H 7.085 A 1.5 1.5 0 0 1 9.915 5 H 11 V 2 Z&quot;);"/></svg>