<?xml version="1.0" standalone="no"?><!DOCTYPE svg PUBLIC "-//W3C//DTD SVG 1.1//EN" "http://www.w3.org/Graphics/SVG/1.1/DTD/svg11.dtd"><svg width="12" height="12" viewBox="0 0 12 12" class="count1Micro" version="1.1" xmlns="http://www.w3.org/2000/svg" xmlns:xlink="http://www.w3.org/1999/xlink"><path fill-rule="evenodd" fill="currentColor" d="M11 9V6H9.915a1.5 1.5 0 0 1-2.83 0h-.17a1.5 1.5 0 0 1-2.83 0H1v3h.085a1.5 1.5 0 0 1 2.83 0h4.17a1.5 1.5 0 0 1 2.83 0H11zm0 1h-.085a1.5 1.5 0 0 1-2.83 0h-4.17a1.5 1.5 0 0 1-2.83 0H1v1.5c0 .276-.232.5-.5.5a.503.503 0 0 1-.5-.5V.5C0 .224.232 0 .5 0c.276 0 .5.229.5.5V1h1.085a1.5 1.5 0 0 1 2.83 0H11V.5a.5.5 0 1 1 1 0v10.647a.5.5 0 1 1-1 0V10zm0-8H4.915a1.5 1.5 0 0 1-2.83 0H1v3h3.085a1.5 1.5 0 0 1 2.83 0h.17a1.5 1.5 0 0 1 2.83 0H11V2z"/></svg>