<?xml version="1.0" standalone="no"?><!DOCTYPE svg PUBLIC "-//W3C//DTD SVG 1.1//EN" "http://www.w3.org/Graphics/SVG/1.1/DTD/svg11.dtd"><svg width="16" height="16" viewBox="0 0 16 16" class="count1" style="height:16px;margin-right:8px;width:16px;perspective-origin:8px 8px;transform-origin:8px 8px;shape-rendering:geometricprecision;" version="1.1" xmlns="http://www.w3.org/2000/svg" xmlns:xlink="http://www.w3.org/1999/xlink"><path fill-rule="evenodd" class="" fill="currentColor" d="M10.085 8h-.17a1.5 1.5 0 0 1-2.83 0H3.51A.51.51 0 0 1 3 7.5c0-.276.228-.5.51-.5h3.575a1.5 1.5 0 0 1 2.83 0h.17a1.5 1.5 0 1 1 0 1zm-4.17 4h4.17a1.5 1.5 0 1 1 0 1h-4.17a1.5 1.5 0 1 1 0-1zm1.17-10h-1.17a1.5 1.5 0 1 0 0 1h1.17a1.5 1.5 0 0 0 2.83 0h2.575c.282 0 .51-.224.51-.5a.51.51 0 0 0-.51-.5H9.915a1.5 1.5 0 0 0-2.83 0zM0 2.343a.993.993 0 0 1 1-.99c.552 0 1 .447 1 .99v11.495a.993.993 0 0 1-1 .99c-.552 0-1-.448-1-.99V2.343zm14 0a.993.993 0 0 1 1-.99c.552 0 1 .447 1 .99v11.495a.993.993 0 0 1-1 .99c-.552 0-1-.448-1-.99V2.343z" style="display:inline;height:auto;min-height:0px;min-width:0px;overflow-x:visible;overflow-y:visible;width:auto;perspective-origin:0px 0px;transform-origin:0px 0px;fill:rgb(51, 51, 51);fill-rule:evenodd;shape-rendering:geometricprecision;d:path(&quot;M 10.085 8 H 9.915 A 1.5 1.5 0 0 1 7.085 8 H 3.51 A 0.51 0.51 0 0 1 3 7.5 C 3 7.224 3.228 7 3.51 7 H 7.085 A 1.5 1.5 0 0 1 9.915 7 H 10.085 A 1.5 1.5 0 1 1 10.085 8 Z M 5.915 12 H 10.085 A 1.5 1.5 0 1 1 10.085 13 H 5.915 A 1.5 1.5 0 1 1 5.915 12 Z M 7.085 2 H 5.915 A 1.5 1.5 0 1 0 5.915 3 H 7.085 A 1.5 1.5 0 0 0 9.915 3 H 12.49 C 12.772 3 13 2.776 13 2.5 A 0.51 0.51 0 0 0 12.49 2 H 9.915 A 1.5 1.5 0 0 0 7.085 2 Z M 0 2.343 A 0.993 0.993 0 0 1 1 1.353 C 1.552 1.353 2 1.8 2 2.343 V 13.838 A 0.993 0.993 0 0 1 1 14.828 C 0.448 14.828 0 14.38 0 13.838 V 2.343 Z M 14 2.343 A 0.993 0.993 0 0 1 15 1.353 C 15.552 1.353 16 1.8 16 2.343 V 13.838 A 0.993 0.993 0 0 1 15 14.828 C 14.448 14.828 14 14.38 14 13.838 V 2.343 Z&quot;);"/></svg>