<?xml version="1.0" standalone="no"?><!DOCTYPE svg PUBLIC "-//W3C//DTD SVG 1.1//EN" "http://www.w3.org/Graphics/SVG/1.1/DTD/svg11.dtd"><svg width="16" height="16" viewBox="0 0 16 16" version="1.1" xmlns="http://www.w3.org/2000/svg" xmlns:xlink="http://www.w3.org/1999/xlink"><path fill-rule="evenodd" fill="currentColor" d="M10.9983186,2 C10.9983186,1.44771525 11.4416718,1 12.0076875,1 L13.9889497,1 C14.5464087,1 14.9983186,1.44386482 14.9983186,2 C14.9983186,2.55228475 14.5549654,3 13.9889497,3 L12.0076875,3 C11.4502284,3 10.9983186,2.55613518 10.9983186,2 Z M10.9983186,8 C10.9983186,7.44771525 11.4416718,7 12.0076875,7 L13.9889497,7 C14.5464087,7 14.9983186,7.44386482 14.9983186,8 C14.9983186,8.55228475 14.5549654,9 13.9889497,9 L12.0076875,9 C11.4502284,9 10.9983186,8.55613518 10.9983186,8 Z M10.9983186,11 C10.9983186,10.4477153 11.4416718,10 12.0076875,10 L13.9889497,10 C14.5464087,10 14.9983186,10.4438648 14.9983186,11 C14.9983186,11.5522847 14.5549654,12 13.9889497,12 L12.0076875,12 C11.4502284,12 10.9983186,11.5561352 10.9983186,11 Z M10.9983186,5 C10.9983186,4.44771525 11.4416718,4 12.0076875,4 L13.9889497,4 C14.5464087,4 14.9983186,4.44386482 14.9983186,5 C14.9983186,5.55228475 14.5549654,6 13.9889497,6 L12.0076875,6 C11.4502284,6 10.9983186,5.55613518 10.9983186,5 Z M10.9983186,14 C10.9983186,13.4477153 11.4416718,13 12.0076875,13 L13.9889497,13 C14.5464087,13 14.9983186,13.4438648 14.9983186,14 C14.9983186,14.5522847 14.5549654,15 13.9889497,15 L12.0076875,15 C11.4502284,15 10.9983186,14.5561352 10.9983186,14 Z M1.16794971,12.4452998 L4.79814957,8 L1.16794971,3.5547002 C0.724913219,2.89014547 1.20130462,2 2,2 L8,2 C8.55228475,2 9,2.44771525 9,3 L9,4 C9,4.55228475 8.55228475,5 8,5 C7.44771525,5 7,4.55228475 7,4 L3.86851709,4 L6.83205029,7.4452998 C7.05598324,7.78119922 7.05598324,8.21880078 6.83205029,8.5547002 L3.86851709,12 L7,12 C7,11.4477153 7.44771525,11 8,11 C8.55228475,11 9,11.4477153 9,12 L9,13 C9,13.5522847 8.55228475,14 8,14 L2,14 C1.20130462,14 0.724913219,13.1098545 1.16794971,12.4452998 Z"/></svg>