<?xml version="1.0" standalone="no"?><!DOCTYPE svg PUBLIC "-//W3C//DTD SVG 1.1//EN" "http://www.w3.org/Graphics/SVG/1.1/DTD/svg11.dtd"><svg width="16" height="16" viewBox="0 0 16 16" class="cube" style="height:16px;margin-right:8px;width:16px;perspective-origin:8px 8px;transform-origin:8px 8px;shape-rendering:geometricprecision;" version="1.1" xmlns="http://www.w3.org/2000/svg" xmlns:xlink="http://www.w3.org/1999/xlink"><path fill-rule="evenodd" class="" fill="currentColor" d="M2.947 4.97l4.83-2.415a.5.5 0 0 1 .447 0l4.829 2.415a.25.25 0 0 1 0 .447l-4.83 2.415a.5.5 0 0 1-.447 0L2.947 5.417a.25.25 0 0 1 0-.447zM2.5 6.702a.25.25 0 0 1 .364-.223l4.313 2.2a.5.5 0 0 1 .273.445v4.644a.25.25 0 0 1-.358.225L2.784 11.93a.5.5 0 0 1-.284-.451V6.702zm11 0v4.777a.5.5 0 0 1-.284.45l-4.308 2.064a.25.25 0 0 1-.358-.225V9.124a.5.5 0 0 1 .273-.445l4.313-2.2a.25.25 0 0 1 .364.223z" style="display:inline;height:auto;min-height:0px;min-width:0px;overflow-x:visible;overflow-y:visible;width:auto;perspective-origin:0px 0px;transform-origin:0px 0px;fill:rgb(51, 51, 51);fill-rule:evenodd;shape-rendering:geometricprecision;d:path(&quot;M 2.947 4.97 L 7.777 2.555 A 0.5 0.5 0 0 1 8.224 2.555 L 13.053 4.97 A 0.25 0.25 0 0 1 13.053 5.417 L 8.223 7.832 A 0.5 0.5 0 0 1 7.776 7.832 L 2.947 5.417 A 0.25 0.25 0 0 1 2.947 4.97 Z M 2.5 6.702 A 0.25 0.25 0 0 1 2.864 6.479 L 7.177 8.679 A 0.5 0.5 0 0 1 7.45 9.124 V 13.768 A 0.25 0.25 0 0 1 7.092 13.993 L 2.784 11.93 A 0.5 0.5 0 0 1 2.5 11.479 V 6.702 Z M 13.5 6.702 V 11.479 A 0.5 0.5 0 0 1 13.216 11.929 L 8.908 13.993 A 0.25 0.25 0 0 1 8.55 13.768 V 9.124 A 0.5 0.5 0 0 1 8.823 8.679 L 13.136 6.479 A 0.25 0.25 0 0 1 13.5 6.702 Z&quot;);"/></svg>