<?xml version="1.0" standalone="no"?><!DOCTYPE svg PUBLIC "-//W3C//DTD SVG 1.1//EN" "http://www.w3.org/Graphics/SVG/1.1/DTD/svg11.dtd"><svg width="16" height="16" viewBox="0 0 16 16" version="1.1" xmlns="http://www.w3.org/2000/svg" xmlns:xlink="http://www.w3.org/1999/xlink"><path fill-rule="evenodd" fill="currentColor" d="M2.947 4.97l4.83-2.415a.5.5 0 0 1 .447 0l4.829 2.415a.25.25 0 0 1 0 .447l-4.83 2.415a.5.5 0 0 1-.447 0L2.947 5.417a.25.25 0 0 1 0-.447zM2.5 6.702a.25.25 0 0 1 .364-.223l4.313 2.2a.5.5 0 0 1 .273.445v4.644a.25.25 0 0 1-.358.225L2.784 11.93a.5.5 0 0 1-.284-.451V6.702zm11 0v4.777a.5.5 0 0 1-.284.45l-4.308 2.064a.25.25 0 0 1-.358-.225V9.124a.5.5 0 0 1 .273-.445l4.313-2.2a.25.25 0 0 1 .364.223z"/></svg>