<?xml version="1.0" standalone="no"?><!DOCTYPE svg PUBLIC "-//W3C//DTD SVG 1.1//EN" "http://www.w3.org/Graphics/SVG/1.1/DTD/svg11.dtd"><svg width="12" height="12" viewBox="0 0 12 12" class="cubeMicro" style="height:12px;margin-right:16px;width:12px;perspective-origin:6px 6px;transform-origin:6px 6px;shape-rendering:geometricprecision;" version="1.1" xmlns="http://www.w3.org/2000/svg" xmlns:xlink="http://www.w3.org/1999/xlink"><path fill-rule="evenodd" class="" fill="currentColor" d="M2.447 3.717l3.33-1.664a.5.5 0 0 1 .447 0l3.329 1.664a.25.25 0 0 1 0 .448l-3.33 1.664a.5.5 0 0 1-.447 0L2.447 4.165a.25.25 0 0 1 0-.448zM2 5.15a.25.25 0 0 1 .364-.223l2.963 1.512a.5.5 0 0 1 .273.445v3.185a.25.25 0 0 1-.358.226L2.284 8.877A.5.5 0 0 1 2 8.427V5.148zm8 0v3.277a.5.5 0 0 1-.284.451l-2.958 1.417a.25.25 0 0 1-.358-.226V6.883a.5.5 0 0 1 .273-.445l2.963-1.512A.25.25 0 0 1 10 5.15z" style="display:inline;height:auto;min-height:0px;min-width:0px;overflow-x:visible;overflow-y:visible;width:auto;perspective-origin:0px 0px;transform-origin:0px 0px;fill:rgb(51, 51, 51);fill-rule:evenodd;shape-rendering:geometricprecision;d:path(&quot;M 2.447 3.717 L 5.777 2.053 A 0.5 0.5 0 0 1 6.224 2.053 L 9.553 3.717 A 0.25 0.25 0 0 1 9.553 4.165 L 6.223 5.829 A 0.5 0.5 0 0 1 5.776 5.829 L 2.447 4.165 A 0.25 0.25 0 0 1 2.447 3.717 Z M 2 5.15 A 0.25 0.25 0 0 1 2.364 4.927 L 5.327 6.439 A 0.5 0.5 0 0 1 5.6 6.884 V 10.069 A 0.25 0.25 0 0 1 5.242 10.295 L 2.284 8.877 A 0.5 0.5 0 0 1 2 8.427 V 5.148 Z M 10 5.15 V 8.427 A 0.5 0.5 0 0 1 9.716 8.878 L 6.758 10.295 A 0.25 0.25 0 0 1 6.4 10.069 V 6.883 A 0.5 0.5 0 0 1 6.673 6.438 L 9.636 4.926 A 0.25 0.25 0 0 1 10 5.15 Z&quot;);"/></svg>