<?xml version="1.0" standalone="no"?><!DOCTYPE svg PUBLIC "-//W3C//DTD SVG 1.1//EN" "http://www.w3.org/Graphics/SVG/1.1/DTD/svg11.dtd"><svg width="12" height="12" viewBox="0 0 12 12" version="1.1" xmlns="http://www.w3.org/2000/svg" xmlns:xlink="http://www.w3.org/1999/xlink"><path fill-rule="evenodd" fill="currentColor" d="M2.447 3.717l3.33-1.664a.5.5 0 0 1 .447 0l3.329 1.664a.25.25 0 0 1 0 .448l-3.33 1.664a.5.5 0 0 1-.447 0L2.447 4.165a.25.25 0 0 1 0-.448zM2 5.15a.25.25 0 0 1 .364-.223l2.963 1.512a.5.5 0 0 1 .273.445v3.185a.25.25 0 0 1-.358.226L2.284 8.877A.5.5 0 0 1 2 8.427V5.148zm8 0v3.277a.5.5 0 0 1-.284.451l-2.958 1.417a.25.25 0 0 1-.358-.226V6.883a.5.5 0 0 1 .273-.445l2.963-1.512A.25.25 0 0 1 10 5.15z"/></svg>