<?xml version="1.0" standalone="no"?><!DOCTYPE svg PUBLIC "-//W3C//DTD SVG 1.1//EN" "http://www.w3.org/Graphics/SVG/1.1/DTD/svg11.dtd"><svg width="16" height="16" viewBox="0 0 16 16" class="day" style="height:16px;margin-right:8px;width:16px;perspective-origin:8px 8px;transform-origin:8px 8px;shape-rendering:geometricprecision;" version="1.1" xmlns="http://www.w3.org/2000/svg" xmlns:xlink="http://www.w3.org/1999/xlink"><path fill-rule="evenodd" class="" fill="currentColor" d="M1 2.5C1 1.67 1.68 1 2.5 1h11c.83 0 1.5.68 1.5 1.5v11c0 .83-.68 1.5-1.5 1.5h-11c-.83 0-1.5-.68-1.5-1.5v-11zm2 0c0 .27.22.5.5.5h3c.28 0 .5-.22.5-.5 0-.27-.22-.5-.5-.5h-3c-.28 0-.5.22-.5.5zm6 0c0 .27.22.5.5.5h3c.28 0 .5-.22.5-.5 0-.27-.22-.5-.5-.5h-3c-.28 0-.5.22-.5.5zm-3.8 9.05c-.53 0-.87-.3-.87-.78v-.1c0-.1-.08-.2-.2-.2H3.2c-.1 0-.2.1-.2.2v.1c0 1.15.98 2.06 2.2 2.06 1.2 0 2.17-.9 2.17-2.06 0-.52-.23-1.06-.62-1.36-.05-.04-.05-.1 0-.16.3-.3.52-.76.52-1.23 0-1.1-.93-1.97-2.08-1.97-1.16 0-2.1.88-2.1 1.98v.15c0 .1.08.2.18.2h.95c.1 0 .2-.1.2-.2V8c0-.42.32-.7.76-.7s.75.28.75.7c0 .44-.3.72-.76.72h-.13c-.1 0-.2.1-.2.2v.88c0 .1.1.18.2.18h.12c.5 0 .84.3.84.8 0 .47-.34.77-.85.77zm5.5 1.25c0 .1.1.2.22.2h1.03c.1 0 .2-.1.2-.2V6.2c0-.1-.1-.2-.2-.2H10.8c-.27 0-.44.14-.53.24l-.85.96c-.15.15-.17.28-.17.44v.96c0 .2.23.28.35.16l.9-.84c.07-.06.2-.05.2.08v4.8z" style="display:inline;height:auto;min-height:0px;min-width:0px;overflow-x:visible;overflow-y:visible;width:auto;perspective-origin:0px 0px;transform-origin:0px 0px;fill:rgb(51, 51, 51);fill-rule:evenodd;shape-rendering:geometricprecision;d:path(&quot;M 1 2.5 C 1 1.67 1.68 1 2.5 1 H 13.5 C 14.33 1 15 1.68 15 2.5 V 13.5 C 15 14.33 14.32 15 13.5 15 H 2.5 C 1.67 15 1 14.32 1 13.5 V 2.5 Z M 3 2.5 C 3 2.77 3.22 3 3.5 3 H 6.5 C 6.78 3 7 2.78 7 2.5 C 7 2.23 6.78 2 6.5 2 H 3.5 C 3.22 2 3 2.22 3 2.5 Z M 9 2.5 C 9 2.77 9.22 3 9.5 3 H 12.5 C 12.78 3 13 2.78 13 2.5 C 13 2.23 12.78 2 12.5 2 H 9.5 C 9.22 2 9 2.22 9 2.5 Z M 5.2 11.55 C 4.67 11.55 4.33 11.25 4.33 10.77 V 10.67 C 4.33 10.57 4.25 10.47 4.13 10.47 H 3.2 C 3.1 10.47 3 10.57 3 10.67 V 10.77 C 3 11.92 3.98 12.83 5.2 12.83 C 6.4 12.83 7.37 11.93 7.37 10.77 C 7.37 10.25 7.14 9.71 6.75 9.41 C 6.7 9.37 6.7 9.31 6.75 9.25 C 7.05 8.95 7.27 8.49 7.27 8.02 C 7.27 6.92 6.34 6.05 5.19 6.05 C 4.03 6.05 3.09 6.93 3.09 8.03 V 8.18 C 3.09 8.28 3.17 8.38 3.27 8.38 H 4.22 C 4.32 8.38 4.42 8.28 4.42 8.18 V 8 C 4.42 7.58 4.74 7.3 5.18 7.3 S 5.93 7.58 5.93 8 C 5.93 8.44 5.63 8.72 5.17 8.72 H 5.04 C 4.94 8.72 4.84 8.82 4.84 8.92 V 9.8 C 4.84 9.9 4.94 9.98 5.04 9.98 H 5.16 C 5.66 9.98 6 10.28 6 10.78 C 6 11.25 5.66 11.55 5.15 11.55 Z M 10.7 12.8 C 10.7 12.9 10.8 13 10.92 13 H 11.95 C 12.05 13 12.15 12.9 12.15 12.8 V 6.2 C 12.15 6.1 12.05 6 11.95 6 H 10.8 C 10.53 6 10.36 6.14 10.27 6.24 L 9.42 7.2 C 9.27 7.35 9.25 7.48 9.25 7.64 V 8.6 C 9.25 8.8 9.48 8.88 9.6 8.76 L 10.5 7.92 C 10.57 7.86 10.7 7.87 10.7 8 V 12.8 Z&quot;);"/></svg>