<?xml version="1.0" standalone="no"?><!DOCTYPE svg PUBLIC "-//W3C//DTD SVG 1.1//EN" "http://www.w3.org/Graphics/SVG/1.1/DTD/svg11.dtd"><svg width="16" height="16" viewBox="0 0 16 16" version="1.1" xmlns="http://www.w3.org/2000/svg" xmlns:xlink="http://www.w3.org/1999/xlink"><path fill-rule="evenodd" fill="currentColor" d="M1 2.5C1 1.67 1.68 1 2.5 1h11c.83 0 1.5.68 1.5 1.5v11c0 .83-.68 1.5-1.5 1.5h-11c-.83 0-1.5-.68-1.5-1.5v-11zm2 0c0 .27.22.5.5.5h3c.28 0 .5-.22.5-.5 0-.27-.22-.5-.5-.5h-3c-.28 0-.5.22-.5.5zm6 0c0 .27.22.5.5.5h3c.28 0 .5-.22.5-.5 0-.27-.22-.5-.5-.5h-3c-.28 0-.5.22-.5.5zm-3.8 9.05c-.53 0-.87-.3-.87-.78v-.1c0-.1-.08-.2-.2-.2H3.2c-.1 0-.2.1-.2.2v.1c0 1.15.98 2.06 2.2 2.06 1.2 0 2.17-.9 2.17-2.06 0-.52-.23-1.06-.62-1.36-.05-.04-.05-.1 0-.16.3-.3.52-.76.52-1.23 0-1.1-.93-1.97-2.08-1.97-1.16 0-2.1.88-2.1 1.98v.15c0 .1.08.2.18.2h.95c.1 0 .2-.1.2-.2V8c0-.42.32-.7.76-.7s.75.28.75.7c0 .44-.3.72-.76.72h-.13c-.1 0-.2.1-.2.2v.88c0 .1.1.18.2.18h.12c.5 0 .84.3.84.8 0 .47-.34.77-.85.77zm5.5 1.25c0 .1.1.2.22.2h1.03c.1 0 .2-.1.2-.2V6.2c0-.1-.1-.2-.2-.2H10.8c-.27 0-.44.14-.53.24l-.85.96c-.15.15-.17.28-.17.44v.96c0 .2.23.28.35.16l.9-.84c.07-.06.2-.05.2.08v4.8z"/></svg>