<?xml version="1.0" standalone="no"?><!DOCTYPE svg PUBLIC "-//W3C//DTD SVG 1.1//EN" "http://www.w3.org/Graphics/SVG/1.1/DTD/svg11.dtd"><svg width="16" height="16" viewBox="0 0 16 16" class="dayAuto" style="height:16px;margin-right:8px;width:16px;perspective-origin:8px 8px;transform-origin:8px 8px;shape-rendering:geometricprecision;" version="1.1" xmlns="http://www.w3.org/2000/svg" xmlns:xlink="http://www.w3.org/1999/xlink"><path fill-rule="evenodd" class="" fill="currentColor" d="M14 7.937c-1.165.097-2.1.447-2.844.95V5.2c0-.11-.094-.2-.208-.2H9.792a.7.7 0 0 0-.521.24l-.854.964c-.146.15-.167.28-.167.44v.96c0 .2.23.28.354.16l.906-.844c.063-.06.198-.05.198.08v3.365c-.759 1.15-1.066 2.51-1.091 3.635H1.498A1.501 1.501 0 0 1 0 12.502V1.498C0 .671.675 0 1.498 0h11.004C13.329 0 14 .675 14 1.498v6.439zM2 1.5c0 .268.22.5.49.5h3.02c.275 0 .49-.224.49-.5a.5.5 0 0 0-.49-.5H2.49a.492.492 0 0 0-.49.5zm6 0c0 .268.22.5.49.5h3.02c.275 0 .49-.224.49-.5a.5.5 0 0 0-.49-.5H8.49a.492.492 0 0 0-.49.5zm-3.814 9.046c-.52 0-.853-.292-.853-.78V9.67a.193.193 0 0 0-.196-.188h-.94A.193.193 0 0 0 2 9.67v.094c0 1.158.98 2.061 2.186 2.061s2.186-.903 2.186-2.06c0-.519-.235-1.055-.617-1.356-.06-.047-.06-.113 0-.17.294-.31.52-.762.52-1.232 0-1.102-.932-1.977-2.089-1.977-1.147 0-2.098.875-2.098 1.977v.14c0 .104.088.189.196.189h.941a.193.193 0 0 0 .196-.188v-.141c0-.424.324-.697.765-.697.451 0 .765.273.765.697 0 .433-.314.715-.765.715H4.07a.193.193 0 0 0-.197.188v.885c0 .103.089.188.197.188h.117c.51 0 .853.292.853.781 0 .49-.343.781-.853.781zm9.279-.873v1.602c0 .274.227.497.507.497h.842c.28 0 .38.179.222.4L12.81 15.29c-.318.446-.582.369-.582-.181v-1.602a.502.502 0 0 0-.508-.497h-.842c-.28 0-.38-.18-.221-.4l2.227-3.118c.318-.446.582-.369.582.181z" style="display:inline;height:auto;min-height:0px;min-width:0px;overflow-x:visible;overflow-y:visible;width:auto;perspective-origin:0px 0px;transform-origin:0px 0px;fill:rgb(51, 51, 51);fill-rule:evenodd;shape-rendering:geometricprecision;d:path(&quot;M 14 7.937 C 12.835 8.034 11.9 8.384 11.156 8.887 V 5.2 C 11.156 5.09 11.062 5 10.948 5 H 9.792 A 0.7 0.7 0 0 0 9.271 5.24 L 8.417 6.204 C 8.271 6.354 8.25 6.484 8.25 6.644 V 7.604 C 8.25 7.804 8.48 7.884 8.604 7.764 L 9.51 6.92 C 9.573 6.86 9.708 6.87 9.708 7 V 10.365 C 8.949 11.515 8.642 12.875 8.617 14 H 1.498 A 1.501 1.501 0 0 1 0 12.502 V 1.498 C 0 0.671 0.675 0 1.498 0 H 12.502 C 13.329 0 14 0.675 14 1.498 V 7.937 Z M 2 1.5 C 2 1.768 2.22 2 2.49 2 H 5.51 C 5.785 2 6 1.776 6 1.5 A 0.5 0.5 0 0 0 5.51 1 H 2.49 A 0.492 0.492 0 0 0 2 1.5 Z M 8 1.5 C 8 1.768 8.22 2 8.49 2 H 11.51 C 11.785 2 12 1.776 12 1.5 A 0.5 0.5 0 0 0 11.51 1 H 8.49 A 0.492 0.492 0 0 0 8 1.5 Z M 4.186 10.546 C 3.666 10.546 3.333 10.254 3.333 9.766 V 9.67 A 0.193 0.193 0 0 0 3.137 9.482 H 2.197 A 0.193 0.193 0 0 0 2 9.67 V 9.764 C 2 10.922 2.98 11.825 4.186 11.825 S 6.372 10.922 6.372 9.765 C 6.372 9.246 6.137 8.71 5.755 8.409 C 5.695 8.362 5.695 8.296 5.755 8.239 C 6.049 7.929 6.275 7.477 6.275 7.007 C 6.275 5.905 5.343 5.03 4.186 5.03 C 3.039 5.03 2.088 5.905 2.088 7.007 V 7.147 C 2.088 7.251 2.176 7.336 2.284 7.336 H 3.225 A 0.193 0.193 0 0 0 3.421 7.148 V 7.007 C 3.421 6.583 3.745 6.31 4.186 6.31 C 4.637 6.31 4.951 6.583 4.951 7.007 C 4.951 7.44 4.637 7.722 4.186 7.722 H 4.07 A 0.193 0.193 0 0 0 3.873 7.91 V 8.795 C 3.873 8.898 3.962 8.983 4.07 8.983 H 4.187 C 4.697 8.983 5.04 9.275 5.04 9.764 C 5.04 10.254 4.697 10.545 4.187 10.545 Z M 13.465 9.673 V 11.275 C 13.465 11.549 13.692 11.772 13.972 11.772 H 14.814 C 15.094 11.772 15.194 11.951 15.036 12.172 L 12.81 15.29 C 12.492 15.736 12.228 15.659 12.228 15.109 V 13.507 A 0.502 0.502 0 0 0 11.72 13.01 H 10.878 C 10.598 13.01 10.498 12.83 10.657 12.61 L 12.884 9.492 C 13.202 9.046 13.466 9.123 13.466 9.673 Z&quot;);"/></svg>