<?xml version="1.0" standalone="no"?><!DOCTYPE svg PUBLIC "-//W3C//DTD SVG 1.1//EN" "http://www.w3.org/Graphics/SVG/1.1/DTD/svg11.dtd"><svg width="12" height="12" viewBox="0 0 12 12" class="dayAutoMicro" style="height:12px;margin-right:16px;width:12px;perspective-origin:6px 6px;transform-origin:6px 6px;shape-rendering:geometricprecision;" version="1.1" xmlns="http://www.w3.org/2000/svg" xmlns:xlink="http://www.w3.org/1999/xlink"><path fill-rule="evenodd" class="" fill="currentColor" d="M10 4.93a4.886 4.886 0 0 0-1.675.494V3.17A.17.17 0 0 0 8.158 3h-.925a.547.547 0 0 0-.416.206l-.684.826A.492.492 0 0 0 6 4.409v.823c0 .171.183.24.283.137l.725-.723c.05-.052.159-.043.159.068v1.57c-1 1.032-1.444 2.47-1.499 3.716h-4.17A1.498 1.498 0 0 1 0 8.503V1.497C0 .67.672 0 1.497 0h7.006C9.33 0 10 .672 10 1.497V4.93zM1 1.5c0 .268.222.5.495.5h2.01C3.785 2 4 1.776 4 1.5c0-.268-.222-.5-.495-.5h-2.01A.494.494 0 0 0 1 1.5zm5 0c0 .268.222.5.495.5h2.01C8.785 2 9 1.776 9 1.5c0-.268-.222-.5-.495-.5h-2.01A.494.494 0 0 0 6 1.5zM2.749 7.754c-.416 0-.682-.25-.682-.67v-.08a.16.16 0 0 0-.157-.162h-.753A.16.16 0 0 0 1 7.004v.08a1.748 1.748 0 1 0 3.498 0c0-.443-.188-.903-.494-1.161-.047-.04-.047-.097 0-.145.235-.267.415-.654.415-1.057 0-.944-.745-1.694-1.67-1.694-.918 0-1.678.75-1.678 1.694v.12c0 .09.07.162.156.162h.753a.16.16 0 0 0 .157-.161V4.72c0-.363.259-.597.612-.597.36 0 .612.234.612.597 0 .37-.251.613-.612.613h-.094a.16.16 0 0 0-.157.161v.758c0 .09.07.162.157.162h.094c.408 0 .682.25.682.67 0 .419-.274.669-.682.669zm6.779-1.032v1.133c0 .283.224.508.5.508h.582c.28 0 .37.184.208.41l-1.76 2.464c-.323.453-.586.374-.586-.177V9.927a.503.503 0 0 0-.5-.508H7.39c-.28 0-.37-.184-.208-.41l1.76-2.465c.323-.452.586-.373.586.178z" style="display:inline;height:auto;min-height:0px;min-width:0px;overflow-x:visible;overflow-y:visible;width:auto;perspective-origin:0px 0px;transform-origin:0px 0px;fill:rgb(51, 51, 51);fill-rule:evenodd;shape-rendering:geometricprecision;d:path(&quot;M 10 4.93 A 4.886 4.886 0 0 0 8.325 5.424 V 3.17 A 0.17 0.17 0 0 0 8.158 3 H 7.233 A 0.547 0.547 0 0 0 6.817 3.206 L 6.133 4.032 A 0.492 0.492 0 0 0 6 4.409 V 5.232 C 6 5.403 6.183 5.472 6.283 5.369 L 7.008 4.646 C 7.058 4.594 7.167 4.603 7.167 4.714 V 6.284 C 6.167 7.316 5.723 8.754 5.668 10 H 1.498 A 1.498 1.498 0 0 1 0 8.503 V 1.497 C 0 0.67 0.672 0 1.497 0 H 8.503 C 9.33 0 10 0.672 10 1.497 V 4.93 Z M 1 1.5 C 1 1.768 1.222 2 1.495 2 H 3.505 C 3.785 2 4 1.776 4 1.5 C 4 1.232 3.778 1 3.505 1 H 1.495 A 0.494 0.494 0 0 0 1 1.5 Z M 6 1.5 C 6 1.768 6.222 2 6.495 2 H 8.505 C 8.785 2 9 1.776 9 1.5 C 9 1.232 8.778 1 8.505 1 H 6.495 A 0.494 0.494 0 0 0 6 1.5 Z M 2.749 7.754 C 2.333 7.754 2.067 7.504 2.067 7.084 V 7.004 A 0.16 0.16 0 0 0 1.91 6.842 H 1.157 A 0.16 0.16 0 0 0 1 7.004 V 7.084 A 1.748 1.748 0 1 0 4.498 7.084 C 4.498 6.641 4.31 6.181 4.004 5.923 C 3.957 5.883 3.957 5.826 4.004 5.778 C 4.239 5.511 4.419 5.124 4.419 4.721 C 4.419 3.777 3.674 3.027 2.749 3.027 C 1.831 3.027 1.071 3.777 1.071 4.721 V 4.841 C 1.071 4.931 1.141 5.003 1.227 5.003 H 1.98 A 0.16 0.16 0 0 0 2.137 4.842 V 4.72 C 2.137 4.357 2.396 4.123 2.749 4.123 C 3.109 4.123 3.361 4.357 3.361 4.72 C 3.361 5.09 3.11 5.333 2.749 5.333 H 2.655 A 0.16 0.16 0 0 0 2.498 5.494 V 6.252 C 2.498 6.342 2.568 6.414 2.655 6.414 H 2.749 C 3.157 6.414 3.431 6.664 3.431 7.084 C 3.431 7.503 3.157 7.753 2.749 7.753 Z M 9.528 6.722 V 7.855 C 9.528 8.138 9.752 8.363 10.028 8.363 H 10.61 C 10.89 8.363 10.98 8.547 10.818 8.773 L 9.058 11.237 C 8.735 11.69 8.472 11.611 8.472 11.06 V 9.927 A 0.503 0.503 0 0 0 7.972 9.419 H 7.39 C 7.11 9.419 7.02 9.235 7.182 9.009 L 8.942 6.544 C 9.265 6.092 9.528 6.171 9.528 6.722 Z&quot;);"/></svg>