<?xml version="1.0" standalone="no"?><!DOCTYPE svg PUBLIC "-//W3C//DTD SVG 1.1//EN" "http://www.w3.org/Graphics/SVG/1.1/DTD/svg11.dtd"><svg width="16" height="16" viewBox="0 0 16 16" version="1.1" xmlns="http://www.w3.org/2000/svg" xmlns:xlink="http://www.w3.org/1999/xlink"><path fill-rule="evenodd" fill="currentColor" d="M14 7.937c-1.165.097-2.1.447-2.844.95V5.2c0-.11-.094-.2-.208-.2H9.792a.7.7 0 0 0-.521.24l-.854.964c-.146.15-.167.28-.167.44v.96c0 .2.23.28.354.16l.906-.844c.063-.06.198-.05.198.08v3.365c-.759 1.15-1.066 2.51-1.091 3.635H1.498A1.501 1.501 0 0 1 0 12.502V1.498C0 .671.675 0 1.498 0h11.004C13.329 0 14 .675 14 1.498v6.439zM2 1.5c0 .268.22.5.49.5h3.02c.275 0 .49-.224.49-.5a.5.5 0 0 0-.49-.5H2.49a.492.492 0 0 0-.49.5zm6 0c0 .268.22.5.49.5h3.02c.275 0 .49-.224.49-.5a.5.5 0 0 0-.49-.5H8.49a.492.492 0 0 0-.49.5zm-3.814 9.046c-.52 0-.853-.292-.853-.78V9.67a.193.193 0 0 0-.196-.188h-.94A.193.193 0 0 0 2 9.67v.094c0 1.158.98 2.061 2.186 2.061s2.186-.903 2.186-2.06c0-.519-.235-1.055-.617-1.356-.06-.047-.06-.113 0-.17.294-.31.52-.762.52-1.232 0-1.102-.932-1.977-2.089-1.977-1.147 0-2.098.875-2.098 1.977v.14c0 .104.088.189.196.189h.941a.193.193 0 0 0 .196-.188v-.141c0-.424.324-.697.765-.697.451 0 .765.273.765.697 0 .433-.314.715-.765.715H4.07a.193.193 0 0 0-.197.188v.885c0 .103.089.188.197.188h.117c.51 0 .853.292.853.781 0 .49-.343.781-.853.781zm9.279-.873v1.602c0 .274.227.497.507.497h.842c.28 0 .38.179.222.4L12.81 15.29c-.318.446-.582.369-.582-.181v-1.602a.502.502 0 0 0-.508-.497h-.842c-.28 0-.38-.18-.221-.4l2.227-3.118c.318-.446.582-.369.582.181z"/></svg>