<?xml version="1.0" standalone="no"?><!DOCTYPE svg PUBLIC "-//W3C//DTD SVG 1.1//EN" "http://www.w3.org/Graphics/SVG/1.1/DTD/svg11.dtd"><svg width="12" height="12" viewBox="0 0 12 12" version="1.1" xmlns="http://www.w3.org/2000/svg" xmlns:xlink="http://www.w3.org/1999/xlink"><path fill-rule="evenodd" fill="currentColor" d="M10 4.93a4.886 4.886 0 0 0-1.675.494V3.17A.17.17 0 0 0 8.158 3h-.925a.547.547 0 0 0-.416.206l-.684.826A.492.492 0 0 0 6 4.409v.823c0 .171.183.24.283.137l.725-.723c.05-.052.159-.043.159.068v1.57c-1 1.032-1.444 2.47-1.499 3.716h-4.17A1.498 1.498 0 0 1 0 8.503V1.497C0 .67.672 0 1.497 0h7.006C9.33 0 10 .672 10 1.497V4.93zM1 1.5c0 .268.222.5.495.5h2.01C3.785 2 4 1.776 4 1.5c0-.268-.222-.5-.495-.5h-2.01A.494.494 0 0 0 1 1.5zm5 0c0 .268.222.5.495.5h2.01C8.785 2 9 1.776 9 1.5c0-.268-.222-.5-.495-.5h-2.01A.494.494 0 0 0 6 1.5zM2.749 7.754c-.416 0-.682-.25-.682-.67v-.08a.16.16 0 0 0-.157-.162h-.753A.16.16 0 0 0 1 7.004v.08a1.748 1.748 0 1 0 3.498 0c0-.443-.188-.903-.494-1.161-.047-.04-.047-.097 0-.145.235-.267.415-.654.415-1.057 0-.944-.745-1.694-1.67-1.694-.918 0-1.678.75-1.678 1.694v.12c0 .09.07.162.156.162h.753a.16.16 0 0 0 .157-.161V4.72c0-.363.259-.597.612-.597.36 0 .612.234.612.597 0 .37-.251.613-.612.613h-.094a.16.16 0 0 0-.157.161v.758c0 .09.07.162.157.162h.094c.408 0 .682.25.682.67 0 .419-.274.669-.682.669zm6.779-1.032v1.133c0 .283.224.508.5.508h.582c.28 0 .37.184.208.41l-1.76 2.464c-.323.453-.586.374-.586-.177V9.927a.503.503 0 0 0-.5-.508H7.39c-.28 0-.37-.184-.208-.41l1.76-2.465c.323-.452.586-.373.586.178z"/></svg>