<?xml version="1.0" standalone="no"?><!DOCTYPE svg PUBLIC "-//W3C//DTD SVG 1.1//EN" "http://www.w3.org/Graphics/SVG/1.1/DTD/svg11.dtd"><svg width="12" height="12" viewBox="0 0 12 12" version="1.1" xmlns="http://www.w3.org/2000/svg" xmlns:xlink="http://www.w3.org/1999/xlink"><path fill-rule="evenodd" fill="currentColor" d="M1,2.49710104 C1,1.67027497 1.67165598,1 2.49710104,1 L9.50289896,1 C10.329725,1 11,1.67165598 11,2.49710104 L11,9.50289896 C11,10.329725 10.328344,11 9.50289896,11 L2.49710104,11 C1.67027497,11 1,10.328344 1,9.50289896 L1,2.49710104 Z M2,2.5 C2,2.76806641 2.2217932,3 2.49538898,3 L4.50461102,3 C4.7842474,3 5,2.77614237 5,2.5 C5,2.23193359 4.7782068,2 4.50461102,2 L2.49538898,2 C2.2157526,2 2,2.22385763 2,2.5 Z M7,2.5 C7,2.76806641 7.2217932,3 7.49538898,3 L9.50461102,3 C9.7842474,3 10,2.77614237 10,2.5 C10,2.23193359 9.7782068,2 9.50461102,2 L7.49538898,2 C7.2157526,2 7,2.22385763 7,2.5 Z M8.16664291,9.82857143 C8.16664291,9.92285714 8.24164291,10 8.33330957,10 L9.15830957,10 C9.24997624,10 9.32497624,9.92285714 9.32497624,9.82857143 L9.32497624,4.17142857 C9.32497624,4.07714286 9.24997624,4 9.15830957,4 L8.23330957,4 C8.02497624,4 7.89164291,4.12 7.81664291,4.20571429 L7.13333333,5.03169907 C7.01666667,5.1602705 7,5.27169907 7,5.40884193 L7,6.23169907 C7,6.40312764 7.18333333,6.47169907 7.28333333,6.36884193 L8.00830957,5.64571429 C8.05830957,5.59428571 8.16664291,5.60285714 8.16664291,5.71428571 L8.16664291,9.82857143 Z M3.74892348,8.75390407 C3.33326005,8.75390407 3.06660804,8.50383378 3.06660804,8.08436104 L3.06660804,8.00369321 C3.06660804,7.91495859 2.99602369,7.84235754 2.90975392,7.84235754 L2.15685412,7.84235754 C2.07058436,7.84235754 2,7.91495859 2,8.00369321 L2,8.08436104 C2,9.07657541 2.78427062,9.85098663 3.74892348,9.85098663 C4.71357634,9.85098663 5.49784696,9.07657541 5.49784696,8.08436104 C5.49784696,7.64068795 5.30962201,7.18088129 5.00375647,6.92274422 C4.95670023,6.8824103 4.95670023,6.82594281 5.00375647,6.77754211 C5.23903766,6.51133826 5.4194199,6.12413265 5.4194199,5.72079347 C5.4194199,4.7769798 4.67436281,4.02676894 3.74892348,4.02676894 C2.83132686,4.02676894 2.07058436,4.7769798 2.07058436,5.72079347 L2.07058436,5.84179523 C2.07058436,5.93052985 2.14116871,6.0031309 2.22743848,6.0031309 L2.98033827,6.0031309 C3.06660804,6.0031309 3.1371924,5.93052985 3.1371924,5.84179523 L3.1371924,5.72079347 C3.1371924,5.35778822 3.3960017,5.12385149 3.74892348,5.12385149 C4.10968797,5.12385149 4.36065456,5.35778822 4.36065456,5.72079347 C4.36065456,6.09186552 4.10968797,6.33386902 3.74892348,6.33386902 L3.65481101,6.33386902 C3.56854124,6.33386902 3.49795688,6.40647007 3.49795688,6.49520469 L3.49795688,7.25348234 C3.49795688,7.34221696 3.56854124,7.41481801 3.65481101,7.41481801 L3.74892348,7.41481801 C4.1567442,7.41481801 4.43123892,7.6648883 4.43123892,8.08436104 C4.43123892,8.50383378 4.1567442,8.75390407 3.74892348,8.75390407 Z"/></svg>