<?xml version="1.0" standalone="no"?><!DOCTYPE svg PUBLIC "-//W3C//DTD SVG 1.1//EN" "http://www.w3.org/Graphics/SVG/1.1/DTD/svg11.dtd"><svg width="12" height="12" viewBox="0 0 12 12" class="descendingMicro" style="height:12px;margin-right:16px;width:12px;perspective-origin:6px 6px;transform-origin:6px 6px;shape-rendering:geometricprecision;" version="1.1" xmlns="http://www.w3.org/2000/svg" xmlns:xlink="http://www.w3.org/1999/xlink"><path fill-rule="evenodd" class="" fill="currentColor" d="M1,9.5 C1,9.22385763 1.21403503,9 1.50468445,9 L2.49531555,9 C2.77404508,9 3,9.23193359 3,9.5 C3,9.77614237 2.78596497,10 2.49531555,10 L1.50468445,10 C1.22595492,10 1,9.76806641 1,9.5 Z M1,7.5 C1,7.22385763 1.2157526,7 1.49538898,7 L3.50461102,7 C3.7782068,7 4,7.23193359 4,7.5 C4,7.77614237 3.7842474,8 3.50461102,8 L1.49538898,8 C1.2217932,8 1,7.76806641 1,7.5 Z M1,5.5 C1,5.22385763 1.21505737,5 1.49047852,5 L4.50952148,5 C4.78040529,5 5,5.23193359 5,5.5 C5,5.77614237 4.78494263,6 4.50952148,6 L1.49047852,6 C1.21959471,6 1,5.76806641 1,5.5 Z M1,3.5 C1,3.22385763 1.23290253,3 1.50342274,3 L7.49657726,3 C7.77460996,3 8,3.23193359 8,3.5 C8,3.77614237 7.76709747,4 7.49657726,4 L1.50342274,4 C1.22539004,4 1,3.76806641 1,3.5 Z M1,1.5 C1,1.22385763 1.22765279,1 1.50964952,1 L10.4903505,1 C10.7718221,1 11,1.23193359 11,1.5 C11,1.77614237 10.7723472,2 10.4903505,2 L1.50964952,2 C1.22817786,2 1,1.76806641 1,1.5 Z" style="display:inline;height:auto;min-height:0px;min-width:0px;overflow-x:visible;overflow-y:visible;width:auto;perspective-origin:0px 0px;transform-origin:0px 0px;fill:rgb(51, 51, 51);fill-rule:evenodd;shape-rendering:geometricprecision;d:path(&quot;M 1 9.5 C 1 9.22386 1.21404 9 1.50468 9 L 2.49532 9 C 2.77404 9 3 9.23193 3 9.5 C 3 9.77614 2.78596 10 2.49532 10 L 1.50468 10 C 1.22595 10 1 9.76807 1 9.5 Z M 1 7.5 C 1 7.22386 1.21575 7 1.49539 7 L 3.50461 7 C 3.77821 7 4 7.23193 4 7.5 C 4 7.77614 3.78425 8 3.50461 8 L 1.49539 8 C 1.22179 8 1 7.76807 1 7.5 Z M 1 5.5 C 1 5.22386 1.21506 5 1.49048 5 L 4.50952 5 C 4.78041 5 5 5.23193 5 5.5 C 5 5.77614 4.78494 6 4.50952 6 L 1.49048 6 C 1.21959 6 1 5.76807 1 5.5 Z M 1 3.5 C 1 3.22386 1.2329 3 1.50342 3 L 7.49658 3 C 7.77461 3 8 3.23193 8 3.5 C 8 3.77614 7.7671 4 7.49658 4 L 1.50342 4 C 1.22539 4 1 3.76807 1 3.5 Z M 1 1.5 C 1 1.22386 1.22765 1 1.50965 1 L 10.4904 1 C 10.7718 1 11 1.23193 11 1.5 C 11 1.77614 10.7723 2 10.4904 2 L 1.50965 2 C 1.22818 2 1 1.76807 1 1.5 Z&quot;);"/></svg>