<?xml version="1.0" standalone="no"?><!DOCTYPE svg PUBLIC "-//W3C//DTD SVG 1.1//EN" "http://www.w3.org/Graphics/SVG/1.1/DTD/svg11.dtd"><svg width="16" height="16" viewBox="0 0 16 16" class="descending" style="height:16px;margin-right:8px;width:16px;perspective-origin:8px 8px;transform-origin:8px 8px;shape-rendering:geometricprecision;" version="1.1" xmlns="http://www.w3.org/2000/svg" xmlns:xlink="http://www.w3.org/1999/xlink"><path fill-rule="evenodd" class="" fill="currentColor" d="M1.94 1h12.12c.506 0 .94.424.94.948a.942.942 0 0 1-.94.948H1.94A.953.953 0 0 1 1 1.948C1 1.421 1.421 1 1.94 1zm.017 3h9.086c.54 0 .957.424.957.948a.95.95 0 0 1-.957.948H1.957A.946.946 0 0 1 1 4.948.95.95 0 0 1 1.957 4zm-.008 3.104h6.102c.519 0 .949.424.949.948A.946.946 0 0 1 8.05 9h-6.1A.952.952 0 0 1 1 8.052c0-.528.425-.948.95-.948zM1.951 10h4.098a.947.947 0 1 1 0 1.896H1.951a.947.947 0 1 1 0-1.896zm-.003 3.104h2.104a.95.95 0 0 1 .948.948.946.946 0 0 1-.948.948H1.948A.95.95 0 0 1 1 14.052c0-.527.424-.948.948-.948zM14 12h1a.5.5 0 0 1 .416.777l-1.341 1.906c-.317.45-.832.451-1.15 0l-1.341-1.906A.5.5 0 0 1 12 12h1V8.5c0-.275.225-.5.5-.5s.5.225.5.5V12z" style="display:inline;height:auto;min-height:0px;min-width:0px;overflow-x:visible;overflow-y:visible;width:auto;perspective-origin:0px 0px;transform-origin:0px 0px;fill:rgb(51, 51, 51);fill-rule:evenodd;shape-rendering:geometricprecision;d:path(&quot;M 1.94 1 H 14.06 C 14.566 1 15 1.424 15 1.948 A 0.942 0.942 0 0 1 14.06 2.896 H 1.94 A 0.953 0.953 0 0 1 1 1.948 C 1 1.421 1.421 1 1.94 1 Z M 1.957 4 H 11.043 C 11.583 4 12 4.424 12 4.948 A 0.95 0.95 0 0 1 11.043 5.896 H 1.957 A 0.946 0.946 0 0 1 1 4.948 A 0.95 0.95 0 0 1 1.957 4 Z M 1.949 7.104 H 8.051 C 8.57 7.104 9 7.528 9 8.052 A 0.946 0.946 0 0 1 8.05 9 H 1.95 A 0.952 0.952 0 0 1 1 8.052 C 1 7.524 1.425 7.104 1.95 7.104 Z M 1.951 10 H 6.049 A 0.947 0.947 0 1 1 6.049 11.896 H 1.951 A 0.947 0.947 0 1 1 1.951 10 Z M 1.948 13.104 H 4.052 A 0.95 0.95 0 0 1 5 14.052 A 0.946 0.946 0 0 1 4.052 15 H 1.948 A 0.95 0.95 0 0 1 1 14.052 C 1 13.525 1.424 13.104 1.948 13.104 Z M 14 12 H 15 A 0.5 0.5 0 0 1 15.416 12.777 L 14.075 14.683 C 13.758 15.133 13.243 15.134 12.925 14.683 L 11.584 12.777 A 0.5 0.5 0 0 1 12 12 H 13 V 8.5 C 13 8.225 13.225 8 13.5 8 S 14 8.225 14 8.5 V 12 Z&quot;);"/></svg>