<?xml version="1.0" standalone="no"?><!DOCTYPE svg PUBLIC "-//W3C//DTD SVG 1.1//EN" "http://www.w3.org/Graphics/SVG/1.1/DTD/svg11.dtd"><svg width="12" height="12" viewBox="0 0 12 12" version="1.1" xmlns="http://www.w3.org/2000/svg" xmlns:xlink="http://www.w3.org/1999/xlink"><path fill-rule="evenodd" fill="currentColor" d="M1,9.5 C1,9.22385763 1.21403503,9 1.50468445,9 L2.49531555,9 C2.77404508,9 3,9.23193359 3,9.5 C3,9.77614237 2.78596497,10 2.49531555,10 L1.50468445,10 C1.22595492,10 1,9.76806641 1,9.5 Z M1,7.5 C1,7.22385763 1.2157526,7 1.49538898,7 L3.50461102,7 C3.7782068,7 4,7.23193359 4,7.5 C4,7.77614237 3.7842474,8 3.50461102,8 L1.49538898,8 C1.2217932,8 1,7.76806641 1,7.5 Z M1,5.5 C1,5.22385763 1.21505737,5 1.49047852,5 L4.50952148,5 C4.78040529,5 5,5.23193359 5,5.5 C5,5.77614237 4.78494263,6 4.50952148,6 L1.49047852,6 C1.21959471,6 1,5.76806641 1,5.5 Z M1,3.5 C1,3.22385763 1.23290253,3 1.50342274,3 L7.49657726,3 C7.77460996,3 8,3.23193359 8,3.5 C8,3.77614237 7.76709747,4 7.49657726,4 L1.50342274,4 C1.22539004,4 1,3.76806641 1,3.5 Z M1,1.5 C1,1.22385763 1.22765279,1 1.50964952,1 L10.4903505,1 C10.7718221,1 11,1.23193359 11,1.5 C11,1.77614237 10.7723472,2 10.4903505,2 L1.50964952,2 C1.22817786,2 1,1.76806641 1,1.5 Z"/></svg>