<?xml version="1.0" standalone="no"?><!DOCTYPE svg PUBLIC "-//W3C//DTD SVG 1.1//EN" "http://www.w3.org/Graphics/SVG/1.1/DTD/svg11.dtd"><svg width="16" height="16" viewBox="0 0 16 16" class="dollar" style="height:16px;margin-right:8px;width:16px;perspective-origin:8px 8px;transform-origin:8px 8px;shape-rendering:geometricprecision;" version="1.1" xmlns="http://www.w3.org/2000/svg" xmlns:xlink="http://www.w3.org/1999/xlink"><path fill-rule="evenodd" class="" fill="currentColor" d="M12.389 2.079a1 1 0 0 1 .446.404A.967.967 0 0 1 13 3v1c0 .55-.45 1-1 1s-.95-1-1.5-1a.504.504 0 0 1-.5-.504v-.99c0-.291.226-.505.505-.505H12c.137 0 .268.029.389.079zM10 8.707V7.642c0-.28.204-.412.456-.303 0 0 2.544.87 2.544 3.217 0 2.359-2.531 3.145-2.531 3.145-.253.11-.469-.038-.469-.32v-1c0-.293.182-.634.407-.789 0 0 .593-.245.593-1.036 0-.761-.593-1.046-.593-1.046-.214-.172-.407-.526-.407-.802zM8 1c.556 0 1 .444 1 .99V14c0 .547-.448 1-1 1-.556 0-1-.448-1-1H4a.997.997 0 0 1-.706-.294A.993.993 0 0 1 3 13v-1c0-.55.45-1 1-1s1 1 2 1h1V9s-.427-.005-1-.128C4.815 8.617 3 7.845 3 5.5c0-2.36 1.815-3.126 3-3.377C6.573 2.003 7 2 7 2v-.003C7 1.453 7.448 1 8 1zM5 5.5c0 .76.5 1.135 1 1.32.5.185.999.18 1 .18V4c-.001 0-.5-.02-1 .156-.5.177-1 .552-1 1.344z" style="display:inline;height:auto;min-height:0px;min-width:0px;overflow-x:visible;overflow-y:visible;width:auto;perspective-origin:0px 0px;transform-origin:0px 0px;fill:rgb(51, 51, 51);fill-rule:evenodd;shape-rendering:geometricprecision;d:path(&quot;M 12.389 2.079 A 1 1 0 0 1 12.835 2.483 A 0.967 0.967 0 0 1 13 3 V 4 C 13 4.55 12.55 5 12 5 S 11.05 4 10.5 4 A 0.504 0.504 0 0 1 10 3.496 V 2.506 C 10 2.215 10.226 2.001 10.505 2.001 H 12 C 12.137 2.001 12.268 2.03 12.389 2.08 Z M 10 8.707 V 7.642 C 10 7.362 10.204 7.23 10.456 7.339 C 10.456 7.339 13 8.209 13 10.556 C 13 12.915 10.469 13.701 10.469 13.701 C 10.216 13.811 10 13.663 10 13.381 V 12.381 C 10 12.088 10.182 11.747 10.407 11.592 C 10.407 11.592 11 11.347 11 10.556 C 11 9.795 10.407 9.51 10.407 9.51 C 10.193 9.338 10 8.984 10 8.708 Z M 8 1 C 8.556 1 9 1.444 9 1.99 V 14 C 9 14.547 8.552 15 8 15 C 7.444 15 7 14.552 7 14 H 4 A 0.997 0.997 0 0 1 3.294 13.706 A 0.993 0.993 0 0 1 3 13 V 12 C 3 11.45 3.45 11 4 11 S 5 12 6 12 H 7 V 9 S 6.573 8.995 6 8.872 C 4.815 8.617 3 7.845 3 5.5 C 3 3.14 4.815 2.374 6 2.123 C 6.573 2.003 7 2 7 2 V 1.997 C 7 1.453 7.448 1 8 1 Z M 5 5.5 C 5 6.26 5.5 6.635 6 6.82 C 6.5 7.005 6.999 7 7 7 V 4 C 6.999 4 6.5 3.98 6 4.156 C 5.5 4.333 5 4.708 5 5.5 Z&quot;);"/></svg>