<?xml version="1.0" standalone="no"?><!DOCTYPE svg PUBLIC "-//W3C//DTD SVG 1.1//EN" "http://www.w3.org/Graphics/SVG/1.1/DTD/svg11.dtd"><svg width="16" height="16" viewBox="0 0 16 16" version="1.1" xmlns="http://www.w3.org/2000/svg" xmlns:xlink="http://www.w3.org/1999/xlink"><path fill-rule="evenodd" fill="currentColor" d="M12.389 2.079a1 1 0 0 1 .446.404A.967.967 0 0 1 13 3v1c0 .55-.45 1-1 1s-.95-1-1.5-1a.504.504 0 0 1-.5-.504v-.99c0-.291.226-.505.505-.505H12c.137 0 .268.029.389.079zM10 8.707V7.642c0-.28.204-.412.456-.303 0 0 2.544.87 2.544 3.217 0 2.359-2.531 3.145-2.531 3.145-.253.11-.469-.038-.469-.32v-1c0-.293.182-.634.407-.789 0 0 .593-.245.593-1.036 0-.761-.593-1.046-.593-1.046-.214-.172-.407-.526-.407-.802zM8 1c.556 0 1 .444 1 .99V14c0 .547-.448 1-1 1-.556 0-1-.448-1-1H4a.997.997 0 0 1-.706-.294A.993.993 0 0 1 3 13v-1c0-.55.45-1 1-1s1 1 2 1h1V9s-.427-.005-1-.128C4.815 8.617 3 7.845 3 5.5c0-2.36 1.815-3.126 3-3.377C6.573 2.003 7 2 7 2v-.003C7 1.453 7.448 1 8 1zM5 5.5c0 .76.5 1.135 1 1.32.5.185.999.18 1 .18V4c-.001 0-.5-.02-1 .156-.5.177-1 .552-1 1.344z"/></svg>