<?xml version="1.0" standalone="no"?><!DOCTYPE svg PUBLIC "-//W3C//DTD SVG 1.1//EN" "http://www.w3.org/Graphics/SVG/1.1/DTD/svg11.dtd"><svg width="12" height="12" viewBox="0 0 12 12" class="dollarMicro" style="height:12px;margin-right:16px;width:12px;perspective-origin:6px 6px;transform-origin:6px 6px;shape-rendering:geometricprecision;" version="1.1" xmlns="http://www.w3.org/2000/svg" xmlns:xlink="http://www.w3.org/1999/xlink"><path fill-rule="evenodd" class="" fill="currentColor" d="M4,5 C4,3.969 4.999,4 5,4 L5,6 C4.999,6 4,6 4,5 M5,2.5 C5,2.225 5.225,2 5.5,2 C5.775,2 6,2.225 6,2.5 L6,3 L6,4 L6,6 L6,7 L6,9 L6,10 L6,10.5 C6,10.775 5.775,11 5.5,11 C5.225,11 5,10.775 5,10.5 L5,10 L3.5,10 C3.225,10 3,9.775 3,9.5 L3,8.5 C3,8.225 3.225,8 3.5,8 C3.775,8 4,8.225 4,8.5 L4,9 L5,9 L5,7 C5,7 3,6.969 3,5 C3,3 5,3 5,3 L5,2.5 Z M7,6 C7,6 9,6.031 9,8 C9,10 7,10 7,10 L7,9 C7.001,9 8,9.031 8,8 C8,7 7.001,7 7,7 L7,6 Z M8.9606,3.3058 C8.9856,3.3658 8.9996,3.4308 8.9996,3.4998 L8.9996,4.4998 C8.9996,4.7748 8.7746,4.9998 8.4996,4.9998 C8.2246,4.9998 7.9996,4.7748 7.9996,4.4998 L7.9996,3.9998 L6.9996,3.9998 L6.9996,2.9998 L8.4996,2.9998 C8.5686,2.9998 8.6346,3.0138 8.6946,3.0398 C8.8136,3.0898 8.9096,3.1858 8.9606,3.3058 Z" style="display:inline;height:auto;min-height:0px;min-width:0px;overflow-x:visible;overflow-y:visible;width:auto;perspective-origin:0px 0px;transform-origin:0px 0px;fill:rgb(51, 51, 51);fill-rule:evenodd;shape-rendering:geometricprecision;d:path(&quot;M 4 5 C 4 3.969 4.999 4 5 4 L 5 6 C 4.999 6 4 6 4 5 M 5 2.5 C 5 2.225 5.225 2 5.5 2 C 5.775 2 6 2.225 6 2.5 L 6 3 L 6 4 L 6 6 L 6 7 L 6 9 L 6 10 L 6 10.5 C 6 10.775 5.775 11 5.5 11 C 5.225 11 5 10.775 5 10.5 L 5 10 L 3.5 10 C 3.225 10 3 9.775 3 9.5 L 3 8.5 C 3 8.225 3.225 8 3.5 8 C 3.775 8 4 8.225 4 8.5 L 4 9 L 5 9 L 5 7 C 5 7 3 6.969 3 5 C 3 3 5 3 5 3 L 5 2.5 Z M 7 6 C 7 6 9 6.031 9 8 C 9 10 7 10 7 10 L 7 9 C 7.001 9 8 9.031 8 8 C 8 7 7.001 7 7 7 L 7 6 Z M 8.9606 3.3058 C 8.9856 3.3658 8.9996 3.4308 8.9996 3.4998 L 8.9996 4.4998 C 8.9996 4.7748 8.7746 4.9998 8.4996 4.9998 C 8.2246 4.9998 7.9996 4.7748 7.9996 4.4998 L 7.9996 3.9998 L 6.9996 3.9998 L 6.9996 2.9998 L 8.4996 2.9998 C 8.5686 2.9998 8.6346 3.0138 8.6946 3.0398 C 8.8136 3.0898 8.9096 3.1858 8.9606 3.3058 Z&quot;);"/></svg>