<?xml version="1.0" standalone="no"?><!DOCTYPE svg PUBLIC "-//W3C//DTD SVG 1.1//EN" "http://www.w3.org/Graphics/SVG/1.1/DTD/svg11.dtd"><svg width="12" height="12" viewBox="0 0 12 12" version="1.1" xmlns="http://www.w3.org/2000/svg" xmlns:xlink="http://www.w3.org/1999/xlink"><path fill-rule="evenodd" fill="currentColor" d="M6,0 C9.314,0 12,2.686 12,6 C12,9.314 9.314,12 6,12 C2.686,12 0,9.314 0,6 C0,2.686 2.686,0 6,0 Z M6,1.5 C3.519,1.5 1.5,3.519 1.5,6 C1.5,8.481 3.519,10.5 6,10.5 C8.481,10.5 10.5,8.481 10.5,6 C10.5,3.519 8.481,1.5 6,1.5 Z M8,7.5 C5.99394614,10 6.31105758,9.60838675 6.31105758,9.60838675 C6.13260341,9.8323822 5.86007406,9.82466878 5.686909,9.60838675 C5.686909,9.60838675 6,10 4,7.5 C3.53501573,6.91876966 3.5,6.49999994 4,6.5 L5,6.5 L5,3.5 C4.99999999,2.94390917 5.44431696,2.5 6.00045207,2.5 C6.55658718,2.5 6.99999996,2.94782158 7,3.5 L7,6.5 L8,6.5 C8.5,6.49999994 8.46743893,6.91746463 8,7.5 Z"/></svg>