<?xml version="1.0" standalone="no"?><!DOCTYPE svg PUBLIC "-//W3C//DTD SVG 1.1//EN" "http://www.w3.org/Graphics/SVG/1.1/DTD/svg11.dtd"><svg width="16" height="16" viewBox="0 0 16 16" version="1.1" xmlns="http://www.w3.org/2000/svg" xmlns:xlink="http://www.w3.org/1999/xlink"><path fill-rule="evenodd" fill="currentColor" d="M8,0 C12.418,0 16,3.582 16,8 C16,12.418 12.418,16 8,16 C3.582,16 0,12.418 0,8 C0,3.582 3.582,0 8,0 Z M8,2 C4.692,2 2,4.692 2,8 C2,11.308 4.692,14 8,14 C11.308,14 14,11.308 14,8 C14,4.692 11.308,2 8,2 Z M11,9.5 C8.99394614,12 8.33753424,12.642482 8.33753424,12.642482 C8.15366364,12.8401935 7.84881952,12.8399338 7.66177128,12.642482 C7.66177128,12.642482 7,12 5,9.5 C4.53501573,8.91876966 4.5,8.5 5.5,8.5 L6.5,8.5 L6.5,5 C6.49999999,4.44390917 7.00090414,3.5 8.00045207,3.5 C9,3.5 9.49999996,4.44782158 9.5,5 L9.5,8.5 L10.5,8.5 C11.5,8.5 11.4674389,8.91746463 11,9.5 Z"/></svg>