<?xml version="1.0" standalone="no"?><!DOCTYPE svg PUBLIC "-//W3C//DTD SVG 1.1//EN" "http://www.w3.org/Graphics/SVG/1.1/DTD/svg11.dtd"><svg width="12" height="12" viewBox="0 0 12 12" class="downloadMicro" style="height:12px;margin-right:16px;width:12px;perspective-origin:6px 6px;transform-origin:6px 6px;shape-rendering:geometricprecision;" version="1.1" xmlns="http://www.w3.org/2000/svg" xmlns:xlink="http://www.w3.org/1999/xlink"><path fill-rule="evenodd" class="" fill="currentColor" d="M6,0 C9.314,0 12,2.686 12,6 C12,9.314 9.314,12 6,12 C2.686,12 0,9.314 0,6 C0,2.686 2.686,0 6,0 Z M6,1.5 C3.519,1.5 1.5,3.519 1.5,6 C1.5,8.481 3.519,10.5 6,10.5 C8.481,10.5 10.5,8.481 10.5,6 C10.5,3.519 8.481,1.5 6,1.5 Z M8,7.5 C5.99394614,10 6.31105758,9.60838675 6.31105758,9.60838675 C6.13260341,9.8323822 5.86007406,9.82466878 5.686909,9.60838675 C5.686909,9.60838675 6,10 4,7.5 C3.53501573,6.91876966 3.5,6.49999994 4,6.5 L5,6.5 L5,3.5 C4.99999999,2.94390917 5.44431696,2.5 6.00045207,2.5 C6.55658718,2.5 6.99999996,2.94782158 7,3.5 L7,6.5 L8,6.5 C8.5,6.49999994 8.46743893,6.91746463 8,7.5 Z" style="display:inline;height:auto;min-height:0px;min-width:0px;overflow-x:visible;overflow-y:visible;width:auto;perspective-origin:0px 0px;transform-origin:0px 0px;fill:rgb(51, 51, 51);fill-rule:evenodd;shape-rendering:geometricprecision;d:path(&quot;M 6 0 C 9.314 0 12 2.686 12 6 C 12 9.314 9.314 12 6 12 C 2.686 12 0 9.314 0 6 C 0 2.686 2.686 0 6 0 Z M 6 1.5 C 3.519 1.5 1.5 3.519 1.5 6 C 1.5 8.481 3.519 10.5 6 10.5 C 8.481 10.5 10.5 8.481 10.5 6 C 10.5 3.519 8.481 1.5 6 1.5 Z M 8 7.5 C 5.99395 10 6.31106 9.60839 6.31106 9.60839 C 6.1326 9.83238 5.86007 9.82467 5.68691 9.60839 C 5.68691 9.60839 6 10 4 7.5 C 3.53502 6.91877 3.5 6.5 4 6.5 L 5 6.5 L 5 3.5 C 5 2.94391 5.44432 2.5 6.00045 2.5 C 6.55659 2.5 7 2.94782 7 3.5 L 7 6.5 L 8 6.5 C 8.5 6.5 8.46744 6.91746 8 7.5 Z&quot;);"/></svg>