<?xml version="1.0" standalone="no"?><!DOCTYPE svg PUBLIC "-//W3C//DTD SVG 1.1//EN" "http://www.w3.org/Graphics/SVG/1.1/DTD/svg11.dtd"><svg width="12" height="12" viewBox="0 0 12 12" version="1.1" xmlns="http://www.w3.org/2000/svg" xmlns:xlink="http://www.w3.org/1999/xlink"><path fill-rule="evenodd" fill="currentColor" d="M3,2.50468445 C3,2.22595492 3.21403503,2 3.50468445,2 L4.49531555,2 C4.77404508,2 5,2.21403503 5,2.50468445 L5,3.49531555 C5,3.77404508 4.78596497,4 4.49531555,4 L3.50468445,4 C3.22595492,4 3,3.78596497 3,3.49531555 L3,2.50468445 Z M7,2.50468445 C7,2.22595492 7.21403503,2 7.50468445,2 L8.49531555,2 C8.77404508,2 9,2.21403503 9,2.50468445 L9,3.49531555 C9,3.77404508 8.78596497,4 8.49531555,4 L7.50468445,4 C7.22595492,4 7,3.78596497 7,3.49531555 L7,2.50468445 Z M3,5.50468445 C3,5.22595492 3.21403503,5 3.50468445,5 L4.49531555,5 C4.77404508,5 5,5.21403503 5,5.50468445 L5,6.49531555 C5,6.77404508 4.78596497,7 4.49531555,7 L3.50468445,7 C3.22595492,7 3,6.78596497 3,6.49531555 L3,5.50468445 Z M7,5.50468445 C7,5.22595492 7.21403503,5 7.50468445,5 L8.49531555,5 C8.77404508,5 9,5.21403503 9,5.50468445 L9,6.49531555 C9,6.77404508 8.78596497,7 8.49531555,7 L7.50468445,7 C7.22595492,7 7,6.78596497 7,6.49531555 L7,5.50468445 Z M3,8.50468445 C3,8.22595492 3.21403503,8 3.50468445,8 L4.49531555,8 C4.77404508,8 5,8.21403503 5,8.50468445 L5,9.49531555 C5,9.77404508 4.78596497,10 4.49531555,10 L3.50468445,10 C3.22595492,10 3,9.78596497 3,9.49531555 L3,8.50468445 Z M7,8.50468445 C7,8.22595492 7.21403503,8 7.50468445,8 L8.49531555,8 C8.77404508,8 9,8.21403503 9,8.50468445 L9,9.49531555 C9,9.77404508 8.78596497,10 8.49531555,10 L7.50468445,10 C7.22595492,10 7,9.78596497 7,9.49531555 L7,8.50468445 Z"/></svg>