<?xml version="1.0" standalone="no"?><!DOCTYPE svg PUBLIC "-//W3C//DTD SVG 1.1//EN" "http://www.w3.org/Graphics/SVG/1.1/DTD/svg11.dtd"><svg width="16" height="16" viewBox="0 0 16 16" class="dragHandle" style="height:16px;margin-right:8px;width:16px;perspective-origin:8px 8px;transform-origin:8px 8px;shape-rendering:geometricprecision;" version="1.1" xmlns="http://www.w3.org/2000/svg" xmlns:xlink="http://www.w3.org/1999/xlink"><path fill-rule="evenodd" class="" fill="currentColor" d="M5 3.505C5 3.226 5.214 3 5.505 3h.99c.279 0 .505.214.505.505v.99A.497.497 0 0 1 6.495 5h-.99A.497.497 0 0 1 5 4.495v-.99zm4 0C9 3.226 9.214 3 9.505 3h.99c.279 0 .505.214.505.505v.99a.497.497 0 0 1-.505.505h-.99A.497.497 0 0 1 9 4.495v-.99zm-4 4C5 7.226 5.214 7 5.505 7h.99c.279 0 .505.214.505.505v.99A.497.497 0 0 1 6.495 9h-.99A.497.497 0 0 1 5 8.495v-.99zm4 0C9 7.226 9.214 7 9.505 7h.99c.279 0 .505.214.505.505v.99a.497.497 0 0 1-.505.505h-.99A.497.497 0 0 1 9 8.495v-.99zm-4 4c0-.279.214-.505.505-.505h.99c.279 0 .505.214.505.505v.99a.497.497 0 0 1-.505.505h-.99A.497.497 0 0 1 5 12.495v-.99zm4 0c0-.279.214-.505.505-.505h.99c.279 0 .505.214.505.505v.99a.497.497 0 0 1-.505.505h-.99A.497.497 0 0 1 9 12.495v-.99z" style="display:inline;height:auto;min-height:0px;min-width:0px;overflow-x:visible;overflow-y:visible;width:auto;perspective-origin:0px 0px;transform-origin:0px 0px;fill:rgb(51, 51, 51);fill-rule:evenodd;shape-rendering:geometricprecision;d:path(&quot;M 5 3.505 C 5 3.226 5.214 3 5.505 3 H 6.495 C 6.774 3 7 3.214 7 3.505 V 4.495 A 0.497 0.497 0 0 1 6.495 5 H 5.505 A 0.497 0.497 0 0 1 5 4.495 V 3.505 Z M 9 3.505 C 9 3.226 9.214 3 9.505 3 H 10.495 C 10.774 3 11 3.214 11 3.505 V 4.495 A 0.497 0.497 0 0 1 10.495 5 H 9.505 A 0.497 0.497 0 0 1 9 4.495 V 3.505 Z M 5 7.505 C 5 7.226 5.214 7 5.505 7 H 6.495 C 6.774 7 7 7.214 7 7.505 V 8.495 A 0.497 0.497 0 0 1 6.495 9 H 5.505 A 0.497 0.497 0 0 1 5 8.495 V 7.505 Z M 9 7.505 C 9 7.226 9.214 7 9.505 7 H 10.495 C 10.774 7 11 7.214 11 7.505 V 8.495 A 0.497 0.497 0 0 1 10.495 9 H 9.505 A 0.497 0.497 0 0 1 9 8.495 V 7.505 Z M 5 11.505 C 5 11.226 5.214 11 5.505 11 H 6.495 C 6.774 11 7 11.214 7 11.505 V 12.495 A 0.497 0.497 0 0 1 6.495 13 H 5.505 A 0.497 0.497 0 0 1 5 12.495 V 11.505 Z M 9 11.505 C 9 11.226 9.214 11 9.505 11 H 10.495 C 10.774 11 11 11.214 11 11.505 V 12.495 A 0.497 0.497 0 0 1 10.495 13 H 9.505 A 0.497 0.497 0 0 1 9 12.495 V 11.505 Z&quot;);"/></svg>