<?xml version="1.0" standalone="no"?><!DOCTYPE svg PUBLIC "-//W3C//DTD SVG 1.1//EN" "http://www.w3.org/Graphics/SVG/1.1/DTD/svg11.dtd"><svg width="12" height="12" viewBox="0 0 12 12" class="duplicateMicro" style="height:12px;margin-right:16px;width:12px;perspective-origin:6px 6px;transform-origin:6px 6px;shape-rendering:geometricprecision;" version="1.1" xmlns="http://www.w3.org/2000/svg" xmlns:xlink="http://www.w3.org/1999/xlink"><path fill-rule="evenodd" class="" fill="currentColor" d="M11,6.99707067 C11,7.55097324 10.5621186,8 9.99707067,8 L5.00292933,8 C4.44902676,8 4,7.56211865 4,6.99707067 L4,2.00292933 C4,1.44902676 4.43788135,1 5.00292933,1 L9.99707067,1 C10.5509732,1 11,1.43788135 11,2.00292933 L11,6.99707067 Z M1,9.49832438 L1,5.00292933 C1,4.43788135 1.44771525,4 2,4 C2.55613518,4 3,4.44762906 3,4.99980749 L3,8.00019251 C3,8.55628335 3.44762906,9 3.99980749,9 L7.00019251,9 C7.55628335,9 8,9.44771525 8,10 C8,10.5561352 7.55097324,11 6.99707067,11 L2.50167562,11 C1.67118943,11 1,10.3276769 1,9.49832438 Z" style="display:inline;height:auto;min-height:0px;min-width:0px;overflow-x:visible;overflow-y:visible;width:auto;perspective-origin:0px 0px;transform-origin:0px 0px;fill:rgb(51, 51, 51);fill-rule:evenodd;shape-rendering:geometricprecision;d:path(&quot;M 11 6.99707 C 11 7.55097 10.5621 8 9.99707 8 L 5.00293 8 C 4.44903 8 4 7.56212 4 6.99707 L 4 2.00293 C 4 1.44903 4.43788 1 5.00293 1 L 9.99707 1 C 10.551 1 11 1.43788 11 2.00293 L 11 6.99707 Z M 1 9.49832 L 1 5.00293 C 1 4.43788 1.44772 4 2 4 C 2.55614 4 3 4.44763 3 4.99981 L 3 8.00019 C 3 8.55628 3.44763 9 3.99981 9 L 7.00019 9 C 7.55628 9 8 9.44772 8 10 C 8 10.5561 7.55097 11 6.99707 11 L 2.50168 11 C 1.67119 11 1 10.3277 1 9.49832 Z&quot;);"/></svg>