<?xml version="1.0" standalone="no"?><!DOCTYPE svg PUBLIC "-//W3C//DTD SVG 1.1//EN" "http://www.w3.org/Graphics/SVG/1.1/DTD/svg11.dtd"><svg width="12" height="12" viewBox="0 0 12 12" version="1.1" xmlns="http://www.w3.org/2000/svg" xmlns:xlink="http://www.w3.org/1999/xlink"><path fill-rule="evenodd" fill="currentColor" d="M11,6.99707067 C11,7.55097324 10.5621186,8 9.99707067,8 L5.00292933,8 C4.44902676,8 4,7.56211865 4,6.99707067 L4,2.00292933 C4,1.44902676 4.43788135,1 5.00292933,1 L9.99707067,1 C10.5509732,1 11,1.43788135 11,2.00292933 L11,6.99707067 Z M1,9.49832438 L1,5.00292933 C1,4.43788135 1.44771525,4 2,4 C2.55613518,4 3,4.44762906 3,4.99980749 L3,8.00019251 C3,8.55628335 3.44762906,9 3.99980749,9 L7.00019251,9 C7.55628335,9 8,9.44771525 8,10 C8,10.5561352 7.55097324,11 6.99707067,11 L2.50167562,11 C1.67118943,11 1,10.3276769 1,9.49832438 Z"/></svg>