<?xml version="1.0" standalone="no"?><!DOCTYPE svg PUBLIC "-//W3C//DTD SVG 1.1//EN" "http://www.w3.org/Graphics/SVG/1.1/DTD/svg11.dtd"><svg width="16" height="16" viewBox="0 0 16 16" version="1.1" xmlns="http://www.w3.org/2000/svg" xmlns:xlink="http://www.w3.org/1999/xlink"><path fill-rule="evenodd" fill="currentColor" d="M5,3.9973917 C5,2.89426272 5.89585781,2 6.9973917,2 L12.0026083,2 C13.1057373,2 14,2.89585781 14,3.9973917 L14,9.0026083 C14,10.1057373 13.1041422,11 12.0026083,11 L6.9973917,11 C5.89426273,11 5,10.1041422 5,9.0026083 L5,3.9973917 Z M2,12.0026083 L2,5.99754465 C2,5.4463114 2.44771525,5 3,5 C3.55613518,5 4,5.44902676 4,6.00292933 L4,10.4983244 C4,11.3288106 4.67232308,12 5.50167562,12 L9.99707067,12 C10.5621186,12 11,12.4477153 11,13 C11,13.5561352 10.553384,14 10.0024554,14 L3.9973917,14 C2.89585781,14 2,13.1057373 2,12.0026083 Z"/></svg>