<?xml version="1.0" standalone="no"?><!DOCTYPE svg PUBLIC "-//W3C//DTD SVG 1.1//EN" "http://www.w3.org/Graphics/SVG/1.1/DTD/svg11.dtd"><svg width="16" height="16" viewBox="0 0 16 16" class="edit" style="height:16px;margin-right:8px;width:16px;perspective-origin:8px 8px;transform-origin:8px 8px;shape-rendering:geometricprecision;" version="1.1" xmlns="http://www.w3.org/2000/svg" xmlns:xlink="http://www.w3.org/1999/xlink"><path fill-rule="evenodd" class="" fill="currentColor" d="M2.35675466,10.6432453 L8.64324534,4.35675466 C8.84064305,4.15935695 9.1593509,4.15929778 9.3559202,4.35580156 L11.6440798,6.64319844 C11.838707,6.83776073 11.8402755,7.15874732 11.6432453,7.35580563 L5.35675466,13.6431944 C5.15935695,13.8406203 4.7782068,14 4.50461102,14 L2.49538898,14 C2.2157526,14 2,13.7782068 2,13.504611 L2,11.495389 C2,11.2157526 2.1597245,10.8402755 2.35675466,10.6432453 Z M12.7109951,1.71135812 L14.2896049,3.28944188 C14.6796404,3.67934745 14.6824243,4.31845743 14.2896881,4.71080116 L13.3483476,5.65120077 C13.1568151,5.84254182 12.8404491,5.84010222 12.6438798,5.64359844 L10.3557202,3.35620156 C10.161093,3.16163927 10.1557721,2.84442791 10.3481734,2.65202659 L11.2890435,1.71115654 C11.6873,1.3129 12.3182129,1.31870679 12.7109951,1.71135812 Z" style="display:inline;height:auto;min-height:0px;min-width:0px;overflow-x:visible;overflow-y:visible;width:auto;perspective-origin:0px 0px;transform-origin:0px 0px;fill:rgb(51, 51, 51);fill-rule:evenodd;shape-rendering:geometricprecision;d:path(&quot;M 2.35675 10.6432 L 8.64325 4.35675 C 8.84064 4.15936 9.15935 4.1593 9.35592 4.3558 L 11.6441 6.6432 C 11.8387 6.83776 11.8403 7.15875 11.6432 7.35581 L 5.35675 13.6432 C 5.15936 13.8406 4.77821 14 4.50461 14 L 2.49539 14 C 2.21575 14 2 13.7782 2 13.5046 L 2 11.4954 C 2 11.2158 2.15972 10.8403 2.35675 10.6432 Z M 12.711 1.71136 L 14.2896 3.28944 C 14.6796 3.67935 14.6824 4.31846 14.2897 4.7108 L 13.3483 5.6512 C 13.1568 5.84254 12.8404 5.8401 12.6439 5.6436 L 10.3557 3.3562 C 10.1611 3.16164 10.1558 2.84443 10.3482 2.65203 L 11.289 1.71116 C 11.6873 1.3129 12.3182 1.31871 12.711 1.71136 Z&quot;);"/></svg>