<?xml version="1.0" standalone="no"?><!DOCTYPE svg PUBLIC "-//W3C//DTD SVG 1.1//EN" "http://www.w3.org/Graphics/SVG/1.1/DTD/svg11.dtd"><svg width="12" height="12" viewBox="0 0 12 12" version="1.1" xmlns="http://www.w3.org/2000/svg" xmlns:xlink="http://www.w3.org/1999/xlink"><path fill-rule="evenodd" fill="currentColor" d="M1.35735893,8.64264107 L6.64264107,3.35735893 C6.83951449,3.16048551 7.15597209,3.1558941 7.34837341,3.34819923 L8.65162659,4.65080077 C8.84306335,4.84214182 8.84000496,5.15902171 8.64264107,5.35641849 L3.35735893,10.6425815 C3.16048551,10.8394877 2.77404508,11 2.49531555,11 L1.50468445,11 C1.21403503,11 1,10.7740451 1,10.4953156 L1,9.50468445 C1,9.21403503 1.15999504,8.84000496 1.35735893,8.64264107 Z M8.34975147,1.65024853 L8.29462433,1.70537567 C8.68359375,1.31640625 9.31821654,1.31821654 9.71075654,1.71075654 L10.2892435,2.28924346 C10.6875,2.6875 10.6841926,3.31580745 10.2946243,3.70537567 L10.3497515,3.65024853 C10.15625,3.84375 9.84402791,3.84402791 9.65162659,3.65162659 L8.34837341,2.34837341 C8.15693665,2.15693665 8.15658907,1.84341093 8.34975147,1.65024853 Z"/></svg>