<?xml version="1.0" standalone="no"?><!DOCTYPE svg PUBLIC "-//W3C//DTD SVG 1.1//EN" "http://www.w3.org/Graphics/SVG/1.1/DTD/svg11.dtd"><svg width="12" height="12" viewBox="0 0 12 12" class="envelopeMicro" style="height:12px;margin-right:16px;width:12px;perspective-origin:6px 6px;transform-origin:6px 6px;shape-rendering:geometricprecision;" version="1.1" xmlns="http://www.w3.org/2000/svg" xmlns:xlink="http://www.w3.org/1999/xlink"><path fill-rule="evenodd" class="" fill="currentColor" d="M1 8.5V5.498c0-.283.183-.37.41-.212l3.764 2.636c.466.326 1.196.32 1.652 0l3.765-2.636c.22-.153.409-.063.409.212V8.5A1.5 1.5 0 0 1 9.503 10H2.497A1.5 1.5 0 0 1 1 8.5zm0-4.904v-.088C1 2.666 1.67 2 2.497 2h7.006C10.328 2 11 2.675 11 3.508v.088c0 .284-.19.62-.426.756L6.87 6.496c-.479.277-1.26.278-1.742 0L1.426 4.352C1.19 4.216 1 3.877 1 3.596z" style="display:inline;height:auto;min-height:0px;min-width:0px;overflow-x:visible;overflow-y:visible;width:auto;perspective-origin:0px 0px;transform-origin:0px 0px;fill:rgb(51, 51, 51);fill-rule:evenodd;shape-rendering:geometricprecision;d:path(&quot;M 1 8.5 V 5.498 C 1 5.215 1.183 5.128 1.41 5.286 L 5.174 7.922 C 5.64 8.248 6.37 8.242 6.826 7.922 L 10.591 5.286 C 10.811 5.133 11 5.223 11 5.498 V 8.5 A 1.5 1.5 0 0 1 9.503 10 H 2.497 A 1.5 1.5 0 0 1 1 8.5 Z M 1 3.596 V 3.508 C 1 2.666 1.67 2 2.497 2 H 9.503 C 10.328 2 11 2.675 11 3.508 V 3.596 C 11 3.88 10.81 4.216 10.574 4.352 L 6.87 6.496 C 6.391 6.773 5.61 6.774 5.128 6.496 L 1.426 4.352 C 1.19 4.216 1 3.877 1 3.596 Z&quot;);"/></svg>