<?xml version="1.0" standalone="no"?><!DOCTYPE svg PUBLIC "-//W3C//DTD SVG 1.1//EN" "http://www.w3.org/Graphics/SVG/1.1/DTD/svg11.dtd"><svg width="12" height="12" viewBox="0 0 12 12" version="1.1" xmlns="http://www.w3.org/2000/svg" xmlns:xlink="http://www.w3.org/1999/xlink"><path fill-rule="evenodd" fill="currentColor" d="M1 8.5V5.498c0-.283.183-.37.41-.212l3.764 2.636c.466.326 1.196.32 1.652 0l3.765-2.636c.22-.153.409-.063.409.212V8.5A1.5 1.5 0 0 1 9.503 10H2.497A1.5 1.5 0 0 1 1 8.5zm0-4.904v-.088C1 2.666 1.67 2 2.497 2h7.006C10.328 2 11 2.675 11 3.508v.088c0 .284-.19.62-.426.756L6.87 6.496c-.479.277-1.26.278-1.742 0L1.426 4.352C1.19 4.216 1 3.877 1 3.596z"/></svg>