<?xml version="1.0" standalone="no"?><!DOCTYPE svg PUBLIC "-//W3C//DTD SVG 1.1//EN" "http://www.w3.org/Graphics/SVG/1.1/DTD/svg11.dtd"><svg width="16" height="16" viewBox="0 0 16 16" class="envelope" style="height:16px;margin-right:8px;width:16px;perspective-origin:8px 8px;transform-origin:8px 8px;shape-rendering:geometricprecision;" version="1.1" xmlns="http://www.w3.org/2000/svg" xmlns:xlink="http://www.w3.org/1999/xlink"><path fill-rule="evenodd" class="" fill="currentColor" d="M1,11.5004529 L1,8.28698353 C1,7.74071872 1.39692412,7.50310534 1.88655484,7.76240678 L7.11344516,10.5304932 C7.60359323,10.7900686 8.39692412,10.7897947 8.88655484,10.5304932 L14.1134452,7.76240678 C14.6035932,7.50283136 15,7.73797416 15,8.28700095 L15,11.5005267 C15,12.3229093 14.3292128,12.9999952 13.5017548,12.9999893 L2.49824524,12.9999107 C1.6752491,12.9999048 1,12.3285747 1,11.5004529 Z M1,5.5 L1,4.49755925 C1,3.66995412 1.67078724,3 2.49824524,3 L13.5017548,3 C14.3247509,3 15,3.67048011 15,4.49755925 L15,5.5 L8.88655484,8.55672258 C8.39640677,8.80179662 7.60307588,8.80153794 7.11344516,8.55672258 L1,5.5 Z" style="display:inline;height:auto;min-height:0px;min-width:0px;overflow-x:visible;overflow-y:visible;width:auto;perspective-origin:0px 0px;transform-origin:0px 0px;fill:rgb(51, 51, 51);fill-rule:evenodd;shape-rendering:geometricprecision;d:path(&quot;M 1 11.5005 L 1 8.28698 C 1 7.74072 1.39692 7.50311 1.88655 7.76241 L 7.11345 10.5305 C 7.60359 10.7901 8.39692 10.7898 8.88655 10.5305 L 14.1134 7.76241 C 14.6036 7.50283 15 7.73797 15 8.287 L 15 11.5005 C 15 12.3229 14.3292 13 13.5018 13 L 2.49825 12.9999 C 1.67525 12.9999 1 12.3286 1 11.5005 Z M 1 5.5 L 1 4.49756 C 1 3.66995 1.67079 3 2.49825 3 L 13.5018 3 C 14.3248 3 15 3.67048 15 4.49756 L 15 5.5 L 8.88655 8.55672 C 8.39641 8.8018 7.60308 8.80154 7.11345 8.55672 L 1 5.5 Z&quot;);"/></svg>