<?xml version="1.0" standalone="no"?><!DOCTYPE svg PUBLIC "-//W3C//DTD SVG 1.1//EN" "http://www.w3.org/Graphics/SVG/1.1/DTD/svg11.dtd"><svg width="16" height="16" viewBox="0 0 16 16" class="envelope1" version="1.1" xmlns="http://www.w3.org/2000/svg" xmlns:xlink="http://www.w3.org/1999/xlink"><path fill-rule="evenodd" fill="currentColor" d="M5.76621641,7.07663465 C5.76008597,7.07277199 5.75388991,7.06905534 5.74763318,7.06548472 L3.25724788,5.57125354 C3.02045774,5.42917946 2.71332762,5.50596199 2.57125354,5.74275212 C2.42917946,5.97954226 2.50596199,6.28667238 2.74275212,6.42874646 L4.69362377,7.59926945 L2.64644661,9.64644661 C2.45118446,9.84170876 2.45118446,10.1582912 2.64644661,10.3535534 C2.84170876,10.5488155 3.15829124,10.5488155 3.35355339,10.3535534 L5.57750724,8.12959954 L7.74275212,9.42874646 C7.90109332,9.52375118 8.09890668,9.52375118 8.25724788,9.42874646 L10.4224928,8.12959954 L12.6464466,10.3535534 C12.8417088,10.5488155 13.1582912,10.5488155 13.3535534,10.3535534 C13.5488155,10.1582912 13.5488155,9.84170876 13.3535534,9.64644661 L11.3063762,7.59926945 L13.2572479,6.42874646 C13.494038,6.28667238 13.5708205,5.97954226 13.4287465,5.74275212 C13.2866724,5.50596199 12.9795423,5.42917946 12.7427521,5.57125354 L10.2523669,7.06548464 C10.2461101,7.06905534 10.239914,7.07277199 10.2337836,7.07663465 L8,8.41690481 L5.76621653,7.07663473 Z M1,4.49710104 C1,3.67027497 1.6752491,3 2.49824524,3 L13.5017548,3 C14.3292128,3 15,3.67165598 15,4.49710104 L15,11.502899 C15,12.329725 14.3247509,13 13.5017548,13 L2.49824524,13 C1.67078724,13 1,12.328344 1,11.502899 L1,4.49710104 Z"/></svg>