<?xml version="1.0" standalone="no"?><!DOCTYPE svg PUBLIC "-//W3C//DTD SVG 1.1//EN" "http://www.w3.org/Graphics/SVG/1.1/DTD/svg11.dtd"><svg width="12" height="12" viewBox="0 0 12 12" class="envelope1Micro" style="height:12px;margin-right:16px;width:12px;perspective-origin:6px 6px;transform-origin:6px 6px;shape-rendering:geometricprecision;" version="1.1" xmlns="http://www.w3.org/2000/svg" xmlns:xlink="http://www.w3.org/1999/xlink"><path fill-rule="evenodd" class="" fill="currentColor" d="M4.40444029,5.4100461 C4.40006141,5.40722957 4.39563565,5.40451952 4.39116655,5.40191594 L2.61231991,4.31237237 C2.4431841,4.20877669 2.22380544,4.26476395 2.12232396,4.43742342 C2.02084247,4.61008289 2.07568714,4.83403195 2.24482294,4.93762763 L3.63830269,5.79113397 L2.17603329,7.28386732 C2.03656033,7.42624597 2.03656033,7.65708737 2.17603329,7.79946601 C2.31550625,7.94184466 2.5416366,7.94184466 2.68110956,7.79946601 L4.26964803,6.177833 L5.81625152,7.12512763 C5.92935237,7.1944019 6.07064763,7.1944019 6.18374848,7.12512763 L7.73035197,6.177833 L9.31889044,7.79946601 C9.4583634,7.94184466 9.68449375,7.94184466 9.82396671,7.79946601 C9.96343967,7.65708737 9.96343967,7.42624597 9.82396671,7.28386732 L8.36169731,5.79113397 L9.75517706,4.93762763 C9.92431286,4.83403195 9.97915753,4.61008289 9.87767604,4.43742342 C9.77619456,4.26476395 9.5568159,4.20877669 9.38768009,4.31237237 L7.60883353,5.40191589 C7.60436435,5.40451952 7.59993859,5.40722957 7.59555971,5.4100461 L6,6.38732642 L4.40444038,5.41004616 Z M1,3.67140547 C1,2.84036118 1.67165598,2.16666667 2.49710104,2.16666667 L9.50289896,2.16666667 C10.329725,2.16666667 11,2.8349822 11,3.67140547 L11,8.66192786 C11,9.49297215 10.328344,10.1666667 9.50289896,10.1666667 L2.49710104,10.1666667 C1.67027497,10.1666667 1,9.49835114 1,8.66192786 L1,3.67140547 Z" style="display:inline;height:auto;min-height:0px;min-width:0px;overflow-x:visible;overflow-y:visible;width:auto;perspective-origin:0px 0px;transform-origin:0px 0px;fill:rgb(51, 51, 51);fill-rule:evenodd;shape-rendering:geometricprecision;d:path(&quot;M 4.40444 5.41005 C 4.40006 5.40723 4.39564 5.40452 4.39117 5.40192 L 2.61232 4.31237 C 2.44318 4.20878 2.22381 4.26476 2.12232 4.43742 C 2.02084 4.61008 2.07569 4.83403 2.24482 4.93763 L 3.6383 5.79113 L 2.17603 7.28387 C 2.03656 7.42625 2.03656 7.65709 2.17603 7.79947 C 2.31551 7.94184 2.54164 7.94184 2.68111 7.79947 L 4.26965 6.17783 L 5.81625 7.12513 C 5.92935 7.1944 6.07065 7.1944 6.18375 7.12513 L 7.73035 6.17783 L 9.31889 7.79947 C 9.45836 7.94184 9.68449 7.94184 9.82397 7.79947 C 9.96344 7.65709 9.96344 7.42625 9.82397 7.28387 L 8.3617 5.79113 L 9.75518 4.93763 C 9.92431 4.83403 9.97916 4.61008 9.87768 4.43742 C 9.77619 4.26476 9.55682 4.20878 9.38768 4.31237 L 7.60883 5.40192 C 7.60436 5.40452 7.59994 5.40723 7.59556 5.41005 L 6 6.38733 L 4.40444 5.41005 Z M 1 3.67141 C 1 2.84036 1.67166 2.16667 2.4971 2.16667 L 9.5029 2.16667 C 10.3297 2.16667 11 2.83498 11 3.67141 L 11 8.66193 C 11 9.49297 10.3283 10.1667 9.5029 10.1667 L 2.4971 10.1667 C 1.67027 10.1667 1 9.49835 1 8.66193 L 1 3.67141 Z&quot;);"/></svg>