<?xml version="1.0" standalone="no"?><!DOCTYPE svg PUBLIC "-//W3C//DTD SVG 1.1//EN" "http://www.w3.org/Graphics/SVG/1.1/DTD/svg11.dtd"><svg width="16" height="16" viewBox="0 0 16 16" version="1.1" xmlns="http://www.w3.org/2000/svg" xmlns:xlink="http://www.w3.org/1999/xlink"><path fill-rule="evenodd" fill="currentColor" d="M1,11.5004529 L1,8.28698353 C1,7.74071872 1.39692412,7.50310534 1.88655484,7.76240678 L7.11344516,10.5304932 C7.60359323,10.7900686 8.39692412,10.7897947 8.88655484,10.5304932 L14.1134452,7.76240678 C14.6035932,7.50283136 15,7.73797416 15,8.28700095 L15,11.5005267 C15,12.3229093 14.3292128,12.9999952 13.5017548,12.9999893 L2.49824524,12.9999107 C1.6752491,12.9999048 1,12.3285747 1,11.5004529 Z M1,5.5 L1,4.49755925 C1,3.66995412 1.67078724,3 2.49824524,3 L13.5017548,3 C14.3247509,3 15,3.67048011 15,4.49755925 L15,5.5 L8.88655484,8.55672258 C8.39640677,8.80179662 7.60307588,8.80153794 7.11344516,8.55672258 L1,5.5 Z"/></svg>