<?xml version="1.0" standalone="no"?><!DOCTYPE svg PUBLIC "-//W3C//DTD SVG 1.1//EN" "http://www.w3.org/Graphics/SVG/1.1/DTD/svg11.dtd"><svg width="16" height="16" viewBox="0 0 16 16" class="envelope1" style="height:16px;margin-right:8px;width:16px;perspective-origin:8px 8px;transform-origin:8px 8px;shape-rendering:geometricprecision;" version="1.1" xmlns="http://www.w3.org/2000/svg" xmlns:xlink="http://www.w3.org/1999/xlink"><path fill-rule="evenodd" class="" fill="currentColor" d="M5.76621641,7.07663465 C5.76008597,7.07277199 5.75388991,7.06905534 5.74763318,7.06548472 L3.25724788,5.57125354 C3.02045774,5.42917946 2.71332762,5.50596199 2.57125354,5.74275212 C2.42917946,5.97954226 2.50596199,6.28667238 2.74275212,6.42874646 L4.69362377,7.59926945 L2.64644661,9.64644661 C2.45118446,9.84170876 2.45118446,10.1582912 2.64644661,10.3535534 C2.84170876,10.5488155 3.15829124,10.5488155 3.35355339,10.3535534 L5.57750724,8.12959954 L7.74275212,9.42874646 C7.90109332,9.52375118 8.09890668,9.52375118 8.25724788,9.42874646 L10.4224928,8.12959954 L12.6464466,10.3535534 C12.8417088,10.5488155 13.1582912,10.5488155 13.3535534,10.3535534 C13.5488155,10.1582912 13.5488155,9.84170876 13.3535534,9.64644661 L11.3063762,7.59926945 L13.2572479,6.42874646 C13.494038,6.28667238 13.5708205,5.97954226 13.4287465,5.74275212 C13.2866724,5.50596199 12.9795423,5.42917946 12.7427521,5.57125354 L10.2523669,7.06548464 C10.2461101,7.06905534 10.239914,7.07277199 10.2337836,7.07663465 L8,8.41690481 L5.76621653,7.07663473 Z M1,4.49710104 C1,3.67027497 1.6752491,3 2.49824524,3 L13.5017548,3 C14.3292128,3 15,3.67165598 15,4.49710104 L15,11.502899 C15,12.329725 14.3247509,13 13.5017548,13 L2.49824524,13 C1.67078724,13 1,12.328344 1,11.502899 L1,4.49710104 Z" style="display:inline;height:auto;min-height:0px;min-width:0px;overflow-x:visible;overflow-y:visible;width:auto;perspective-origin:0px 0px;transform-origin:0px 0px;fill:rgb(51, 51, 51);fill-rule:evenodd;shape-rendering:geometricprecision;d:path(&quot;M 5.76622 7.07663 C 5.76009 7.07277 5.75389 7.06906 5.74763 7.06548 L 3.25725 5.57125 C 3.02046 5.42918 2.71333 5.50596 2.57125 5.74275 C 2.42918 5.97954 2.50596 6.28667 2.74275 6.42875 L 4.69362 7.59927 L 2.64645 9.64645 C 2.45118 9.84171 2.45118 10.1583 2.64645 10.3536 C 2.84171 10.5488 3.15829 10.5488 3.35355 10.3536 L 5.57751 8.1296 L 7.74275 9.42875 C 7.90109 9.52375 8.09891 9.52375 8.25725 9.42875 L 10.4225 8.1296 L 12.6464 10.3536 C 12.8417 10.5488 13.1583 10.5488 13.3536 10.3536 C 13.5488 10.1583 13.5488 9.84171 13.3536 9.64645 L 11.3064 7.59927 L 13.2572 6.42875 C 13.494 6.28667 13.5708 5.97954 13.4287 5.74275 C 13.2867 5.50596 12.9795 5.42918 12.7428 5.57125 L 10.2524 7.06548 C 10.2461 7.06906 10.2399 7.07277 10.2338 7.07663 L 8 8.4169 L 5.76622 7.07663 Z M 1 4.4971 C 1 3.67027 1.67525 3 2.49825 3 L 13.5018 3 C 14.3292 3 15 3.67166 15 4.4971 L 15 11.5029 C 15 12.3297 14.3248 13 13.5018 13 L 2.49825 13 C 1.67079 13 1 12.3283 1 11.5029 L 1 4.4971 Z&quot;);"/></svg>