<?xml version="1.0" standalone="no"?><!DOCTYPE svg PUBLIC "-//W3C//DTD SVG 1.1//EN" "http://www.w3.org/Graphics/SVG/1.1/DTD/svg11.dtd"><svg width="12" height="12" viewBox="0 0 12 12" version="1.1" xmlns="http://www.w3.org/2000/svg" xmlns:xlink="http://www.w3.org/1999/xlink"><path fill-rule="evenodd" fill="currentColor" d="M4.77546101,10.4553613 L1.81474478,10.8783208 C1.25439084,10.9583713 0.87938524,10.5736845 0.958225649,10.0218016 L1.38118511,7.06108542 C1.45982823,6.51058357 1.83916177,6.38790899 2.22968611,6.77843328 L2.93679297,7.48554006 L4.10581974,6.3165134 C4.49903533,5.92329779 5.12937282,5.9261252 5.51989706,6.31664944 C5.91314397,6.70989635 5.91048225,7.3402777 5.52003317,7.73072683 L4.35100654,8.89975362 L5.05811323,9.6068604 C5.45136014,10.0001074 5.32208977,10.3772715 4.77546101,10.4553613 Z M7.10137856,1.3810729 L10.0620948,0.958113443 C10.6224487,0.87806288 10.9974543,1.26274971 10.9186139,1.81463257 L10.4956545,4.7753488 C10.4170113,5.32585066 10.0376778,5.44852523 9.64715346,5.05800094 L8.94004659,4.35089416 L7.45430822,5.83663252 C7.06109263,6.22984813 6.43075515,6.22702073 6.0402309,5.83649648 C5.64698399,5.44324957 5.64964572,4.81286823 6.04009479,4.42241909 L7.52583303,2.9366806 L6.81872633,2.22957382 C6.42547942,1.83632686 6.5547498,1.45916273 7.10137856,1.3810729 Z"/></svg>