<?xml version="1.0" standalone="no"?><!DOCTYPE svg PUBLIC "-//W3C//DTD SVG 1.1//EN" "http://www.w3.org/Graphics/SVG/1.1/DTD/svg11.dtd"><svg width="16" height="16" viewBox="0 0 16 16" version="1.1" xmlns="http://www.w3.org/2000/svg" xmlns:xlink="http://www.w3.org/1999/xlink"><path fill-rule="evenodd" fill="currentColor" d="M5.77546101,13.6834543 L2.81474478,14.1064138 C2.25439084,14.1864644 1.87938524,13.8017775 1.95822565,13.2498947 L2.38118511,10.2891784 C2.45982823,9.73867658 2.83916177,9.616002 3.22968611,10.0065263 L3.93679297,10.7136331 L5.8350897,8.81533646 C6.22830529,8.42212085 6.85864277,8.42494825 7.24916702,8.8154725 C7.64241393,9.20871941 7.6397522,9.83910076 7.24930313,10.2295499 L5.35100654,12.1278466 L6.05811323,12.8349534 C6.45136014,13.2282004 6.32208977,13.6053645 5.77546101,13.6834543 Z M10.2981302,2.3810729 L13.2588464,1.95811344 C13.8192003,1.87806288 14.1942059,2.26274971 14.1153655,2.81463257 L13.6924061,5.7753488 C13.6137629,6.32585066 13.2344294,6.44852523 12.8439051,6.05800094 L12.1367982,5.35089416 L10.2294376,7.25825476 C9.836222,7.65147037 9.20588451,7.64864296 8.81536027,7.25811872 C8.42211336,6.86487181 8.42477509,6.23449046 8.81522416,5.84404133 L10.7225846,3.9366806 L10.0154779,3.22957382 C9.62223103,2.83632686 9.7515014,2.45916273 10.2981302,2.3810729 Z"/></svg>