<?xml version="1.0" standalone="no"?><!DOCTYPE svg PUBLIC "-//W3C//DTD SVG 1.1//EN" "http://www.w3.org/Graphics/SVG/1.1/DTD/svg11.dtd"><svg width="12" height="12" viewBox="0 0 12 12" class="expand1Micro" style="height:12px;margin-right:16px;width:12px;perspective-origin:6px 6px;transform-origin:6px 6px;shape-rendering:geometricprecision;" version="1.1" xmlns="http://www.w3.org/2000/svg" xmlns:xlink="http://www.w3.org/1999/xlink"><path fill-rule="evenodd" class="" fill="currentColor" d="M7.75 5.25l.823.823A.25.25 0 0 0 9 5.896V3.5a.5.5 0 0 0-.5-.5H6.104a.25.25 0 0 0-.177.427l.823.823-2.5 2.5-.823-.823A.25.25 0 0 0 3 6.104V8.5a.5.5 0 0 0 .5.5h2.396a.25.25 0 0 0 .177-.427L5.25 7.75l2.5-2.5zM3 .988h6a2 2 0 0 1 2 2v6a2 2 0 0 1-2 2H3a2 2 0 0 1-2-2v-6a2 2 0 0 1 2-2z" style="display:inline;height:auto;min-height:0px;min-width:0px;overflow-x:visible;overflow-y:visible;width:auto;perspective-origin:0px 0px;transform-origin:0px 0px;fill:rgb(51, 51, 51);fill-rule:evenodd;shape-rendering:geometricprecision;d:path(&quot;M 7.75 5.25 L 8.573 6.073 A 0.25 0.25 0 0 0 9 5.896 V 3.5 A 0.5 0.5 0 0 0 8.5 3 H 6.104 A 0.25 0.25 0 0 0 5.927 3.427 L 6.75 4.25 L 4.25 6.75 L 3.427 5.927 A 0.25 0.25 0 0 0 3 6.104 V 8.5 A 0.5 0.5 0 0 0 3.5 9 H 5.896 A 0.25 0.25 0 0 0 6.073 8.573 L 5.25 7.75 L 7.75 5.25 Z M 3 0.988 H 9 A 2 2 0 0 1 11 2.988 V 8.988 A 2 2 0 0 1 9 10.988 H 3 A 2 2 0 0 1 1 8.988 V 2.988 A 2 2 0 0 1 3 0.988 Z&quot;);"/></svg>