<?xml version="1.0" standalone="no"?><!DOCTYPE svg PUBLIC "-//W3C//DTD SVG 1.1//EN" "http://www.w3.org/Graphics/SVG/1.1/DTD/svg11.dtd"><svg width="16" height="16" viewBox="0 0 16 16" class="expand1" version="1.1" xmlns="http://www.w3.org/2000/svg" xmlns:xlink="http://www.w3.org/1999/xlink"><path fill-rule="evenodd" fill="currentColor" d="M5.015 9.59L3.86 8.392a.5.5 0 0 0-.86.347v3.466a1 1 0 0 0 1 1h3.323a.5.5 0 0 0 .36-.847L6.39 11.015l4.563-4.563 1.194 1.194A.5.5 0 0 0 13 7.293V4a1 1 0 0 0-1-1H8.707a.5.5 0 0 0-.353.854l1.198 1.198L5.015 9.59zM3 .988h10a2 2 0 0 1 2 2v10a2 2 0 0 1-2 2H3a2 2 0 0 1-2-2v-10a2 2 0 0 1 2-2z"/></svg>