<?xml version="1.0" standalone="no"?><!DOCTYPE svg PUBLIC "-//W3C//DTD SVG 1.1//EN" "http://www.w3.org/Graphics/SVG/1.1/DTD/svg11.dtd"><svg width="12" height="12" viewBox="0 0 12 12" class="expandMicro" style="height:12px;margin-right:16px;width:12px;perspective-origin:6px 6px;transform-origin:6px 6px;shape-rendering:geometricprecision;" version="1.1" xmlns="http://www.w3.org/2000/svg" xmlns:xlink="http://www.w3.org/1999/xlink"><path fill-rule="evenodd" class="" fill="currentColor" d="M4.77546101,10.4553613 L1.81474478,10.8783208 C1.25439084,10.9583713 0.87938524,10.5736845 0.958225649,10.0218016 L1.38118511,7.06108542 C1.45982823,6.51058357 1.83916177,6.38790899 2.22968611,6.77843328 L2.93679297,7.48554006 L4.10581974,6.3165134 C4.49903533,5.92329779 5.12937282,5.9261252 5.51989706,6.31664944 C5.91314397,6.70989635 5.91048225,7.3402777 5.52003317,7.73072683 L4.35100654,8.89975362 L5.05811323,9.6068604 C5.45136014,10.0001074 5.32208977,10.3772715 4.77546101,10.4553613 Z M7.10137856,1.3810729 L10.0620948,0.958113443 C10.6224487,0.87806288 10.9974543,1.26274971 10.9186139,1.81463257 L10.4956545,4.7753488 C10.4170113,5.32585066 10.0376778,5.44852523 9.64715346,5.05800094 L8.94004659,4.35089416 L7.45430822,5.83663252 C7.06109263,6.22984813 6.43075515,6.22702073 6.0402309,5.83649648 C5.64698399,5.44324957 5.64964572,4.81286823 6.04009479,4.42241909 L7.52583303,2.9366806 L6.81872633,2.22957382 C6.42547942,1.83632686 6.5547498,1.45916273 7.10137856,1.3810729 Z" style="display:inline;height:auto;min-height:0px;min-width:0px;overflow-x:visible;overflow-y:visible;width:auto;perspective-origin:0px 0px;transform-origin:0px 0px;fill:rgb(51, 51, 51);fill-rule:evenodd;shape-rendering:geometricprecision;d:path(&quot;M 4.77546 10.4554 L 1.81474 10.8783 C 1.25439 10.9584 0.879385 10.5737 0.958226 10.0218 L 1.38119 7.06109 C 1.45983 6.51058 1.83916 6.38791 2.22969 6.77843 L 2.93679 7.48554 L 4.10582 6.31651 C 4.49904 5.9233 5.12937 5.92613 5.5199 6.31665 C 5.91314 6.7099 5.91048 7.34028 5.52003 7.73073 L 4.35101 8.89975 L 5.05811 9.60686 C 5.45136 10.0001 5.32209 10.3773 4.77546 10.4554 Z M 7.10138 1.38107 L 10.0621 0.958114 C 10.6224 0.878063 10.9975 1.26275 10.9186 1.81463 L 10.4957 4.77535 C 10.417 5.32585 10.0377 5.44853 9.64715 5.058 L 8.94005 4.35089 L 7.45431 5.83663 C 7.06109 6.22985 6.43076 6.22702 6.04023 5.8365 C 5.64698 5.44325 5.64965 4.81287 6.04009 4.42242 L 7.52583 2.93668 L 6.81873 2.22957 C 6.42548 1.83633 6.55475 1.45916 7.10138 1.38107 Z&quot;);"/></svg>