<?xml version="1.0" standalone="no"?><!DOCTYPE svg PUBLIC "-//W3C//DTD SVG 1.1//EN" "http://www.w3.org/Graphics/SVG/1.1/DTD/svg11.dtd"><svg width="16" height="16" viewBox="0 0 16 16" version="1.1" xmlns="http://www.w3.org/2000/svg" xmlns:xlink="http://www.w3.org/1999/xlink"><path fill-rule="evenodd" fill="currentColor" d="M10 2v12h3a1 1 0 0 0 1-1V3a1 1 0 0 0-1-1h-3zM3 1h10a2 2 0 0 1 2 2v10a2 2 0 0 1-2 2H3a2 2 0 0 1-2-2V3a2 2 0 0 1 2-2zm1.22 5.28l1.97 1.97-1.97 1.97a.75.75 0 0 0 1.06 1.06l2.5-2.5a.75.75 0 0 0 0-1.06l-2.5-2.5a.75.75 0 0 0-1.06 1.06z"/></svg>