<?xml version="1.0" standalone="no"?><!DOCTYPE svg PUBLIC "-//W3C//DTD SVG 1.1//EN" "http://www.w3.org/Graphics/SVG/1.1/DTD/svg11.dtd"><svg width="12" height="12" viewBox="0 0 12 12" version="1.1" xmlns="http://www.w3.org/2000/svg" xmlns:xlink="http://www.w3.org/1999/xlink"><path fill-rule="evenodd" fill="currentColor" d="M8 1v10h2.167c.46 0 .833-.373.833-.833V1.833A.833.833 0 0 0 10.167 1H8zM1.714 0h8.572C11.232 0 12 .768 12 1.714v8.572c0 .946-.768 1.714-1.714 1.714H1.714A1.714 1.714 0 0 1 0 10.286V1.714C0 .768.768 0 1.714 0zm.506 4.182L4.19 6 2.22 7.818a.655.655 0 0 0 0 .98c.293.27.767.27 1.06 0l2.5-2.308a.655.655 0 0 0 0-.98l-2.5-2.307a.795.795 0 0 0-1.06 0 .655.655 0 0 0 0 .979z"/></svg>