<?xml version="1.0" standalone="no"?><!DOCTYPE svg PUBLIC "-//W3C//DTD SVG 1.1//EN" "http://www.w3.org/Graphics/SVG/1.1/DTD/svg11.dtd"><svg width="12" height="12" viewBox="0 0 12 12" class="expand1Micro" version="1.1" xmlns="http://www.w3.org/2000/svg" xmlns:xlink="http://www.w3.org/1999/xlink"><path fill-rule="evenodd" fill="currentColor" d="M7.75 5.25l.823.823A.25.25 0 0 0 9 5.896V3.5a.5.5 0 0 0-.5-.5H6.104a.25.25 0 0 0-.177.427l.823.823-2.5 2.5-.823-.823A.25.25 0 0 0 3 6.104V8.5a.5.5 0 0 0 .5.5h2.396a.25.25 0 0 0 .177-.427L5.25 7.75l2.5-2.5zM3 .988h6a2 2 0 0 1 2 2v6a2 2 0 0 1-2 2H3a2 2 0 0 1-2-2v-6a2 2 0 0 1 2-2z"/></svg>