<?xml version="1.0" standalone="no"?><!DOCTYPE svg PUBLIC "-//W3C//DTD SVG 1.1//EN" "http://www.w3.org/Graphics/SVG/1.1/DTD/svg11.dtd"><svg width="12" height="12" viewBox="0 0 12 12" class="expandSidebarMicro" style="height:12px;margin-right:16px;width:12px;perspective-origin:6px 6px;transform-origin:6px 6px;shape-rendering:geometricprecision;" version="1.1" xmlns="http://www.w3.org/2000/svg" xmlns:xlink="http://www.w3.org/1999/xlink"><path fill-rule="evenodd" class="" fill="currentColor" d="M8 1v10h2.167c.46 0 .833-.373.833-.833V1.833A.833.833 0 0 0 10.167 1H8zM1.714 0h8.572C11.232 0 12 .768 12 1.714v8.572c0 .946-.768 1.714-1.714 1.714H1.714A1.714 1.714 0 0 1 0 10.286V1.714C0 .768.768 0 1.714 0zm.506 4.182L4.19 6 2.22 7.818a.655.655 0 0 0 0 .98c.293.27.767.27 1.06 0l2.5-2.308a.655.655 0 0 0 0-.98l-2.5-2.307a.795.795 0 0 0-1.06 0 .655.655 0 0 0 0 .979z" style="display:inline;height:auto;min-height:0px;min-width:0px;overflow-x:visible;overflow-y:visible;width:auto;perspective-origin:0px 0px;transform-origin:0px 0px;fill:rgb(51, 51, 51);fill-rule:evenodd;shape-rendering:geometricprecision;d:path(&quot;M 8 1 V 11 H 10.167 C 10.627 11 11 10.627 11 10.167 V 1.833 A 0.833 0.833 0 0 0 10.167 1 H 8 Z M 1.714 0 H 10.286 C 11.232 0 12 0.768 12 1.714 V 10.286 C 12 11.232 11.232 12 10.286 12 H 1.714 A 1.714 1.714 0 0 1 0 10.286 V 1.714 C 0 0.768 0.768 0 1.714 0 Z M 2.22 4.182 L 4.19 6 L 2.22 7.818 A 0.655 0.655 0 0 0 2.22 8.798 C 2.513 9.068 2.987 9.068 3.28 8.798 L 5.78 6.49 A 0.655 0.655 0 0 0 5.78 5.51 L 3.28 3.203 A 0.795 0.795 0 0 0 2.22 3.203 A 0.655 0.655 0 0 0 2.22 4.182 Z&quot;);"/></svg>