<?xml version="1.0" standalone="no"?><!DOCTYPE svg PUBLIC "-//W3C//DTD SVG 1.1//EN" "http://www.w3.org/Graphics/SVG/1.1/DTD/svg11.dtd"><svg width="16" height="16" viewBox="0 0 16 16" class="expandSidebar" style="height:16px;margin-right:8px;width:16px;perspective-origin:8px 8px;transform-origin:8px 8px;shape-rendering:geometricprecision;" version="1.1" xmlns="http://www.w3.org/2000/svg" xmlns:xlink="http://www.w3.org/1999/xlink"><path fill-rule="evenodd" class="" fill="currentColor" d="M10 2v12h3a1 1 0 0 0 1-1V3a1 1 0 0 0-1-1h-3zM3 1h10a2 2 0 0 1 2 2v10a2 2 0 0 1-2 2H3a2 2 0 0 1-2-2V3a2 2 0 0 1 2-2zm1.22 5.28l1.97 1.97-1.97 1.97a.75.75 0 0 0 1.06 1.06l2.5-2.5a.75.75 0 0 0 0-1.06l-2.5-2.5a.75.75 0 0 0-1.06 1.06z" style="display:inline;height:auto;min-height:0px;min-width:0px;overflow-x:visible;overflow-y:visible;width:auto;perspective-origin:0px 0px;transform-origin:0px 0px;fill:rgb(51, 51, 51);fill-rule:evenodd;shape-rendering:geometricprecision;d:path(&quot;M 10 2 V 14 H 13 A 1 1 0 0 0 14 13 V 3 A 1 1 0 0 0 13 2 H 10 Z M 3 1 H 13 A 2 2 0 0 1 15 3 V 13 A 2 2 0 0 1 13 15 H 3 A 2 2 0 0 1 1 13 V 3 A 2 2 0 0 1 3 1 Z M 4.22 6.28 L 6.19 8.25 L 4.22 10.22 A 0.75 0.75 0 0 0 5.28 11.28 L 7.78 8.78 A 0.75 0.75 0 0 0 7.78 7.72 L 5.28 5.22 A 0.75 0.75 0 0 0 4.22 6.28 Z&quot;);"/></svg>