<?xml version="1.0" standalone="no"?><!DOCTYPE svg PUBLIC "-//W3C//DTD SVG 1.1//EN" "http://www.w3.org/Graphics/SVG/1.1/DTD/svg11.dtd"><svg width="16" height="16" viewBox="0 0 16 16" class="expand1" style="height:16px;margin-right:8px;width:16px;perspective-origin:8px 8px;transform-origin:8px 8px;shape-rendering:geometricprecision;" version="1.1" xmlns="http://www.w3.org/2000/svg" xmlns:xlink="http://www.w3.org/1999/xlink"><path fill-rule="evenodd" class="" fill="currentColor" d="M5.015 9.59L3.86 8.392a.5.5 0 0 0-.86.347v3.466a1 1 0 0 0 1 1h3.323a.5.5 0 0 0 .36-.847L6.39 11.015l4.563-4.563 1.194 1.194A.5.5 0 0 0 13 7.293V4a1 1 0 0 0-1-1H8.707a.5.5 0 0 0-.353.854l1.198 1.198L5.015 9.59zM3 .988h10a2 2 0 0 1 2 2v10a2 2 0 0 1-2 2H3a2 2 0 0 1-2-2v-10a2 2 0 0 1 2-2z" style="display:inline;height:auto;min-height:0px;min-width:0px;overflow-x:visible;overflow-y:visible;width:auto;perspective-origin:0px 0px;transform-origin:0px 0px;fill:rgb(51, 51, 51);fill-rule:evenodd;shape-rendering:geometricprecision;d:path(&quot;M 5.015 9.59 L 3.86 8.392 A 0.5 0.5 0 0 0 3 8.739 V 12.205 A 1 1 0 0 0 4 13.205 H 7.323 A 0.5 0.5 0 0 0 7.683 12.358 L 6.39 11.015 L 10.953 6.452 L 12.147 7.646 A 0.5 0.5 0 0 0 13 7.293 V 4 A 1 1 0 0 0 12 3 H 8.707 A 0.5 0.5 0 0 0 8.354 3.854 L 9.552 5.052 L 5.015 9.59 Z M 3 0.988 H 13 A 2 2 0 0 1 15 2.988 V 12.988 A 2 2 0 0 1 13 14.988 H 3 A 2 2 0 0 1 1 12.988 V 2.988 A 2 2 0 0 1 3 0.988 Z&quot;);"/></svg>