<?xml version="1.0" standalone="no"?><!DOCTYPE svg PUBLIC "-//W3C//DTD SVG 1.1//EN" "http://www.w3.org/Graphics/SVG/1.1/DTD/svg11.dtd"><svg width="12" height="12" viewBox="0 0 12 12" version="1.1" xmlns="http://www.w3.org/2000/svg" xmlns:xlink="http://www.w3.org/1999/xlink"><path fill-rule="evenodd" fill="currentColor" d="M3 10a1 1 0 1 1 0-2 1 1 0 0 1 0 2zm4.75-.974a.75.75 0 0 1-1.5 0A3.25 3.25 0 0 0 3 5.776a.75.75 0 0 1 0-1.5 4.75 4.75 0 0 1 4.75 4.75zm3.026 0a.75.75 0 1 1-1.5 0A6.276 6.276 0 0 0 3 2.75a.75.75 0 0 1 0-1.5 7.776 7.776 0 0 1 7.776 7.776z"/></svg>