<?xml version="1.0" standalone="no"?><!DOCTYPE svg PUBLIC "-//W3C//DTD SVG 1.1//EN" "http://www.w3.org/Graphics/SVG/1.1/DTD/svg11.dtd"><svg width="16" height="16" viewBox="0 0 16 16" version="1.1" xmlns="http://www.w3.org/2000/svg" xmlns:xlink="http://www.w3.org/1999/xlink"><path fill-rule="evenodd" fill="currentColor" d="M3.5 14a1.5 1.5 0 1 1 0-3 1.5 1.5 0 0 1 0 3zm6.5-1.5a1 1 0 0 1-2 0A4.5 4.5 0 0 0 3.5 8a1 1 0 1 1 0-2 6.5 6.5 0 0 1 6.5 6.5zm4 0a1 1 0 0 1-2 0A8.5 8.5 0 0 0 3.5 4a1 1 0 1 1 0-2C9.299 2 14 6.701 14 12.5z"/></svg>