<?xml version="1.0" standalone="no"?><!DOCTYPE svg PUBLIC "-//W3C//DTD SVG 1.1//EN" "http://www.w3.org/Graphics/SVG/1.1/DTD/svg11.dtd"><svg width="12" height="12" viewBox="0 0 12 12" class="feedMicro" style="height:12px;margin-right:16px;width:12px;perspective-origin:6px 6px;transform-origin:6px 6px;shape-rendering:geometricprecision;" version="1.1" xmlns="http://www.w3.org/2000/svg" xmlns:xlink="http://www.w3.org/1999/xlink"><path fill-rule="evenodd" class="" fill="currentColor" d="M3 10a1 1 0 1 1 0-2 1 1 0 0 1 0 2zm4.75-.974a.75.75 0 0 1-1.5 0A3.25 3.25 0 0 0 3 5.776a.75.75 0 0 1 0-1.5 4.75 4.75 0 0 1 4.75 4.75zm3.026 0a.75.75 0 1 1-1.5 0A6.276 6.276 0 0 0 3 2.75a.75.75 0 0 1 0-1.5 7.776 7.776 0 0 1 7.776 7.776z" style="display:inline;height:auto;min-height:0px;min-width:0px;overflow-x:visible;overflow-y:visible;width:auto;perspective-origin:0px 0px;transform-origin:0px 0px;fill:rgb(51, 51, 51);fill-rule:evenodd;shape-rendering:geometricprecision;d:path(&quot;M 3 10 A 1 1 0 1 1 3 8 A 1 1 0 0 1 3 10 Z M 7.75 9.026 A 0.75 0.75 0 0 1 6.25 9.026 A 3.25 3.25 0 0 0 3 5.776 A 0.75 0.75 0 0 1 3 4.276 A 4.75 4.75 0 0 1 7.75 9.026 Z M 10.776 9.026 A 0.75 0.75 0 1 1 9.276 9.026 A 6.276 6.276 0 0 0 3 2.75 A 0.75 0.75 0 0 1 3 1.25 A 7.776 7.776 0 0 1 10.776 9.026 Z&quot;);"/></svg>