<?xml version="1.0" standalone="no"?><!DOCTYPE svg PUBLIC "-//W3C//DTD SVG 1.1//EN" "http://www.w3.org/Graphics/SVG/1.1/DTD/svg11.dtd"><svg width="16" height="16" viewBox="0 0 16 16" class="feed" style="height:16px;margin-right:8px;width:16px;perspective-origin:8px 8px;transform-origin:8px 8px;shape-rendering:geometricprecision;" version="1.1" xmlns="http://www.w3.org/2000/svg" xmlns:xlink="http://www.w3.org/1999/xlink"><path fill-rule="evenodd" class="" fill="currentColor" d="M3.5 14a1.5 1.5 0 1 1 0-3 1.5 1.5 0 0 1 0 3zm6.5-1.5a1 1 0 0 1-2 0A4.5 4.5 0 0 0 3.5 8a1 1 0 1 1 0-2 6.5 6.5 0 0 1 6.5 6.5zm4 0a1 1 0 0 1-2 0A8.5 8.5 0 0 0 3.5 4a1 1 0 1 1 0-2C9.299 2 14 6.701 14 12.5z" style="display:inline;height:auto;min-height:0px;min-width:0px;overflow-x:visible;overflow-y:visible;width:auto;perspective-origin:0px 0px;transform-origin:0px 0px;fill:rgb(51, 51, 51);fill-rule:evenodd;shape-rendering:geometricprecision;d:path(&quot;M 3.5 14 A 1.5 1.5 0 1 1 3.5 11 A 1.5 1.5 0 0 1 3.5 14 Z M 10 12.5 A 1 1 0 0 1 8 12.5 A 4.5 4.5 0 0 0 3.5 8 A 1 1 0 1 1 3.5 6 A 6.5 6.5 0 0 1 10 12.5 Z M 14 12.5 A 1 1 0 0 1 12 12.5 A 8.5 8.5 0 0 0 3.5 4 A 1 1 0 1 1 3.5 2 C 9.299 2 14 6.701 14 12.5 Z&quot;);"/></svg>