<?xml version="1.0" standalone="no"?><!DOCTYPE svg PUBLIC "-//W3C//DTD SVG 1.1//EN" "http://www.w3.org/Graphics/SVG/1.1/DTD/svg11.dtd"><svg width="16" height="16" viewBox="0 0 16 16" class="file" style="height:16px;margin-right:8px;width:16px;perspective-origin:8px 8px;transform-origin:8px 8px;shape-rendering:geometricprecision;" version="1.1" xmlns="http://www.w3.org/2000/svg" xmlns:xlink="http://www.w3.org/1999/xlink"><path fill-rule="evenodd" class="" fill="currentColor" d="M11.791,6 L9.498,6 C9.223,6 9,5.777 9,5.502 L9,3.213 C9,2.766 9.541,2.541 9.858,2.858 L12.145,5.145 C12.461,5.461 12.237,6 11.791,6 M10.7059121,1.70591205 C10.3160476,1.31604759 9.56211865,1 8.99707067,1 L5.00591905,1 C3.89808055,1 3,1.89706013 3,3.00585866 L3,12.9941413 C3,14.1019465 3.90017617,15 4.99201702,15 L12.007983,15 C13.1081436,15 14,14.1125667 14,13.000385 L14,5.99539757 C14,5.44565467 13.6861267,4.68612671 13.2940879,4.29408795 L10.7059121,1.70591205 Z" style="display:inline;height:auto;min-height:0px;min-width:0px;overflow-x:visible;overflow-y:visible;width:auto;perspective-origin:0px 0px;transform-origin:0px 0px;fill:rgb(51, 51, 51);fill-rule:evenodd;shape-rendering:geometricprecision;d:path(&quot;M 11.791 6 L 9.498 6 C 9.223 6 9 5.777 9 5.502 L 9 3.213 C 9 2.766 9.541 2.541 9.858 2.858 L 12.145 5.145 C 12.461 5.461 12.237 6 11.791 6 M 10.7059 1.70591 C 10.316 1.31605 9.56212 1 8.99707 1 L 5.00592 1 C 3.89808 1 3 1.89706 3 3.00586 L 3 12.9941 C 3 14.1019 3.90018 15 4.99202 15 L 12.008 15 C 13.1081 15 14 14.1126 14 13.0004 L 14 5.9954 C 14 5.44565 13.6861 4.68613 13.2941 4.29409 L 10.7059 1.70591 Z&quot;);"/></svg>