<?xml version="1.0" standalone="no"?><!DOCTYPE svg PUBLIC "-//W3C//DTD SVG 1.1//EN" "http://www.w3.org/Graphics/SVG/1.1/DTD/svg11.dtd"><svg width="12" height="12" viewBox="0 0 12 12" version="1.1" xmlns="http://www.w3.org/2000/svg" xmlns:xlink="http://www.w3.org/1999/xlink"><path fill-rule="evenodd" fill="currentColor" d="M8.7044,5 L6.6324,5 C6.2844,5 6.0004,4.715 6.0004,4.367 L6.0004,2.296 C6.0004,2.033 6.5264,1.901 6.7124,2.087 L8.8084,4.288 C8.9944,4.474 8.9674,5 8.7044,5 M7.38452371,1.35200507 C7.19005116,1.15759804 6.81618125,1 6.53151594,1 L2.99456127,1 C2.44550116,1 2.0004,1.4556644 2.0004,1.99539757 L2.0004,10.0046024 C2.0004,10.5543453 2.45343631,11 2.99743014,11 L9.00336986,11 C9.5540144,11 10.0004,10.5600544 10.0004,9.99234257 L10.0004,4.47279602 C10.0004,4.19345259 9.84082743,3.80748119 9.64827629,3.61499493 L7.38452371,1.35200507 Z"/></svg>