<?xml version="1.0" standalone="no"?><!DOCTYPE svg PUBLIC "-//W3C//DTD SVG 1.1//EN" "http://www.w3.org/Graphics/SVG/1.1/DTD/svg11.dtd"><svg width="12" height="12" viewBox="0 0 12 12" version="1.1" xmlns="http://www.w3.org/2000/svg" xmlns:xlink="http://www.w3.org/1999/xlink"><path fill-rule="evenodd" fill="currentColor" d="M6,12 C2.6862915,12 0,9.3137085 0,6 C0,2.6862915 2.6862915,2.22044605e-16 6,2.22044605e-16 C9.3137085,2.22044605e-16 12,2.6862915 12,6 C12,9.3137085 9.3137085,12 6,12 Z M2,3.5 C2,3.77614237 2.23079681,4 2.50043583,4 L9.49956417,4 C9.77594725,4 10,3.76806641 10,3.5 C10,3.22385763 9.76920319,3 9.49956417,3 L2.50043583,3 C2.22405275,3 2,3.23193359 2,3.5 Z M3.49999999,6.5 C3.49999999,6.76806641 3.72282733,7 3.99769878,7 L8.00230121,7 C8.28515624,7 8.49999999,6.77614237 8.49999999,6.5 C8.49999999,6.23193359 8.27717266,6 8.00230121,6 L3.99769878,6 C3.71484374,6 3.49999999,6.22385763 3.49999999,6.5 Z M4.5,9.5 C4.5,9.76806641 4.7217932,10 4.99538898,10 L7.00461102,10 C7.2842474,10 7.5,9.77614237 7.5,9.5 C7.5,9.23193359 7.2782068,9 7.00461102,9 L4.99538898,9 C4.7157526,9 4.5,9.22385763 4.5,9.5 Z"/></svg>