<?xml version="1.0" standalone="no"?><!DOCTYPE svg PUBLIC "-//W3C//DTD SVG 1.1//EN" "http://www.w3.org/Graphics/SVG/1.1/DTD/svg11.dtd"><svg width="16" height="16" viewBox="0 0 16 16" class="filter" style="height:16px;margin-right:8px;width:16px;perspective-origin:8px 8px;transform-origin:8px 8px;shape-rendering:geometricprecision;" version="1.1" xmlns="http://www.w3.org/2000/svg" xmlns:xlink="http://www.w3.org/1999/xlink"><path fill-rule="evenodd" class="" fill="currentColor" d="M5.5 13c0-.552.444-1 1-1h3c.552 0 1 .444 1 1 0 .552-.444 1-1 1h-3c-.552 0-1-.444-1-1zm-2-4c0-.552.446-1 .998-1h7.004c.551 0 .998.444.998 1 0 .552-.446 1-.998 1H4.498A.996.996 0 0 1 3.5 9zM1 4.5C1 3.672 1.675 3 2.498 3h11.004C14.329 3 15 3.666 15 4.5c0 .828-.675 1.5-1.498 1.5H2.498A1.495 1.495 0 0 1 1 4.5z" style="display:inline;height:auto;min-height:0px;min-width:0px;overflow-x:visible;overflow-y:visible;width:auto;perspective-origin:0px 0px;transform-origin:0px 0px;fill:rgb(51, 51, 51);fill-rule:evenodd;shape-rendering:geometricprecision;d:path(&quot;M 5.5 13 C 5.5 12.448 5.944 12 6.5 12 H 9.5 C 10.052 12 10.5 12.444 10.5 13 C 10.5 13.552 10.056 14 9.5 14 H 6.5 C 5.948 14 5.5 13.556 5.5 13 Z M 3.5 9 C 3.5 8.448 3.946 8 4.498 8 H 11.502 C 12.053 8 12.5 8.444 12.5 9 C 12.5 9.552 12.054 10 11.502 10 H 4.498 A 0.996 0.996 0 0 1 3.5 9 Z M 1 4.5 C 1 3.672 1.675 3 2.498 3 H 13.502 C 14.329 3 15 3.666 15 4.5 C 15 5.328 14.325 6 13.502 6 H 2.498 A 1.495 1.495 0 0 1 1 4.5 Z&quot;);"/></svg>