<?xml version="1.0" standalone="no"?><!DOCTYPE svg PUBLIC "-//W3C//DTD SVG 1.1//EN" "http://www.w3.org/Graphics/SVG/1.1/DTD/svg11.dtd"><svg width="16" height="16" viewBox="0 0 16 16" version="1.1" xmlns="http://www.w3.org/2000/svg" xmlns:xlink="http://www.w3.org/1999/xlink"><path fill-rule="evenodd" fill="currentColor" d="M5.5 13c0-.552.444-1 1-1h3c.552 0 1 .444 1 1 0 .552-.444 1-1 1h-3c-.552 0-1-.444-1-1zm-2-4c0-.552.446-1 .998-1h7.004c.551 0 .998.444.998 1 0 .552-.446 1-.998 1H4.498A.996.996 0 0 1 3.5 9zM1 4.5C1 3.672 1.675 3 2.498 3h11.004C14.329 3 15 3.666 15 4.5c0 .828-.675 1.5-1.498 1.5H2.498A1.495 1.495 0 0 1 1 4.5z"/></svg>