<?xml version="1.0" standalone="no"?><!DOCTYPE svg PUBLIC "-//W3C//DTD SVG 1.1//EN" "http://www.w3.org/Graphics/SVG/1.1/DTD/svg11.dtd"><svg width="12" height="12" viewBox="0 0 12 12" version="1.1" xmlns="http://www.w3.org/2000/svg" xmlns:xlink="http://www.w3.org/1999/xlink"><path fill-rule="evenodd" fill="currentColor" d="M4 3.261c0-.274.203-.586.454-.685 0 0 1.346-.674 2.546-.29 1.2.385 2.535-.214 2.535-.214.257-.094.465.051.465.335v4.467c0 .279-.218.57-.475.636 0 0-1.325.449-2.525.16-1.2-.288-3 .478-3 .478V3.261zM3 2.51A.51.51 0 0 1 3.5 2c.276 0 .5.222.5.51v7.98a.51.51 0 0 1-.5.51.501.501 0 0 1-.5-.51V2.51z"/></svg>