<?xml version="1.0" standalone="no"?><!DOCTYPE svg PUBLIC "-//W3C//DTD SVG 1.1//EN" "http://www.w3.org/Graphics/SVG/1.1/DTD/svg11.dtd"><svg width="12" height="12" viewBox="0 0 12 12" class="flagMicro" style="height:12px;margin-right:16px;width:12px;perspective-origin:6px 6px;transform-origin:6px 6px;shape-rendering:geometricprecision;" version="1.1" xmlns="http://www.w3.org/2000/svg" xmlns:xlink="http://www.w3.org/1999/xlink"><path fill-rule="evenodd" class="" fill="currentColor" d="M4 3.261c0-.274.203-.586.454-.685 0 0 1.346-.674 2.546-.29 1.2.385 2.535-.214 2.535-.214.257-.094.465.051.465.335v4.467c0 .279-.218.57-.475.636 0 0-1.325.449-2.525.16-1.2-.288-3 .478-3 .478V3.261zM3 2.51A.51.51 0 0 1 3.5 2c.276 0 .5.222.5.51v7.98a.51.51 0 0 1-.5.51.501.501 0 0 1-.5-.51V2.51z" style="display:inline;height:auto;min-height:0px;min-width:0px;overflow-x:visible;overflow-y:visible;width:auto;perspective-origin:0px 0px;transform-origin:0px 0px;fill:rgb(51, 51, 51);fill-rule:evenodd;shape-rendering:geometricprecision;d:path(&quot;M 4 3.261 C 4 2.987 4.203 2.675 4.454 2.576 C 4.454 2.576 5.8 1.902 7 2.286 C 8.2 2.671 9.535 2.072 9.535 2.072 C 9.792 1.978 10 2.123 10 2.407 V 6.874 C 10 7.153 9.782 7.444 9.525 7.51 C 9.525 7.51 8.2 7.959 7 7.67 C 5.8 7.382 4 8.148 4 8.148 V 3.261 Z M 3 2.51 A 0.51 0.51 0 0 1 3.5 2 C 3.776 2 4 2.222 4 2.51 V 10.49 A 0.51 0.51 0 0 1 3.5 11 A 0.501 0.501 0 0 1 3 10.49 V 2.51 Z&quot;);"/></svg>