<?xml version="1.0" standalone="no"?><!DOCTYPE svg PUBLIC "-//W3C//DTD SVG 1.1//EN" "http://www.w3.org/Graphics/SVG/1.1/DTD/svg11.dtd"><svg width="16" height="16" viewBox="0 0 16 16" version="1.1" xmlns="http://www.w3.org/2000/svg" xmlns:xlink="http://www.w3.org/1999/xlink"><path fill-rule="evenodd" fill="currentColor" d="M4.75 3.745c.93-.3 2.543-.7 3.75-.36 1.8.508 4.023-.349 4.023-.349.264-.087.477.066.477.338v6.238c0 .274-.221.555-.477.617 0 0-2.223.645-4.023.264-1.207-.255-2.82.116-3.75.388v2.618a.5.5 0 0 1-.508.501h-.484a.508.508 0 0 1-.508-.501V3.5A.5.5 0 0 1 3.758 3h.484c.28 0 .508.23.508.501v.244z"/></svg>