<?xml version="1.0" standalone="no"?><!DOCTYPE svg PUBLIC "-//W3C//DTD SVG 1.1//EN" "http://www.w3.org/Graphics/SVG/1.1/DTD/svg11.dtd"><svg width="16" height="16" viewBox="0 0 16 16" class="flag" style="height:16px;margin-right:8px;width:16px;perspective-origin:8px 8px;transform-origin:8px 8px;shape-rendering:geometricprecision;" version="1.1" xmlns="http://www.w3.org/2000/svg" xmlns:xlink="http://www.w3.org/1999/xlink"><path fill-rule="evenodd" class="" fill="currentColor" d="M4.75 3.745c.93-.3 2.543-.7 3.75-.36 1.8.508 4.023-.349 4.023-.349.264-.087.477.066.477.338v6.238c0 .274-.221.555-.477.617 0 0-2.223.645-4.023.264-1.207-.255-2.82.116-3.75.388v2.618a.5.5 0 0 1-.508.501h-.484a.508.508 0 0 1-.508-.501V3.5A.5.5 0 0 1 3.758 3h.484c.28 0 .508.23.508.501v.244z" style="display:inline;height:auto;min-height:0px;min-width:0px;overflow-x:visible;overflow-y:visible;width:auto;perspective-origin:0px 0px;transform-origin:0px 0px;fill:rgb(51, 51, 51);fill-rule:evenodd;shape-rendering:geometricprecision;d:path(&quot;M 4.75 3.745 C 5.68 3.445 7.293 3.045 8.5 3.385 C 10.3 3.893 12.523 3.036 12.523 3.036 C 12.787 2.949 13 3.102 13 3.374 V 9.612 C 13 9.886 12.779 10.167 12.523 10.229 C 12.523 10.229 10.3 10.874 8.5 10.493 C 7.293 10.238 5.68 10.609 4.75 10.881 V 13.499 A 0.5 0.5 0 0 1 4.242 14 H 3.758 A 0.508 0.508 0 0 1 3.25 13.499 V 3.5 A 0.5 0.5 0 0 1 3.758 3 H 4.242 C 4.522 3 4.75 3.23 4.75 3.501 V 3.745 Z&quot;);"/></svg>