<?xml version="1.0" standalone="no"?><!DOCTYPE svg PUBLIC "-//W3C//DTD SVG 1.1//EN" "http://www.w3.org/Graphics/SVG/1.1/DTD/svg11.dtd"><svg width="12" height="12" viewBox="0 0 12 12" class="formulaMicro" style="height:12px;margin-right:16px;width:12px;perspective-origin:6px 6px;transform-origin:6px 6px;shape-rendering:geometricprecision;" version="1.1" xmlns="http://www.w3.org/2000/svg" xmlns:xlink="http://www.w3.org/1999/xlink"><path fill-rule="evenodd" class="" fill="currentColor" d="M9.6711,8.4678 L11.1011,9.8978 C11.2961,10.0928 11.2961,10.4108 11.1011,10.6048 L10.9161,10.7898 C10.7221,10.9848 10.4041,10.9848 10.2091,10.7898 L8.7791,9.3598 L7.3491,10.7898 C7.1541,10.9848 6.8361,10.9848 6.6421,10.7898 L6.4571,10.6048 C6.2631,10.4108 6.2631,10.0928 6.4571,9.8978 L7.8871,8.4678 L6.4571,7.0378 C6.2631,6.8428 6.2631,6.5248 6.4571,6.3308 L6.6421,6.1458 C6.8361,5.9518 7.1541,5.9518 7.3491,6.1458 L8.7791,7.5758 L10.2091,6.1458 C10.4041,5.9518 10.7221,5.9518 10.9161,6.1458 L11.1011,6.3308 C11.2961,6.5248 11.2961,6.8428 11.1011,7.0378 L9.6711,8.4678 Z M6.2471,2 C6.2471,2 5.4151,1.881 5.2161,3.094 C5.1631,3.416 5.1141,3.712 5.0671,4 L5.7471,4 C6.0221,4 6.2471,4.225 6.2471,4.5 C6.2471,4.775 6.0221,5 5.7471,5 L4.9031,5 C4.2471,8.997 4.2471,9 4.2471,9 C4.2471,9 4.0231,11 3.2471,11 C2.8481,11 2.2121,11.017 1.0001,11.005 L1.2471,10 C1.2471,10 2.0591,10.129 2.2471,9 C2.5541,7.157 2.7661,5.885 2.9141,5 L2.0281,5 C1.7531,5 1.5281,4.775 1.5281,4.5 C1.5281,4.225 1.7531,4 2.0281,4 L3.0801,4 C3.2461,3.007 3.2471,3 3.2471,3 C3.2471,3 3.4551,0.958 5.2471,1 C5.3711,1.003 6.5911,0.999 6.5911,0.999 L6.2471,2 Z" style="display:inline;height:auto;min-height:0px;min-width:0px;overflow-x:visible;overflow-y:visible;width:auto;perspective-origin:0px 0px;transform-origin:0px 0px;fill:rgb(51, 51, 51);fill-rule:evenodd;shape-rendering:geometricprecision;d:path(&quot;M 9.6711 8.4678 L 11.1011 9.8978 C 11.2961 10.0928 11.2961 10.4108 11.1011 10.6048 L 10.9161 10.7898 C 10.7221 10.9848 10.4041 10.9848 10.2091 10.7898 L 8.7791 9.3598 L 7.3491 10.7898 C 7.1541 10.9848 6.8361 10.9848 6.6421 10.7898 L 6.4571 10.6048 C 6.2631 10.4108 6.2631 10.0928 6.4571 9.8978 L 7.8871 8.4678 L 6.4571 7.0378 C 6.2631 6.8428 6.2631 6.5248 6.4571 6.3308 L 6.6421 6.1458 C 6.8361 5.9518 7.1541 5.9518 7.3491 6.1458 L 8.7791 7.5758 L 10.2091 6.1458 C 10.4041 5.9518 10.7221 5.9518 10.9161 6.1458 L 11.1011 6.3308 C 11.2961 6.5248 11.2961 6.8428 11.1011 7.0378 L 9.6711 8.4678 Z M 6.2471 2 C 6.2471 2 5.4151 1.881 5.2161 3.094 C 5.1631 3.416 5.1141 3.712 5.0671 4 L 5.7471 4 C 6.0221 4 6.2471 4.225 6.2471 4.5 C 6.2471 4.775 6.0221 5 5.7471 5 L 4.9031 5 C 4.2471 8.997 4.2471 9 4.2471 9 C 4.2471 9 4.0231 11 3.2471 11 C 2.8481 11 2.2121 11.017 1.0001 11.005 L 1.2471 10 C 1.2471 10 2.0591 10.129 2.2471 9 C 2.5541 7.157 2.7661 5.885 2.9141 5 L 2.0281 5 C 1.7531 5 1.5281 4.775 1.5281 4.5 C 1.5281 4.225 1.7531 4 2.0281 4 L 3.0801 4 C 3.2461 3.007 3.2471 3 3.2471 3 C 3.2471 3 3.4551 0.958 5.2471 1 C 5.3711 1.003 6.5911 0.999 6.5911 0.999 L 6.2471 2 Z&quot;);"/></svg>