<?xml version="1.0" standalone="no"?><!DOCTYPE svg PUBLIC "-//W3C//DTD SVG 1.1//EN" "http://www.w3.org/Graphics/SVG/1.1/DTD/svg11.dtd"><svg width="16" height="16" viewBox="0 0 16 16" class="form" style="height:16px;margin-right:8px;width:16px;perspective-origin:8px 8px;transform-origin:8px 8px;shape-rendering:geometricprecision;" version="1.1" xmlns="http://www.w3.org/2000/svg" xmlns:xlink="http://www.w3.org/1999/xlink"><path fill-rule="evenodd" class="" fill="currentColor" d="M0 1.994C0 .893.895 0 1.994 0h12.012C15.107 0 16 .895 16 1.994v12.012A1.995 1.995 0 0 1 14.006 16H1.994A1.995 1.995 0 0 1 0 14.006V1.994zM2 2.5c0 .268.22.5.49.5h3.02c.275 0 .49-.224.49-.5a.5.5 0 0 0-.49-.5H2.49a.492.492 0 0 0-.49.5zm0 3C2 6.334 2.67 7 3.496 7h9.008C13.32 7 14 6.328 14 5.5c0-.834-.67-1.5-1.496-1.5H3.496C2.68 4 2 4.672 2 5.5zm0 7c0 .834.67 1.5 1.496 1.5h9.008C13.32 14 14 13.328 14 12.5c0-.834-.67-1.5-1.496-1.5H3.496C2.68 11 2 11.672 2 12.5zm0-3c0 .268.22.5.49.5h3.02c.275 0 .49-.224.49-.5a.5.5 0 0 0-.49-.5H2.49a.492.492 0 0 0-.49.5z" style="display:inline;height:auto;min-height:0px;min-width:0px;overflow-x:visible;overflow-y:visible;width:auto;perspective-origin:0px 0px;transform-origin:0px 0px;fill:rgb(51, 51, 51);fill-rule:evenodd;shape-rendering:geometricprecision;d:path(&quot;M 0 1.994 C 0 0.893 0.895 0 1.994 0 H 14.006 C 15.107 0 16 0.895 16 1.994 V 14.006 A 1.995 1.995 0 0 1 14.006 16 H 1.994 A 1.995 1.995 0 0 1 0 14.006 V 1.994 Z M 2 2.5 C 2 2.768 2.22 3 2.49 3 H 5.51 C 5.785 3 6 2.776 6 2.5 A 0.5 0.5 0 0 0 5.51 2 H 2.49 A 0.492 0.492 0 0 0 2 2.5 Z M 2 5.5 C 2 6.334 2.67 7 3.496 7 H 12.504 C 13.32 7 14 6.328 14 5.5 C 14 4.666 13.33 4 12.504 4 H 3.496 C 2.68 4 2 4.672 2 5.5 Z M 2 12.5 C 2 13.334 2.67 14 3.496 14 H 12.504 C 13.32 14 14 13.328 14 12.5 C 14 11.666 13.33 11 12.504 11 H 3.496 C 2.68 11 2 11.672 2 12.5 Z M 2 9.5 C 2 9.768 2.22 10 2.49 10 H 5.51 C 5.785 10 6 9.776 6 9.5 A 0.5 0.5 0 0 0 5.51 9 H 2.49 A 0.492 0.492 0 0 0 2 9.5 Z&quot;);"/></svg>