<?xml version="1.0" standalone="no"?><!DOCTYPE svg PUBLIC "-//W3C//DTD SVG 1.1//EN" "http://www.w3.org/Graphics/SVG/1.1/DTD/svg11.dtd"><svg width="12" height="12" viewBox="0 0 12 12" class="formMicro" style="height:12px;margin-right:16px;width:12px;perspective-origin:6px 6px;transform-origin:6px 6px;shape-rendering:geometricprecision;" version="1.1" xmlns="http://www.w3.org/2000/svg" xmlns:xlink="http://www.w3.org/1999/xlink"><path fill-rule="evenodd" class="" fill="currentColor" d="M0 2.009A2.01 2.01 0 0 1 2.009 0H9.99A2.01 2.01 0 0 1 12 2.009V9.99A2.01 2.01 0 0 1 9.991 12H2.01A2.01 2.01 0 0 1 0 9.991V2.01zM2 2.5c0 .268.226.5.505.5h.99C3.786 3 4 2.776 4 2.5c0-.268-.226-.5-.505-.5h-.99A.495.495 0 0 0 2 2.5zM2 6c0 .556.446 1 .997 1h6.006C9.547 7 10 6.552 10 6c0-.556-.446-1-.997-1H2.997C2.453 5 2 5.448 2 6zm0 3c0 .556.446 1 .997 1h6.006c.544 0 .997-.448.997-1 0-.556-.446-1-.997-1H2.997C2.453 8 2 8.448 2 9z" style="display:inline;height:auto;min-height:0px;min-width:0px;overflow-x:visible;overflow-y:visible;width:auto;perspective-origin:0px 0px;transform-origin:0px 0px;fill:rgb(51, 51, 51);fill-rule:evenodd;shape-rendering:geometricprecision;d:path(&quot;M 0 2.009 A 2.01 2.01 0 0 1 2.009 0 H 9.99 A 2.01 2.01 0 0 1 12 2.009 V 9.99 A 2.01 2.01 0 0 1 9.991 12 H 2.01 A 2.01 2.01 0 0 1 0 9.991 V 2.01 Z M 2 2.5 C 2 2.768 2.226 3 2.505 3 H 3.495 C 3.786 3 4 2.776 4 2.5 C 4 2.232 3.774 2 3.495 2 H 2.505 A 0.495 0.495 0 0 0 2 2.5 Z M 2 6 C 2 6.556 2.446 7 2.997 7 H 9.003 C 9.547 7 10 6.552 10 6 C 10 5.444 9.554 5 9.003 5 H 2.997 C 2.453 5 2 5.448 2 6 Z M 2 9 C 2 9.556 2.446 10 2.997 10 H 9.003 C 9.547 10 10 9.552 10 9 C 10 8.444 9.554 8 9.003 8 H 2.997 C 2.453 8 2 8.448 2 9 Z&quot;);"/></svg>