<?xml version="1.0" standalone="no"?><!DOCTYPE svg PUBLIC "-//W3C//DTD SVG 1.1//EN" "http://www.w3.org/Graphics/SVG/1.1/DTD/svg11.dtd"><svg width="16" height="16" viewBox="0 0 16 16" version="1.1" xmlns="http://www.w3.org/2000/svg" xmlns:xlink="http://www.w3.org/1999/xlink"><path fill-rule="evenodd" fill="currentColor" d="M0 1.994C0 .893.895 0 1.994 0h12.012C15.107 0 16 .895 16 1.994v12.012A1.995 1.995 0 0 1 14.006 16H1.994A1.995 1.995 0 0 1 0 14.006V1.994zM2 2.5c0 .268.22.5.49.5h3.02c.275 0 .49-.224.49-.5a.5.5 0 0 0-.49-.5H2.49a.492.492 0 0 0-.49.5zm0 3C2 6.334 2.67 7 3.496 7h9.008C13.32 7 14 6.328 14 5.5c0-.834-.67-1.5-1.496-1.5H3.496C2.68 4 2 4.672 2 5.5zm0 7c0 .834.67 1.5 1.496 1.5h9.008C13.32 14 14 13.328 14 12.5c0-.834-.67-1.5-1.496-1.5H3.496C2.68 11 2 11.672 2 12.5zm0-3c0 .268.22.5.49.5h3.02c.275 0 .49-.224.49-.5a.5.5 0 0 0-.49-.5H2.49a.492.492 0 0 0-.49.5z"/></svg>