<?xml version="1.0" standalone="no"?><!DOCTYPE svg PUBLIC "-//W3C//DTD SVG 1.1//EN" "http://www.w3.org/Graphics/SVG/1.1/DTD/svg11.dtd"><svg width="12" height="12" viewBox="0 0 12 12" version="1.1" xmlns="http://www.w3.org/2000/svg" xmlns:xlink="http://www.w3.org/1999/xlink"><path fill-rule="evenodd" fill="currentColor" d="M0 2.009A2.01 2.01 0 0 1 2.009 0H9.99A2.01 2.01 0 0 1 12 2.009V9.99A2.01 2.01 0 0 1 9.991 12H2.01A2.01 2.01 0 0 1 0 9.991V2.01zM2 2.5c0 .268.226.5.505.5h.99C3.786 3 4 2.776 4 2.5c0-.268-.226-.5-.505-.5h-.99A.495.495 0 0 0 2 2.5zM2 6c0 .556.446 1 .997 1h6.006C9.547 7 10 6.552 10 6c0-.556-.446-1-.997-1H2.997C2.453 5 2 5.448 2 6zm0 3c0 .556.446 1 .997 1h6.006c.544 0 .997-.448.997-1 0-.556-.446-1-.997-1H2.997C2.453 8 2 8.448 2 9z"/></svg>