<?xml version="1.0" standalone="no"?><!DOCTYPE svg PUBLIC "-//W3C//DTD SVG 1.1//EN" "http://www.w3.org/Graphics/SVG/1.1/DTD/svg11.dtd"><svg width="16" height="16" viewBox="0 0 16 16" version="1.1" xmlns="http://www.w3.org/2000/svg" xmlns:xlink="http://www.w3.org/1999/xlink"><path fill-rule="evenodd" fill="currentColor" d="M13.427,12.2326 L14.489,13.2946 C14.877,13.6826 14.877,14.3196 14.488,14.7086 C14.1,15.0976 13.463,15.0976 13.074,14.7086 L12.013,13.6476 L10.953,14.7086 C10.564,15.0976 9.928,15.0976 9.539,14.7086 L9.538,14.7076 C9.149,14.3196 9.149,13.6836 9.538,13.2946 L10.599,12.2326 L9.539,11.1726 C9.15,10.7836 9.15,10.1476 9.539,9.7586 C9.928,9.3696 10.564,9.3696 10.953,9.7586 L12.012,10.8176 L13.073,9.7556 C13.463,9.3656 14.099,9.3656 14.488,9.7546 L14.489,9.7556 C14.877,10.1446 14.877,10.7806 14.489,11.1696 L13.427,12.2326 Z M10.2468,0.0002 C12.87146,0.0002 13.3978592,2.53145 13.3978592,2.53145 C13.4839914,2.7844474 13.3156952,3.0002 13.0341343,3.0002 L11.756611,3.0002 C11.4754573,3.0002 11.1584611,2.7973017 11.0494895,2.54701396 C11.0494895,2.54701396 10.977478,2.0002 10.2468,2.0002 C9.4658,2.0002 9.2468,3.0002 9.2468,3.0002 L8.8468,5.0002 L9.2468,5.0002 L10.7468,5.0002 C11.0218,5.0002 11.2468,5.2252 11.2468,5.5002 C11.2468,5.7752 11.0218,6.0002 10.7468,6.0002 L9.2468,6.0002 L8.6468,6.0002 L7.2468,13.0002 C6.9348,14.3752 5.4968,16.0002 3.2468,16.0002 C1.2138,16.0002 0.5268,14.1722 0.3238,13.3702 C0.2748,13.1802 0.4208,13.0002 0.6168,13.0002 L1.74888936,13.0002 C2.02015548,13.0002 2.34410227,13.1978777 2.46413071,13.4417255 C2.46413071,13.4417255 2.59429932,14.0002 3.2468,14.0002 C4.0288,14.0002 4.2468,13.0002 4.2468,13.0002 L5.6468,6.0002 L5.2468,6.0002 L4.7468,6.0002 C4.4718,6.0002 4.2468,5.7752 4.2468,5.5002 C4.2468,5.2252 4.4718,5.0002 4.7468,5.0002 L5.2468,5.0002 L5.8468,5.0002 L6.2468,3.0002 C6.5598,1.6252 7.62214004,0.0002 10.2468,0.0002 Z"/></svg>