<?xml version="1.0" standalone="no"?><!DOCTYPE svg PUBLIC "-//W3C//DTD SVG 1.1//EN" "http://www.w3.org/Graphics/SVG/1.1/DTD/svg11.dtd"><svg width="12" height="12" viewBox="0 0 12 12" version="1.1" xmlns="http://www.w3.org/2000/svg" xmlns:xlink="http://www.w3.org/1999/xlink"><path fill-rule="evenodd" fill="currentColor" d="M4 0H2C0.895431 0 0 0.895432 0 2V4H2V2H4V0Z M4 10.0154H2V8H0V10.0154C0 11.12 0.895431 12.0154 2 12.0154H4V10.0154Z M8 12.0154V10.0154H10V8H12V10.0154C12 11.12 11.1046 12.0154 10 12.0154H8Z M8 2V0H10C11.1046 0 12 0.895431 12 2V4H10V2H8Z M3.5 4.5C3.5 3.94772 3.94772 3.5 4.5 3.5H7.5C8.05228 3.5 8.5 3.94772 8.5 4.5V7.5C8.5 8.05228 8.05228 8.5 7.5 8.5H4.5C3.94772 8.5 3.5 8.05228 3.5 7.5V4.5Z"/></svg>