<?xml version="1.0" standalone="no"?><!DOCTYPE svg PUBLIC "-//W3C//DTD SVG 1.1//EN" "http://www.w3.org/Graphics/SVG/1.1/DTD/svg11.dtd"><svg width="16" height="16" viewBox="0 0 16 16" class="fullscreen" style="height:16px;margin-right:8px;width:16px;perspective-origin:8px 8px;transform-origin:8px 8px;shape-rendering:geometricprecision;" version="1.1" xmlns="http://www.w3.org/2000/svg" xmlns:xlink="http://www.w3.org/1999/xlink"><path fill-rule="evenodd" class="" fill="currentColor" d="M5 4h6a1 1 0 0 1 1 1v6a1 1 0 0 1-1 1H5a1 1 0 0 1-1-1V5a1 1 0 0 1 1-1zm1.5 2a.5.5 0 0 0-.5.5v3a.5.5 0 0 0 .5.5h3a.5.5 0 0 0 .5-.5v-3a.5.5 0 0 0-.5-.5h-3zm-3-4h1a.5.5 0 0 1 0 1H4a1 1 0 0 0-1 1v.5a.5.5 0 0 1-1 0v-1A1.5 1.5 0 0 1 3.5 2zm9 0A1.5 1.5 0 0 1 14 3.5v1a.5.5 0 1 1-1 0V4a1 1 0 0 0-1-1h-.5a.5.5 0 1 1 0-1h1zm-9 12A1.5 1.5 0 0 1 2 12.5v-1a.5.5 0 1 1 1 0v.5a1 1 0 0 0 1 1h.5a.5.5 0 1 1 0 1h-1zm9 0h-1a.5.5 0 1 1 0-1h.5a1 1 0 0 0 1-1v-.5a.5.5 0 1 1 1 0v1a1.5 1.5 0 0 1-1.5 1.5z" style="display:inline;height:auto;min-height:0px;min-width:0px;overflow-x:visible;overflow-y:visible;width:auto;perspective-origin:0px 0px;transform-origin:0px 0px;fill:rgb(51, 51, 51);fill-rule:evenodd;shape-rendering:geometricprecision;d:path(&quot;M 5 4 H 11 A 1 1 0 0 1 12 5 V 11 A 1 1 0 0 1 11 12 H 5 A 1 1 0 0 1 4 11 V 5 A 1 1 0 0 1 5 4 Z M 6.5 6 A 0.5 0.5 0 0 0 6 6.5 V 9.5 A 0.5 0.5 0 0 0 6.5 10 H 9.5 A 0.5 0.5 0 0 0 10 9.5 V 6.5 A 0.5 0.5 0 0 0 9.5 6 H 6.5 Z M 3.5 2 H 4.5 A 0.5 0.5 0 0 1 4.5 3 H 4 A 1 1 0 0 0 3 4 V 4.5 A 0.5 0.5 0 0 1 2 4.5 V 3.5 A 1.5 1.5 0 0 1 3.5 2 Z M 12.5 2 A 1.5 1.5 0 0 1 14 3.5 V 4.5 A 0.5 0.5 0 1 1 13 4.5 V 4 A 1 1 0 0 0 12 3 H 11.5 A 0.5 0.5 0 1 1 11.5 2 H 12.5 Z M 3.5 14 A 1.5 1.5 0 0 1 2 12.5 V 11.5 A 0.5 0.5 0 1 1 3 11.5 V 12 A 1 1 0 0 0 4 13 H 4.5 A 0.5 0.5 0 1 1 4.5 14 H 3.5 Z M 12.5 14 H 11.5 A 0.5 0.5 0 1 1 11.5 13 H 12 A 1 1 0 0 0 13 12 V 11.5 A 0.5 0.5 0 1 1 14 11.5 V 12.5 A 1.5 1.5 0 0 1 12.5 14 Z&quot;);"/></svg>