<?xml version="1.0" standalone="no"?><!DOCTYPE svg PUBLIC "-//W3C//DTD SVG 1.1//EN" "http://www.w3.org/Graphics/SVG/1.1/DTD/svg11.dtd"><svg width="12" height="12" viewBox="0 0 12 12" class="fullscreenMicro" style="height:12px;margin-right:16px;width:12px;perspective-origin:6px 6px;transform-origin:6px 6px;shape-rendering:geometricprecision;" version="1.1" xmlns="http://www.w3.org/2000/svg" xmlns:xlink="http://www.w3.org/1999/xlink"><path fill-rule="evenodd" class="" fill="currentColor" d="M4 3h4a1 1 0 0 1 1 1v4a1 1 0 0 1-1 1H4a1 1 0 0 1-1-1V4a1 1 0 0 1 1-1zm.5 1a.5.5 0 0 0-.5.5v3a.5.5 0 0 0 .5.5h3a.5.5 0 0 0 .5-.5v-3a.5.5 0 0 0-.5-.5h-3zm5-3A1.5 1.5 0 0 1 11 2.5v1a.5.5 0 1 1-1 0V3a1 1 0 0 0-1-1h-.5a.5.5 0 0 1 0-1h1zm0 10h-1a.5.5 0 1 1 0-1H9a1 1 0 0 0 1-1v-.5a.5.5 0 1 1 1 0v1A1.5 1.5 0 0 1 9.5 11zm-7 0A1.5 1.5 0 0 1 1 9.5v-1a.5.5 0 0 1 1 0V9a1 1 0 0 0 1 1h.5a.5.5 0 1 1 0 1h-1zm0-10h1a.5.5 0 0 1 0 1H3a1 1 0 0 0-1 1v.5a.5.5 0 0 1-1 0v-1A1.5 1.5 0 0 1 2.5 1z" style="display:inline;height:auto;min-height:0px;min-width:0px;overflow-x:visible;overflow-y:visible;width:auto;perspective-origin:0px 0px;transform-origin:0px 0px;fill:rgb(51, 51, 51);fill-rule:evenodd;shape-rendering:geometricprecision;d:path(&quot;M 4 3 H 8 A 1 1 0 0 1 9 4 V 8 A 1 1 0 0 1 8 9 H 4 A 1 1 0 0 1 3 8 V 4 A 1 1 0 0 1 4 3 Z M 4.5 4 A 0.5 0.5 0 0 0 4 4.5 V 7.5 A 0.5 0.5 0 0 0 4.5 8 H 7.5 A 0.5 0.5 0 0 0 8 7.5 V 4.5 A 0.5 0.5 0 0 0 7.5 4 H 4.5 Z M 9.5 1 A 1.5 1.5 0 0 1 11 2.5 V 3.5 A 0.5 0.5 0 1 1 10 3.5 V 3 A 1 1 0 0 0 9 2 H 8.5 A 0.5 0.5 0 0 1 8.5 1 H 9.5 Z M 9.5 11 H 8.5 A 0.5 0.5 0 1 1 8.5 10 H 9 A 1 1 0 0 0 10 9 V 8.5 A 0.5 0.5 0 1 1 11 8.5 V 9.5 A 1.5 1.5 0 0 1 9.5 11 Z M 2.5 11 A 1.5 1.5 0 0 1 1 9.5 V 8.5 A 0.5 0.5 0 0 1 2 8.5 V 9 A 1 1 0 0 0 3 10 H 3.5 A 0.5 0.5 0 1 1 3.5 11 H 2.5 Z M 2.5 1 H 3.5 A 0.5 0.5 0 0 1 3.5 2 H 3 A 1 1 0 0 0 2 3 V 3.5 A 0.5 0.5 0 0 1 1 3.5 V 2.5 A 1.5 1.5 0 0 1 2.5 1 Z&quot;);"/></svg>