<?xml version="1.0" standalone="no"?><!DOCTYPE svg PUBLIC "-//W3C//DTD SVG 1.1//EN" "http://www.w3.org/Graphics/SVG/1.1/DTD/svg11.dtd"><svg width="16" height="16" viewBox="0 0 16 16" version="1.1" xmlns="http://www.w3.org/2000/svg" xmlns:xlink="http://www.w3.org/1999/xlink"><path fill-rule="evenodd" fill="currentColor" d="M5 0H3C1.34315 0 0 1.34315 0 3V6H3V3H5V0Z M5 13H3V11H0V13C0 14.6569 1.34315 16 3 16H5V13Z M11 16V13H13V11H16V13C16 14.6569 14.6569 16 13 16H11Z M11 3V0H13C14.6569 0 16 1.34315 16 3V6H13V3H11Z M5 7C5 5.89543 5.89543 5 7 5H9C10.1046 5 11 5.89543 11 7V9C11 10.1046 10.1046 11 9 11H7C5.89543 11 5 10.1046 5 9V7Z"/></svg>