<?xml version="1.0" standalone="no"?><!DOCTYPE svg PUBLIC "-//W3C//DTD SVG 1.1//EN" "http://www.w3.org/Graphics/SVG/1.1/DTD/svg11.dtd"><svg width="16" height="16" viewBox="0 0 16 16" class="gallery" style="height:16px;margin-right:8px;width:16px;perspective-origin:8px 8px;transform-origin:8px 8px;shape-rendering:geometricprecision;" version="1.1" xmlns="http://www.w3.org/2000/svg" xmlns:xlink="http://www.w3.org/1999/xlink"><path fill-rule="evenodd" class="" fill="currentColor" d="M0 1.994C0 .893.895 0 1.994 0h12.012C15.107 0 16 .895 16 1.994v12.012A1.995 1.995 0 0 1 14.006 16H1.994A1.995 1.995 0 0 1 0 14.006V1.994zM2 3.5v2C2 6.326 2.672 7 3.5 7h2C6.326 7 7 6.328 7 5.5v-2C7 2.674 6.328 2 5.5 2h-2C2.674 2 2 2.672 2 3.5zm0 7v2c0 .826.672 1.5 1.5 1.5h2c.826 0 1.5-.672 1.5-1.5v-2C7 9.674 6.328 9 5.5 9h-2C2.674 9 2 9.672 2 10.5zm7-7v2c0 .826.672 1.5 1.5 1.5h2c.826 0 1.5-.672 1.5-1.5v-2c0-.826-.672-1.5-1.5-1.5h-2C9.674 2 9 2.672 9 3.5zm0 7v2c0 .826.672 1.5 1.5 1.5h2c.826 0 1.5-.672 1.5-1.5v-2c0-.826-.672-1.5-1.5-1.5h-2C9.674 9 9 9.672 9 10.5z" style="display:inline;height:auto;min-height:0px;min-width:0px;overflow-x:visible;overflow-y:visible;width:auto;perspective-origin:0px 0px;transform-origin:0px 0px;fill:rgb(51, 51, 51);fill-rule:evenodd;shape-rendering:geometricprecision;d:path(&quot;M 0 1.994 C 0 0.893 0.895 0 1.994 0 H 14.006 C 15.107 0 16 0.895 16 1.994 V 14.006 A 1.995 1.995 0 0 1 14.006 16 H 1.994 A 1.995 1.995 0 0 1 0 14.006 V 1.994 Z M 2 3.5 V 5.5 C 2 6.326 2.672 7 3.5 7 H 5.5 C 6.326 7 7 6.328 7 5.5 V 3.5 C 7 2.674 6.328 2 5.5 2 H 3.5 C 2.674 2 2 2.672 2 3.5 Z M 2 10.5 V 12.5 C 2 13.326 2.672 14 3.5 14 H 5.5 C 6.326 14 7 13.328 7 12.5 V 10.5 C 7 9.674 6.328 9 5.5 9 H 3.5 C 2.674 9 2 9.672 2 10.5 Z M 9 3.5 V 5.5 C 9 6.326 9.672 7 10.5 7 H 12.5 C 13.326 7 14 6.328 14 5.5 V 3.5 C 14 2.674 13.328 2 12.5 2 H 10.5 C 9.674 2 9 2.672 9 3.5 Z M 9 10.5 V 12.5 C 9 13.326 9.672 14 10.5 14 H 12.5 C 13.326 14 14 13.328 14 12.5 V 10.5 C 14 9.674 13.328 9 12.5 9 H 10.5 C 9.674 9 9 9.672 9 10.5 Z&quot;);"/></svg>