<?xml version="1.0" standalone="no"?><!DOCTYPE svg PUBLIC "-//W3C//DTD SVG 1.1//EN" "http://www.w3.org/Graphics/SVG/1.1/DTD/svg11.dtd"><svg width="16" height="16" viewBox="0 0 16 16" version="1.1" xmlns="http://www.w3.org/2000/svg" xmlns:xlink="http://www.w3.org/1999/xlink"><path fill-rule="evenodd" fill="currentColor" d="M0 1.994C0 .893.895 0 1.994 0h12.012C15.107 0 16 .895 16 1.994v12.012A1.995 1.995 0 0 1 14.006 16H1.994A1.995 1.995 0 0 1 0 14.006V1.994zM2 3.5v2C2 6.326 2.672 7 3.5 7h2C6.326 7 7 6.328 7 5.5v-2C7 2.674 6.328 2 5.5 2h-2C2.674 2 2 2.672 2 3.5zm0 7v2c0 .826.672 1.5 1.5 1.5h2c.826 0 1.5-.672 1.5-1.5v-2C7 9.674 6.328 9 5.5 9h-2C2.674 9 2 9.672 2 10.5zm7-7v2c0 .826.672 1.5 1.5 1.5h2c.826 0 1.5-.672 1.5-1.5v-2c0-.826-.672-1.5-1.5-1.5h-2C9.674 2 9 2.672 9 3.5zm0 7v2c0 .826.672 1.5 1.5 1.5h2c.826 0 1.5-.672 1.5-1.5v-2c0-.826-.672-1.5-1.5-1.5h-2C9.674 9 9 9.672 9 10.5z"/></svg>