<?xml version="1.0" standalone="no"?><!DOCTYPE svg PUBLIC "-//W3C//DTD SVG 1.1//EN" "http://www.w3.org/Graphics/SVG/1.1/DTD/svg11.dtd"><svg width="12" height="12" viewBox="0 0 12 12" version="1.1" xmlns="http://www.w3.org/2000/svg" xmlns:xlink="http://www.w3.org/1999/xlink"><path fill-rule="evenodd" fill="currentColor" d="M0 2.009A2.01 2.01 0 0 1 2.009 0H9.99A2.01 2.01 0 0 1 12 2.009V9.99A2.01 2.01 0 0 1 9.991 12H2.01A2.01 2.01 0 0 1 0 9.991V2.01zM4.001 2c.552 0 .999.443.999.999v1.002A.996.996 0 0 1 4.001 5H2.999A.996.996 0 0 1 2 4.001V2.999C2 2.447 2.443 2 2.999 2h1.002zm5 0c.552 0 .999.443.999.999v1.002A.996.996 0 0 1 9.001 5H7.999A.996.996 0 0 1 7 4.001V2.999C7 2.447 7.443 2 7.999 2h1.002zm-5 5c.552 0 .999.443.999.999v1.002a.996.996 0 0 1-.999.999H2.999A.996.996 0 0 1 2 9.001V7.999C2 7.447 2.443 7 2.999 7h1.002zm5 0c.552 0 .999.443.999.999v1.002a.996.996 0 0 1-.999.999H7.999A.996.996 0 0 1 7 9.001V7.999C7 7.447 7.443 7 7.999 7h1.002z"/></svg>