<?xml version="1.0" standalone="no"?><!DOCTYPE svg PUBLIC "-//W3C//DTD SVG 1.1//EN" "http://www.w3.org/Graphics/SVG/1.1/DTD/svg11.dtd"><svg width="16" height="16" viewBox="0 0 16 16" class="gantt" style="height:16px;margin-right:8px;width:16px;perspective-origin:8px 8px;transform-origin:8px 8px;shape-rendering:geometricprecision;" version="1.1" xmlns="http://www.w3.org/2000/svg" xmlns:xlink="http://www.w3.org/1999/xlink"><path fill-rule="evenodd" class="" fill="currentColor" d="M3 3h5a1 1 0 1 1 0 2H3a1 1 0 1 1 0-2zm2 3h7a1 1 0 0 1 0 2H5a1 1 0 1 1 0-2zM4 9h4a1 1 0 1 1 0 2H4a1 1 0 0 1 0-2zm2 3h7a1 1 0 0 1 0 2H6a1 1 0 0 1 0-2z" style="display:inline;height:auto;min-height:0px;min-width:0px;overflow-x:visible;overflow-y:visible;width:auto;perspective-origin:0px 0px;transform-origin:0px 0px;fill:rgb(51, 51, 51);fill-rule:evenodd;shape-rendering:geometricprecision;d:path(&quot;M 3 3 H 8 A 1 1 0 1 1 8 5 H 3 A 1 1 0 1 1 3 3 Z M 5 6 H 12 A 1 1 0 0 1 12 8 H 5 A 1 1 0 1 1 5 6 Z M 4 9 H 8 A 1 1 0 1 1 8 11 H 4 A 1 1 0 0 1 4 9 Z M 6 12 H 13 A 1 1 0 0 1 13 14 H 6 A 1 1 0 0 1 6 12 Z&quot;);"/></svg>