<?xml version="1.0" standalone="no"?><!DOCTYPE svg PUBLIC "-//W3C//DTD SVG 1.1//EN" "http://www.w3.org/Graphics/SVG/1.1/DTD/svg11.dtd"><svg width="12" height="12" viewBox="0 0 12 12" class="ganttMicro" style="height:12px;margin-right:16px;width:12px;perspective-origin:6px 6px;transform-origin:6px 6px;shape-rendering:geometricprecision;" version="1.1" xmlns="http://www.w3.org/2000/svg" xmlns:xlink="http://www.w3.org/1999/xlink"><path fill-rule="evenodd" class="" fill="currentColor" d="M1.5 3h6a.5.5 0 0 1 0 1h-6a.5.5 0 0 1 0-1zm2 2h5a.5.5 0 0 1 0 1h-5a.5.5 0 0 1 0-1zm-1 2h5a.5.5 0 0 1 0 1h-5a.5.5 0 0 1 0-1zm2 2h6a.5.5 0 1 1 0 1h-6a.5.5 0 0 1 0-1z" style="display:inline;height:auto;min-height:0px;min-width:0px;overflow-x:visible;overflow-y:visible;width:auto;perspective-origin:0px 0px;transform-origin:0px 0px;fill:rgb(51, 51, 51);fill-rule:evenodd;shape-rendering:geometricprecision;d:path(&quot;M 1.5 3 H 7.5 A 0.5 0.5 0 0 1 7.5 4 H 1.5 A 0.5 0.5 0 0 1 1.5 3 Z M 3.5 5 H 8.5 A 0.5 0.5 0 0 1 8.5 6 H 3.5 A 0.5 0.5 0 0 1 3.5 5 Z M 2.5 7 H 7.5 A 0.5 0.5 0 0 1 7.5 8 H 2.5 A 0.5 0.5 0 0 1 2.5 7 Z M 4.5 9 H 10.5 A 0.5 0.5 0 1 1 10.5 10 H 4.5 A 0.5 0.5 0 0 1 4.5 9 Z&quot;);"/></svg>