<?xml version="1.0" standalone="no"?><!DOCTYPE svg PUBLIC "-//W3C//DTD SVG 1.1//EN" "http://www.w3.org/Graphics/SVG/1.1/DTD/svg11.dtd"><svg width="16" height="16" viewBox="0 0 16 16" version="1.1" xmlns="http://www.w3.org/2000/svg" xmlns:xlink="http://www.w3.org/1999/xlink"><path fill-rule="evenodd" fill="currentColor" d="M9 6.5h4.5A.5.5 0 0 0 14 6V4.5a.5.5 0 0 0-.5-.5h-11a.5.5 0 0 0-.5.5V6a.5.5 0 0 0 .5.5H7V4h2v2.5zM7 7H3.5a.5.5 0 0 0-.5.5v7a.5.5 0 0 0 .5.5h9a.5.5 0 0 0 .5-.5v-7a.5.5 0 0 0-.5-.5H9v8H7V7zm-.717-3.5c-.621 0-1.125-.448-1.125-1s.504-1 1.125-1c.792 0 1.282.667 1.472 2H6.283zm4.375 0H8.5c.384-2 1.103-3 2.158-3a1.5 1.5 0 0 1 0 3z"/></svg>