<?xml version="1.0" standalone="no"?><!DOCTYPE svg PUBLIC "-//W3C//DTD SVG 1.1//EN" "http://www.w3.org/Graphics/SVG/1.1/DTD/svg11.dtd"><svg width="16" height="16" viewBox="0 0 16 16" class="gift" style="height:16px;margin-right:8px;width:16px;perspective-origin:8px 8px;transform-origin:8px 8px;shape-rendering:geometricprecision;" version="1.1" xmlns="http://www.w3.org/2000/svg" xmlns:xlink="http://www.w3.org/1999/xlink"><path fill-rule="evenodd" class="" fill="currentColor" d="M9 6.5h4.5A.5.5 0 0 0 14 6V4.5a.5.5 0 0 0-.5-.5h-11a.5.5 0 0 0-.5.5V6a.5.5 0 0 0 .5.5H7V4h2v2.5zM7 7H3.5a.5.5 0 0 0-.5.5v7a.5.5 0 0 0 .5.5h9a.5.5 0 0 0 .5-.5v-7a.5.5 0 0 0-.5-.5H9v8H7V7zm-.717-3.5c-.621 0-1.125-.448-1.125-1s.504-1 1.125-1c.792 0 1.282.667 1.472 2H6.283zm4.375 0H8.5c.384-2 1.103-3 2.158-3a1.5 1.5 0 0 1 0 3z" style="display:inline;height:auto;min-height:0px;min-width:0px;overflow-x:visible;overflow-y:visible;width:auto;perspective-origin:0px 0px;transform-origin:0px 0px;fill:rgb(51, 51, 51);fill-rule:evenodd;shape-rendering:geometricprecision;d:path(&quot;M 9 6.5 H 13.5 A 0.5 0.5 0 0 0 14 6 V 4.5 A 0.5 0.5 0 0 0 13.5 4 H 2.5 A 0.5 0.5 0 0 0 2 4.5 V 6 A 0.5 0.5 0 0 0 2.5 6.5 H 7 V 4 H 9 V 6.5 Z M 7 7 H 3.5 A 0.5 0.5 0 0 0 3 7.5 V 14.5 A 0.5 0.5 0 0 0 3.5 15 H 12.5 A 0.5 0.5 0 0 0 13 14.5 V 7.5 A 0.5 0.5 0 0 0 12.5 7 H 9 V 15 H 7 V 7 Z M 6.283 3.5 C 5.662 3.5 5.158 3.052 5.158 2.5 S 5.662 1.5 6.283 1.5 C 7.075 1.5 7.565 2.167 7.755 3.5 H 6.283 Z M 10.658 3.5 H 8.5 C 8.884 1.5 9.603 0.5 10.658 0.5 A 1.5 1.5 0 0 1 10.658 3.5 Z&quot;);"/></svg>