<?xml version="1.0" standalone="no"?><!DOCTYPE svg PUBLIC "-//W3C//DTD SVG 1.1//EN" "http://www.w3.org/Graphics/SVG/1.1/DTD/svg11.dtd"><svg width="12" height="12" viewBox="0 0 12 12" class="giftMicro" style="height:12px;margin-right:16px;width:12px;perspective-origin:6px 6px;transform-origin:6px 6px;shape-rendering:geometricprecision;" version="1.1" xmlns="http://www.w3.org/2000/svg" xmlns:xlink="http://www.w3.org/1999/xlink"><path fill-rule="evenodd" class="" fill="currentColor" d="M5.138 3H1.5a.5.5 0 0 0-.5.5v.966a.5.5 0 0 0 .5.5h3.638V3zm1.655 0h3.638a.5.5 0 0 1 .5.5v.966a.5.5 0 0 1-.5.5H6.793V3zM5.138 5.38H2.5a.5.5 0 0 0-.5.5v5.62a.5.5 0 0 0 .5.5h7.103a.5.5 0 0 0 .5-.5V5.88a.5.5 0 0 0-.5-.5h-2.81V12H5.138V5.38zm-.593-2.897c-.514 0-.931-.37-.931-.828 0-.457.417-.827.93-.827.656 0 1.062.551 1.219 1.655H4.545zm3.62 0H6.38C6.697.828 7.292 0 8.166 0a1.241 1.241 0 0 1 0 2.483z" style="display:inline;height:auto;min-height:0px;min-width:0px;overflow-x:visible;overflow-y:visible;width:auto;perspective-origin:0px 0px;transform-origin:0px 0px;fill:rgb(51, 51, 51);fill-rule:evenodd;shape-rendering:geometricprecision;d:path(&quot;M 5.138 3 H 1.5 A 0.5 0.5 0 0 0 1 3.5 V 4.466 A 0.5 0.5 0 0 0 1.5 4.966 H 5.138 V 3 Z M 6.793 3 H 10.431 A 0.5 0.5 0 0 1 10.931 3.5 V 4.466 A 0.5 0.5 0 0 1 10.431 4.966 H 6.793 V 3 Z M 5.138 5.38 H 2.5 A 0.5 0.5 0 0 0 2 5.88 V 11.5 A 0.5 0.5 0 0 0 2.5 12 H 9.603 A 0.5 0.5 0 0 0 10.103 11.5 V 5.88 A 0.5 0.5 0 0 0 9.603 5.38 H 6.793 V 12 H 5.138 V 5.38 Z M 4.545 2.483 C 4.031 2.483 3.614 2.113 3.614 1.655 C 3.614 1.198 4.031 0.828 4.544 0.828 C 5.2 0.828 5.606 1.379 5.763 2.483 H 4.545 Z M 8.165 2.483 H 6.38 C 6.697 0.828 7.292 0 8.166 0 A 1.241 1.241 0 0 1 8.166 2.483 Z&quot;);"/></svg>