<?xml version="1.0" standalone="no"?><!DOCTYPE svg PUBLIC "-//W3C//DTD SVG 1.1//EN" "http://www.w3.org/Graphics/SVG/1.1/DTD/svg11.dtd"><svg width="12" height="12" viewBox="0 0 12 12" version="1.1" xmlns="http://www.w3.org/2000/svg" xmlns:xlink="http://www.w3.org/1999/xlink"><path fill-rule="evenodd" fill="currentColor" d="M5.138 3H1.5a.5.5 0 0 0-.5.5v.966a.5.5 0 0 0 .5.5h3.638V3zm1.655 0h3.638a.5.5 0 0 1 .5.5v.966a.5.5 0 0 1-.5.5H6.793V3zM5.138 5.38H2.5a.5.5 0 0 0-.5.5v5.62a.5.5 0 0 0 .5.5h7.103a.5.5 0 0 0 .5-.5V5.88a.5.5 0 0 0-.5-.5h-2.81V12H5.138V5.38zm-.593-2.897c-.514 0-.931-.37-.931-.828 0-.457.417-.827.93-.827.656 0 1.062.551 1.219 1.655H4.545zm3.62 0H6.38C6.697.828 7.292 0 8.166 0a1.241 1.241 0 0 1 0 2.483z"/></svg>