<?xml version="1.0" standalone="no"?><!DOCTYPE svg PUBLIC "-//W3C//DTD SVG 1.1//EN" "http://www.w3.org/Graphics/SVG/1.1/DTD/svg11.dtd"><svg width="16" height="16" viewBox="0 0 16 16" class="grid1" version="1.1" xmlns="http://www.w3.org/2000/svg" xmlns:xlink="http://www.w3.org/1999/xlink"><path fill-rule="evenodd" fill="currentColor" d="M2 3.5C2 2.672 2.674 2 3.5 2h2C6.328 2 7 2.674 7 3.5v2C7 6.328 6.326 7 5.5 7h-2C2.672 7 2 6.326 2 5.5v-2zm0 7C2 9.672 2.674 9 3.5 9h2c.828 0 1.5.674 1.5 1.5v2c0 .828-.674 1.5-1.5 1.5h-2c-.828 0-1.5-.674-1.5-1.5v-2zm7-7c0-.828.674-1.5 1.5-1.5h2c.828 0 1.5.674 1.5 1.5v2c0 .828-.674 1.5-1.5 1.5h-2C9.672 7 9 6.326 9 5.5v-2zm0 7c0-.828.674-1.5 1.5-1.5h2c.828 0 1.5.674 1.5 1.5v2c0 .828-.674 1.5-1.5 1.5h-2c-.828 0-1.5-.674-1.5-1.5v-2z"/></svg>