<?xml version="1.0" standalone="no"?><!DOCTYPE svg PUBLIC "-//W3C//DTD SVG 1.1//EN" "http://www.w3.org/Graphics/SVG/1.1/DTD/svg11.dtd"><svg width="16" height="16" viewBox="0 0 16 16" class="grid1" style="height:16px;margin-right:8px;width:16px;perspective-origin:8px 8px;transform-origin:8px 8px;shape-rendering:geometricprecision;" version="1.1" xmlns="http://www.w3.org/2000/svg" xmlns:xlink="http://www.w3.org/1999/xlink"><path fill-rule="evenodd" class="" fill="currentColor" d="M2 3.5C2 2.672 2.674 2 3.5 2h2C6.328 2 7 2.674 7 3.5v2C7 6.328 6.326 7 5.5 7h-2C2.672 7 2 6.326 2 5.5v-2zm0 7C2 9.672 2.674 9 3.5 9h2c.828 0 1.5.674 1.5 1.5v2c0 .828-.674 1.5-1.5 1.5h-2c-.828 0-1.5-.674-1.5-1.5v-2zm7-7c0-.828.674-1.5 1.5-1.5h2c.828 0 1.5.674 1.5 1.5v2c0 .828-.674 1.5-1.5 1.5h-2C9.672 7 9 6.326 9 5.5v-2zm0 7c0-.828.674-1.5 1.5-1.5h2c.828 0 1.5.674 1.5 1.5v2c0 .828-.674 1.5-1.5 1.5h-2c-.828 0-1.5-.674-1.5-1.5v-2z" style="display:inline;height:auto;min-height:0px;min-width:0px;overflow-x:visible;overflow-y:visible;width:auto;perspective-origin:0px 0px;transform-origin:0px 0px;fill:rgb(51, 51, 51);fill-rule:evenodd;shape-rendering:geometricprecision;d:path(&quot;M 2 3.5 C 2 2.672 2.674 2 3.5 2 H 5.5 C 6.328 2 7 2.674 7 3.5 V 5.5 C 7 6.328 6.326 7 5.5 7 H 3.5 C 2.672 7 2 6.326 2 5.5 V 3.5 Z M 2 10.5 C 2 9.672 2.674 9 3.5 9 H 5.5 C 6.328 9 7 9.674 7 10.5 V 12.5 C 7 13.328 6.326 14 5.5 14 H 3.5 C 2.672 14 2 13.326 2 12.5 V 10.5 Z M 9 3.5 C 9 2.672 9.674 2 10.5 2 H 12.5 C 13.328 2 14 2.674 14 3.5 V 5.5 C 14 6.328 13.326 7 12.5 7 H 10.5 C 9.672 7 9 6.326 9 5.5 V 3.5 Z M 9 10.5 C 9 9.672 9.674 9 10.5 9 H 12.5 C 13.328 9 14 9.674 14 10.5 V 12.5 C 14 13.328 13.326 14 12.5 14 H 10.5 C 9.672 14 9 13.326 9 12.5 V 10.5 Z&quot;);"/></svg>