<?xml version="1.0" standalone="no"?><!DOCTYPE svg PUBLIC "-//W3C//DTD SVG 1.1//EN" "http://www.w3.org/Graphics/SVG/1.1/DTD/svg11.dtd"><svg width="12" height="12" viewBox="0 0 12 12" class="gridMicro" style="height:12px;margin-right:16px;width:12px;perspective-origin:6px 6px;transform-origin:6px 6px;shape-rendering:geometricprecision;" version="1.1" xmlns="http://www.w3.org/2000/svg" xmlns:xlink="http://www.w3.org/1999/xlink"><path fill-rule="evenodd" class="" fill="currentColor" d="M0 2.009A2.01 2.01 0 0 1 2.009 0H9.99A2.01 2.01 0 0 1 12 2.009V9.99A2.01 2.01 0 0 1 9.991 12H2.01A2.01 2.01 0 0 1 0 9.991V2.01zM2 2.5c0 .268.222.5.495.5h2.01C4.785 3 5 2.776 5 2.5c0-.268-.222-.5-.495-.5h-2.01A.494.494 0 0 0 2 2.5zm4 0c0 .268.22.5.49.5h3.02c.275 0 .49-.224.49-.5a.5.5 0 0 0-.49-.5H6.49a.492.492 0 0 0-.49.5zM2 5.505v.99c0 .291.222.505.495.505h2.01C4.785 7 5 6.774 5 6.495v-.99A.493.493 0 0 0 4.505 5h-2.01A.496.496 0 0 0 2 5.505zm4 0v.99c0 .291.22.505.49.505h3.02c.275 0 .49-.226.49-.505v-.99A.49.49 0 0 0 9.51 5H6.49a.495.495 0 0 0-.49.505zm-4 3v.99c0 .291.222.505.495.505h2.01c.28 0 .495-.226.495-.505v-.99A.493.493 0 0 0 4.505 8h-2.01A.496.496 0 0 0 2 8.505zm4 0v.99c0 .291.22.505.49.505h3.02c.275 0 .49-.226.49-.505v-.99A.49.49 0 0 0 9.51 8H6.49a.495.495 0 0 0-.49.505z" style="display:inline;height:auto;min-height:0px;min-width:0px;overflow-x:visible;overflow-y:visible;width:auto;perspective-origin:0px 0px;transform-origin:0px 0px;fill:rgb(51, 51, 51);fill-rule:evenodd;shape-rendering:geometricprecision;d:path(&quot;M 0 2.009 A 2.01 2.01 0 0 1 2.009 0 H 9.99 A 2.01 2.01 0 0 1 12 2.009 V 9.99 A 2.01 2.01 0 0 1 9.991 12 H 2.01 A 2.01 2.01 0 0 1 0 9.991 V 2.01 Z M 2 2.5 C 2 2.768 2.222 3 2.495 3 H 4.505 C 4.785 3 5 2.776 5 2.5 C 5 2.232 4.778 2 4.505 2 H 2.495 A 0.494 0.494 0 0 0 2 2.5 Z M 6 2.5 C 6 2.768 6.22 3 6.49 3 H 9.51 C 9.785 3 10 2.776 10 2.5 A 0.5 0.5 0 0 0 9.51 2 H 6.49 A 0.492 0.492 0 0 0 6 2.5 Z M 2 5.505 V 6.495 C 2 6.786 2.222 7 2.495 7 H 4.505 C 4.785 7 5 6.774 5 6.495 V 5.505 A 0.493 0.493 0 0 0 4.505 5 H 2.495 A 0.496 0.496 0 0 0 2 5.505 Z M 6 5.505 V 6.495 C 6 6.786 6.22 7 6.49 7 H 9.51 C 9.785 7 10 6.774 10 6.495 V 5.505 A 0.49 0.49 0 0 0 9.51 5 H 6.49 A 0.495 0.495 0 0 0 6 5.505 Z M 2 8.505 V 9.495 C 2 9.786 2.222 10 2.495 10 H 4.505 C 4.785 10 5 9.774 5 9.495 V 8.505 A 0.493 0.493 0 0 0 4.505 8 H 2.495 A 0.496 0.496 0 0 0 2 8.505 Z M 6 8.505 V 9.495 C 6 9.786 6.22 10 6.49 10 H 9.51 C 9.785 10 10 9.774 10 9.495 V 8.505 A 0.49 0.49 0 0 0 9.51 8 H 6.49 A 0.495 0.495 0 0 0 6 8.505 Z&quot;);"/></svg>