<?xml version="1.0" standalone="no"?><!DOCTYPE svg PUBLIC "-//W3C//DTD SVG 1.1//EN" "http://www.w3.org/Graphics/SVG/1.1/DTD/svg11.dtd"><svg width="12" height="12" viewBox="0 0 12 12" class="grid1Micro" style="height:12px;margin-right:16px;width:12px;perspective-origin:6px 6px;transform-origin:6px 6px;shape-rendering:geometricprecision;" version="1.1" xmlns="http://www.w3.org/2000/svg" xmlns:xlink="http://www.w3.org/1999/xlink"><path fill-rule="evenodd" class="" fill="currentColor" d="M4.001 2c.552 0 .999.443.999.999v1.002A.996.996 0 0 1 4.001 5H2.999A.996.996 0 0 1 2 4.001V2.999C2 2.447 2.443 2 2.999 2h1.002zm5 0c.552 0 .999.443.999.999v1.002A.996.996 0 0 1 9.001 5H7.999A.996.996 0 0 1 7 4.001V2.999C7 2.447 7.443 2 7.999 2h1.002zm-5 5c.552 0 .999.443.999.999v1.002a.996.996 0 0 1-.999.999H2.999A.996.996 0 0 1 2 9.001V7.999C2 7.447 2.443 7 2.999 7h1.002zm5 0c.552 0 .999.443.999.999v1.002a.996.996 0 0 1-.999.999H7.999A.996.996 0 0 1 7 9.001V7.999C7 7.447 7.443 7 7.999 7h1.002z" style="display:inline;height:auto;min-height:0px;min-width:0px;overflow-x:visible;overflow-y:visible;width:auto;perspective-origin:0px 0px;transform-origin:0px 0px;fill:rgb(51, 51, 51);fill-rule:evenodd;shape-rendering:geometricprecision;d:path(&quot;M 4.001 2 C 4.553 2 5 2.443 5 2.999 V 4.001 A 0.996 0.996 0 0 1 4.001 5 H 2.999 A 0.996 0.996 0 0 1 2 4.001 V 2.999 C 2 2.447 2.443 2 2.999 2 H 4.001 Z M 9.001 2 C 9.553 2 10 2.443 10 2.999 V 4.001 A 0.996 0.996 0 0 1 9.001 5 H 7.999 A 0.996 0.996 0 0 1 7 4.001 V 2.999 C 7 2.447 7.443 2 7.999 2 H 9.001 Z M 4.001 7 C 4.553 7 5 7.443 5 7.999 V 9.001 A 0.996 0.996 0 0 1 4.001 10 H 2.999 A 0.996 0.996 0 0 1 2 9.001 V 7.999 C 2 7.447 2.443 7 2.999 7 H 4.001 Z M 9.001 7 C 9.553 7 10 7.443 10 7.999 V 9.001 A 0.996 0.996 0 0 1 9.001 10 H 7.999 A 0.996 0.996 0 0 1 7 9.001 V 7.999 C 7 7.447 7.443 7 7.999 7 H 9.001 Z&quot;);"/></svg>