<?xml version="1.0" standalone="no"?><!DOCTYPE svg PUBLIC "-//W3C//DTD SVG 1.1//EN" "http://www.w3.org/Graphics/SVG/1.1/DTD/svg11.dtd"><svg width="12" height="12" viewBox="0 0 12 12" version="1.1" xmlns="http://www.w3.org/2000/svg" xmlns:xlink="http://www.w3.org/1999/xlink"><path fill-rule="evenodd" fill="currentColor" d="M0 2.009A2.01 2.01 0 0 1 2.009 0H9.99A2.01 2.01 0 0 1 12 2.009V9.99A2.01 2.01 0 0 1 9.991 12H2.01A2.01 2.01 0 0 1 0 9.991V2.01zM2 2.5c0 .268.222.5.495.5h2.01C4.785 3 5 2.776 5 2.5c0-.268-.222-.5-.495-.5h-2.01A.494.494 0 0 0 2 2.5zm4 0c0 .268.22.5.49.5h3.02c.275 0 .49-.224.49-.5a.5.5 0 0 0-.49-.5H6.49a.492.492 0 0 0-.49.5zM2 5.505v.99c0 .291.222.505.495.505h2.01C4.785 7 5 6.774 5 6.495v-.99A.493.493 0 0 0 4.505 5h-2.01A.496.496 0 0 0 2 5.505zm4 0v.99c0 .291.22.505.49.505h3.02c.275 0 .49-.226.49-.505v-.99A.49.49 0 0 0 9.51 5H6.49a.495.495 0 0 0-.49.505zm-4 3v.99c0 .291.222.505.495.505h2.01c.28 0 .495-.226.495-.505v-.99A.493.493 0 0 0 4.505 8h-2.01A.496.496 0 0 0 2 8.505zm4 0v.99c0 .291.22.505.49.505h3.02c.275 0 .49-.226.49-.505v-.99A.49.49 0 0 0 9.51 8H6.49a.495.495 0 0 0-.49.505z"/></svg>