<?xml version="1.0" standalone="no"?><!DOCTYPE svg PUBLIC "-//W3C//DTD SVG 1.1//EN" "http://www.w3.org/Graphics/SVG/1.1/DTD/svg11.dtd"><svg width="16" height="16" viewBox="0 0 16 16" version="1.1" xmlns="http://www.w3.org/2000/svg" xmlns:xlink="http://www.w3.org/1999/xlink"><path fill-rule="evenodd" fill="currentColor" d="M0 1.994C0 .893.895 0 1.994 0h12.012C15.107 0 16 .895 16 1.994v12.012A1.995 1.995 0 0 1 14.006 16H1.994A1.995 1.995 0 0 1 0 14.006V1.994zM2 7v1.002C2 8.557 2.452 9 3.01 9h1.98A.999.999 0 0 0 6 8.001V6.999C6 6.443 5.548 6 4.99 6H3.01A.999.999 0 0 0 2 6.999zm5 0v1.002C7 8.557 7.449 9 8.003 9h4.994A.994.994 0 0 0 14 8.001V6.999A.998.998 0 0 0 12.997 6H8.003A.994.994 0 0 0 7 6.999zM2 3c0 .556.452 1 1.01 1h1.98a1 1 0 1 0 0-2H3.01A1 1 0 0 0 2 3zm5 0c0 .556.449 1 1.003 1h4.994A.994.994 0 0 0 14 3c0-.556-.449-1-1.003-1H8.003A.994.994 0 0 0 7 3zm-5 8.999v1.002c0 .556.452.999 1.01.999h1.98A.999.999 0 0 0 6 13.001v-1.002C6 11.443 5.548 11 4.99 11H3.01a.999.999 0 0 0-1.01.999zm5 0v1.002c0 .556.449.999 1.003.999h4.994A.994.994 0 0 0 14 13.001v-1.002A.998.998 0 0 0 12.997 11H8.003A.994.994 0 0 0 7 11.999z"/></svg>