<?xml version="1.0" standalone="no"?><!DOCTYPE svg PUBLIC "-//W3C//DTD SVG 1.1//EN" "http://www.w3.org/Graphics/SVG/1.1/DTD/svg11.dtd"><svg width="16" height="16" viewBox="0 0 16 16" class="group" style="height:16px;margin-right:8px;width:16px;perspective-origin:8px 8px;transform-origin:8px 8px;shape-rendering:geometricprecision;" version="1.1" xmlns="http://www.w3.org/2000/svg" xmlns:xlink="http://www.w3.org/1999/xlink"><path fill-rule="evenodd" class="" fill="currentColor" d="M1 3.006C1 1.898 1.897 1 3.006 1h9.988C14.102 1 15 1.897 15 3.006v9.988A2.005 2.005 0 0 1 12.994 15H3.006A2.005 2.005 0 0 1 1 12.994V3.006zm2 .99v8.009c0 .54.446.995.995.995h8.01c.54 0 .995-.446.995-.995v-8.01c0-.54-.446-.995-.995-.995h-8.01C3.455 3 3 3.446 3 3.995zM7 6c0-.552.444-1 1-1h3c.552 0 1 .444 1 1 0 .552-.444 1-1 1H8c-.552 0-1-.444-1-1zm0 4c0-.552.444-1 1-1h3c.552 0 1 .444 1 1 0 .552-.444 1-1 1H8c-.552 0-1-.444-1-1zM4 6c0-.552.444-1 1-1 .552 0 1 .444 1 1 0 .552-.444 1-1 1-.552 0-1-.444-1-1zm0 4c0-.552.444-1 1-1 .552 0 1 .444 1 1 0 .552-.444 1-1 1-.552 0-1-.444-1-1z" style="display:inline;height:auto;min-height:0px;min-width:0px;overflow-x:visible;overflow-y:visible;width:auto;perspective-origin:0px 0px;transform-origin:0px 0px;fill:rgb(51, 51, 51);fill-rule:evenodd;shape-rendering:geometricprecision;d:path(&quot;M 1 3.006 C 1 1.898 1.897 1 3.006 1 H 12.994 C 14.102 1 15 1.897 15 3.006 V 12.994 A 2.005 2.005 0 0 1 12.994 15 H 3.006 A 2.005 2.005 0 0 1 1 12.994 V 3.006 Z M 3 3.996 V 12.005 C 3 12.545 3.446 13 3.995 13 H 12.005 C 12.545 13 13 12.554 13 12.005 V 3.995 C 13 3.455 12.554 3 12.005 3 H 3.995 C 3.455 3 3 3.446 3 3.995 Z M 7 6 C 7 5.448 7.444 5 8 5 H 11 C 11.552 5 12 5.444 12 6 C 12 6.552 11.556 7 11 7 H 8 C 7.448 7 7 6.556 7 6 Z M 7 10 C 7 9.448 7.444 9 8 9 H 11 C 11.552 9 12 9.444 12 10 C 12 10.552 11.556 11 11 11 H 8 C 7.448 11 7 10.556 7 10 Z M 4 6 C 4 5.448 4.444 5 5 5 C 5.552 5 6 5.444 6 6 C 6 6.552 5.556 7 5 7 C 4.448 7 4 6.556 4 6 Z M 4 10 C 4 9.448 4.444 9 5 9 C 5.552 9 6 9.444 6 10 C 6 10.552 5.556 11 5 11 C 4.448 11 4 10.556 4 10 Z&quot;);"/></svg>