<?xml version="1.0" standalone="no"?><!DOCTYPE svg PUBLIC "-//W3C//DTD SVG 1.1//EN" "http://www.w3.org/Graphics/SVG/1.1/DTD/svg11.dtd"><svg width="12" height="12" viewBox="0 0 12 12" version="1.1" xmlns="http://www.w3.org/2000/svg" xmlns:xlink="http://www.w3.org/1999/xlink"><path fill-rule="evenodd" fill="currentColor" d="M0,2.0085302 C0,0.899249601 0.901950359,0 2.0085302,0 L9.9914698,0 C11.1007504,0 12,0.901950359 12,2.0085302 L12,9.9914698 C12,11.1007504 11.0980496,12 9.9914698,12 L2.0085302,12 C0.899249601,12 0,11.0980496 0,9.9914698 L0,2.0085302 Z M1,2.99754465 L1,10.0024554 C1,10.5536886 1.44565467,11 1.99539757,11 L10.0046024,11 C10.5443356,11 11,10.553384 11,10.0024554 L11,2.99754465 C11,2.4463114 10.5543453,2 10.0046024,2 L1.99539757,2 C1.4556644,2 1,2.44661595 1,2.99754465 Z M5,5 C5,4.44771525 5.44371665,4 5.99980749,4 L9.00019251,4 C9.55237094,4 10,4.44386482 10,5 C10,5.55228475 9.55628335,6 9.00019251,6 L5.99980749,6 C5.44762906,6 5,5.55613518 5,5 Z M2,5 C2,4.44771525 2.44386482,4 3,4 C3.55228475,4 4,4.44386482 4,5 C4,5.55228475 3.55613518,6 3,6 C2.44771525,6 2,5.55613518 2,5 Z M2,8 C2,7.44771525 2.44386482,7 3,7 C3.55228475,7 4,7.44386482 4,8 C4,8.55228475 3.55613518,9 3,9 C2.44771525,9 2,8.55613518 2,8 Z M5,8 C5,7.44771525 5.44371665,7 5.99980749,7 L9.00019251,7 C9.55237094,7 10,7.44386482 10,8 C10,8.55228475 9.55628335,9 9.00019251,9 L5.99980749,9 C5.44762906,9 5,8.55613518 5,8 Z"/></svg>