<?xml version="1.0" standalone="no"?><!DOCTYPE svg PUBLIC "-//W3C//DTD SVG 1.1//EN" "http://www.w3.org/Graphics/SVG/1.1/DTD/svg11.dtd"><svg width="12" height="12" viewBox="0 0 12 12" class="groupMicro" style="height:12px;margin-right:16px;width:12px;perspective-origin:6px 6px;transform-origin:6px 6px;shape-rendering:geometricprecision;" version="1.1" xmlns="http://www.w3.org/2000/svg" xmlns:xlink="http://www.w3.org/1999/xlink"><path fill-rule="evenodd" class="" fill="currentColor" d="M0,2.0085302 C0,0.899249601 0.901950359,0 2.0085302,0 L9.9914698,0 C11.1007504,0 12,0.901950359 12,2.0085302 L12,9.9914698 C12,11.1007504 11.0980496,12 9.9914698,12 L2.0085302,12 C0.899249601,12 0,11.0980496 0,9.9914698 L0,2.0085302 Z M1,2.99754465 L1,10.0024554 C1,10.5536886 1.44565467,11 1.99539757,11 L10.0046024,11 C10.5443356,11 11,10.553384 11,10.0024554 L11,2.99754465 C11,2.4463114 10.5543453,2 10.0046024,2 L1.99539757,2 C1.4556644,2 1,2.44661595 1,2.99754465 Z M5,5 C5,4.44771525 5.44371665,4 5.99980749,4 L9.00019251,4 C9.55237094,4 10,4.44386482 10,5 C10,5.55228475 9.55628335,6 9.00019251,6 L5.99980749,6 C5.44762906,6 5,5.55613518 5,5 Z M2,5 C2,4.44771525 2.44386482,4 3,4 C3.55228475,4 4,4.44386482 4,5 C4,5.55228475 3.55613518,6 3,6 C2.44771525,6 2,5.55613518 2,5 Z M2,8 C2,7.44771525 2.44386482,7 3,7 C3.55228475,7 4,7.44386482 4,8 C4,8.55228475 3.55613518,9 3,9 C2.44771525,9 2,8.55613518 2,8 Z M5,8 C5,7.44771525 5.44371665,7 5.99980749,7 L9.00019251,7 C9.55237094,7 10,7.44386482 10,8 C10,8.55228475 9.55628335,9 9.00019251,9 L5.99980749,9 C5.44762906,9 5,8.55613518 5,8 Z" style="display:inline;height:auto;min-height:0px;min-width:0px;overflow-x:visible;overflow-y:visible;width:auto;perspective-origin:0px 0px;transform-origin:0px 0px;fill:rgb(51, 51, 51);fill-rule:evenodd;shape-rendering:geometricprecision;d:path(&quot;M 0 2.00853 C 0 0.89925 0.90195 0 2.00853 0 L 9.99147 0 C 11.1007 0 12 0.90195 12 2.00853 L 12 9.99147 C 12 11.1007 11.098 12 9.99147 12 L 2.00853 12 C 0.89925 12 0 11.098 0 9.99147 L 0 2.00853 Z M 1 2.99754 L 1 10.0025 C 1 10.5537 1.44565 11 1.9954 11 L 10.0046 11 C 10.5443 11 11 10.5534 11 10.0025 L 11 2.99754 C 11 2.44631 10.5543 2 10.0046 2 L 1.9954 2 C 1.45566 2 1 2.44662 1 2.99754 Z M 5 5 C 5 4.44772 5.44372 4 5.99981 4 L 9.00019 4 C 9.55237 4 10 4.44386 10 5 C 10 5.55228 9.55628 6 9.00019 6 L 5.99981 6 C 5.44763 6 5 5.55614 5 5 Z M 2 5 C 2 4.44772 2.44386 4 3 4 C 3.55228 4 4 4.44386 4 5 C 4 5.55228 3.55614 6 3 6 C 2.44772 6 2 5.55614 2 5 Z M 2 8 C 2 7.44772 2.44386 7 3 7 C 3.55228 7 4 7.44386 4 8 C 4 8.55228 3.55614 9 3 9 C 2.44772 9 2 8.55614 2 8 Z M 5 8 C 5 7.44772 5.44372 7 5.99981 7 L 9.00019 7 C 9.55237 7 10 7.44386 10 8 C 10 8.55228 9.55628 9 9.00019 9 L 5.99981 9 C 5.44763 9 5 8.55614 5 8 Z&quot;);"/></svg>