<?xml version="1.0" standalone="no"?><!DOCTYPE svg PUBLIC "-//W3C//DTD SVG 1.1//EN" "http://www.w3.org/Graphics/SVG/1.1/DTD/svg11.dtd"><svg width="16" height="16" viewBox="0 0 16 16" class="help" style="height:16px;margin-right:8px;width:16px;perspective-origin:8px 8px;transform-origin:8px 8px;shape-rendering:geometricprecision;" version="1.1" xmlns="http://www.w3.org/2000/svg" xmlns:xlink="http://www.w3.org/1999/xlink"><path fill-rule="evenodd" class="" fill="currentColor" d="M8.7589721,9.5 C8.7589721,9.77614237 8.5432876,10 8.25962632,10 L7.49934584,10 C7.22356477,10 7.00000005,9.76806641 7.00000005,9.5 L7.00000005,9 C7.00000005,8.34869385 9.25010007,7.05957031 9.2501,6 C9.25009998,5.652 9.0251,4.75 8.0001,4.75 C6.9791,4.75 6.7881,5.734 6.7551,6 C6.7551,6 5.26889746,6.022 5.26989746,6 C5.26889746,5.06573486 6.0041,3.25 8.0001,3.25 C9.7211,3.25 10.7501,4.648 10.7501,6 C10.7501,7.373 8.7589721,8.60931396 8.7589721,9 L8.7589721,9.5 Z M8.0001,13 C7.4481,13 7.0001,12.552 7.0001,12 C7.0001,11.448 7.4481,11 8.0001,11 C8.5521,11 9.0001,11.448 9.0001,12 C9.0001,12.552 8.5521,13 8.0001,13 M1.0001,8 C1.0001,11.866 4.1341,15 8.0001,15 C11.8661,15 15.0001,11.866 15.0001,8 C15.0001,4.134 11.8661,1 8.0001,1 C4.1341,1 1.0001,4.134 1.0001,8 Z" style="display:inline;height:auto;min-height:0px;min-width:0px;overflow-x:visible;overflow-y:visible;width:auto;perspective-origin:0px 0px;transform-origin:0px 0px;fill:rgb(51, 51, 51);fill-rule:evenodd;shape-rendering:geometricprecision;d:path(&quot;M 8.75897 9.5 C 8.75897 9.77614 8.54329 10 8.25963 10 L 7.49935 10 C 7.22356 10 7 9.76807 7 9.5 L 7 9 C 7 8.34869 9.2501 7.05957 9.2501 6 C 9.2501 5.652 9.0251 4.75 8.0001 4.75 C 6.9791 4.75 6.7881 5.734 6.7551 6 C 6.7551 6 5.2689 6.022 5.2699 6 C 5.2689 5.06573 6.0041 3.25 8.0001 3.25 C 9.7211 3.25 10.7501 4.648 10.7501 6 C 10.7501 7.373 8.75897 8.60931 8.75897 9 L 8.75897 9.5 Z M 8.0001 13 C 7.4481 13 7.0001 12.552 7.0001 12 C 7.0001 11.448 7.4481 11 8.0001 11 C 8.5521 11 9.0001 11.448 9.0001 12 C 9.0001 12.552 8.5521 13 8.0001 13 M 1.0001 8 C 1.0001 11.866 4.1341 15 8.0001 15 C 11.8661 15 15.0001 11.866 15.0001 8 C 15.0001 4.134 11.8661 1 8.0001 1 C 4.1341 1 1.0001 4.134 1.0001 8 Z&quot;);"/></svg>