<?xml version="1.0" standalone="no"?><!DOCTYPE svg PUBLIC "-//W3C//DTD SVG 1.1//EN" "http://www.w3.org/Graphics/SVG/1.1/DTD/svg11.dtd"><svg width="12" height="12" viewBox="0 0 12 12" version="1.1" xmlns="http://www.w3.org/2000/svg" xmlns:xlink="http://www.w3.org/1999/xlink"><path fill-rule="evenodd" fill="currentColor" d="M7.1091,7 L5.2531,7 C5.2531,6.801 5.3281,6.604 5.4831,6.456 C5.6041,6.342 5.7311,6.226 5.8611,6.108 C6.5761,5.461 7.2501,4.85 7.2501,4 C7.2501,3.652 7.0251,2.75 6.0001,2.75 C4.9791,2.75 4.7881,3.734 4.7551,4 L3.2601,4 C3.2601,3.979 3.2511,3.96 3.2521,3.938 C3.3301,3.008 4.0041,1.25 6.0001,1.25 C7.7211,1.25 8.7501,2.648 8.7501,4 C8.7501,5.373 7.8931,6.277 7.1091,7 M6.0001,10 C5.4481,10 5.0001,9.552 5.0001,9 C5.0001,8.448 5.4481,8 6.0001,8 C6.5521,8 7.0001,8.448 7.0001,9 C7.0001,9.552 6.5521,10 6.0001,10 M6.0001,0 C2.6861,0 0.0001,2.686 0.0001,6 C0.0001,9.314 2.6861,12 6.0001,12 C9.3141,12 12.0001,9.314 12.0001,6 C12.0001,2.686 9.3141,0 6.0001,0"/></svg>