<?xml version="1.0" standalone="no"?><!DOCTYPE svg PUBLIC "-//W3C//DTD SVG 1.1//EN" "http://www.w3.org/Graphics/SVG/1.1/DTD/svg11.dtd"><svg width="16" height="16" viewBox="0 0 16 16" class="hide1" version="1.1" xmlns="http://www.w3.org/2000/svg" xmlns:xlink="http://www.w3.org/1999/xlink"><path fill-rule="evenodd" fill="currentColor" d="M8.445 3.512L7.172 5.55c-1.227.149-2.34.627-3.339 1.347A8.182 8.182 0 0 0 2.59 8.001c.178.267.495.645.961 1.037.309.259.646.489 1.014.685l-.823 1.318a2 2 0 0 0-.194.403C1.447 10.3.653 8.639.653 8.639.358 8.175.4 7.462.777 7.05c0 0 2.623-3.55 7.222-3.55.151 0 .3.004.446.012zm3.94 1.212c1.852 1.09 2.86 2.513 2.86 2.513.353.421.404 1.147.09 1.588 0 0-1.834 3.675-7.334 3.675-.153 0-.303-.003-.45-.009l1.265-2.024c1.541-.128 2.737-.622 3.663-1.365.453-.363.76-.71.933-.955.06-.085.105-.158.133-.215a2 2 0 0 1 .16-.267c-.209.294-.211.553-.042.794l-.05-.067a3.582 3.582 0 0 0-.2-.245 8.452 8.452 0 0 0-2.073-1.719l.918-1.47c.048-.076.09-.155.126-.234zm-6.358 7.925a.75.75 0 0 1-1.278-.785l5.256-8.559a.75.75 0 1 1 1.278.785l-5.256 8.56z"/></svg>