<?xml version="1.0" standalone="no"?><!DOCTYPE svg PUBLIC "-//W3C//DTD SVG 1.1//EN" "http://www.w3.org/Graphics/SVG/1.1/DTD/svg11.dtd"><svg width="16" height="16" viewBox="0 0 16 16" class="hide1" style="height:16px;margin-right:8px;width:16px;perspective-origin:8px 8px;transform-origin:8px 8px;shape-rendering:geometricprecision;" version="1.1" xmlns="http://www.w3.org/2000/svg" xmlns:xlink="http://www.w3.org/1999/xlink"><path fill-rule="evenodd" class="" fill="currentColor" d="M8.445 3.512L7.172 5.55c-1.227.149-2.34.627-3.339 1.347A8.182 8.182 0 0 0 2.59 8.001c.178.267.495.645.961 1.037.309.259.646.489 1.014.685l-.823 1.318a2 2 0 0 0-.194.403C1.447 10.3.653 8.639.653 8.639.358 8.175.4 7.462.777 7.05c0 0 2.623-3.55 7.222-3.55.151 0 .3.004.446.012zm3.94 1.212c1.852 1.09 2.86 2.513 2.86 2.513.353.421.404 1.147.09 1.588 0 0-1.834 3.675-7.334 3.675-.153 0-.303-.003-.45-.009l1.265-2.024c1.541-.128 2.737-.622 3.663-1.365.453-.363.76-.71.933-.955.06-.085.105-.158.133-.215a2 2 0 0 1 .16-.267c-.209.294-.211.553-.042.794l-.05-.067a3.582 3.582 0 0 0-.2-.245 8.452 8.452 0 0 0-2.073-1.719l.918-1.47c.048-.076.09-.155.126-.234zm-6.358 7.925a.75.75 0 0 1-1.278-.785l5.256-8.559a.75.75 0 1 1 1.278.785l-5.256 8.56z" style="display:inline;height:auto;min-height:0px;min-width:0px;overflow-x:visible;overflow-y:visible;width:auto;perspective-origin:0px 0px;transform-origin:0px 0px;fill:rgb(51, 51, 51);fill-rule:evenodd;shape-rendering:geometricprecision;d:path(&quot;M 8.445 3.512 L 7.172 5.55 C 5.945 5.699 4.832 6.177 3.833 6.897 A 8.182 8.182 0 0 0 2.59 8.001 C 2.768 8.268 3.085 8.646 3.551 9.038 C 3.86 9.297 4.197 9.527 4.565 9.723 L 3.742 11.041 A 2 2 0 0 0 3.548 11.444 C 1.447 10.3 0.653 8.639 0.653 8.639 C 0.358 8.175 0.4 7.462 0.777 7.05 C 0.777 7.05 3.4 3.5 7.999 3.5 C 8.15 3.5 8.299 3.504 8.445 3.512 Z M 12.385 4.724 C 14.237 5.814 15.245 7.237 15.245 7.237 C 15.598 7.658 15.649 8.384 15.335 8.825 C 15.335 8.825 13.501 12.5 8.001 12.5 C 7.848 12.5 7.698 12.497 7.551 12.491 L 8.816 10.467 C 10.357 10.339 11.553 9.845 12.479 9.102 C 12.932 8.739 13.239 8.392 13.412 8.147 C 13.472 8.062 13.517 7.989 13.545 7.932 A 2 2 0 0 1 13.705 7.665 C 13.496 7.959 13.494 8.218 13.663 8.459 L 13.613 8.392 A 3.582 3.582 0 0 0 13.413 8.147 A 8.452 8.452 0 0 0 11.34 6.428 L 12.258 4.958 C 12.306 4.882 12.348 4.803 12.384 4.724 Z M 6.027 12.649 A 0.75 0.75 0 0 1 4.749 11.864 L 10.005 3.305 A 0.75 0.75 0 1 1 11.283 4.09 L 6.027 12.65 Z&quot;);"/></svg>