<?xml version="1.0" standalone="no"?><!DOCTYPE svg PUBLIC "-//W3C//DTD SVG 1.1//EN" "http://www.w3.org/Graphics/SVG/1.1/DTD/svg11.dtd"><svg width="12" height="12" viewBox="0 0 12 12" class="hide1Micro" style="height:12px;margin-right:16px;width:12px;perspective-origin:6px 6px;transform-origin:6px 6px;shape-rendering:geometricprecision;" version="1.1" xmlns="http://www.w3.org/2000/svg" xmlns:xlink="http://www.w3.org/1999/xlink"><path fill-rule="evenodd" class="" fill="currentColor" d="M5.75 3.001L4.745 4.606a5.768 5.768 0 0 0-2.18.916c-.449.306-.772.604-.958.812a7.034 7.034 0 0 0 1.319 1.185L2.13 8.79C.927 7.977.259 7.049.259 7.049c-.356-.414-.346-1.09.038-1.481 0 0 1.881-2.503 5.452-2.566zm3.787 1.024c1.296.785 1.97 1.733 1.97 1.733.358.41.359 1.078-.03 1.484 0 0-2.093 2.758-5.594 2.758h-.079l.988-1.58c.837-.152 1.614-.507 2.326-1.018a6.716 6.716 0 0 0 1.043-.925 6.023 6.023 0 0 0-1.418-1.18l.794-1.272zM7.212 2.548a.878.878 0 1 1 1.488.93l-4.232 6.773a.878.878 0 1 1-1.489-.93l4.233-6.773z" style="display:inline;height:auto;min-height:0px;min-width:0px;overflow-x:visible;overflow-y:visible;width:auto;perspective-origin:0px 0px;transform-origin:0px 0px;fill:rgb(51, 51, 51);fill-rule:evenodd;shape-rendering:geometricprecision;d:path(&quot;M 5.75 3.001 L 4.745 4.606 A 5.768 5.768 0 0 0 2.565 5.522 C 2.116 5.828 1.793 6.126 1.607 6.334 A 7.034 7.034 0 0 0 2.926 7.519 L 2.13 8.79 C 0.927 7.977 0.259 7.049 0.259 7.049 C -0.097 6.635 -0.087 5.959 0.297 5.568 C 0.297 5.568 2.178 3.065 5.749 3.002 Z M 9.537 4.025 C 10.833 4.81 11.507 5.758 11.507 5.758 C 11.865 6.168 11.866 6.836 11.477 7.242 C 11.477 7.242 9.384 10 5.883 10 H 5.804 L 6.792 8.42 C 7.629 8.268 8.406 7.913 9.118 7.402 A 6.716 6.716 0 0 0 10.161 6.477 A 6.023 6.023 0 0 0 8.743 5.297 L 9.537 4.025 Z M 7.212 2.548 A 0.878 0.878 0 1 1 8.7 3.478 L 4.468 10.251 A 0.878 0.878 0 1 1 2.979 9.321 L 7.212 2.548 Z&quot;);"/></svg>