<?xml version="1.0" standalone="no"?><!DOCTYPE svg PUBLIC "-//W3C//DTD SVG 1.1//EN" "http://www.w3.org/Graphics/SVG/1.1/DTD/svg11.dtd"><svg width="12" height="12" viewBox="0 0 12 12" class="hide1Micro" version="1.1" xmlns="http://www.w3.org/2000/svg" xmlns:xlink="http://www.w3.org/1999/xlink"><path fill-rule="evenodd" fill="currentColor" d="M5.75 3.001L4.745 4.606a5.768 5.768 0 0 0-2.18.916c-.449.306-.772.604-.958.812a7.034 7.034 0 0 0 1.319 1.185L2.13 8.79C.927 7.977.259 7.049.259 7.049c-.356-.414-.346-1.09.038-1.481 0 0 1.881-2.503 5.452-2.566zm3.787 1.024c1.296.785 1.97 1.733 1.97 1.733.358.41.359 1.078-.03 1.484 0 0-2.093 2.758-5.594 2.758h-.079l.988-1.58c.837-.152 1.614-.507 2.326-1.018a6.716 6.716 0 0 0 1.043-.925 6.023 6.023 0 0 0-1.418-1.18l.794-1.272zM7.212 2.548a.878.878 0 1 1 1.488.93l-4.232 6.773a.878.878 0 1 1-1.489-.93l4.233-6.773z"/></svg>