<?xml version="1.0" standalone="no"?><!DOCTYPE svg PUBLIC "-//W3C//DTD SVG 1.1//EN" "http://www.w3.org/Graphics/SVG/1.1/DTD/svg11.dtd"><svg width="12" height="12" viewBox="0 0 12 12" version="1.1" xmlns="http://www.w3.org/2000/svg" xmlns:xlink="http://www.w3.org/1999/xlink"><path fill-rule="evenodd" fill="currentColor" d="M7.07379258,3.08057532 L7.83951449,2.18723309 C7.93261719,2.07861328 8.08081774,2.08081774 8.18051147,2.18051147 L8.31948853,2.31948853 C8.421875,2.421875 8.42814819,2.58382711 8.33951449,2.68723309 L2.66048551,9.31276691 C2.57586217,9.41149414 2.41918226,9.41918226 2.31948853,9.31948853 L2.18051147,9.18051147 C2.078125,9.078125 2.07185181,8.91617289 2.16048551,8.81276691 L2.71204408,8.16928191 C1.21438645,7.39400631 0.338797149,6.3559202 0.338797149,6.3559202 C0.151684651,6.1593509 0.140635599,5.83870697 0.335473263,5.63214111 C0.335473263,5.63214111 2.43111333,3 6.00130145,3 C6.37523547,3 6.7329686,3.02887466 7.07379247,3.08057544 Z M4.98948075,7.72630771 C5.2860189,7.90026555 5.63136233,8 6,8 C7.1045695,8 8,7.1045695 8,6 C8,5.53593543 7.84194705,5.1087861 7.57673492,4.7694458 L8.67281655,3.51678108 C10.5921151,4.28331251 11.6648459,5.63214111 11.6648459,5.63214111 C11.8499464,5.83530397 11.8522129,6.16129303 11.6487954,6.36785889 C11.6487954,6.36785889 9.42860966,9 5.99879779,9 C5.3198851,9 4.68797611,8.89639951 4.11106377,8.73021284 L4.98948075,7.72630771 Z M6.89344609,5.55034733 C6.96161005,5.68552115 7,5.83827735 7,6 C7,6.55228475 6.55228475,7 6,7 C5.88544206,7 5.77538326,6.9807369 5.67288602,6.94527312 L6.89344609,5.55034733 Z"/></svg>