<?xml version="1.0" standalone="no"?><!DOCTYPE svg PUBLIC "-//W3C//DTD SVG 1.1//EN" "http://www.w3.org/Graphics/SVG/1.1/DTD/svg11.dtd"><svg width="16" height="16" viewBox="0 0 16 16" version="1.1" xmlns="http://www.w3.org/2000/svg" xmlns:xlink="http://www.w3.org/1999/xlink"><path fill-rule="evenodd" fill="currentColor" d="M9.3367655,4.63876831 L9.79843449,4.07056032 C9.97618126,3.85179506 10.285682,3.82586665 10.5,4 C10.7080501,4.1690407 10.7476945,4.48805021 10.5745485,4.70115294 L4.70156551,11.9294397 C4.52381874,12.1482049 4.21431796,12.1741333 4,12 C3.79194991,11.8309593 3.75230554,11.5119498 3.92545151,11.2988471 L4.33850304,10.7904759 C2.29756706,9.94879608 1.04520409,8.65832323 1.04520409,8.65832323 C0.634313509,8.29474135 0.622984004,7.70159197 1.04520409,7.34167677 C1.04520409,7.34167677 3.80296127,4.5 7.80296127,4.5 C8.33768148,4.5 8.85015186,4.55078178 9.3367655,4.63876831 Z M11.2108925,5.18668697 C13.2839678,6.0276396 14.5578924,7.34167677 14.5578924,7.34167677 C14.9684214,7.70525865 14.9797545,8.29840803 14.5578924,8.65832323 C14.5578924,8.65832323 11.8029613,11.5 7.80296127,11.5 C7.2331567,11.5 6.68856013,11.4423358 6.1735524,11.343436 L6.97731717,10.3610568 C7.23529706,10.4510721 7.51254511,10.5 7.80122088,10.5 C9.18193275,10.5 10.3012209,9.38071187 10.3012209,8 C10.3012209,7.53433155 10.173903,7.09839978 9.95217814,6.72511561 L11.2108925,5.18668697 Z M7.68542106,9.49559648 L9.24451172,7.59004123 C9.28145125,7.72034356 9.30122088,7.85786306 9.30122088,8 C9.30122088,8.82842712 8.629648,9.5 7.80122088,9.5 C7.76225608,9.5 7.72363829,9.49851431 7.68542106,9.49559648 Z"/></svg>