<?xml version="1.0" standalone="no"?><!DOCTYPE svg PUBLIC "-//W3C//DTD SVG 1.1//EN" "http://www.w3.org/Graphics/SVG/1.1/DTD/svg11.dtd"><svg width="16" height="16" viewBox="0 0 16 16" class="hide" style="display:none;height:16px;margin-right:8px;min-height:0px;min-width:0px;width:16px;perspective-origin:50% 50%;transform-origin:50% 50%;shape-rendering:geometricprecision;" version="1.1" xmlns="http://www.w3.org/2000/svg" xmlns:xlink="http://www.w3.org/1999/xlink"><path fill-rule="evenodd" class="" fill="currentColor" d="M9.3367655,4.63876831 L9.79843449,4.07056032 C9.97618126,3.85179506 10.285682,3.82586665 10.5,4 C10.7080501,4.1690407 10.7476945,4.48805021 10.5745485,4.70115294 L4.70156551,11.9294397 C4.52381874,12.1482049 4.21431796,12.1741333 4,12 C3.79194991,11.8309593 3.75230554,11.5119498 3.92545151,11.2988471 L4.33850304,10.7904759 C2.29756706,9.94879608 1.04520409,8.65832323 1.04520409,8.65832323 C0.634313509,8.29474135 0.622984004,7.70159197 1.04520409,7.34167677 C1.04520409,7.34167677 3.80296127,4.5 7.80296127,4.5 C8.33768148,4.5 8.85015186,4.55078178 9.3367655,4.63876831 Z M11.2108925,5.18668697 C13.2839678,6.0276396 14.5578924,7.34167677 14.5578924,7.34167677 C14.9684214,7.70525865 14.9797545,8.29840803 14.5578924,8.65832323 C14.5578924,8.65832323 11.8029613,11.5 7.80296127,11.5 C7.2331567,11.5 6.68856013,11.4423358 6.1735524,11.343436 L6.97731717,10.3610568 C7.23529706,10.4510721 7.51254511,10.5 7.80122088,10.5 C9.18193275,10.5 10.3012209,9.38071187 10.3012209,8 C10.3012209,7.53433155 10.173903,7.09839978 9.95217814,6.72511561 L11.2108925,5.18668697 Z M7.68542106,9.49559648 L9.24451172,7.59004123 C9.28145125,7.72034356 9.30122088,7.85786306 9.30122088,8 C9.30122088,8.82842712 8.629648,9.5 7.80122088,9.5 C7.76225608,9.5 7.72363829,9.49851431 7.68542106,9.49559648 Z" style="display:inline;height:auto;min-height:0px;min-width:0px;overflow-x:visible;overflow-y:visible;width:auto;perspective-origin:50% 50%;transform-origin:0px 0px;fill:rgb(51, 51, 51);fill-rule:evenodd;shape-rendering:geometricprecision;d:path(&quot;M 9.33677 4.63877 L 9.79843 4.07056 C 9.97618 3.8518 10.2857 3.82587 10.5 4 C 10.708 4.16904 10.7477 4.48805 10.5745 4.70115 L 4.70157 11.9294 C 4.52382 12.1482 4.21432 12.1741 4 12 C 3.79195 11.831 3.75231 11.5119 3.92545 11.2988 L 4.3385 10.7905 C 2.29757 9.9488 1.0452 8.65832 1.0452 8.65832 C 0.634313 8.29474 0.622984 7.70159 1.0452 7.34168 C 1.0452 7.34168 3.80296 4.5 7.80296 4.5 C 8.33768 4.5 8.85015 4.55078 9.33677 4.63877 Z M 11.2109 5.18669 C 13.284 6.02764 14.5579 7.34168 14.5579 7.34168 C 14.9684 7.70526 14.9798 8.29841 14.5579 8.65832 C 14.5579 8.65832 11.803 11.5 7.80296 11.5 C 7.23316 11.5 6.68856 11.4423 6.17355 11.3434 L 6.97732 10.3611 C 7.2353 10.4511 7.51255 10.5 7.80122 10.5 C 9.18193 10.5 10.3012 9.38071 10.3012 8 C 10.3012 7.53433 10.1739 7.0984 9.95218 6.72512 L 11.2109 5.18669 Z M 7.68542 9.4956 L 9.24451 7.59004 C 9.28145 7.72034 9.30122 7.85786 9.30122 8 C 9.30122 8.82843 8.62965 9.5 7.80122 9.5 C 7.76226 9.5 7.72364 9.49851 7.68542 9.4956 Z&quot;);"/></svg>