<?xml version="1.0" standalone="no"?><!DOCTYPE svg PUBLIC "-//W3C//DTD SVG 1.1//EN" "http://www.w3.org/Graphics/SVG/1.1/DTD/svg11.dtd"><svg width="16" height="16" viewBox="0 0 16 16" version="1.1" xmlns="http://www.w3.org/2000/svg" xmlns:xlink="http://www.w3.org/1999/xlink"><path fill-rule="evenodd" fill="currentColor" d="M7.4 9.3a1.005 1.005 0 0 1-.4-.812V5.5a1 1 0 1 1 2 0v2.53l1.3 1.07a1 1 0 0 1-1.2 1.6L7.4 9.3zM1.244 6.167A6.973 6.973 0 0 1 4.5 1.937a7 7 0 1 1-.528 11.79 1 1 0 0 1 1.15-1.637 5 5 0 1 0-1.774-5.923H4.5c.412 0 .647.616.4.945l-2 2.813c-.2.267-.6.225-.8-.042l-2-2.75c-.247-.329-.012-.966.4-.966h.743z"/></svg>