<?xml version="1.0" standalone="no"?><!DOCTYPE svg PUBLIC "-//W3C//DTD SVG 1.1//EN" "http://www.w3.org/Graphics/SVG/1.1/DTD/svg11.dtd"><svg width="12" height="12" viewBox="0 0 12 12" version="1.1" xmlns="http://www.w3.org/2000/svg" xmlns:xlink="http://www.w3.org/1999/xlink"><path fill-rule="evenodd" fill="currentColor" d="M2.554 5h.956c.275 0 .365.187.212.417L2.278 7.583c-.159.238-.403.23-.556 0L.278 5.417C.12 5.18.22 5 .49 5h.595a4.977 4.977 0 0 1 2.397-3.325 4.997 4.997 0 1 1-.378 8.415.714.714 0 0 1 .821-1.168A3.57 3.57 0 1 0 2.555 5zM6.75 4v1.69l.78.78a.75.75 0 0 1-1.06 1.06l-1-1A.75.75 0 0 1 5.25 6V4a.75.75 0 0 1 1.5 0z"/></svg>