<?xml version="1.0" standalone="no"?><!DOCTYPE svg PUBLIC "-//W3C//DTD SVG 1.1//EN" "http://www.w3.org/Graphics/SVG/1.1/DTD/svg11.dtd"><svg width="12" height="12" viewBox="0 0 12 12" class="historyMicro" style="height:12px;margin-right:16px;width:12px;perspective-origin:6px 6px;transform-origin:6px 6px;shape-rendering:geometricprecision;" version="1.1" xmlns="http://www.w3.org/2000/svg" xmlns:xlink="http://www.w3.org/1999/xlink"><path fill-rule="evenodd" class="" fill="currentColor" d="M2.554 5h.956c.275 0 .365.187.212.417L2.278 7.583c-.159.238-.403.23-.556 0L.278 5.417C.12 5.18.22 5 .49 5h.595a4.977 4.977 0 0 1 2.397-3.325 4.997 4.997 0 1 1-.378 8.415.714.714 0 0 1 .821-1.168A3.57 3.57 0 1 0 2.555 5zM6.75 4v1.69l.78.78a.75.75 0 0 1-1.06 1.06l-1-1A.75.75 0 0 1 5.25 6V4a.75.75 0 0 1 1.5 0z" style="display:inline;height:auto;min-height:0px;min-width:0px;overflow-x:visible;overflow-y:visible;width:auto;perspective-origin:0px 0px;transform-origin:0px 0px;fill:rgb(51, 51, 51);fill-rule:evenodd;shape-rendering:geometricprecision;d:path(&quot;M 2.554 5 H 3.51 C 3.785 5 3.875 5.187 3.722 5.417 L 2.278 7.583 C 2.119 7.821 1.875 7.813 1.722 7.583 L 0.278 5.417 C 0.12 5.18 0.22 5 0.49 5 H 1.085 A 4.977 4.977 0 0 1 3.482 1.675 A 4.997 4.997 0 1 1 3.104 10.09 A 0.714 0.714 0 0 1 3.925 8.922 A 3.57 3.57 0 1 0 2.555 5 Z M 6.75 4 V 5.69 L 7.53 6.47 A 0.75 0.75 0 0 1 6.47 7.53 L 5.47 6.53 A 0.75 0.75 0 0 1 5.25 6 V 4 A 0.75 0.75 0 0 1 6.75 4 Z&quot;);"/></svg>