<?xml version="1.0" standalone="no"?><!DOCTYPE svg PUBLIC "-//W3C//DTD SVG 1.1//EN" "http://www.w3.org/Graphics/SVG/1.1/DTD/svg11.dtd"><svg width="16" height="16" viewBox="0 0 16 16" class="history" style="height:16px;margin-right:8px;width:16px;perspective-origin:8px 8px;transform-origin:8px 8px;shape-rendering:geometricprecision;" version="1.1" xmlns="http://www.w3.org/2000/svg" xmlns:xlink="http://www.w3.org/1999/xlink"><path fill-rule="evenodd" class="" fill="currentColor" d="M7.4 9.3a1.005 1.005 0 0 1-.4-.812V5.5a1 1 0 1 1 2 0v2.53l1.3 1.07a1 1 0 0 1-1.2 1.6L7.4 9.3zM1.244 6.167A6.973 6.973 0 0 1 4.5 1.937a7 7 0 1 1-.528 11.79 1 1 0 0 1 1.15-1.637 5 5 0 1 0-1.774-5.923H4.5c.412 0 .647.616.4.945l-2 2.813c-.2.267-.6.225-.8-.042l-2-2.75c-.247-.329-.012-.966.4-.966h.743z" style="display:inline;height:auto;min-height:0px;min-width:0px;overflow-x:visible;overflow-y:visible;width:auto;perspective-origin:0px 0px;transform-origin:0px 0px;fill:rgb(51, 51, 51);fill-rule:evenodd;shape-rendering:geometricprecision;d:path(&quot;M 7.4 9.3 A 1.005 1.005 0 0 1 7 8.488 V 5.5 A 1 1 0 1 1 9 5.5 V 8.03 L 10.3 9.1 A 1 1 0 0 1 9.1 10.7 L 7.4 9.3 Z M 1.244 6.167 A 6.973 6.973 0 0 1 4.5 1.937 A 7 7 0 1 1 3.972 13.727 A 1 1 0 0 1 5.122 12.09 A 5 5 0 1 0 3.348 6.167 H 4.5 C 4.912 6.167 5.147 6.783 4.9 7.112 L 2.9 9.925 C 2.7 10.192 2.3 10.15 2.1 9.883 L 0.1 7.133 C -0.147 6.804 0.0880001 6.167 0.5 6.167 H 1.243 Z&quot;);"/></svg>