<?xml version="1.0" standalone="no"?><!DOCTYPE svg PUBLIC "-//W3C//DTD SVG 1.1//EN" "http://www.w3.org/Graphics/SVG/1.1/DTD/svg11.dtd"><svg width="16" height="16" viewBox="0 0 16 16" class="home" style="height:16px;margin-right:8px;width:16px;perspective-origin:8px 8px;transform-origin:8px 8px;shape-rendering:geometricprecision;" version="1.1" xmlns="http://www.w3.org/2000/svg" xmlns:xlink="http://www.w3.org/1999/xlink"><path fill-rule="evenodd" class="" fill="currentColor" d="M7.31172371,1.71547595 C7.69184821,1.3203295 8.30578971,1.31787407 8.68827629,1.71547595 L13.3117237,6.5216352 C13.6918482,6.91678165 14,7.67671996 14,8.23608091 L14,14.4906552 C14,14.7719586 13.7849426,15 13.5095215,15 L10.4904785,15 C10.2195947,15 10,14.7849426 10,14.5095215 L10,11 C10,11 10,9 8,9 C6,9 6.06572819,10.5158558 6.06572819,10.5158558 C6.02942751,10.7832413 6,11.2150574 6,11.4904785 L6,14.5095215 C6,14.7804053 5.78494263,15 5.50952148,15 L2.49047852,15 C2.21959471,15 2,14.7760437 2,14.4906552 L2,8.23608091 C2,7.68436515 2.30578971,6.91923708 2.68827629,6.5216352 L7.31172371,1.71547595 Z" style="display:inline;height:auto;min-height:0px;min-width:0px;overflow-x:visible;overflow-y:visible;width:auto;perspective-origin:0px 0px;transform-origin:0px 0px;fill:rgb(51, 51, 51);fill-rule:evenodd;shape-rendering:geometricprecision;d:path(&quot;M 7.31172 1.71548 C 7.69185 1.32033 8.30579 1.31787 8.68828 1.71548 L 13.3117 6.52164 C 13.6918 6.91678 14 7.67672 14 8.23608 L 14 14.4907 C 14 14.772 13.7849 15 13.5095 15 L 10.4905 15 C 10.2196 15 10 14.7849 10 14.5095 L 10 11 C 10 11 10 9 8 9 C 6 9 6.06573 10.5159 6.06573 10.5159 C 6.02943 10.7832 6 11.2151 6 11.4905 L 6 14.5095 C 6 14.7804 5.78494 15 5.50952 15 L 2.49048 15 C 2.21959 15 2 14.776 2 14.4907 L 2 8.23608 C 2 7.68437 2.30579 6.91924 2.68828 6.52164 L 7.31172 1.71548 Z&quot;);"/></svg>