<?xml version="1.0" standalone="no"?><!DOCTYPE svg PUBLIC "-//W3C//DTD SVG 1.1//EN" "http://www.w3.org/Graphics/SVG/1.1/DTD/svg11.dtd"><svg width="12" height="12" viewBox="0 0 12 12" class="homeMicro" style="height:12px;margin-right:16px;width:12px;perspective-origin:6px 6px;transform-origin:6px 6px;shape-rendering:geometricprecision;" version="1.1" xmlns="http://www.w3.org/2000/svg" xmlns:xlink="http://www.w3.org/1999/xlink"><path fill-rule="evenodd" class="" fill="currentColor" d="M5.29422684,0.70577316 C5.68401459,0.315985407 6.31277239,0.312772393 6.70577316,0.70577316 L10.2942268,4.29422684 C10.6840146,4.68401459 11,5.43788135 11,6.00292933 L11,11.4965773 C11,11.77461 10.7842474,12 10.504611,12 L8.49538898,12 C8.2217932,12 8,11.7842474 8,11.504611 L8,9 C8,9 8,7 6,7 C4,7 4.06572819,8.51585579 4.06572819,8.51585579 C4.02942751,8.78324125 4,9.2157526 4,9.49538898 L4,11.504611 C4,11.7782068 3.7842474,12 3.50461102,12 L1.49538898,12 C1.2217932,12 1,11.7670975 1,11.4965773 L1,6.00292933 C1,5.44902676 1.31277239,4.68722761 1.70577316,4.29422684 L5.29422684,0.70577316 Z" style="display:inline;height:auto;min-height:0px;min-width:0px;overflow-x:visible;overflow-y:visible;width:auto;perspective-origin:0px 0px;transform-origin:0px 0px;fill:rgb(51, 51, 51);fill-rule:evenodd;shape-rendering:geometricprecision;d:path(&quot;M 5.29423 0.705773 C 5.68401 0.315985 6.31277 0.312772 6.70577 0.705773 L 10.2942 4.29423 C 10.684 4.68401 11 5.43788 11 6.00293 L 11 11.4966 C 11 11.7746 10.7842 12 10.5046 12 L 8.49539 12 C 8.22179 12 8 11.7842 8 11.5046 L 8 9 C 8 9 8 7 6 7 C 4 7 4.06573 8.51586 4.06573 8.51586 C 4.02943 8.78324 4 9.21575 4 9.49539 L 4 11.5046 C 4 11.7782 3.78425 12 3.50461 12 L 1.49539 12 C 1.22179 12 1 11.7671 1 11.4966 L 1 6.00293 C 1 5.44903 1.31277 4.68723 1.70577 4.29423 L 5.29423 0.705773 Z&quot;);"/></svg>