<?xml version="1.0" standalone="no"?><!DOCTYPE svg PUBLIC "-//W3C//DTD SVG 1.1//EN" "http://www.w3.org/Graphics/SVG/1.1/DTD/svg11.dtd"><svg width="16" height="16" viewBox="0 0 16 16" class="hyperlinkCancel" style="height:16px;margin-right:8px;width:16px;perspective-origin:8px 8px;transform-origin:8px 8px;shape-rendering:geometricprecision;" version="1.1" xmlns="http://www.w3.org/2000/svg" xmlns:xlink="http://www.w3.org/1999/xlink"><path fill-rule="evenodd" class="" fill="currentColor" d="M4 10.0161C4 9.51605 3.5 9.01605 3 9.01605C2.4 9.01605 2 8.61605 2 8.01605V6.01605C2 5.41605 2.4 5.01605 3 5.01605H6.7C7.4 5.01605 8 4.41605 8 3.81605C8 3.11605 7.4 2.51605 6.7 2.51605H2C0.9 2.51605 0 3.41605 0 4.51605V9.01605C0 10.1161 0.9 11.0161 2 11.0161H3C3.5 11.0161 4 10.6161 4 10.0161ZM4.6 13.3161C4.1 13.0161 3.9 12.3161 4.2 11.7161L9.7 3.01605C10 2.51605 10.7 2.31605 11.3 2.61605C11.8 2.91605 12 3.61605 11.7 4.21605L6.2 12.9161C5.9 13.5161 5.2 13.7161 4.6 13.3161ZM14 5.01605H13C12.4 5.01605 12 5.41605 12 6.01605C12 6.61605 12.4 7.01605 13 7.01605C13.6 7.01605 14 7.41605 14 8.01605V10.0161C14 10.6161 13.6 11.0161 13 11.0161H9.3C8.6 11.0161 8 11.6161 8 12.2161C8 12.8161 8.6 13.5161 9.3 13.5161H14C15.1 13.5161 16 12.6161 16 11.5161V7.01605C16 5.91605 15.1 5.01605 14 5.01605Z" style="display:inline;height:auto;min-height:0px;min-width:0px;overflow-x:visible;overflow-y:visible;width:auto;perspective-origin:0px 0px;transform-origin:0px 0px;fill:rgb(51, 51, 51);fill-rule:evenodd;shape-rendering:geometricprecision;d:path(&quot;M 4 10.0161 C 4 9.51605 3.5 9.01605 3 9.01605 C 2.4 9.01605 2 8.61605 2 8.01605 V 6.01605 C 2 5.41605 2.4 5.01605 3 5.01605 H 6.7 C 7.4 5.01605 8 4.41605 8 3.81605 C 8 3.11605 7.4 2.51605 6.7 2.51605 H 2 C 0.9 2.51605 0 3.41605 0 4.51605 V 9.01605 C 0 10.1161 0.9 11.0161 2 11.0161 H 3 C 3.5 11.0161 4 10.6161 4 10.0161 Z M 4.6 13.3161 C 4.1 13.0161 3.9 12.3161 4.2 11.7161 L 9.7 3.01605 C 10 2.51605 10.7 2.31605 11.3 2.61605 C 11.8 2.91605 12 3.61605 11.7 4.21605 L 6.2 12.9161 C 5.9 13.5161 5.2 13.7161 4.6 13.3161 Z M 14 5.01605 H 13 C 12.4 5.01605 12 5.41605 12 6.01605 C 12 6.61605 12.4 7.01605 13 7.01605 C 13.6 7.01605 14 7.41605 14 8.01605 V 10.0161 C 14 10.6161 13.6 11.0161 13 11.0161 H 9.3 C 8.6 11.0161 8 11.6161 8 12.2161 C 8 12.8161 8.6 13.5161 9.3 13.5161 H 14 C 15.1 13.5161 16 12.6161 16 11.5161 V 7.01605 C 16 5.91605 15.1 5.01605 14 5.01605 Z&quot;);"/></svg>