<?xml version="1.0" standalone="no"?><!DOCTYPE svg PUBLIC "-//W3C//DTD SVG 1.1//EN" "http://www.w3.org/Graphics/SVG/1.1/DTD/svg11.dtd"><svg width="12" height="12" viewBox="0 0 12 12" class="hyperlinkMicro" style="height:12px;margin-right:16px;width:12px;perspective-origin:6px 6px;transform-origin:6px 6px;shape-rendering:geometricprecision;" version="1.1" xmlns="http://www.w3.org/2000/svg" xmlns:xlink="http://www.w3.org/1999/xlink"><path fill-rule="evenodd" class="" fill="currentColor" d="M2,8.00003 C2.55,8.00003 3,8.45003 3,9 C3,9.55003 2.55,10 2,10 L1,10 C0.45,10 0,9.55003 0,9 L0,4.00003 C0,3.86203 0.028,3.73103 0.079,3.61203 C0.18,3.37303 0.373,3.18003 0.612,3.07903 C0.731,3.02803 0.862,3.00003 1,3.00003 L7,3.00003 C7.138,3.00003 7.269,3.02803 7.388,3.07903 C7.627,3.18003 7.82,3.37303 7.921,3.61203 C7.972,3.73103 8,3.86203 8,4.00003 L8,6.00003 C8,6.55003 7.55,7.00003 7,7.00003 C6.45,7.00003 6,6.55003 6,6.00003 L6,5 L2,5 L2,8.00003 Z M11.9211,3.61173 C11.9721,3.73173 12.0001,3.86273 12.0001,3.99973 L12.0001,8.99973 C12.0001,9.54973 11.5501,9.99973 11.0001,9.99973 L5.0001,9.99973 C4.4501,9.99973 4.0001,9.54973 4.0001,8.99973 L4.0001,6.49973 C4.0001,6.22473 4.2251,5.99973 4.5001,5.99973 C4.7751,5.99973 5.0001,6.22473 5.0001,6.49973 L5.0001,7.99973 L10.0001,7.99973 L10.0001,4.99973 C9.4501,4.99973 9.0001,4.54973 9.0001,3.99973 C9.0001,3.44973 9.4501,2.99973 10.0001,2.99973 L11.0001,2.99973 C11.1371,2.99973 11.2691,3.02773 11.3881,3.07873 C11.6271,3.18073 11.8191,3.37273 11.9211,3.61173 Z" style="display:inline;height:auto;min-height:0px;min-width:0px;overflow-x:visible;overflow-y:visible;width:auto;perspective-origin:0px 0px;transform-origin:0px 0px;fill:rgb(51, 51, 51);fill-rule:evenodd;shape-rendering:geometricprecision;d:path(&quot;M 2 8.00003 C 2.55 8.00003 3 8.45003 3 9 C 3 9.55003 2.55 10 2 10 L 1 10 C 0.45 10 0 9.55003 0 9 L 0 4.00003 C 0 3.86203 0.028 3.73103 0.079 3.61203 C 0.18 3.37303 0.373 3.18003 0.612 3.07903 C 0.731 3.02803 0.862 3.00003 1 3.00003 L 7 3.00003 C 7.138 3.00003 7.269 3.02803 7.388 3.07903 C 7.627 3.18003 7.82 3.37303 7.921 3.61203 C 7.972 3.73103 8 3.86203 8 4.00003 L 8 6.00003 C 8 6.55003 7.55 7.00003 7 7.00003 C 6.45 7.00003 6 6.55003 6 6.00003 L 6 5 L 2 5 L 2 8.00003 Z M 11.9211 3.61173 C 11.9721 3.73173 12.0001 3.86273 12.0001 3.99973 L 12.0001 8.99973 C 12.0001 9.54973 11.5501 9.99973 11.0001 9.99973 L 5.0001 9.99973 C 4.4501 9.99973 4.0001 9.54973 4.0001 8.99973 L 4.0001 6.49973 C 4.0001 6.22473 4.2251 5.99973 4.5001 5.99973 C 4.7751 5.99973 5.0001 6.22473 5.0001 6.49973 L 5.0001 7.99973 L 10.0001 7.99973 L 10.0001 4.99973 C 9.4501 4.99973 9.0001 4.54973 9.0001 3.99973 C 9.0001 3.44973 9.4501 2.99973 10.0001 2.99973 L 11.0001 2.99973 C 11.1371 2.99973 11.2691 3.02773 11.3881 3.07873 C 11.6271 3.18073 11.8191 3.37273 11.9211 3.61173 Z&quot;);"/></svg>