<?xml version="1.0" standalone="no"?><!DOCTYPE svg PUBLIC "-//W3C//DTD SVG 1.1//EN" "http://www.w3.org/Graphics/SVG/1.1/DTD/svg11.dtd"><svg width="12" height="12" viewBox="0 0 12 12" class="hyperlinkCancelMicro" style="height:12px;margin-right:16px;width:12px;perspective-origin:6px 6px;transform-origin:6px 6px;shape-rendering:geometricprecision;" version="1.1" xmlns="http://www.w3.org/2000/svg" xmlns:xlink="http://www.w3.org/1999/xlink"><path fill-rule="evenodd" class="" fill="currentColor" d="M3 7.51192C3 7.13692 2.625 6.76192 2.25 6.76192C1.8 6.76192 1.5 6.46192 1.5 6.01192V4.51192C1.5 4.06192 1.8 3.76192 2.25 3.76192H5.025C5.55 3.76192 6 3.31192 6 2.86192C6 2.33692 5.55 1.88692 5.025 1.88692H1.5C0.675 1.88692 0 2.56192 0 3.38692V6.76192C0 7.58692 0.675 8.26192 1.5 8.26192H2.25C2.625 8.26192 3 7.96192 3 7.51192ZM3.45 9.98692C3.075 9.76192 2.925 9.23692 3.15 8.78692L7.275 2.26192C7.5 1.88692 8.025 1.73692 8.475 1.96192C8.85 2.18692 9 2.71192 8.775 3.16192L4.65 9.68692C4.425 10.1369 3.9 10.2869 3.45 9.98692ZM10.5 3.76192H9.75C9.3 3.76192 9 4.06192 9 4.51192C9 4.96192 9.3 5.26192 9.75 5.26192C10.2 5.26192 10.5 5.56192 10.5 6.01192V7.51192C10.5 7.96192 10.2 8.26192 9.75 8.26192H6.975C6.45 8.26192 6 8.71192 6 9.16192C6 9.61192 6.45 10.1369 6.975 10.1369H10.5C11.325 10.1369 12 9.46192 12 8.63692V5.26192C12 4.43692 11.325 3.76192 10.5 3.76192Z" style="display:inline;height:auto;min-height:0px;min-width:0px;overflow-x:visible;overflow-y:visible;width:auto;perspective-origin:0px 0px;transform-origin:0px 0px;fill:rgb(51, 51, 51);fill-rule:evenodd;shape-rendering:geometricprecision;d:path(&quot;M 3 7.51192 C 3 7.13692 2.625 6.76192 2.25 6.76192 C 1.8 6.76192 1.5 6.46192 1.5 6.01192 V 4.51192 C 1.5 4.06192 1.8 3.76192 2.25 3.76192 H 5.025 C 5.55 3.76192 6 3.31192 6 2.86192 C 6 2.33692 5.55 1.88692 5.025 1.88692 H 1.5 C 0.675 1.88692 0 2.56192 0 3.38692 V 6.76192 C 0 7.58692 0.675 8.26192 1.5 8.26192 H 2.25 C 2.625 8.26192 3 7.96192 3 7.51192 Z M 3.45 9.98692 C 3.075 9.76192 2.925 9.23692 3.15 8.78692 L 7.275 2.26192 C 7.5 1.88692 8.025 1.73692 8.475 1.96192 C 8.85 2.18692 9 2.71192 8.775 3.16192 L 4.65 9.68692 C 4.425 10.1369 3.9 10.2869 3.45 9.98692 Z M 10.5 3.76192 H 9.75 C 9.3 3.76192 9 4.06192 9 4.51192 C 9 4.96192 9.3 5.26192 9.75 5.26192 C 10.2 5.26192 10.5 5.56192 10.5 6.01192 V 7.51192 C 10.5 7.96192 10.2 8.26192 9.75 8.26192 H 6.975 C 6.45 8.26192 6 8.71192 6 9.16192 C 6 9.61192 6.45 10.1369 6.975 10.1369 H 10.5 C 11.325 10.1369 12 9.46192 12 8.63692 V 5.26192 C 12 4.43692 11.325 3.76192 10.5 3.76192 Z&quot;);"/></svg>