<?xml version="1.0" standalone="no"?><!DOCTYPE svg PUBLIC "-//W3C//DTD SVG 1.1//EN" "http://www.w3.org/Graphics/SVG/1.1/DTD/svg11.dtd"><svg width="16" height="16" viewBox="0 0 16 16" class="hyperlink" style="height:16px;margin-right:8px;width:16px;perspective-origin:8px 8px;transform-origin:8px 8px;shape-rendering:geometricprecision;" version="1.1" xmlns="http://www.w3.org/2000/svg" xmlns:xlink="http://www.w3.org/1999/xlink"><path fill-rule="evenodd" class="" fill="currentColor" d="M3,9 C3.55,9 4,9.45003 4,10 C4,10.55003 3.55,11.00003 3,11.00003 L2.00104344,11.00002 C0.90009892,11.000009 -3.94535344e-16,10.1077607 -3.94535344e-16,9.00712765 L-3.94535344e-16,4.49287235 C-3.94535344e-16,3.39358348 0.891856397,2.5 1.99201702,2.5 L9.00798298,2.5 C10.0998238,2.5 11,3.39596581 11,4.50119565 L11,8.00003 C11,8.55003 10.55,9 10,9 C9.45,9 9,8.55003 9,8.00003 L9,5.99898656 C9,5.44269033 8.55097324,5.00003 7.99707067,5.00003 L3.00292933,5.00003 C2.43788135,5.00003 2,5.45193985 2,6.0093989 L2,7.9906611 C2,8.55667682 2.44771525,9 3,9 Z M13,4.99993 L13.9989566,4.99993 C15.0999011,4.99993 16,5.89217669 16,6.99281876 L16,11.5071112 C16,12.6064092 15.1081436,13.5 14.007983,13.5 L6.99201702,13.5 C5.90017617,13.5 5,12.6040277 5,11.4987898 L5,7.99993 C5,7.44993 5.45,6.99993 6,6.99993 C6.55,6.99993 7,7.44993 7,7.99993 L7,10.0009734 C7,10.5572697 7.44902676,10.99993 8.00292933,10.99993 L12.9970707,10.99993 C13.5621186,10.99993 14,10.5480202 14,9.9905611 L14,8.0092989 C14,7.44328318 13.5535691,6.99993 13.0028687,6.99993 L13,6.99993 C12.45,6.99993 12,6.54993 12,5.99993 C12,5.44993 12.45,4.99993 13,4.99993 Z" style="display:inline;height:auto;min-height:0px;min-width:0px;overflow-x:visible;overflow-y:visible;width:auto;perspective-origin:0px 0px;transform-origin:0px 0px;fill:rgb(51, 51, 51);fill-rule:evenodd;shape-rendering:geometricprecision;d:path(&quot;M 3 9 C 3.55 9 4 9.45003 4 10 C 4 10.55 3.55 11 3 11 L 2.00104 11 C 0.900099 11 -3.94535e-16 10.1078 -3.94535e-16 9.00713 L -3.94535e-16 4.49287 C -3.94535e-16 3.39358 0.891856 2.5 1.99202 2.5 L 9.00798 2.5 C 10.0998 2.5 11 3.39597 11 4.5012 L 11 8.00003 C 11 8.55003 10.55 9 10 9 C 9.45 9 9 8.55003 9 8.00003 L 9 5.99899 C 9 5.44269 8.55097 5.00003 7.99707 5.00003 L 3.00293 5.00003 C 2.43788 5.00003 2 5.45194 2 6.0094 L 2 7.99066 C 2 8.55668 2.44772 9 3 9 Z M 13 4.99993 L 13.999 4.99993 C 15.0999 4.99993 16 5.89218 16 6.99282 L 16 11.5071 C 16 12.6064 15.1081 13.5 14.008 13.5 L 6.99202 13.5 C 5.90018 13.5 5 12.604 5 11.4988 L 5 7.99993 C 5 7.44993 5.45 6.99993 6 6.99993 C 6.55 6.99993 7 7.44993 7 7.99993 L 7 10.001 C 7 10.5573 7.44903 10.9999 8.00293 10.9999 L 12.9971 10.9999 C 13.5621 10.9999 14 10.548 14 9.99056 L 14 8.0093 C 14 7.44328 13.5536 6.99993 13.0029 6.99993 L 13 6.99993 C 12.45 6.99993 12 6.54993 12 5.99993 C 12 5.44993 12.45 4.99993 13 4.99993 Z&quot;);"/></svg>