<?xml version="1.0" standalone="no"?><!DOCTYPE svg PUBLIC "-//W3C//DTD SVG 1.1//EN" "http://www.w3.org/Graphics/SVG/1.1/DTD/svg11.dtd"><svg width="16" height="16" viewBox="0 0 16 16" version="1.1" xmlns="http://www.w3.org/2000/svg" xmlns:xlink="http://www.w3.org/1999/xlink"><path fill-rule="evenodd" fill="currentColor" d="M8,5.6667 C7.356,5.6667 6.833,5.1447 6.833,4.4997 C6.833,3.8557 7.356,3.3337 8,3.3337 C8.644,3.3337 9.167,3.8557 9.167,4.4997 C9.167,5.1447 8.644,5.6667 8,5.6667 L8,5.6667 Z M9,11.9997 C9,12.5527 8.552,12.9997 8,12.9997 C7.448,12.9997 7,12.5527 7,11.9997 L7,7.9997 C7,7.4477 7.448,6.9997 8,6.9997 C8.552,6.9997 9,7.4477 9,7.9997 L9,11.9997 Z M8,0.9997 C4.134,0.9997 1,4.1337 1,7.9997 C1,11.8657 4.134,14.9997 8,14.9997 C11.866,14.9997 15,11.8657 15,7.9997 C15,4.1337 11.866,0.9997 8,0.9997 L8,0.9997 Z"/></svg>