<?xml version="1.0" standalone="no"?><!DOCTYPE svg PUBLIC "-//W3C//DTD SVG 1.1//EN" "http://www.w3.org/Graphics/SVG/1.1/DTD/svg11.dtd"><svg width="12" height="12" viewBox="0 0 12 12" class="infoMicro" style="height:12px;margin-right:16px;width:12px;perspective-origin:6px 6px;transform-origin:6px 6px;shape-rendering:geometricprecision;" version="1.1" xmlns="http://www.w3.org/2000/svg" xmlns:xlink="http://www.w3.org/1999/xlink"><path fill-rule="evenodd" class="" fill="currentColor" d="M6,4 C5.448,4 5,3.552 5,3 C5,2.448 5.448,2 6,2 C6.552,2 7,2.448 7,3 C7,3.552 6.552,4 6,4 L6,4 Z M7,9.125 C7,9.608 6.608,10 6.125,10 L5.875,10 C5.392,10 5,9.608 5,9.125 L5,5.875 C5,5.392 5.392,5 5.875,5 L6.125,5 C6.608,5 7,5.392 7,5.875 L7,9.125 Z M6,0 C2.686,0 0,2.686 0,6 C0,9.314 2.686,12 6,12 C9.314,12 12,9.314 12,6 C12,2.686 9.314,0 6,0 L6,0 Z" style="display:inline;height:auto;min-height:0px;min-width:0px;overflow-x:visible;overflow-y:visible;width:auto;perspective-origin:0px 0px;transform-origin:0px 0px;fill:rgb(51, 51, 51);fill-rule:evenodd;shape-rendering:geometricprecision;d:path(&quot;M 6 4 C 5.448 4 5 3.552 5 3 C 5 2.448 5.448 2 6 2 C 6.552 2 7 2.448 7 3 C 7 3.552 6.552 4 6 4 L 6 4 Z M 7 9.125 C 7 9.608 6.608 10 6.125 10 L 5.875 10 C 5.392 10 5 9.608 5 9.125 L 5 5.875 C 5 5.392 5.392 5 5.875 5 L 6.125 5 C 6.608 5 7 5.392 7 5.875 L 7 9.125 Z M 6 0 C 2.686 0 0 2.686 0 6 C 0 9.314 2.686 12 6 12 C 9.314 12 12 9.314 12 6 C 12 2.686 9.314 0 6 0 L 6 0 Z&quot;);"/></svg>