<?xml version="1.0" standalone="no"?><!DOCTYPE svg PUBLIC "-//W3C//DTD SVG 1.1//EN" "http://www.w3.org/Graphics/SVG/1.1/DTD/svg11.dtd"><svg width="12" height="12" viewBox="0 0 12 12" version="1.1" xmlns="http://www.w3.org/2000/svg" xmlns:xlink="http://www.w3.org/1999/xlink"><path fill-rule="evenodd" fill="currentColor" d="M6,4 C5.448,4 5,3.552 5,3 C5,2.448 5.448,2 6,2 C6.552,2 7,2.448 7,3 C7,3.552 6.552,4 6,4 L6,4 Z M7,9.125 C7,9.608 6.608,10 6.125,10 L5.875,10 C5.392,10 5,9.608 5,9.125 L5,5.875 C5,5.392 5.392,5 5.875,5 L6.125,5 C6.608,5 7,5.392 7,5.875 L7,9.125 Z M6,0 C2.686,0 0,2.686 0,6 C0,9.314 2.686,12 6,12 C9.314,12 12,9.314 12,6 C12,2.686 9.314,0 6,0 L6,0 Z"/></svg>