<?xml version="1.0" standalone="no"?><!DOCTYPE svg PUBLIC "-//W3C//DTD SVG 1.1//EN" "http://www.w3.org/Graphics/SVG/1.1/DTD/svg11.dtd"><svg width="12" height="12" viewBox="0 0 12 12" class="kanbanMicro" style="height:12px;margin-right:16px;width:12px;perspective-origin:6px 6px;transform-origin:6px 6px;shape-rendering:geometricprecision;" version="1.1" xmlns="http://www.w3.org/2000/svg" xmlns:xlink="http://www.w3.org/1999/xlink"><path fill-rule="evenodd" class="" fill="currentColor" d="M0 2.009A2.01 2.01 0 0 1 2.009 0H9.99A2.01 2.01 0 0 1 12 2.009V9.99A2.01 2.01 0 0 1 9.991 12H2.01A2.01 2.01 0 0 1 0 9.991V2.01zm2 .489v4.004c0 .283.226.498.505.498h.99C3.786 7 4 6.777 4 6.502V2.498A.496.496 0 0 0 3.495 2h-.99A.494.494 0 0 0 2 2.498zM5 2.5v7c0 .27.226.5.505.5h.99C6.786 10 7 9.776 7 9.5v-7c0-.27-.226-.5-.505-.5h-.99A.495.495 0 0 0 5 2.5zm3 .003v5.994c0 .27.226.503.505.503h.99c.291 0 .505-.225.505-.503V2.503A.509.509 0 0 0 9.495 2h-.99A.497.497 0 0 0 8 2.503z" style="display:inline;height:auto;min-height:0px;min-width:0px;overflow-x:visible;overflow-y:visible;width:auto;perspective-origin:0px 0px;transform-origin:0px 0px;fill:rgb(51, 51, 51);fill-rule:evenodd;shape-rendering:geometricprecision;d:path(&quot;M 0 2.009 A 2.01 2.01 0 0 1 2.009 0 H 9.99 A 2.01 2.01 0 0 1 12 2.009 V 9.99 A 2.01 2.01 0 0 1 9.991 12 H 2.01 A 2.01 2.01 0 0 1 0 9.991 V 2.01 Z M 2 2.498 V 6.502 C 2 6.785 2.226 7 2.505 7 H 3.495 C 3.786 7 4 6.777 4 6.502 V 2.498 A 0.496 0.496 0 0 0 3.495 2 H 2.505 A 0.494 0.494 0 0 0 2 2.498 Z M 5 2.5 V 9.5 C 5 9.77 5.226 10 5.505 10 H 6.495 C 6.786 10 7 9.776 7 9.5 V 2.5 C 7 2.23 6.774 2 6.495 2 H 5.505 A 0.495 0.495 0 0 0 5 2.5 Z M 8 2.503 V 8.497 C 8 8.767 8.226 9 8.505 9 H 9.495 C 9.786 9 10 8.775 10 8.497 V 2.503 A 0.509 0.509 0 0 0 9.495 2 H 8.505 A 0.497 0.497 0 0 0 8 2.503 Z&quot;);"/></svg>