<?xml version="1.0" standalone="no"?><!DOCTYPE svg PUBLIC "-//W3C//DTD SVG 1.1//EN" "http://www.w3.org/Graphics/SVG/1.1/DTD/svg11.dtd"><svg width="12" height="12" viewBox="0 0 12 12" version="1.1" xmlns="http://www.w3.org/2000/svg" xmlns:xlink="http://www.w3.org/1999/xlink"><path fill-rule="evenodd" fill="currentColor" d="M0 2.009A2.01 2.01 0 0 1 2.009 0H9.99A2.01 2.01 0 0 1 12 2.009V9.99A2.01 2.01 0 0 1 9.991 12H2.01A2.01 2.01 0 0 1 0 9.991V2.01zm2 .489v4.004c0 .283.226.498.505.498h.99C3.786 7 4 6.777 4 6.502V2.498A.496.496 0 0 0 3.495 2h-.99A.494.494 0 0 0 2 2.498zM5 2.5v7c0 .27.226.5.505.5h.99C6.786 10 7 9.776 7 9.5v-7c0-.27-.226-.5-.505-.5h-.99A.495.495 0 0 0 5 2.5zm3 .003v5.994c0 .27.226.503.505.503h.99c.291 0 .505-.225.505-.503V2.503A.509.509 0 0 0 9.495 2h-.99A.497.497 0 0 0 8 2.503z"/></svg>