<?xml version="1.0" standalone="no"?><!DOCTYPE svg PUBLIC "-//W3C//DTD SVG 1.1//EN" "http://www.w3.org/Graphics/SVG/1.1/DTD/svg11.dtd"><svg width="16" height="16" viewBox="0 0 16 16" version="1.1" xmlns="http://www.w3.org/2000/svg" xmlns:xlink="http://www.w3.org/1999/xlink"><path fill-rule="evenodd" fill="currentColor" d="M0 1.994C0 .893.895 0 1.994 0h12.012C15.107 0 16 .895 16 1.994v12.012A1.995 1.995 0 0 1 14.006 16H1.994A1.995 1.995 0 0 1 0 14.006V1.994zm1 1.51v4.991A1.5 1.5 0 0 0 2.5 10h1C4.32 10 5 9.326 5 8.495v-4.99A1.5 1.5 0 0 0 3.5 2h-1C1.68 2 1 2.674 1 3.505zm5-.008v9.008C6 13.32 6.672 14 7.5 14h1c.821 0 1.5-.67 1.5-1.496V3.496C10 2.68 9.328 2 8.5 2h-1C6.68 2 6 2.67 6 3.496zm5 .001v7.006A1.5 1.5 0 0 0 12.5 12h1c.821 0 1.5-.67 1.5-1.497V3.497A1.5 1.5 0 0 0 13.5 2h-1c-.821 0-1.5.67-1.5 1.497z"/></svg>