<?xml version="1.0" standalone="no"?><!DOCTYPE svg PUBLIC "-//W3C//DTD SVG 1.1//EN" "http://www.w3.org/Graphics/SVG/1.1/DTD/svg11.dtd"><svg width="16" height="16" viewBox="0 0 16 16" class="kanban" style="height:16px;margin-right:8px;width:16px;perspective-origin:8px 8px;transform-origin:8px 8px;shape-rendering:geometricprecision;" version="1.1" xmlns="http://www.w3.org/2000/svg" xmlns:xlink="http://www.w3.org/1999/xlink"><path fill-rule="evenodd" class="" fill="currentColor" d="M0 1.994C0 .893.895 0 1.994 0h12.012C15.107 0 16 .895 16 1.994v12.012A1.995 1.995 0 0 1 14.006 16H1.994A1.995 1.995 0 0 1 0 14.006V1.994zm1 1.51v4.991A1.5 1.5 0 0 0 2.5 10h1C4.32 10 5 9.326 5 8.495v-4.99A1.5 1.5 0 0 0 3.5 2h-1C1.68 2 1 2.674 1 3.505zm5-.008v9.008C6 13.32 6.672 14 7.5 14h1c.821 0 1.5-.67 1.5-1.496V3.496C10 2.68 9.328 2 8.5 2h-1C6.68 2 6 2.67 6 3.496zm5 .001v7.006A1.5 1.5 0 0 0 12.5 12h1c.821 0 1.5-.67 1.5-1.497V3.497A1.5 1.5 0 0 0 13.5 2h-1c-.821 0-1.5.67-1.5 1.497z" style="display:inline;height:auto;min-height:0px;min-width:0px;overflow-x:visible;overflow-y:visible;width:auto;perspective-origin:0px 0px;transform-origin:0px 0px;fill:rgb(51, 51, 51);fill-rule:evenodd;shape-rendering:geometricprecision;d:path(&quot;M 0 1.994 C 0 0.893 0.895 0 1.994 0 H 14.006 C 15.107 0 16 0.895 16 1.994 V 14.006 A 1.995 1.995 0 0 1 14.006 16 H 1.994 A 1.995 1.995 0 0 1 0 14.006 V 1.994 Z M 1 3.504 V 8.495 A 1.5 1.5 0 0 0 2.5 10 H 3.5 C 4.32 10 5 9.326 5 8.495 V 3.505 A 1.5 1.5 0 0 0 3.5 2 H 2.5 C 1.68 2 1 2.674 1 3.505 Z M 6 3.496 V 12.504 C 6 13.32 6.672 14 7.5 14 H 8.5 C 9.321 14 10 13.33 10 12.504 V 3.496 C 10 2.68 9.328 2 8.5 2 H 7.5 C 6.68 2 6 2.67 6 3.496 Z M 11 3.497 V 10.503 A 1.5 1.5 0 0 0 12.5 12 H 13.5 C 14.321 12 15 11.33 15 10.503 V 3.497 A 1.5 1.5 0 0 0 13.5 2 H 12.5 C 11.679 2 11 2.67 11 3.497 Z&quot;);"/></svg>