<?xml version="1.0" standalone="no"?><!DOCTYPE svg PUBLIC "-//W3C//DTD SVG 1.1//EN" "http://www.w3.org/Graphics/SVG/1.1/DTD/svg11.dtd"><svg width="16" height="16" viewBox="0 0 16 16" version="1.1" xmlns="http://www.w3.org/2000/svg" xmlns:xlink="http://www.w3.org/1999/xlink"><path fill-rule="evenodd" fill="currentColor" d="M2,3.99703014 C2,3.4463856 2.45576096,3 3.00247329,3 L12.9975267,3 C13.5511774,3 14,3.45303631 14,3.99703014 L14,10.4995642 C14,10.7759472 13.7709994,11 13.4996527,11 L2.50034732,11 C2.22401312,11 2,10.7692032 2,10.4995642 L2,3.99703014 Z M1,12.5046844 C1,12.2259549 1.21990657,12 1.49826741,12 L14.5017326,12 C14.7769181,12 15,12.214035 15,12.5046844 L15,13 C15,13.5522847 14.5500512,14 13.9931545,14 L2.00684547,14 C1.45078007,14 1,13.5561352 1,13 L1,12.5046844 Z"/></svg>