<?xml version="1.0" standalone="no"?><!DOCTYPE svg PUBLIC "-//W3C//DTD SVG 1.1//EN" "http://www.w3.org/Graphics/SVG/1.1/DTD/svg11.dtd"><svg width="12" height="12" viewBox="0 0 12 12" version="1.1" xmlns="http://www.w3.org/2000/svg" xmlns:xlink="http://www.w3.org/1999/xlink"><path fill-rule="evenodd" fill="currentColor" d="M2,2.99077797 C2,2.44358641 2.45303631,2 2.99703014,2 L9.00296986,2 C9.5536144,2 10,2.45097518 10,2.99077797 L10,7.50899482 C10,7.78016949 9.76920319,8 9.49956417,8 L2.50043583,8 C2.22405275,8 2,7.77211952 2,7.50899482 L2,2.99077797 Z M1,9.5 C1,9.22385763 1.22765279,9 1.50964952,9 L10.4903505,9 C10.7718221,9 11,9.23193359 11,9.5 C11,9.77614237 10.7723472,10 10.4903505,10 L1.50964952,10 C1.22817786,10 1,9.76806641 1,9.5 Z"/></svg>