<?xml version="1.0" standalone="no"?><!DOCTYPE svg PUBLIC "-//W3C//DTD SVG 1.1//EN" "http://www.w3.org/Graphics/SVG/1.1/DTD/svg11.dtd"><svg width="16" height="16" viewBox="0 0 16 16" class="laptop" style="height:16px;margin-right:8px;width:16px;perspective-origin:8px 8px;transform-origin:8px 8px;shape-rendering:geometricprecision;" version="1.1" xmlns="http://www.w3.org/2000/svg" xmlns:xlink="http://www.w3.org/1999/xlink"><path fill-rule="evenodd" class="" fill="currentColor" d="M2,3.99703014 C2,3.4463856 2.45576096,3 3.00247329,3 L12.9975267,3 C13.5511774,3 14,3.45303631 14,3.99703014 L14,10.4995642 C14,10.7759472 13.7709994,11 13.4996527,11 L2.50034732,11 C2.22401312,11 2,10.7692032 2,10.4995642 L2,3.99703014 Z M1,12.5046844 C1,12.2259549 1.21990657,12 1.49826741,12 L14.5017326,12 C14.7769181,12 15,12.214035 15,12.5046844 L15,13 C15,13.5522847 14.5500512,14 13.9931545,14 L2.00684547,14 C1.45078007,14 1,13.5561352 1,13 L1,12.5046844 Z" style="display:inline;height:auto;min-height:0px;min-width:0px;overflow-x:visible;overflow-y:visible;width:auto;perspective-origin:0px 0px;transform-origin:0px 0px;fill:rgb(51, 51, 51);fill-rule:evenodd;shape-rendering:geometricprecision;d:path(&quot;M 2 3.99703 C 2 3.44639 2.45576 3 3.00247 3 L 12.9975 3 C 13.5512 3 14 3.45304 14 3.99703 L 14 10.4996 C 14 10.7759 13.771 11 13.4997 11 L 2.50035 11 C 2.22401 11 2 10.7692 2 10.4996 L 2 3.99703 Z M 1 12.5047 C 1 12.226 1.21991 12 1.49827 12 L 14.5017 12 C 14.7769 12 15 12.214 15 12.5047 L 15 13 C 15 13.5523 14.5501 14 13.9932 14 L 2.00685 14 C 1.45078 14 1 13.5561 1 13 L 1 12.5047 Z&quot;);"/></svg>