<?xml version="1.0" standalone="no"?><!DOCTYPE svg PUBLIC "-//W3C//DTD SVG 1.1//EN" "http://www.w3.org/Graphics/SVG/1.1/DTD/svg11.dtd"><svg width="12" height="12" viewBox="0 0 12 12" version="1.1" xmlns="http://www.w3.org/2000/svg" xmlns:xlink="http://www.w3.org/1999/xlink"><path fill-rule="evenodd" fill="currentColor" d="M3.35082829,5.40445687 C3.3319847,5.36912893 3.31382806,5.33337916 3.29637621,5.29722538 C3.21046313,5.12344557 3.14790758,4.97143013 3.12319662,4.84943035 C3.04303474,4.57904914 3,4.29270903 3,3.99631762 C3,2.34149709 4.34149709,1 5.99631762,1 C7.65113815,1 8.99263524,2.34149709 8.99263524,3.99631762 C8.99263524,4.63925721 8.79013372,5.23490004 8.44543166,5.72294514 C8.04274168,6.48744594 7.50709512,7.51138203 7.5070952,8.23348078 C6.64426399,8.46829962 4.80292109,8.8966351 4.80292109,8.8966351 C4.66609648,8.92866311 4.5551782,8.84506222 4.55517819,8.70605952 C4.55517819,8.70605952 4.55517819,8.85385585 4.55517818,8.23348066 C4.55517817,7.36033806 3.76111561,6.19371212 3.35082829,5.40445687 Z M4.53988584,9.68964057 C4.5377287,9.55704792 4.63677114,9.42410775 4.77368625,9.38953286 L7.56530771,8.68457031 L7.55796301,9.20357471 C7.55608549,9.33624725 7.45454051,9.46923697 7.31866893,9.50379121 L4.78421897,10.1483408 C4.65393801,10.1814733 4.54639561,10.0897743 4.54441857,9.96825219 L4.53988584,9.68964057 Z M4.51766903,10.8919111 C4.51551188,10.7593184 4.61455433,10.6263783 4.75146944,10.5918034 L7.5430909,9.88684082 L7.5357462,10.4058452 C7.53386868,10.5385178 7.4323237,10.6715075 7.29645212,10.7060617 L4.76200215,11.3506113 C4.6317212,11.3837438 4.5241788,11.2920448 4.52220176,11.1705227 L4.51766903,10.8919111 Z"/></svg>