<?xml version="1.0" standalone="no"?><!DOCTYPE svg PUBLIC "-//W3C//DTD SVG 1.1//EN" "http://www.w3.org/Graphics/SVG/1.1/DTD/svg11.dtd"><svg width="16" height="16" viewBox="0 0 16 16" version="1.1" xmlns="http://www.w3.org/2000/svg" xmlns:xlink="http://www.w3.org/1999/xlink"><path fill-rule="evenodd" fill="currentColor" d="M4.46834593,6.87982641 C4.44319027,6.8326646 4.41895166,6.78493966 4.39565393,6.73667538 C4.28096237,6.50468421 4.19745247,6.30174786 4.16446403,6.13888157 C4.05745017,5.77793024 4,5.39567422 4,5 C4,2.790861 5.790861,1 8,1 C10.209139,1 12,2.790861 12,5 C12,5.85830633 11.7296662,6.6534728 11.2694986,7.30499932 C10.7319187,8.32558646 10.0168456,9.69251242 10.0168457,10.656494 C8.86499023,10.9699706 6.55638292,11.5066245 6.55638292,11.5066245 C6.29114065,11.5688004 6.07611928,11.3919956 6.07611927,11.1190848 C6.07611927,11.1190848 6.07611928,11.4846773 6.07611927,10.6564938 C6.07611925,9.49087296 5.01606799,7.93346004 4.46834593,6.87982641 Z M6.00061035,12.8500977 C5.99605967,12.5703822 6.20979724,12.2887216 6.47215904,12.2224679 L10.0364382,11.3223877 L10.0292665,11.8291626 C10.0253058,12.1090466 9.80632544,12.390811 9.52999232,12.4610868 L6.50095269,13.2314181 C6.22917193,13.3005362 6.00535522,13.141749 6.00061035,12.8500977 Z M6.0000714,14.5372314 C5.99552072,14.2575159 6.20908108,13.9753435 6.47122905,13.9084721 L10.0326031,13 L10.0254315,13.5067749 C10.0214707,13.786659 9.80266762,14.0689352 9.52656145,14.1398666 L6.50000957,14.9173844 C6.22845203,14.9871472 6.00481627,14.8288828 6.0000714,14.5372314 Z"/></svg>