<?xml version="1.0" standalone="no"?><!DOCTYPE svg PUBLIC "-//W3C//DTD SVG 1.1//EN" "http://www.w3.org/Graphics/SVG/1.1/DTD/svg11.dtd"><svg width="16" height="16" viewBox="0 0 16 16" class="lightbulb" style="height:16px;margin-right:8px;width:16px;perspective-origin:8px 8px;transform-origin:8px 8px;shape-rendering:geometricprecision;" version="1.1" xmlns="http://www.w3.org/2000/svg" xmlns:xlink="http://www.w3.org/1999/xlink"><path fill-rule="evenodd" class="" fill="currentColor" d="M4.46834593,6.87982641 C4.44319027,6.8326646 4.41895166,6.78493966 4.39565393,6.73667538 C4.28096237,6.50468421 4.19745247,6.30174786 4.16446403,6.13888157 C4.05745017,5.77793024 4,5.39567422 4,5 C4,2.790861 5.790861,1 8,1 C10.209139,1 12,2.790861 12,5 C12,5.85830633 11.7296662,6.6534728 11.2694986,7.30499932 C10.7319187,8.32558646 10.0168456,9.69251242 10.0168457,10.656494 C8.86499023,10.9699706 6.55638292,11.5066245 6.55638292,11.5066245 C6.29114065,11.5688004 6.07611928,11.3919956 6.07611927,11.1190848 C6.07611927,11.1190848 6.07611928,11.4846773 6.07611927,10.6564938 C6.07611925,9.49087296 5.01606799,7.93346004 4.46834593,6.87982641 Z M6.00061035,12.8500977 C5.99605967,12.5703822 6.20979724,12.2887216 6.47215904,12.2224679 L10.0364382,11.3223877 L10.0292665,11.8291626 C10.0253058,12.1090466 9.80632544,12.390811 9.52999232,12.4610868 L6.50095269,13.2314181 C6.22917193,13.3005362 6.00535522,13.141749 6.00061035,12.8500977 Z M6.0000714,14.5372314 C5.99552072,14.2575159 6.20908108,13.9753435 6.47122905,13.9084721 L10.0326031,13 L10.0254315,13.5067749 C10.0214707,13.786659 9.80266762,14.0689352 9.52656145,14.1398666 L6.50000957,14.9173844 C6.22845203,14.9871472 6.00481627,14.8288828 6.0000714,14.5372314 Z" style="display:inline;height:auto;min-height:0px;min-width:0px;overflow-x:visible;overflow-y:visible;width:auto;perspective-origin:0px 0px;transform-origin:0px 0px;fill:rgb(51, 51, 51);fill-rule:evenodd;shape-rendering:geometricprecision;d:path(&quot;M 4.46835 6.87983 C 4.44319 6.83266 4.41895 6.78494 4.39565 6.73668 C 4.28096 6.50468 4.19745 6.30175 4.16446 6.13888 C 4.05745 5.77793 4 5.39567 4 5 C 4 2.79086 5.79086 1 8 1 C 10.2091 1 12 2.79086 12 5 C 12 5.85831 11.7297 6.65347 11.2695 7.305 C 10.7319 8.32559 10.0168 9.69251 10.0168 10.6565 C 8.86499 10.97 6.55638 11.5066 6.55638 11.5066 C 6.29114 11.5688 6.07612 11.392 6.07612 11.1191 C 6.07612 11.1191 6.07612 11.4847 6.07612 10.6565 C 6.07612 9.49087 5.01607 7.93346 4.46835 6.87983 Z M 6.00061 12.8501 C 5.99606 12.5704 6.2098 12.2887 6.47216 12.2225 L 10.0364 11.3224 L 10.0293 11.8292 C 10.0253 12.109 9.80633 12.3908 9.52999 12.4611 L 6.50095 13.2314 C 6.22917 13.3005 6.00536 13.1417 6.00061 12.8501 Z M 6.00007 14.5372 C 5.99552 14.2575 6.20908 13.9753 6.47123 13.9085 L 10.0326 13 L 10.0254 13.5068 C 10.0215 13.7867 9.80267 14.0689 9.52656 14.1399 L 6.50001 14.9174 C 6.22845 14.9871 6.00482 14.8289 6.00007 14.5372 Z&quot;);"/></svg>