<?xml version="1.0" standalone="no"?><!DOCTYPE svg PUBLIC "-//W3C//DTD SVG 1.1//EN" "http://www.w3.org/Graphics/SVG/1.1/DTD/svg11.dtd"><svg width="12" height="12" viewBox="0 0 12 12" version="1.1" xmlns="http://www.w3.org/2000/svg" xmlns:xlink="http://www.w3.org/1999/xlink"><path fill-rule="evenodd" fill="currentColor" d="M5.35340417,5 L0.995397568,5 C0.445654671,5 0,4.55664682 0,3.9906311 L0,2.0093689 C0,1.45190985 0.455664396,1 0.995397568,1 L9.00460243,1 C9.55434533,1 10,1.44335318 10,2.0093689 L10,3.9906311 C10,4.54809015 9.5443356,5 9.00460243,5 L6.52428697,5 L7.42876775,6.48344898 L8.29479316,5.98344898 C8.64033729,5.78394898 9.06981736,6.04983029 9.04355972,6.44835072 L8.83510627,8.7695724 C8.78591831,9.31730214 8.33997236,9.57645168 7.83941404,9.34443558 L5.72495038,8.36435072 C5.36669274,8.18783029 5.35117281,7.68294898 5.69671694,7.48344898 L6.56274235,6.98344898 L5.35340417,5 Z M5.53407515,7 L5.44671694,7.05043628 C4.75517907,7.44969586 4.78706592,8.45963548 5.5039598,8.81286289 L7.62914619,9.79807357 C8.44333374,10.1754614 9.2529254,9.70709858 9.33310223,8.8142941 L9.49603189,7 L11.0046024,7 C11.5543453,7 12,7.44335318 12,8.0093689 L12,9.9906311 C12,10.5480902 11.5443356,11 11.0046024,11 L2.99539757,11 C2.44565467,11 2,10.5566468 2,9.9906311 L2,8.0093689 C2,7.45190985 2.4556644,7 2.99539757,7 L5.53407515,7 Z"/></svg>