<?xml version="1.0" standalone="no"?><!DOCTYPE svg PUBLIC "-//W3C//DTD SVG 1.1//EN" "http://www.w3.org/Graphics/SVG/1.1/DTD/svg11.dtd"><svg width="16" height="16" viewBox="0 0 16 16" version="1.1" xmlns="http://www.w3.org/2000/svg" xmlns:xlink="http://www.w3.org/1999/xlink"><path fill-rule="evenodd" fill="currentColor" d="M7.41759754,7 L1.00684547,7 C0.450780073,7 0,6.55628335 0,6.00019251 L0,2.99980749 C0,2.44762906 0.449948758,2 1.00684547,2 L12.9931545,2 C13.5492199,2 14,2.44371665 14,2.99980749 L14,6.00019251 C14,6.55237094 13.5500512,7 12.9931545,7 L8.57229808,7 L9.42876775,8.48344898 L10.2947932,7.98344898 C10.6403373,7.78394898 11.0698174,8.04983029 11.0435597,8.44835072 L10.8351063,10.7695724 C10.7859183,11.3173021 10.3399724,11.5764517 9.83941404,11.3444356 L7.72495038,10.3643507 C7.36669274,10.1878303 7.35117281,9.68294898 7.69671694,9.48344898 L8.56274235,8.98344898 L7.41759754,7 Z M6.75599545,9 C6.20659035,9.71034492 6.39305175,10.8228956 7.28296922,11.2613751 L9.41887834,12.2517116 C10.5472527,12.7747296 11.7199875,12.0962821 11.8310982,10.8590158 L11.998044,9 L15.0014977,9 C15.5529553,9 16,9.44371665 16,9.99980749 L16,13.0001925 C16,13.5523709 15.5525106,14 15.0014977,14 L3.99850233,14 C3.44704472,14 3,13.5562834 3,13.0001925 L3,9.99980749 C3,9.44762906 3.44748943,9 3.99850233,9 L6.75599545,9 Z"/></svg>