<?xml version="1.0" standalone="no"?><!DOCTYPE svg PUBLIC "-//W3C//DTD SVG 1.1//EN" "http://www.w3.org/Graphics/SVG/1.1/DTD/svg11.dtd"><svg width="12" height="12" viewBox="0 0 12 12" class="link1Micro" style="height:12px;margin-right:16px;width:12px;perspective-origin:6px 6px;transform-origin:6px 6px;shape-rendering:geometricprecision;" version="1.1" xmlns="http://www.w3.org/2000/svg" xmlns:xlink="http://www.w3.org/1999/xlink"><path fill-rule="evenodd" class="" fill="currentColor" d="M7 6a1 1 0 0 1 1.01-1h1.98a1 1 0 1 1 0 2H8.01C7.451 7 7 6.556 7 6zm-5 4c0-.552.446-1 .998-1h7.004c.551 0 .998.444.998 1 0 .552-.446 1-.998 1H2.998A.996.996 0 0 1 2 10zm0-8c0-.552.446-1 .998-1h7.004c.551 0 .998.444.998 1 0 .552-.446 1-.998 1H2.998A.996.996 0 0 1 2 2zm1.01 3L3 4.501a.5.5 0 0 1 .777-.416l1.906 1.341c.45.317.451.832 0 1.15L3.777 7.917A.5.5 0 0 1 3 7.501V7H.999A.997.997 0 0 1 0 6c0-.556.449-1 1.002-1H3.01z" style="display:inline;height:auto;min-height:0px;min-width:0px;overflow-x:visible;overflow-y:visible;width:auto;perspective-origin:0px 0px;transform-origin:0px 0px;fill:rgb(51, 51, 51);fill-rule:evenodd;shape-rendering:geometricprecision;d:path(&quot;M 7 6 A 1 1 0 0 1 8.01 5 H 9.99 A 1 1 0 1 1 9.99 7 H 8.01 C 7.451 7 7 6.556 7 6 Z M 2 10 C 2 9.448 2.446 9 2.998 9 H 10.002 C 10.553 9 11 9.444 11 10 C 11 10.552 10.554 11 10.002 11 H 2.998 A 0.996 0.996 0 0 1 2 10 Z M 2 2 C 2 1.448 2.446 1 2.998 1 H 10.002 C 10.553 1 11 1.444 11 2 C 11 2.552 10.554 3 10.002 3 H 2.998 A 0.996 0.996 0 0 1 2 2 Z M 3.01 5 L 3 4.501 A 0.5 0.5 0 0 1 3.777 4.085 L 5.683 5.426 C 6.133 5.743 6.134 6.258 5.683 6.576 L 3.777 7.917 A 0.5 0.5 0 0 1 3 7.501 V 7 H 0.999 A 0.997 0.997 0 0 1 0 6 C 0 5.444 0.449 5 1.002 5 H 3.01 Z&quot;);"/></svg>