<?xml version="1.0" standalone="no"?><!DOCTYPE svg PUBLIC "-//W3C//DTD SVG 1.1//EN" "http://www.w3.org/Graphics/SVG/1.1/DTD/svg11.dtd"><svg width="12" height="12" viewBox="0 0 12 12" class="linkMicro" style="height:12px;margin-right:16px;width:12px;perspective-origin:6px 6px;transform-origin:6px 6px;shape-rendering:geometricprecision;" version="1.1" xmlns="http://www.w3.org/2000/svg" xmlns:xlink="http://www.w3.org/1999/xlink"><path fill-rule="evenodd" class="" fill="currentColor" d="M5.35340417,5 L0.995397568,5 C0.445654671,5 0,4.55664682 0,3.9906311 L0,2.0093689 C0,1.45190985 0.455664396,1 0.995397568,1 L9.00460243,1 C9.55434533,1 10,1.44335318 10,2.0093689 L10,3.9906311 C10,4.54809015 9.5443356,5 9.00460243,5 L6.52428697,5 L7.42876775,6.48344898 L8.29479316,5.98344898 C8.64033729,5.78394898 9.06981736,6.04983029 9.04355972,6.44835072 L8.83510627,8.7695724 C8.78591831,9.31730214 8.33997236,9.57645168 7.83941404,9.34443558 L5.72495038,8.36435072 C5.36669274,8.18783029 5.35117281,7.68294898 5.69671694,7.48344898 L6.56274235,6.98344898 L5.35340417,5 Z M5.53407515,7 L5.44671694,7.05043628 C4.75517907,7.44969586 4.78706592,8.45963548 5.5039598,8.81286289 L7.62914619,9.79807357 C8.44333374,10.1754614 9.2529254,9.70709858 9.33310223,8.8142941 L9.49603189,7 L11.0046024,7 C11.5543453,7 12,7.44335318 12,8.0093689 L12,9.9906311 C12,10.5480902 11.5443356,11 11.0046024,11 L2.99539757,11 C2.44565467,11 2,10.5566468 2,9.9906311 L2,8.0093689 C2,7.45190985 2.4556644,7 2.99539757,7 L5.53407515,7 Z" style="display:inline;height:auto;min-height:0px;min-width:0px;overflow-x:visible;overflow-y:visible;width:auto;perspective-origin:0px 0px;transform-origin:0px 0px;fill:rgb(51, 51, 51);fill-rule:evenodd;shape-rendering:geometricprecision;d:path(&quot;M 5.3534 5 L 0.995398 5 C 0.445655 5 0 4.55665 0 3.99063 L 0 2.00937 C 0 1.45191 0.455664 1 0.995398 1 L 9.0046 1 C 9.55435 1 10 1.44335 10 2.00937 L 10 3.99063 C 10 4.54809 9.54434 5 9.0046 5 L 6.52429 5 L 7.42877 6.48345 L 8.29479 5.98345 C 8.64034 5.78395 9.06982 6.04983 9.04356 6.44835 L 8.83511 8.76957 C 8.78592 9.3173 8.33997 9.57645 7.83941 9.34444 L 5.72495 8.36435 C 5.36669 8.18783 5.35117 7.68295 5.69672 7.48345 L 6.56274 6.98345 L 5.3534 5 Z M 5.53408 7 L 5.44672 7.05044 C 4.75518 7.4497 4.78707 8.45964 5.50396 8.81286 L 7.62915 9.79807 C 8.44333 10.1755 9.25293 9.7071 9.3331 8.81429 L 9.49603 7 L 11.0046 7 C 11.5543 7 12 7.44335 12 8.00937 L 12 9.99063 C 12 10.5481 11.5443 11 11.0046 11 L 2.9954 11 C 2.44565 11 2 10.5566 2 9.99063 L 2 8.00937 C 2 7.45191 2.45566 7 2.9954 7 L 5.53408 7 Z&quot;);"/></svg>