<?xml version="1.0" standalone="no"?><!DOCTYPE svg PUBLIC "-//W3C//DTD SVG 1.1//EN" "http://www.w3.org/Graphics/SVG/1.1/DTD/svg11.dtd"><svg width="16" height="16" viewBox="0 0 16 16" class="link1" version="1.1" xmlns="http://www.w3.org/2000/svg" xmlns:xlink="http://www.w3.org/1999/xlink"><path fill-rule="evenodd" fill="currentColor" d="M4,9 L4,9.50097312 C4,9.89997312 4.445,10.1389731 4.777,9.91697312 L6.68301021,8.57583629 C7.13422121,8.25834813 7.1327641,7.74257283 6.68301021,7.42610994 L4.777,6.08497312 C4.445,5.86297312 4,6.10197312 4,6.50097312 L4,7.00194624 L0.997898413,7.00194624 C0.450942116,7.00194624 6.04355052e-25,7.44922581 0,8.00097312 C-6.08568505e-25,8.55656711 0.446774338,9 0.997898413,9 L4,9 Z M8,7.99902688 C8,7.44727957 8.43788135,7 9.00292933,7 L13.9970707,7 C14.5509732,7 15,7.44343289 15,7.99902688 C15,8.55077419 14.5621186,8.99805376 13.9970707,8.99805376 L9.00292933,8.99805376 C8.44902676,8.99805376 8,8.55462088 8,7.99902688 Z M2,13.0009731 C2,12.4492258 2.44748943,12.0019462 2.99850233,12.0019462 L14.0014977,12.0019462 C14.5529553,12.0019462 15,12.4453791 15,13.0009731 C15,13.5527204 14.5525106,14 14.0014977,14 L2.99850233,14 C2.44704472,14 2,13.5565671 2,13.0009731 Z M2,3.00097312 C2,2.44922581 2.44748943,2.00194624 2.99850233,2.00194624 L14.0014977,2.00194624 C14.5529553,2.00194624 15,2.44537912 15,3.00097312 C15,3.55272043 14.5525106,4 14.0014977,4 L2.99850233,4 C2.44704472,4 2,3.55656711 2,3.00097312 Z"/></svg>