<?xml version="1.0" standalone="no"?><!DOCTYPE svg PUBLIC "-//W3C//DTD SVG 1.1//EN" "http://www.w3.org/Graphics/SVG/1.1/DTD/svg11.dtd"><svg width="12" height="12" viewBox="0 0 12 12" class="link1Micro" version="1.1" xmlns="http://www.w3.org/2000/svg" xmlns:xlink="http://www.w3.org/1999/xlink"><path fill-rule="evenodd" fill="currentColor" d="M7 6a1 1 0 0 1 1.01-1h1.98a1 1 0 1 1 0 2H8.01C7.451 7 7 6.556 7 6zm-5 4c0-.552.446-1 .998-1h7.004c.551 0 .998.444.998 1 0 .552-.446 1-.998 1H2.998A.996.996 0 0 1 2 10zm0-8c0-.552.446-1 .998-1h7.004c.551 0 .998.444.998 1 0 .552-.446 1-.998 1H2.998A.996.996 0 0 1 2 2zm1.01 3L3 4.501a.5.5 0 0 1 .777-.416l1.906 1.341c.45.317.451.832 0 1.15L3.777 7.917A.5.5 0 0 1 3 7.501V7H.999A.997.997 0 0 1 0 6c0-.556.449-1 1.002-1H3.01z"/></svg>