<?xml version="1.0" standalone="no"?><!DOCTYPE svg PUBLIC "-//W3C//DTD SVG 1.1//EN" "http://www.w3.org/Graphics/SVG/1.1/DTD/svg11.dtd"><svg width="16" height="16" viewBox="0 0 16 16" class="link" style="height:16px;margin-right:8px;width:16px;perspective-origin:8px 8px;transform-origin:8px 8px;shape-rendering:geometricprecision;" version="1.1" xmlns="http://www.w3.org/2000/svg" xmlns:xlink="http://www.w3.org/1999/xlink"><path fill-rule="evenodd" class="" fill="currentColor" d="M7.41759754,7 L1.00684547,7 C0.450780073,7 0,6.55628335 0,6.00019251 L0,2.99980749 C0,2.44762906 0.449948758,2 1.00684547,2 L12.9931545,2 C13.5492199,2 14,2.44371665 14,2.99980749 L14,6.00019251 C14,6.55237094 13.5500512,7 12.9931545,7 L8.57229808,7 L9.42876775,8.48344898 L10.2947932,7.98344898 C10.6403373,7.78394898 11.0698174,8.04983029 11.0435597,8.44835072 L10.8351063,10.7695724 C10.7859183,11.3173021 10.3399724,11.5764517 9.83941404,11.3444356 L7.72495038,10.3643507 C7.36669274,10.1878303 7.35117281,9.68294898 7.69671694,9.48344898 L8.56274235,8.98344898 L7.41759754,7 Z M6.75599545,9 C6.20659035,9.71034492 6.39305175,10.8228956 7.28296922,11.2613751 L9.41887834,12.2517116 C10.5472527,12.7747296 11.7199875,12.0962821 11.8310982,10.8590158 L11.998044,9 L15.0014977,9 C15.5529553,9 16,9.44371665 16,9.99980749 L16,13.0001925 C16,13.5523709 15.5525106,14 15.0014977,14 L3.99850233,14 C3.44704472,14 3,13.5562834 3,13.0001925 L3,9.99980749 C3,9.44762906 3.44748943,9 3.99850233,9 L6.75599545,9 Z" style="display:inline;height:auto;min-height:0px;min-width:0px;overflow-x:visible;overflow-y:visible;width:auto;perspective-origin:0px 0px;transform-origin:0px 0px;fill:rgb(51, 51, 51);fill-rule:evenodd;shape-rendering:geometricprecision;d:path(&quot;M 7.4176 7 L 1.00685 7 C 0.45078 7 0 6.55628 0 6.00019 L 0 2.99981 C 0 2.44763 0.449949 2 1.00685 2 L 12.9932 2 C 13.5492 2 14 2.44372 14 2.99981 L 14 6.00019 C 14 6.55237 13.5501 7 12.9932 7 L 8.5723 7 L 9.42877 8.48345 L 10.2948 7.98345 C 10.6403 7.78395 11.0698 8.04983 11.0436 8.44835 L 10.8351 10.7696 C 10.7859 11.3173 10.34 11.5765 9.83941 11.3444 L 7.72495 10.3644 C 7.36669 10.1878 7.35117 9.68295 7.69672 9.48345 L 8.56274 8.98345 L 7.4176 7 Z M 6.756 9 C 6.20659 9.71035 6.39305 10.8229 7.28297 11.2614 L 9.41888 12.2517 C 10.5473 12.7747 11.72 12.0963 11.8311 10.859 L 11.998 9 L 15.0015 9 C 15.553 9 16 9.44372 16 9.99981 L 16 13.0002 C 16 13.5524 15.5525 14 15.0015 14 L 3.9985 14 C 3.44704 14 3 13.5563 3 13.0002 L 3 9.99981 C 3 9.44763 3.44749 9 3.9985 9 L 6.756 9 Z&quot;);"/></svg>