<?xml version="1.0" standalone="no"?><!DOCTYPE svg PUBLIC "-//W3C//DTD SVG 1.1//EN" "http://www.w3.org/Graphics/SVG/1.1/DTD/svg11.dtd"><svg width="16" height="16" viewBox="0 0 16 16" version="1.1" xmlns="http://www.w3.org/2000/svg" xmlns:xlink="http://www.w3.org/1999/xlink"><path fill-rule="evenodd" fill="currentColor" d="M12.636 7.91V6.726C12.636 4.364 10.52 2 7.91 2 5.3 2 3.182 4.334 3.182 6.727V7.91C2.529 7.91 2 8.442 2 9.08v4.75c0 .646.539 1.17 1.176 1.17h9.466a1.18 1.18 0 0 0 1.176-1.17V9.08a1.18 1.18 0 0 0-1.182-1.17zm-7.09 0h4.727V6.726s0-2.363-2.364-2.363-2.364 2.363-2.364 2.363V7.91z"/></svg>