<?xml version="1.0" standalone="no"?><!DOCTYPE svg PUBLIC "-//W3C//DTD SVG 1.1//EN" "http://www.w3.org/Graphics/SVG/1.1/DTD/svg11.dtd"><svg width="16" height="16" viewBox="0 0 16 16" class="lock" style="height:16px;margin-right:8px;width:16px;perspective-origin:8px 8px;transform-origin:8px 8px;shape-rendering:geometricprecision;" version="1.1" xmlns="http://www.w3.org/2000/svg" xmlns:xlink="http://www.w3.org/1999/xlink"><path fill-rule="evenodd" class="" fill="currentColor" d="M12.636 7.91V6.726C12.636 4.364 10.52 2 7.91 2 5.3 2 3.182 4.334 3.182 6.727V7.91C2.529 7.91 2 8.442 2 9.08v4.75c0 .646.539 1.17 1.176 1.17h9.466a1.18 1.18 0 0 0 1.176-1.17V9.08a1.18 1.18 0 0 0-1.182-1.17zm-7.09 0h4.727V6.726s0-2.363-2.364-2.363-2.364 2.363-2.364 2.363V7.91z" style="display:inline;height:auto;min-height:0px;min-width:0px;overflow-x:visible;overflow-y:visible;width:auto;perspective-origin:0px 0px;transform-origin:0px 0px;fill:rgb(51, 51, 51);fill-rule:evenodd;shape-rendering:geometricprecision;d:path(&quot;M 12.636 7.91 V 6.726 C 12.636 4.364 10.52 2 7.91 2 C 5.3 2 3.182 4.334 3.182 6.727 V 7.91 C 2.529 7.91 2 8.442 2 9.08 V 13.83 C 2 14.476 2.539 15 3.176 15 H 12.642 A 1.18 1.18 0 0 0 13.818 13.83 V 9.08 A 1.18 1.18 0 0 0 12.636 7.91 Z M 5.546 7.91 H 10.273 V 6.726 S 10.273 4.363 7.909 4.363 S 5.545 6.726 5.545 6.726 V 7.91 Z&quot;);"/></svg>