<?xml version="1.0" standalone="no"?><!DOCTYPE svg PUBLIC "-//W3C//DTD SVG 1.1//EN" "http://www.w3.org/Graphics/SVG/1.1/DTD/svg11.dtd"><svg width="12" height="12" viewBox="0 0 12 12" version="1.1" xmlns="http://www.w3.org/2000/svg" xmlns:xlink="http://www.w3.org/1999/xlink"><path fill-rule="evenodd" fill="currentColor" d="M10,6.0000001 L10,5 C10,2.99999988 8.209,1 6,1 C3.791,1 2,2.97508333 2,5 L2,6.0000001 C1.44771525,6.0000001 1,6.45097524 1,6.99077799 L1,11.0092217 C1,11.5564132 1.4556644,11.9999996 1.99539757,11.9999996 L10.0046024,11.9999996 C10.5543453,11.9999996 11,11.5490245 11,11.0092217 L11,6.99077799 C11,6.44358647 10.546814,6.0000001 10,6.0000001 L10,6.0000001 Z M4,6 L8,6 L8,5 C8,5 8,3 6,3 C4,3 4,5 4,5 L4,6 L4,6 Z"/></svg>