<?xml version="1.0" standalone="no"?><!DOCTYPE svg PUBLIC "-//W3C//DTD SVG 1.1//EN" "http://www.w3.org/Graphics/SVG/1.1/DTD/svg11.dtd"><svg width="12" height="12" viewBox="0 0 12 12" class="lockMicro" style="height:12px;margin-right:16px;width:12px;perspective-origin:6px 6px;transform-origin:6px 6px;shape-rendering:geometricprecision;" version="1.1" xmlns="http://www.w3.org/2000/svg" xmlns:xlink="http://www.w3.org/1999/xlink"><path fill-rule="evenodd" class="" fill="currentColor" d="M10,6.0000001 L10,5 C10,2.99999988 8.209,1 6,1 C3.791,1 2,2.97508333 2,5 L2,6.0000001 C1.44771525,6.0000001 1,6.45097524 1,6.99077799 L1,11.0092217 C1,11.5564132 1.4556644,11.9999996 1.99539757,11.9999996 L10.0046024,11.9999996 C10.5543453,11.9999996 11,11.5490245 11,11.0092217 L11,6.99077799 C11,6.44358647 10.546814,6.0000001 10,6.0000001 L10,6.0000001 Z M4,6 L8,6 L8,5 C8,5 8,3 6,3 C4,3 4,5 4,5 L4,6 L4,6 Z" style="display:inline;height:auto;min-height:0px;min-width:0px;overflow-x:visible;overflow-y:visible;width:auto;perspective-origin:0px 0px;transform-origin:0px 0px;fill:rgb(51, 51, 51);fill-rule:evenodd;shape-rendering:geometricprecision;d:path(&quot;M 10 6 L 10 5 C 10 3 8.209 1 6 1 C 3.791 1 2 2.97508 2 5 L 2 6 C 1.44772 6 1 6.45098 1 6.99078 L 1 11.0092 C 1 11.5564 1.45566 12 1.9954 12 L 10.0046 12 C 10.5543 12 11 11.549 11 11.0092 L 11 6.99078 C 11 6.44359 10.5468 6 10 6 L 10 6 Z M 4 6 L 8 6 L 8 5 C 8 5 8 3 6 3 C 4 3 4 5 4 5 L 4 6 L 4 6 Z&quot;);"/></svg>