<?xml version="1.0" standalone="no"?><!DOCTYPE svg PUBLIC "-//W3C//DTD SVG 1.1//EN" "http://www.w3.org/Graphics/SVG/1.1/DTD/svg11.dtd"><svg width="12" height="12" viewBox="0 0 12 12" class="logoutMicro" style="height:12px;margin-right:16px;width:12px;perspective-origin:6px 6px;transform-origin:6px 6px;shape-rendering:geometricprecision;" version="1.1" xmlns="http://www.w3.org/2000/svg" xmlns:xlink="http://www.w3.org/1999/xlink"><path fill-rule="evenodd" class="" fill="currentColor" d="M9 7H4.99A.993.993 0 0 1 4 6a1 1 0 0 1 .99-1H9v-.5c0-.556.346-.712.773-.356l1.847 1.54a.402.402 0 0 1 0 .632l-1.847 1.54C9.344 8.213 9 8.052 9 7.5V7zm-7 3h5V9a.5.5 0 0 1 1 0v1.5a.5.5 0 0 1-.5.5h-6a.5.5 0 0 1-.5-.5v-9a.5.5 0 0 1 .5-.5h6a.5.5 0 0 1 .5.5V3a.5.5 0 0 1-1 0V2H2v8z" style="display:inline;height:auto;min-height:0px;min-width:0px;overflow-x:visible;overflow-y:visible;width:auto;perspective-origin:0px 0px;transform-origin:0px 0px;fill:rgb(51, 51, 51);fill-rule:evenodd;shape-rendering:geometricprecision;d:path(&quot;M 9 7 H 4.99 A 0.993 0.993 0 0 1 4 6 A 1 1 0 0 1 4.99 5 H 9 V 4.5 C 9 3.944 9.346 3.788 9.773 4.144 L 11.62 5.684 A 0.402 0.402 0 0 1 11.62 6.316 L 9.773 7.856 C 9.344 8.213 9 8.052 9 7.5 V 7 Z M 2 10 H 7 V 9 A 0.5 0.5 0 0 1 8 9 V 10.5 A 0.5 0.5 0 0 1 7.5 11 H 1.5 A 0.5 0.5 0 0 1 1 10.5 V 1.5 A 0.5 0.5 0 0 1 1.5 1 H 7.5 A 0.5 0.5 0 0 1 8 1.5 V 3 A 0.5 0.5 0 0 1 7 3 V 2 H 2 V 10 Z&quot;);"/></svg>