<?xml version="1.0" standalone="no"?><!DOCTYPE svg PUBLIC "-//W3C//DTD SVG 1.1//EN" "http://www.w3.org/Graphics/SVG/1.1/DTD/svg11.dtd"><svg width="16" height="16" viewBox="0 0 16 16" version="1.1" xmlns="http://www.w3.org/2000/svg" xmlns:xlink="http://www.w3.org/1999/xlink"><path fill-rule="evenodd" fill="currentColor" d="M12 7V5.99c0-.539.34-.698.76-.339l1.98 1.7c.424.363.42.942 0 1.301l-1.98 1.697c-.424.364-.76.207-.76-.34V9H6a1 1 0 1 1 0-2h6zm-3.491 6A.49.49 0 0 0 9 12.505v-1.506A.997.997 0 0 1 10 10c.552 0 1 .444 1 1v1.995A1.997 1.997 0 0 1 9 15H3c-1.105 0-2-.897-2-2.006V3.006C1 1.898 1.887 1 3 1h6a2 2 0 0 1 2 2.005V5c0 .552-.444 1-1 1-.552 0-1-.443-1-.999V3.495A.498.498 0 0 0 8.509 3H3.491A.5.5 0 0 0 3 3.51v8.98c0 .282.228.51.491.51h5.018z"/></svg>