<?xml version="1.0" standalone="no"?><!DOCTYPE svg PUBLIC "-//W3C//DTD SVG 1.1//EN" "http://www.w3.org/Graphics/SVG/1.1/DTD/svg11.dtd"><svg width="12" height="12" viewBox="0 0 12 12" version="1.1" xmlns="http://www.w3.org/2000/svg" xmlns:xlink="http://www.w3.org/1999/xlink"><path fill-rule="evenodd" fill="currentColor" d="M9 7H4.99A.993.993 0 0 1 4 6a1 1 0 0 1 .99-1H9v-.5c0-.556.346-.712.773-.356l1.847 1.54a.402.402 0 0 1 0 .632l-1.847 1.54C9.344 8.213 9 8.052 9 7.5V7zm-7 3h5V9a.5.5 0 0 1 1 0v1.5a.5.5 0 0 1-.5.5h-6a.5.5 0 0 1-.5-.5v-9a.5.5 0 0 1 .5-.5h6a.5.5 0 0 1 .5.5V3a.5.5 0 0 1-1 0V2H2v8z"/></svg>