<?xml version="1.0" standalone="no"?><!DOCTYPE svg PUBLIC "-//W3C//DTD SVG 1.1//EN" "http://www.w3.org/Graphics/SVG/1.1/DTD/svg11.dtd"><svg width="16" height="16" viewBox="0 0 16 16" class="logout" style="height:16px;margin-right:8px;width:16px;perspective-origin:8px 8px;transform-origin:8px 8px;shape-rendering:geometricprecision;" version="1.1" xmlns="http://www.w3.org/2000/svg" xmlns:xlink="http://www.w3.org/1999/xlink"><path fill-rule="evenodd" class="" fill="currentColor" d="M12 7V5.99c0-.539.34-.698.76-.339l1.98 1.7c.424.363.42.942 0 1.301l-1.98 1.697c-.424.364-.76.207-.76-.34V9H6a1 1 0 1 1 0-2h6zm-3.491 6A.49.49 0 0 0 9 12.505v-1.506A.997.997 0 0 1 10 10c.552 0 1 .444 1 1v1.995A1.997 1.997 0 0 1 9 15H3c-1.105 0-2-.897-2-2.006V3.006C1 1.898 1.887 1 3 1h6a2 2 0 0 1 2 2.005V5c0 .552-.444 1-1 1-.552 0-1-.443-1-.999V3.495A.498.498 0 0 0 8.509 3H3.491A.5.5 0 0 0 3 3.51v8.98c0 .282.228.51.491.51h5.018z" style="display:inline;height:auto;min-height:0px;min-width:0px;overflow-x:visible;overflow-y:visible;width:auto;perspective-origin:0px 0px;transform-origin:0px 0px;fill:rgb(51, 51, 51);fill-rule:evenodd;shape-rendering:geometricprecision;d:path(&quot;M 12 7 V 5.99 C 12 5.451 12.34 5.292 12.76 5.651 L 14.74 7.351 C 15.164 7.714 15.16 8.293 14.74 8.652 L 12.76 10.349 C 12.336 10.713 12 10.556 12 10.009 V 9 H 6 A 1 1 0 1 1 6 7 H 12 Z M 8.509 13 A 0.49 0.49 0 0 0 9 12.505 V 10.999 A 0.997 0.997 0 0 1 10 10 C 10.552 10 11 10.444 11 11 V 12.995 A 1.997 1.997 0 0 1 9 15 H 3 C 1.895 15 1 14.103 1 12.994 V 3.006 C 1 1.898 1.887 1 3 1 H 9 A 2 2 0 0 1 11 3.005 V 5 C 11 5.552 10.556 6 10 6 C 9.448 6 9 5.557 9 5.001 V 3.495 A 0.498 0.498 0 0 0 8.509 3 H 3.491 A 0.5 0.5 0 0 0 3 3.51 V 12.49 C 3 12.772 3.228 13 3.491 13 H 8.509 Z&quot;);"/></svg>