<?xml version="1.0" standalone="no"?><!DOCTYPE svg PUBLIC "-//W3C//DTD SVG 1.1//EN" "http://www.w3.org/Graphics/SVG/1.1/DTD/svg11.dtd"><svg width="12" height="12" viewBox="0 0 12 12" version="1.1" xmlns="http://www.w3.org/2000/svg" xmlns:xlink="http://www.w3.org/1999/xlink"><path fill-rule="evenodd" fill="currentColor" d="M9,6 C8.448,6 8,5.552 8,5 C8,4.448 8.448,4 9,4 C9.552,4 10,4.448 10,5 C10,5.552 9.552,6 9,6 M11.646,6.939 C11.842,7.135 11.842,7.451 11.646,7.646 C11.451,7.842 11.135,7.842 10.939,7.646 L10.086,6.793 C10.06,6.767 10.047,6.735 10.028,6.706 C9.727,6.889 9.377,7 9,7 C7.897,7 7,6.103 7,5 C7,3.897 7.897,3 9,3 C10.103,3 11,3.897 11,5 C11,5.377 10.889,5.727 10.706,6.028 C10.735,6.047 10.767,6.06 10.793,6.086 L11.646,6.939 Z M0,2 C0,1.44771525 0.45097518,1 0.990777969,1 L5.00922203,1 C5.55641359,1 6,1.44386482 6,2 C6,2.55228475 5.54902482,3 5.00922203,3 L0.990777969,3 C0.443586406,3 0,2.55613518 0,2 Z M0,6 C0,5.44771525 0.45097518,5 0.990777969,5 L5.00922203,5 C5.55641359,5 6,5.44386482 6,6 C6,6.55228475 5.54902482,7 5.00922203,7 L0.990777969,7 C0.443586406,7 0,6.55613518 0,6 Z M0,10 C0,9.44771525 0.45097518,9 0.990777969,9 L5.00922203,9 C5.55641359,9 6,9.44386482 6,10 C6,10.5522847 5.54902482,11 5.00922203,11 L0.990777969,11 C0.443586406,11 0,10.5561352 0,10 Z"/></svg>