<?xml version="1.0" standalone="no"?><!DOCTYPE svg PUBLIC "-//W3C//DTD SVG 1.1//EN" "http://www.w3.org/Graphics/SVG/1.1/DTD/svg11.dtd"><svg width="16" height="16" viewBox="0 0 16 16" class="lookup" style="height:16px;margin-right:8px;width:16px;perspective-origin:8px 8px;transform-origin:8px 8px;shape-rendering:geometricprecision;" version="1.1" xmlns="http://www.w3.org/2000/svg" xmlns:xlink="http://www.w3.org/1999/xlink"><path fill-rule="evenodd" class="" fill="currentColor" d="M6.79075852,9 C7.11345303,9.79719048 7.68568438,10.4666725 8.41059363,10.9115871 C8.28567247,10.9683824 8.14753287,11 8.00296986,11 L1.99703014,11 C1.4463856,11 1,10.5561352 1,10 C1,9.44771525 1.45303631,9 1.99703014,9 L6.79075852,9 Z M7.37731452,5 L1.99703014,5 C1.45303631,5 1,5.44771525 1,6 C1,6.55613518 1.4463856,7 1.99703014,7 L6.53094688,7 C6.62462514,6.24876028 6.92662549,5.56221582 7.37731452,5 Z M1,14 C1,13.4477153 1.45303631,13 1.99703014,13 L8.00296986,13 C8.5536144,13 9,13.4438648 9,14 C9,14.5522847 8.54696369,15 8.00296986,15 L1.99703014,15 C1.4463856,15 1,14.5561352 1,14 Z M1,2 C1,1.44771525 1.45303631,1 1.99703014,1 L8.00296986,1 C8.5536144,1 9,1.44386482 9,2 C9,2.55228475 8.54696369,3 8.00296986,3 L1.99703014,3 C1.4463856,3 1,2.55613518 1,2 Z M13.2234848,8.97913237 L15.3816998,11.1259269 C15.6088804,11.3507523 15.6088804,11.7162377 15.3816998,11.9410631 L14.9505205,12.3711138 C14.7233399,12.5959392 14.3570693,12.5959392 14.1298888,12.3711138 L11.9716737,10.2243193 C11.920674,10.1735895 11.8859015,10.113636 11.8569244,10.0525296 C11.4454495,10.2727432 10.9806566,10.4099444 10.4810913,10.4099444 C8.86532776,10.4099444 7.55208522,9.10249811 7.55208522,7.49643756 C7.55208522,5.88922407 8.86532776,4.58177779 10.4810913,4.58177779 C12.0968549,4.58177779 13.4100974,5.88922407 13.4100974,7.49643756 C13.4100974,7.99335938 13.2733254,8.45453973 13.0507812,8.86499023 C13.1133718,8.89266105 13.1724851,8.92840253 13.2234848,8.97913237 Z M8.76863051,7.50791919 C8.76863051,8.47985676 9.5602851,9.26847515 10.5385523,9.26847515 C11.5168194,9.26847515 12.308474,8.47985676 12.308474,7.50791919 C12.308474,6.53482866 11.5168194,5.74621027 10.5385523,5.74621027 C9.5602851,5.74621027 8.76863051,6.53482866 8.76863051,7.50791919 Z" style="display:inline;height:auto;min-height:0px;min-width:0px;overflow-x:visible;overflow-y:visible;width:auto;perspective-origin:0px 0px;transform-origin:0px 0px;fill:rgb(51, 51, 51);fill-rule:evenodd;shape-rendering:geometricprecision;d:path(&quot;M 6.79076 9 C 7.11345 9.79719 7.68568 10.4667 8.41059 10.9116 C 8.28567 10.9684 8.14753 11 8.00297 11 L 1.99703 11 C 1.44639 11 1 10.5561 1 10 C 1 9.44772 1.45304 9 1.99703 9 L 6.79076 9 Z M 7.37731 5 L 1.99703 5 C 1.45304 5 1 5.44772 1 6 C 1 6.55614 1.44639 7 1.99703 7 L 6.53095 7 C 6.62463 6.24876 6.92663 5.56222 7.37731 5 Z M 1 14 C 1 13.4477 1.45304 13 1.99703 13 L 8.00297 13 C 8.55361 13 9 13.4439 9 14 C 9 14.5523 8.54696 15 8.00297 15 L 1.99703 15 C 1.44639 15 1 14.5561 1 14 Z M 1 2 C 1 1.44772 1.45304 1 1.99703 1 L 8.00297 1 C 8.55361 1 9 1.44386 9 2 C 9 2.55228 8.54696 3 8.00297 3 L 1.99703 3 C 1.44639 3 1 2.55614 1 2 Z M 13.2235 8.97913 L 15.3817 11.1259 C 15.6089 11.3508 15.6089 11.7162 15.3817 11.9411 L 14.9505 12.3711 C 14.7233 12.5959 14.3571 12.5959 14.1299 12.3711 L 11.9717 10.2243 C 11.9207 10.1736 11.8859 10.1136 11.8569 10.0525 C 11.4454 10.2727 10.9807 10.4099 10.4811 10.4099 C 8.86533 10.4099 7.55208 9.1025 7.55208 7.49644 C 7.55208 5.88922 8.86533 4.58178 10.4811 4.58178 C 12.0969 4.58178 13.4101 5.88922 13.4101 7.49644 C 13.4101 7.99336 13.2733 8.45454 13.0508 8.86499 C 13.1134 8.89266 13.1725 8.9284 13.2235 8.97913 Z M 8.76863 7.50792 C 8.76863 8.47986 9.56029 9.26848 10.5386 9.26848 C 11.5168 9.26848 12.3085 8.47986 12.3085 7.50792 C 12.3085 6.53483 11.5168 5.74621 10.5386 5.74621 C 9.56029 5.74621 8.76863 6.53483 8.76863 7.50792 Z&quot;);"/></svg>