<?xml version="1.0" standalone="no"?><!DOCTYPE svg PUBLIC "-//W3C//DTD SVG 1.1//EN" "http://www.w3.org/Graphics/SVG/1.1/DTD/svg11.dtd"><svg width="16" height="16" viewBox="0 0 16 16" version="1.1" xmlns="http://www.w3.org/2000/svg" xmlns:xlink="http://www.w3.org/1999/xlink"><path fill-rule="evenodd" fill="currentColor" d="M6.79075852,9 C7.11345303,9.79719048 7.68568438,10.4666725 8.41059363,10.9115871 C8.28567247,10.9683824 8.14753287,11 8.00296986,11 L1.99703014,11 C1.4463856,11 1,10.5561352 1,10 C1,9.44771525 1.45303631,9 1.99703014,9 L6.79075852,9 Z M7.37731452,5 L1.99703014,5 C1.45303631,5 1,5.44771525 1,6 C1,6.55613518 1.4463856,7 1.99703014,7 L6.53094688,7 C6.62462514,6.24876028 6.92662549,5.56221582 7.37731452,5 Z M1,14 C1,13.4477153 1.45303631,13 1.99703014,13 L8.00296986,13 C8.5536144,13 9,13.4438648 9,14 C9,14.5522847 8.54696369,15 8.00296986,15 L1.99703014,15 C1.4463856,15 1,14.5561352 1,14 Z M1,2 C1,1.44771525 1.45303631,1 1.99703014,1 L8.00296986,1 C8.5536144,1 9,1.44386482 9,2 C9,2.55228475 8.54696369,3 8.00296986,3 L1.99703014,3 C1.4463856,3 1,2.55613518 1,2 Z M13.2234848,8.97913237 L15.3816998,11.1259269 C15.6088804,11.3507523 15.6088804,11.7162377 15.3816998,11.9410631 L14.9505205,12.3711138 C14.7233399,12.5959392 14.3570693,12.5959392 14.1298888,12.3711138 L11.9716737,10.2243193 C11.920674,10.1735895 11.8859015,10.113636 11.8569244,10.0525296 C11.4454495,10.2727432 10.9806566,10.4099444 10.4810913,10.4099444 C8.86532776,10.4099444 7.55208522,9.10249811 7.55208522,7.49643756 C7.55208522,5.88922407 8.86532776,4.58177779 10.4810913,4.58177779 C12.0968549,4.58177779 13.4100974,5.88922407 13.4100974,7.49643756 C13.4100974,7.99335938 13.2733254,8.45453973 13.0507812,8.86499023 C13.1133718,8.89266105 13.1724851,8.92840253 13.2234848,8.97913237 Z M8.76863051,7.50791919 C8.76863051,8.47985676 9.5602851,9.26847515 10.5385523,9.26847515 C11.5168194,9.26847515 12.308474,8.47985676 12.308474,7.50791919 C12.308474,6.53482866 11.5168194,5.74621027 10.5385523,5.74621027 C9.5602851,5.74621027 8.76863051,6.53482866 8.76863051,7.50791919 Z"/></svg>