<?xml version="1.0" standalone="no"?><!DOCTYPE svg PUBLIC "-//W3C//DTD SVG 1.1//EN" "http://www.w3.org/Graphics/SVG/1.1/DTD/svg11.dtd"><svg width="16" height="16" viewBox="0 0 16 16" class="markdown" style="height:16px;margin-right:8px;width:16px;perspective-origin:8px 8px;transform-origin:8px 8px;shape-rendering:geometricprecision;" version="1.1" xmlns="http://www.w3.org/2000/svg" xmlns:xlink="http://www.w3.org/1999/xlink"><path fill-rule="evenodd" class="" fill="currentColor" d="M0,4.14712715 C0,3.51358632 0.514227152,3 1.15068054,3 L14.8493195,3 C15.4848228,3 16,3.50964952 16,4.14712715 L16,11.8528728 C16,12.4864137 15.4857728,13 14.8493195,13 L1.15068054,13 C0.515177227,13 0,12.4903505 0,11.8528728 L0,4.14712715 Z M2.30769231,10.65625 L3.84615385,10.65625 L3.84615385,7.609375 L5.38461538,9.5625 L6.92307692,7.609375 L6.92307692,10.65625 L8.46153846,10.65625 L8.46153846,5.34375 L6.92307692,5.34375 L5.38461538,7.296875 L3.84615385,5.34375 L2.30769231,5.34375 L2.30769231,10.65625 Z M11.9230769,10.65625 L14.2307692,8.078125 L12.6923077,8.078125 L12.6923077,5.34375 L11.1538462,5.34375 L11.1538462,8.078125 L9.61538462,8.078125 L11.9230769,10.65625 Z" style="display:inline;height:auto;min-height:0px;min-width:0px;overflow-x:visible;overflow-y:visible;width:auto;perspective-origin:0px 0px;transform-origin:0px 0px;fill:rgb(51, 51, 51);fill-rule:evenodd;shape-rendering:geometricprecision;d:path(&quot;M 0 4.14713 C 0 3.51359 0.514227 3 1.15068 3 L 14.8493 3 C 15.4848 3 16 3.50965 16 4.14713 L 16 11.8529 C 16 12.4864 15.4858 13 14.8493 13 L 1.15068 13 C 0.515177 13 0 12.4904 0 11.8529 L 0 4.14713 Z M 2.30769 10.6563 L 3.84615 10.6563 L 3.84615 7.60938 L 5.38462 9.5625 L 6.92308 7.60938 L 6.92308 10.6563 L 8.46154 10.6563 L 8.46154 5.34375 L 6.92308 5.34375 L 5.38462 7.29688 L 3.84615 5.34375 L 2.30769 5.34375 L 2.30769 10.6563 Z M 11.9231 10.6563 L 14.2308 8.07813 L 12.6923 8.07813 L 12.6923 5.34375 L 11.1538 5.34375 L 11.1538 8.07813 L 9.61539 8.07813 L 11.9231 10.6563 Z&quot;);"/></svg>