<?xml version="1.0" standalone="no"?><!DOCTYPE svg PUBLIC "-//W3C//DTD SVG 1.1//EN" "http://www.w3.org/Graphics/SVG/1.1/DTD/svg11.dtd"><svg width="12" height="12" viewBox="0 0 12 12" version="1.1" xmlns="http://www.w3.org/2000/svg" xmlns:xlink="http://www.w3.org/1999/xlink"><path fill-rule="evenodd" fill="currentColor" d="M0,2.85614014 C0,2.383307 0.385670364,2 0.863010406,2 L11.1369896,2 C11.6136171,2 12,2.38585663 12,2.85614014 L12,9.14385986 C12,9.616693 11.6143296,10 11.1369896,10 L0.863010406,10 C0.38638292,10 0,9.61414337 0,9.14385986 L0,2.85614014 Z M1.73076923,8.125 L2.88461538,8.125 L2.88461538,5.6875 L4.03846154,7.25 L5.19230769,5.6875 L5.19230769,8.125 L6.34615385,8.125 L6.34615385,3.875 L5.19230769,3.875 L4.03846154,5.4375 L2.88461538,3.875 L1.73076923,3.875 L1.73076923,8.125 Z M8.94230769,8.125 L10.6730769,6.0625 L9.51923077,6.0625 L9.51923077,3.875 L8.36538462,3.875 L8.36538462,6.0625 L7.21153846,6.0625 L8.94230769,8.125 Z"/></svg>