<?xml version="1.0" standalone="no"?><!DOCTYPE svg PUBLIC "-//W3C//DTD SVG 1.1//EN" "http://www.w3.org/Graphics/SVG/1.1/DTD/svg11.dtd"><svg width="12" height="12" viewBox="0 0 12 12" class="markdownMicro" style="height:12px;margin-right:16px;width:12px;perspective-origin:6px 6px;transform-origin:6px 6px;shape-rendering:geometricprecision;" version="1.1" xmlns="http://www.w3.org/2000/svg" xmlns:xlink="http://www.w3.org/1999/xlink"><path fill-rule="evenodd" class="" fill="currentColor" d="M0,2.85614014 C0,2.383307 0.385670364,2 0.863010406,2 L11.1369896,2 C11.6136171,2 12,2.38585663 12,2.85614014 L12,9.14385986 C12,9.616693 11.6143296,10 11.1369896,10 L0.863010406,10 C0.38638292,10 0,9.61414337 0,9.14385986 L0,2.85614014 Z M1.73076923,8.125 L2.88461538,8.125 L2.88461538,5.6875 L4.03846154,7.25 L5.19230769,5.6875 L5.19230769,8.125 L6.34615385,8.125 L6.34615385,3.875 L5.19230769,3.875 L4.03846154,5.4375 L2.88461538,3.875 L1.73076923,3.875 L1.73076923,8.125 Z M8.94230769,8.125 L10.6730769,6.0625 L9.51923077,6.0625 L9.51923077,3.875 L8.36538462,3.875 L8.36538462,6.0625 L7.21153846,6.0625 L8.94230769,8.125 Z" style="display:inline;height:auto;min-height:0px;min-width:0px;overflow-x:visible;overflow-y:visible;width:auto;perspective-origin:0px 0px;transform-origin:0px 0px;fill:rgb(51, 51, 51);fill-rule:evenodd;shape-rendering:geometricprecision;d:path(&quot;M 0 2.85614 C 0 2.38331 0.38567 2 0.86301 2 L 11.137 2 C 11.6136 2 12 2.38586 12 2.85614 L 12 9.14386 C 12 9.61669 11.6143 10 11.137 10 L 0.86301 10 C 0.386383 10 0 9.61414 0 9.14386 L 0 2.85614 Z M 1.73077 8.125 L 2.88462 8.125 L 2.88462 5.6875 L 4.03846 7.25 L 5.19231 5.6875 L 5.19231 8.125 L 6.34615 8.125 L 6.34615 3.875 L 5.19231 3.875 L 4.03846 5.4375 L 2.88462 3.875 L 1.73077 3.875 L 1.73077 8.125 Z M 8.94231 8.125 L 10.6731 6.0625 L 9.51923 6.0625 L 9.51923 3.875 L 8.36539 3.875 L 8.36539 6.0625 L 7.21154 6.0625 L 8.94231 8.125 Z&quot;);"/></svg>