<?xml version="1.0" standalone="no"?><!DOCTYPE svg PUBLIC "-//W3C//DTD SVG 1.1//EN" "http://www.w3.org/Graphics/SVG/1.1/DTD/svg11.dtd"><svg width="16" height="16" viewBox="0 0 16 16" version="1.1" xmlns="http://www.w3.org/2000/svg" xmlns:xlink="http://www.w3.org/1999/xlink"><path fill-rule="evenodd" fill="currentColor" d="M0,4.14712715 C0,3.51358632 0.514227152,3 1.15068054,3 L14.8493195,3 C15.4848228,3 16,3.50964952 16,4.14712715 L16,11.8528728 C16,12.4864137 15.4857728,13 14.8493195,13 L1.15068054,13 C0.515177227,13 0,12.4903505 0,11.8528728 L0,4.14712715 Z M2.30769231,10.65625 L3.84615385,10.65625 L3.84615385,7.609375 L5.38461538,9.5625 L6.92307692,7.609375 L6.92307692,10.65625 L8.46153846,10.65625 L8.46153846,5.34375 L6.92307692,5.34375 L5.38461538,7.296875 L3.84615385,5.34375 L2.30769231,5.34375 L2.30769231,10.65625 Z M11.9230769,10.65625 L14.2307692,8.078125 L12.6923077,8.078125 L12.6923077,5.34375 L11.1538462,5.34375 L11.1538462,8.078125 L9.61538462,8.078125 L11.9230769,10.65625 Z"/></svg>