<?xml version="1.0" standalone="no"?><!DOCTYPE svg PUBLIC "-//W3C//DTD SVG 1.1//EN" "http://www.w3.org/Graphics/SVG/1.1/DTD/svg11.dtd"><svg width="16" height="16" viewBox="0 0 16 16" version="1.1" xmlns="http://www.w3.org/2000/svg" xmlns:xlink="http://www.w3.org/1999/xlink"><path fill-rule="evenodd" fill="currentColor" d="M2,12 C2,11.4477153 2.45576096,11 3.00247329,11 L12.9975267,11 C13.5511774,11 14,11.4438648 14,12 C14,12.5522847 13.544239,13 12.9975267,13 L3.00247329,13 C2.44882258,13 2,12.5561352 2,12 Z M2,8 C2,7.44771525 2.45576096,7 3.00247329,7 L12.9975267,7 C13.5511774,7 14,7.44386482 14,8 C14,8.55228475 13.544239,9 12.9975267,9 L3.00247329,9 C2.44882258,9 2,8.55613518 2,8 Z M2,4 C2,3.44771525 2.45576096,3 3.00247329,3 L12.9975267,3 C13.5511774,3 14,3.44386482 14,4 C14,4.55228475 13.544239,5 12.9975267,5 L3.00247329,5 C2.44882258,5 2,4.55613518 2,4 Z"/></svg>