<?xml version="1.0" standalone="no"?><!DOCTYPE svg PUBLIC "-//W3C//DTD SVG 1.1//EN" "http://www.w3.org/Graphics/SVG/1.1/DTD/svg11.dtd"><svg width="12" height="12" viewBox="0 0 12 12" version="1.1" xmlns="http://www.w3.org/2000/svg" xmlns:xlink="http://www.w3.org/1999/xlink"><path fill-rule="evenodd" fill="currentColor" d="M2,9 C2,8.44771525 2.45303631,8 2.99703014,8 L9.00296986,8 C9.5536144,8 10,8.44386482 10,9 C10,9.55228475 9.54696369,10 9.00296986,10 L2.99703014,10 C2.4463856,10 2,9.55613518 2,9 Z M2,6 C2,5.44771525 2.45303631,5 2.99703014,5 L9.00296986,5 C9.5536144,5 10,5.44386482 10,6 C10,6.55228475 9.54696369,7 9.00296986,7 L2.99703014,7 C2.4463856,7 2,6.55613518 2,6 Z M2,3 C2,2.44771525 2.45303631,2 2.99703014,2 L9.00296986,2 C9.5536144,2 10,2.44386482 10,3 C10,3.55228475 9.54696369,4 9.00296986,4 L2.99703014,4 C2.4463856,4 2,3.55613518 2,3 Z"/></svg>