<?xml version="1.0" standalone="no"?><!DOCTYPE svg PUBLIC "-//W3C//DTD SVG 1.1//EN" "http://www.w3.org/Graphics/SVG/1.1/DTD/svg11.dtd"><svg width="12" height="12" viewBox="0 0 12 12" class="menuMicro" style="height:12px;margin-right:16px;width:12px;perspective-origin:6px 6px;transform-origin:6px 6px;shape-rendering:geometricprecision;" version="1.1" xmlns="http://www.w3.org/2000/svg" xmlns:xlink="http://www.w3.org/1999/xlink"><path fill-rule="evenodd" class="" fill="currentColor" d="M2,9 C2,8.44771525 2.45303631,8 2.99703014,8 L9.00296986,8 C9.5536144,8 10,8.44386482 10,9 C10,9.55228475 9.54696369,10 9.00296986,10 L2.99703014,10 C2.4463856,10 2,9.55613518 2,9 Z M2,6 C2,5.44771525 2.45303631,5 2.99703014,5 L9.00296986,5 C9.5536144,5 10,5.44386482 10,6 C10,6.55228475 9.54696369,7 9.00296986,7 L2.99703014,7 C2.4463856,7 2,6.55613518 2,6 Z M2,3 C2,2.44771525 2.45303631,2 2.99703014,2 L9.00296986,2 C9.5536144,2 10,2.44386482 10,3 C10,3.55228475 9.54696369,4 9.00296986,4 L2.99703014,4 C2.4463856,4 2,3.55613518 2,3 Z" style="display:inline;height:auto;min-height:0px;min-width:0px;overflow-x:visible;overflow-y:visible;width:auto;perspective-origin:0px 0px;transform-origin:0px 0px;fill:rgb(51, 51, 51);fill-rule:evenodd;shape-rendering:geometricprecision;d:path(&quot;M 2 9 C 2 8.44772 2.45304 8 2.99703 8 L 9.00297 8 C 9.55361 8 10 8.44386 10 9 C 10 9.55228 9.54696 10 9.00297 10 L 2.99703 10 C 2.44639 10 2 9.55614 2 9 Z M 2 6 C 2 5.44772 2.45304 5 2.99703 5 L 9.00297 5 C 9.55361 5 10 5.44386 10 6 C 10 6.55228 9.54696 7 9.00297 7 L 2.99703 7 C 2.44639 7 2 6.55614 2 6 Z M 2 3 C 2 2.44772 2.45304 2 2.99703 2 L 9.00297 2 C 9.55361 2 10 2.44386 10 3 C 10 3.55228 9.54696 4 9.00297 4 L 2.99703 4 C 2.44639 4 2 3.55614 2 3 Z&quot;);"/></svg>