<?xml version="1.0" standalone="no"?><!DOCTYPE svg PUBLIC "-//W3C//DTD SVG 1.1//EN" "http://www.w3.org/Graphics/SVG/1.1/DTD/svg11.dtd"><svg width="16" height="16" viewBox="0 0 16 16" class="menu" style="height:16px;margin-right:8px;width:16px;perspective-origin:8px 8px;transform-origin:8px 8px;shape-rendering:geometricprecision;" version="1.1" xmlns="http://www.w3.org/2000/svg" xmlns:xlink="http://www.w3.org/1999/xlink"><path fill-rule="evenodd" class="" fill="currentColor" d="M2,12 C2,11.4477153 2.45576096,11 3.00247329,11 L12.9975267,11 C13.5511774,11 14,11.4438648 14,12 C14,12.5522847 13.544239,13 12.9975267,13 L3.00247329,13 C2.44882258,13 2,12.5561352 2,12 Z M2,8 C2,7.44771525 2.45576096,7 3.00247329,7 L12.9975267,7 C13.5511774,7 14,7.44386482 14,8 C14,8.55228475 13.544239,9 12.9975267,9 L3.00247329,9 C2.44882258,9 2,8.55613518 2,8 Z M2,4 C2,3.44771525 2.45576096,3 3.00247329,3 L12.9975267,3 C13.5511774,3 14,3.44386482 14,4 C14,4.55228475 13.544239,5 12.9975267,5 L3.00247329,5 C2.44882258,5 2,4.55613518 2,4 Z" style="display:inline;height:auto;min-height:0px;min-width:0px;overflow-x:visible;overflow-y:visible;width:auto;perspective-origin:0px 0px;transform-origin:0px 0px;fill:rgb(51, 51, 51);fill-rule:evenodd;shape-rendering:geometricprecision;d:path(&quot;M 2 12 C 2 11.4477 2.45576 11 3.00247 11 L 12.9975 11 C 13.5512 11 14 11.4439 14 12 C 14 12.5523 13.5442 13 12.9975 13 L 3.00247 13 C 2.44882 13 2 12.5561 2 12 Z M 2 8 C 2 7.44772 2.45576 7 3.00247 7 L 12.9975 7 C 13.5512 7 14 7.44386 14 8 C 14 8.55228 13.5442 9 12.9975 9 L 3.00247 9 C 2.44882 9 2 8.55614 2 8 Z M 2 4 C 2 3.44772 2.45576 3 3.00247 3 L 12.9975 3 C 13.5512 3 14 3.44386 14 4 C 14 4.55228 13.5442 5 12.9975 5 L 3.00247 5 C 2.44882 5 2 4.55614 2 4 Z&quot;);"/></svg>