<?xml version="1.0" standalone="no"?><!DOCTYPE svg PUBLIC "-//W3C//DTD SVG 1.1//EN" "http://www.w3.org/Graphics/SVG/1.1/DTD/svg11.dtd"><svg width="16" height="16" viewBox="0 0 16 16" class="mobile" style="height:16px;margin-right:8px;width:16px;perspective-origin:8px 8px;transform-origin:8px 8px;shape-rendering:geometricprecision;" version="1.1" xmlns="http://www.w3.org/2000/svg" xmlns:xlink="http://www.w3.org/1999/xlink"><path fill-rule="evenodd" class="" fill="currentColor" d="M4,3.00585866 C4,1.89805351 4.88670635,1 5.99810135,1 L10.0018986,1 C11.1054196,1 12,1.89706013 12,3.00585866 L12,12.9941413 C12,14.1019465 11.1132936,15 10.0018986,15 L5.99810135,15 C4.89458045,15 4,14.1029399 4,12.9941413 L4,3.00585866 Z M5,3.50966585 L5,11.4903342 C5,11.7775269 5.21983051,12 5.49100518,12 L10.5089948,12 C10.7721195,12 11,11.7718148 11,11.4903342 L11,3.50966585 C11,3.22247314 10.7801695,3 10.5089948,3 L5.49100518,3 C5.22788048,3 5,3.22818517 5,3.50966585 Z M7.5,13.5 C7.5,13.7680664 7.72385763,14 8,14 C8.26806641,14 8.5,13.7761424 8.5,13.5 C8.5,13.2319336 8.27614237,13 8,13 C7.73193359,13 7.5,13.2238576 7.5,13.5 Z" style="display:inline;height:auto;min-height:0px;min-width:0px;overflow-x:visible;overflow-y:visible;width:auto;perspective-origin:0px 0px;transform-origin:0px 0px;fill:rgb(51, 51, 51);fill-rule:evenodd;shape-rendering:geometricprecision;d:path(&quot;M 4 3.00586 C 4 1.89805 4.88671 1 5.9981 1 L 10.0019 1 C 11.1054 1 12 1.89706 12 3.00586 L 12 12.9941 C 12 14.1019 11.1133 15 10.0019 15 L 5.9981 15 C 4.89458 15 4 14.1029 4 12.9941 L 4 3.00586 Z M 5 3.50967 L 5 11.4903 C 5 11.7775 5.21983 12 5.491 12 L 10.509 12 C 10.7721 12 11 11.7718 11 11.4903 L 11 3.50967 C 11 3.22247 10.7802 3 10.509 3 L 5.491 3 C 5.22788 3 5 3.22819 5 3.50967 Z M 7.5 13.5 C 7.5 13.7681 7.72386 14 8 14 C 8.26807 14 8.5 13.7761 8.5 13.5 C 8.5 13.2319 8.27614 13 8 13 C 7.73193 13 7.5 13.2239 7.5 13.5 Z&quot;);"/></svg>