<?xml version="1.0" standalone="no"?><!DOCTYPE svg PUBLIC "-//W3C//DTD SVG 1.1//EN" "http://www.w3.org/Graphics/SVG/1.1/DTD/svg11.dtd"><svg width="12" height="12" viewBox="0 0 12 12" version="1.1" xmlns="http://www.w3.org/2000/svg" xmlns:xlink="http://www.w3.org/1999/xlink"><path fill-rule="evenodd" fill="currentColor" d="M3,1.99539757 C3,1.44565467 3.45097518,1 3.99077797,1 L8.00922203,1 C8.55641359,1 9,1.4556644 9,1.99539757 L9,10.0046024 C9,10.5543453 8.54902482,11 8.00922203,11 L3.99077797,11 C3.44358641,11 3,10.5443356 3,10.0046024 L3,1.99539757 Z M4,2.50342274 L4,8.49657726 C4,8.76709747 4.21959471,9 4.49047852,9 L7.50952148,9 C7.78494263,9 8,8.77460996 8,8.49657726 L8,2.50342274 C8,2.23290253 7.78040529,2 7.50952148,2 L4.49047852,2 C4.21505737,2 4,2.22539004 4,2.50342274 Z"/></svg>