<?xml version="1.0" standalone="no"?><!DOCTYPE svg PUBLIC "-//W3C//DTD SVG 1.1//EN" "http://www.w3.org/Graphics/SVG/1.1/DTD/svg11.dtd"><svg width="16" height="16" viewBox="0 0 16 16" version="1.1" xmlns="http://www.w3.org/2000/svg" xmlns:xlink="http://www.w3.org/1999/xlink"><path fill-rule="evenodd" fill="currentColor" d="M4,3.00585866 C4,1.89805351 4.88670635,1 5.99810135,1 L10.0018986,1 C11.1054196,1 12,1.89706013 12,3.00585866 L12,12.9941413 C12,14.1019465 11.1132936,15 10.0018986,15 L5.99810135,15 C4.89458045,15 4,14.1029399 4,12.9941413 L4,3.00585866 Z M5,3.50966585 L5,11.4903342 C5,11.7775269 5.21983051,12 5.49100518,12 L10.5089948,12 C10.7721195,12 11,11.7718148 11,11.4903342 L11,3.50966585 C11,3.22247314 10.7801695,3 10.5089948,3 L5.49100518,3 C5.22788048,3 5,3.22818517 5,3.50966585 Z M7.5,13.5 C7.5,13.7680664 7.72385763,14 8,14 C8.26806641,14 8.5,13.7761424 8.5,13.5 C8.5,13.2319336 8.27614237,13 8,13 C7.73193359,13 7.5,13.2238576 7.5,13.5 Z"/></svg>