<?xml version="1.0" standalone="no"?><!DOCTYPE svg PUBLIC "-//W3C//DTD SVG 1.1//EN" "http://www.w3.org/Graphics/SVG/1.1/DTD/svg11.dtd"><svg width="16" height="16" viewBox="0 0 16 16" class="multiselect" style="height:16px;margin-right:8px;width:16px;perspective-origin:8px 8px;transform-origin:8px 8px;shape-rendering:geometricprecision;" version="1.1" xmlns="http://www.w3.org/2000/svg" xmlns:xlink="http://www.w3.org/1999/xlink"><path fill-rule="evenodd" class="" fill="currentColor" d="M11.079834,12.3117676 C10.7596005,11.8634407 10.9437166,11.5 11.4998075,11.5 L14.5001925,11.5 C15.0523709,11.5 15.2418723,11.8613788 14.920166,12.3117676 L13.579834,14.1882324 C13.2596005,14.6365593 12.7418723,14.6386212 12.420166,14.1882324 L11.079834,12.3117676 Z M11.079834,2.31176758 C10.7596005,1.86344072 10.9437166,1.5 11.4998075,1.5 L14.5001925,1.5 C15.0523709,1.5 15.2418723,1.86137885 14.920166,2.31176758 L13.579834,4.18823242 C13.2596005,4.63655928 12.7418723,4.63862115 12.420166,4.18823242 L11.079834,2.31176758 Z M11.0798069,7.31176758 C10.7595884,6.86344072 10.9437166,6.5 11.4998075,6.5 L14.5001925,6.5 C15.0523709,6.5 15.2418602,6.86137885 14.9201389,7.31176758 L13.5797443,9.18823242 C13.2594958,9.63655928 12.7417675,9.63862115 12.4200763,9.18823242 L11.0798069,7.31176758 Z M1,3 C1,2.44771525 1.45368241,2 2.00385145,2 L8.89799958,2 C9.45241142,2 9.90185103,2.44386482 9.90185103,3 C9.90185103,3.55228475 9.44816862,4 8.89799958,4 L2.00385145,4 C1.4494396,4 1,3.55613518 1,3 Z M1,8 C1,7.44771525 1.45368241,7 2.00385145,7 L8.89799958,7 C9.45241142,7 9.90185103,7.44386482 9.90185103,8 C9.90185103,8.55228475 9.44816862,9 8.89799958,9 L2.00385145,9 C1.4494396,9 1,8.55613518 1,8 Z M1,13 C1,12.4477153 1.45368241,12 2.00385145,12 L8.89799958,12 C9.45241142,12 9.90185103,12.4438648 9.90185103,13 C9.90185103,13.5522847 9.44816862,14 8.89799958,14 L2.00385145,14 C1.4494396,14 1,13.5561352 1,13 Z" style="display:inline;height:auto;min-height:0px;min-width:0px;overflow-x:visible;overflow-y:visible;width:auto;perspective-origin:0px 0px;transform-origin:0px 0px;fill:rgb(51, 51, 51);fill-rule:evenodd;shape-rendering:geometricprecision;d:path(&quot;M 11.0798 12.3118 C 10.7596 11.8634 10.9437 11.5 11.4998 11.5 L 14.5002 11.5 C 15.0524 11.5 15.2419 11.8614 14.9202 12.3118 L 13.5798 14.1882 C 13.2596 14.6366 12.7419 14.6386 12.4202 14.1882 L 11.0798 12.3118 Z M 11.0798 2.31177 C 10.7596 1.86344 10.9437 1.5 11.4998 1.5 L 14.5002 1.5 C 15.0524 1.5 15.2419 1.86138 14.9202 2.31177 L 13.5798 4.18823 C 13.2596 4.63656 12.7419 4.63862 12.4202 4.18823 L 11.0798 2.31177 Z M 11.0798 7.31177 C 10.7596 6.86344 10.9437 6.5 11.4998 6.5 L 14.5002 6.5 C 15.0524 6.5 15.2419 6.86138 14.9201 7.31177 L 13.5797 9.18823 C 13.2595 9.63656 12.7418 9.63862 12.4201 9.18823 L 11.0798 7.31177 Z M 1 3 C 1 2.44772 1.45368 2 2.00385 2 L 8.898 2 C 9.45241 2 9.90185 2.44386 9.90185 3 C 9.90185 3.55228 9.44817 4 8.898 4 L 2.00385 4 C 1.44944 4 1 3.55614 1 3 Z M 1 8 C 1 7.44772 1.45368 7 2.00385 7 L 8.898 7 C 9.45241 7 9.90185 7.44386 9.90185 8 C 9.90185 8.55228 9.44817 9 8.898 9 L 2.00385 9 C 1.44944 9 1 8.55614 1 8 Z M 1 13 C 1 12.4477 1.45368 12 2.00385 12 L 8.898 12 C 9.45241 12 9.90185 12.4439 9.90185 13 C 9.90185 13.5523 9.44817 14 8.898 14 L 2.00385 14 C 1.44944 14 1 13.5561 1 13 Z&quot;);"/></svg>