<?xml version="1.0" standalone="no"?><!DOCTYPE svg PUBLIC "-//W3C//DTD SVG 1.1//EN" "http://www.w3.org/Graphics/SVG/1.1/DTD/svg11.dtd"><svg width="12" height="12" viewBox="0 0 12 12" class="multicollaboratorMicro" style="height:12px;margin-right:16px;width:12px;perspective-origin:6px 6px;transform-origin:6px 6px;shape-rendering:geometricprecision;" version="1.1" xmlns="http://www.w3.org/2000/svg" xmlns:xlink="http://www.w3.org/1999/xlink"><path fill-rule="evenodd" class="" fill="currentColor" d="M8.99999312,9.49571929 C10.1351761,9.58786012 11.5,9.36012036 11.5,8.8125 C11.5,7.875 11,6.5 9.5,6.5 C9.01987048,6.5 8.64219624,6.64087599 8.35057999,6.86318789 C8.78300636,7.56905035 8.99859153,8.46315503 8.99999312,9.49571929 Z M9.5,6 C8.67157288,6 8,5.32842712 8,4.5 C8,3.67157288 8.67157288,3 9.5,3 C10.3284271,3 11,3.67157288 11,4.5 C11,5.32842712 10.3284271,6 9.5,6 Z M4.5,5 C3.3954305,5 2.5,4.1045695 2.5,3 C2.5,1.8954305 3.3954305,1 4.5,1 C5.6045695,1 6.5,1.8954305 6.5,3 C6.5,4.1045695 5.6045695,5 4.5,5 Z M4.5,6 C7.16666667,6 8,7.75 8,9.625 C8,11.5 1,11.5 1,9.625 C1,7.75 1.83333333,6 4.5,6 Z" style="display:inline;height:auto;min-height:0px;min-width:0px;overflow-x:visible;overflow-y:visible;width:auto;perspective-origin:0px 0px;transform-origin:0px 0px;fill:rgb(51, 51, 51);fill-rule:evenodd;shape-rendering:geometricprecision;d:path(&quot;M 8.99999 9.49572 C 10.1352 9.58786 11.5 9.36012 11.5 8.8125 C 11.5 7.875 11 6.5 9.5 6.5 C 9.01987 6.5 8.6422 6.64088 8.35058 6.86319 C 8.78301 7.56905 8.99859 8.46315 8.99999 9.49572 Z M 9.5 6 C 8.67157 6 8 5.32843 8 4.5 C 8 3.67157 8.67157 3 9.5 3 C 10.3284 3 11 3.67157 11 4.5 C 11 5.32843 10.3284 6 9.5 6 Z M 4.5 5 C 3.39543 5 2.5 4.10457 2.5 3 C 2.5 1.89543 3.39543 1 4.5 1 C 5.60457 1 6.5 1.89543 6.5 3 C 6.5 4.10457 5.60457 5 4.5 5 Z M 4.5 6 C 7.16667 6 8 7.75 8 9.625 C 8 11.5 1 11.5 1 9.625 C 1 7.75 1.83333 6 4.5 6 Z&quot;);"/></svg>