<?xml version="1.0" standalone="no"?><!DOCTYPE svg PUBLIC "-//W3C//DTD SVG 1.1//EN" "http://www.w3.org/Graphics/SVG/1.1/DTD/svg11.dtd"><svg width="16" height="16" viewBox="0 0 16 16" class="multicollaborator" style="height:16px;margin-right:8px;width:16px;perspective-origin:8px 8px;transform-origin:8px 8px;shape-rendering:geometricprecision;" version="1.1" xmlns="http://www.w3.org/2000/svg" xmlns:xlink="http://www.w3.org/1999/xlink"><path fill-rule="evenodd" class="" fill="currentColor" d="M10.9829643,12.6437806 C12.5286237,12.8078951 14.5,12.5099682 14.5,11.75 C14.5,10.5 13.8333333,8.66666667 11.8333333,8.66666667 C11.1832271,8.66666667 10.6740002,8.86037582 10.2827561,9.1647938 C10.7576427,9.97237834 11,11.0340775 11,12.375 C11,12.4666129 10.9943133,12.5562282 10.9829643,12.6437806 Z M5.5,7 C4.11928813,7 3,5.88071187 3,4.5 C3,3.11928813 4.11928813,2 5.5,2 C6.88071187,2 8,3.11928813 8,4.5 C8,5.88071187 6.88071187,7 5.5,7 Z M11.8333333,8 C10.7287638,8 9.83333333,7.1045695 9.83333333,6 C9.83333333,4.8954305 10.7287638,4 11.8333333,4 C12.9379028,4 13.8333333,4.8954305 13.8333333,6 C13.8333333,7.1045695 12.9379028,8 11.8333333,8 Z M5.5,8 C8.16666667,8 10,9 10,12.5 C10,13.4454885 9,14.5 5.5,14.5 C2,14.5 1,13.5545115 1,12.5 C1,9 2.83333333,8 5.5,8 Z" style="display:inline;height:auto;min-height:0px;min-width:0px;overflow-x:visible;overflow-y:visible;width:auto;perspective-origin:0px 0px;transform-origin:0px 0px;fill:rgb(51, 51, 51);fill-rule:evenodd;shape-rendering:geometricprecision;d:path(&quot;M 10.983 12.6438 C 12.5286 12.8079 14.5 12.51 14.5 11.75 C 14.5 10.5 13.8333 8.66667 11.8333 8.66667 C 11.1832 8.66667 10.674 8.86038 10.2828 9.16479 C 10.7576 9.97238 11 11.0341 11 12.375 C 11 12.4666 10.9943 12.5562 10.983 12.6438 Z M 5.5 7 C 4.11929 7 3 5.88071 3 4.5 C 3 3.11929 4.11929 2 5.5 2 C 6.88071 2 8 3.11929 8 4.5 C 8 5.88071 6.88071 7 5.5 7 Z M 11.8333 8 C 10.7288 8 9.83333 7.10457 9.83333 6 C 9.83333 4.89543 10.7288 4 11.8333 4 C 12.9379 4 13.8333 4.89543 13.8333 6 C 13.8333 7.10457 12.9379 8 11.8333 8 Z M 5.5 8 C 8.16667 8 10 9 10 12.5 C 10 13.4455 9 14.5 5.5 14.5 C 2 14.5 1 13.5545 1 12.5 C 1 9 2.83333 8 5.5 8 Z&quot;);"/></svg>