<?xml version="1.0" standalone="no"?><!DOCTYPE svg PUBLIC "-//W3C//DTD SVG 1.1//EN" "http://www.w3.org/Graphics/SVG/1.1/DTD/svg11.dtd"><svg width="12" height="12" viewBox="0 0 12 12" version="1.1" xmlns="http://www.w3.org/2000/svg" xmlns:xlink="http://www.w3.org/1999/xlink"><path fill-rule="evenodd" fill="currentColor" d="M8.99999312,9.49571929 C10.1351761,9.58786012 11.5,9.36012036 11.5,8.8125 C11.5,7.875 11,6.5 9.5,6.5 C9.01987048,6.5 8.64219624,6.64087599 8.35057999,6.86318789 C8.78300636,7.56905035 8.99859153,8.46315503 8.99999312,9.49571929 Z M9.5,6 C8.67157288,6 8,5.32842712 8,4.5 C8,3.67157288 8.67157288,3 9.5,3 C10.3284271,3 11,3.67157288 11,4.5 C11,5.32842712 10.3284271,6 9.5,6 Z M4.5,5 C3.3954305,5 2.5,4.1045695 2.5,3 C2.5,1.8954305 3.3954305,1 4.5,1 C5.6045695,1 6.5,1.8954305 6.5,3 C6.5,4.1045695 5.6045695,5 4.5,5 Z M4.5,6 C7.16666667,6 8,7.75 8,9.625 C8,11.5 1,11.5 1,9.625 C1,7.75 1.83333333,6 4.5,6 Z"/></svg>