<?xml version="1.0" standalone="no"?><!DOCTYPE svg PUBLIC "-//W3C//DTD SVG 1.1//EN" "http://www.w3.org/Graphics/SVG/1.1/DTD/svg11.dtd"><svg width="12" height="12" viewBox="0 0 12 12" class="multiselectMicro" style="height:12px;margin-right:16px;width:12px;perspective-origin:6px 6px;transform-origin:6px 6px;shape-rendering:geometricprecision;" version="1.1" xmlns="http://www.w3.org/2000/svg" xmlns:xlink="http://www.w3.org/1999/xlink"><path fill-rule="evenodd" class="" fill="currentColor" d="M8.62150366,1.77731162 C8.27825667,1.34801427 8.44335318,1 9.0093689,1 L10.9906311,1 C11.5480902,1 11.721754,1.34761429 11.3778051,1.77731162 L10.6210833,2.72268838 C10.2774545,3.15198573 9.72095149,3.15238571 9.37738469,2.72268838 L8.62150366,1.77731162 Z M8.62150366,5.77731162 C8.27825667,5.34801427 8.44335318,5 9.0093689,5 L10.9906311,5 C11.5480902,5 11.721754,5.34761429 11.3778051,5.77731162 L10.6210833,6.72268838 C10.2774545,7.15198573 9.72095149,7.15238571 9.37738469,6.72268838 L8.62150366,5.77731162 Z M8.62150366,9.77731162 C8.27825667,9.34801427 8.44335318,9 9.0093689,9 L10.9906311,9 C11.5480902,9 11.721754,9.34761429 11.3778051,9.77731162 L10.6210833,10.7226884 C10.2774545,11.1519857 9.72095149,11.1523857 9.37738469,10.7226884 L8.62150366,9.77731162 Z M0,2 C0,1.44771525 0.437881351,1 1.00292933,1 L5.99707067,1 C6.55097324,1 7,1.44386482 7,2 C7,2.55228475 6.56211865,3 5.99707067,3 L1.00292933,3 C0.449026756,3 0,2.55613518 0,2 Z M0,6 C0,5.44771525 0.437881351,5 1.00292933,5 L5.99707067,5 C6.55097324,5 7,5.44386482 7,6 C7,6.55228475 6.56211865,7 5.99707067,7 L1.00292933,7 C0.449026756,7 0,6.55613518 0,6 Z M0,10 C0,9.44771525 0.437881351,9 1.00292933,9 L5.99707067,9 C6.55097324,9 7,9.44386482 7,10 C7,10.5522847 6.56211865,11 5.99707067,11 L1.00292933,11 C0.449026756,11 0,10.5561352 0,10 Z" style="display:inline;height:auto;min-height:0px;min-width:0px;overflow-x:visible;overflow-y:visible;width:auto;perspective-origin:0px 0px;transform-origin:0px 0px;fill:rgb(51, 51, 51);fill-rule:evenodd;shape-rendering:geometricprecision;d:path(&quot;M 8.6215 1.77731 C 8.27826 1.34801 8.44335 1 9.00937 1 L 10.9906 1 C 11.5481 1 11.7218 1.34761 11.3778 1.77731 L 10.6211 2.72269 C 10.2775 3.15199 9.72095 3.15239 9.37738 2.72269 L 8.6215 1.77731 Z M 8.6215 5.77731 C 8.27826 5.34801 8.44335 5 9.00937 5 L 10.9906 5 C 11.5481 5 11.7218 5.34761 11.3778 5.77731 L 10.6211 6.72269 C 10.2775 7.15199 9.72095 7.15239 9.37738 6.72269 L 8.6215 5.77731 Z M 8.6215 9.77731 C 8.27826 9.34801 8.44335 9 9.00937 9 L 10.9906 9 C 11.5481 9 11.7218 9.34761 11.3778 9.77731 L 10.6211 10.7227 C 10.2775 11.152 9.72095 11.1524 9.37738 10.7227 L 8.6215 9.77731 Z M 0 2 C 0 1.44772 0.437881 1 1.00293 1 L 5.99707 1 C 6.55097 1 7 1.44386 7 2 C 7 2.55228 6.56212 3 5.99707 3 L 1.00293 3 C 0.449027 3 0 2.55614 0 2 Z M 0 6 C 0 5.44772 0.437881 5 1.00293 5 L 5.99707 5 C 6.55097 5 7 5.44386 7 6 C 7 6.55228 6.56212 7 5.99707 7 L 1.00293 7 C 0.449027 7 0 6.55614 0 6 Z M 0 10 C 0 9.44772 0.437881 9 1.00293 9 L 5.99707 9 C 6.55097 9 7 9.44386 7 10 C 7 10.5523 6.56212 11 5.99707 11 L 1.00293 11 C 0.449027 11 0 10.5561 0 10 Z&quot;);"/></svg>