<?xml version="1.0" standalone="no"?><!DOCTYPE svg PUBLIC "-//W3C//DTD SVG 1.1//EN" "http://www.w3.org/Graphics/SVG/1.1/DTD/svg11.dtd"><svg width="12" height="12" viewBox="0 0 12 12" version="1.1" xmlns="http://www.w3.org/2000/svg" xmlns:xlink="http://www.w3.org/1999/xlink"><path fill-rule="evenodd" fill="currentColor" d="M8.62150366,1.77731162 C8.27825667,1.34801427 8.44335318,1 9.0093689,1 L10.9906311,1 C11.5480902,1 11.721754,1.34761429 11.3778051,1.77731162 L10.6210833,2.72268838 C10.2774545,3.15198573 9.72095149,3.15238571 9.37738469,2.72268838 L8.62150366,1.77731162 Z M8.62150366,5.77731162 C8.27825667,5.34801427 8.44335318,5 9.0093689,5 L10.9906311,5 C11.5480902,5 11.721754,5.34761429 11.3778051,5.77731162 L10.6210833,6.72268838 C10.2774545,7.15198573 9.72095149,7.15238571 9.37738469,6.72268838 L8.62150366,5.77731162 Z M8.62150366,9.77731162 C8.27825667,9.34801427 8.44335318,9 9.0093689,9 L10.9906311,9 C11.5480902,9 11.721754,9.34761429 11.3778051,9.77731162 L10.6210833,10.7226884 C10.2774545,11.1519857 9.72095149,11.1523857 9.37738469,10.7226884 L8.62150366,9.77731162 Z M0,2 C0,1.44771525 0.437881351,1 1.00292933,1 L5.99707067,1 C6.55097324,1 7,1.44386482 7,2 C7,2.55228475 6.56211865,3 5.99707067,3 L1.00292933,3 C0.449026756,3 0,2.55613518 0,2 Z M0,6 C0,5.44771525 0.437881351,5 1.00292933,5 L5.99707067,5 C6.55097324,5 7,5.44386482 7,6 C7,6.55228475 6.56211865,7 5.99707067,7 L1.00292933,7 C0.449026756,7 0,6.55613518 0,6 Z M0,10 C0,9.44771525 0.437881351,9 1.00292933,9 L5.99707067,9 C6.55097324,9 7,9.44386482 7,10 C7,10.5522847 6.56211865,11 5.99707067,11 L1.00292933,11 C0.449026756,11 0,10.5561352 0,10 Z"/></svg>