<?xml version="1.0" standalone="no"?><!DOCTYPE svg PUBLIC "-//W3C//DTD SVG 1.1//EN" "http://www.w3.org/Graphics/SVG/1.1/DTD/svg11.dtd"><svg width="12" height="12" viewBox="0 0 12 12" version="1.1" xmlns="http://www.w3.org/2000/svg" xmlns:xlink="http://www.w3.org/1999/xlink"><path fill-rule="evenodd" fill="currentColor" d="M3.02001953,7 L3.02001953,5 L1.99539757,5 C1.44565467,5 1,4.55613518 1,4 C1,3.44771525 1.4556644,3 1.99539757,3 L3.02001953,3 L3.02001953,1.63502908 C3.02001953,1.08650905 3.46388435,0.641845703 4.02001953,0.641845703 C4.57230428,0.641845703 5.02001953,1.08692265 5.02001953,1.63502908 L5.02001953,3 L7.02001953,3 L7.02001953,1.63502908 C7.02001953,1.08650905 7.46388435,0.641845703 8.02001953,0.641845703 C8.57230428,0.641845703 9.02001953,1.08692265 9.02001953,1.63502908 L9.02001953,3 L10.0046024,3 C10.5543453,3 11,3.44386482 11,4 C11,4.55228475 10.5443356,5 10.0046024,5 L9.02001953,5 L9.02001953,7 L10.0046024,7 C10.5543453,7 11,7.44386482 11,8 C11,8.55228475 10.5443356,9 10.0046024,9 L9.02001953,9 L9.02001953,10.0068166 C9.02001953,10.5553367 8.57615471,11 8.02001953,11 C7.46773478,11 7.02001953,10.5549231 7.02001953,10.0068166 L7.02001953,9 L5.02001953,9 L5.02001953,10.0068166 C5.02001953,10.5553367 4.57615471,11 4.02001953,11 C3.46773478,11 3.02001953,10.5549231 3.02001953,10.0068166 L3.02001953,9 L1.99539757,9 C1.44565467,9 1,8.55613518 1,8 C1,7.44771525 1.4556644,7 1.99539757,7 L3.02001953,7 Z M5.02001953,7 L7.02001953,7 L7.02001953,5 L5.02001953,5 L5.02001953,7 Z"/></svg>