<?xml version="1.0" standalone="no"?><!DOCTYPE svg PUBLIC "-//W3C//DTD SVG 1.1//EN" "http://www.w3.org/Graphics/SVG/1.1/DTD/svg11.dtd"><svg width="16" height="16" viewBox="0 0 16 16" class="number" style="height:16px;margin-right:8px;width:16px;perspective-origin:8px 8px;transform-origin:8px 8px;shape-rendering:geometricprecision;" version="1.1" xmlns="http://www.w3.org/2000/svg" xmlns:xlink="http://www.w3.org/1999/xlink"><path fill-rule="evenodd" class="" fill="currentColor" d="M4,10 L4,6.06298828 L2.01023277,6.06298828 C1.44124014,6.06298828 0.979980469,5.60514432 0.979980469,5.03149414 C0.979980469,4.46181566 1.446147,4 2.01023277,4 L4,4 L4,2.04301188 C4,1.50175979 4.43942184,1.06298828 4.98999023,1.06298828 C5.53674674,1.06298828 5.97998047,1.51091265 5.97998047,2.04301188 L5.97998047,4 L10.0200195,4 L10.0200195,2.04301188 C10.0200195,1.50175979 10.4594414,1.06298828 11.0100098,1.06298828 C11.5567663,1.06298828 12,1.51091265 12,2.04301188 L12,4 L13.9605924,4 C14.5295851,4 14.9908447,4.45784396 14.9908447,5.03149414 C14.9908447,5.60117262 14.5246782,6.06298828 13.9605924,6.06298828 L12,6.06298828 L12,10 L13.9605924,10 C14.5295851,10 14.9908447,10.457844 14.9908447,11.0314941 C14.9908447,11.6011726 14.5246782,12.0629883 13.9605924,12.0629883 L12,12.0629883 L12,14.0199764 C12,14.5612285 11.5605782,15 11.0100098,15 C10.4632533,15 10.0200195,14.5520756 10.0200195,14.0199764 L10.0200195,12.0629883 L5.97998047,12.0629883 L5.97998047,14.0199764 C5.97998047,14.5612285 5.54055863,15 4.98999023,15 C4.44323373,15 4,14.5520756 4,14.0199764 L4,12.0629883 L2.01023277,12.0629883 C1.44124014,12.0629883 0.979980469,11.6051443 0.979980469,11.0314941 C0.979980469,10.4618157 1.446147,10 2.01023277,10 L4,10 Z M5.97998047,10 L10.0200195,10 L10.0200195,6.06298828 L5.97998047,6.06298828 L5.97998047,10 Z" style="display:inline;height:auto;min-height:0px;min-width:0px;overflow-x:visible;overflow-y:visible;width:auto;perspective-origin:0px 0px;transform-origin:0px 0px;fill:rgb(51, 51, 51);fill-rule:evenodd;shape-rendering:geometricprecision;d:path(&quot;M 4 10 L 4 6.06299 L 2.01023 6.06299 C 1.44124 6.06299 0.97998 5.60514 0.97998 5.03149 C 0.97998 4.46182 1.44615 4 2.01023 4 L 4 4 L 4 2.04301 C 4 1.50176 4.43942 1.06299 4.98999 1.06299 C 5.53675 1.06299 5.97998 1.51091 5.97998 2.04301 L 5.97998 4 L 10.02 4 L 10.02 2.04301 C 10.02 1.50176 10.4594 1.06299 11.01 1.06299 C 11.5568 1.06299 12 1.51091 12 2.04301 L 12 4 L 13.9606 4 C 14.5296 4 14.9908 4.45784 14.9908 5.03149 C 14.9908 5.60117 14.5247 6.06299 13.9606 6.06299 L 12 6.06299 L 12 10 L 13.9606 10 C 14.5296 10 14.9908 10.4578 14.9908 11.0315 C 14.9908 11.6012 14.5247 12.063 13.9606 12.063 L 12 12.063 L 12 14.02 C 12 14.5612 11.5606 15 11.01 15 C 10.4633 15 10.02 14.5521 10.02 14.02 L 10.02 12.063 L 5.97998 12.063 L 5.97998 14.02 C 5.97998 14.5612 5.54056 15 4.98999 15 C 4.44323 15 4 14.5521 4 14.02 L 4 12.063 L 2.01023 12.063 C 1.44124 12.063 0.97998 11.6051 0.97998 11.0315 C 0.97998 10.4618 1.44615 10 2.01023 10 L 4 10 Z M 5.97998 10 L 10.02 10 L 10.02 6.06299 L 5.97998 6.06299 L 5.97998 10 Z&quot;);"/></svg>