<?xml version="1.0" standalone="no"?><!DOCTYPE svg PUBLIC "-//W3C//DTD SVG 1.1//EN" "http://www.w3.org/Graphics/SVG/1.1/DTD/svg11.dtd"><svg width="12" height="12" viewBox="0 0 12 12" class="numberMicro" style="height:12px;margin-right:16px;width:12px;perspective-origin:6px 6px;transform-origin:6px 6px;shape-rendering:geometricprecision;" version="1.1" xmlns="http://www.w3.org/2000/svg" xmlns:xlink="http://www.w3.org/1999/xlink"><path fill-rule="evenodd" class="" fill="currentColor" d="M3.02001953,7 L3.02001953,5 L1.99539757,5 C1.44565467,5 1,4.55613518 1,4 C1,3.44771525 1.4556644,3 1.99539757,3 L3.02001953,3 L3.02001953,1.63502908 C3.02001953,1.08650905 3.46388435,0.641845703 4.02001953,0.641845703 C4.57230428,0.641845703 5.02001953,1.08692265 5.02001953,1.63502908 L5.02001953,3 L7.02001953,3 L7.02001953,1.63502908 C7.02001953,1.08650905 7.46388435,0.641845703 8.02001953,0.641845703 C8.57230428,0.641845703 9.02001953,1.08692265 9.02001953,1.63502908 L9.02001953,3 L10.0046024,3 C10.5543453,3 11,3.44386482 11,4 C11,4.55228475 10.5443356,5 10.0046024,5 L9.02001953,5 L9.02001953,7 L10.0046024,7 C10.5543453,7 11,7.44386482 11,8 C11,8.55228475 10.5443356,9 10.0046024,9 L9.02001953,9 L9.02001953,10.0068166 C9.02001953,10.5553367 8.57615471,11 8.02001953,11 C7.46773478,11 7.02001953,10.5549231 7.02001953,10.0068166 L7.02001953,9 L5.02001953,9 L5.02001953,10.0068166 C5.02001953,10.5553367 4.57615471,11 4.02001953,11 C3.46773478,11 3.02001953,10.5549231 3.02001953,10.0068166 L3.02001953,9 L1.99539757,9 C1.44565467,9 1,8.55613518 1,8 C1,7.44771525 1.4556644,7 1.99539757,7 L3.02001953,7 Z M5.02001953,7 L7.02001953,7 L7.02001953,5 L5.02001953,5 L5.02001953,7 Z" style="display:inline;height:auto;min-height:0px;min-width:0px;overflow-x:visible;overflow-y:visible;width:auto;perspective-origin:0px 0px;transform-origin:0px 0px;fill:rgb(51, 51, 51);fill-rule:evenodd;shape-rendering:geometricprecision;d:path(&quot;M 3.02002 7 L 3.02002 5 L 1.9954 5 C 1.44565 5 1 4.55614 1 4 C 1 3.44772 1.45566 3 1.9954 3 L 3.02002 3 L 3.02002 1.63503 C 3.02002 1.08651 3.46388 0.641846 4.02002 0.641846 C 4.5723 0.641846 5.02002 1.08692 5.02002 1.63503 L 5.02002 3 L 7.02002 3 L 7.02002 1.63503 C 7.02002 1.08651 7.46388 0.641846 8.02002 0.641846 C 8.5723 0.641846 9.02002 1.08692 9.02002 1.63503 L 9.02002 3 L 10.0046 3 C 10.5543 3 11 3.44386 11 4 C 11 4.55228 10.5443 5 10.0046 5 L 9.02002 5 L 9.02002 7 L 10.0046 7 C 10.5543 7 11 7.44386 11 8 C 11 8.55228 10.5443 9 10.0046 9 L 9.02002 9 L 9.02002 10.0068 C 9.02002 10.5553 8.57615 11 8.02002 11 C 7.46773 11 7.02002 10.5549 7.02002 10.0068 L 7.02002 9 L 5.02002 9 L 5.02002 10.0068 C 5.02002 10.5553 4.57615 11 4.02002 11 C 3.46773 11 3.02002 10.5549 3.02002 10.0068 L 3.02002 9 L 1.9954 9 C 1.44565 9 1 8.55614 1 8 C 1 7.44772 1.45566 7 1.9954 7 L 3.02002 7 Z M 5.02002 7 L 7.02002 7 L 7.02002 5 L 5.02002 5 L 5.02002 7 Z&quot;);"/></svg>