<?xml version="1.0" standalone="no"?><!DOCTYPE svg PUBLIC "-//W3C//DTD SVG 1.1//EN" "http://www.w3.org/Graphics/SVG/1.1/DTD/svg11.dtd"><svg width="16" height="16" viewBox="0 0 16 16" version="1.1" xmlns="http://www.w3.org/2000/svg" xmlns:xlink="http://www.w3.org/1999/xlink"><path fill-rule="evenodd" fill="currentColor" d="M5.59790039,3 C5.59790039,2.44771525 6.04963376,2 6.59472604,2 L13.0031744,2 C13.553706,2 14,2.44386482 14,3 C14,3.55228475 13.5482666,4 13.0031744,4 L6.59472604,4 C6.04419443,4 5.59790039,3.55613518 5.59790039,3 Z M5.59790039,8 C5.59790039,7.44771525 6.04963376,7 6.59472604,7 L13.0031744,7 C13.553706,7 14,7.44386482 14,8 C14,8.55228475 13.5482666,9 13.0031744,9 L6.59472604,9 C6.04419443,9 5.59790039,8.55613518 5.59790039,8 Z M5.59790039,13 C5.59790039,12.4477153 6.04963376,12 6.59472604,12 L13.0031744,12 C13.553706,12 14,12.4438648 14,13 C14,13.5522847 13.5482666,14 13.0031744,14 L6.59472604,14 C6.04419443,14 5.59790039,13.5561352 5.59790039,13 Z M3.47645621,7.50400204 C3.53705703,7.43789206 3.63071283,7.26159878 3.63071283,7.14590631 C3.63071283,6.92553971 3.48196538,6.74373727 3.23405295,6.74373727 C2.9585947,6.74373727 2.78230143,6.90350305 2.78230143,7.14590631 L2.78230143,7.23956212 C2.78230143,7.30016293 2.73271894,7.34974542 2.67211813,7.34974542 L2.14874745,7.34974542 C2.08814664,7.34974542 2.03856415,7.30016293 2.03856415,7.23956212 L2.03856415,7.15141548 C2.03856415,6.50684318 2.56744399,6 3.21201629,6 C3.86209776,6 4.3744501,6.50684318 4.3744501,7.15141548 C4.3744501,7.45441955 4.23672098,7.7464053 4.03288187,7.96677189 L2.99715886,9.06309572 C2.96410387,9.09615071 2.9585947,9.17327902 3.05225051,9.17327902 L4.26977597,9.17327902 C4.33037678,9.17327902 4.37995927,9.22286151 4.37995927,9.28346232 L4.37995927,9.80683299 C4.37995927,9.86743381 4.33037678,9.91701629 4.26977597,9.91701629 L2.1101833,9.91701629 C2.04958248,9.91701629 2,9.86743381 2,9.80683299 L2,9.15675153 C2,9.07411405 2.02754582,9.04105906 2.04958248,9.0190224 L3.47645621,7.50400204 Z M3.22717304,14.2381791 C3.51332998,14.2381791 3.70593561,14.0675855 3.70593561,13.7814286 C3.70593561,13.4952716 3.51332998,13.3246781 3.22717304,13.3246781 L3.16113682,13.3246781 C3.10060362,13.3246781 3.05107646,13.2751509 3.05107646,13.2146177 L3.05107646,12.697334 C3.05107646,12.6368008 3.10060362,12.5872736 3.16113682,12.5872736 L3.22717304,12.5872736 C3.48031187,12.5872736 3.65640845,12.4221831 3.65640845,12.1690443 C3.65640845,11.9214085 3.48031187,11.7618209 3.22717304,11.7618209 C2.97953722,11.7618209 2.79793763,11.9214085 2.79793763,12.1690443 L2.79793763,12.2515895 C2.79793763,12.3121227 2.74841046,12.3616499 2.68787726,12.3616499 L2.15958753,12.3616499 C2.09905433,12.3616499 2.04952716,12.3121227 2.04952716,12.2515895 L2.04952716,12.1690443 C2.04952716,11.5251911 2.58331992,11.0134105 3.22717304,11.0134105 C3.87652918,11.0134105 4.3993159,11.5251911 4.3993159,12.1690443 C4.3993159,12.4441952 4.27274648,12.70834 4.10765594,12.8899396 C4.07463783,12.9229577 4.07463783,12.9614789 4.10765594,12.988994 C4.32227364,13.1650905 4.45434608,13.4787626 4.45434608,13.7814286 C4.45434608,14.4582998 3.90404427,14.9865895 3.22717304,14.9865895 C2.55030181,14.9865895 2,14.4582998 2,13.7814286 L2,13.7263984 C2,13.6658652 2.04952716,13.616338 2.11006036,13.616338 L2.6383501,13.616338 C2.6988833,13.616338 2.74841046,13.6658652 2.74841046,13.7263984 L2.74841046,13.7814286 C2.74841046,14.0675855 2.93551308,14.2381791 3.22717304,14.2381791 Z M2.95787879,4.12853535 L2.95787879,2.17424242 C2.95787879,2.10267677 2.88631313,2.09717172 2.85328283,2.13020202 L2.18717172,2.75227273 C2.12111111,2.81833333 2,2.77429293 2,2.66419192 L2,2.13570707 C2,2.04762626 2.0110101,1.97606061 2.08808081,1.89348485 L2.72666667,1.20535354 C2.77621212,1.15030303 2.86429293,1.07323232 3.00191919,1.07323232 L3.6129798,1.07323232 C3.67353535,1.07323232 3.72308081,1.12277778 3.72308081,1.18333333 L3.72308081,4.12853535 C3.72308081,4.16156566 3.74510101,4.18358586 3.77813131,4.18358586 L4.38919192,4.18358586 C4.44974747,4.18358586 4.49929293,4.23313131 4.49929293,4.29368687 L4.49929293,4.81666667 C4.49929293,4.87722222 4.44974747,4.92676768 4.38919192,4.92676768 L2.13212121,4.92676768 C2.07156566,4.92676768 2.0220202,4.87722222 2.0220202,4.81666667 L2.0220202,4.29368687 C2.0220202,4.23313131 2.07156566,4.18358586 2.13212121,4.18358586 L2.90282828,4.18358586 C2.93585859,4.18358586 2.95787879,4.16156566 2.95787879,4.12853535 Z"/></svg>