<?xml version="1.0" standalone="no"?><!DOCTYPE svg PUBLIC "-//W3C//DTD SVG 1.1//EN" "http://www.w3.org/Graphics/SVG/1.1/DTD/svg11.dtd"><svg width="12" height="12" viewBox="0 0 12 12" class="olMicro" style="height:12px;margin-right:16px;width:12px;perspective-origin:6px 6px;transform-origin:6px 6px;shape-rendering:geometricprecision;" version="1.1" xmlns="http://www.w3.org/2000/svg" xmlns:xlink="http://www.w3.org/1999/xlink"><path fill-rule="evenodd" class="" fill="currentColor" d="M5,2 C5,1.44771525 5.45277405,1 5.9928529,1 L8.9133971,1 C9.46173462,1 9.90625,1.44386482 9.90625,2 C9.90625,2.55228475 9.45347595,3 8.9133971,3 L5.9928529,3 C5.44451538,3 5,2.55613518 5,2 Z M5,6 C5,5.44771525 5.45277405,5 5.9928529,5 L8.9133971,5 C9.46173462,5 9.90625,5.44386482 9.90625,6 C9.90625,6.55228475 9.45347595,7 8.9133971,7 L5.9928529,7 C5.44451538,7 5,6.55613518 5,6 Z M5,10 C5,9.44771525 5.45277405,9 5.9928529,9 L8.9133971,9 C9.46173462,9 9.90625,9.44386482 9.90625,10 C9.90625,10.5522847 9.45347595,11 8.9133971,11 L5.9928529,11 C5.44451538,11 5,10.5561352 5,10 Z M3.072,5.092 C3.116,5.044 3.184,4.916 3.184,4.832 C3.184,4.672 3.076,4.54 2.896,4.54 C2.696,4.54 2.568,4.656 2.568,4.832 L2.568,4.9 C2.568,4.944 2.532,4.98 2.488,4.98 L2.108,4.98 C2.064,4.98 2.028,4.944 2.028,4.9 L2.028,4.836 C2.028,4.368 2.412,4 2.88,4 C3.352,4 3.724,4.368 3.724,4.836 C3.724,5.056 3.624,5.268 3.476,5.428 L2.724,6.224 C2.7,6.248 2.696,6.304 2.764,6.304 L3.648,6.304 C3.692,6.304 3.728,6.34 3.728,6.384 L3.728,6.764 C3.728,6.808 3.692,6.844 3.648,6.844 L2.08,6.844 C2.036,6.844 2,6.808 2,6.764 L2,6.292 C2,6.232 2.02,6.208 2.036,6.192 L3.072,5.092 Z M3.24,10.012 C3.24,9.804 3.1,9.68 2.892,9.68 L2.844,9.68 C2.8,9.68 2.764,9.644 2.764,9.6 L2.764,9.224 C2.764,9.18 2.8,9.144 2.844,9.144 L2.892,9.144 C3.076,9.144 3.204,9.024 3.204,8.84 C3.204,8.66 3.076,8.544 2.892,8.544 C2.712,8.544 2.58,8.66 2.58,8.84 L2.58,8.9 C2.58,8.944 2.544,8.98 2.5,8.98 L2.116,8.98 C2.072,8.98 2.036,8.944 2.036,8.9 L2.036,8.84 C2.036,8.372 2.424,8 2.892,8 C3.364,8 3.744,8.372 3.744,8.84 C3.744,9.04 3.652,9.232 3.532,9.364 C3.508,9.388 3.508,9.416 3.532,9.436 C3.688,9.564 3.784,9.792 3.784,10.012 C3.784,10.504 3.384,10.888 2.892,10.888 C2.4,10.888 2,10.504 2,10.012 L2,9.972 C2,9.928 2.036,9.892 2.08,9.892 L2.464,9.892 C2.508,9.892 2.544,9.928 2.544,9.972 L2.544,10.012 C2.544,10.22 2.68,10.344 2.892,10.344 C3.1,10.344 3.24,10.22 3.24,10.012 Z M2.696,2.22 L2.696,0.8 C2.696,0.748 2.644,0.744 2.62,0.768 L2.136,1.22 C2.088,1.268 2,1.236 2,1.156 L2,0.772 C2,0.708 2.008,0.656 2.064,0.596 L2.528,0.096 C2.564,0.056 2.628,0 2.728,0 L3.172,0 C3.216,0 3.252,0.036 3.252,0.08 L3.252,2.22 C3.252,2.244 3.268,2.26 3.292,2.26 L3.736,2.26 C3.78,2.26 3.816,2.296 3.816,2.34 L3.816,2.72 C3.816,2.764 3.78,2.8 3.736,2.8 L2.096,2.8 C2.052,2.8 2.016,2.764 2.016,2.72 L2.016,2.34 C2.016,2.296 2.052,2.26 2.096,2.26 L2.656,2.26 C2.68,2.26 2.696,2.244 2.696,2.22 Z" style="display:inline;height:auto;min-height:0px;min-width:0px;overflow-x:visible;overflow-y:visible;width:auto;perspective-origin:0px 0px;transform-origin:0px 0px;fill:rgb(51, 51, 51);fill-rule:evenodd;shape-rendering:geometricprecision;d:path(&quot;M 5 2 C 5 1.44772 5.45277 1 5.99285 1 L 8.9134 1 C 9.46173 1 9.90625 1.44386 9.90625 2 C 9.90625 2.55228 9.45348 3 8.9134 3 L 5.99285 3 C 5.44452 3 5 2.55614 5 2 Z M 5 6 C 5 5.44772 5.45277 5 5.99285 5 L 8.9134 5 C 9.46173 5 9.90625 5.44386 9.90625 6 C 9.90625 6.55228 9.45348 7 8.9134 7 L 5.99285 7 C 5.44452 7 5 6.55614 5 6 Z M 5 10 C 5 9.44772 5.45277 9 5.99285 9 L 8.9134 9 C 9.46173 9 9.90625 9.44386 9.90625 10 C 9.90625 10.5523 9.45348 11 8.9134 11 L 5.99285 11 C 5.44452 11 5 10.5561 5 10 Z M 3.072 5.092 C 3.116 5.044 3.184 4.916 3.184 4.832 C 3.184 4.672 3.076 4.54 2.896 4.54 C 2.696 4.54 2.568 4.656 2.568 4.832 L 2.568 4.9 C 2.568 4.944 2.532 4.98 2.488 4.98 L 2.108 4.98 C 2.064 4.98 2.028 4.944 2.028 4.9 L 2.028 4.836 C 2.028 4.368 2.412 4 2.88 4 C 3.352 4 3.724 4.368 3.724 4.836 C 3.724 5.056 3.624 5.268 3.476 5.428 L 2.724 6.224 C 2.7 6.248 2.696 6.304 2.764 6.304 L 3.648 6.304 C 3.692 6.304 3.728 6.34 3.728 6.384 L 3.728 6.764 C 3.728 6.808 3.692 6.844 3.648 6.844 L 2.08 6.844 C 2.036 6.844 2 6.808 2 6.764 L 2 6.292 C 2 6.232 2.02 6.208 2.036 6.192 L 3.072 5.092 Z M 3.24 10.012 C 3.24 9.804 3.1 9.68 2.892 9.68 L 2.844 9.68 C 2.8 9.68 2.764 9.644 2.764 9.6 L 2.764 9.224 C 2.764 9.18 2.8 9.144 2.844 9.144 L 2.892 9.144 C 3.076 9.144 3.204 9.024 3.204 8.84 C 3.204 8.66 3.076 8.544 2.892 8.544 C 2.712 8.544 2.58 8.66 2.58 8.84 L 2.58 8.9 C 2.58 8.944 2.544 8.98 2.5 8.98 L 2.116 8.98 C 2.072 8.98 2.036 8.944 2.036 8.9 L 2.036 8.84 C 2.036 8.372 2.424 8 2.892 8 C 3.364 8 3.744 8.372 3.744 8.84 C 3.744 9.04 3.652 9.232 3.532 9.364 C 3.508 9.388 3.508 9.416 3.532 9.436 C 3.688 9.564 3.784 9.792 3.784 10.012 C 3.784 10.504 3.384 10.888 2.892 10.888 C 2.4 10.888 2 10.504 2 10.012 L 2 9.972 C 2 9.928 2.036 9.892 2.08 9.892 L 2.464 9.892 C 2.508 9.892 2.544 9.928 2.544 9.972 L 2.544 10.012 C 2.544 10.22 2.68 10.344 2.892 10.344 C 3.1 10.344 3.24 10.22 3.24 10.012 Z M 2.696 2.22 L 2.696 0.8 C 2.696 0.748 2.644 0.744 2.62 0.768 L 2.136 1.22 C 2.088 1.268 2 1.236 2 1.156 L 2 0.772 C 2 0.708 2.008 0.656 2.064 0.596 L 2.528 0.096 C 2.564 0.056 2.628 0 2.728 0 L 3.172 0 C 3.216 0 3.252 0.036 3.252 0.08 L 3.252 2.22 C 3.252 2.244 3.268 2.26 3.292 2.26 L 3.736 2.26 C 3.78 2.26 3.816 2.296 3.816 2.34 L 3.816 2.72 C 3.816 2.764 3.78 2.8 3.736 2.8 L 2.096 2.8 C 2.052 2.8 2.016 2.764 2.016 2.72 L 2.016 2.34 C 2.016 2.296 2.052 2.26 2.096 2.26 L 2.656 2.26 C 2.68 2.26 2.696 2.244 2.696 2.22 Z&quot;);"/></svg>