<?xml version="1.0" standalone="no"?><!DOCTYPE svg PUBLIC "-//W3C//DTD SVG 1.1//EN" "http://www.w3.org/Graphics/SVG/1.1/DTD/svg11.dtd"><svg width="12" height="12" viewBox="0 0 12 12" class="overflowMicro" style="height:12px;margin-right:16px;width:12px;perspective-origin:6px 6px;transform-origin:6px 6px;shape-rendering:geometricprecision;" version="1.1" xmlns="http://www.w3.org/2000/svg" xmlns:xlink="http://www.w3.org/1999/xlink"><path fill-rule="evenodd" class="" fill="currentColor" d="M10.5,8 C9.67157288,8 9,7.32842712 9,6.5 C9,5.67157288 9.67157288,5 10.5,5 C11.3284271,5 12,5.67157288 12,6.5 C12,7.32842712 11.3284271,8 10.5,8 Z M6,8 C5.17157288,8 4.5,7.32842712 4.5,6.5 C4.5,5.67157288 5.17157288,5 6,5 C6.82842712,5 7.5,5.67157288 7.5,6.5 C7.5,7.32842712 6.82842712,8 6,8 Z M1.5,8 C0.671572875,8 0,7.32842712 0,6.5 C0,5.67157288 0.671572875,5 1.5,5 C2.32842712,5 3,5.67157288 3,6.5 C3,7.32842712 2.32842712,8 1.5,8 Z" style="display:inline;height:auto;min-height:0px;min-width:0px;overflow-x:visible;overflow-y:visible;width:auto;perspective-origin:0px 0px;transform-origin:0px 0px;fill:rgb(51, 51, 51);fill-rule:evenodd;shape-rendering:geometricprecision;d:path(&quot;M 10.5 8 C 9.67157 8 9 7.32843 9 6.5 C 9 5.67157 9.67157 5 10.5 5 C 11.3284 5 12 5.67157 12 6.5 C 12 7.32843 11.3284 8 10.5 8 Z M 6 8 C 5.17157 8 4.5 7.32843 4.5 6.5 C 4.5 5.67157 5.17157 5 6 5 C 6.82843 5 7.5 5.67157 7.5 6.5 C 7.5 7.32843 6.82843 8 6 8 Z M 1.5 8 C 0.671573 8 0 7.32843 0 6.5 C 0 5.67157 0.671573 5 1.5 5 C 2.32843 5 3 5.67157 3 6.5 C 3 7.32843 2.32843 8 1.5 8 Z&quot;);"/></svg>