<?xml version="1.0" standalone="no"?><!DOCTYPE svg PUBLIC "-//W3C//DTD SVG 1.1//EN" "http://www.w3.org/Graphics/SVG/1.1/DTD/svg11.dtd"><svg width="16" height="16" viewBox="0 0 16 16" version="1.1" xmlns="http://www.w3.org/2000/svg" xmlns:xlink="http://www.w3.org/1999/xlink"><path fill-rule="evenodd" fill="currentColor" d="M3,6 C4.105,6 5,6.895 5,8 C5,9.105 4.105,10 3,10 C1.895,10 1,9.105 1,8 C1,6.895 1.895,6 3,6 Z M8,6 C9.105,6 10,6.895 10,8 C10,9.105 9.105,10 8,10 C6.895,10 6,9.105 6,8 C6,6.895 6.895,6 8,6 Z M13,6 C14.105,6 15,6.895 15,8 C15,9.105 14.105,10 13,10 C11.895,10 11,9.105 11,8 C11,6.895 11.895,6 13,6 Z"/></svg>