<?xml version="1.0" standalone="no"?><!DOCTYPE svg PUBLIC "-//W3C//DTD SVG 1.1//EN" "http://www.w3.org/Graphics/SVG/1.1/DTD/svg11.dtd"><svg width="12" height="12" viewBox="0 0 12 12" version="1.1" xmlns="http://www.w3.org/2000/svg" xmlns:xlink="http://www.w3.org/1999/xlink"><path fill-rule="evenodd" fill="currentColor" d="M10.5,8 C9.67157288,8 9,7.32842712 9,6.5 C9,5.67157288 9.67157288,5 10.5,5 C11.3284271,5 12,5.67157288 12,6.5 C12,7.32842712 11.3284271,8 10.5,8 Z M6,8 C5.17157288,8 4.5,7.32842712 4.5,6.5 C4.5,5.67157288 5.17157288,5 6,5 C6.82842712,5 7.5,5.67157288 7.5,6.5 C7.5,7.32842712 6.82842712,8 6,8 Z M1.5,8 C0.671572875,8 0,7.32842712 0,6.5 C0,5.67157288 0.671572875,5 1.5,5 C2.32842712,5 3,5.67157288 3,6.5 C3,7.32842712 2.32842712,8 1.5,8 Z"/></svg>