<?xml version="1.0" standalone="no"?><!DOCTYPE svg PUBLIC "-//W3C//DTD SVG 1.1//EN" "http://www.w3.org/Graphics/SVG/1.1/DTD/svg11.dtd"><svg width="16" height="16" viewBox="0 0 16 16" class="paint" style="height:16px;margin-right:8px;width:16px;perspective-origin:8px 8px;transform-origin:8px 8px;shape-rendering:geometricprecision;" version="1.1" xmlns="http://www.w3.org/2000/svg" xmlns:xlink="http://www.w3.org/1999/xlink"><path fill-rule="evenodd" class="" fill="currentColor" d="M5.071 3H3.5a.5.5 0 0 1-.5-.5v-1a.5.5 0 0 1 .5-.5h3.086a1 1 0 0 1 .707.293l.228.228a1 1 0 0 1 .257.186l5.657 5.657a1 1 0 0 1 0 1.414l-5.657 5.657a1 1 0 0 1-1.414 0L.707 8.778a1 1 0 0 1 0-1.414L5.071 3zm2.707.778a1 1 0 0 0-1.414 0L3.071 7.071 11 7 7.778 3.778zm5.972 10.186c-.69 0-1.25-.56-1.25-1.25 0-.417.342-1.322 1.026-2.714a.25.25 0 0 1 .448 0C14.658 11.392 15 12.297 15 12.714c0 .69-.56 1.25-1.25 1.25z" style="display:inline;height:auto;min-height:0px;min-width:0px;overflow-x:visible;overflow-y:visible;width:auto;perspective-origin:0px 0px;transform-origin:0px 0px;fill:rgb(51, 51, 51);fill-rule:evenodd;shape-rendering:geometricprecision;d:path(&quot;M 5.071 3 H 3.5 A 0.5 0.5 0 0 1 3 2.5 V 1.5 A 0.5 0.5 0 0 1 3.5 1 H 6.586 A 1 1 0 0 1 7.293 1.293 L 7.521 1.521 A 1 1 0 0 1 7.778 1.707 L 13.435 7.364 A 1 1 0 0 1 13.435 8.778 L 7.778 14.435 A 1 1 0 0 1 6.364 14.435 L 0.707 8.778 A 1 1 0 0 1 0.707 7.364 L 5.071 3 Z M 7.778 3.778 A 1 1 0 0 0 6.364 3.778 L 3.071 7.071 L 11 7 L 7.778 3.778 Z M 13.75 13.964 C 13.06 13.964 12.5 13.404 12.5 12.714 C 12.5 12.297 12.842 11.392 13.526 10 A 0.25 0.25 0 0 1 13.974 10 C 14.658 11.392 15 12.297 15 12.714 C 15 13.404 14.44 13.964 13.75 13.964 Z&quot;);"/></svg>