<?xml version="1.0" standalone="no"?><!DOCTYPE svg PUBLIC "-//W3C//DTD SVG 1.1//EN" "http://www.w3.org/Graphics/SVG/1.1/DTD/svg11.dtd"><svg width="12" height="12" viewBox="0 0 12 12" class="paintMicro" style="height:12px;margin-right:16px;width:12px;perspective-origin:6px 6px;transform-origin:6px 6px;shape-rendering:geometricprecision;" version="1.1" xmlns="http://www.w3.org/2000/svg" xmlns:xlink="http://www.w3.org/1999/xlink"><path fill-rule="evenodd" class="" fill="currentColor" d="M5.475.475l4.828 4.828a.5.5 0 0 1 0 .707l-4.621 4.622a.5.5 0 0 1-.707 0L.357 6.014a.5.5 0 0 1 .003-.71L3.728 2H2.5a.5.5 0 0 1-.5-.5V.828a.5.5 0 0 1 .5-.5h2.621a.5.5 0 0 1 .354.147zm.197 2.197a.5.5 0 0 0-.697-.01L2.5 5H8L5.672 2.672zm4.828 7.5a1 1 0 0 1-1-1c0-.325.258-1.018.775-2.08a.25.25 0 0 1 .45 0c.517 1.062.775 1.755.775 2.08a1 1 0 0 1-1 1z" style="display:inline;height:auto;min-height:0px;min-width:0px;overflow-x:visible;overflow-y:visible;width:auto;perspective-origin:0px 0px;transform-origin:0px 0px;fill:rgb(51, 51, 51);fill-rule:evenodd;shape-rendering:geometricprecision;d:path(&quot;M 5.475 0.475 L 10.303 5.303 A 0.5 0.5 0 0 1 10.303 6.01 L 5.682 10.632 A 0.5 0.5 0 0 1 4.975 10.632 L 0.357 6.014 A 0.5 0.5 0 0 1 0.36 5.304 L 3.728 2 H 2.5 A 0.5 0.5 0 0 1 2 1.5 V 0.828 A 0.5 0.5 0 0 1 2.5 0.328 H 5.121 A 0.5 0.5 0 0 1 5.475 0.475 Z M 5.672 2.672 A 0.5 0.5 0 0 0 4.975 2.662 L 2.5 5 H 8 L 5.672 2.672 Z M 10.5 10.172 A 1 1 0 0 1 9.5 9.172 C 9.5 8.847 9.758 8.154 10.275 7.092 A 0.25 0.25 0 0 1 10.725 7.092 C 11.242 8.154 11.5 8.847 11.5 9.172 A 1 1 0 0 1 10.5 10.172 Z&quot;);"/></svg>