<?xml version="1.0" standalone="no"?><!DOCTYPE svg PUBLIC "-//W3C//DTD SVG 1.1//EN" "http://www.w3.org/Graphics/SVG/1.1/DTD/svg11.dtd"><svg width="16" height="16" viewBox="0 0 16 16" version="1.1" xmlns="http://www.w3.org/2000/svg" xmlns:xlink="http://www.w3.org/1999/xlink"><path fill-rule="evenodd" fill="currentColor" d="M5.071 3H3.5a.5.5 0 0 1-.5-.5v-1a.5.5 0 0 1 .5-.5h3.086a1 1 0 0 1 .707.293l.228.228a1 1 0 0 1 .257.186l5.657 5.657a1 1 0 0 1 0 1.414l-5.657 5.657a1 1 0 0 1-1.414 0L.707 8.778a1 1 0 0 1 0-1.414L5.071 3zm2.707.778a1 1 0 0 0-1.414 0L3.071 7.071 11 7 7.778 3.778zm5.972 10.186c-.69 0-1.25-.56-1.25-1.25 0-.417.342-1.322 1.026-2.714a.25.25 0 0 1 .448 0C14.658 11.392 15 12.297 15 12.714c0 .69-.56 1.25-1.25 1.25z"/></svg>