<?xml version="1.0" standalone="no"?><!DOCTYPE svg PUBLIC "-//W3C//DTD SVG 1.1//EN" "http://www.w3.org/Graphics/SVG/1.1/DTD/svg11.dtd"><svg width="12" height="12" viewBox="0 0 12 12" version="1.1" xmlns="http://www.w3.org/2000/svg" xmlns:xlink="http://www.w3.org/1999/xlink"><path fill-rule="evenodd" fill="currentColor" d="M5.475.475l4.828 4.828a.5.5 0 0 1 0 .707l-4.621 4.622a.5.5 0 0 1-.707 0L.357 6.014a.5.5 0 0 1 .003-.71L3.728 2H2.5a.5.5 0 0 1-.5-.5V.828a.5.5 0 0 1 .5-.5h2.621a.5.5 0 0 1 .354.147zm.197 2.197a.5.5 0 0 0-.697-.01L2.5 5H8L5.672 2.672zm4.828 7.5a1 1 0 0 1-1-1c0-.325.258-1.018.775-2.08a.25.25 0 0 1 .45 0c.517 1.062.775 1.755.775 2.08a1 1 0 0 1-1 1z"/></svg>