<?xml version="1.0" standalone="no"?><!DOCTYPE svg PUBLIC "-//W3C//DTD SVG 1.1//EN" "http://www.w3.org/Graphics/SVG/1.1/DTD/svg11.dtd"><svg width="12" height="12" viewBox="0 0 12 12" class="paragraphMicro" style="height:12px;margin-right:16px;width:12px;perspective-origin:6px 6px;transform-origin:6px 6px;shape-rendering:geometricprecision;" version="1.1" xmlns="http://www.w3.org/2000/svg" xmlns:xlink="http://www.w3.org/1999/xlink"><path fill-rule="evenodd" class="" fill="currentColor" d="M.09 5.53L2.115.47a.79.79 0 0 1 .69-.47H2.76c.28 0 .587.21.69.47l2.024 5.06c.108.27-.036.47-.314.47h-.443a.37.37 0 0 1-.334-.238l-.244-.73c-.086-.26-.385-.472-.666-.472H2.091a.737.737 0 0 0-.666.472l-.243.73A.382.382 0 0 1 .848 6H.404c-.27 0-.417-.21-.313-.47zm1.917-2.393c-.102.256.036.463.32.463h.91c.28 0 .423-.205.32-.463l-.445-1.111c-.182-.456-.48-.451-.66 0l-.445 1.111zM0 8c0-.552.456-1 1.002-1h9.996a.999.999 0 1 1 0 2H1.002A.999.999 0 0 1 0 8zm7-3a1 1 0 0 1 1.01-1h1.98a1 1 0 1 1 0 2H8.01C7.451 6 7 5.556 7 5zm-7 6c0-.552.453-1 .997-1h6.006c.55 0 .997.444.997 1 0 .552-.453 1-.997 1H.997A.996.996 0 0 1 0 11z" style="display:inline;height:auto;min-height:0px;min-width:0px;overflow-x:visible;overflow-y:visible;width:auto;perspective-origin:0px 0px;transform-origin:0px 0px;fill:rgb(51, 51, 51);fill-rule:evenodd;shape-rendering:geometricprecision;d:path(&quot;M 0.09 5.53 L 2.115 0.47 A 0.79 0.79 0 0 1 2.805 0 H 2.76 C 3.04 0 3.347 0.21 3.45 0.47 L 5.474 5.53 C 5.582 5.8 5.438 6 5.16 6 H 4.717 A 0.37 0.37 0 0 1 4.383 5.762 L 4.139 5.032 C 4.053 4.772 3.754 4.56 3.473 4.56 H 2.091 A 0.737 0.737 0 0 0 1.425 5.032 L 1.182 5.762 A 0.382 0.382 0 0 1 0.848 6 H 0.404 C 0.134 6 -0.013 5.79 0.091 5.53 Z M 2.007 3.137 C 1.905 3.393 2.043 3.6 2.327 3.6 H 3.237 C 3.517 3.6 3.66 3.395 3.557 3.137 L 3.112 2.026 C 2.93 1.57 2.632 1.575 2.452 2.026 L 2.007 3.137 Z M 0 8 C 0 7.448 0.456 7 1.002 7 H 10.998 A 0.999 0.999 0 1 1 10.998 9 H 1.002 A 0.999 0.999 0 0 1 0 8 Z M 7 5 A 1 1 0 0 1 8.01 4 H 9.99 A 1 1 0 1 1 9.99 6 H 8.01 C 7.451 6 7 5.556 7 5 Z M 0 11 C 0 10.448 0.453 10 0.997 10 H 7.003 C 7.553 10 8 10.444 8 11 C 8 11.552 7.547 12 7.003 12 H 0.997 A 0.996 0.996 0 0 1 0 11 Z&quot;);"/></svg>