<?xml version="1.0" standalone="no"?><!DOCTYPE svg PUBLIC "-//W3C//DTD SVG 1.1//EN" "http://www.w3.org/Graphics/SVG/1.1/DTD/svg11.dtd"><svg width="16" height="16" viewBox="0 0 16 16" class="paragraph" style="height:16px;margin-right:8px;width:16px;perspective-origin:8px 8px;transform-origin:8px 8px;shape-rendering:geometricprecision;" version="1.1" xmlns="http://www.w3.org/2000/svg" xmlns:xlink="http://www.w3.org/1999/xlink"><path fill-rule="evenodd" class="" fill="currentColor" d="M.063 8.502l2.816-7.04c.1-.249.41-.462.689-.462h.267c.282 0 .586.207.689.463l2.815 7.039c.1.25-.04.462-.319.462h-.84a.36.36 0 0 1-.327-.234l-.398-1.195a.731.731 0 0 0-.659-.482h-2.19c-.268 0-.57.216-.658.482L1.549 8.73a.364.364 0 0 1-.327.234h-.84c-.282 0-.42-.207-.319-.462zm2.552-3.193c-.104.26.03.47.303.47h1.566c.272 0 .408-.21.304-.47l-.719-1.795c-.203-.509-.535-.505-.737 0L2.615 5.31zM8 8c0-.552.453-1 .997-1h6.006c.55 0 .997.444.997 1 0 .552-.453 1-.997 1H8.997A.996.996 0 0 1 8 8zm0-3c0-.552.444-1 1-1h3c.552 0 1 .444 1 1 0 .552-.444 1-1 1H9c-.552 0-1-.444-1-1zm-8 6c0-.552.449-1 1.007-1h12.986c.556 0 1.007.444 1.007 1 0 .552-.449 1-1.007 1H1.007A1.001 1.001 0 0 1 0 11zm0 3a1 1 0 0 1 .999-1H12a1 1 0 1 1 0 2H1A.997.997 0 0 1 0 14z" style="display:inline;height:auto;min-height:0px;min-width:0px;overflow-x:visible;overflow-y:visible;width:auto;perspective-origin:0px 0px;transform-origin:0px 0px;fill:rgb(51, 51, 51);fill-rule:evenodd;shape-rendering:geometricprecision;d:path(&quot;M 0.063 8.502 L 2.879 1.462 C 2.979 1.213 3.289 1 3.568 1 H 3.835 C 4.117 1 4.421 1.207 4.524 1.463 L 7.339 8.502 C 7.439 8.752 7.299 8.964 7.02 8.964 H 6.18 A 0.36 0.36 0 0 1 5.853 8.73 L 5.455 7.535 A 0.731 0.731 0 0 0 4.796 7.053 H 2.606 C 2.338 7.053 2.036 7.269 1.948 7.535 L 1.549 8.73 A 0.364 0.364 0 0 1 1.222 8.964 H 0.382 C 0.1 8.964 -0.038 8.757 0.063 8.502 Z M 2.615 5.309 C 2.511 5.569 2.645 5.779 2.918 5.779 H 4.484 C 4.756 5.779 4.892 5.569 4.788 5.309 L 4.069 3.514 C 3.866 3.005 3.534 3.009 3.332 3.514 L 2.615 5.31 Z M 8 8 C 8 7.448 8.453 7 8.997 7 H 15.003 C 15.553 7 16 7.444 16 8 C 16 8.552 15.547 9 15.003 9 H 8.997 A 0.996 0.996 0 0 1 8 8 Z M 8 5 C 8 4.448 8.444 4 9 4 H 12 C 12.552 4 13 4.444 13 5 C 13 5.552 12.556 6 12 6 H 9 C 8.448 6 8 5.556 8 5 Z M 0 11 C 0 10.448 0.449 10 1.007 10 H 13.993 C 14.549 10 15 10.444 15 11 C 15 11.552 14.551 12 13.993 12 H 1.007 A 1.001 1.001 0 0 1 0 11 Z M 0 14 A 1 1 0 0 1 0.999 13 H 12 A 1 1 0 1 1 12 15 H 1 A 0.997 0.997 0 0 1 0 14 Z&quot;);"/></svg>