<?xml version="1.0" standalone="no"?><!DOCTYPE svg PUBLIC "-//W3C//DTD SVG 1.1//EN" "http://www.w3.org/Graphics/SVG/1.1/DTD/svg11.dtd"><svg width="12" height="12" viewBox="0 0 12 12" version="1.1" xmlns="http://www.w3.org/2000/svg" xmlns:xlink="http://www.w3.org/1999/xlink"><path fill-rule="evenodd" fill="currentColor" d="M.09 5.53L2.115.47a.79.79 0 0 1 .69-.47H2.76c.28 0 .587.21.69.47l2.024 5.06c.108.27-.036.47-.314.47h-.443a.37.37 0 0 1-.334-.238l-.244-.73c-.086-.26-.385-.472-.666-.472H2.091a.737.737 0 0 0-.666.472l-.243.73A.382.382 0 0 1 .848 6H.404c-.27 0-.417-.21-.313-.47zm1.917-2.393c-.102.256.036.463.32.463h.91c.28 0 .423-.205.32-.463l-.445-1.111c-.182-.456-.48-.451-.66 0l-.445 1.111zM0 8c0-.552.456-1 1.002-1h9.996a.999.999 0 1 1 0 2H1.002A.999.999 0 0 1 0 8zm7-3a1 1 0 0 1 1.01-1h1.98a1 1 0 1 1 0 2H8.01C7.451 6 7 5.556 7 5zm-7 6c0-.552.453-1 .997-1h6.006c.55 0 .997.444.997 1 0 .552-.453 1-.997 1H.997A.996.996 0 0 1 0 11z"/></svg>