<?xml version="1.0" standalone="no"?><!DOCTYPE svg PUBLIC "-//W3C//DTD SVG 1.1//EN" "http://www.w3.org/Graphics/SVG/1.1/DTD/svg11.dtd"><svg width="16" height="16" viewBox="0 0 16 16" version="1.1" xmlns="http://www.w3.org/2000/svg" xmlns:xlink="http://www.w3.org/1999/xlink"><path fill-rule="evenodd" fill="currentColor" d="M.063 8.502l2.816-7.04c.1-.249.41-.462.689-.462h.267c.282 0 .586.207.689.463l2.815 7.039c.1.25-.04.462-.319.462h-.84a.36.36 0 0 1-.327-.234l-.398-1.195a.731.731 0 0 0-.659-.482h-2.19c-.268 0-.57.216-.658.482L1.549 8.73a.364.364 0 0 1-.327.234h-.84c-.282 0-.42-.207-.319-.462zm2.552-3.193c-.104.26.03.47.303.47h1.566c.272 0 .408-.21.304-.47l-.719-1.795c-.203-.509-.535-.505-.737 0L2.615 5.31zM8 8c0-.552.453-1 .997-1h6.006c.55 0 .997.444.997 1 0 .552-.453 1-.997 1H8.997A.996.996 0 0 1 8 8zm0-3c0-.552.444-1 1-1h3c.552 0 1 .444 1 1 0 .552-.444 1-1 1H9c-.552 0-1-.444-1-1zm-8 6c0-.552.449-1 1.007-1h12.986c.556 0 1.007.444 1.007 1 0 .552-.449 1-1.007 1H1.007A1.001 1.001 0 0 1 0 11zm0 3a1 1 0 0 1 .999-1H12a1 1 0 1 1 0 2H1A.997.997 0 0 1 0 14z"/></svg>