<?xml version="1.0" standalone="no"?><!DOCTYPE svg PUBLIC "-//W3C//DTD SVG 1.1//EN" "http://www.w3.org/Graphics/SVG/1.1/DTD/svg11.dtd"><svg width="16" height="16" viewBox="0 0 16 16" class="pause" style="height:16px;margin-right:8px;width:16px;perspective-origin:8px 8px;transform-origin:8px 8px;shape-rendering:geometricprecision;" version="1.1" xmlns="http://www.w3.org/2000/svg" xmlns:xlink="http://www.w3.org/1999/xlink"><path fill-rule="evenodd" class="" fill="currentColor" d="M2 3.496A1.5 1.5 0 0 1 3.5 2h2C6.328 2 7 2.68 7 3.496v9.008A1.5 1.5 0 0 1 5.5 14h-2c-.828 0-1.5-.68-1.5-1.496V3.496zm7 0A1.5 1.5 0 0 1 10.5 2h2c.828 0 1.5.68 1.5 1.496v9.008A1.5 1.5 0 0 1 12.5 14h-2c-.828 0-1.5-.68-1.5-1.496V3.496z" style="display:inline;height:auto;min-height:0px;min-width:0px;overflow-x:visible;overflow-y:visible;width:auto;perspective-origin:0px 0px;transform-origin:0px 0px;fill:rgb(51, 51, 51);fill-rule:evenodd;shape-rendering:geometricprecision;d:path(&quot;M 2 3.496 A 1.5 1.5 0 0 1 3.5 2 H 5.5 C 6.328 2 7 2.68 7 3.496 V 12.504 A 1.5 1.5 0 0 1 5.5 14 H 3.5 C 2.672 14 2 13.32 2 12.504 V 3.496 Z M 9 3.496 A 1.5 1.5 0 0 1 10.5 2 H 12.5 C 13.328 2 14 2.68 14 3.496 V 12.504 A 1.5 1.5 0 0 1 12.5 14 H 10.5 C 9.672 14 9 13.32 9 12.504 V 3.496 Z&quot;);"/></svg>