<?xml version="1.0" standalone="no"?><!DOCTYPE svg PUBLIC "-//W3C//DTD SVG 1.1//EN" "http://www.w3.org/Graphics/SVG/1.1/DTD/svg11.dtd"><svg width="12" height="12" viewBox="0 0 12 12" version="1.1" xmlns="http://www.w3.org/2000/svg" xmlns:xlink="http://www.w3.org/1999/xlink"><path fill-rule="evenodd" fill="currentColor" d="M2 2.997c0-.55.443-.997.999-.997h1.002c.552 0 .999.453.999.997v6.006c0 .55-.443.997-.999.997H2.999C2.447 10 2 9.547 2 9.003V2.997zm5 0c0-.55.443-.997.999-.997h1.002c.552 0 .999.453.999.997v6.006c0 .55-.443.997-.999.997H7.999C7.447 10 7 9.547 7 9.003V2.997z"/></svg>