<?xml version="1.0" standalone="no"?><!DOCTYPE svg PUBLIC "-//W3C//DTD SVG 1.1//EN" "http://www.w3.org/Graphics/SVG/1.1/DTD/svg11.dtd"><svg width="12" height="12" viewBox="0 0 12 12" class="pauseMicro" style="height:12px;margin-right:16px;width:12px;perspective-origin:6px 6px;transform-origin:6px 6px;shape-rendering:geometricprecision;" version="1.1" xmlns="http://www.w3.org/2000/svg" xmlns:xlink="http://www.w3.org/1999/xlink"><path fill-rule="evenodd" class="" fill="currentColor" d="M2 2.997c0-.55.443-.997.999-.997h1.002c.552 0 .999.453.999.997v6.006c0 .55-.443.997-.999.997H2.999C2.447 10 2 9.547 2 9.003V2.997zm5 0c0-.55.443-.997.999-.997h1.002c.552 0 .999.453.999.997v6.006c0 .55-.443.997-.999.997H7.999C7.447 10 7 9.547 7 9.003V2.997z" style="display:inline;height:auto;min-height:0px;min-width:0px;overflow-x:visible;overflow-y:visible;width:auto;perspective-origin:0px 0px;transform-origin:0px 0px;fill:rgb(51, 51, 51);fill-rule:evenodd;shape-rendering:geometricprecision;d:path(&quot;M 2 2.997 C 2 2.447 2.443 2 2.999 2 H 4.001 C 4.553 2 5 2.453 5 2.997 V 9.003 C 5 9.553 4.557 10 4.001 10 H 2.999 C 2.447 10 2 9.547 2 9.003 V 2.997 Z M 7 2.997 C 7 2.447 7.443 2 7.999 2 H 9.001 C 9.553 2 10 2.453 10 2.997 V 9.003 C 10 9.553 9.557 10 9.001 10 H 7.999 C 7.447 10 7 9.547 7 9.003 V 2.997 Z&quot;);"/></svg>