<?xml version="1.0" standalone="no"?><!DOCTYPE svg PUBLIC "-//W3C//DTD SVG 1.1//EN" "http://www.w3.org/Graphics/SVG/1.1/DTD/svg11.dtd"><svg width="16" height="16" viewBox="0 0 16 16" version="1.1" xmlns="http://www.w3.org/2000/svg" xmlns:xlink="http://www.w3.org/1999/xlink"><path fill-rule="evenodd" fill="currentColor" d="M2 3.496A1.5 1.5 0 0 1 3.5 2h2C6.328 2 7 2.68 7 3.496v9.008A1.5 1.5 0 0 1 5.5 14h-2c-.828 0-1.5-.68-1.5-1.496V3.496zm7 0A1.5 1.5 0 0 1 10.5 2h2c.828 0 1.5.68 1.5 1.496v9.008A1.5 1.5 0 0 1 12.5 14h-2c-.828 0-1.5-.68-1.5-1.496V3.496z"/></svg>