<?xml version="1.0" standalone="no"?><!DOCTYPE svg PUBLIC "-//W3C//DTD SVG 1.1//EN" "http://www.w3.org/Graphics/SVG/1.1/DTD/svg11.dtd"><svg width="12" height="12" viewBox="0 0 12 12" class="percentMicro" style="height:12px;margin-right:16px;width:12px;perspective-origin:6px 6px;transform-origin:6px 6px;shape-rendering:geometricprecision;" version="1.1" xmlns="http://www.w3.org/2000/svg" xmlns:xlink="http://www.w3.org/1999/xlink"><path fill-rule="evenodd" class="" fill="currentColor" d="M2.999,11 C2.791,11 2.58,10.935 2.4,10.8 C1.958,10.469 1.869,9.842 2.2,9.4 L8.2,1.4 C8.532,0.958 9.158,0.869 9.6,1.2 C10.042,1.531 10.131,2.158 9.8,2.6 L3.8,10.6 C3.603,10.862 3.303,11 2.999,11 Z M11,9 C11,10.105 10.105,11 9,11 C7.895,11 7,10.105 7,9 C7,7.895 7.895,7 9,7 C10.105,7 11,7.895 11,9 Z M5,3 C5,4.105 4.105,5 3,5 C1.895,5 1,4.105 1,3 C1,1.895 1.895,1 3,1 C4.105,1 5,1.895 5,3 Z" style="display:inline;height:auto;min-height:0px;min-width:0px;overflow-x:visible;overflow-y:visible;width:auto;perspective-origin:0px 0px;transform-origin:0px 0px;fill:rgb(51, 51, 51);fill-rule:evenodd;shape-rendering:geometricprecision;d:path(&quot;M 2.999 11 C 2.791 11 2.58 10.935 2.4 10.8 C 1.958 10.469 1.869 9.842 2.2 9.4 L 8.2 1.4 C 8.532 0.958 9.158 0.869 9.6 1.2 C 10.042 1.531 10.131 2.158 9.8 2.6 L 3.8 10.6 C 3.603 10.862 3.303 11 2.999 11 Z M 11 9 C 11 10.105 10.105 11 9 11 C 7.895 11 7 10.105 7 9 C 7 7.895 7.895 7 9 7 C 10.105 7 11 7.895 11 9 Z M 5 3 C 5 4.105 4.105 5 3 5 C 1.895 5 1 4.105 1 3 C 1 1.895 1.895 1 3 1 C 4.105 1 5 1.895 5 3 Z&quot;);"/></svg>