<?xml version="1.0" standalone="no"?><!DOCTYPE svg PUBLIC "-//W3C//DTD SVG 1.1//EN" "http://www.w3.org/Graphics/SVG/1.1/DTD/svg11.dtd"><svg width="16" height="16" viewBox="0 0 16 16" class="percent" style="height:16px;margin-right:8px;width:16px;perspective-origin:8px 8px;transform-origin:8px 8px;shape-rendering:geometricprecision;" version="1.1" xmlns="http://www.w3.org/2000/svg" xmlns:xlink="http://www.w3.org/1999/xlink"><path fill-rule="evenodd" class="" fill="currentColor" d="M3,14.25 C2.68,14.25 2.36,14.128 2.116,13.884 C1.628,13.396 1.628,12.604 2.116,12.116 L12.116,2.116 C12.604,1.628 13.396,1.628 13.884,2.116 C14.372,2.604 14.372,3.396 13.884,3.884 L3.884,13.884 C3.64,14.128 3.32,14.25 3,14.25 Z M15,12.2 C15,13.746 13.746,15 12.2,15 C10.654,15 9.4,13.746 9.4,12.2 C9.4,10.654 10.654,9.4 12.2,9.4 C13.746,9.4 15,10.654 15,12.2 Z M6.6,3.8 C6.6,5.346 5.346,6.6 3.8,6.6 C2.254,6.6 1,5.346 1,3.8 C1,2.254 2.254,1 3.8,1 C5.346,1 6.6,2.254 6.6,3.8 Z" style="display:inline;height:auto;min-height:0px;min-width:0px;overflow-x:visible;overflow-y:visible;width:auto;perspective-origin:0px 0px;transform-origin:0px 0px;fill:rgb(51, 51, 51);fill-rule:evenodd;shape-rendering:geometricprecision;d:path(&quot;M 3 14.25 C 2.68 14.25 2.36 14.128 2.116 13.884 C 1.628 13.396 1.628 12.604 2.116 12.116 L 12.116 2.116 C 12.604 1.628 13.396 1.628 13.884 2.116 C 14.372 2.604 14.372 3.396 13.884 3.884 L 3.884 13.884 C 3.64 14.128 3.32 14.25 3 14.25 Z M 15 12.2 C 15 13.746 13.746 15 12.2 15 C 10.654 15 9.4 13.746 9.4 12.2 C 9.4 10.654 10.654 9.4 12.2 9.4 C 13.746 9.4 15 10.654 15 12.2 Z M 6.6 3.8 C 6.6 5.346 5.346 6.6 3.8 6.6 C 2.254 6.6 1 5.346 1 3.8 C 1 2.254 2.254 1 3.8 1 C 5.346 1 6.6 2.254 6.6 3.8 Z&quot;);"/></svg>