<?xml version="1.0" standalone="no"?><!DOCTYPE svg PUBLIC "-//W3C//DTD SVG 1.1//EN" "http://www.w3.org/Graphics/SVG/1.1/DTD/svg11.dtd"><svg width="16" height="16" viewBox="0 0 16 16" class="phone" style="height:16px;margin-right:8px;width:16px;perspective-origin:8px 8px;transform-origin:8px 8px;shape-rendering:geometricprecision;" version="1.1" xmlns="http://www.w3.org/2000/svg" xmlns:xlink="http://www.w3.org/1999/xlink"><path fill-rule="evenodd" class="" fill="currentColor" d="M6.2223,2.8573 C6.4953,3.1303 6.4953,3.5723 6.2223,3.8453 L5.2333,4.8333 C4.9603,5.1063 5.0863,5.4653 5.2333,5.8213 C5.5833,6.6653 6.3453,7.5103 7.4163,8.5813 C8.6103,9.7763 9.3313,10.3323 10.1753,10.7653 C10.5193,10.9413 10.8913,11.0383 11.1633,10.7653 L12.1523,9.7783 C12.4253,9.5053 12.8673,9.5053 13.1403,9.7783 L15.1173,11.7563 C15.3903,12.0293 15.3903,12.4713 15.1173,12.7443 L13.0653,14.7953 C12.8233,15.0373 12.4423,15.0683 12.1643,14.8693 C12.1643,14.8693 8.1363,13.6693 5.2333,10.7653 C2.2063,7.7373 1.1303,3.8303 1.1303,3.8303 C0.9313,3.5523 0.9633,3.1713 1.2043,2.9303 L3.2573,0.8793 C3.5303,0.6063 3.9723,0.6063 4.2453,0.8793 L6.2223,2.8573 Z" style="display:inline;height:auto;min-height:0px;min-width:0px;overflow-x:visible;overflow-y:visible;width:auto;perspective-origin:0px 0px;transform-origin:0px 0px;fill:rgb(51, 51, 51);fill-rule:evenodd;shape-rendering:geometricprecision;d:path(&quot;M 6.2223 2.8573 C 6.4953 3.1303 6.4953 3.5723 6.2223 3.8453 L 5.2333 4.8333 C 4.9603 5.1063 5.0863 5.4653 5.2333 5.8213 C 5.5833 6.6653 6.3453 7.5103 7.4163 8.5813 C 8.6103 9.7763 9.3313 10.3323 10.1753 10.7653 C 10.5193 10.9413 10.8913 11.0383 11.1633 10.7653 L 12.1523 9.7783 C 12.4253 9.5053 12.8673 9.5053 13.1403 9.7783 L 15.1173 11.7563 C 15.3903 12.0293 15.3903 12.4713 15.1173 12.7443 L 13.0653 14.7953 C 12.8233 15.0373 12.4423 15.0683 12.1643 14.8693 C 12.1643 14.8693 8.1363 13.6693 5.2333 10.7653 C 2.2063 7.7373 1.1303 3.8303 1.1303 3.8303 C 0.9313 3.5523 0.9633 3.1713 1.2043 2.9303 L 3.2573 0.8793 C 3.5303 0.6063 3.9723 0.6063 4.2453 0.8793 L 6.2223 2.8573 Z&quot;);"/></svg>