<?xml version="1.0" standalone="no"?><!DOCTYPE svg PUBLIC "-//W3C//DTD SVG 1.1//EN" "http://www.w3.org/Graphics/SVG/1.1/DTD/svg11.dtd"><svg width="12" height="12" viewBox="0 0 12 12" version="1.1" xmlns="http://www.w3.org/2000/svg" xmlns:xlink="http://www.w3.org/1999/xlink"><path fill-rule="evenodd" fill="currentColor" d="M4.7359,2.2742 C4.9309,2.4692 4.9309,2.7862 4.7359,2.9812 L4.0289,3.6882 C3.8339,3.8832 3.9229,4.1402 4.0289,4.3952 C4.2799,4.9992 4.8249,5.6032 5.5909,6.3702 C6.4449,7.2242 6.9609,7.6222 7.5649,7.9322 C7.8099,8.0582 8.0769,8.1272 8.2719,7.9322 L8.9789,7.2262 C9.1739,7.0302 9.4909,7.0302 9.6859,7.2262 L11.0999,8.6412 C11.2959,8.8362 11.2959,9.1532 11.0999,9.3482 L9.6319,10.8152 C9.4589,10.9882 9.1869,11.0112 8.9879,10.8682 C8.9879,10.8682 6.077,10.078 4,8 C1.834,5.833 1.0929,2.9702 1.0929,2.9702 C0.9509,2.7712 0.9739,2.4992 1.1469,2.3262 L2.6149,0.8592 C2.8099,0.6642 3.1269,0.6642 3.3219,0.8592 L4.7359,2.2742 Z"/></svg>