<?xml version="1.0" standalone="no"?><!DOCTYPE svg PUBLIC "-//W3C//DTD SVG 1.1//EN" "http://www.w3.org/Graphics/SVG/1.1/DTD/svg11.dtd"><svg width="12" height="12" viewBox="0 0 12 12" class="pivotMicro" style="height:12px;margin-right:16px;width:12px;perspective-origin:6px 6px;transform-origin:6px 6px;shape-rendering:geometricprecision;" version="1.1" xmlns="http://www.w3.org/2000/svg" xmlns:xlink="http://www.w3.org/1999/xlink"><path fill-rule="evenodd" class="" fill="currentColor" d="M9.5 6.092h.49c.558 0 .732-.36.399-.792L9.61 4.292c-.338-.438-.89-.432-1.222 0L7.61 5.3c-.338.438-.168.792.398.792h.49C8.472 7.71 7.732 8.462 6.126 8.5v-.49c0-.557-.365-.737-.802-.41l-1.022.762c-.443.33-.448.874-.014 1.21l1.05.817c.435.338.788.169.788-.397v-.492c2.165-.044 3.341-1.232 3.373-3.407zM2 3a1 1 0 0 1 1 1v6a1 1 0 0 1-2 0V4a1 1 0 0 1 1-1zm2-2h6a1 1 0 0 1 0 2H4a1 1 0 1 1 0-2z" style="display:inline;height:auto;min-height:0px;min-width:0px;overflow-x:visible;overflow-y:visible;width:auto;perspective-origin:0px 0px;transform-origin:0px 0px;fill:rgb(51, 51, 51);fill-rule:evenodd;shape-rendering:geometricprecision;d:path(&quot;M 9.5 6.092 H 9.99 C 10.548 6.092 10.722 5.732 10.389 5.3 L 9.61 4.292 C 9.272 3.854 8.72 3.86 8.388 4.292 L 7.61 5.3 C 7.272 5.738 7.442 6.092 8.008 6.092 H 8.498 C 8.472 7.71 7.732 8.462 6.126 8.5 V 8.01 C 6.126 7.453 5.761 7.273 5.324 7.6 L 4.302 8.362 C 3.859 8.692 3.854 9.236 4.288 9.572 L 5.338 10.389 C 5.773 10.727 6.126 10.558 6.126 9.992 V 9.5 C 8.291 9.456 9.467 8.268 9.499 6.093 Z M 2 3 A 1 1 0 0 1 3 4 V 10 A 1 1 0 0 1 1 10 V 4 A 1 1 0 0 1 2 3 Z M 4 1 H 10 A 1 1 0 0 1 10 3 H 4 A 1 1 0 1 1 4 1 Z&quot;);"/></svg>