<?xml version="1.0" standalone="no"?><!DOCTYPE svg PUBLIC "-//W3C//DTD SVG 1.1//EN" "http://www.w3.org/Graphics/SVG/1.1/DTD/svg11.dtd"><svg width="12" height="12" viewBox="0 0 12 12" version="1.1" xmlns="http://www.w3.org/2000/svg" xmlns:xlink="http://www.w3.org/1999/xlink"><path fill-rule="evenodd" fill="currentColor" d="M9.5 6.092h.49c.558 0 .732-.36.399-.792L9.61 4.292c-.338-.438-.89-.432-1.222 0L7.61 5.3c-.338.438-.168.792.398.792h.49C8.472 7.71 7.732 8.462 6.126 8.5v-.49c0-.557-.365-.737-.802-.41l-1.022.762c-.443.33-.448.874-.014 1.21l1.05.817c.435.338.788.169.788-.397v-.492c2.165-.044 3.341-1.232 3.373-3.407zM2 3a1 1 0 0 1 1 1v6a1 1 0 0 1-2 0V4a1 1 0 0 1 1-1zm2-2h6a1 1 0 0 1 0 2H4a1 1 0 1 1 0-2z"/></svg>