<?xml version="1.0" standalone="no"?><!DOCTYPE svg PUBLIC "-//W3C//DTD SVG 1.1//EN" "http://www.w3.org/Graphics/SVG/1.1/DTD/svg11.dtd"><svg width="16" height="16" viewBox="0 0 16 16" class="pivot" style="height:16px;margin-right:8px;width:16px;perspective-origin:8px 8px;transform-origin:8px 8px;shape-rendering:geometricprecision;" version="1.1" xmlns="http://www.w3.org/2000/svg" xmlns:xlink="http://www.w3.org/1999/xlink"><path fill-rule="evenodd" class="" fill="currentColor" d="M12.733 8.025h.774c.55 0 .743-.361.426-.812l-1.32-1.876c-.314-.448-.824-.45-1.141 0L10.15 7.213c-.316.449-.117.812.425.812h.654c-.15 1.886-1.158 2.772-3.23 2.777V10c0-.552-.361-.742-.812-.42l-1.876 1.34c-.449.32-.45.838 0 1.16l1.876 1.34c.449.32.812.136.812-.42v-.702c2.896-.024 4.552-1.493 4.733-4.273zM2 4h1a1 1 0 0 1 1 1v9a1 1 0 0 1-1 1H2a1 1 0 0 1-1-1V5a1 1 0 0 1 1-1zm3-3h9a1 1 0 0 1 1 1v1a1 1 0 0 1-1 1H5a1 1 0 0 1-1-1V2a1 1 0 0 1 1-1z" style="display:inline;height:auto;min-height:0px;min-width:0px;overflow-x:visible;overflow-y:visible;width:auto;perspective-origin:0px 0px;transform-origin:0px 0px;fill:rgb(51, 51, 51);fill-rule:evenodd;shape-rendering:geometricprecision;d:path(&quot;M 12.733 8.025 H 13.507 C 14.057 8.025 14.25 7.664 13.933 7.213 L 12.613 5.337 C 12.299 4.889 11.789 4.887 11.472 5.337 L 10.15 7.213 C 9.834 7.662 10.033 8.025 10.575 8.025 H 11.229 C 11.079 9.911 10.071 10.797 7.999 10.802 V 10 C 7.999 9.448 7.638 9.258 7.187 9.58 L 5.311 10.92 C 4.862 11.24 4.861 11.758 5.311 12.08 L 7.187 13.42 C 7.636 13.74 7.999 13.556 7.999 13 V 12.298 C 10.895 12.274 12.551 10.805 12.732 8.025 Z M 2 4 H 3 A 1 1 0 0 1 4 5 V 14 A 1 1 0 0 1 3 15 H 2 A 1 1 0 0 1 1 14 V 5 A 1 1 0 0 1 2 4 Z M 5 1 H 14 A 1 1 0 0 1 15 2 V 3 A 1 1 0 0 1 14 4 H 5 A 1 1 0 0 1 4 3 V 2 A 1 1 0 0 1 5 1 Z&quot;);"/></svg>