<?xml version="1.0" standalone="no"?><!DOCTYPE svg PUBLIC "-//W3C//DTD SVG 1.1//EN" "http://www.w3.org/Graphics/SVG/1.1/DTD/svg11.dtd"><svg width="12" height="12" viewBox="0 0 12 12" class="plusFilledMicro" style="height:12px;margin-right:16px;width:12px;perspective-origin:6px 6px;transform-origin:6px 6px;shape-rendering:geometricprecision;" version="1.1" xmlns="http://www.w3.org/2000/svg" xmlns:xlink="http://www.w3.org/1999/xlink"><path fill-rule="evenodd" class="" fill="currentColor" d="M0,2.0085302 C0,0.899249601 0.901950359,0 2.0085302,0 L9.9914698,0 C11.1007504,0 12,0.901950359 12,2.0085302 L12,9.9914698 C12,11.1007504 11.0980496,12 9.9914698,12 L2.0085302,12 C0.899249601,12 0,11.0980496 0,9.9914698 L0,2.0085302 Z M9.5,5 L7,5 L7,2.5 C7,2.224 6.776,2 6.5,2 L5.5,2 C5.224,2 5,2.224 5,2.5 L5,5 L2.5,5 C2.224,5 2,5.224 2,5.5 L2,6.5 C2,6.776 2.224,7 2.5,7 L5,7 L5,9.5 C5,9.776 5.224,10 5.5,10 L6.5,10 C6.776,10 7,9.776 7,9.5 L7,7 L9.5,7 C9.776,7 10,6.776 10,6.5 L10,5.5 C10,5.224 9.776,5 9.5,5 Z" style="display:inline;height:auto;min-height:0px;min-width:0px;overflow-x:visible;overflow-y:visible;width:auto;perspective-origin:0px 0px;transform-origin:0px 0px;fill:rgb(51, 51, 51);fill-rule:evenodd;shape-rendering:geometricprecision;d:path(&quot;M 0 2.00853 C 0 0.89925 0.90195 0 2.00853 0 L 9.99147 0 C 11.1007 0 12 0.90195 12 2.00853 L 12 9.99147 C 12 11.1007 11.098 12 9.99147 12 L 2.00853 12 C 0.89925 12 0 11.098 0 9.99147 L 0 2.00853 Z M 9.5 5 L 7 5 L 7 2.5 C 7 2.224 6.776 2 6.5 2 L 5.5 2 C 5.224 2 5 2.224 5 2.5 L 5 5 L 2.5 5 C 2.224 5 2 5.224 2 5.5 L 2 6.5 C 2 6.776 2.224 7 2.5 7 L 5 7 L 5 9.5 C 5 9.776 5.224 10 5.5 10 L 6.5 10 C 6.776 10 7 9.776 7 9.5 L 7 7 L 9.5 7 C 9.776 7 10 6.776 10 6.5 L 10 5.5 C 10 5.224 9.776 5 9.5 5 Z&quot;);"/></svg>