<?xml version="1.0" standalone="no"?><!DOCTYPE svg PUBLIC "-//W3C//DTD SVG 1.1//EN" "http://www.w3.org/Graphics/SVG/1.1/DTD/svg11.dtd"><svg width="16" height="16" viewBox="0 0 16 16" class="plus" style="height:16px;margin-right:8px;width:16px;perspective-origin:8px 8px;transform-origin:8px 8px;shape-rendering:geometricprecision;" version="1.1" xmlns="http://www.w3.org/2000/svg" xmlns:xlink="http://www.w3.org/1999/xlink"><path fill-rule="evenodd" class="" fill="currentColor" d="M9,7 L9,3.5 C9,3.224 8.776,3 8.5,3 L7.5,3 C7.224,3 7,3.224 7,3.5 L7,7 L3.5,7 C3.224,7 3,7.224 3,7.5 L3,8.5 C3,8.776 3.224,9 3.5,9 L7,9 L7,12.5 C7,12.776 7.224,13 7.5,13 L8.5,13 C8.776,13 9,12.776 9,12.5 L9,9 L12.5,9 C12.776,9 13,8.776 13,8.5 L13,7.5 C13,7.224 12.776,7 12.5,7 L9,7 Z" style="display:inline;height:auto;min-height:0px;min-width:0px;overflow-x:visible;overflow-y:visible;width:auto;perspective-origin:0px 0px;transform-origin:0px 0px;fill:rgb(51, 51, 51);fill-rule:evenodd;shape-rendering:geometricprecision;d:path(&quot;M 9 7 L 9 3.5 C 9 3.224 8.776 3 8.5 3 L 7.5 3 C 7.224 3 7 3.224 7 3.5 L 7 7 L 3.5 7 C 3.224 7 3 7.224 3 7.5 L 3 8.5 C 3 8.776 3.224 9 3.5 9 L 7 9 L 7 12.5 C 7 12.776 7.224 13 7.5 13 L 8.5 13 C 8.776 13 9 12.776 9 12.5 L 9 9 L 12.5 9 C 12.776 9 13 8.776 13 8.5 L 13 7.5 C 13 7.224 12.776 7 12.5 7 L 9 7 Z&quot;);"/></svg>