<?xml version="1.0" standalone="no"?><!DOCTYPE svg PUBLIC "-//W3C//DTD SVG 1.1//EN" "http://www.w3.org/Graphics/SVG/1.1/DTD/svg11.dtd"><svg width="12" height="12" viewBox="0 0 12 12" class="plusMicro" style="height:12px;margin-right:16px;width:12px;perspective-origin:6px 6px;transform-origin:6px 6px;shape-rendering:geometricprecision;" version="1.1" xmlns="http://www.w3.org/2000/svg" xmlns:xlink="http://www.w3.org/1999/xlink"><path fill-rule="evenodd" class="" fill="currentColor" d="M9.5,5 L7,5 L7,2.5 C7,2.224 6.776,2 6.5,2 L5.5,2 C5.224,2 5,2.224 5,2.5 L5,5 L2.5,5 C2.224,5 2,5.224 2,5.5 L2,6.5 C2,6.776 2.224,7 2.5,7 L5,7 L5,9.5 C5,9.776 5.224,10 5.5,10 L6.5,10 C6.776,10 7,9.776 7,9.5 L7,7 L9.5,7 C9.776,7 10,6.776 10,6.5 L10,5.5 C10,5.224 9.776,5 9.5,5" style="display:inline;height:auto;min-height:0px;min-width:0px;overflow-x:visible;overflow-y:visible;width:auto;perspective-origin:0px 0px;transform-origin:0px 0px;fill:rgb(51, 51, 51);fill-rule:evenodd;shape-rendering:geometricprecision;d:path(&quot;M 9.5 5 L 7 5 L 7 2.5 C 7 2.224 6.776 2 6.5 2 L 5.5 2 C 5.224 2 5 2.224 5 2.5 L 5 5 L 2.5 5 C 2.224 5 2 5.224 2 5.5 L 2 6.5 C 2 6.776 2.224 7 2.5 7 L 5 7 L 5 9.5 C 5 9.776 5.224 10 5.5 10 L 6.5 10 C 6.776 10 7 9.776 7 9.5 L 7 7 L 9.5 7 C 9.776 7 10 6.776 10 6.5 L 10 5.5 C 10 5.224 9.776 5 9.5 5&quot;);"/></svg>