<?xml version="1.0" standalone="no"?><!DOCTYPE svg PUBLIC "-//W3C//DTD SVG 1.1//EN" "http://www.w3.org/Graphics/SVG/1.1/DTD/svg11.dtd"><svg width="12" height="12" viewBox="0 0 12 12" version="1.1" xmlns="http://www.w3.org/2000/svg" xmlns:xlink="http://www.w3.org/1999/xlink"><path fill-rule="evenodd" fill="currentColor" d="M4.194 7.86L1.85 7.066a.527.527 0 0 1 0-1l2.344-.793a.527.527 0 0 0 .33-.33l.794-2.345a.527.527 0 0 1 1 0l.793 2.345a.527.527 0 0 0 .33.33l2.345.794a.527.527 0 0 1 0 .999l-2.344.794a.527.527 0 0 0-.33.33l-.795 2.344a.527.527 0 0 1-.999 0L4.525 8.19a.527.527 0 0 0-.33-.33zm4.742-4.831L7.94 2.69a.252.252 0 0 1 0-.476l.996-.338a.252.252 0 0 0 .157-.157l.338-.996a.252.252 0 0 1 .476 0l.338.996a.252.252 0 0 0 .157.157l.996.338a.252.252 0 0 1 0 .476l-.996.338a.252.252 0 0 0-.157.157l-.338.996a.252.252 0 0 1-.476 0l-.338-.996a.252.252 0 0 0-.157-.157zm-7.532 7.39l-.523-.177a.231.231 0 0 1 0-.438l.523-.177a.264.264 0 0 0 .165-.165l.177-.523a.231.231 0 0 1 .438 0l.177.523a.264.264 0 0 0 .165.165l.523.177a.231.231 0 0 1 0 .438l-.523.177a.264.264 0 0 0-.165.165l-.177.523a.231.231 0 0 1-.438 0l-.177-.523a.264.264 0 0 0-.165-.165z"/></svg>