<?xml version="1.0" standalone="no"?><!DOCTYPE svg PUBLIC "-//W3C//DTD SVG 1.1//EN" "http://www.w3.org/Graphics/SVG/1.1/DTD/svg11.dtd"><svg width="12" height="12" viewBox="0 0 12 12" class="premiumMicro" style="height:12px;margin-right:16px;width:12px;perspective-origin:6px 6px;transform-origin:6px 6px;shape-rendering:geometricprecision;" version="1.1" xmlns="http://www.w3.org/2000/svg" xmlns:xlink="http://www.w3.org/1999/xlink"><path fill-rule="evenodd" class="" fill="currentColor" d="M4.194 7.86L1.85 7.066a.527.527 0 0 1 0-1l2.344-.793a.527.527 0 0 0 .33-.33l.794-2.345a.527.527 0 0 1 1 0l.793 2.345a.527.527 0 0 0 .33.33l2.345.794a.527.527 0 0 1 0 .999l-2.344.794a.527.527 0 0 0-.33.33l-.795 2.344a.527.527 0 0 1-.999 0L4.525 8.19a.527.527 0 0 0-.33-.33zm4.742-4.831L7.94 2.69a.252.252 0 0 1 0-.476l.996-.338a.252.252 0 0 0 .157-.157l.338-.996a.252.252 0 0 1 .476 0l.338.996a.252.252 0 0 0 .157.157l.996.338a.252.252 0 0 1 0 .476l-.996.338a.252.252 0 0 0-.157.157l-.338.996a.252.252 0 0 1-.476 0l-.338-.996a.252.252 0 0 0-.157-.157zm-7.532 7.39l-.523-.177a.231.231 0 0 1 0-.438l.523-.177a.264.264 0 0 0 .165-.165l.177-.523a.231.231 0 0 1 .438 0l.177.523a.264.264 0 0 0 .165.165l.523.177a.231.231 0 0 1 0 .438l-.523.177a.264.264 0 0 0-.165.165l-.177.523a.231.231 0 0 1-.438 0l-.177-.523a.264.264 0 0 0-.165-.165z" style="display:inline;height:auto;min-height:0px;min-width:0px;overflow-x:visible;overflow-y:visible;width:auto;perspective-origin:0px 0px;transform-origin:0px 0px;fill:rgb(51, 51, 51);fill-rule:evenodd;shape-rendering:geometricprecision;d:path(&quot;M 4.194 7.86 L 1.85 7.066 A 0.527 0.527 0 0 1 1.85 6.066 L 4.194 5.273 A 0.527 0.527 0 0 0 4.524 4.943 L 5.318 2.598 A 0.527 0.527 0 0 1 6.318 2.598 L 7.111 4.943 A 0.527 0.527 0 0 0 7.441 5.273 L 9.786 6.067 A 0.527 0.527 0 0 1 9.786 7.066 L 7.442 7.86 A 0.527 0.527 0 0 0 7.112 8.19 L 6.317 10.534 A 0.527 0.527 0 0 1 5.318 10.534 L 4.525 8.19 A 0.527 0.527 0 0 0 4.195 7.86 Z M 8.936 3.029 L 7.94 2.69 A 0.252 0.252 0 0 1 7.94 2.214 L 8.936 1.876 A 0.252 0.252 0 0 0 9.093 1.719 L 9.431 0.723 A 0.252 0.252 0 0 1 9.907 0.723 L 10.245 1.719 A 0.252 0.252 0 0 0 10.402 1.876 L 11.398 2.214 A 0.252 0.252 0 0 1 11.398 2.69 L 10.402 3.028 A 0.252 0.252 0 0 0 10.245 3.185 L 9.907 4.181 A 0.252 0.252 0 0 1 9.431 4.181 L 9.093 3.185 A 0.252 0.252 0 0 0 8.936 3.028 Z M 1.404 10.419 L 0.881 10.242 A 0.231 0.231 0 0 1 0.881 9.804 L 1.404 9.627 A 0.264 0.264 0 0 0 1.569 9.462 L 1.746 8.939 A 0.231 0.231 0 0 1 2.184 8.939 L 2.361 9.462 A 0.264 0.264 0 0 0 2.526 9.627 L 3.049 9.804 A 0.231 0.231 0 0 1 3.049 10.242 L 2.526 10.419 A 0.264 0.264 0 0 0 2.361 10.584 L 2.184 11.107 A 0.231 0.231 0 0 1 1.746 11.107 L 1.569 10.584 A 0.264 0.264 0 0 0 1.404 10.419 Z&quot;);"/></svg>