<?xml version="1.0" standalone="no"?><!DOCTYPE svg PUBLIC "-//W3C//DTD SVG 1.1//EN" "http://www.w3.org/Graphics/SVG/1.1/DTD/svg11.dtd"><svg width="16" height="16" viewBox="0 0 16 16" class="premium" style="height:16px;margin-right:8px;width:16px;perspective-origin:8px 8px;transform-origin:8px 8px;shape-rendering:geometricprecision;" version="1.1" xmlns="http://www.w3.org/2000/svg" xmlns:xlink="http://www.w3.org/1999/xlink"><path fill-rule="evenodd" class="" fill="currentColor" d="M5.267 10.613L2.184 9.568a.694.694 0 0 1 0-1.314L5.267 7.21a.694.694 0 0 0 .435-.435l1.044-3.084a.694.694 0 0 1 1.315 0l1.044 3.084c.07.205.23.366.435.435l3.083 1.044a.694.694 0 0 1 0 1.314L9.54 10.613a.694.694 0 0 0-.435.434l-1.044 3.084a.694.694 0 0 1-1.315 0l-1.044-3.084a.694.694 0 0 0-.435-.434zm6.238-6.356l-1.31-.443a.331.331 0 0 1 0-.628l1.31-.443a.331.331 0 0 0 .208-.208l.443-1.31a.331.331 0 0 1 .628 0l.443 1.31c.033.098.11.175.208.208l1.31.443a.331.331 0 0 1 0 .628l-1.31.443a.331.331 0 0 0-.208.208l-.443 1.31a.331.331 0 0 1-.628 0l-.443-1.31a.331.331 0 0 0-.208-.208zM1.596 13.98l-.688-.233a.304.304 0 0 1 0-.576l.688-.233a.347.347 0 0 0 .217-.217l.233-.688a.304.304 0 0 1 .576 0l.233.688a.347.347 0 0 0 .218.217l.688.233a.304.304 0 0 1 0 .576l-.688.233a.347.347 0 0 0-.218.217l-.233.688a.304.304 0 0 1-.576 0l-.233-.688a.347.347 0 0 0-.217-.217z" style="display:inline;height:auto;min-height:0px;min-width:0px;overflow-x:visible;overflow-y:visible;width:auto;perspective-origin:0px 0px;transform-origin:0px 0px;fill:rgb(51, 51, 51);fill-rule:evenodd;shape-rendering:geometricprecision;d:path(&quot;M 5.267 10.613 L 2.184 9.568 A 0.694 0.694 0 0 1 2.184 8.254 L 5.267 7.21 A 0.694 0.694 0 0 0 5.702 6.775 L 6.746 3.691 A 0.694 0.694 0 0 1 8.061 3.691 L 9.105 6.775 C 9.175 6.98 9.335 7.141 9.54 7.21 L 12.623 8.254 A 0.694 0.694 0 0 1 12.623 9.568 L 9.54 10.613 A 0.694 0.694 0 0 0 9.105 11.047 L 8.061 14.131 A 0.694 0.694 0 0 1 6.746 14.131 L 5.702 11.047 A 0.694 0.694 0 0 0 5.267 10.613 Z M 11.505 4.257 L 10.195 3.814 A 0.331 0.331 0 0 1 10.195 3.186 L 11.505 2.743 A 0.331 0.331 0 0 0 11.713 2.535 L 12.156 1.225 A 0.331 0.331 0 0 1 12.784 1.225 L 13.227 2.535 C 13.26 2.633 13.337 2.71 13.435 2.743 L 14.745 3.186 A 0.331 0.331 0 0 1 14.745 3.814 L 13.435 4.257 A 0.331 0.331 0 0 0 13.227 4.465 L 12.784 5.775 A 0.331 0.331 0 0 1 12.156 5.775 L 11.713 4.465 A 0.331 0.331 0 0 0 11.505 4.257 Z M 1.596 13.98 L 0.908 13.747 A 0.304 0.304 0 0 1 0.908 13.171 L 1.596 12.938 A 0.347 0.347 0 0 0 1.813 12.721 L 2.046 12.033 A 0.304 0.304 0 0 1 2.622 12.033 L 2.855 12.721 A 0.347 0.347 0 0 0 3.073 12.938 L 3.761 13.171 A 0.304 0.304 0 0 1 3.761 13.747 L 3.073 13.98 A 0.347 0.347 0 0 0 2.855 14.197 L 2.622 14.885 A 0.304 0.304 0 0 1 2.046 14.885 L 1.813 14.197 A 0.347 0.347 0 0 0 1.596 13.98 Z&quot;);"/></svg>