<?xml version="1.0" standalone="no"?><!DOCTYPE svg PUBLIC "-//W3C//DTD SVG 1.1//EN" "http://www.w3.org/Graphics/SVG/1.1/DTD/svg11.dtd"><svg width="16" height="16" viewBox="0 0 16 16" version="1.1" xmlns="http://www.w3.org/2000/svg" xmlns:xlink="http://www.w3.org/1999/xlink"><path fill-rule="evenodd" fill="currentColor" d="M5.267 10.613L2.184 9.568a.694.694 0 0 1 0-1.314L5.267 7.21a.694.694 0 0 0 .435-.435l1.044-3.084a.694.694 0 0 1 1.315 0l1.044 3.084c.07.205.23.366.435.435l3.083 1.044a.694.694 0 0 1 0 1.314L9.54 10.613a.694.694 0 0 0-.435.434l-1.044 3.084a.694.694 0 0 1-1.315 0l-1.044-3.084a.694.694 0 0 0-.435-.434zm6.238-6.356l-1.31-.443a.331.331 0 0 1 0-.628l1.31-.443a.331.331 0 0 0 .208-.208l.443-1.31a.331.331 0 0 1 .628 0l.443 1.31c.033.098.11.175.208.208l1.31.443a.331.331 0 0 1 0 .628l-1.31.443a.331.331 0 0 0-.208.208l-.443 1.31a.331.331 0 0 1-.628 0l-.443-1.31a.331.331 0 0 0-.208-.208zM1.596 13.98l-.688-.233a.304.304 0 0 1 0-.576l.688-.233a.347.347 0 0 0 .217-.217l.233-.688a.304.304 0 0 1 .576 0l.233.688a.347.347 0 0 0 .218.217l.688.233a.304.304 0 0 1 0 .576l-.688.233a.347.347 0 0 0-.218.217l-.233.688a.304.304 0 0 1-.576 0l-.233-.688a.347.347 0 0 0-.217-.217z"/></svg>