<?xml version="1.0" standalone="no"?><!DOCTYPE svg PUBLIC "-//W3C//DTD SVG 1.1//EN" "http://www.w3.org/Graphics/SVG/1.1/DTD/svg11.dtd"><svg width="12" height="12" viewBox="0 0 12 12" version="1.1" xmlns="http://www.w3.org/2000/svg" xmlns:xlink="http://www.w3.org/1999/xlink"><path fill-rule="evenodd" fill="currentColor" d="M9 3h.503A1.5 1.5 0 0 1 11 4.507v2.837c0 .656-.418 1.215-1 1.421v1.17c0 .547-.453.99-.997.99H2.997c-.55 0-.997-.457-.997-.99v-1.17c-.582-.205-1-.762-1-1.421V4.507C1 3.675 1.672 3 2.497 3H3v-.998A.995.995 0 0 1 3.99 1h4.02c.539 0 .99.449.99 1.002V3zM3 7v2.744c0 .142.115.256.258.256h5.484A.25.25 0 0 0 9 9.744V7H3zm1-4.748V3h4v-.748A.248.248 0 0 0 7.75 2h-3.5a.253.253 0 0 0-.25.252z"/></svg>