<?xml version="1.0" standalone="no"?><!DOCTYPE svg PUBLIC "-//W3C//DTD SVG 1.1//EN" "http://www.w3.org/Graphics/SVG/1.1/DTD/svg11.dtd"><svg width="12" height="12" viewBox="0 0 12 12" class="printMicro" style="height:12px;margin-right:16px;width:12px;perspective-origin:6px 6px;transform-origin:6px 6px;shape-rendering:geometricprecision;" version="1.1" xmlns="http://www.w3.org/2000/svg" xmlns:xlink="http://www.w3.org/1999/xlink"><path fill-rule="evenodd" class="" fill="currentColor" d="M9 3h.503A1.5 1.5 0 0 1 11 4.507v2.837c0 .656-.418 1.215-1 1.421v1.17c0 .547-.453.99-.997.99H2.997c-.55 0-.997-.457-.997-.99v-1.17c-.582-.205-1-.762-1-1.421V4.507C1 3.675 1.672 3 2.497 3H3v-.998A.995.995 0 0 1 3.99 1h4.02c.539 0 .99.449.99 1.002V3zM3 7v2.744c0 .142.115.256.258.256h5.484A.25.25 0 0 0 9 9.744V7H3zm1-4.748V3h4v-.748A.248.248 0 0 0 7.75 2h-3.5a.253.253 0 0 0-.25.252z" style="display:inline;height:auto;min-height:0px;min-width:0px;overflow-x:visible;overflow-y:visible;width:auto;perspective-origin:0px 0px;transform-origin:0px 0px;fill:rgb(51, 51, 51);fill-rule:evenodd;shape-rendering:geometricprecision;d:path(&quot;M 9 3 H 9.503 A 1.5 1.5 0 0 1 11 4.507 V 7.344 C 11 8 10.582 8.559 10 8.765 V 9.935 C 10 10.482 9.547 10.925 9.003 10.925 H 2.997 C 2.447 10.925 2 10.468 2 9.935 V 8.765 C 1.418 8.56 1 8.003 1 7.344 V 4.507 C 1 3.675 1.672 3 2.497 3 H 3 V 2.002 A 0.995 0.995 0 0 1 3.99 1 H 8.01 C 8.549 1 9 1.449 9 2.002 V 3 Z M 3 7 V 9.744 C 3 9.886 3.115 10 3.258 10 H 8.742 A 0.25 0.25 0 0 0 9 9.744 V 7 H 3 Z M 4 2.252 V 3 H 8 V 2.252 A 0.248 0.248 0 0 0 7.75 2 H 4.25 A 0.253 0.253 0 0 0 4 2.252 Z&quot;);"/></svg>