<?xml version="1.0" standalone="no"?><!DOCTYPE svg PUBLIC "-//W3C//DTD SVG 1.1//EN" "http://www.w3.org/Graphics/SVG/1.1/DTD/svg11.dtd"><svg width="16" height="16" viewBox="0 0 16 16" version="1.1" xmlns="http://www.w3.org/2000/svg" xmlns:xlink="http://www.w3.org/1999/xlink"><path fill-rule="evenodd" fill="currentColor" d="M12 3h.994C14.102 3 15 3.887 15 4.998v4.004A2.001 2.001 0 0 1 13 11v1.99c0 .558-.456 1.01-.995 1.01h-8.01A.997.997 0 0 1 3 12.99V11a1.997 1.997 0 0 1-2-1.998V4.998C1 3.895 1.897 3 3.006 3H4V1.999C4 1.447 4.453 1 4.997 1h6.006c.55 0 .997.443.997.999V3zm1.5 2a.5.5 0 1 0 0-1 .5.5 0 0 0 0 1zM4 9v3.75c0 .135.111.25.248.25h7.504a.25.25 0 0 0 .248-.25V9H4zm1-6.5V3h6v-.5a.5.5 0 0 0-.491-.5H5.491A.5.5 0 0 0 5 2.5z"/></svg>