<?xml version="1.0" standalone="no"?><!DOCTYPE svg PUBLIC "-//W3C//DTD SVG 1.1//EN" "http://www.w3.org/Graphics/SVG/1.1/DTD/svg11.dtd"><svg width="16" height="16" viewBox="0 0 16 16" class="print" style="height:16px;margin-right:8px;width:16px;perspective-origin:8px 8px;transform-origin:8px 8px;shape-rendering:geometricprecision;" version="1.1" xmlns="http://www.w3.org/2000/svg" xmlns:xlink="http://www.w3.org/1999/xlink"><path fill-rule="evenodd" class="" fill="currentColor" d="M12 3h.994C14.102 3 15 3.887 15 4.998v4.004A2.001 2.001 0 0 1 13 11v1.99c0 .558-.456 1.01-.995 1.01h-8.01A.997.997 0 0 1 3 12.99V11a1.997 1.997 0 0 1-2-1.998V4.998C1 3.895 1.897 3 3.006 3H4V1.999C4 1.447 4.453 1 4.997 1h6.006c.55 0 .997.443.997.999V3zm1.5 2a.5.5 0 1 0 0-1 .5.5 0 0 0 0 1zM4 9v3.75c0 .135.111.25.248.25h7.504a.25.25 0 0 0 .248-.25V9H4zm1-6.5V3h6v-.5a.5.5 0 0 0-.491-.5H5.491A.5.5 0 0 0 5 2.5z" style="display:inline;height:auto;min-height:0px;min-width:0px;overflow-x:visible;overflow-y:visible;width:auto;perspective-origin:0px 0px;transform-origin:0px 0px;fill:rgb(51, 51, 51);fill-rule:evenodd;shape-rendering:geometricprecision;d:path(&quot;M 12 3 H 12.994 C 14.102 3 15 3.887 15 4.998 V 9.002 A 2.001 2.001 0 0 1 13 11 V 12.99 C 13 13.548 12.544 14 12.005 14 H 3.995 A 0.997 0.997 0 0 1 3 12.99 V 11 A 1.997 1.997 0 0 1 1 9.002 V 4.998 C 1 3.895 1.897 3 3.006 3 H 4 V 1.999 C 4 1.447 4.453 1 4.997 1 H 11.003 C 11.553 1 12 1.443 12 1.999 V 3 Z M 13.5 5 A 0.5 0.5 0 1 0 13.5 4 A 0.5 0.5 0 0 0 13.5 5 Z M 4 9 V 12.75 C 4 12.885 4.111 13 4.248 13 H 11.752 A 0.25 0.25 0 0 0 12 12.75 V 9 H 4 Z M 5 2.5 V 3 H 11 V 2.5 A 0.5 0.5 0 0 0 10.509 2 H 5.491 A 0.5 0.5 0 0 0 5 2.5 Z&quot;);"/></svg>