<?xml version="1.0" standalone="no"?><!DOCTYPE svg PUBLIC "-//W3C//DTD SVG 1.1//EN" "http://www.w3.org/Graphics/SVG/1.1/DTD/svg11.dtd"><svg width="16" height="16" viewBox="0 0 16 16" version="1.1" xmlns="http://www.w3.org/2000/svg" xmlns:xlink="http://www.w3.org/1999/xlink"><path fill-rule="evenodd" fill="currentColor" d="M13.247821,5.44977976 C12.7426214,4.41211719 11.9387201,3.54667161 10.9479822,2.96530808 C10.3860121,3.75235015 9.22411045,4.96474441 8.88167208,4.96474441 C8.4662182,4.96474441 8.38231844,2.91732874 8.36556502,2.1779353 C8.24466981,2.17045981 8.12277787,2.16666667 8,2.16666667 C7.4591885,2.16666667 6.93556613,2.24026209 6.43860166,2.37798418 C6.92001316,2.34175935 7.24171387,2.35647955 7.24171387,2.35647955 C7.24171387,2.35647955 7.69053933,3.35752033 7.69053933,3.81179209 C7.69053933,4.26606386 7.39520079,4.59858133 7.39520079,4.80619377 C7.39520079,5.01380621 8.37467013,5.3430604 8.37467013,5.93686573 C8.37467013,6.53067105 5.96183103,7.2072963 6.09316137,7.76666834 C6.22449171,8.32604039 6.77741595,8.7189849 6.29318948,8.7189849 C5.80896301,8.7189849 5.67268148,7.61160605 4.93780097,7.61160605 C4.20292046,7.61160605 3.41431953,7.94542922 3.55381934,8.23012269 C3.69331914,8.51481617 4.41297474,9.26474117 4.78666587,9.26474117 C5.160357,9.26474117 5.16840269,10.1197218 5.45569554,10.3088798 C5.74298839,10.4980378 6.23036713,10.5719085 6.23036713,10.5719085 C6.36719531,10.5988511 6.493059,10.5006224 6.52403053,10.3775508 C6.52403053,10.3775508 6.49953036,9.85224498 7.24171387,9.85224498 C7.98389739,9.85224498 8.26760063,10.6570386 8.6416631,10.8465341 C9.01572557,11.0360297 9.97439991,11.4959278 10.108701,11.8428488 C10.243002,12.1897697 10.0468111,12.7958405 9.72535501,12.9972639 C9.54014199,13.1133179 9.29415501,13.4562703 9.1189115,13.7261309 C10.4361584,13.4702308 11.5951207,12.7711054 12.4343104,11.7902426 C11.8949133,11.7482056 11.116133,11.6124134 10.7767654,11.1737628 C10.2852359,10.538435 10.870813,9.82883935 11.1241902,9.33855892 C11.3775674,8.8482785 11.9191039,8.02401774 11.9191039,7.86242888 C11.9191039,7.70084001 11.7284831,7.68452359 11.3910594,7.4376392 C11.0536357,7.19075482 11.3206537,6.60313848 11.6057185,6.60313848 C11.8907833,6.60313848 12.4745037,7.18265287 12.715503,7.18265287 C12.9565022,7.18265287 12.2619739,6.63655902 12.2619739,6.0702103 C12.2619739,5.65399671 12.90624,5.50142306 13.247821,5.44977976 Z M2.28343946,6.83291472 C2.20686505,7.21000608 2.16666667,7.60030862 2.16666667,8 C2.16666667,10.7636169 4.08849538,13.0783667 6.6686116,13.6807081 C6.7425399,13.3747016 6.89013873,12.6735499 6.77741595,12.3564223 C6.63098448,11.9444607 5.67268148,11.8263073 5.67268148,11.3293878 C5.67268148,10.8324682 6.22585328,10.7253425 6.22585328,10.7253425 C6.22585328,10.7253425 3.00507075,10.4877057 2.28343946,6.83291472 Z M8,15 C4.13400675,15 1,11.8659932 1,8 C1,4.13400675 4.13400675,1 8,1 C11.8659932,1 15,4.13400675 15,8 C15,11.8659932 11.8659932,15 8,15 Z"/></svg>