<?xml version="1.0" standalone="no"?><!DOCTYPE svg PUBLIC "-//W3C//DTD SVG 1.1//EN" "http://www.w3.org/Graphics/SVG/1.1/DTD/svg11.dtd"><svg width="16" height="16" viewBox="0 0 16 16" version="1.1" xmlns="http://www.w3.org/2000/svg" xmlns:xlink="http://www.w3.org/1999/xlink"><path fill-rule="evenodd" fill="currentColor" d="M10.4,2.8667 C10.647,3.1967 10.412,3.6667 10,3.6667 L9,3.6667 L9,10.1667 C9,10.4417 8.775,10.6667 8.5,10.6667 L7.5,10.6667 C7.225,10.6667 7,10.4417 7,10.1667 L7,3.6667 L6,3.6667 C5.588,3.6667 5.353,3.1967 5.6,2.8667 L7.6,0.1997 C7.8,-0.0663 8.2,-0.0663 8.4,0.1997 L10.4,2.8667 Z M7.9189,15.6667 C7.7249,15.6667 7.5309,15.6097 7.3639,15.4987 L0.4449,11.4987 C0.1669,11.3127 -0.0001,11.0007 -0.0001,10.6667 L-0.0001,5.6667 C-0.0001,5.3087 0.1919,4.9767 0.5039,4.7987 L2.4969,3.6597 C2.9769,3.3847 3.5879,3.5527 3.8609,4.0317 C4.1349,4.5117 3.9679,5.1217 3.4889,5.3957 L1.9999,6.2467 L1.9999,10.1317 L7.9619,13.4937 L13.9999,10.0827 L13.9999,6.2467 L12.4229,5.3457 C11.9429,5.0707 11.7769,4.4607 12.0509,3.9807 C12.3249,3.5017 12.9369,3.3337 13.4149,3.6087 L15.4959,4.7987 C15.8079,4.9767 15.9999,5.3087 15.9999,5.6667 L15.9999,10.6667 C15.9999,11.0267 15.8059,11.3597 15.4919,11.5377 L8.4109,15.5377 C8.2579,15.6237 8.0879,15.6667 7.9189,15.6667 Z"/></svg>