<?xml version="1.0" standalone="no"?><!DOCTYPE svg PUBLIC "-//W3C//DTD SVG 1.1//EN" "http://www.w3.org/Graphics/SVG/1.1/DTD/svg11.dtd"><svg width="16" height="16" viewBox="0 0 16 16" class="public" style="height:16px;margin-right:8px;width:16px;perspective-origin:8px 8px;transform-origin:8px 8px;shape-rendering:geometricprecision;" version="1.1" xmlns="http://www.w3.org/2000/svg" xmlns:xlink="http://www.w3.org/1999/xlink"><path fill-rule="evenodd" class="" fill="currentColor" d="M13.247821,5.44977976 C12.7426214,4.41211719 11.9387201,3.54667161 10.9479822,2.96530808 C10.3860121,3.75235015 9.22411045,4.96474441 8.88167208,4.96474441 C8.4662182,4.96474441 8.38231844,2.91732874 8.36556502,2.1779353 C8.24466981,2.17045981 8.12277787,2.16666667 8,2.16666667 C7.4591885,2.16666667 6.93556613,2.24026209 6.43860166,2.37798418 C6.92001316,2.34175935 7.24171387,2.35647955 7.24171387,2.35647955 C7.24171387,2.35647955 7.69053933,3.35752033 7.69053933,3.81179209 C7.69053933,4.26606386 7.39520079,4.59858133 7.39520079,4.80619377 C7.39520079,5.01380621 8.37467013,5.3430604 8.37467013,5.93686573 C8.37467013,6.53067105 5.96183103,7.2072963 6.09316137,7.76666834 C6.22449171,8.32604039 6.77741595,8.7189849 6.29318948,8.7189849 C5.80896301,8.7189849 5.67268148,7.61160605 4.93780097,7.61160605 C4.20292046,7.61160605 3.41431953,7.94542922 3.55381934,8.23012269 C3.69331914,8.51481617 4.41297474,9.26474117 4.78666587,9.26474117 C5.160357,9.26474117 5.16840269,10.1197218 5.45569554,10.3088798 C5.74298839,10.4980378 6.23036713,10.5719085 6.23036713,10.5719085 C6.36719531,10.5988511 6.493059,10.5006224 6.52403053,10.3775508 C6.52403053,10.3775508 6.49953036,9.85224498 7.24171387,9.85224498 C7.98389739,9.85224498 8.26760063,10.6570386 8.6416631,10.8465341 C9.01572557,11.0360297 9.97439991,11.4959278 10.108701,11.8428488 C10.243002,12.1897697 10.0468111,12.7958405 9.72535501,12.9972639 C9.54014199,13.1133179 9.29415501,13.4562703 9.1189115,13.7261309 C10.4361584,13.4702308 11.5951207,12.7711054 12.4343104,11.7902426 C11.8949133,11.7482056 11.116133,11.6124134 10.7767654,11.1737628 C10.2852359,10.538435 10.870813,9.82883935 11.1241902,9.33855892 C11.3775674,8.8482785 11.9191039,8.02401774 11.9191039,7.86242888 C11.9191039,7.70084001 11.7284831,7.68452359 11.3910594,7.4376392 C11.0536357,7.19075482 11.3206537,6.60313848 11.6057185,6.60313848 C11.8907833,6.60313848 12.4745037,7.18265287 12.715503,7.18265287 C12.9565022,7.18265287 12.2619739,6.63655902 12.2619739,6.0702103 C12.2619739,5.65399671 12.90624,5.50142306 13.247821,5.44977976 Z M2.28343946,6.83291472 C2.20686505,7.21000608 2.16666667,7.60030862 2.16666667,8 C2.16666667,10.7636169 4.08849538,13.0783667 6.6686116,13.6807081 C6.7425399,13.3747016 6.89013873,12.6735499 6.77741595,12.3564223 C6.63098448,11.9444607 5.67268148,11.8263073 5.67268148,11.3293878 C5.67268148,10.8324682 6.22585328,10.7253425 6.22585328,10.7253425 C6.22585328,10.7253425 3.00507075,10.4877057 2.28343946,6.83291472 Z M8,15 C4.13400675,15 1,11.8659932 1,8 C1,4.13400675 4.13400675,1 8,1 C11.8659932,1 15,4.13400675 15,8 C15,11.8659932 11.8659932,15 8,15 Z" style="display:inline;height:auto;min-height:0px;min-width:0px;overflow-x:visible;overflow-y:visible;width:auto;perspective-origin:0px 0px;transform-origin:0px 0px;fill:rgb(51, 51, 51);fill-rule:evenodd;shape-rendering:geometricprecision;d:path(&quot;M 13.2478 5.44978 C 12.7426 4.41212 11.9387 3.54667 10.948 2.96531 C 10.386 3.75235 9.22411 4.96474 8.88167 4.96474 C 8.46622 4.96474 8.38232 2.91733 8.36557 2.17794 C 8.24467 2.17046 8.12278 2.16667 8 2.16667 C 7.45919 2.16667 6.93557 2.24026 6.4386 2.37798 C 6.92001 2.34176 7.24171 2.35648 7.24171 2.35648 C 7.24171 2.35648 7.69054 3.35752 7.69054 3.81179 C 7.69054 4.26606 7.3952 4.59858 7.3952 4.80619 C 7.3952 5.01381 8.37467 5.34306 8.37467 5.93687 C 8.37467 6.53067 5.96183 7.2073 6.09316 7.76667 C 6.22449 8.32604 6.77742 8.71898 6.29319 8.71898 C 5.80896 8.71898 5.67268 7.61161 4.9378 7.61161 C 4.20292 7.61161 3.41432 7.94543 3.55382 8.23012 C 3.69332 8.51482 4.41297 9.26474 4.78667 9.26474 C 5.16036 9.26474 5.1684 10.1197 5.4557 10.3089 C 5.74299 10.498 6.23037 10.5719 6.23037 10.5719 C 6.3672 10.5989 6.49306 10.5006 6.52403 10.3776 C 6.52403 10.3776 6.49953 9.85225 7.24171 9.85225 C 7.9839 9.85225 8.2676 10.657 8.64166 10.8465 C 9.01573 11.036 9.9744 11.4959 10.1087 11.8428 C 10.243 12.1898 10.0468 12.7958 9.72536 12.9973 C 9.54014 13.1133 9.29416 13.4563 9.11891 13.7261 C 10.4362 13.4702 11.5951 12.7711 12.4343 11.7902 C 11.8949 11.7482 11.1161 11.6124 10.7768 11.1738 C 10.2852 10.5384 10.8708 9.82884 11.1242 9.33856 C 11.3776 8.84828 11.9191 8.02402 11.9191 7.86243 C 11.9191 7.70084 11.7285 7.68452 11.3911 7.43764 C 11.0536 7.19075 11.3207 6.60314 11.6057 6.60314 C 11.8908 6.60314 12.4745 7.18265 12.7155 7.18265 C 12.9565 7.18265 12.262 6.63656 12.262 6.07021 C 12.262 5.654 12.9062 5.50142 13.2478 5.44978 Z M 2.28344 6.83291 C 2.20687 7.21001 2.16667 7.60031 2.16667 8 C 2.16667 10.7636 4.0885 13.0784 6.66861 13.6807 C 6.74254 13.3747 6.89014 12.6735 6.77742 12.3564 C 6.63098 11.9445 5.67268 11.8263 5.67268 11.3294 C 5.67268 10.8325 6.22585 10.7253 6.22585 10.7253 C 6.22585 10.7253 3.00507 10.4877 2.28344 6.83291 Z M 8 15 C 4.13401 15 1 11.866 1 8 C 1 4.13401 4.13401 1 8 1 C 11.866 1 15 4.13401 15 8 C 15 11.866 11.866 15 8 15 Z&quot;);"/></svg>