<?xml version="1.0" standalone="no"?><!DOCTYPE svg PUBLIC "-//W3C//DTD SVG 1.1//EN" "http://www.w3.org/Graphics/SVG/1.1/DTD/svg11.dtd"><svg width="12" height="12" viewBox="0 0 12 12" version="1.1" xmlns="http://www.w3.org/2000/svg" xmlns:xlink="http://www.w3.org/1999/xlink"><path fill-rule="evenodd" fill="currentColor" d="M10.4981323,3.81409694 C10.0651041,2.92467188 9.37604583,2.18286138 8.52684192,1.68454978 C8.0451532,2.35915728 7.04923753,3.39835235 6.75571892,3.39835235 C6.3996156,3.39835235 6.32770152,1.64342464 6.31334144,1.00965883 C6.20971698,1.00325127 6.10523818,1 6,1 C5.53644728,1 5.08762811,1.0630818 4.66165857,1.1811293 C5.074297,1.15007945 5.35004046,1.16269676 5.35004046,1.16269676 C5.35004046,1.16269676 5.734748,2.02073171 5.734748,2.41010751 C5.734748,2.7994833 5.48160068,3.08449829 5.48160068,3.2624518 C5.48160068,3.44040532 6.32114583,3.7226232 6.32114583,4.23159919 C6.32114583,4.74057519 4.25299802,5.32053969 4.36556689,5.80000144 C4.47813575,6.27946319 4.95207081,6.61627277 4.53701955,6.61627277 C4.12196829,6.61627277 4.00515555,5.6670909 3.37525798,5.6670909 C2.7453604,5.6670909 2.06941674,5.95322504 2.188988,6.19724802 C2.30855926,6.441271 2.92540692,7.08406386 3.2457136,7.08406386 C3.56602029,7.08406386 3.57291659,7.81690441 3.81916761,7.97903984 C4.06541862,8.14117527 4.45153388,8.19748176 4.45153388,8.19748176 C4.58628833,8.22444758 4.70833628,8.14339064 4.7448074,8.00851302 C4.7448074,8.00851302 4.71388316,7.58763855 5.35004046,7.58763855 C5.98619776,7.58763855 6.22937197,8.27746162 6.54999694,8.4398864 C6.87062192,8.60231118 7.69234278,8.99650957 7.80745797,9.29387038 C7.92257315,9.59123118 7.75440949,10.1107204 7.47887572,10.2833691 C7.32012171,10.3828439 7.10927572,10.6768031 6.959067,10.9081122 C8.08813579,10.6887693 9.08153201,10.0895189 9.80083752,9.24877936 C9.3384971,9.21274768 8.67097111,9.09635433 8.3800846,8.72036815 C7.95877362,8.17580145 8.46069687,7.56757659 8.67787732,7.14733622 C8.89505778,6.72709586 9.35923192,6.02058664 9.35923192,5.88208189 C9.35923192,5.74357715 9.19584262,5.72959164 8.90662234,5.51797646 C8.61740206,5.30636127 8.84627459,4.80269013 9.09061586,4.80269013 C9.33495713,4.80269013 9.83528893,5.29941675 10.0418597,5.29941675 C10.2484304,5.29941675 9.65312047,4.8313363 9.65312047,4.34589454 C9.65312047,3.98914004 10.2053486,3.85836263 10.4981323,3.81409694 Z M1.10009096,4.99964119 C1.03445575,5.32286235 1,5.65740739 1,6 C1,8.36881451 2.64728176,10.3528857 4.85880994,10.8691784 C4.92217706,10.6068871 5.04869034,10.0058999 4.95207081,9.73407626 C4.82655812,9.38096632 4.00515555,9.27969197 4.00515555,8.85376095 C4.00515555,8.42782993 4.47930281,8.33600784 4.47930281,8.33600784 C4.47930281,8.33600784 1.71863208,8.13231919 1.10009096,4.99964119 Z M6,12 C2.6862915,12 0,9.3137085 0,6 C0,2.6862915 2.6862915,0 6,0 C9.3137085,0 12,2.6862915 12,6 C12,9.3137085 9.3137085,12 6,12 Z"/></svg>