<?xml version="1.0" standalone="no"?><!DOCTYPE svg PUBLIC "-//W3C//DTD SVG 1.1//EN" "http://www.w3.org/Graphics/SVG/1.1/DTD/svg11.dtd"><svg width="12" height="12" viewBox="0 0 12 12" class="publishMicro" style="height:12px;margin-right:16px;width:12px;perspective-origin:6px 6px;transform-origin:6px 6px;shape-rendering:geometricprecision;" version="1.1" xmlns="http://www.w3.org/2000/svg" xmlns:xlink="http://www.w3.org/1999/xlink"><path fill-rule="evenodd" class="" fill="currentColor" d="M7,4 L7,7.00019251 C7,7.55237094 6.55613518,8 6,8 C5.44771525,8 5,7.55628335 5,7.00019251 L5,4 L3.99077797,4 C3.45097518,4 3.26857744,3.64189675 3.5998845,3.20015401 L5.4001155,0.799845994 C5.73377001,0.354973316 6.26857744,0.358103249 6.5998845,0.799845994 L8.4001155,3.20015401 C8.73377001,3.64502668 8.55641359,4 8.00922203,4 L7,4 L7,4 Z M0,4.99980749 C0,4.44762906 0.443864822,4 1,4 C1.55228475,4 2,4.44335318 2,5.0093689 L2,8 L6,10 L10,8 L10,5.0093689 C10,4.45190985 10.4438648,4 11,4 C11.5522847,4 12,4.44371665 12,4.99980749 L12,8.50230122 C12,8.77717266 11.8003693,9.09981537 11.5490248,9.22548759 L6.45097518,11.7745124 C6.20190847,11.8990458 5.80036926,11.9001846 5.54902482,11.7745124 L0.45097518,9.22548759 C0.201908465,9.10095423 0,8.78515625 0,8.50230122 L0,4.99980749 Z" style="display:inline;height:auto;min-height:0px;min-width:0px;overflow-x:visible;overflow-y:visible;width:auto;perspective-origin:0px 0px;transform-origin:0px 0px;fill:rgb(51, 51, 51);fill-rule:evenodd;shape-rendering:geometricprecision;d:path(&quot;M 7 4 L 7 7.00019 C 7 7.55237 6.55614 8 6 8 C 5.44772 8 5 7.55628 5 7.00019 L 5 4 L 3.99078 4 C 3.45098 4 3.26858 3.6419 3.59988 3.20015 L 5.40012 0.799846 C 5.73377 0.354973 6.26858 0.358103 6.59988 0.799846 L 8.40012 3.20015 C 8.73377 3.64503 8.55641 4 8.00922 4 L 7 4 L 7 4 Z M 0 4.99981 C 0 4.44763 0.443865 4 1 4 C 1.55228 4 2 4.44335 2 5.00937 L 2 8 L 6 10 L 10 8 L 10 5.00937 C 10 4.45191 10.4439 4 11 4 C 11.5523 4 12 4.44372 12 4.99981 L 12 8.5023 C 12 8.77717 11.8004 9.09982 11.549 9.22549 L 6.45098 11.7745 C 6.20191 11.899 5.80037 11.9002 5.54902 11.7745 L 0.450975 9.22549 C 0.201908 9.10095 0 8.78516 0 8.5023 L 0 4.99981 Z&quot;);"/></svg>