<?xml version="1.0" standalone="no"?><!DOCTYPE svg PUBLIC "-//W3C//DTD SVG 1.1//EN" "http://www.w3.org/Graphics/SVG/1.1/DTD/svg11.dtd"><svg width="12" height="12" viewBox="0 0 12 12" class="quoteMicro" style="height:12px;margin-right:16px;width:12px;perspective-origin:6px 6px;transform-origin:6px 6px;shape-rendering:geometricprecision;" version="1.1" xmlns="http://www.w3.org/2000/svg" xmlns:xlink="http://www.w3.org/1999/xlink"><path fill-rule="evenodd" class="" fill="currentColor" d="M11,5.49531555 L11,7 L10,9 L9,9 L9,7 L8.0093689,7 C7.45190985,7 7,6.55664682 7,5.9906311 L7,4.0093689 C7,3.45190985 7.44335318,3 8.0093689,3 L9.9906311,3 C10.5480902,3 11,3.44335318 11,4.0093689 L11,5.49531555 Z M5,5.49531555 L5,4.0093689 C5,3.44335318 4.54809015,3 3.9906311,3 L2.0093689,3 C1.44335318,3 1,3.45190985 1,4.0093689 L1,5.9906311 C1,6.55664682 1.45190985,7 2.0093689,7 L3,7 L3,9 L4,9 L5,7 L5,5.49531555 Z" style="display:inline;height:auto;min-height:0px;min-width:0px;overflow-x:visible;overflow-y:visible;width:auto;perspective-origin:0px 0px;transform-origin:0px 0px;fill:rgb(51, 51, 51);fill-rule:evenodd;shape-rendering:geometricprecision;d:path(&quot;M 11 5.49532 L 11 7 L 10 9 L 9 9 L 9 7 L 8.00937 7 C 7.45191 7 7 6.55665 7 5.99063 L 7 4.00937 C 7 3.45191 7.44335 3 8.00937 3 L 9.99063 3 C 10.5481 3 11 3.44335 11 4.00937 L 11 5.49532 Z M 5 5.49532 L 5 4.00937 C 5 3.44335 4.54809 3 3.99063 3 L 2.00937 3 C 1.44335 3 1 3.45191 1 4.00937 L 1 5.99063 C 1 6.55665 1.45191 7 2.00937 7 L 3 7 L 3 9 L 4 9 L 5 7 L 5 5.49532 Z&quot;);"/></svg>