<?xml version="1.0" standalone="no"?><!DOCTYPE svg PUBLIC "-//W3C//DTD SVG 1.1//EN" "http://www.w3.org/Graphics/SVG/1.1/DTD/svg11.dtd"><svg width="12" height="12" viewBox="0 0 12 12" version="1.1" xmlns="http://www.w3.org/2000/svg" xmlns:xlink="http://www.w3.org/1999/xlink"><path fill-rule="evenodd" fill="currentColor" d="M11,5.49531555 L11,7 L10,9 L9,9 L9,7 L8.0093689,7 C7.45190985,7 7,6.55664682 7,5.9906311 L7,4.0093689 C7,3.45190985 7.44335318,3 8.0093689,3 L9.9906311,3 C10.5480902,3 11,3.44335318 11,4.0093689 L11,5.49531555 Z M5,5.49531555 L5,4.0093689 C5,3.44335318 4.54809015,3 3.9906311,3 L2.0093689,3 C1.44335318,3 1,3.45190985 1,4.0093689 L1,5.9906311 C1,6.55664682 1.45190985,7 2.0093689,7 L3,7 L3,9 L4,9 L5,7 L5,5.49531555 Z"/></svg>