<?xml version="1.0" standalone="no"?><!DOCTYPE svg PUBLIC "-//W3C//DTD SVG 1.1//EN" "http://www.w3.org/Graphics/SVG/1.1/DTD/svg11.dtd"><svg width="16" height="16" viewBox="0 0 16 16" class="quote" style="height:16px;margin-right:8px;width:16px;perspective-origin:8px 8px;transform-origin:8px 8px;shape-rendering:geometricprecision;" version="1.1" xmlns="http://www.w3.org/2000/svg" xmlns:xlink="http://www.w3.org/1999/xlink"><path fill-rule="evenodd" class="" fill="currentColor" d="M7,9.00009625 L7,5.99980749 C7,5.44371665 6.55237094,5 6.00019251,5 L2.99980749,5 C2.44371665,5 2,5.44762906 2,5.99980749 L2,9.00019251 C2,9.55628335 2.44762906,10 2.99980749,10 L4,10 L4,12 L5,12 L7,10 L7,9.00009625 Z M14,9.00009625 L14,5.99980749 C14,5.44371665 13.5523709,5 13.0001925,5 L9.99980749,5 C9.44371665,5 9,5.44762906 9,5.99980749 L9,9.00019251 C9,9.55628335 9.44762906,10 9.99980749,10 L11,10 L11,12 L12,12 L14,10 L14,9.00009625 Z" style="display:inline;height:auto;min-height:0px;min-width:0px;overflow-x:visible;overflow-y:visible;width:auto;perspective-origin:0px 0px;transform-origin:0px 0px;fill:rgb(51, 51, 51);fill-rule:evenodd;shape-rendering:geometricprecision;d:path(&quot;M 7 9.0001 L 7 5.99981 C 7 5.44372 6.55237 5 6.00019 5 L 2.99981 5 C 2.44372 5 2 5.44763 2 5.99981 L 2 9.00019 C 2 9.55628 2.44763 10 2.99981 10 L 4 10 L 4 12 L 5 12 L 7 10 L 7 9.0001 Z M 14 9.0001 L 14 5.99981 C 14 5.44372 13.5524 5 13.0002 5 L 9.99981 5 C 9.44372 5 9 5.44763 9 5.99981 L 9 9.00019 C 9 9.55628 9.44763 10 9.99981 10 L 11 10 L 11 12 L 12 12 L 14 10 L 14 9.0001 Z&quot;);"/></svg>