<?xml version="1.0" standalone="no"?><!DOCTYPE svg PUBLIC "-//W3C//DTD SVG 1.1//EN" "http://www.w3.org/Graphics/SVG/1.1/DTD/svg11.dtd"><svg width="16" height="16" viewBox="0 0 16 16" version="1.1" xmlns="http://www.w3.org/2000/svg" xmlns:xlink="http://www.w3.org/1999/xlink"><path fill-rule="evenodd" fill="currentColor" d="M7,9.00009625 L7,5.99980749 C7,5.44371665 6.55237094,5 6.00019251,5 L2.99980749,5 C2.44371665,5 2,5.44762906 2,5.99980749 L2,9.00019251 C2,9.55628335 2.44762906,10 2.99980749,10 L4,10 L4,12 L5,12 L7,10 L7,9.00009625 Z M14,9.00009625 L14,5.99980749 C14,5.44371665 13.5523709,5 13.0001925,5 L9.99980749,5 C9.44371665,5 9,5.44762906 9,5.99980749 L9,9.00019251 C9,9.55628335 9.44762906,10 9.99980749,10 L11,10 L11,12 L12,12 L14,10 L14,9.00009625 Z"/></svg>