<?xml version="1.0" standalone="no"?><!DOCTYPE svg PUBLIC "-//W3C//DTD SVG 1.1//EN" "http://www.w3.org/Graphics/SVG/1.1/DTD/svg11.dtd"><svg width="12" height="12" viewBox="0 0 12 12" class="redo1Micro" style="height:12px;margin-right:16px;width:12px;perspective-origin:6px 6px;transform-origin:6px 6px;shape-rendering:geometricprecision;" version="1.1" xmlns="http://www.w3.org/2000/svg" xmlns:xlink="http://www.w3.org/1999/xlink"><path fill-rule="evenodd" class="" fill="currentColor" d="M7.572 7a2.664 2.664 0 0 0-.29-.883C6.842 5.343 5.963 5 4.925 5c-1.654 0-3.5 1.665-3.5 3.082 0 .918-1 .918-1 0C.425 5.325 2.168 3 4.925 3c2.17 0 4.248.937 4.941 3.01.138.413.231.736.292.99h.258c.559 0 .75.363.43.812L9.504 9.688c-.322.45-.871.472-1.231.053L6.576 7.759c-.363-.423-.2-.759.358-.759h.638z" style="display:inline;height:auto;min-height:0px;min-width:0px;overflow-x:visible;overflow-y:visible;width:auto;perspective-origin:0px 0px;transform-origin:0px 0px;fill:rgb(51, 51, 51);fill-rule:evenodd;shape-rendering:geometricprecision;d:path(&quot;M 7.572 7 A 2.664 2.664 0 0 0 7.282 6.117 C 6.842 5.343 5.963 5 4.925 5 C 3.271 5 1.425 6.665 1.425 8.082 C 1.425 9 0.425 9 0.425 8.082 C 0.425 5.325 2.168 3 4.925 3 C 7.095 3 9.173 3.937 9.866 6.01 C 10.004 6.423 10.097 6.746 10.158 7 H 10.416 C 10.975 7 11.166 7.363 10.846 7.812 L 9.504 9.688 C 9.182 10.138 8.633 10.16 8.273 9.741 L 6.576 7.759 C 6.213 7.336 6.376 7 6.934 7 H 7.572 Z&quot;);"/></svg>