<?xml version="1.0" standalone="no"?><!DOCTYPE svg PUBLIC "-//W3C//DTD SVG 1.1//EN" "http://www.w3.org/Graphics/SVG/1.1/DTD/svg11.dtd"><svg width="12" height="12" viewBox="0 0 12 12" version="1.1" xmlns="http://www.w3.org/2000/svg" xmlns:xlink="http://www.w3.org/1999/xlink"><path fill-rule="evenodd" fill="currentColor" d="M6.00181082,1 C3.83181082,1 1.99881082,2.167 1.30881082,4.167 L0.500810822,4.167 C0.0888108215,4.167 -0.146189178,4.804 0.100810822,5.133 L2.10081082,7.883 C2.30081082,8.15 2.70081082,8.192 2.90081082,7.925 L4.90081082,5.112 C5.14781082,4.783 4.91281082,4.167 4.50081082,4.167 L3.50981082,4.167 C3.81381082,3.542 4.96381082,3 6.00181082,3 C7.65581082,3 9.00181082,4.429 9.00181082,6.083 C9.00181082,7.738 7.65581082,9.125 6.00181082,9.125 C5.44281082,9.125 4.89781082,8.991 4.42481082,8.699 C3.95481082,8.407 3.33881082,8.563 3.04781082,9.032 C2.75681082,9.502 2.90181082,10.123 3.37181082,10.414 C4.16081082,10.903 5.06981082,11.164 6.00181082,11.164 C8.75881082,11.164 11.0018108,8.839 11.0018108,6.082 C11.0018108,3.325 8.75881082,1 6.00181082,1"/></svg>