<?xml version="1.0" standalone="no"?><!DOCTYPE svg PUBLIC "-//W3C//DTD SVG 1.1//EN" "http://www.w3.org/Graphics/SVG/1.1/DTD/svg11.dtd"><svg width="12" height="12" viewBox="0 0 12 12" class="redo1Micro" version="1.1" xmlns="http://www.w3.org/2000/svg" xmlns:xlink="http://www.w3.org/1999/xlink"><path fill-rule="evenodd" fill="currentColor" d="M7.572 7a2.664 2.664 0 0 0-.29-.883C6.842 5.343 5.963 5 4.925 5c-1.654 0-3.5 1.665-3.5 3.082 0 .918-1 .918-1 0C.425 5.325 2.168 3 4.925 3c2.17 0 4.248.937 4.941 3.01.138.413.231.736.292.99h.258c.559 0 .75.363.43.812L9.504 9.688c-.322.45-.871.472-1.231.053L6.576 7.759c-.363-.423-.2-.759.358-.759h.638z"/></svg>