<?xml version="1.0" standalone="no"?><!DOCTYPE svg PUBLIC "-//W3C//DTD SVG 1.1//EN" "http://www.w3.org/Graphics/SVG/1.1/DTD/svg11.dtd"><svg width="16" height="16" viewBox="0 0 16 16" version="1.1" xmlns="http://www.w3.org/2000/svg" xmlns:xlink="http://www.w3.org/1999/xlink"><path fill-rule="evenodd" fill="currentColor" d="M7.99981082,2 C5.26981082,2 2.96481082,4.167 2.23981082,6.167 L1.50081082,6.167 C1.08881082,6.167 0.853810822,6.804 1.10081082,7.133 L3.10081082,9.883 C3.30081082,10.15 3.70081082,10.192 3.90081082,9.925 L5.90081082,7.112 C6.14781082,6.783 5.91281082,6.167 5.50081082,6.167 L4.37481082,6.167 C5.00981082,5.167 6.39081082,4 7.99981082,4 C10.2058108,4 11.9998108,5.878 11.9998108,8.083 C11.9998108,10.289 10.2058108,12.125 7.99981082,12.125 C7.25381082,12.125 6.52681082,11.939 5.89681082,11.549 C5.42781082,11.259 4.81181082,11.414 4.52081082,11.883 C4.22881082,12.353 4.37481082,12.974 4.84381082,13.265 C5.79081082,13.851 6.88181082,14.164 7.99981082,14.164 C11.3088108,14.164 13.9998108,11.391 13.9998108,8.082 C13.9998108,4.773 11.3088108,2 7.99981082,2"/></svg>