<?xml version="1.0" standalone="no"?><!DOCTYPE svg PUBLIC "-//W3C//DTD SVG 1.1//EN" "http://www.w3.org/Graphics/SVG/1.1/DTD/svg11.dtd"><svg width="16" height="16" viewBox="0 0 16 16" class="richText" style="height:16px;margin-right:8px;width:16px;perspective-origin:8px 8px;transform-origin:8px 8px;shape-rendering:geometricprecision;" version="1.1" xmlns="http://www.w3.org/2000/svg" xmlns:xlink="http://www.w3.org/1999/xlink"><path fill-rule="evenodd" class="" fill="currentColor" d="M8 8c0-.552.453-1 .997-1h6.006c.55 0 .997.444.997 1 0 .552-.453 1-.997 1H8.997A.996.996 0 0 1 8 8zM0 8c0-.552.438-1 1.003-1h4.994A.999.999 0 0 1 7 8c0 .552-.438 1-1.003 1H1.003A.999.999 0 0 1 0 8zm0 3c0-.552.449-1 1.007-1h12.986c.556 0 1.007.444 1.007 1 0 .552-.449 1-1.007 1H1.007A1.001 1.001 0 0 1 0 11zm0 3c0-.552.445-1 .996-1h9.008c.55 0 .996.444.996 1 0 .552-.445 1-.996 1H.996A.995.995 0 0 1 0 14zm12 0c0-.552.444-1 1-1 .552 0 1 .444 1 1 0 .552-.444 1-1 1-.552 0-1-.444-1-1zM1.56 4.285v1.226a.3.3 0 0 1-.3.3H.762a.3.3 0 0 1-.3-.3V1.25a.3.3 0 0 1 .3-.3h1.75c1.072 0 1.738.602 1.738 1.578 0 .638-.338 1.177-.87 1.329l.807 1.513a.3.3 0 0 1-.265.441h-.559a.3.3 0 0 1-.267-.163L2.35 4.194a.2.2 0 0 0-.177-.109h-.413a.2.2 0 0 0-.2.2zm.45-2.53c-.305 0-.55-.04-.55.263V3c0 .304.245.321.55.321h.373c.528 0 .846-.291.846-.78 0-.48-.334-.785-.855-.785h-.365zm5.22 4.056h-.497a.3.3 0 0 1-.3-.3v-3.41a.2.2 0 0 0-.2-.2h-.928a.3.3 0 0 1-.3-.3V1.25a.3.3 0 0 1 .3-.3h3.353a.3.3 0 0 1 .3.3v.351a.3.3 0 0 1-.3.3H7.73a.2.2 0 0 0-.2.2v3.41a.3.3 0 0 1-.3.3zm3.73-.3a.3.3 0 0 1-.3.3h-.497a.3.3 0 0 1-.3-.3V1.25a.3.3 0 0 1 .3-.3h2.618a.3.3 0 0 1 .3.3v.351a.3.3 0 0 1-.3.3H11.16a.2.2 0 0 0-.2.2v.74c0 .111.089.2.2.2h1.436a.3.3 0 0 1 .3.3v.316a.3.3 0 0 1-.3.3H11.16a.2.2 0 0 0-.2.2V5.51z" style="display:inline;height:auto;min-height:0px;min-width:0px;overflow-x:visible;overflow-y:visible;width:auto;perspective-origin:0px 0px;transform-origin:0px 0px;fill:rgb(51, 51, 51);fill-rule:evenodd;shape-rendering:geometricprecision;d:path(&quot;M 8 8 C 8 7.448 8.453 7 8.997 7 H 15.003 C 15.553 7 16 7.444 16 8 C 16 8.552 15.547 9 15.003 9 H 8.997 A 0.996 0.996 0 0 1 8 8 Z M 0 8 C 0 7.448 0.438 7 1.003 7 H 5.997 A 0.999 0.999 0 0 1 7 8 C 7 8.552 6.562 9 5.997 9 H 1.003 A 0.999 0.999 0 0 1 0 8 Z M 0 11 C 0 10.448 0.449 10 1.007 10 H 13.993 C 14.549 10 15 10.444 15 11 C 15 11.552 14.551 12 13.993 12 H 1.007 A 1.001 1.001 0 0 1 0 11 Z M 0 14 C 0 13.448 0.445 13 0.996 13 H 10.004 C 10.554 13 11 13.444 11 14 C 11 14.552 10.555 15 10.004 15 H 0.996 A 0.995 0.995 0 0 1 0 14 Z M 12 14 C 12 13.448 12.444 13 13 13 C 13.552 13 14 13.444 14 14 C 14 14.552 13.556 15 13 15 C 12.448 15 12 14.556 12 14 Z M 1.56 4.285 V 5.511 A 0.3 0.3 0 0 1 1.26 5.811 H 0.762 A 0.3 0.3 0 0 1 0.462 5.511 V 1.25 A 0.3 0.3 0 0 1 0.762 0.95 H 2.512 C 3.584 0.95 4.25 1.552 4.25 2.528 C 4.25 3.166 3.912 3.705 3.38 3.857 L 4.187 5.37 A 0.3 0.3 0 0 1 3.922 5.811 H 3.363 A 0.3 0.3 0 0 1 3.096 5.648 L 2.35 4.194 A 0.2 0.2 0 0 0 2.173 4.085 H 1.76 A 0.2 0.2 0 0 0 1.56 4.285 Z M 2.01 1.755 C 1.705 1.755 1.46 1.715 1.46 2.018 V 3 C 1.46 3.304 1.705 3.321 2.01 3.321 H 2.383 C 2.911 3.321 3.229 3.03 3.229 2.541 C 3.229 2.061 2.895 1.756 2.374 1.756 H 2.009 Z M 7.23 5.811 H 6.733 A 0.3 0.3 0 0 1 6.433 5.511 V 2.101 A 0.2 0.2 0 0 0 6.233 1.901 H 5.305 A 0.3 0.3 0 0 1 5.005 1.601 V 1.25 A 0.3 0.3 0 0 1 5.305 0.95 H 8.658 A 0.3 0.3 0 0 1 8.958 1.25 V 1.601 A 0.3 0.3 0 0 1 8.658 1.901 H 7.73 A 0.2 0.2 0 0 0 7.53 2.101 V 5.511 A 0.3 0.3 0 0 1 7.23 5.811 Z M 10.96 5.511 A 0.3 0.3 0 0 1 10.66 5.811 H 10.163 A 0.3 0.3 0 0 1 9.863 5.511 V 1.25 A 0.3 0.3 0 0 1 10.163 0.95 H 12.781 A 0.3 0.3 0 0 1 13.081 1.25 V 1.601 A 0.3 0.3 0 0 1 12.781 1.901 H 11.16 A 0.2 0.2 0 0 0 10.96 2.101 V 2.841 C 10.96 2.952 11.049 3.041 11.16 3.041 H 12.596 A 0.3 0.3 0 0 1 12.896 3.341 V 3.657 A 0.3 0.3 0 0 1 12.596 3.957 H 11.16 A 0.2 0.2 0 0 0 10.96 4.157 V 5.51 Z&quot;);"/></svg>