<?xml version="1.0" standalone="no"?><!DOCTYPE svg PUBLIC "-//W3C//DTD SVG 1.1//EN" "http://www.w3.org/Graphics/SVG/1.1/DTD/svg11.dtd"><svg width="12" height="12" viewBox="0 0 12 12" version="1.1" xmlns="http://www.w3.org/2000/svg" xmlns:xlink="http://www.w3.org/1999/xlink"><path fill-rule="evenodd" fill="currentColor" d="M0 8c0-.552.456-1 1.002-1h9.996a.999.999 0 1 1 0 2H1.002A.999.999 0 0 1 0 8zm7-3a1 1 0 0 1 1.01-1h1.98a1 1 0 1 1 0 2H8.01C7.451 6 7 5.556 7 5zM0 5a1 1 0 0 1 .99-1h4.02c.546 0 .99.444.99 1a1 1 0 0 1-.99 1H.99A.993.993 0 0 1 0 5zm0 6c0-.552.438-1 1.003-1h4.994A.999.999 0 0 1 7 11c0 .552-.438 1-1.003 1H1.003A.999.999 0 0 1 0 11zm8 0c0-.552.444-1 1-1 .552 0 1 .444 1 1 0 .552-.444 1-1 1-.552 0-1-.444-1-1zM.695 2.115v.777a.19.19 0 0 1-.19.19H.19a.19.19 0 0 1-.19-.19V.19A.19.19 0 0 1 .19 0H1.3c.68 0 1.102.382 1.102 1 0 .405-.214.747-.552.843l.512.96a.19.19 0 0 1-.168.279H1.84a.19.19 0 0 1-.17-.103l-.474-.922a.127.127 0 0 0-.113-.07H.822a.127.127 0 0 0-.127.128zM.98.51C.788.51.632.485.632.677V1.3c0 .193.156.204.348.204h.238c.334 0 .536-.185.536-.494 0-.305-.212-.499-.543-.499h-.23zm3.31 2.572h-.315a.19.19 0 0 1-.19-.19V.73a.127.127 0 0 0-.127-.127H3.07a.19.19 0 0 1-.19-.19V.19A.19.19 0 0 1 3.07 0h2.126a.19.19 0 0 1 .19.19v.223a.19.19 0 0 1-.19.19h-.589A.127.127 0 0 0 4.48.73v2.162a.19.19 0 0 1-.19.19zm2.365-.19a.19.19 0 0 1-.19.19H6.15a.19.19 0 0 1-.19-.19V.19A.19.19 0 0 1 6.15 0h1.66A.19.19 0 0 1 8 .19v.223a.19.19 0 0 1-.19.19H6.782a.127.127 0 0 0-.127.127v.47c0 .07.057.126.127.126h.91a.19.19 0 0 1 .19.19v.2a.19.19 0 0 1-.19.19h-.91a.127.127 0 0 0-.127.127v.859z"/></svg>