<?xml version="1.0" standalone="no"?><!DOCTYPE svg PUBLIC "-//W3C//DTD SVG 1.1//EN" "http://www.w3.org/Graphics/SVG/1.1/DTD/svg11.dtd"><svg width="12" height="12" viewBox="0 0 12 12" class="richTextMicro" style="height:12px;margin-right:16px;width:12px;perspective-origin:6px 6px;transform-origin:6px 6px;shape-rendering:geometricprecision;" version="1.1" xmlns="http://www.w3.org/2000/svg" xmlns:xlink="http://www.w3.org/1999/xlink"><path fill-rule="evenodd" class="" fill="currentColor" d="M0 8c0-.552.456-1 1.002-1h9.996a.999.999 0 1 1 0 2H1.002A.999.999 0 0 1 0 8zm7-3a1 1 0 0 1 1.01-1h1.98a1 1 0 1 1 0 2H8.01C7.451 6 7 5.556 7 5zM0 5a1 1 0 0 1 .99-1h4.02c.546 0 .99.444.99 1a1 1 0 0 1-.99 1H.99A.993.993 0 0 1 0 5zm0 6c0-.552.438-1 1.003-1h4.994A.999.999 0 0 1 7 11c0 .552-.438 1-1.003 1H1.003A.999.999 0 0 1 0 11zm8 0c0-.552.444-1 1-1 .552 0 1 .444 1 1 0 .552-.444 1-1 1-.552 0-1-.444-1-1zM.695 2.115v.777a.19.19 0 0 1-.19.19H.19a.19.19 0 0 1-.19-.19V.19A.19.19 0 0 1 .19 0H1.3c.68 0 1.102.382 1.102 1 0 .405-.214.747-.552.843l.512.96a.19.19 0 0 1-.168.279H1.84a.19.19 0 0 1-.17-.103l-.474-.922a.127.127 0 0 0-.113-.07H.822a.127.127 0 0 0-.127.128zM.98.51C.788.51.632.485.632.677V1.3c0 .193.156.204.348.204h.238c.334 0 .536-.185.536-.494 0-.305-.212-.499-.543-.499h-.23zm3.31 2.572h-.315a.19.19 0 0 1-.19-.19V.73a.127.127 0 0 0-.127-.127H3.07a.19.19 0 0 1-.19-.19V.19A.19.19 0 0 1 3.07 0h2.126a.19.19 0 0 1 .19.19v.223a.19.19 0 0 1-.19.19h-.589A.127.127 0 0 0 4.48.73v2.162a.19.19 0 0 1-.19.19zm2.365-.19a.19.19 0 0 1-.19.19H6.15a.19.19 0 0 1-.19-.19V.19A.19.19 0 0 1 6.15 0h1.66A.19.19 0 0 1 8 .19v.223a.19.19 0 0 1-.19.19H6.782a.127.127 0 0 0-.127.127v.47c0 .07.057.126.127.126h.91a.19.19 0 0 1 .19.19v.2a.19.19 0 0 1-.19.19h-.91a.127.127 0 0 0-.127.127v.859z" style="display:inline;height:auto;min-height:0px;min-width:0px;overflow-x:visible;overflow-y:visible;width:auto;perspective-origin:0px 0px;transform-origin:0px 0px;fill:rgb(51, 51, 51);fill-rule:evenodd;shape-rendering:geometricprecision;d:path(&quot;M 0 8 C 0 7.448 0.456 7 1.002 7 H 10.998 A 0.999 0.999 0 1 1 10.998 9 H 1.002 A 0.999 0.999 0 0 1 0 8 Z M 7 5 A 1 1 0 0 1 8.01 4 H 9.99 A 1 1 0 1 1 9.99 6 H 8.01 C 7.451 6 7 5.556 7 5 Z M 0 5 A 1 1 0 0 1 0.99 4 H 5.01 C 5.556 4 6 4.444 6 5 A 1 1 0 0 1 5.01 6 H 0.99 A 0.993 0.993 0 0 1 0 5 Z M 0 11 C 0 10.448 0.438 10 1.003 10 H 5.997 A 0.999 0.999 0 0 1 7 11 C 7 11.552 6.562 12 5.997 12 H 1.003 A 0.999 0.999 0 0 1 0 11 Z M 8 11 C 8 10.448 8.444 10 9 10 C 9.552 10 10 10.444 10 11 C 10 11.552 9.556 12 9 12 C 8.448 12 8 11.556 8 11 Z M 0.695 2.115 V 2.892 A 0.19 0.19 0 0 1 0.505 3.082 H 0.19 A 0.19 0.19 0 0 1 0 2.892 V 0.19 A 0.19 0.19 0 0 1 0.19 0 H 1.3 C 1.98 0 2.402 0.382 2.402 1 C 2.402 1.405 2.188 1.747 1.85 1.843 L 2.362 2.803 A 0.19 0.19 0 0 1 2.194 3.082 H 1.84 A 0.19 0.19 0 0 1 1.67 2.979 L 1.196 2.057 A 0.127 0.127 0 0 0 1.083 1.987 H 0.822 A 0.127 0.127 0 0 0 0.695 2.115 Z M 0.98 0.51 C 0.788 0.51 0.632 0.485 0.632 0.677 V 1.3 C 0.632 1.493 0.788 1.504 0.98 1.504 H 1.218 C 1.552 1.504 1.754 1.319 1.754 1.01 C 1.754 0.705 1.542 0.511 1.211 0.511 H 0.981 Z M 4.29 3.082 H 3.975 A 0.19 0.19 0 0 1 3.785 2.892 V 0.73 A 0.127 0.127 0 0 0 3.658 0.603 H 3.07 A 0.19 0.19 0 0 1 2.88 0.413 V 0.19 A 0.19 0.19 0 0 1 3.07 0 H 5.196 A 0.19 0.19 0 0 1 5.386 0.19 V 0.413 A 0.19 0.19 0 0 1 5.196 0.603 H 4.607 A 0.127 0.127 0 0 0 4.48 0.73 V 2.892 A 0.19 0.19 0 0 1 4.29 3.082 Z M 6.655 2.892 A 0.19 0.19 0 0 1 6.465 3.082 H 6.15 A 0.19 0.19 0 0 1 5.96 2.892 V 0.19 A 0.19 0.19 0 0 1 6.15 0 H 7.81 A 0.19 0.19 0 0 1 8 0.19 V 0.413 A 0.19 0.19 0 0 1 7.81 0.603 H 6.782 A 0.127 0.127 0 0 0 6.655 0.73 V 1.2 C 6.655 1.27 6.712 1.326 6.782 1.326 H 7.692 A 0.19 0.19 0 0 1 7.882 1.516 V 1.716 A 0.19 0.19 0 0 1 7.692 1.906 H 6.782 A 0.127 0.127 0 0 0 6.655 2.033 V 2.892 Z&quot;);"/></svg>