<?xml version="1.0" standalone="no"?><!DOCTYPE svg PUBLIC "-//W3C//DTD SVG 1.1//EN" "http://www.w3.org/Graphics/SVG/1.1/DTD/svg11.dtd"><svg width="12" height="12" viewBox="0 0 12 12" class="rollup1Micro" style="height:12px;margin-right:16px;width:12px;perspective-origin:6px 6px;transform-origin:6px 6px;shape-rendering:geometricprecision;" version="1.1" xmlns="http://www.w3.org/2000/svg" xmlns:xlink="http://www.w3.org/1999/xlink"><path fill-rule="evenodd" class="" fill="currentColor" d="M6.343 11.204a5.419 5.419 0 0 1-3.019-.926 5.223 5.223 0 0 1-2.23-3.335 5.172 5.172 0 0 1 .754-3.811c.712-1.082 1.775-1.81 2.994-2.05a4.46 4.46 0 0 1 3.389.722 4.289 4.289 0 0 1 1.793 2.769 4.205 4.205 0 0 1-.665 3.098c-.588.861-1.455 1.431-2.44 1.605a3.545 3.545 0 0 1-2.69-.634 3.354 3.354 0 0 1-1.353-2.206 3.237 3.237 0 0 1 .58-2.386 2.811 2.811 0 0 1 1.89-1.153 2.627 2.627 0 0 1 1.991.553c.518.415.84 1 .907 1.647a2.264 2.264 0 0 1-.51 1.676 1.88 1.88 0 0 1-1.346.689 1.723 1.723 0 0 1-1.3-.503c-.297-.3-.45-.692-.431-1.104.017-.384.223-.77.523-.984a.931.931 0 0 1 .842-.137c.24.078.373.338.298.583a.454.454 0 0 1-.572.304c-.012-.004-.02-.007-.046.011-.069.05-.13.171-.135.266a.522.522 0 0 0 .163.402.824.824 0 0 0 .61.234.976.976 0 0 0 .7-.365c.221-.264.333-.629.297-.976a1.487 1.487 0 0 0-.563-1.012 1.72 1.72 0 0 0-1.306-.363c-.506.07-.96.35-1.28.787a2.289 2.289 0 0 0-.411 1.687c.098.636.448 1.203.984 1.594a2.64 2.64 0 0 0 2.003.474c.743-.131 1.4-.564 1.847-1.22a3.257 3.257 0 0 0 .516-2.399 3.364 3.364 0 0 0-1.41-2.17 3.558 3.558 0 0 0-2.702-.578c-.979.193-1.834.781-2.41 1.656a4.222 4.222 0 0 0-.617 3.111 4.3 4.3 0 0 0 1.84 2.743 4.472 4.472 0 0 0 3.4.68c2.08-.439 3.673-2.363 3.79-4.576a.459.459 0 0 1 .48-.439.461.461 0 0 1 .43.49c-.138 2.626-2.038 4.912-4.515 5.435-.353.074-.712.11-1.07.11z" style="display:inline;height:auto;min-height:0px;min-width:0px;overflow-x:visible;overflow-y:visible;width:auto;perspective-origin:0px 0px;transform-origin:0px 0px;fill:rgb(51, 51, 51);fill-rule:evenodd;shape-rendering:geometricprecision;d:path(&quot;M 6.343 11.204 A 5.419 5.419 0 0 1 3.324 10.278 A 5.223 5.223 0 0 1 1.094 6.943 A 5.172 5.172 0 0 1 1.848 3.132 C 2.56 2.05 3.623 1.322 4.842 1.082 A 4.46 4.46 0 0 1 8.231 1.804 A 4.289 4.289 0 0 1 10.024 4.573 A 4.205 4.205 0 0 1 9.359 7.671 C 8.771 8.532 7.904 9.102 6.919 9.276 A 3.545 3.545 0 0 1 4.229 8.642 A 3.354 3.354 0 0 1 2.876 6.436 A 3.237 3.237 0 0 1 3.456 4.05 A 2.811 2.811 0 0 1 5.346 2.897 A 2.627 2.627 0 0 1 7.337 3.45 C 7.855 3.865 8.177 4.45 8.244 5.097 A 2.264 2.264 0 0 1 7.734 6.773 A 1.88 1.88 0 0 1 6.388 7.462 A 1.723 1.723 0 0 1 5.088 6.959 C 4.791 6.659 4.638 6.267 4.657 5.855 C 4.674 5.471 4.88 5.085 5.18 4.871 A 0.931 0.931 0 0 1 6.022 4.734 C 6.262 4.812 6.395 5.072 6.32 5.317 A 0.454 0.454 0 0 1 5.748 5.621 C 5.736 5.617 5.728 5.614 5.702 5.632 C 5.633 5.682 5.572 5.803 5.567 5.898 A 0.522 0.522 0 0 0 5.73 6.3 A 0.824 0.824 0 0 0 6.34 6.534 A 0.976 0.976 0 0 0 7.04 6.169 C 7.261 5.905 7.373 5.54 7.337 5.193 A 1.487 1.487 0 0 0 6.774 4.181 A 1.72 1.72 0 0 0 5.468 3.818 C 4.962 3.888 4.508 4.168 4.188 4.605 A 2.289 2.289 0 0 0 3.777 6.292 C 3.875 6.928 4.225 7.495 4.761 7.886 A 2.64 2.64 0 0 0 6.764 8.36 C 7.507 8.229 8.164 7.796 8.611 7.14 A 3.257 3.257 0 0 0 9.127 4.741 A 3.364 3.364 0 0 0 7.717 2.571 A 3.558 3.558 0 0 0 5.015 1.993 C 4.036 2.186 3.181 2.774 2.605 3.649 A 4.222 4.222 0 0 0 1.988 6.76 A 4.3 4.3 0 0 0 3.828 9.503 A 4.472 4.472 0 0 0 7.228 10.183 C 9.308 9.744 10.901 7.82 11.018 5.607 A 0.459 0.459 0 0 1 11.498 5.168 A 0.461 0.461 0 0 1 11.928 5.658 C 11.79 8.284 9.89 10.57 7.413 11.093 C 7.06 11.167 6.701 11.203 6.343 11.203 Z&quot;);"/></svg>