<?xml version="1.0" standalone="no"?><!DOCTYPE svg PUBLIC "-//W3C//DTD SVG 1.1//EN" "http://www.w3.org/Graphics/SVG/1.1/DTD/svg11.dtd"><svg width="16" height="16" viewBox="0 0 16 16" class="rollup1" version="1.1" xmlns="http://www.w3.org/2000/svg" xmlns:xlink="http://www.w3.org/1999/xlink"><path fill-rule="evenodd" fill="currentColor" d="M8.3 14.942a7.404 7.404 0 0 1-4.124-1.265 7.137 7.137 0 0 1-3.047-4.556 7.067 7.067 0 0 1 1.03-5.208c.972-1.478 2.425-2.474 4.09-2.802a6.093 6.093 0 0 1 4.63.987 5.86 5.86 0 0 1 2.451 3.784 5.746 5.746 0 0 1-.908 4.233c-.805 1.177-1.988 1.956-3.334 2.193a4.844 4.844 0 0 1-3.675-.866 4.583 4.583 0 0 1-1.85-3.014 4.423 4.423 0 0 1 .794-3.26c.638-.874 1.554-1.434 2.58-1.576a3.59 3.59 0 0 1 2.722.756 3.3 3.3 0 0 1 1.239 2.25c.084.825-.17 1.66-.698 2.29a2.568 2.568 0 0 1-1.839.941 2.354 2.354 0 0 1-1.776-.686 2.001 2.001 0 0 1-.589-1.51c.024-.524.305-1.052.716-1.344a1.272 1.272 0 0 1 1.15-.187c.328.106.51.462.407.797a.62.62 0 0 1-.781.415c-.018-.006-.028-.01-.063.016a.535.535 0 0 0-.185.362c-.009.206.066.39.223.55.21.213.53.333.833.319.467-.025.778-.285.956-.498.303-.361.455-.86.406-1.334a2.032 2.032 0 0 0-.769-1.383 2.35 2.35 0 0 0-1.784-.496c-.691.096-1.312.478-1.749 1.076-.481.66-.686 1.5-.562 2.304.134.87.612 1.644 1.344 2.18.792.577 1.79.813 2.738.646 1.015-.179 1.911-.77 2.524-1.667a4.45 4.45 0 0 0 .705-3.277 4.597 4.597 0 0 0-1.927-2.965 4.862 4.862 0 0 0-3.692-.79c-1.337.264-2.507 1.067-3.293 2.263a5.769 5.769 0 0 0-.843 4.25c.3 1.527 1.193 2.858 2.513 3.748 1.37.924 3.064 1.262 4.647.929 2.84-.6 5.019-3.228 5.178-6.252a.627.627 0 0 1 .656-.6.63.63 0 0 1 .588.669c-.19 3.59-2.784 6.713-6.17 7.426a7.114 7.114 0 0 1-1.462.152z"/></svg>