<?xml version="1.0" standalone="no"?><!DOCTYPE svg PUBLIC "-//W3C//DTD SVG 1.1//EN" "http://www.w3.org/Graphics/SVG/1.1/DTD/svg11.dtd"><svg width="16" height="16" viewBox="0 0 16 16" class="rollup1" style="height:16px;margin-right:8px;width:16px;perspective-origin:8px 8px;transform-origin:8px 8px;shape-rendering:geometricprecision;" version="1.1" xmlns="http://www.w3.org/2000/svg" xmlns:xlink="http://www.w3.org/1999/xlink"><path fill-rule="evenodd" class="" fill="currentColor" d="M8.3 14.942a7.404 7.404 0 0 1-4.124-1.265 7.137 7.137 0 0 1-3.047-4.556 7.067 7.067 0 0 1 1.03-5.208c.972-1.478 2.425-2.474 4.09-2.802a6.093 6.093 0 0 1 4.63.987 5.86 5.86 0 0 1 2.451 3.784 5.746 5.746 0 0 1-.908 4.233c-.805 1.177-1.988 1.956-3.334 2.193a4.844 4.844 0 0 1-3.675-.866 4.583 4.583 0 0 1-1.85-3.014 4.423 4.423 0 0 1 .794-3.26c.638-.874 1.554-1.434 2.58-1.576a3.59 3.59 0 0 1 2.722.756 3.3 3.3 0 0 1 1.239 2.25c.084.825-.17 1.66-.698 2.29a2.568 2.568 0 0 1-1.839.941 2.354 2.354 0 0 1-1.776-.686 2.001 2.001 0 0 1-.589-1.51c.024-.524.305-1.052.716-1.344a1.272 1.272 0 0 1 1.15-.187c.328.106.51.462.407.797a.62.62 0 0 1-.781.415c-.018-.006-.028-.01-.063.016a.535.535 0 0 0-.185.362c-.009.206.066.39.223.55.21.213.53.333.833.319.467-.025.778-.285.956-.498.303-.361.455-.86.406-1.334a2.032 2.032 0 0 0-.769-1.383 2.35 2.35 0 0 0-1.784-.496c-.691.096-1.312.478-1.749 1.076-.481.66-.686 1.5-.562 2.304.134.87.612 1.644 1.344 2.18.792.577 1.79.813 2.738.646 1.015-.179 1.911-.77 2.524-1.667a4.45 4.45 0 0 0 .705-3.277 4.597 4.597 0 0 0-1.927-2.965 4.862 4.862 0 0 0-3.692-.79c-1.337.264-2.507 1.067-3.293 2.263a5.769 5.769 0 0 0-.843 4.25c.3 1.527 1.193 2.858 2.513 3.748 1.37.924 3.064 1.262 4.647.929 2.84-.6 5.019-3.228 5.178-6.252a.627.627 0 0 1 .656-.6.63.63 0 0 1 .588.669c-.19 3.59-2.784 6.713-6.17 7.426a7.114 7.114 0 0 1-1.462.152z" style="display:inline;height:auto;min-height:0px;min-width:0px;overflow-x:visible;overflow-y:visible;width:auto;perspective-origin:0px 0px;transform-origin:0px 0px;fill:rgb(51, 51, 51);fill-rule:evenodd;shape-rendering:geometricprecision;d:path(&quot;M 8.3 14.942 A 7.404 7.404 0 0 1 4.176 13.677 A 7.137 7.137 0 0 1 1.129 9.121 A 7.067 7.067 0 0 1 2.159 3.913 C 3.131 2.435 4.584 1.439 6.249 1.111 A 6.093 6.093 0 0 1 10.879 2.098 A 5.86 5.86 0 0 1 13.33 5.882 A 5.746 5.746 0 0 1 12.422 10.115 C 11.617 11.292 10.434 12.071 9.088 12.308 A 4.844 4.844 0 0 1 5.413 11.442 A 4.583 4.583 0 0 1 3.563 8.428 A 4.423 4.423 0 0 1 4.357 5.168 C 4.995 4.294 5.911 3.734 6.937 3.592 A 3.59 3.59 0 0 1 9.659 4.348 A 3.3 3.3 0 0 1 10.898 6.598 C 10.982 7.423 10.728 8.258 10.2 8.888 A 2.568 2.568 0 0 1 8.361 9.829 A 2.354 2.354 0 0 1 6.585 9.143 A 2.001 2.001 0 0 1 5.996 7.633 C 6.02 7.109 6.301 6.581 6.712 6.289 A 1.272 1.272 0 0 1 7.862 6.102 C 8.19 6.208 8.372 6.564 8.269 6.899 A 0.62 0.62 0 0 1 7.488 7.314 C 7.47 7.308 7.46 7.304 7.425 7.33 A 0.535 0.535 0 0 0 7.24 7.692 C 7.231 7.898 7.306 8.082 7.463 8.242 C 7.673 8.455 7.993 8.575 8.296 8.561 C 8.763 8.536 9.074 8.276 9.252 8.063 C 9.555 7.702 9.707 7.203 9.658 6.729 A 2.032 2.032 0 0 0 8.889 5.346 A 2.35 2.35 0 0 0 7.105 4.85 C 6.414 4.946 5.793 5.328 5.356 5.926 C 4.875 6.586 4.67 7.426 4.794 8.23 C 4.928 9.1 5.406 9.874 6.138 10.41 C 6.93 10.987 7.928 11.223 8.876 11.056 C 9.891 10.877 10.787 10.286 11.4 9.389 A 4.45 4.45 0 0 0 12.105 6.112 A 4.597 4.597 0 0 0 10.178 3.147 A 4.862 4.862 0 0 0 6.486 2.357 C 5.149 2.621 3.979 3.424 3.193 4.62 A 5.769 5.769 0 0 0 2.35 8.87 C 2.65 10.397 3.543 11.728 4.863 12.618 C 6.233 13.542 7.927 13.88 9.51 13.547 C 12.35 12.947 14.529 10.319 14.688 7.295 A 0.627 0.627 0 0 1 15.344 6.695 A 0.63 0.63 0 0 1 15.932 7.364 C 15.742 10.954 13.148 14.077 9.762 14.79 A 7.114 7.114 0 0 1 8.3 14.942 Z&quot;);"/></svg>