<?xml version="1.0" standalone="no"?><!DOCTYPE svg PUBLIC "-//W3C//DTD SVG 1.1//EN" "http://www.w3.org/Graphics/SVG/1.1/DTD/svg11.dtd"><svg width="12" height="12" viewBox="0 0 12 12" version="1.1" xmlns="http://www.w3.org/2000/svg" xmlns:xlink="http://www.w3.org/1999/xlink"><path fill-rule="evenodd" fill="currentColor" d="M8,0 C10.209,0 12,1.791 12,4 C12,5.105 11.552,6.105 10.828,6.828 C10.105,7.552 7.476,10.268 6.644,11.001 C5.94,11.623 5.014,12 4,12 C1.791,12 0,10.209 0,8 C0,6.804 0.525,5.73 1.357,4.997 C2.062,4.376 4.586,1.609 5.501,0.876 C6.186,0.328 7.055,0 8,0 Z M7,8 C7,7.95 6.988,7.903 6.985,7.854 C6.91,6.316 5.684,5.09 4.146,5.015 C4.097,5.012 4.05,5 4,5 C2.343,5 1,6.343 1,8 C1,9.657 2.343,11 4,11 C5.657,11 7,9.657 7,8 Z M5,8 C5,8.552 4.552,9 4,9 C3.448,9 3,8.552 3,8 C3,7.448 3.448,7 4,7 C4.552,7 5,7.448 5,8 Z"/></svg>