<?xml version="1.0" standalone="no"?><!DOCTYPE svg PUBLIC "-//W3C//DTD SVG 1.1//EN" "http://www.w3.org/Graphics/SVG/1.1/DTD/svg11.dtd"><svg width="12" height="12" viewBox="0 0 12 12" class="rollup1Micro" version="1.1" xmlns="http://www.w3.org/2000/svg" xmlns:xlink="http://www.w3.org/1999/xlink"><path fill-rule="evenodd" fill="currentColor" d="M6.343 11.204a5.419 5.419 0 0 1-3.019-.926 5.223 5.223 0 0 1-2.23-3.335 5.172 5.172 0 0 1 .754-3.811c.712-1.082 1.775-1.81 2.994-2.05a4.46 4.46 0 0 1 3.389.722 4.289 4.289 0 0 1 1.793 2.769 4.205 4.205 0 0 1-.665 3.098c-.588.861-1.455 1.431-2.44 1.605a3.545 3.545 0 0 1-2.69-.634 3.354 3.354 0 0 1-1.353-2.206 3.237 3.237 0 0 1 .58-2.386 2.811 2.811 0 0 1 1.89-1.153 2.627 2.627 0 0 1 1.991.553c.518.415.84 1 .907 1.647a2.264 2.264 0 0 1-.51 1.676 1.88 1.88 0 0 1-1.346.689 1.723 1.723 0 0 1-1.3-.503c-.297-.3-.45-.692-.431-1.104.017-.384.223-.77.523-.984a.931.931 0 0 1 .842-.137c.24.078.373.338.298.583a.454.454 0 0 1-.572.304c-.012-.004-.02-.007-.046.011-.069.05-.13.171-.135.266a.522.522 0 0 0 .163.402.824.824 0 0 0 .61.234.976.976 0 0 0 .7-.365c.221-.264.333-.629.297-.976a1.487 1.487 0 0 0-.563-1.012 1.72 1.72 0 0 0-1.306-.363c-.506.07-.96.35-1.28.787a2.289 2.289 0 0 0-.411 1.687c.098.636.448 1.203.984 1.594a2.64 2.64 0 0 0 2.003.474c.743-.131 1.4-.564 1.847-1.22a3.257 3.257 0 0 0 .516-2.399 3.364 3.364 0 0 0-1.41-2.17 3.558 3.558 0 0 0-2.702-.578c-.979.193-1.834.781-2.41 1.656a4.222 4.222 0 0 0-.617 3.111 4.3 4.3 0 0 0 1.84 2.743 4.472 4.472 0 0 0 3.4.68c2.08-.439 3.673-2.363 3.79-4.576a.459.459 0 0 1 .48-.439.461.461 0 0 1 .43.49c-.138 2.626-2.038 4.912-4.515 5.435-.353.074-.712.11-1.07.11z"/></svg>