<?xml version="1.0" standalone="no"?><!DOCTYPE svg PUBLIC "-//W3C//DTD SVG 1.1//EN" "http://www.w3.org/Graphics/SVG/1.1/DTD/svg11.dtd"><svg width="16" height="16" viewBox="0 0 16 16" class="rollup" style="height:16px;margin-right:8px;width:16px;perspective-origin:8px 8px;transform-origin:8px 8px;shape-rendering:geometricprecision;" version="1.1" xmlns="http://www.w3.org/2000/svg" xmlns:xlink="http://www.w3.org/1999/xlink"><path fill-rule="evenodd" class="" fill="currentColor" d="M6,14 C3.791,14 2,12.209 2,10 C2,7.791 3.791,6 6,6 C8.209,6 10,7.791 10,10 C10,12.209 8.209,14 6,14 M10,0 C13.314,0 16,2.686 16,6 C16,7.232 15.629,8.376 14.992,9.328 C14.229,10.47 10.6,14.052 9.586,14.81 C8.586,15.557 7.345,16 6,16 C2.686,16 0,13.314 0,10 C0,8.617 0.468,7.343 1.255,6.329 C2.008,5.358 5.39,1.962 6.394,1.205 C7.397,0.449 8.646,0 10,0 Z M8,10 C8,8.895 7.105,8 6,8 C4.895,8 4,8.895 4,10 C4,11.105 4.895,12 6,12 C7.105,12 8,11.105 8,10 Z" style="display:inline;height:auto;min-height:0px;min-width:0px;overflow-x:visible;overflow-y:visible;width:auto;perspective-origin:0px 0px;transform-origin:0px 0px;fill:rgb(51, 51, 51);fill-rule:evenodd;shape-rendering:geometricprecision;d:path(&quot;M 6 14 C 3.791 14 2 12.209 2 10 C 2 7.791 3.791 6 6 6 C 8.209 6 10 7.791 10 10 C 10 12.209 8.209 14 6 14 M 10 0 C 13.314 0 16 2.686 16 6 C 16 7.232 15.629 8.376 14.992 9.328 C 14.229 10.47 10.6 14.052 9.586 14.81 C 8.586 15.557 7.345 16 6 16 C 2.686 16 0 13.314 0 10 C 0 8.617 0.468 7.343 1.255 6.329 C 2.008 5.358 5.39 1.962 6.394 1.205 C 7.397 0.449 8.646 0 10 0 Z M 8 10 C 8 8.895 7.105 8 6 8 C 4.895 8 4 8.895 4 10 C 4 11.105 4.895 12 6 12 C 7.105 12 8 11.105 8 10 Z&quot;);"/></svg>