<?xml version="1.0" standalone="no"?><!DOCTYPE svg PUBLIC "-//W3C//DTD SVG 1.1//EN" "http://www.w3.org/Graphics/SVG/1.1/DTD/svg11.dtd"><svg width="12" height="12" viewBox="0 0 12 12" version="1.1" xmlns="http://www.w3.org/2000/svg" xmlns:xlink="http://www.w3.org/1999/xlink"><path fill-rule="evenodd" fill="currentColor" d="M10 3.415l.001.015v5.148h.625c.299 0 .478.37.312.646l-.902 1.42c-.297.468-.774.465-1.07 0l-.9-1.42c-.167-.276.012-.646.311-.646h.625V3.43a.5.5 0 0 1 0-.015h-.626c-.3 0-.479-.37-.312-.645l.901-1.42c.298-.469.774-.465 1.07 0l.901 1.42c.167.276-.012.645-.312.645h-.623zM1.5 1h5a.5.5 0 0 1 .5.5v3a.5.5 0 0 1-.5.5h-5a.5.5 0 0 1-.5-.5v-3a.5.5 0 0 1 .5-.5zm0 6h5a.5.5 0 0 1 0 1h-5a.5.5 0 0 1 0-1zm0 3h5a.5.5 0 1 1 0 1h-5a.5.5 0 1 1 0-1z"/></svg>