<?xml version="1.0" standalone="no"?><!DOCTYPE svg PUBLIC "-//W3C//DTD SVG 1.1//EN" "http://www.w3.org/Graphics/SVG/1.1/DTD/svg11.dtd"><svg width="16" height="16" viewBox="0 0 16 16" class="rowHeightMedium" style="height:16px;margin-right:8px;width:16px;perspective-origin:8px 8px;transform-origin:8px 8px;shape-rendering:geometricprecision;" version="1.1" xmlns="http://www.w3.org/2000/svg" xmlns:xlink="http://www.w3.org/1999/xlink"><path fill-rule="evenodd" class="" fill="currentColor" d="M12.002 11.511v-7h-.626c-.3 0-.479-.37-.312-.645l1.422-1.645a.7.7 0 0 1 1.059 0l1.422 1.645c.166.276-.013.646-.312.646H14v7h.655c.3 0 .478.37.312.645l-1.417 1.677a.7.7 0 0 1-1.07 0l-1.416-1.677c-.167-.276.012-.646.312-.646h.626zM1.5 2h8a.5.5 0 0 1 .5.5v5.02a.5.5 0 0 1-.5.5h-8a.5.5 0 0 1-.5-.5V2.5a.5.5 0 0 1 .5-.5zm0 8h8a.5.5 0 1 1 0 1h-8a.5.5 0 1 1 0-1zm0 3h8a.5.5 0 1 1 0 1h-8a.5.5 0 1 1 0-1z" style="display:inline;height:auto;min-height:0px;min-width:0px;overflow-x:visible;overflow-y:visible;width:auto;perspective-origin:0px 0px;transform-origin:0px 0px;fill:rgb(51, 51, 51);fill-rule:evenodd;shape-rendering:geometricprecision;d:path(&quot;M 12.002 11.511 V 4.511 H 11.376 C 11.076 4.511 10.897 4.141 11.064 3.866 L 12.486 2.221 A 0.7 0.7 0 0 1 13.545 2.221 L 14.967 3.866 C 15.133 4.142 14.954 4.512 14.655 4.512 H 14 V 11.512 H 14.655 C 14.955 11.512 15.133 11.882 14.967 12.157 L 13.55 13.834 A 0.7 0.7 0 0 1 12.48 13.834 L 11.064 12.157 C 10.897 11.881 11.076 11.511 11.376 11.511 H 12.002 Z M 1.5 2 H 9.5 A 0.5 0.5 0 0 1 10 2.5 V 7.52 A 0.5 0.5 0 0 1 9.5 8.02 H 1.5 A 0.5 0.5 0 0 1 1 7.52 V 2.5 A 0.5 0.5 0 0 1 1.5 2 Z M 1.5 10 H 9.5 A 0.5 0.5 0 1 1 9.5 11 H 1.5 A 0.5 0.5 0 1 1 1.5 10 Z M 1.5 13 H 9.5 A 0.5 0.5 0 1 1 9.5 14 H 1.5 A 0.5 0.5 0 1 1 1.5 13 Z&quot;);"/></svg>