<?xml version="1.0" standalone="no"?><!DOCTYPE svg PUBLIC "-//W3C//DTD SVG 1.1//EN" "http://www.w3.org/Graphics/SVG/1.1/DTD/svg11.dtd"><svg width="12" height="12" viewBox="0 0 12 12" class="rowHeightExtraLargeMicro" style="height:12px;margin-right:16px;width:12px;perspective-origin:6px 6px;transform-origin:6px 6px;shape-rendering:geometricprecision;" version="1.1" xmlns="http://www.w3.org/2000/svg" xmlns:xlink="http://www.w3.org/1999/xlink"><path fill-rule="evenodd" class="" fill="currentColor" d="M10 3.415l.001.015v5.148h.625c.299 0 .478.37.312.646l-.902 1.42c-.297.468-.774.465-1.07 0l-.9-1.42c-.167-.276.012-.646.311-.646h.625V3.43a.5.5 0 0 1 0-.015h-.626c-.3 0-.479-.37-.312-.645l.901-1.42c.298-.469.774-.465 1.07 0l.901 1.42c.167.276-.012.645-.312.645h-.623zM1.5 1h5a.5.5 0 0 1 .5.5v9a.5.5 0 0 1-.5.5h-5a.5.5 0 0 1-.5-.5v-9a.5.5 0 0 1 .5-.5z" style="display:inline;height:auto;min-height:0px;min-width:0px;overflow-x:visible;overflow-y:visible;width:auto;perspective-origin:0px 0px;transform-origin:0px 0px;fill:rgb(51, 51, 51);fill-rule:evenodd;shape-rendering:geometricprecision;d:path(&quot;M 10 3.415 L 10.001 3.43 V 8.578 H 10.626 C 10.925 8.578 11.104 8.948 10.938 9.224 L 10.036 10.644 C 9.739 11.112 9.262 11.109 8.966 10.644 L 8.066 9.224 C 7.899 8.948 8.078 8.578 8.377 8.578 H 9.002 V 3.43 A 0.5 0.5 0 0 1 9.002 3.415 H 8.376 C 8.076 3.415 7.897 3.045 8.064 2.77 L 8.965 1.35 C 9.263 0.881 9.739 0.885 10.035 1.35 L 10.936 2.77 C 11.103 3.046 10.924 3.415 10.624 3.415 H 10.001 Z M 1.5 1 H 6.5 A 0.5 0.5 0 0 1 7 1.5 V 10.5 A 0.5 0.5 0 0 1 6.5 11 H 1.5 A 0.5 0.5 0 0 1 1 10.5 V 1.5 A 0.5 0.5 0 0 1 1.5 1 Z&quot;);"/></svg>