<?xml version="1.0" standalone="no"?><!DOCTYPE svg PUBLIC "-//W3C//DTD SVG 1.1//EN" "http://www.w3.org/Graphics/SVG/1.1/DTD/svg11.dtd"><svg width="16" height="16" viewBox="0 0 16 16" version="1.1" xmlns="http://www.w3.org/2000/svg" xmlns:xlink="http://www.w3.org/1999/xlink"><path fill-rule="evenodd" fill="currentColor" d="M12.002 11.511v-7h-.626c-.3 0-.479-.37-.312-.645l1.422-1.645a.7.7 0 0 1 1.059 0l1.422 1.645c.166.276-.013.646-.312.646H14v7h.655c.3 0 .478.37.312.645l-1.417 1.677a.7.7 0 0 1-1.07 0l-1.416-1.677c-.167-.276.012-.646.312-.646h.626zM1.5 2h8a.5.5 0 0 1 .5.5v11.023a.5.5 0 0 1-.5.5h-8a.5.5 0 0 1-.5-.5V2.5a.5.5 0 0 1 .5-.5z"/></svg>