<?xml version="1.0" standalone="no"?><!DOCTYPE svg PUBLIC "-//W3C//DTD SVG 1.1//EN" "http://www.w3.org/Graphics/SVG/1.1/DTD/svg11.dtd"><svg width="16" height="16" viewBox="0 0 16 16" version="1.1" xmlns="http://www.w3.org/2000/svg" xmlns:xlink="http://www.w3.org/1999/xlink"><path fill-rule="evenodd" fill="currentColor" d="M6.1485,10.2969 C4.1335,10.2969 2.5005,8.6639 2.5005,6.6489 C2.5005,4.6339 4.1335,2.9999 6.1485,2.9999 C8.1635,2.9999 9.7965,4.6339 9.7965,6.6489 C9.7965,8.6639 8.1635,10.2969 6.1485,10.2969 M14.2075,12.6429 L11.0995,9.7069 C11.0555,9.6629 10.9995,9.6419 10.9505,9.6079 C11.4835,8.7459 11.7965,7.7339 11.7965,6.6489 C11.7965,3.5339 9.2635,0.9999 6.1485,0.9999 C3.0335,0.9999 0.5005,3.5339 0.5005,6.6489 C0.5005,9.7629 3.0335,12.2969 6.1485,12.2969 C7.1495,12.2969 8.0885,12.0329 8.9045,11.5739 C8.9455,11.6409 8.9765,11.7129 9.0355,11.7709 L12.1435,14.7069 C12.5335,15.0979 13.1665,15.0979 13.5575,14.7069 L14.2075,14.0569 C14.5975,13.6669 14.5975,13.0339 14.2075,12.6429"/></svg>