<?xml version="1.0" standalone="no"?><!DOCTYPE svg PUBLIC "-//W3C//DTD SVG 1.1//EN" "http://www.w3.org/Graphics/SVG/1.1/DTD/svg11.dtd"><svg width="12" height="12" viewBox="0 0 12 12" class="searchMicro" style="height:12px;margin-right:16px;width:12px;perspective-origin:6px 6px;transform-origin:6px 6px;shape-rendering:geometricprecision;" version="1.1" xmlns="http://www.w3.org/2000/svg" xmlns:xlink="http://www.w3.org/1999/xlink"><path fill-rule="evenodd" class="" fill="currentColor" d="M2.5,5.5 C2.5,4.119 3.619,3 5,3 C6.381,3 7.5,4.119 7.5,5.5 C7.5,6.881 6.381,8 5,8 C3.619,8 2.5,6.881 2.5,5.5 M10.854,9.939 L8.433,7.519 C8.785,6.924 9,6.24 9,5.5 C9,3.294 7.206,1.5 5,1.5 C2.794,1.5 1,3.294 1,5.5 C1,7.706 2.794,9.5 5,9.5 C5.739,9.5 6.424,9.285 7.019,8.933 L9.439,11.354 C9.635,11.549 9.951,11.549 10.146,11.354 L10.854,10.646 C11.049,10.451 11.049,10.135 10.854,9.939" style="display:inline;height:auto;min-height:0px;min-width:0px;overflow-x:visible;overflow-y:visible;width:auto;perspective-origin:0px 0px;transform-origin:0px 0px;fill:rgb(51, 51, 51);fill-rule:evenodd;shape-rendering:geometricprecision;d:path(&quot;M 2.5 5.5 C 2.5 4.119 3.619 3 5 3 C 6.381 3 7.5 4.119 7.5 5.5 C 7.5 6.881 6.381 8 5 8 C 3.619 8 2.5 6.881 2.5 5.5 M 10.854 9.939 L 8.433 7.519 C 8.785 6.924 9 6.24 9 5.5 C 9 3.294 7.206 1.5 5 1.5 C 2.794 1.5 1 3.294 1 5.5 C 1 7.706 2.794 9.5 5 9.5 C 5.739 9.5 6.424 9.285 7.019 8.933 L 9.439 11.354 C 9.635 11.549 9.951 11.549 10.146 11.354 L 10.854 10.646 C 11.049 10.451 11.049 10.135 10.854 9.939&quot;);"/></svg>