<?xml version="1.0" standalone="no"?><!DOCTYPE svg PUBLIC "-//W3C//DTD SVG 1.1//EN" "http://www.w3.org/Graphics/SVG/1.1/DTD/svg11.dtd"><svg width="12" height="12" viewBox="0 0 12 12" version="1.1" xmlns="http://www.w3.org/2000/svg" xmlns:xlink="http://www.w3.org/1999/xlink"><path fill-rule="evenodd" fill="currentColor" d="M2.5,5.5 C2.5,4.119 3.619,3 5,3 C6.381,3 7.5,4.119 7.5,5.5 C7.5,6.881 6.381,8 5,8 C3.619,8 2.5,6.881 2.5,5.5 M10.854,9.939 L8.433,7.519 C8.785,6.924 9,6.24 9,5.5 C9,3.294 7.206,1.5 5,1.5 C2.794,1.5 1,3.294 1,5.5 C1,7.706 2.794,9.5 5,9.5 C5.739,9.5 6.424,9.285 7.019,8.933 L9.439,11.354 C9.635,11.549 9.951,11.549 10.146,11.354 L10.854,10.646 C11.049,10.451 11.049,10.135 10.854,9.939"/></svg>