<?xml version="1.0" standalone="no"?><!DOCTYPE svg PUBLIC "-//W3C//DTD SVG 1.1//EN" "http://www.w3.org/Graphics/SVG/1.1/DTD/svg11.dtd"><svg width="12" height="12" viewBox="0 0 12 12" version="1.1" xmlns="http://www.w3.org/2000/svg" xmlns:xlink="http://www.w3.org/1999/xlink"><path fill-rule="evenodd" fill="currentColor" d="M7,1 L11.5098039,1 C11.8039216,1 12,1.2 12,1.5 C12,1.8 11.8039216,2 11.5098039,2 L7,2 L7,1 Z M0.5,1 L2,1 L2,2 L0.5,2 C0.2,2 0,1.8 0,1.5 C0,1.2 0.2,1 0.5,1 Z M0.5,5 L8,5 L8,6 L0.5,6 C0.2,6 0,5.8 0,5.5 C0,5.2 0.2,5 0.5,5 Z M4.5,3 C3.67157288,3 3,2.32842712 3,1.5 C3,0.671572875 3.67157288,0 4.5,0 C5.32842712,0 6,0.671572875 6,1.5 C6,2.32842712 5.32842712,3 4.5,3 Z M11.5061728,10 L4,10 L4,9 L11.5061728,9 C11.8024691,9 12,9.2 12,9.5 C12,9.8 11.8024691,10 11.5061728,10 Z M1.5,11 C0.671572875,11 0,10.3284271 0,9.5 C0,8.67157288 0.671572875,8 1.5,8 C2.32842712,8 3,8.67157288 3,9.5 C3,10.3284271 2.32842712,11 1.5,11 Z M10.5,7 C9.67157288,7 9,6.32842712 9,5.5 C9,4.67157288 9.67157288,4 10.5,4 C11.3284271,4 12,4.67157288 12,5.5 C12,6.32842712 11.3284271,7 10.5,7 Z"/></svg>