<?xml version="1.0" standalone="no"?><!DOCTYPE svg PUBLIC "-//W3C//DTD SVG 1.1//EN" "http://www.w3.org/Graphics/SVG/1.1/DTD/svg11.dtd"><svg width="16" height="16" viewBox="0 0 16 16" class="settings" style="height:16px;margin-right:8px;width:16px;perspective-origin:8px 8px;transform-origin:8px 8px;shape-rendering:geometricprecision;" version="1.1" xmlns="http://www.w3.org/2000/svg" xmlns:xlink="http://www.w3.org/1999/xlink"><path fill-rule="evenodd" class="" fill="currentColor" d="M10,2 L14.0001925,2 C14.5562834,2 15,2.44771525 15,3 C15,3.55613518 14.5523709,4 14.0001925,4 L10,4 L10,2 Z M10,9 L1.99754464,9 C1.44631139,9 0.999999995,8.55228475 0.999999995,8 C0.999999995,7.44386482 1.44661595,7 1.99754464,7 L10,7 L10,9 Z M1.99895656,2 L4,2 L4,4 L1.99895657,4 C1.44266034,4 1.00000001,3.55228475 1.00000001,3 C1,2.44386482 1.44724809,2 1.99895656,2 Z M7,1 C8.105,1 9,1.895 9,3 C9,4.105 8.105,5 7,5 C5.895,5 5,4.105 5,3 C5,1.895 5.895,1 7,1 Z M13,6 C14.105,6 15,6.895 15,8 C15,9.105 14.105,10 13,10 C11.895,10 11,9.105 11,8 C11,6.895 11.895,6 13,6 Z M3,11 C4.105,11 5,11.895 5,13 C5,14.105 4.105,15 3,15 C1.895,15 1,14.105 1,13 C1,11.895 1.895,11 3,11 Z M6,14 L6,12 L14.0024554,12 C14.553384,12 15,12.4438648 15,13 C15,13.5522847 14.5536886,14 14.0024554,14 L6,14 Z" style="display:inline;height:auto;min-height:0px;min-width:0px;overflow-x:visible;overflow-y:visible;width:auto;perspective-origin:0px 0px;transform-origin:0px 0px;fill:rgb(51, 51, 51);fill-rule:evenodd;shape-rendering:geometricprecision;d:path(&quot;M 10 2 L 14.0002 2 C 14.5563 2 15 2.44772 15 3 C 15 3.55614 14.5524 4 14.0002 4 L 10 4 L 10 2 Z M 10 9 L 1.99754 9 C 1.44631 9 1 8.55228 1 8 C 1 7.44386 1.44662 7 1.99754 7 L 10 7 L 10 9 Z M 1.99896 2 L 4 2 L 4 4 L 1.99896 4 C 1.44266 4 1 3.55228 1 3 C 1 2.44386 1.44725 2 1.99896 2 Z M 7 1 C 8.105 1 9 1.895 9 3 C 9 4.105 8.105 5 7 5 C 5.895 5 5 4.105 5 3 C 5 1.895 5.895 1 7 1 Z M 13 6 C 14.105 6 15 6.895 15 8 C 15 9.105 14.105 10 13 10 C 11.895 10 11 9.105 11 8 C 11 6.895 11.895 6 13 6 Z M 3 11 C 4.105 11 5 11.895 5 13 C 5 14.105 4.105 15 3 15 C 1.895 15 1 14.105 1 13 C 1 11.895 1.895 11 3 11 Z M 6 14 L 6 12 L 14.0025 12 C 14.5534 12 15 12.4439 15 13 C 15 13.5523 14.5537 14 14.0025 14 L 6 14 Z&quot;);"/></svg>