<?xml version="1.0" standalone="no"?><!DOCTYPE svg PUBLIC "-//W3C//DTD SVG 1.1//EN" "http://www.w3.org/Graphics/SVG/1.1/DTD/svg11.dtd"><svg width="16" height="16" viewBox="0 0 16 16" version="1.1" xmlns="http://www.w3.org/2000/svg" xmlns:xlink="http://www.w3.org/1999/xlink"><path fill-rule="evenodd" fill="currentColor" d="M7.9258,11.6118 C7.9258,13.5238 6.3758,15.0748 4.4628,15.0748 C2.5508,15.0748 0.9998,13.5238 0.9998,11.6118 C0.9998,9.6998 2.5508,8.1488 4.4628,8.1488 C6.3758,8.1488 7.9258,9.6998 7.9258,11.6118 Z M9,13.5836948 L9,8.56570518 C9,8.30258048 9.21983051,8.0747 9.49100518,8.0747 L14.5089948,8.0747 C14.7721195,8.0747 15,8.29453051 15,8.56570518 L15,13.5836948 C15,13.8468195 14.7801695,14.0747 14.5089948,14.0747 L9.49100518,14.0747 C9.22788048,14.0747 9,13.8548695 9,13.5836948 Z M4.57122958,7.0747 C4.29264082,7.0747 4.18348417,6.87257388 4.31901479,6.63780098 L7.32158521,1.43659902 C7.46087959,1.19530635 7.69048417,1.20182612 7.82601479,1.43659902 L10.8285852,6.63780098 C10.9678796,6.87909365 10.8474317,7.0747 10.5763704,7.0747 L4.57122958,7.0747 Z"/></svg>