<?xml version="1.0" standalone="no"?><!DOCTYPE svg PUBLIC "-//W3C//DTD SVG 1.1//EN" "http://www.w3.org/Graphics/SVG/1.1/DTD/svg11.dtd"><svg width="12" height="12" viewBox="0 0 12 12" version="1.1" xmlns="http://www.w3.org/2000/svg" xmlns:xlink="http://www.w3.org/1999/xlink"><path fill-rule="evenodd" fill="currentColor" d="M6,1.1667 C6.827,1.1667 7.5,1.8397 7.5,2.6667 C7.5,3.4937 6.827,4.1667 6,4.1667 C5.448,4.1667 4.97,3.8637 4.71,3.4187 C3.979,3.7097 3.352,4.2397 2.952,4.9437 C2.86,5.1067 2.691,5.1977 2.517,5.1977 C2.433,5.1977 2.349,5.1777 2.271,5.1327 C2.03,4.9967 1.946,4.6917 2.082,4.4517 C2.628,3.4877 3.507,2.7817 4.524,2.4267 C4.64,1.7137 5.255,1.1667 6,1.1667 Z M10.4123,7.5018 C10.7553,7.7768 10.9793,8.1938 10.9793,8.6668 C10.9793,9.4938 10.3063,10.1668 9.4793,10.1668 C8.6523,10.1668 7.9793,9.4938 7.9793,8.6668 C7.9793,7.8458 8.6433,7.1778 9.4623,7.1688 C9.4863,7.0028 9.5003,6.8358 9.5003,6.6668 C9.5003,6.0878 9.3563,5.5148 9.0833,5.0088 C8.9513,4.7658 9.0423,4.4628 9.2853,4.3308 C9.5283,4.2018 9.8313,4.2898 9.9633,4.5338 C10.3143,5.1838 10.5003,5.9228 10.5003,6.6668 C10.5003,6.9488 10.4643,7.2268 10.4123,7.5018 Z M6,10.1667 C6.276,10.1667 6.5,10.3907 6.5,10.6667 C6.5,10.9427 6.276,11.1667 6,11.1667 C4.906,11.1667 3.867,10.7557 3.059,10.0577 C2.887,10.1267 2.701,10.1667 2.505,10.1667 C1.678,10.1667 1.005,9.4937 1.005,8.6667 C1.005,7.8397 1.678,7.1667 2.505,7.1667 C3.333,7.1667 4.005,7.8397 4.005,8.6667 C4.005,8.9297 3.931,9.1747 3.811,9.3897 C4.425,9.8817 5.194,10.1667 6,10.1667 Z"/></svg>