<?xml version="1.0" standalone="no"?><!DOCTYPE svg PUBLIC "-//W3C//DTD SVG 1.1//EN" "http://www.w3.org/Graphics/SVG/1.1/DTD/svg11.dtd"><svg width="16" height="16" viewBox="0 0 16 16" class="share1" style="height:16px;margin-right:8px;width:16px;perspective-origin:8px 8px;transform-origin:8px 8px;shape-rendering:geometricprecision;" version="1.1" xmlns="http://www.w3.org/2000/svg" xmlns:xlink="http://www.w3.org/1999/xlink"><path fill-rule="evenodd" class="" fill="currentColor" d="M4.0338962,12 C4.039975,12 4.04202029,11.999381 4.04264508,12 L4.0338962,12 Z M12,9.5 C12,8.94771525 12.4477153,8.5 13,8.5 C13.5522847,8.5 14,8.94771525 14,9.5 L14,12.0064025 C14,13.0966041 13.1067329,14 12.0088582,14 L4.0338962,14 C2.94133314,14 2.04275439,13.1037881 2.04275439,12.0046024 L2.04275439,3.99539757 C2.04275439,2.90017343 2.94191902,2 4.04394285,2 L6,2 C6.55228475,2 7,2.44771525 7,3 C7,3.55228475 6.55228475,4 6,4 C6,4 4.04275439,4.00424121 4.04275439,3.99539757 C4.04275439,3.99539757 4.04268791,12.0000424 4.04264508,12 C4.04264508,12 12.000729,11.9992535 12,12.0064025 L12,9.5 Z M11.3901883,5.99545798 L8.85626073,8.52938555 C8.38989727,8.99574901 7.63695194,8.99892824 7.16724666,8.52922296 C6.70079341,8.06276971 6.69741624,7.30987673 7.16708407,6.8402089 L9.70101165,4.30628132 L8.8486345,3.45390417 C8.39272337,2.99799304 8.54112219,2.54149221 9.19403103,2.44821952 L12.7417573,1.94140149 C13.3992922,1.84746792 13.8483408,2.30180353 13.7550681,2.95471237 L13.2482501,6.5024386 C13.1543165,7.15997357 12.7047171,7.30998673 12.2425655,6.84783513 L11.3901883,5.99545798 L11.3901883,5.99545798 Z" style="display:inline;height:auto;min-height:0px;min-width:0px;overflow-x:visible;overflow-y:visible;width:auto;perspective-origin:0px 0px;transform-origin:0px 0px;fill:rgb(51, 51, 51);fill-rule:evenodd;shape-rendering:geometricprecision;d:path(&quot;M 4.0339 12 C 4.03998 12 4.04202 11.9994 4.04264 12 L 4.0339 12 Z M 12 9.5 C 12 8.94772 12.4477 8.5 13 8.5 C 13.5523 8.5 14 8.94772 14 9.5 L 14 12.0064 C 14 13.0966 13.1067 14 12.0089 14 L 4.0339 14 C 2.94133 14 2.04275 13.1038 2.04275 12.0046 L 2.04275 3.9954 C 2.04275 2.90017 2.94192 2 4.04394 2 L 6 2 C 6.55228 2 7 2.44772 7 3 C 7 3.55228 6.55228 4 6 4 C 6 4 4.04275 4.00424 4.04275 3.9954 C 4.04275 3.9954 4.04269 12 4.04264 12 C 4.04264 12 12.0007 11.9993 12 12.0064 L 12 9.5 Z M 11.3902 5.99546 L 8.85626 8.52939 C 8.3899 8.99575 7.63695 8.99893 7.16725 8.52922 C 6.70079 8.06277 6.69742 7.30988 7.16708 6.84021 L 9.70101 4.30628 L 8.84863 3.4539 C 8.39272 2.99799 8.54112 2.54149 9.19403 2.44822 L 12.7418 1.9414 C 13.3993 1.84747 13.8483 2.3018 13.7551 2.95471 L 13.2483 6.50244 C 13.1543 7.15997 12.7047 7.30999 12.2426 6.84784 L 11.3902 5.99546 L 11.3902 5.99546 Z&quot;);"/></svg>