<?xml version="1.0" standalone="no"?><!DOCTYPE svg PUBLIC "-//W3C//DTD SVG 1.1//EN" "http://www.w3.org/Graphics/SVG/1.1/DTD/svg11.dtd"><svg width="12" height="12" viewBox="0 0 12 12" class="share1Micro" version="1.1" xmlns="http://www.w3.org/2000/svg" xmlns:xlink="http://www.w3.org/1999/xlink"><path fill-rule="evenodd" fill="currentColor" d="M2.99703014,9 L9,9 L9,8 C9,7.44771525 9.44771525,7 10,7 C10.5522847,7 11,7.44771525 11,8 L11,9 C11,10.1070205 10.1072982,11 9.00296986,11 L2.99703014,11 C1.89948105,11 1,10.1046444 1,9.00296986 L1,2.99703014 C1,1.89881753 1.89736015,1 3,1 L4,1 C4.55228475,1 5,1.44771525 5,2 C5,2.55228475 4.55228475,3 4,3 C4,3 3,2.99855692 3,2.99703014 C3,2.99703014 3.00022068,9.00044125 2.99703014,9 Z M8.34999755,5.01952117 L6.22854108,7.14097764 C5.83809197,7.53142675 5.2077106,7.53408847 4.81446364,7.14084151 C4.42393935,6.75031722 4.42111191,6.11997968 4.81432752,5.72676408 L6.93578398,3.60530761 L6.22215624,2.89167987 C5.84045803,2.50998165 5.96470059,2.12778974 6.51132934,2.04969991 L9.48155897,1.6253814 C10.0320608,1.54673827 10.4080136,1.92711743 10.3299238,2.47374618 L9.90560524,5.44397581 C9.82696212,5.99447766 9.45054815,6.12007178 9.06362529,5.73314891 L8.34999755,5.01952117 L8.34999755,5.01952117 Z"/></svg>