<?xml version="1.0" standalone="no"?><!DOCTYPE svg PUBLIC "-//W3C//DTD SVG 1.1//EN" "http://www.w3.org/Graphics/SVG/1.1/DTD/svg11.dtd"><svg width="12" height="12" viewBox="0 0 12 12" class="share1Micro" style="height:12px;margin-right:16px;width:12px;perspective-origin:6px 6px;transform-origin:6px 6px;shape-rendering:geometricprecision;" version="1.1" xmlns="http://www.w3.org/2000/svg" xmlns:xlink="http://www.w3.org/1999/xlink"><path fill-rule="evenodd" class="" fill="currentColor" d="M2.99703014,9 L9,9 L9,8 C9,7.44771525 9.44771525,7 10,7 C10.5522847,7 11,7.44771525 11,8 L11,9 C11,10.1070205 10.1072982,11 9.00296986,11 L2.99703014,11 C1.89948105,11 1,10.1046444 1,9.00296986 L1,2.99703014 C1,1.89881753 1.89736015,1 3,1 L4,1 C4.55228475,1 5,1.44771525 5,2 C5,2.55228475 4.55228475,3 4,3 C4,3 3,2.99855692 3,2.99703014 C3,2.99703014 3.00022068,9.00044125 2.99703014,9 Z M8.34999755,5.01952117 L6.22854108,7.14097764 C5.83809197,7.53142675 5.2077106,7.53408847 4.81446364,7.14084151 C4.42393935,6.75031722 4.42111191,6.11997968 4.81432752,5.72676408 L6.93578398,3.60530761 L6.22215624,2.89167987 C5.84045803,2.50998165 5.96470059,2.12778974 6.51132934,2.04969991 L9.48155897,1.6253814 C10.0320608,1.54673827 10.4080136,1.92711743 10.3299238,2.47374618 L9.90560524,5.44397581 C9.82696212,5.99447766 9.45054815,6.12007178 9.06362529,5.73314891 L8.34999755,5.01952117 L8.34999755,5.01952117 Z" style="display:inline;height:auto;min-height:0px;min-width:0px;overflow-x:visible;overflow-y:visible;width:auto;perspective-origin:0px 0px;transform-origin:0px 0px;fill:rgb(51, 51, 51);fill-rule:evenodd;shape-rendering:geometricprecision;d:path(&quot;M 2.99703 9 L 9 9 L 9 8 C 9 7.44772 9.44772 7 10 7 C 10.5523 7 11 7.44772 11 8 L 11 9 C 11 10.107 10.1073 11 9.00297 11 L 2.99703 11 C 1.89948 11 1 10.1046 1 9.00297 L 1 2.99703 C 1 1.89882 1.89736 1 3 1 L 4 1 C 4.55228 1 5 1.44772 5 2 C 5 2.55228 4.55228 3 4 3 C 4 3 3 2.99856 3 2.99703 C 3 2.99703 3.00022 9.00044 2.99703 9 Z M 8.35 5.01952 L 6.22854 7.14098 C 5.83809 7.53143 5.20771 7.53409 4.81446 7.14084 C 4.42394 6.75032 4.42111 6.11998 4.81433 5.72676 L 6.93578 3.60531 L 6.22216 2.89168 C 5.84046 2.50998 5.9647 2.12779 6.51133 2.0497 L 9.48156 1.62538 C 10.0321 1.54674 10.408 1.92712 10.3299 2.47375 L 9.90561 5.44398 C 9.82696 5.99448 9.45055 6.12007 9.06363 5.73315 L 8.35 5.01952 L 8.35 5.01952 Z&quot;);"/></svg>