<?xml version="1.0" standalone="no"?><!DOCTYPE svg PUBLIC "-//W3C//DTD SVG 1.1//EN" "http://www.w3.org/Graphics/SVG/1.1/DTD/svg11.dtd"><svg width="16" height="16" viewBox="0 0 16 16" class="share1" version="1.1" xmlns="http://www.w3.org/2000/svg" xmlns:xlink="http://www.w3.org/1999/xlink"><path fill-rule="evenodd" fill="currentColor" d="M4.0338962,12 C4.039975,12 4.04202029,11.999381 4.04264508,12 L4.0338962,12 Z M12,9.5 C12,8.94771525 12.4477153,8.5 13,8.5 C13.5522847,8.5 14,8.94771525 14,9.5 L14,12.0064025 C14,13.0966041 13.1067329,14 12.0088582,14 L4.0338962,14 C2.94133314,14 2.04275439,13.1037881 2.04275439,12.0046024 L2.04275439,3.99539757 C2.04275439,2.90017343 2.94191902,2 4.04394285,2 L6,2 C6.55228475,2 7,2.44771525 7,3 C7,3.55228475 6.55228475,4 6,4 C6,4 4.04275439,4.00424121 4.04275439,3.99539757 C4.04275439,3.99539757 4.04268791,12.0000424 4.04264508,12 C4.04264508,12 12.000729,11.9992535 12,12.0064025 L12,9.5 Z M11.3901883,5.99545798 L8.85626073,8.52938555 C8.38989727,8.99574901 7.63695194,8.99892824 7.16724666,8.52922296 C6.70079341,8.06276971 6.69741624,7.30987673 7.16708407,6.8402089 L9.70101165,4.30628132 L8.8486345,3.45390417 C8.39272337,2.99799304 8.54112219,2.54149221 9.19403103,2.44821952 L12.7417573,1.94140149 C13.3992922,1.84746792 13.8483408,2.30180353 13.7550681,2.95471237 L13.2482501,6.5024386 C13.1543165,7.15997357 12.7047171,7.30998673 12.2425655,6.84783513 L11.3901883,5.99545798 L11.3901883,5.99545798 Z"/></svg>