<?xml version="1.0" standalone="no"?><!DOCTYPE svg PUBLIC "-//W3C//DTD SVG 1.1//EN" "http://www.w3.org/Graphics/SVG/1.1/DTD/svg11.dtd"><svg width="16" height="16" viewBox="0 0 16 16" class="share" style="height:16px;margin-right:8px;width:16px;perspective-origin:8px 8px;transform-origin:8px 8px;shape-rendering:geometricprecision;" version="1.1" xmlns="http://www.w3.org/2000/svg" xmlns:xlink="http://www.w3.org/1999/xlink"><path fill-rule="evenodd" class="" fill="currentColor" d="M14.3923,9.6657 C14.8123,10.0317 15.0833,10.5647 15.0833,11.1667 C15.0833,12.2717 14.1883,13.1667 13.0833,13.1667 C11.9783,13.1667 11.0833,12.2717 11.0833,11.1667 C11.0833,10.0617 11.9783,9.1667 13.0833,9.1667 C13.2163,9.1667 13.3463,9.1807 13.4733,9.2057 C13.5383,8.8647 13.5833,8.5197 13.5833,8.1667 C13.5833,6.6267 12.9313,5.1457 11.7933,4.1067 C11.5893,3.9207 11.5753,3.6037 11.7613,3.4007 C11.9483,3.1967 12.2643,3.1827 12.4683,3.3687 C13.8123,4.5977 14.5833,6.3467 14.5833,8.1667 C14.5833,8.6777 14.5073,9.1767 14.3923,9.6657 Z M13.0833,12.1667 C13.6353,12.1667 14.0833,11.7187 14.0833,11.1667 C14.0833,10.6147 13.6353,10.1667 13.0833,10.1667 C12.5313,10.1667 12.0833,10.6147 12.0833,11.1667 C12.0833,11.7187 12.5313,12.1667 13.0833,12.1667 Z M8.0833,0.1667 C9.1883,0.1667 10.0833,1.0617 10.0833,2.1667 C10.0833,3.2717 9.1883,4.1667 8.0833,4.1667 C7.2723,4.1667 6.5773,3.6817 6.2633,2.9877 C4.7313,3.5287 3.4723,4.7267 2.9043,6.3117 C2.8313,6.5157 2.6383,6.6427 2.4333,6.6427 C2.3773,6.6427 2.3203,6.6327 2.2653,6.6127 C2.0043,6.5207 1.8693,6.2327 1.9623,5.9737 C2.6553,4.0407 4.2123,2.5847 6.1023,1.9767 C6.1993,0.9627 7.0433,0.1667 8.0833,0.1667 Z M8.0833,3.1667 C8.6353,3.1667 9.0833,2.7187 9.0833,2.1667 C9.0833,1.6147 8.6353,1.1667 8.0833,1.1667 C7.5313,1.1667 7.0833,1.6147 7.0833,2.1667 C7.0833,2.7187 7.5313,3.1667 8.0833,3.1667 Z M10.1003,13.8427 C10.1703,14.1087 10.0113,14.3827 9.7443,14.4527 C9.2053,14.5947 8.6463,14.6667 8.0833,14.6667 C6.4603,14.6667 4.9533,14.0707 3.7853,13.0337 C3.5663,13.1157 3.3313,13.1667 3.0833,13.1667 C1.9783,13.1667 1.0833,12.2717 1.0833,11.1667 C1.0833,10.0617 1.9783,9.1667 3.0833,9.1667 C4.1883,9.1667 5.0833,10.0617 5.0833,11.1667 C5.0833,11.6497 4.9053,12.0877 4.6193,12.4327 C5.5823,13.2187 6.7893,13.6667 8.0833,13.6667 C8.5613,13.6667 9.0343,13.6057 9.4893,13.4857 C9.7563,13.4127 10.0293,13.5747 10.1003,13.8427 Z M3.0833,12.1667 C3.6353,12.1667 4.0833,11.7187 4.0833,11.1667 C4.0833,10.6147 3.6353,10.1667 3.0833,10.1667 C2.5313,10.1667 2.0833,10.6147 2.0833,11.1667 C2.0833,11.7187 2.5313,12.1667 3.0833,12.1667 Z" style="display:inline;height:auto;min-height:0px;min-width:0px;overflow-x:visible;overflow-y:visible;width:auto;perspective-origin:0px 0px;transform-origin:0px 0px;fill:rgb(51, 51, 51);fill-rule:evenodd;shape-rendering:geometricprecision;d:path(&quot;M 14.3923 9.6657 C 14.8123 10.0317 15.0833 10.5647 15.0833 11.1667 C 15.0833 12.2717 14.1883 13.1667 13.0833 13.1667 C 11.9783 13.1667 11.0833 12.2717 11.0833 11.1667 C 11.0833 10.0617 11.9783 9.1667 13.0833 9.1667 C 13.2163 9.1667 13.3463 9.1807 13.4733 9.2057 C 13.5383 8.8647 13.5833 8.5197 13.5833 8.1667 C 13.5833 6.6267 12.9313 5.1457 11.7933 4.1067 C 11.5893 3.9207 11.5753 3.6037 11.7613 3.4007 C 11.9483 3.1967 12.2643 3.1827 12.4683 3.3687 C 13.8123 4.5977 14.5833 6.3467 14.5833 8.1667 C 14.5833 8.6777 14.5073 9.1767 14.3923 9.6657 Z M 13.0833 12.1667 C 13.6353 12.1667 14.0833 11.7187 14.0833 11.1667 C 14.0833 10.6147 13.6353 10.1667 13.0833 10.1667 C 12.5313 10.1667 12.0833 10.6147 12.0833 11.1667 C 12.0833 11.7187 12.5313 12.1667 13.0833 12.1667 Z M 8.0833 0.1667 C 9.1883 0.1667 10.0833 1.0617 10.0833 2.1667 C 10.0833 3.2717 9.1883 4.1667 8.0833 4.1667 C 7.2723 4.1667 6.5773 3.6817 6.2633 2.9877 C 4.7313 3.5287 3.4723 4.7267 2.9043 6.3117 C 2.8313 6.5157 2.6383 6.6427 2.4333 6.6427 C 2.3773 6.6427 2.3203 6.6327 2.2653 6.6127 C 2.0043 6.5207 1.8693 6.2327 1.9623 5.9737 C 2.6553 4.0407 4.2123 2.5847 6.1023 1.9767 C 6.1993 0.9627 7.0433 0.1667 8.0833 0.1667 Z M 8.0833 3.1667 C 8.6353 3.1667 9.0833 2.7187 9.0833 2.1667 C 9.0833 1.6147 8.6353 1.1667 8.0833 1.1667 C 7.5313 1.1667 7.0833 1.6147 7.0833 2.1667 C 7.0833 2.7187 7.5313 3.1667 8.0833 3.1667 Z M 10.1003 13.8427 C 10.1703 14.1087 10.0113 14.3827 9.7443 14.4527 C 9.2053 14.5947 8.6463 14.6667 8.0833 14.6667 C 6.4603 14.6667 4.9533 14.0707 3.7853 13.0337 C 3.5663 13.1157 3.3313 13.1667 3.0833 13.1667 C 1.9783 13.1667 1.0833 12.2717 1.0833 11.1667 C 1.0833 10.0617 1.9783 9.1667 3.0833 9.1667 C 4.1883 9.1667 5.0833 10.0617 5.0833 11.1667 C 5.0833 11.6497 4.9053 12.0877 4.6193 12.4327 C 5.5823 13.2187 6.7893 13.6667 8.0833 13.6667 C 8.5613 13.6667 9.0343 13.6057 9.4893 13.4857 C 9.7563 13.4127 10.0293 13.5747 10.1003 13.8427 Z M 3.0833 12.1667 C 3.6353 12.1667 4.0833 11.7187 4.0833 11.1667 C 4.0833 10.6147 3.6353 10.1667 3.0833 10.1667 C 2.5313 10.1667 2.0833 10.6147 2.0833 11.1667 C 2.0833 11.7187 2.5313 12.1667 3.0833 12.1667 Z&quot;);"/></svg>