<?xml version="1.0" standalone="no"?><!DOCTYPE svg PUBLIC "-//W3C//DTD SVG 1.1//EN" "http://www.w3.org/Graphics/SVG/1.1/DTD/svg11.dtd"><svg width="12" height="12" viewBox="0 0 12 12" class="show1Micro" style="height:12px;margin-right:16px;width:12px;perspective-origin:6px 6px;transform-origin:6px 6px;shape-rendering:geometricprecision;" version="1.1" xmlns="http://www.w3.org/2000/svg" xmlns:xlink="http://www.w3.org/1999/xlink"><path fill-rule="evenodd" class="" fill="currentColor" d="M4.488 4.691a5.805 5.805 0 0 0-1.807.831c-.448.306-.771.604-.958.812a7.034 7.034 0 0 0 1.06.997C3.751 8.068 4.829 8.5 5.999 8.5c1.189 0 2.272-.407 3.235-1.098a6.716 6.716 0 0 0 1.042-.925 6.023 6.023 0 0 0-.975-.885 5.687 5.687 0 0 0-1.77-.879 2 2 0 1 1-3.044-.022zM.374 7.048c-.356-.414-.346-1.09.039-1.481 0 0 1.93-2.567 5.589-2.567 3.66 0 5.62 2.758 5.62 2.758.359.41.36 1.078-.03 1.484C11.592 7.242 9.5 10 6 10S.374 7.048.374 7.048z" style="display:inline;height:auto;min-height:0px;min-width:0px;overflow-x:visible;overflow-y:visible;width:auto;perspective-origin:0px 0px;transform-origin:0px 0px;fill:rgb(51, 51, 51);fill-rule:evenodd;shape-rendering:geometricprecision;d:path(&quot;M 4.488 4.691 A 5.805 5.805 0 0 0 2.681 5.522 C 2.233 5.828 1.91 6.126 1.723 6.334 A 7.034 7.034 0 0 0 2.783 7.331 C 3.751 8.068 4.829 8.5 5.999 8.5 C 7.188 8.5 8.271 8.093 9.234 7.402 A 6.716 6.716 0 0 0 10.276 6.477 A 6.023 6.023 0 0 0 9.301 5.592 A 5.687 5.687 0 0 0 7.531 4.713 A 2 2 0 1 1 4.487 4.691 Z M 0.374 7.048 C 0.018 6.634 0.028 5.958 0.413 5.567 C 0.413 5.567 2.343 3 6.002 3 C 9.662 3 11.622 5.758 11.622 5.758 C 11.981 6.168 11.982 6.836 11.592 7.242 C 11.592 7.242 9.5 10 6 10 S 0.374 7.048 0.374 7.048 Z&quot;);"/></svg>