<?xml version="1.0" standalone="no"?><!DOCTYPE svg PUBLIC "-//W3C//DTD SVG 1.1//EN" "http://www.w3.org/Graphics/SVG/1.1/DTD/svg11.dtd"><svg width="16" height="16" viewBox="0 0 16 16" class="show1" version="1.1" xmlns="http://www.w3.org/2000/svg" xmlns:xlink="http://www.w3.org/1999/xlink"><path fill-rule="evenodd" fill="currentColor" d="M6.187 5.778c-.8.238-1.547.62-2.238 1.12A8.182 8.182 0 0 0 2.704 8c.178.267.495.645.962 1.037 1.085.91 2.526 1.462 4.45 1.462 1.943 0 3.395-.529 4.479-1.398.453-.363.76-.71.933-.955a8.452 8.452 0 0 0-1.271-1.183c-.773-.584-1.61-1.015-2.51-1.253a2.5 2.5 0 1 1-3.56.067zM.768 8.64C.474 8.175.516 7.462.893 7.05c0 0 2.622-3.55 7.222-3.55 4.6 0 7.245 3.737 7.245 3.737.354.421.405 1.147.09 1.588 0 0-1.834 3.675-7.334 3.675S.768 8.64.768 8.64z"/></svg>