<?xml version="1.0" standalone="no"?><!DOCTYPE svg PUBLIC "-//W3C//DTD SVG 1.1//EN" "http://www.w3.org/Graphics/SVG/1.1/DTD/svg11.dtd"><svg width="12" height="12" viewBox="0 0 12 12" class="showMicro" style="height:12px;margin-right:16px;width:12px;perspective-origin:6px 6px;transform-origin:6px 6px;shape-rendering:geometricprecision;" version="1.1" xmlns="http://www.w3.org/2000/svg" xmlns:xlink="http://www.w3.org/1999/xlink"><path fill-rule="evenodd" class="" fill="currentColor" d="M0.14088954,6.34413815 C-0.0504039201,6.1540759 -0.0562744821,5.83870697 0.137715262,5.6440798 C0.137715262,5.6440798 2.37877121,3 6.06927341,3 C9.75977561,3 11.8612007,5.63214111 11.8612007,5.63214111 C12.0477167,5.83530397 12.050118,6.16129303 11.8571637,6.3559202 C11.8571637,6.3559202 9.61466873,9 6.06927341,9 C2.52387809,9 0.14088954,6.34413815 0.14088954,6.34413815 Z M5.99671997,8 C7.13851307,8 8.06411926,7.1045695 8.06411926,6 C8.06411926,4.8954305 7.13851307,4 5.99671997,4 C4.85492687,4 3.92932068,4.8954305 3.92932068,6 C3.92932068,7.1045695 4.85492687,8 5.99671997,8 Z M6,7 C5.42910345,7 5,6.55228475 5,6 C5,5.44771525 5.42910345,5 6,5 C6.57089655,5 7,5.44771525 7,6 C7,6.55228475 6.57089655,7 6,7 Z" style="display:inline;height:auto;min-height:0px;min-width:0px;overflow-x:visible;overflow-y:visible;width:auto;perspective-origin:0px 0px;transform-origin:0px 0px;fill:rgb(51, 51, 51);fill-rule:evenodd;shape-rendering:geometricprecision;d:path(&quot;M 0.14089 6.34414 C -0.0504039 6.15408 -0.0562745 5.83871 0.137715 5.64408 C 0.137715 5.64408 2.37877 3 6.06927 3 C 9.75978 3 11.8612 5.63214 11.8612 5.63214 C 12.0477 5.8353 12.0501 6.16129 11.8572 6.35592 C 11.8572 6.35592 9.61467 9 6.06927 9 C 2.52388 9 0.14089 6.34414 0.14089 6.34414 Z M 5.99672 8 C 7.13851 8 8.06412 7.10457 8.06412 6 C 8.06412 4.89543 7.13851 4 5.99672 4 C 4.85493 4 3.92932 4.89543 3.92932 6 C 3.92932 7.10457 4.85493 8 5.99672 8 Z M 6 7 C 5.4291 7 5 6.55228 5 6 C 5 5.44772 5.4291 5 6 5 C 6.5709 5 7 5.44772 7 6 C 7 6.55228 6.5709 7 6 7 Z&quot;);"/></svg>