<?xml version="1.0" standalone="no"?><!DOCTYPE svg PUBLIC "-//W3C//DTD SVG 1.1//EN" "http://www.w3.org/Graphics/SVG/1.1/DTD/svg11.dtd"><svg width="16" height="16" viewBox="0 0 16 16" class="show" style="height:16px;margin-right:8px;width:16px;perspective-origin:8px 8px;transform-origin:8px 8px;shape-rendering:geometricprecision;" version="1.1" xmlns="http://www.w3.org/2000/svg" xmlns:xlink="http://www.w3.org/1999/xlink"><path fill-rule="evenodd" class="" fill="currentColor" d="M1.24398322,8.65832323 C0.833092631,8.29474135 0.821763127,7.70159197 1.24398322,7.34167677 C1.24398322,7.34167677 4.00174039,4.5 8.00174039,4.5 C12.0017404,4.5 14.7566715,7.34167677 14.7566715,7.34167677 C15.1672005,7.70525865 15.1785336,8.29840803 14.7566715,8.65832323 C14.7566715,8.65832323 12.0017404,11.5 8.00174039,11.5 C4.00174039,11.5 1.24398322,8.65832323 1.24398322,8.65832323 Z M8,9.5 C7.17157288,9.5 6.5,8.82842712 6.5,8 C6.5,7.17157288 7.17157288,6.5 8,6.5 C8.82842712,6.5 9.5,7.17157288 9.5,8 C9.5,8.82842712 8.82842712,9.5 8,9.5 Z M8,10.5 C9.38071187,10.5 10.5,9.38071187 10.5,8 C10.5,6.61928813 9.38071187,5.5 8,5.5 C6.61928813,5.5 5.5,6.61928813 5.5,8 C5.5,9.38071187 6.61928813,10.5 8,10.5 Z" style="display:inline;height:auto;min-height:0px;min-width:0px;overflow-x:visible;overflow-y:visible;width:auto;perspective-origin:0px 0px;transform-origin:0px 0px;fill:rgb(51, 51, 51);fill-rule:evenodd;shape-rendering:geometricprecision;d:path(&quot;M 1.24398 8.65832 C 0.833093 8.29474 0.821763 7.70159 1.24398 7.34168 C 1.24398 7.34168 4.00174 4.5 8.00174 4.5 C 12.0017 4.5 14.7567 7.34168 14.7567 7.34168 C 15.1672 7.70526 15.1785 8.29841 14.7567 8.65832 C 14.7567 8.65832 12.0017 11.5 8.00174 11.5 C 4.00174 11.5 1.24398 8.65832 1.24398 8.65832 Z M 8 9.5 C 7.17157 9.5 6.5 8.82843 6.5 8 C 6.5 7.17157 7.17157 6.5 8 6.5 C 8.82843 6.5 9.5 7.17157 9.5 8 C 9.5 8.82843 8.82843 9.5 8 9.5 Z M 8 10.5 C 9.38071 10.5 10.5 9.38071 10.5 8 C 10.5 6.61929 9.38071 5.5 8 5.5 C 6.61929 5.5 5.5 6.61929 5.5 8 C 5.5 9.38071 6.61929 10.5 8 10.5 Z&quot;);"/></svg>