<?xml version="1.0" standalone="no"?><!DOCTYPE svg PUBLIC "-//W3C//DTD SVG 1.1//EN" "http://www.w3.org/Graphics/SVG/1.1/DTD/svg11.dtd"><svg width="12" height="12" viewBox="0 0 12 12" version="1.1" xmlns="http://www.w3.org/2000/svg" xmlns:xlink="http://www.w3.org/1999/xlink"><path fill-rule="evenodd" fill="currentColor" d="M0.14088954,6.34413815 C-0.0504039201,6.1540759 -0.0562744821,5.83870697 0.137715262,5.6440798 C0.137715262,5.6440798 2.37877121,3 6.06927341,3 C9.75977561,3 11.8612007,5.63214111 11.8612007,5.63214111 C12.0477167,5.83530397 12.050118,6.16129303 11.8571637,6.3559202 C11.8571637,6.3559202 9.61466873,9 6.06927341,9 C2.52387809,9 0.14088954,6.34413815 0.14088954,6.34413815 Z M5.99671997,8 C7.13851307,8 8.06411926,7.1045695 8.06411926,6 C8.06411926,4.8954305 7.13851307,4 5.99671997,4 C4.85492687,4 3.92932068,4.8954305 3.92932068,6 C3.92932068,7.1045695 4.85492687,8 5.99671997,8 Z M6,7 C5.42910345,7 5,6.55228475 5,6 C5,5.44771525 5.42910345,5 6,5 C6.57089655,5 7,5.44771525 7,6 C7,6.55228475 6.57089655,7 6,7 Z"/></svg>