<?xml version="1.0" standalone="no"?><!DOCTYPE svg PUBLIC "-//W3C//DTD SVG 1.1//EN" "http://www.w3.org/Graphics/SVG/1.1/DTD/svg11.dtd"><svg width="16" height="16" viewBox="0 0 16 16" class="show1" style="height:16px;margin-right:8px;width:16px;perspective-origin:8px 8px;transform-origin:8px 8px;shape-rendering:geometricprecision;" version="1.1" xmlns="http://www.w3.org/2000/svg" xmlns:xlink="http://www.w3.org/1999/xlink"><path fill-rule="evenodd" class="" fill="currentColor" d="M6.187 5.778c-.8.238-1.547.62-2.238 1.12A8.182 8.182 0 0 0 2.704 8c.178.267.495.645.962 1.037 1.085.91 2.526 1.462 4.45 1.462 1.943 0 3.395-.529 4.479-1.398.453-.363.76-.71.933-.955a8.452 8.452 0 0 0-1.271-1.183c-.773-.584-1.61-1.015-2.51-1.253a2.5 2.5 0 1 1-3.56.067zM.768 8.64C.474 8.175.516 7.462.893 7.05c0 0 2.622-3.55 7.222-3.55 4.6 0 7.245 3.737 7.245 3.737.354.421.405 1.147.09 1.588 0 0-1.834 3.675-7.334 3.675S.768 8.64.768 8.64z" style="display:inline;height:auto;min-height:0px;min-width:0px;overflow-x:visible;overflow-y:visible;width:auto;perspective-origin:0px 0px;transform-origin:0px 0px;fill:rgb(51, 51, 51);fill-rule:evenodd;shape-rendering:geometricprecision;d:path(&quot;M 6.187 5.778 C 5.387 6.016 4.64 6.398 3.949 6.898 A 8.182 8.182 0 0 0 2.704 8 C 2.882 8.267 3.199 8.645 3.666 9.037 C 4.751 9.947 6.192 10.499 8.116 10.499 C 10.059 10.499 11.511 9.97 12.595 9.101 C 13.048 8.738 13.355 8.391 13.528 8.146 A 8.452 8.452 0 0 0 12.257 6.963 C 11.484 6.379 10.647 5.948 9.747 5.71 A 2.5 2.5 0 1 1 6.187 5.777 Z M 0.768 8.64 C 0.474 8.175 0.516 7.462 0.893 7.05 C 0.893 7.05 3.515 3.5 8.115 3.5 C 12.715 3.5 15.36 7.237 15.36 7.237 C 15.714 7.658 15.765 8.384 15.45 8.825 C 15.45 8.825 13.616 12.5 8.116 12.5 S 0.768 8.64 0.768 8.64 Z&quot;);"/></svg>