<?xml version="1.0" standalone="no"?><!DOCTYPE svg PUBLIC "-//W3C//DTD SVG 1.1//EN" "http://www.w3.org/Graphics/SVG/1.1/DTD/svg11.dtd"><svg width="12" height="12" viewBox="0 0 12 12" class="show1Micro" version="1.1" xmlns="http://www.w3.org/2000/svg" xmlns:xlink="http://www.w3.org/1999/xlink"><path fill-rule="evenodd" fill="currentColor" d="M4.488 4.691a5.805 5.805 0 0 0-1.807.831c-.448.306-.771.604-.958.812a7.034 7.034 0 0 0 1.06.997C3.751 8.068 4.829 8.5 5.999 8.5c1.189 0 2.272-.407 3.235-1.098a6.716 6.716 0 0 0 1.042-.925 6.023 6.023 0 0 0-.975-.885 5.687 5.687 0 0 0-1.77-.879 2 2 0 1 1-3.044-.022zM.374 7.048c-.356-.414-.346-1.09.039-1.481 0 0 1.93-2.567 5.589-2.567 3.66 0 5.62 2.758 5.62 2.758.359.41.36 1.078-.03 1.484C11.592 7.242 9.5 10 6 10S.374 7.048.374 7.048z"/></svg>