<?xml version="1.0" standalone="no"?><!DOCTYPE svg PUBLIC "-//W3C//DTD SVG 1.1//EN" "http://www.w3.org/Graphics/SVG/1.1/DTD/svg11.dtd"><svg width="12" height="12" viewBox="0 0 12 12" version="1.1" xmlns="http://www.w3.org/2000/svg" xmlns:xlink="http://www.w3.org/1999/xlink"><path fill-rule="evenodd" fill="currentColor" d="M2.52117 7.58306C2.52117 8.27687 1.9544 8.84365 1.26059 8.84365.566775 8.84365 0 8.27687 0 7.58306 0 6.88925.566775 6.32248 1.26059 6.32248H2.52117V7.58306zM3.15635 7.58306C3.15635 6.88925 3.72313 6.32248 4.41694 6.32248 5.11075 6.32248 5.67752 6.88925 5.67752 7.58306V10.7394C5.67752 11.4332 5.11075 12 4.41694 12 3.72313 12 3.15635 11.4332 3.15635 10.7394V7.58306zM4.41694 2.52117C3.72313 2.52117 3.15635 1.9544 3.15635 1.26059 3.15635.566775 3.72313 0 4.41694 0 5.11075 0 5.67752.566775 5.67752 1.26059V2.52117H4.41694zM4.41694 3.15635C5.11075 3.15635 5.67752 3.72313 5.67752 4.41694 5.67752 5.11075 5.11075 5.67753 4.41694 5.67753H1.26059C.566775 5.67753 0 5.11075 0 4.41694 0 3.72313.566775 3.15635 1.26059 3.15635H4.41694zM9.47883 4.41694C9.47883 3.72313 10.0456 3.15635 10.7394 3.15635 11.4332 3.15635 12 3.72313 12 4.41694 12 5.11075 11.4332 5.67753 10.7394 5.67753H9.47883V4.41694zM8.84365 4.41694C8.84365 5.11075 8.27687 5.67752 7.58306 5.67752 6.88925 5.67752 6.32248 5.11075 6.32248 4.41694V1.26059C6.32248.566775 6.88925 0 7.58306 0 8.27687 0 8.84365.566775 8.84365 1.26059V4.41694zM7.58306 9.47883C8.27687 9.47883 8.84365 10.0456 8.84365 10.7394 8.84365 11.4332 8.27687 12 7.58306 12 6.88925 12 6.32248 11.4332 6.32248 10.7394V9.47883H7.58306zM7.58306 8.84365C6.88925 8.84365 6.32248 8.27687 6.32248 7.58306 6.32248 6.88925 6.88925 6.32248 7.58306 6.32248H10.7394C11.4332 6.32248 12 6.88925 12 7.58306 12 8.27687 11.4332 8.84365 10.7394 8.84365H7.58306z"/></svg>