<?xml version="1.0" standalone="no"?><!DOCTYPE svg PUBLIC "-//W3C//DTD SVG 1.1//EN" "http://www.w3.org/Graphics/SVG/1.1/DTD/svg11.dtd"><svg width="16" height="16" viewBox="0 0 16 16" class="slack" style="height:16px;margin-right:8px;width:16px;perspective-origin:8px 8px;transform-origin:8px 8px;shape-rendering:geometricprecision;" version="1.1" xmlns="http://www.w3.org/2000/svg" xmlns:xlink="http://www.w3.org/1999/xlink"><path fill-rule="evenodd" class="" fill="currentColor" d="M3.36156 10.1107C3.36156 11.0358 2.60586 11.7915 1.68078 11.7915.755701 11.7915 0 11.0358 0 10.1107 0 9.18567.755701 8.42997 1.68078 8.42997H3.36156V10.1107zM4.20847 10.1108C4.20847 9.18567 4.96417 8.42997 5.88925 8.42997 6.81433 8.42997 7.57003 9.18567 7.57003 10.1108V14.3192C7.57003 15.2443 6.81433 16 5.88925 16 4.96417 16 4.20847 15.2443 4.20847 14.3192V10.1108zM5.88925 3.36156C4.96417 3.36156 4.20847 2.60586 4.20847 1.68078 4.20847.755701 4.96417 0 5.88925 0 6.81433 0 7.57003.755701 7.57003 1.68078V3.36156H5.88925zM5.88925 4.20847C6.81433 4.20847 7.57003 4.96417 7.57003 5.88925 7.57003 6.81433 6.81433 7.57003 5.88925 7.57003H1.68078C.755701 7.57003 0 6.81433 0 5.88925 0 4.96417.755701 4.20847 1.68078 4.20847H5.88925zM12.6384 5.88925C12.6384 4.96417 13.3941 4.20847 14.3192 4.20847 15.2443 4.20847 16 4.96417 16 5.88925 16 6.81433 15.2443 7.57003 14.3192 7.57003H12.6384V5.88925zM11.7915 5.88925C11.7915 6.81433 11.0358 7.57003 10.1107 7.57003 9.18567 7.57003 8.42997 6.81433 8.42997 5.88925V1.68078C8.42997.755701 9.18567 0 10.1107 0 11.0358 0 11.7915.755701 11.7915 1.68078V5.88925zM10.1107 12.6384C11.0358 12.6384 11.7915 13.3941 11.7915 14.3192 11.7915 15.2443 11.0358 16 10.1107 16 9.18567 16 8.42997 15.2443 8.42997 14.3192V12.6384H10.1107zM10.1107 11.7915C9.18567 11.7915 8.42997 11.0358 8.42997 10.1107 8.42997 9.18567 9.18567 8.42997 10.1107 8.42997H14.3192C15.2443 8.42997 16 9.18567 16 10.1107 16 11.0358 15.2443 11.7915 14.3192 11.7915H10.1107z" style="display:inline;height:auto;min-height:0px;min-width:0px;overflow-x:visible;overflow-y:visible;width:auto;perspective-origin:0px 0px;transform-origin:0px 0px;fill:rgb(51, 51, 51);fill-rule:evenodd;shape-rendering:geometricprecision;d:path(&quot;M 3.36156 10.1107 C 3.36156 11.0358 2.60586 11.7915 1.68078 11.7915 C 0.755701 11.7915 0 11.0358 0 10.1107 C 0 9.18567 0.755701 8.42997 1.68078 8.42997 H 3.36156 V 10.1107 Z M 4.20847 10.1108 C 4.20847 9.18567 4.96417 8.42997 5.88925 8.42997 C 6.81433 8.42997 7.57003 9.18567 7.57003 10.1108 V 14.3192 C 7.57003 15.2443 6.81433 16 5.88925 16 C 4.96417 16 4.20847 15.2443 4.20847 14.3192 V 10.1108 Z M 5.88925 3.36156 C 4.96417 3.36156 4.20847 2.60586 4.20847 1.68078 C 4.20847 0.755701 4.96417 0 5.88925 0 C 6.81433 0 7.57003 0.755701 7.57003 1.68078 V 3.36156 H 5.88925 Z M 5.88925 4.20847 C 6.81433 4.20847 7.57003 4.96417 7.57003 5.88925 C 7.57003 6.81433 6.81433 7.57003 5.88925 7.57003 H 1.68078 C 0.755701 7.57003 0 6.81433 0 5.88925 C 0 4.96417 0.755701 4.20847 1.68078 4.20847 H 5.88925 Z M 12.6384 5.88925 C 12.6384 4.96417 13.3941 4.20847 14.3192 4.20847 C 15.2443 4.20847 16 4.96417 16 5.88925 C 16 6.81433 15.2443 7.57003 14.3192 7.57003 H 12.6384 V 5.88925 Z M 11.7915 5.88925 C 11.7915 6.81433 11.0358 7.57003 10.1107 7.57003 C 9.18567 7.57003 8.42997 6.81433 8.42997 5.88925 V 1.68078 C 8.42997 0.755701 9.18567 0 10.1107 0 C 11.0358 0 11.7915 0.755701 11.7915 1.68078 V 5.88925 Z M 10.1107 12.6384 C 11.0358 12.6384 11.7915 13.3941 11.7915 14.3192 C 11.7915 15.2443 11.0358 16 10.1107 16 C 9.18567 16 8.42997 15.2443 8.42997 14.3192 V 12.6384 H 10.1107 Z M 10.1107 11.7915 C 9.18567 11.7915 8.42997 11.0358 8.42997 10.1107 C 8.42997 9.18567 9.18567 8.42997 10.1107 8.42997 H 14.3192 C 15.2443 8.42997 16 9.18567 16 10.1107 C 16 11.0358 15.2443 11.7915 14.3192 11.7915 H 10.1107 Z&quot;);"/></svg>