<?xml version="1.0" standalone="no"?><!DOCTYPE svg PUBLIC "-//W3C//DTD SVG 1.1//EN" "http://www.w3.org/Graphics/SVG/1.1/DTD/svg11.dtd"><svg width="16" height="16" viewBox="0 0 16 16" class="smiley" style="height:16px;margin-right:8px;width:16px;perspective-origin:8px 8px;transform-origin:8px 8px;shape-rendering:geometricprecision;" version="1.1" xmlns="http://www.w3.org/2000/svg" xmlns:xlink="http://www.w3.org/1999/xlink"><path fill-rule="evenodd" class="" fill="currentColor" d="M2.06435973,10.3529551 C1.86942802,9.83621522 2.13030507,9.25929144 2.64704492,9.06435973 C3.16378478,8.86942802 3.74070856,9.13030507 3.93564027,9.64704492 C3.95126673,9.68846874 4.00371317,9.79997893 4.09751949,9.95778111 C4.26358146,10.2371326 4.48040656,10.5193716 4.75160391,10.782952 C5.52745501,11.5370121 6.58056869,11.9921766 8.00550088,12.0000151 C9.43345301,12.0078702 10.4850507,11.5529815 11.2589698,10.7885856 C11.5255564,10.5252793 11.7389886,10.2430507 11.9026153,9.96355007 C11.9952161,9.80537313 12.0471162,9.6933787 12.0627218,9.65141786 C12.2552384,9.13377338 12.8309377,8.87020516 13.3485821,9.06272177 C13.8662266,9.25523837 14.1297948,9.83093767 13.9372782,10.3485821 C13.7509476,10.8495937 13.3501548,11.5342118 12.6644015,12.2115268 C11.5237928,13.3381002 9.96856413,14.0108441 7.99449912,13.9999849 C6.03808118,13.9892227 4.49452808,13.3220862 3.35767475,12.2171631 C2.66104982,11.5401039 2.2536816,10.8548239 2.06435973,10.3529551 Z M5,7 C3.8954305,7 3,6.1045695 3,5 C3,3.8954305 3.8954305,3 5,3 C6.1045695,3 7,3.8954305 7,5 C7,6.1045695 6.1045695,7 5,7 Z M11,7 C9.8954305,7 9,6.1045695 9,5 C9,3.8954305 9.8954305,3 11,3 C12.1045695,3 13,3.8954305 13,5 C13,6.1045695 12.1045695,7 11,7 Z" style="display:inline;height:auto;min-height:0px;min-width:0px;overflow-x:visible;overflow-y:visible;width:auto;perspective-origin:0px 0px;transform-origin:0px 0px;fill:rgb(51, 51, 51);fill-rule:evenodd;shape-rendering:geometricprecision;d:path(&quot;M 2.06436 10.353 C 1.86943 9.83622 2.13031 9.25929 2.64704 9.06436 C 3.16378 8.86943 3.74071 9.13031 3.93564 9.64705 C 3.95127 9.68847 4.00371 9.79998 4.09752 9.95778 C 4.26358 10.2371 4.48041 10.5194 4.7516 10.783 C 5.52745 11.537 6.58057 11.9922 8.0055 12 C 9.43345 12.0079 10.4851 11.553 11.259 10.7886 C 11.5256 10.5253 11.739 10.2431 11.9026 9.96355 C 11.9952 9.80537 12.0471 9.69338 12.0627 9.65142 C 12.2552 9.13377 12.8309 8.8702 13.3486 9.06272 C 13.8662 9.25524 14.1298 9.83094 13.9373 10.3486 C 13.7509 10.8496 13.3502 11.5342 12.6644 12.2115 C 11.5238 13.3381 9.96856 14.0108 7.9945 14 C 6.03808 13.9892 4.49453 13.3221 3.35767 12.2172 C 2.66105 11.5401 2.25368 10.8548 2.06436 10.353 Z M 5 7 C 3.89543 7 3 6.10457 3 5 C 3 3.89543 3.89543 3 5 3 C 6.10457 3 7 3.89543 7 5 C 7 6.10457 6.10457 7 5 7 Z M 11 7 C 9.89543 7 9 6.10457 9 5 C 9 3.89543 9.89543 3 11 3 C 12.1046 3 13 3.89543 13 5 C 13 6.10457 12.1046 7 11 7 Z&quot;);"/></svg>