<?xml version="1.0" standalone="no"?><!DOCTYPE svg PUBLIC "-//W3C//DTD SVG 1.1//EN" "http://www.w3.org/Graphics/SVG/1.1/DTD/svg11.dtd"><svg width="12" height="12" viewBox="0 0 12 12" version="1.1" xmlns="http://www.w3.org/2000/svg" xmlns:xlink="http://www.w3.org/1999/xlink"><path fill-rule="evenodd" fill="currentColor" d="M1.31716371,8.31021703 C1.14583558,7.93309696 1.3126629,7.48849185 1.68978297,7.31716371 C2.06690304,7.14583558 2.51150815,7.3126629 2.68283629,7.68978297 C2.75131254,7.84050994 2.95263205,8.12163961 3.31796397,8.41633008 C3.95143869,8.92731463 4.82506169,9.24190319 6.00515701,9.25001773 C7.19069613,9.2581697 8.06372397,8.94340163 8.69475362,8.42194121 C9.0504634,8.12799533 9.24739533,7.8466054 9.31471179,7.69523768 C9.48302737,7.31676346 9.92628809,7.14639621 10.3047623,7.31471179 C10.6832365,7.48302737 10.8536038,7.92628809 10.6852882,8.30476232 C10.5302254,8.65343649 10.2022226,9.12210938 9.65026644,9.57822632 C8.74933532,10.3227237 7.53493657,10.7605722 5.99484299,10.7499823 C4.47410985,10.7395254 3.27250033,10.3068301 2.37620371,9.58384351 C1.81166939,9.12846889 1.47586047,8.65953346 1.31716371,8.31021703 Z M3.5,5 C2.67157288,5 2,4.32842712 2,3.5 C2,2.67157288 2.67157288,2 3.5,2 C4.32842712,2 5,2.67157288 5,3.5 C5,4.32842712 4.32842712,5 3.5,5 Z M8.5,5 C7.67157288,5 7,4.32842712 7,3.5 C7,2.67157288 7.67157288,2 8.5,2 C9.32842712,2 10,2.67157288 10,3.5 C10,4.32842712 9.32842712,5 8.5,5 Z"/></svg>