<?xml version="1.0" standalone="no"?><!DOCTYPE svg PUBLIC "-//W3C//DTD SVG 1.1//EN" "http://www.w3.org/Graphics/SVG/1.1/DTD/svg11.dtd"><svg width="16" height="16" viewBox="0 0 16 16" version="1.1" xmlns="http://www.w3.org/2000/svg" xmlns:xlink="http://www.w3.org/1999/xlink"><path fill-rule="evenodd" fill="currentColor" d="M2.06435973,10.3529551 C1.86942802,9.83621522 2.13030507,9.25929144 2.64704492,9.06435973 C3.16378478,8.86942802 3.74070856,9.13030507 3.93564027,9.64704492 C3.95126673,9.68846874 4.00371317,9.79997893 4.09751949,9.95778111 C4.26358146,10.2371326 4.48040656,10.5193716 4.75160391,10.782952 C5.52745501,11.5370121 6.58056869,11.9921766 8.00550088,12.0000151 C9.43345301,12.0078702 10.4850507,11.5529815 11.2589698,10.7885856 C11.5255564,10.5252793 11.7389886,10.2430507 11.9026153,9.96355007 C11.9952161,9.80537313 12.0471162,9.6933787 12.0627218,9.65141786 C12.2552384,9.13377338 12.8309377,8.87020516 13.3485821,9.06272177 C13.8662266,9.25523837 14.1297948,9.83093767 13.9372782,10.3485821 C13.7509476,10.8495937 13.3501548,11.5342118 12.6644015,12.2115268 C11.5237928,13.3381002 9.96856413,14.0108441 7.99449912,13.9999849 C6.03808118,13.9892227 4.49452808,13.3220862 3.35767475,12.2171631 C2.66104982,11.5401039 2.2536816,10.8548239 2.06435973,10.3529551 Z M5,7 C3.8954305,7 3,6.1045695 3,5 C3,3.8954305 3.8954305,3 5,3 C6.1045695,3 7,3.8954305 7,5 C7,6.1045695 6.1045695,7 5,7 Z M11,7 C9.8954305,7 9,6.1045695 9,5 C9,3.8954305 9.8954305,3 11,3 C12.1045695,3 13,3.8954305 13,5 C13,6.1045695 12.1045695,7 11,7 Z"/></svg>