<?xml version="1.0" standalone="no"?><!DOCTYPE svg PUBLIC "-//W3C//DTD SVG 1.1//EN" "http://www.w3.org/Graphics/SVG/1.1/DTD/svg11.dtd"><svg width="12" height="12" viewBox="0 0 12 12" version="1.1" xmlns="http://www.w3.org/2000/svg" xmlns:xlink="http://www.w3.org/1999/xlink"><path fill-rule="evenodd" fill="currentColor" d="M9.29861927,1.39815903 L11.4001155,4.20015401 C11.73377,4.64502668 11.5522847,5.00000003 10.9999999,5.00000006 L9.99999988,5.00000012 L9.99999998,9.00019253 C9.99999999,9.55628337 9.5522848,10 9.00000012,10 C8.44386501,10 8.00000021,9.55237095 8.00000017,9.00019253 L7.99999988,5.00000012 L6.99999994,5.00000006 C6.4438648,5.00000003 6.26857744,4.64189675 6.5998845,4.20015401 L8.70138073,1.39815903 C8.87109375,1.171875 9.1336964,1.17826187 9.29861927,1.39815903 Z M3.29869831,10.601841 C3.13378028,10.8217381 2.87117778,10.828125 2.70145979,10.601841 L0.599902043,7.79984599 C0.268585287,7.35810325 0.443864808,7 0.999999981,7 L1.99999997,7 L1.99999999,2.99980749 C2,2.44762906 2.44386482,2 3,2 C3.55228475,2 4.00000001,2.44371665 4.00000002,2.99980749 L4.00000009,7 L4.99999997,7 C5.55228466,7 5.73377767,7.35497332 5.40013294,7.79984599 L3.29869831,10.601841 Z"/></svg>