<?xml version="1.0" standalone="no"?><!DOCTYPE svg PUBLIC "-//W3C//DTD SVG 1.1//EN" "http://www.w3.org/Graphics/SVG/1.1/DTD/svg11.dtd"><svg width="16" height="16" viewBox="0 0 16 16" class="sort" style="height:16px;margin-right:8px;width:16px;perspective-origin:8px 8px;transform-origin:8px 8px;shape-rendering:geometricprecision;" version="1.1" xmlns="http://www.w3.org/2000/svg" xmlns:xlink="http://www.w3.org/1999/xlink"><path fill-rule="evenodd" class="" fill="currentColor" d="M11.61 3.3l2.28 2.933c.335.43.161.784-.392.784H12v5.997a.994.994 0 0 1-1 1.003c-.556 0-1-.449-1-1.003V7.017H8.502c-.555 0-.73-.35-.392-.784l2.28-2.932c.335-.43.883-.433 1.22 0zm-6 9.416c-.337.433-.885.43-1.22 0L2.11 9.784C1.773 9.35 1.947 9 2.502 9H4V3.003A.999.999 0 0 1 5 2c.552 0 1 .438 1 1.003V9h1.498c.553 0 .727.353.392.784l-2.28 2.932z" style="display:inline;height:auto;min-height:0px;min-width:0px;overflow-x:visible;overflow-y:visible;width:auto;perspective-origin:0px 0px;transform-origin:0px 0px;fill:rgb(51, 51, 51);fill-rule:evenodd;shape-rendering:geometricprecision;d:path(&quot;M 11.61 3.3 L 13.89 6.233 C 14.225 6.663 14.051 7.017 13.498 7.017 H 12 V 13.014 A 0.994 0.994 0 0 1 11 14.017 C 10.444 14.017 10 13.568 10 13.014 V 7.017 H 8.502 C 7.947 7.017 7.772 6.667 8.11 6.233 L 10.39 3.301 C 10.725 2.871 11.273 2.868 11.61 3.301 Z M 5.61 12.716 C 5.273 13.149 4.725 13.146 4.39 12.716 L 2.11 9.784 C 1.773 9.35 1.947 9 2.502 9 H 4 V 3.003 A 0.999 0.999 0 0 1 5 2 C 5.552 2 6 2.438 6 3.003 V 9 H 7.498 C 8.051 9 8.225 9.353 7.89 9.784 L 5.61 12.716 Z&quot;);"/></svg>