<?xml version="1.0" standalone="no"?><!DOCTYPE svg PUBLIC "-//W3C//DTD SVG 1.1//EN" "http://www.w3.org/Graphics/SVG/1.1/DTD/svg11.dtd"><svg width="16" height="16" viewBox="0 0 16 16" class="stack" style="height:16px;margin-right:8px;width:16px;perspective-origin:8px 8px;transform-origin:8px 8px;shape-rendering:geometricprecision;" version="1.1" xmlns="http://www.w3.org/2000/svg" xmlns:xlink="http://www.w3.org/1999/xlink"><path fill-rule="evenodd" class="" fill="currentColor" d="M14,10 L14,9 L13,9 L13,10 L12,10 L12,11 L13,11 L13,12 L14,12 L14,11 L15,11 L15,10 L14,10 Z M1,1.9955775 C1,1.44573523 1.44335318,1 2.0093689,1 L3.9906311,1 C4.54809015,1 5,1.44483697 5,1.9955775 L5,11.0044225 C5,11.5542648 4.55664682,12 3.9906311,12 L2.0093689,12 C1.45190985,12 1,11.555163 1,11.0044225 L1,1.9955775 Z M6,2.00684547 C6,1.45078007 6.44335318,1 7.0093689,1 L8.9906311,1 C9.54809015,1 10,1.44994876 10,2.00684547 L10,13.9931545 C10,14.5492199 9.55664682,15 8.9906311,15 L7.0093689,15 C6.45190985,15 6,14.5500512 6,13.9931545 L6,2.00684547 Z M11,2.00292933 C11,1.44902676 11.4433532,1 12.0093689,1 L13.9906311,1 C14.5480902,1 15,1.43788135 15,2.00292933 L15,6.99707067 C15,7.55097324 14.5566468,8 13.9906311,8 L12.0093689,8 C11.4519098,8 11,7.56211865 11,6.99707067 L11,2.00292933 Z" style="display:inline;height:auto;min-height:0px;min-width:0px;overflow-x:visible;overflow-y:visible;width:auto;perspective-origin:0px 0px;transform-origin:0px 0px;fill:rgb(51, 51, 51);fill-rule:evenodd;shape-rendering:geometricprecision;d:path(&quot;M 14 10 L 14 9 L 13 9 L 13 10 L 12 10 L 12 11 L 13 11 L 13 12 L 14 12 L 14 11 L 15 11 L 15 10 L 14 10 Z M 1 1.99558 C 1 1.44574 1.44335 1 2.00937 1 L 3.99063 1 C 4.54809 1 5 1.44484 5 1.99558 L 5 11.0044 C 5 11.5543 4.55665 12 3.99063 12 L 2.00937 12 C 1.45191 12 1 11.5552 1 11.0044 L 1 1.99558 Z M 6 2.00685 C 6 1.45078 6.44335 1 7.00937 1 L 8.99063 1 C 9.54809 1 10 1.44995 10 2.00685 L 10 13.9932 C 10 14.5492 9.55665 15 8.99063 15 L 7.00937 15 C 6.45191 15 6 14.5501 6 13.9932 L 6 2.00685 Z M 11 2.00293 C 11 1.44903 11.4434 1 12.0094 1 L 13.9906 1 C 14.5481 1 15 1.43788 15 2.00293 L 15 6.99707 C 15 7.55097 14.5566 8 13.9906 8 L 12.0094 8 C 11.4519 8 11 7.56212 11 6.99707 L 11 2.00293 Z&quot;);"/></svg>