<?xml version="1.0" standalone="no"?><!DOCTYPE svg PUBLIC "-//W3C//DTD SVG 1.1//EN" "http://www.w3.org/Graphics/SVG/1.1/DTD/svg11.dtd"><svg width="12" height="12" viewBox="0 0 12 12" class="stackMicro" style="height:12px;margin-right:16px;width:12px;perspective-origin:6px 6px;transform-origin:6px 6px;shape-rendering:geometricprecision;" version="1.1" xmlns="http://www.w3.org/2000/svg" xmlns:xlink="http://www.w3.org/1999/xlink"><path fill-rule="evenodd" class="" fill="currentColor" d="M10,9 L10,8 L9,8 L9,9 L8,9 L8,10 L9,10 L9,11 L10,11 L10,10 L11,10 L11,9 L10,9 Z M0,1.99703014 C0,1.4463856 0.442660332,1 0.998956561,1 L2.00104344,1 C2.55275191,1 3,1.45303631 3,1.99703014 L3,8.00296986 C3,8.5536144 2.55733967,9 2.00104344,9 L0.998956561,9 C0.447248087,9 0,8.54696369 0,8.00296986 L0,1.99703014 Z M4,1.99539757 C4,1.44565467 4.44266033,1 4.99895656,1 L6.00104344,1 C6.55275191,1 7,1.4556644 7,1.99539757 L7,10.0046024 C7,10.5543453 6.55733967,11 6.00104344,11 L4.99895656,11 C4.44724809,11 4,10.5443356 4,10.0046024 L4,1.99539757 Z M8,1.99077797 C8,1.44358641 8.44266033,1 8.99895656,1 L10.0010434,1 C10.5527519,1 11,1.45097518 11,1.99077797 L11,6.00922203 C11,6.55641359 10.5573397,7 10.0010434,7 L8.99895656,7 C8.44724809,7 8,6.54902482 8,6.00922203 L8,1.99077797 Z" style="display:inline;height:auto;min-height:0px;min-width:0px;overflow-x:visible;overflow-y:visible;width:auto;perspective-origin:0px 0px;transform-origin:0px 0px;fill:rgb(51, 51, 51);fill-rule:evenodd;shape-rendering:geometricprecision;d:path(&quot;M 10 9 L 10 8 L 9 8 L 9 9 L 8 9 L 8 10 L 9 10 L 9 11 L 10 11 L 10 10 L 11 10 L 11 9 L 10 9 Z M 0 1.99703 C 0 1.44639 0.44266 1 0.998957 1 L 2.00104 1 C 2.55275 1 3 1.45304 3 1.99703 L 3 8.00297 C 3 8.55361 2.55734 9 2.00104 9 L 0.998957 9 C 0.447248 9 0 8.54696 0 8.00297 L 0 1.99703 Z M 4 1.9954 C 4 1.44565 4.44266 1 4.99896 1 L 6.00104 1 C 6.55275 1 7 1.45566 7 1.9954 L 7 10.0046 C 7 10.5543 6.55734 11 6.00104 11 L 4.99896 11 C 4.44725 11 4 10.5443 4 10.0046 L 4 1.9954 Z M 8 1.99078 C 8 1.44359 8.44266 1 8.99896 1 L 10.001 1 C 10.5528 1 11 1.45098 11 1.99078 L 11 6.00922 C 11 6.55641 10.5573 7 10.001 7 L 8.99896 7 C 8.44725 7 8 6.54902 8 6.00922 L 8 1.99078 Z&quot;);"/></svg>