<?xml version="1.0" standalone="no"?><!DOCTYPE svg PUBLIC "-//W3C//DTD SVG 1.1//EN" "http://www.w3.org/Graphics/SVG/1.1/DTD/svg11.dtd"><svg width="16" height="16" viewBox="0 0 16 16" version="1.1" xmlns="http://www.w3.org/2000/svg" xmlns:xlink="http://www.w3.org/1999/xlink"><path fill-rule="evenodd" fill="currentColor" d="M14,10 L14,9 L13,9 L13,10 L12,10 L12,11 L13,11 L13,12 L14,12 L14,11 L15,11 L15,10 L14,10 Z M1,1.9955775 C1,1.44573523 1.44335318,1 2.0093689,1 L3.9906311,1 C4.54809015,1 5,1.44483697 5,1.9955775 L5,11.0044225 C5,11.5542648 4.55664682,12 3.9906311,12 L2.0093689,12 C1.45190985,12 1,11.555163 1,11.0044225 L1,1.9955775 Z M6,2.00684547 C6,1.45078007 6.44335318,1 7.0093689,1 L8.9906311,1 C9.54809015,1 10,1.44994876 10,2.00684547 L10,13.9931545 C10,14.5492199 9.55664682,15 8.9906311,15 L7.0093689,15 C6.45190985,15 6,14.5500512 6,13.9931545 L6,2.00684547 Z M11,2.00292933 C11,1.44902676 11.4433532,1 12.0093689,1 L13.9906311,1 C14.5480902,1 15,1.43788135 15,2.00292933 L15,6.99707067 C15,7.55097324 14.5566468,8 13.9906311,8 L12.0093689,8 C11.4519098,8 11,7.56211865 11,6.99707067 L11,2.00292933 Z"/></svg>