<?xml version="1.0" standalone="no"?><!DOCTYPE svg PUBLIC "-//W3C//DTD SVG 1.1//EN" "http://www.w3.org/Graphics/SVG/1.1/DTD/svg11.dtd"><svg width="12" height="12" viewBox="0 0 12 12" version="1.1" xmlns="http://www.w3.org/2000/svg" xmlns:xlink="http://www.w3.org/1999/xlink"><path fill-rule="evenodd" fill="currentColor" d="M10,9 L10,8 L9,8 L9,9 L8,9 L8,10 L9,10 L9,11 L10,11 L10,10 L11,10 L11,9 L10,9 Z M0,1.99703014 C0,1.4463856 0.442660332,1 0.998956561,1 L2.00104344,1 C2.55275191,1 3,1.45303631 3,1.99703014 L3,8.00296986 C3,8.5536144 2.55733967,9 2.00104344,9 L0.998956561,9 C0.447248087,9 0,8.54696369 0,8.00296986 L0,1.99703014 Z M4,1.99539757 C4,1.44565467 4.44266033,1 4.99895656,1 L6.00104344,1 C6.55275191,1 7,1.4556644 7,1.99539757 L7,10.0046024 C7,10.5543453 6.55733967,11 6.00104344,11 L4.99895656,11 C4.44724809,11 4,10.5443356 4,10.0046024 L4,1.99539757 Z M8,1.99077797 C8,1.44358641 8.44266033,1 8.99895656,1 L10.0010434,1 C10.5527519,1 11,1.45097518 11,1.99077797 L11,6.00922203 C11,6.55641359 10.5573397,7 10.0010434,7 L8.99895656,7 C8.44724809,7 8,6.54902482 8,6.00922203 L8,1.99077797 Z"/></svg>