<?xml version="1.0" standalone="no"?><!DOCTYPE svg PUBLIC "-//W3C//DTD SVG 1.1//EN" "http://www.w3.org/Graphics/SVG/1.1/DTD/svg11.dtd"><svg width="16" height="16" viewBox="0 0 16 16" class="star" style="height:16px;margin-right:8px;width:16px;perspective-origin:8px 8px;transform-origin:8px 8px;shape-rendering:geometricprecision;" version="1.1" xmlns="http://www.w3.org/2000/svg" xmlns:xlink="http://www.w3.org/1999/xlink"><path fill-rule="evenodd" class="" fill="currentColor" d="M3.30691159,13.381144 C3.5448074,12.4109097 3.77718402,11.3274371 4.08378413,10.2654702 C4.2583045,9.66121488 4.13193425,9.26764006 3.62835641,8.88491329 C2.84786785,8.29207694 2.09516552,7.65489682 1.38966173,6.97527608 C1.15633352,6.75051213 0.934804947,6.28176223 1.017783,6.02426381 C1.10380613,5.75743988 1.54762454,5.48033885 1.86602428,5.43694665 C2.89906303,5.29630265 3.94542393,5.23616259 4.98873978,5.19486388 C5.50335598,5.1745 5.77836353,4.98798969 5.95764181,4.49221483 C6.30135367,3.54196383 6.67837094,2.59818359 7.12694727,1.69417954 C7.2828166,1.37996676 7.69637467,0.99305302 7.98337217,1.00009474 C8.28235961,1.00751708 8.67916981,1.39462114 8.84208086,1.71359183 C9.24326835,2.49902862 9.60011205,3.32119652 9.85190097,4.16544115 C10.0926515,4.97219341 10.569585,5.24168178 11.360541,5.25500394 C12.2451328,5.27003896 13.1352437,5.33436598 14.0084165,5.47101333 C14.3593604,5.52601484 14.9046175,5.79131624 14.945155,6.03111521 C15.0030113,6.37406581 14.7698734,6.87288573 14.4994334,7.14313536 C13.8295188,7.81228868 13.0848098,8.41083453 12.3368654,8.99510662 C11.8871472,9.34643115 11.7076786,9.67548862 11.9010403,10.2753667 C12.200789,11.2054441 12.4181306,12.1684463 12.5831351,13.1325905 C12.6428946,13.4820118 12.565055,14.0767513 12.3479038,14.197983 C12.0512001,14.3639391 11.4979496,14.3051313 11.1667987,14.1302303 C10.2460467,13.6435906 9.40408591,13.0083137 8.48523715,12.5176774 C8.20394916,12.3673272 7.70722271,12.3680885 7.42498313,12.5178677 C6.4766353,13.0210649 5.59546924,13.6493001 4.65949198,14.1779998 C3.95722357,14.5746197 3.32251756,14.2240564 3.30691159,13.381144" style="display:inline;height:auto;min-height:0px;min-width:0px;overflow-x:visible;overflow-y:visible;width:auto;perspective-origin:0px 0px;transform-origin:0px 0px;fill:rgb(51, 51, 51);fill-rule:evenodd;shape-rendering:geometricprecision;d:path(&quot;M 3.30691 13.3811 C 3.54481 12.4109 3.77718 11.3274 4.08378 10.2655 C 4.2583 9.66121 4.13193 9.26764 3.62836 8.88491 C 2.84787 8.29208 2.09517 7.6549 1.38966 6.97528 C 1.15633 6.75051 0.934805 6.28176 1.01778 6.02426 C 1.10381 5.75744 1.54762 5.48034 1.86602 5.43695 C 2.89906 5.2963 3.94542 5.23616 4.98874 5.19486 C 5.50336 5.1745 5.77836 4.98799 5.95764 4.49221 C 6.30135 3.54196 6.67837 2.59818 7.12695 1.69418 C 7.28282 1.37997 7.69637 0.993053 7.98337 1.00009 C 8.28236 1.00752 8.67917 1.39462 8.84208 1.71359 C 9.24327 2.49903 9.60011 3.3212 9.8519 4.16544 C 10.0927 4.97219 10.5696 5.24168 11.3605 5.255 C 12.2451 5.27004 13.1352 5.33437 14.0084 5.47101 C 14.3594 5.52601 14.9046 5.79132 14.9452 6.03112 C 15.003 6.37407 14.7699 6.87289 14.4994 7.14314 C 13.8295 7.81229 13.0848 8.41083 12.3369 8.99511 C 11.8871 9.34643 11.7077 9.67549 11.901 10.2754 C 12.2008 11.2054 12.4181 12.1684 12.5831 13.1326 C 12.6429 13.482 12.5651 14.0768 12.3479 14.198 C 12.0512 14.3639 11.4979 14.3051 11.1668 14.1302 C 10.246 13.6436 9.40409 13.0083 8.48524 12.5177 C 8.20395 12.3673 7.70722 12.3681 7.42498 12.5179 C 6.47664 13.0211 5.59547 13.6493 4.65949 14.178 C 3.95722 14.5746 3.32252 14.2241 3.30691 13.3811&quot;);"/></svg>