<?xml version="1.0" standalone="no"?><!DOCTYPE svg PUBLIC "-//W3C//DTD SVG 1.1//EN" "http://www.w3.org/Graphics/SVG/1.1/DTD/svg11.dtd"><svg width="12" height="12" viewBox="0 0 12 12" class="starMicro" style="height:12px;margin-right:16px;width:12px;perspective-origin:6px 6px;transform-origin:6px 6px;shape-rendering:geometricprecision;" version="1.1" xmlns="http://www.w3.org/2000/svg" xmlns:xlink="http://www.w3.org/1999/xlink"><path fill-rule="evenodd" class="" fill="currentColor" d="M2.64562352,9.8320254 C2.81532527,9.13991379 2.98108994,8.36702415 3.19980156,7.60947554 C3.32429476,7.1784331 3.23414919,6.89767852 2.87492453,6.62466235 C2.31816703,6.20176559 1.78123069,5.74723643 1.27796319,5.26243247 C1.11151971,5.10209826 0.953493444,4.76771793 1.01268541,4.58403276 C1.07404957,4.39369528 1.39064515,4.19602668 1.61777397,4.16507308 C2.35468685,4.0647454 3.10110302,4.0218448 3.84534701,3.99238458 C4.21244583,3.97785811 4.40862105,3.84481194 4.53650829,3.49115349 C4.78169338,2.81329683 5.05063671,2.14005605 5.37062633,1.4951894 C5.48181491,1.27104733 5.77682443,0.995044407 5.98155262,1.00006758 C6.19483378,1.00536227 6.4778963,1.28150096 6.59410806,1.50903706 C6.88029309,2.06932436 7.13484571,2.6558136 7.31445804,3.25805117 C7.48619621,3.83354374 7.82641428,4.02578188 8.39063865,4.03528518 C9.02165764,4.04601033 9.6566137,4.09189768 10.279487,4.18937437 C10.529831,4.22860941 10.9187874,4.4178608 10.9477046,4.58892017 C10.9889761,4.83356221 10.8226684,5.18939284 10.6297514,5.38217402 C10.1518713,5.8595111 9.62063693,6.2864807 9.08709463,6.7032682 C8.76629045,6.95388374 8.63826745,7.1886152 8.77620103,7.61653513 C8.99002523,8.28000109 9.14506475,8.96695377 9.26276988,9.65472102 C9.30539896,9.90397895 9.24987255,10.3282333 9.09496879,10.4147133 C8.88331677,10.5330973 8.48865838,10.491147 8.25243355,10.3663823 C7.5956199,10.0192404 6.99501147,9.56606882 6.33955543,9.21607594 C6.13890009,9.10882443 5.78456283,9.10936748 5.58322868,9.2162117 C4.90672963,9.57516484 4.27815435,10.0233132 3.61047979,10.4004584 C3.10952022,10.6833851 2.65675596,10.4333126 2.64562352,9.8320254" style="display:inline;height:auto;min-height:0px;min-width:0px;overflow-x:visible;overflow-y:visible;width:auto;perspective-origin:0px 0px;transform-origin:0px 0px;fill:rgb(51, 51, 51);fill-rule:evenodd;shape-rendering:geometricprecision;d:path(&quot;M 2.64562 9.83203 C 2.81533 9.13991 2.98109 8.36702 3.1998 7.60948 C 3.32429 7.17843 3.23415 6.89768 2.87492 6.62466 C 2.31817 6.20177 1.78123 5.74724 1.27796 5.26243 C 1.11152 5.1021 0.953494 4.76772 1.01269 4.58403 C 1.07405 4.3937 1.39065 4.19603 1.61777 4.16507 C 2.35469 4.06475 3.1011 4.02184 3.84535 3.99238 C 4.21245 3.97786 4.40862 3.84481 4.53651 3.49115 C 4.78169 2.8133 5.05064 2.14006 5.37063 1.49519 C 5.48181 1.27105 5.77682 0.995044 5.98155 1.00007 C 6.19483 1.00536 6.4779 1.2815 6.59411 1.50904 C 6.88029 2.06932 7.13485 2.65581 7.31446 3.25805 C 7.4862 3.83354 7.82641 4.02578 8.39064 4.03528 C 9.02166 4.04601 9.65661 4.0919 10.2795 4.18937 C 10.5298 4.22861 10.9188 4.41786 10.9477 4.58892 C 10.989 4.83356 10.8227 5.18939 10.6298 5.38217 C 10.1519 5.85951 9.62064 6.28648 9.08709 6.70327 C 8.76629 6.95388 8.63827 7.18862 8.7762 7.61654 C 8.99003 8.28 9.14506 8.96695 9.26277 9.65472 C 9.3054 9.90398 9.24987 10.3282 9.09497 10.4147 C 8.88332 10.5331 8.48866 10.4911 8.25243 10.3664 C 7.59562 10.0192 6.99501 9.56607 6.33956 9.21608 C 6.1389 9.10882 5.78456 9.10937 5.58323 9.21621 C 4.90673 9.57516 4.27815 10.0233 3.61048 10.4005 C 3.10952 10.6834 2.65676 10.4333 2.64562 9.83203&quot;);"/></svg>