<?xml version="1.0" standalone="no"?><!DOCTYPE svg PUBLIC "-//W3C//DTD SVG 1.1//EN" "http://www.w3.org/Graphics/SVG/1.1/DTD/svg11.dtd"><svg width="12" height="12" viewBox="0 0 12 12" version="1.1" xmlns="http://www.w3.org/2000/svg" xmlns:xlink="http://www.w3.org/1999/xlink"><path fill-rule="evenodd" fill="currentColor" d="M2.64562352,9.8320254 C2.81532527,9.13991379 2.98108994,8.36702415 3.19980156,7.60947554 C3.32429476,7.1784331 3.23414919,6.89767852 2.87492453,6.62466235 C2.31816703,6.20176559 1.78123069,5.74723643 1.27796319,5.26243247 C1.11151971,5.10209826 0.953493444,4.76771793 1.01268541,4.58403276 C1.07404957,4.39369528 1.39064515,4.19602668 1.61777397,4.16507308 C2.35468685,4.0647454 3.10110302,4.0218448 3.84534701,3.99238458 C4.21244583,3.97785811 4.40862105,3.84481194 4.53650829,3.49115349 C4.78169338,2.81329683 5.05063671,2.14005605 5.37062633,1.4951894 C5.48181491,1.27104733 5.77682443,0.995044407 5.98155262,1.00006758 C6.19483378,1.00536227 6.4778963,1.28150096 6.59410806,1.50903706 C6.88029309,2.06932436 7.13484571,2.6558136 7.31445804,3.25805117 C7.48619621,3.83354374 7.82641428,4.02578188 8.39063865,4.03528518 C9.02165764,4.04601033 9.6566137,4.09189768 10.279487,4.18937437 C10.529831,4.22860941 10.9187874,4.4178608 10.9477046,4.58892017 C10.9889761,4.83356221 10.8226684,5.18939284 10.6297514,5.38217402 C10.1518713,5.8595111 9.62063693,6.2864807 9.08709463,6.7032682 C8.76629045,6.95388374 8.63826745,7.1886152 8.77620103,7.61653513 C8.99002523,8.28000109 9.14506475,8.96695377 9.26276988,9.65472102 C9.30539896,9.90397895 9.24987255,10.3282333 9.09496879,10.4147133 C8.88331677,10.5330973 8.48865838,10.491147 8.25243355,10.3663823 C7.5956199,10.0192404 6.99501147,9.56606882 6.33955543,9.21607594 C6.13890009,9.10882443 5.78456283,9.10936748 5.58322868,9.2162117 C4.90672963,9.57516484 4.27815435,10.0233132 3.61047979,10.4004584 C3.10952022,10.6833851 2.65675596,10.4333126 2.64562352,9.8320254"/></svg>