<?xml version="1.0" standalone="no"?><!DOCTYPE svg PUBLIC "-//W3C//DTD SVG 1.1//EN" "http://www.w3.org/Graphics/SVG/1.1/DTD/svg11.dtd"><svg width="12" height="12" viewBox="0 0 12 12" version="1.1" xmlns="http://www.w3.org/2000/svg" xmlns:xlink="http://www.w3.org/1999/xlink"><path fill-rule="evenodd" fill="currentColor" d="M9.9375 5.4001H7.3125C7.1625 5.4001 6.9375 5.3251 6.7875 5.2501L5.8875 5.0251C5.4375 4.8751 5.0625 4.7251 4.8375 4.5751C4.6875 4.4251 4.6125 4.2001 4.6125 3.9751C4.6125 3.6001 4.7625 3.3751 4.9875 3.1501C5.2125 2.9251 5.5875 2.8501 6.0375 2.8501C6.7125 2.8501 7.1625 3.1501 7.3875 3.6001C7.5375 3.9001 7.7625 4.1251 8.1375 4.1251H8.2125C8.5875 4.1251 8.9625 3.7501 8.8875 3.3751C8.5875 2.1001 7.4625 1.3501 6.0375 1.3501C5.1375 1.3501 4.3875 1.6501 3.8625 2.1001C3.3375 2.5501 3.0375 3.2251 3.0375 4.0501C3.0375 4.5751 3.1875 5.0251 3.4125 5.4751H2.0625C1.6125 5.4751 1.3125 5.7751 1.3125 6.2251C1.3125 6.6751 1.6125 6.9751 2.0625 6.9751H6.5625C6.8625 7.0501 7.0875 7.2001 7.3125 7.3501C7.5375 7.5001 7.6125 7.7251 7.6125 8.0251C7.6125 8.7001 7.0125 9.2251 6.0375 9.2251C5.2125 9.2251 4.6875 8.9251 4.4625 8.4751C4.3125 8.1001 4.0875 7.8001 3.7125 7.8001H3.5625C3.1875 7.8001 2.8125 8.1751 2.8875 8.5501C3.2625 9.8251 4.3875 10.5751 5.9625 10.5751C6.9375 10.5751 7.6875 10.2751 8.2875 9.8251C8.8125 9.3001 9.1125 8.6251 9.1125 7.7251C9.1125 7.4251 9.0375 7.1251 8.9625 6.8251H9.8625C10.3125 6.8251 10.6125 6.5251 10.6125 6.0751C10.6125 5.6251 10.3875 5.4001 9.9375 5.4001Z"/></svg>