<?xml version="1.0" standalone="no"?><!DOCTYPE svg PUBLIC "-//W3C//DTD SVG 1.1//EN" "http://www.w3.org/Graphics/SVG/1.1/DTD/svg11.dtd"><svg width="16" height="16" viewBox="0 0 16 16" version="1.1" xmlns="http://www.w3.org/2000/svg" xmlns:xlink="http://www.w3.org/1999/xlink"><path fill-rule="evenodd" fill="currentColor" d="M13.25 7.20005H9.75C9.55 7.20005 9.25 7.10005 9.05 7.00005L7.85 6.70005C7.25 6.50005 6.75 6.30005 6.45 6.10005C6.25 5.90005 6.15 5.60005 6.15 5.30005C6.15 4.80005 6.35 4.50005 6.65 4.20005C6.95 3.90005 7.45 3.80005 8.05 3.80005C8.95 3.80005 9.55 4.20005 9.85 4.80005C10.05 5.20005 10.35 5.50005 10.85 5.50005H10.95C11.45 5.50005 11.95 5.00005 11.85 4.50005C11.45 2.80005 9.95 1.80005 8.05 1.80005C6.85 1.80005 5.85 2.20005 5.15 2.80005C4.45 3.40005 4.05 4.30005 4.05 5.40005C4.05 6.10005 4.25 6.70005 4.55 7.30005H2.75C2.15 7.30005 1.75 7.70005 1.75 8.30005C1.75 8.90005 2.15 9.30005 2.75 9.30005H8.75C9.15 9.40005 9.45 9.60005 9.75 9.80005C10.05 10 10.15 10.3 10.15 10.7C10.15 11.6 9.35 12.3 8.05 12.3C6.95 12.3 6.25 11.9 5.95 11.3C5.75 10.8 5.45 10.4 4.95 10.4H4.75C4.25 10.4 3.75 10.9 3.85 11.4C4.35 13.1 5.85 14.1 7.95 14.1C9.25 14.1 10.25 13.7 11.05 13.1C11.75 12.4 12.15 11.5 12.15 10.3C12.15 9.90005 12.05 9.50005 11.95 9.10005H13.15C13.75 9.10005 14.15 8.70005 14.15 8.10005C14.15 7.50005 13.85 7.20005 13.25 7.20005Z"/></svg>