<?xml version="1.0" standalone="no"?><!DOCTYPE svg PUBLIC "-//W3C//DTD SVG 1.1//EN" "http://www.w3.org/Graphics/SVG/1.1/DTD/svg11.dtd"><svg width="16" height="16" viewBox="0 0 16 16" version="1.1" xmlns="http://www.w3.org/2000/svg" xmlns:xlink="http://www.w3.org/1999/xlink"><path fill-rule="evenodd" fill="currentColor" d="M0,2.14623946 C0,1.51318889 0.506602764,1 1.14623946,1 L2.85376054,1 C3.48681111,1 4,1.50660276 4,2.14623946 L4,3.85376054 C4,4.48681111 3.49339724,5 2.85376054,5 L1.14623946,5 C0.513188886,5 0,4.49339724 0,3.85376054 L0,2.14623946 Z M5,2.14623946 C5,1.51318889 5.50660276,1 6.14623946,1 L7.85376054,1 C8.48681111,1 9,1.50660276 9,2.14623946 L9,3.85376054 C9,4.48681111 8.49339724,5 7.85376054,5 L6.14623946,5 C5.51318889,5 5,4.49339724 5,3.85376054 L5,2.14623946 Z M0,7.14623946 C0,6.51318889 0.506602764,6 1.14623946,6 L2.85376054,6 C3.48681111,6 4,6.50660276 4,7.14623946 L4,8.85376054 C4,9.48681111 3.49339724,10 2.85376054,10 L1.14623946,10 C0.513188886,10 0,9.49339724 0,8.85376054 L0,7.14623946 Z M0,12.1462395 C0,11.5131889 0.506602764,11 1.14623946,11 L2.85376054,11 C3.48681111,11 4,11.5066028 4,12.1462395 L4,13.8537605 C4,14.4868111 3.49339724,15 2.85376054,15 L1.14623946,15 C0.513188886,15 0,14.4933972 0,13.8537605 L0,12.1462395 Z M5,12.1462395 C5,11.5131889 5.50660276,11 6.14623946,11 L7.85376054,11 C8.48681111,11 9,11.5066028 9,12.1462395 L9,13.8537605 C9,14.4868111 8.49339724,15 7.85376054,15 L6.14623946,15 C5.51318889,15 5,14.4933972 5,13.8537605 L5,12.1462395 Z M5,7.14623946 C5,6.51318889 5.50660276,6 6.14623946,6 L7.85376054,6 C8.48681111,6 9,6.50660276 9,7.14623946 L9,8.85376054 C9,9.48681111 8.49339724,10 7.85376054,10 L6.14623946,10 C5.51318889,10 5,9.49339724 5,8.85376054 L5,7.14623946 Z M10,2.14623946 C10,1.51318889 10.5066028,1 11.1462395,1 L12.8537605,1 C13.4868111,1 14,1.50660276 14,2.14623946 L14,3.85376054 C14,4.48681111 13.4933972,5 12.8537605,5 L11.1462395,5 C10.5131889,5 10,4.49339724 10,3.85376054 L10,2.14623946 Z M15.6153303,10.7608235 C15.8522232,10.9977165 15.8522232,11.3796459 15.6153303,11.6153303 C15.3796459,11.8522232 14.9977165,11.8522232 14.7608235,11.6153303 L13.7298556,10.5843624 C13.698431,10.5529378 13.6827188,10.5142614 13.6597546,10.4792109 C13.2959547,10.7003916 12.8729316,10.8345504 12.4172752,10.8345504 C11.0841479,10.8345504 10,9.75040246 10,8.41727519 C10,7.08414792 11.0841479,6 12.4172752,6 C13.7504025,6 14.8345504,7.08414792 14.8345504,8.41727519 C14.8345504,8.87293157 14.7003916,9.29595473 14.4792109,9.65975464 C14.5142614,9.68271876 14.5529378,9.69843105 14.5843624,9.72985562 L15.6153303,10.7608235 Z M12.4172752,9.62591279 C13.0844431,9.62591279 13.6259128,9.08444315 13.6259128,8.41727519 C13.6259128,7.75010724 13.0844431,7.2086376 12.4172752,7.2086376 C11.7501072,7.2086376 11.2086376,7.75010724 11.2086376,8.41727519 C11.2086376,9.08444315 11.7501072,9.62591279 12.4172752,9.62591279 Z"/></svg>