<?xml version="1.0" standalone="no"?><!DOCTYPE svg PUBLIC "-//W3C//DTD SVG 1.1//EN" "http://www.w3.org/Graphics/SVG/1.1/DTD/svg11.dtd"><svg width="12" height="12" viewBox="0 0 12 12" version="1.1" xmlns="http://www.w3.org/2000/svg" xmlns:xlink="http://www.w3.org/1999/xlink"><path fill-rule="evenodd" fill="currentColor" d="M9,10 C8.448,10 8,9.552 8,9 C8,8.448 8.448,8 9,8 C9.552,8 10,8.448 10,9 C10,9.552 9.552,10 9,10 M11.646,10.939 C11.842,11.135 11.842,11.451 11.646,11.646 C11.451,11.842 11.135,11.842 10.939,11.646 L10.086,10.793 C10.06,10.767 10.047,10.735 10.028,10.706 C9.727,10.889 9.377,11 9,11 C7.897,11 7,10.103 7,9 C7,7.897 7.897,7 9,7 C10.103,7 11,7.897 11,9 C11,9.377 10.889,9.727 10.706,10.028 C10.735,10.047 10.767,10.06 10.793,10.086 L11.646,10.939 Z M0,0.859679595 C0,0.384891665 0.379952073,0 0.859679595,0 L2.14032041,0 C2.61510834,0 3,0.379952073 3,0.859679595 L3,2.14032041 C3,2.61510834 2.62004793,3 2.14032041,3 L0.859679595,3 C0.384891665,3 0,2.62004793 0,2.14032041 L0,0.859679595 Z M4,0.859679595 C4,0.384891665 4.37995207,0 4.85967959,0 L6.14032041,0 C6.61510834,0 7,0.379952073 7,0.859679595 L7,2.14032041 C7,2.61510834 6.62004793,3 6.14032041,3 L4.85967959,3 C4.38489166,3 4,2.62004793 4,2.14032041 L4,0.859679595 Z M0,4.85967959 C0,4.38489166 0.379952073,4 0.859679595,4 L2.14032041,4 C2.61510834,4 3,4.37995207 3,4.85967959 L3,6.14032041 C3,6.61510834 2.62004793,7 2.14032041,7 L0.859679595,7 C0.384891665,7 0,6.62004793 0,6.14032041 L0,4.85967959 Z M4,4.85967959 C4,4.38489166 4.37995207,4 4.85967959,4 L6.14032041,4 C6.61510834,4 7,4.37995207 7,4.85967959 L7,6.14032041 C7,6.61510834 6.62004793,7 6.14032041,7 L4.85967959,7 C4.38489166,7 4,6.62004793 4,6.14032041 L4,4.85967959 Z M8,0.859679595 C8,0.384891665 8.37995207,0 8.85967959,0 L10.1403204,0 C10.6151083,0 11,0.379952073 11,0.859679595 L11,2.14032041 C11,2.61510834 10.6200479,3 10.1403204,3 L8.85967959,3 C8.38489166,3 8,2.62004793 8,2.14032041 L8,0.859679595 Z"/></svg>