<?xml version="1.0" standalone="no"?><!DOCTYPE svg PUBLIC "-//W3C//DTD SVG 1.1//EN" "http://www.w3.org/Graphics/SVG/1.1/DTD/svg11.dtd"><svg width="12" height="12" viewBox="0 0 12 12" class="tabsMicro" style="height:12px;margin-right:16px;width:12px;perspective-origin:6px 6px;transform-origin:6px 6px;shape-rendering:geometricprecision;" version="1.1" xmlns="http://www.w3.org/2000/svg" xmlns:xlink="http://www.w3.org/1999/xlink"><path fill-rule="evenodd" class="" fill="currentColor" d="M0 2.009A2.01 2.01 0 0 1 2.009 0H9.99A2.01 2.01 0 0 1 12 2.009V9.99A2.01 2.01 0 0 1 9.991 12H2.01A2.01 2.01 0 0 1 0 9.991V2.01zm2 .988v6.006c0 .544.446.997.997.997h6.006c.544 0 .997-.446.997-.997V2.997C10 2.453 9.554 2 9.003 2H2.997C2.453 2 2 2.446 2 2.997zM4.53 4.47L6 5.94l1.47-1.47a.75.75 0 0 1 1.06 1.06l-2 2a.75.75 0 0 1-1.06 0l-2-2a.75.75 0 0 1 1.06-1.06z" style="display:inline;height:auto;min-height:0px;min-width:0px;overflow-x:visible;overflow-y:visible;width:auto;perspective-origin:0px 0px;transform-origin:0px 0px;fill:rgb(51, 51, 51);fill-rule:evenodd;shape-rendering:geometricprecision;d:path(&quot;M 0 2.009 A 2.01 2.01 0 0 1 2.009 0 H 9.99 A 2.01 2.01 0 0 1 12 2.009 V 9.99 A 2.01 2.01 0 0 1 9.991 12 H 2.01 A 2.01 2.01 0 0 1 0 9.991 V 2.01 Z M 2 2.997 V 9.003 C 2 9.547 2.446 10 2.997 10 H 9.003 C 9.547 10 10 9.554 10 9.003 V 2.997 C 10 2.453 9.554 2 9.003 2 H 2.997 C 2.453 2 2 2.446 2 2.997 Z M 4.53 4.47 L 6 5.94 L 7.47 4.47 A 0.75 0.75 0 0 1 8.53 5.53 L 6.53 7.53 A 0.75 0.75 0 0 1 5.47 7.53 L 3.47 5.53 A 0.75 0.75 0 0 1 4.53 4.47 Z&quot;);"/></svg>