<?xml version="1.0" standalone="no"?><!DOCTYPE svg PUBLIC "-//W3C//DTD SVG 1.1//EN" "http://www.w3.org/Graphics/SVG/1.1/DTD/svg11.dtd"><svg width="12" height="12" viewBox="0 0 12 12" version="1.1" xmlns="http://www.w3.org/2000/svg" xmlns:xlink="http://www.w3.org/1999/xlink"><path fill-rule="evenodd" fill="currentColor" d="M0 2.009A2.01 2.01 0 0 1 2.009 0H9.99A2.01 2.01 0 0 1 12 2.009V9.99A2.01 2.01 0 0 1 9.991 12H2.01A2.01 2.01 0 0 1 0 9.991V2.01zm2 .988v6.006c0 .544.446.997.997.997h6.006c.544 0 .997-.446.997-.997V2.997C10 2.453 9.554 2 9.003 2H2.997C2.453 2 2 2.446 2 2.997zM4.53 4.47L6 5.94l1.47-1.47a.75.75 0 0 1 1.06 1.06l-2 2a.75.75 0 0 1-1.06 0l-2-2a.75.75 0 0 1 1.06-1.06z"/></svg>