<?xml version="1.0" standalone="no"?><!DOCTYPE svg PUBLIC "-//W3C//DTD SVG 1.1//EN" "http://www.w3.org/Graphics/SVG/1.1/DTD/svg11.dtd"><svg width="16" height="16" viewBox="0 0 16 16" class="tabs" style="height:16px;margin-right:8px;width:16px;perspective-origin:8px 8px;transform-origin:8px 8px;shape-rendering:geometricprecision;" version="1.1" xmlns="http://www.w3.org/2000/svg" xmlns:xlink="http://www.w3.org/1999/xlink"><path fill-rule="evenodd" class="" fill="currentColor" d="M1 3.006C1 1.898 1.897 1 3.006 1h9.988C14.102 1 15 1.897 15 3.006v9.988A2.005 2.005 0 0 1 12.994 15H3.006A2.005 2.005 0 0 1 1 12.994V3.006zm2 .99v8.009c0 .54.446.995.995.995h8.01c.54 0 .995-.446.995-.995v-8.01c0-.54-.446-.995-.995-.995h-8.01C3.455 3 3 3.446 3 3.995zM5.53 6.47L8 8.94l2.47-2.47a.75.75 0 0 1 1.06 1.06l-3 3a.75.75 0 0 1-1.06 0l-3-3a.75.75 0 0 1 1.06-1.06z" style="display:inline;height:auto;min-height:0px;min-width:0px;overflow-x:visible;overflow-y:visible;width:auto;perspective-origin:0px 0px;transform-origin:0px 0px;fill:rgb(51, 51, 51);fill-rule:evenodd;shape-rendering:geometricprecision;d:path(&quot;M 1 3.006 C 1 1.898 1.897 1 3.006 1 H 12.994 C 14.102 1 15 1.897 15 3.006 V 12.994 A 2.005 2.005 0 0 1 12.994 15 H 3.006 A 2.005 2.005 0 0 1 1 12.994 V 3.006 Z M 3 3.996 V 12.005 C 3 12.545 3.446 13 3.995 13 H 12.005 C 12.545 13 13 12.554 13 12.005 V 3.995 C 13 3.455 12.554 3 12.005 3 H 3.995 C 3.455 3 3 3.446 3 3.995 Z M 5.53 6.47 L 8 8.94 L 10.47 6.47 A 0.75 0.75 0 0 1 11.53 7.53 L 8.53 10.53 A 0.75 0.75 0 0 1 7.47 10.53 L 4.47 7.53 A 0.75 0.75 0 0 1 5.53 6.47 Z&quot;);"/></svg>