<?xml version="1.0" standalone="no"?><!DOCTYPE svg PUBLIC "-//W3C//DTD SVG 1.1//EN" "http://www.w3.org/Graphics/SVG/1.1/DTD/svg11.dtd"><svg width="12" height="12" viewBox="0 0 12 12" class="teamLockedMicro" style="height:12px;margin-right:16px;width:12px;perspective-origin:6px 6px;transform-origin:6px 6px;shape-rendering:geometricprecision;" version="1.1" xmlns="http://www.w3.org/2000/svg" xmlns:xlink="http://www.w3.org/1999/xlink"><path fill-rule="evenodd" class="" fill="currentColor" d="M4.93 10.955a2.42 2.42 0 0 0 .07-.599l-.009-.962c0-.544-.1-1.052-.39-1.386v-.36c0-.635-.252-1.233-.691-1.679H4c2.667 0 3.5 1.75 3.5 3.625 0 .77-1.18 1.223-2.57 1.361zm3.57-1.49c-.001-1.033-.217-1.927-.65-2.633.292-.222.67-.363 1.15-.363 1.5 0 2 1.375 2 2.312 0 .548-1.365.776-2.5.683zM9 5.968a1.5 1.5 0 1 1 0-3 1.5 1.5 0 0 1 0 3zm-5-1a2 2 0 1 1 0-4 2 2 0 0 1 0 4zm-.4 2.679c0-.604-.474-1.437-1.595-1.437-1.122 0-1.597.812-1.597 1.437v.957c-.317 0-.408.497-.408.799l.009.952c0 .306.098.644.4.644H3.6c.307 0 .399-.342.399-.644l-.009-.952c0-.306-.085-.799-.39-.799v-.957zm-.797.957v-.957s.005-.639-.798-.639c-.804 0-.799.639-.799.639v.957h1.597z" style="display:inline;height:auto;min-height:0px;min-width:0px;overflow-x:visible;overflow-y:visible;width:auto;perspective-origin:0px 0px;transform-origin:0px 0px;fill:rgb(51, 51, 51);fill-rule:evenodd;shape-rendering:geometricprecision;d:path(&quot;M 4.93 10.955 A 2.42 2.42 0 0 0 5 10.356 L 4.991 9.394 C 4.991 8.85 4.891 8.342 4.601 8.008 V 7.648 C 4.601 7.013 4.349 6.415 3.91 5.969 H 4 C 6.667 5.969 7.5 7.719 7.5 9.594 C 7.5 10.364 6.32 10.817 4.93 10.955 Z M 8.5 9.465 C 8.499 8.432 8.283 7.538 7.85 6.832 C 8.142 6.61 8.52 6.469 9 6.469 C 10.5 6.469 11 7.844 11 8.781 C 11 9.329 9.635 9.557 8.5 9.464 Z M 9 5.968 A 1.5 1.5 0 1 1 9 2.968 A 1.5 1.5 0 0 1 9 5.968 Z M 4 4.968 A 2 2 0 1 1 4 0.968 A 2 2 0 0 1 4 4.968 Z M 3.6 7.647 C 3.6 7.043 3.126 6.21 2.005 6.21 C 0.883 6.21 0.408 7.022 0.408 7.647 V 8.604 C 0.0909998 8.604 -2.38419e-7 9.101 -2.38419e-7 9.403 L 0.00899976 10.355 C 0.00899976 10.661 0.107 10.999 0.409 10.999 H 3.6 C 3.907 10.999 3.999 10.657 3.999 10.355 L 3.99 9.403 C 3.99 9.097 3.905 8.604 3.6 8.604 V 7.647 Z M 2.803 8.604 V 7.647 S 2.808 7.008 2.005 7.008 C 1.201 7.008 1.206 7.647 1.206 7.647 V 8.604 H 2.803 Z&quot;);"/></svg>