<?xml version="1.0" standalone="no"?><!DOCTYPE svg PUBLIC "-//W3C//DTD SVG 1.1//EN" "http://www.w3.org/Graphics/SVG/1.1/DTD/svg11.dtd"><svg width="16" height="16" viewBox="0 0 16 16" class="team" style="height:16px;margin-right:8px;width:16px;perspective-origin:8px 8px;transform-origin:8px 8px;shape-rendering:geometricprecision;" version="1.1" xmlns="http://www.w3.org/2000/svg" xmlns:xlink="http://www.w3.org/1999/xlink"><path fill-rule="evenodd" class="" fill="currentColor" d="M13.323 12.687c.007-.061.01-.123.01-.187 0-1.582-.422-2.755-1.187-3.566.33-.168.722-.267 1.187-.267 2 0 2.667 1.833 2.667 3.083 0 .627-1.34.94-2.677.937zm-9.47-3.753c-.764.81-1.186 1.984-1.186 3.566 0 .064.003.126.009.187C1.339 12.69 0 12.377 0 11.75c0-1.25.667-3.083 2.667-3.083.465 0 .857.099 1.187.267zM8 7a2.5 2.5 0 1 1 0-5 2.5 2.5 0 0 1 0 5zm5.333 1a2 2 0 1 1 0-4 2 2 0 0 1 0 4zM2.667 8a2 2 0 1 1 0-4 2 2 0 0 1 0 4zM8 8c2.667 0 4.5 1 4.5 4.5 0 .945-1 2-4.5 2s-4.5-.945-4.5-2C3.5 9 5.333 8 8 8z" style="display:inline;height:auto;min-height:0px;min-width:0px;overflow-x:visible;overflow-y:visible;width:auto;perspective-origin:0px 0px;transform-origin:0px 0px;fill:rgb(51, 51, 51);fill-rule:evenodd;shape-rendering:geometricprecision;d:path(&quot;M 13.323 12.687 C 13.33 12.626 13.333 12.564 13.333 12.5 C 13.333 10.918 12.911 9.745 12.146 8.934 C 12.476 8.766 12.868 8.667 13.333 8.667 C 15.333 8.667 16 10.5 16 11.75 C 16 12.377 14.66 12.69 13.323 12.687 Z M 3.853 8.934 C 3.089 9.744 2.667 10.918 2.667 12.5 C 2.667 12.564 2.67 12.626 2.676 12.687 C 1.339 12.69 0 12.377 0 11.75 C 0 10.5 0.667 8.667 2.667 8.667 C 3.132 8.667 3.524 8.766 3.854 8.934 Z M 8 7 A 2.5 2.5 0 1 1 8 2 A 2.5 2.5 0 0 1 8 7 Z M 13.333 8 A 2 2 0 1 1 13.333 4 A 2 2 0 0 1 13.333 8 Z M 2.667 8 A 2 2 0 1 1 2.667 4 A 2 2 0 0 1 2.667 8 Z M 8 8 C 10.667 8 12.5 9 12.5 12.5 C 12.5 13.445 11.5 14.5 8 14.5 S 3.5 13.555 3.5 12.5 C 3.5 9 5.333 8 8 8 Z&quot;);"/></svg>