<?xml version="1.0" standalone="no"?><!DOCTYPE svg PUBLIC "-//W3C//DTD SVG 1.1//EN" "http://www.w3.org/Graphics/SVG/1.1/DTD/svg11.dtd"><svg width="12" height="12" viewBox="0 0 12 12" version="1.1" xmlns="http://www.w3.org/2000/svg" xmlns:xlink="http://www.w3.org/1999/xlink"><path fill-rule="evenodd" fill="currentColor" d="M10.498 9.496c-.03-1.185-.479-2.168-1.239-2.863A2 2 0 0 1 10 6.5c1.5 0 2 1.375 2 2.313 0 .39-.693.617-1.502.683zM2.872 6.69c-.755.715-1.235 1.7-1.347 2.807C.706 9.435 0 9.206 0 8.813 0 7.875.5 6.5 2 6.5c.34 0 .629.07.872.191zM10 6a1.5 1.5 0 1 1 0-3 1.5 1.5 0 0 1 0 3zM2 6a1.5 1.5 0 1 1 0-3 1.5 1.5 0 0 1 0 3zm4-1a2 2 0 1 1 0-4 2 2 0 0 1 0 4zm0 1c2.667 0 3.5 1.75 3.5 3.625s-7 1.875-7 0S3.333 6 6 6z"/></svg>