<?xml version="1.0" standalone="no"?><!DOCTYPE svg PUBLIC "-//W3C//DTD SVG 1.1//EN" "http://www.w3.org/Graphics/SVG/1.1/DTD/svg11.dtd"><svg width="16" height="16" viewBox="0 0 16 16" version="1.1" xmlns="http://www.w3.org/2000/svg" xmlns:xlink="http://www.w3.org/1999/xlink"><path fill-rule="evenodd" fill="currentColor" d="M13.323 12.687c.007-.061.01-.123.01-.187 0-1.582-.422-2.755-1.187-3.566.33-.168.722-.267 1.187-.267 2 0 2.667 1.833 2.667 3.083 0 .627-1.34.94-2.677.937zm-9.47-3.753c-.764.81-1.186 1.984-1.186 3.566 0 .064.003.126.009.187C1.339 12.69 0 12.377 0 11.75c0-1.25.667-3.083 2.667-3.083.465 0 .857.099 1.187.267zM8 7a2.5 2.5 0 1 1 0-5 2.5 2.5 0 0 1 0 5zm5.333 1a2 2 0 1 1 0-4 2 2 0 0 1 0 4zM2.667 8a2 2 0 1 1 0-4 2 2 0 0 1 0 4zM8 8c2.667 0 4.5 1 4.5 4.5 0 .945-1 2-4.5 2s-4.5-.945-4.5-2C3.5 9 5.333 8 8 8z"/></svg>