<?xml version="1.0" standalone="no"?><!DOCTYPE svg PUBLIC "-//W3C//DTD SVG 1.1//EN" "http://www.w3.org/Graphics/SVG/1.1/DTD/svg11.dtd"><svg width="12" height="12" viewBox="0 0 12 12" class="teamMicro" style="height:12px;margin-right:16px;width:12px;perspective-origin:6px 6px;transform-origin:6px 6px;shape-rendering:geometricprecision;" version="1.1" xmlns="http://www.w3.org/2000/svg" xmlns:xlink="http://www.w3.org/1999/xlink"><path fill-rule="evenodd" class="" fill="currentColor" d="M10.498 9.496c-.03-1.185-.479-2.168-1.239-2.863A2 2 0 0 1 10 6.5c1.5 0 2 1.375 2 2.313 0 .39-.693.617-1.502.683zM2.872 6.69c-.755.715-1.235 1.7-1.347 2.807C.706 9.435 0 9.206 0 8.813 0 7.875.5 6.5 2 6.5c.34 0 .629.07.872.191zM10 6a1.5 1.5 0 1 1 0-3 1.5 1.5 0 0 1 0 3zM2 6a1.5 1.5 0 1 1 0-3 1.5 1.5 0 0 1 0 3zm4-1a2 2 0 1 1 0-4 2 2 0 0 1 0 4zm0 1c2.667 0 3.5 1.75 3.5 3.625s-7 1.875-7 0S3.333 6 6 6z" style="display:inline;height:auto;min-height:0px;min-width:0px;overflow-x:visible;overflow-y:visible;width:auto;perspective-origin:0px 0px;transform-origin:0px 0px;fill:rgb(51, 51, 51);fill-rule:evenodd;shape-rendering:geometricprecision;d:path(&quot;M 10.498 9.496 C 10.468 8.311 10.019 7.328 9.259 6.633 A 2 2 0 0 1 10 6.5 C 11.5 6.5 12 7.875 12 8.813 C 12 9.203 11.307 9.43 10.498 9.496 Z M 2.872 6.69 C 2.117 7.405 1.637 8.39 1.525 9.497 C 0.706 9.435 0 9.206 0 8.813 C 0 7.875 0.5 6.5 2 6.5 C 2.34 6.5 2.629 6.57 2.872 6.691 Z M 10 6 A 1.5 1.5 0 1 1 10 3 A 1.5 1.5 0 0 1 10 6 Z M 2 6 A 1.5 1.5 0 1 1 2 3 A 1.5 1.5 0 0 1 2 6 Z M 6 5 A 2 2 0 1 1 6 1 A 2 2 0 0 1 6 5 Z M 6 6 C 8.667 6 9.5 7.75 9.5 9.625 S 2.5 11.5 2.5 9.625 S 3.333 6 6 6 Z&quot;);"/></svg>