<?xml version="1.0" standalone="no"?><!DOCTYPE svg PUBLIC "-//W3C//DTD SVG 1.1//EN" "http://www.w3.org/Graphics/SVG/1.1/DTD/svg11.dtd"><svg width="12" height="12" viewBox="0 0 12 12" version="1.1" xmlns="http://www.w3.org/2000/svg" xmlns:xlink="http://www.w3.org/1999/xlink"><path fill-rule="evenodd" fill="currentColor" d="M4.93 10.955a2.42 2.42 0 0 0 .07-.599l-.009-.962c0-.544-.1-1.052-.39-1.386v-.36c0-.635-.252-1.233-.691-1.679H4c2.667 0 3.5 1.75 3.5 3.625 0 .77-1.18 1.223-2.57 1.361zm3.57-1.49c-.001-1.033-.217-1.927-.65-2.633.292-.222.67-.363 1.15-.363 1.5 0 2 1.375 2 2.312 0 .548-1.365.776-2.5.683zM9 5.968a1.5 1.5 0 1 1 0-3 1.5 1.5 0 0 1 0 3zm-5-1a2 2 0 1 1 0-4 2 2 0 0 1 0 4zm-.4 2.679c0-.604-.474-1.437-1.595-1.437-1.122 0-1.597.812-1.597 1.437v.957c-.317 0-.408.497-.408.799l.009.952c0 .306.098.644.4.644H3.6c.307 0 .399-.342.399-.644l-.009-.952c0-.306-.085-.799-.39-.799v-.957zm-.797.957v-.957s.005-.639-.798-.639c-.804 0-.799.639-.799.639v.957h1.597z"/></svg>