<?xml version="1.0" standalone="no"?><!DOCTYPE svg PUBLIC "-//W3C//DTD SVG 1.1//EN" "http://www.w3.org/Graphics/SVG/1.1/DTD/svg11.dtd"><svg width="16" height="16" viewBox="0 0 16 16" class="teamLocked" style="height:16px;margin-right:8px;width:16px;perspective-origin:8px 8px;transform-origin:8px 8px;shape-rendering:geometricprecision;" version="1.1" xmlns="http://www.w3.org/2000/svg" xmlns:xlink="http://www.w3.org/1999/xlink"><path fill-rule="evenodd" class="" fill="currentColor" d="M6.005 14.493L6 13.991c0-.65-.128-1.249-.489-1.617V11.8c0-1.31-.933-2.486-2.387-2.747C3.92 8.278 5.094 8 6.5 8 9.167 8 11 9 11 12.5c0 .945-1 2-4.5 2-.171 0-.336-.002-.495-.007zm5.978-1.85a2.09 2.09 0 0 0 .017-.268c0-1.34-.242-2.403-.717-3.21.391-.305.9-.498 1.55-.498 2 0 2.667 1.833 2.667 3.083 0 .76-1.971 1.058-3.517.894zM6.5 7a2.5 2.5 0 1 1 0-5 2.5 2.5 0 0 1 0 5zm6.333 1a2 2 0 1 1 0-4 2 2 0 0 1 0 4zm-8.322 3.8c0-.756-.595-1.8-2-1.8-1.404 0-2 1.018-2 1.8V13C.113 13 0 13.622 0 14l.011 1.194c0 .383.122.806.5.806h4c.385 0 .5-.429.5-.806L5 14c0-.383-.106-1-.489-1v-1.2zm-1 1.2v-1.2s.007-.8-1-.8-1 .8-1 .8V13h2z" style="display:inline;height:auto;min-height:0px;min-width:0px;overflow-x:visible;overflow-y:visible;width:auto;perspective-origin:0px 0px;transform-origin:0px 0px;fill:rgb(51, 51, 51);fill-rule:evenodd;shape-rendering:geometricprecision;d:path(&quot;M 6.005 14.493 L 6 13.991 C 6 13.341 5.872 12.742 5.511 12.374 V 11.8 C 5.511 10.49 4.578 9.314 3.124 9.053 C 3.92 8.278 5.094 8 6.5 8 C 9.167 8 11 9 11 12.5 C 11 13.445 10 14.5 6.5 14.5 C 6.329 14.5 6.164 14.498 6.005 14.493 Z M 11.983 12.643 A 2.09 2.09 0 0 0 12 12.375 C 12 11.035 11.758 9.972 11.283 9.165 C 11.674 8.86 12.183 8.667 12.833 8.667 C 14.833 8.667 15.5 10.5 15.5 11.75 C 15.5 12.51 13.529 12.808 11.983 12.644 Z M 6.5 7 A 2.5 2.5 0 1 1 6.5 2 A 2.5 2.5 0 0 1 6.5 7 Z M 12.833 8 A 2 2 0 1 1 12.833 4 A 2 2 0 0 1 12.833 8 Z M 4.511 11.8 C 4.511 11.044 3.916 10 2.511 10 C 1.107 10 0.511 11.018 0.511 11.8 V 13 C 0.113 13 0 13.622 0 14 L 0.011 15.194 C 0.011 15.577 0.133 16 0.511 16 H 4.511 C 4.896 16 5.011 15.571 5.011 15.194 L 5 14 C 5 13.617 4.894 13 4.511 13 V 11.8 Z M 3.511 13 V 11.8 S 3.518 11 2.511 11 S 1.511 11.8 1.511 11.8 V 13 H 3.511 Z&quot;);"/></svg>