<?xml version="1.0" standalone="no"?><!DOCTYPE svg PUBLIC "-//W3C//DTD SVG 1.1//EN" "http://www.w3.org/Graphics/SVG/1.1/DTD/svg11.dtd"><svg width="16" height="16" viewBox="0 0 16 16" version="1.1" xmlns="http://www.w3.org/2000/svg" xmlns:xlink="http://www.w3.org/1999/xlink"><path fill-rule="evenodd" fill="currentColor" d="M6.005 14.493L6 13.991c0-.65-.128-1.249-.489-1.617V11.8c0-1.31-.933-2.486-2.387-2.747C3.92 8.278 5.094 8 6.5 8 9.167 8 11 9 11 12.5c0 .945-1 2-4.5 2-.171 0-.336-.002-.495-.007zm5.978-1.85a2.09 2.09 0 0 0 .017-.268c0-1.34-.242-2.403-.717-3.21.391-.305.9-.498 1.55-.498 2 0 2.667 1.833 2.667 3.083 0 .76-1.971 1.058-3.517.894zM6.5 7a2.5 2.5 0 1 1 0-5 2.5 2.5 0 0 1 0 5zm6.333 1a2 2 0 1 1 0-4 2 2 0 0 1 0 4zm-8.322 3.8c0-.756-.595-1.8-2-1.8-1.404 0-2 1.018-2 1.8V13C.113 13 0 13.622 0 14l.011 1.194c0 .383.122.806.5.806h4c.385 0 .5-.429.5-.806L5 14c0-.383-.106-1-.489-1v-1.2zm-1 1.2v-1.2s.007-.8-1-.8-1 .8-1 .8V13h2z"/></svg>