<?xml version="1.0" standalone="no"?><!DOCTYPE svg PUBLIC "-//W3C//DTD SVG 1.1//EN" "http://www.w3.org/Graphics/SVG/1.1/DTD/svg11.dtd"><svg width="16" height="16" viewBox="0 0 16 16" class="text" style="height:16px;margin-right:8px;width:16px;perspective-origin:8px 8px;transform-origin:8px 8px;shape-rendering:geometricprecision;" version="1.1" xmlns="http://www.w3.org/2000/svg" xmlns:xlink="http://www.w3.org/1999/xlink"><path fill-rule="evenodd" class="" fill="currentColor" d="M2.554 12.615L6.628 2.429C6.834 1.916 7.448 1.5 8 1.5c.556 0 1.166.416 1.372.93l4.074 10.185c.306.765-.116 1.385-.944 1.385h-.252a1.1 1.1 0 0 1-.987-.711l-.526-1.578c-.13-.39-.577-.711-.996-.711H6.259c-.43 0-.865.318-.996.711l-.526 1.578c-.13.39-.573.711-.987.711h-.252c-.828 0-1.25-.62-.944-1.385zM6.371 8.07c-.205.513.072.929.638.929h1.982c.557 0 .845-.41.637-.929L8.556 5.393c-.308-.77-.806-.77-1.114 0L6.372 8.07z" style="display:inline;height:auto;min-height:0px;min-width:0px;overflow-x:visible;overflow-y:visible;width:auto;perspective-origin:0px 0px;transform-origin:0px 0px;fill:rgb(51, 51, 51);fill-rule:evenodd;shape-rendering:geometricprecision;d:path(&quot;M 2.554 12.615 L 6.628 2.429 C 6.834 1.916 7.448 1.5 8 1.5 C 8.556 1.5 9.166 1.916 9.372 2.43 L 13.446 12.615 C 13.752 13.38 13.33 14 12.502 14 H 12.25 A 1.1 1.1 0 0 1 11.263 13.289 L 10.737 11.711 C 10.607 11.321 10.16 11 9.741 11 H 6.259 C 5.829 11 5.394 11.318 5.263 11.711 L 4.737 13.289 C 4.607 13.679 4.164 14 3.75 14 H 3.498 C 2.67 14 2.248 13.38 2.554 12.615 Z M 6.371 8.07 C 6.166 8.583 6.443 8.999 7.009 8.999 H 8.991 C 9.548 8.999 9.836 8.589 9.628 8.07 L 8.556 5.393 C 8.248 4.623 7.75 4.623 7.442 5.393 L 6.372 8.07 Z&quot;);"/></svg>