<?xml version="1.0" standalone="no"?><!DOCTYPE svg PUBLIC "-//W3C//DTD SVG 1.1//EN" "http://www.w3.org/Graphics/SVG/1.1/DTD/svg11.dtd"><svg width="12" height="12" viewBox="0 0 12 12" version="1.1" xmlns="http://www.w3.org/2000/svg" xmlns:xlink="http://www.w3.org/1999/xlink"><path fill-rule="evenodd" fill="currentColor" d="M2.0476155,10.1206425 L5.11130917,2.46140833 C5.21101579,2.21214176 5.51781872,2 5.79160327,2 L6.17326986,2 C6.45444936,2 6.75163245,2.20657954 6.85356396,2.46140833 L9.91725763,10.1206425 C10.0169643,10.3699091 9.87541306,10.5820508 9.59612477,10.5820508 L8.63867303,10.5820508 C8.49802926,10.5820508 8.3501498,10.4762679 8.30665317,10.3457779 L7.858084,9.00007044 C7.77232111,8.74278177 7.472068,8.52235863 7.19232227,8.52235863 L4.77255086,8.52235863 C4.49126333,8.52235863 4.19473344,8.73623749 4.10678913,9.00007044 L3.65821996,10.3457779 C3.616375,10.4713128 3.46607297,10.5820508 3.3262001,10.5820508 L2.36874836,10.5820508 C2.08744282,10.5820508 1.94568398,10.3754713 2.0476155,10.1206425 Z M4.79439217,6.68626507 C4.69217324,6.94195382 4.82480255,7.1492305 5.11301416,7.1492305 L6.85185897,7.1492305 C7.13004796,7.1492305 7.27373619,6.94477233 7.17027609,6.68626507 L6.34985372,4.63634302 C6.14651535,4.12827813 5.81339771,4.13734132 5.61390744,4.63634302 L4.79439217,6.68626507 Z"/></svg>