<?xml version="1.0" standalone="no"?><!DOCTYPE svg PUBLIC "-//W3C//DTD SVG 1.1//EN" "http://www.w3.org/Graphics/SVG/1.1/DTD/svg11.dtd"><svg width="12" height="12" viewBox="0 0 12 12" class="textMicro" style="height:12px;margin-right:16px;width:12px;perspective-origin:6px 6px;transform-origin:6px 6px;shape-rendering:geometricprecision;" version="1.1" xmlns="http://www.w3.org/2000/svg" xmlns:xlink="http://www.w3.org/1999/xlink"><path fill-rule="evenodd" class="" fill="currentColor" d="M2.0476155,10.1206425 L5.11130917,2.46140833 C5.21101579,2.21214176 5.51781872,2 5.79160327,2 L6.17326986,2 C6.45444936,2 6.75163245,2.20657954 6.85356396,2.46140833 L9.91725763,10.1206425 C10.0169643,10.3699091 9.87541306,10.5820508 9.59612477,10.5820508 L8.63867303,10.5820508 C8.49802926,10.5820508 8.3501498,10.4762679 8.30665317,10.3457779 L7.858084,9.00007044 C7.77232111,8.74278177 7.472068,8.52235863 7.19232227,8.52235863 L4.77255086,8.52235863 C4.49126333,8.52235863 4.19473344,8.73623749 4.10678913,9.00007044 L3.65821996,10.3457779 C3.616375,10.4713128 3.46607297,10.5820508 3.3262001,10.5820508 L2.36874836,10.5820508 C2.08744282,10.5820508 1.94568398,10.3754713 2.0476155,10.1206425 Z M4.79439217,6.68626507 C4.69217324,6.94195382 4.82480255,7.1492305 5.11301416,7.1492305 L6.85185897,7.1492305 C7.13004796,7.1492305 7.27373619,6.94477233 7.17027609,6.68626507 L6.34985372,4.63634302 C6.14651535,4.12827813 5.81339771,4.13734132 5.61390744,4.63634302 L4.79439217,6.68626507 Z" style="display:inline;height:auto;min-height:0px;min-width:0px;overflow-x:visible;overflow-y:visible;width:auto;perspective-origin:0px 0px;transform-origin:0px 0px;fill:rgb(51, 51, 51);fill-rule:evenodd;shape-rendering:geometricprecision;d:path(&quot;M 2.04762 10.1206 L 5.11131 2.46141 C 5.21102 2.21214 5.51782 2 5.7916 2 L 6.17327 2 C 6.45445 2 6.75163 2.20658 6.85356 2.46141 L 9.91726 10.1206 C 10.017 10.3699 9.87541 10.5821 9.59612 10.5821 L 8.63867 10.5821 C 8.49803 10.5821 8.35015 10.4763 8.30665 10.3458 L 7.85808 9.00007 C 7.77232 8.74278 7.47207 8.52236 7.19232 8.52236 L 4.77255 8.52236 C 4.49126 8.52236 4.19473 8.73624 4.10679 9.00007 L 3.65822 10.3458 C 3.61637 10.4713 3.46607 10.5821 3.3262 10.5821 L 2.36875 10.5821 C 2.08744 10.5821 1.94568 10.3755 2.04762 10.1206 Z M 4.79439 6.68626 C 4.69217 6.94195 4.8248 7.14923 5.11301 7.14923 L 6.85186 7.14923 C 7.13005 7.14923 7.27374 6.94477 7.17028 6.68626 L 6.34985 4.63634 C 6.14652 4.12828 5.8134 4.13734 5.61391 4.63634 L 4.79439 6.68626 Z&quot;);"/></svg>