<?xml version="1.0" standalone="no"?><!DOCTYPE svg PUBLIC "-//W3C//DTD SVG 1.1//EN" "http://www.w3.org/Graphics/SVG/1.1/DTD/svg11.dtd"><svg width="16" height="16" viewBox="0 0 16 16" class="thumbsUp" style="height:16px;margin-right:8px;width:16px;perspective-origin:8px 8px;transform-origin:8px 8px;shape-rendering:geometricprecision;" version="1.1" xmlns="http://www.w3.org/2000/svg" xmlns:xlink="http://www.w3.org/1999/xlink"><path fill-rule="evenodd" class="" fill="currentColor" d="M14.82 7.365c.072-.806-.479-1.043-.742-1.043h-3.691l-.05.003c-.217.002-.362-.202-.312-.445.054-.525.312-2.066.312-2.38 0-.352-.054-.708-.116-1.057-.06-.34-.187-.66-.425-.919-.256-.278-.572-.376-.932-.256-.354.117-.589.356-.607.753-.026.54-.035 1.082-.057 1.624a.5.5 0 0 1-.055.213c-.533.958-1.1 1.774-1.624 2.736-.123.227-.261.288-.527.35-.25.03-1.013.273-1.013.273a.715.715 0 0 0-.481.64v4.15c0 .273.206.572.46.67 0 0 .928.355 1.034.417.61.364 1.05.464 1.665.82a.393.393 0 0 0 .186.055c1.505.003 2.785 0 4.29 0 .218 0 .934-.095 1.117-.875.185-.785-.565-1.027-.565-1.027s.929.113 1.082-.754c.144-.814-.562-1.058-.593-1.07.287-.05.94-.189 1.077-.793.14-.616-.29-1.01-.522-1.168.35-.008 1.027-.224 1.089-.917zM2 12.59a.49.49 0 0 0 .505.491h.99a.503.503 0 0 0 .505-.49V7.571a.49.49 0 0 0-.505-.49h-.99a.503.503 0 0 0-.505.49v5.018z" style="display:inline;height:auto;min-height:0px;min-width:0px;overflow-x:visible;overflow-y:visible;width:auto;perspective-origin:0px 0px;transform-origin:0px 0px;fill:rgb(51, 51, 51);fill-rule:evenodd;shape-rendering:geometricprecision;d:path(&quot;M 14.82 7.365 C 14.892 6.559 14.341 6.322 14.078 6.322 H 10.387 L 10.337 6.325 C 10.12 6.327 9.975 6.123 10.025 5.88 C 10.079 5.355 10.337 3.814 10.337 3.5 C 10.337 3.148 10.283 2.792 10.221 2.443 C 10.161 2.103 10.034 1.783 9.796 1.524 C 9.54 1.246 9.224 1.148 8.864 1.268 C 8.51 1.385 8.275 1.624 8.257 2.021 C 8.231 2.561 8.222 3.103 8.2 3.645 A 0.5 0.5 0 0 1 8.145 3.858 C 7.612 4.816 7.045 5.632 6.521 6.594 C 6.398 6.821 6.26 6.882 5.994 6.944 C 5.744 6.974 4.981 7.217 4.981 7.217 A 0.715 0.715 0 0 0 4.5 7.857 V 12.007 C 4.5 12.28 4.706 12.579 4.96 12.677 C 4.96 12.677 5.888 13.032 5.994 13.094 C 6.604 13.458 7.044 13.558 7.659 13.914 A 0.393 0.393 0 0 0 7.845 13.969 C 9.35 13.972 10.63 13.969 12.135 13.969 C 12.353 13.969 13.069 13.874 13.252 13.094 C 13.437 12.309 12.687 12.067 12.687 12.067 S 13.616 12.18 13.769 11.313 C 13.913 10.499 13.207 10.255 13.176 10.243 C 13.463 10.193 14.116 10.054 14.253 9.45 C 14.393 8.834 13.963 8.44 13.731 8.282 C 14.081 8.274 14.758 8.058 14.82 7.365 Z M 2 12.59 A 0.49 0.49 0 0 0 2.505 13.081 H 3.495 A 0.503 0.503 0 0 0 4 12.591 V 7.571 A 0.49 0.49 0 0 0 3.495 7.081 H 2.505 A 0.503 0.503 0 0 0 2 7.571 V 12.589 Z&quot;);"/></svg>