<?xml version="1.0" standalone="no"?><!DOCTYPE svg PUBLIC "-//W3C//DTD SVG 1.1//EN" "http://www.w3.org/Graphics/SVG/1.1/DTD/svg11.dtd"><svg width="16" height="16" viewBox="0 0 16 16" version="1.1" xmlns="http://www.w3.org/2000/svg" xmlns:xlink="http://www.w3.org/1999/xlink"><path fill-rule="evenodd" fill="currentColor" d="M14.82 7.365c.072-.806-.479-1.043-.742-1.043h-3.691l-.05.003c-.217.002-.362-.202-.312-.445.054-.525.312-2.066.312-2.38 0-.352-.054-.708-.116-1.057-.06-.34-.187-.66-.425-.919-.256-.278-.572-.376-.932-.256-.354.117-.589.356-.607.753-.026.54-.035 1.082-.057 1.624a.5.5 0 0 1-.055.213c-.533.958-1.1 1.774-1.624 2.736-.123.227-.261.288-.527.35-.25.03-1.013.273-1.013.273a.715.715 0 0 0-.481.64v4.15c0 .273.206.572.46.67 0 0 .928.355 1.034.417.61.364 1.05.464 1.665.82a.393.393 0 0 0 .186.055c1.505.003 2.785 0 4.29 0 .218 0 .934-.095 1.117-.875.185-.785-.565-1.027-.565-1.027s.929.113 1.082-.754c.144-.814-.562-1.058-.593-1.07.287-.05.94-.189 1.077-.793.14-.616-.29-1.01-.522-1.168.35-.008 1.027-.224 1.089-.917zM2 12.59a.49.49 0 0 0 .505.491h.99a.503.503 0 0 0 .505-.49V7.571a.49.49 0 0 0-.505-.49h-.99a.503.503 0 0 0-.505.49v5.018z"/></svg>