<?xml version="1.0" standalone="no"?><!DOCTYPE svg PUBLIC "-//W3C//DTD SVG 1.1//EN" "http://www.w3.org/Graphics/SVG/1.1/DTD/svg11.dtd"><svg width="12" height="12" viewBox="0 0 12 12" version="1.1" xmlns="http://www.w3.org/2000/svg" xmlns:xlink="http://www.w3.org/1999/xlink"><path fill-rule="evenodd" fill="currentColor" d="M10.995 5.799c.056-.63-.373-.813-.579-.813H7.54l-.039.002c-.169.001-.282-.157-.244-.347.043-.41.244-1.611.244-1.856 0-.274-.042-.552-.09-.824a1.388 1.388 0 0 0-.332-.716c-.2-.217-.446-.293-.727-.2-.276.092-.458.278-.473.587-.02.422-.027.844-.044 1.266a.39.39 0 0 1-.043.166c-.416.747-.857 1.383-1.266 2.134-.096.177-.204.224-.411.273-.195.023-.63.172-.63.172A.738.738 0 0 0 3 6.297v3.205c0 .275.22.545.488.604 0 0 .544.11.626.16.476.283.819.36 1.298.639a.306.306 0 0 0 .145.042c1.173.003 2.171 0 3.345 0 .17 0 .728-.073.87-.682.145-.612-.44-.8-.44-.8s.724.087.844-.589c.112-.634-.438-.824-.463-.834.224-.038.733-.147.84-.618.11-.48-.226-.788-.407-.91.274-.007.8-.175.849-.715zM1 9.754c0 .277.217.501.493.501h.573a.498.498 0 0 0 .493-.5V6.077c0-.277-.217-.5-.493-.5h-.573a.498.498 0 0 0-.493.5v3.676z"/></svg>