<?xml version="1.0" standalone="no"?><!DOCTYPE svg PUBLIC "-//W3C//DTD SVG 1.1//EN" "http://www.w3.org/Graphics/SVG/1.1/DTD/svg11.dtd"><svg width="12" height="12" viewBox="0 0 12 12" class="thumbsUpMicro" style="height:12px;margin-right:16px;width:12px;perspective-origin:6px 6px;transform-origin:6px 6px;shape-rendering:geometricprecision;" version="1.1" xmlns="http://www.w3.org/2000/svg" xmlns:xlink="http://www.w3.org/1999/xlink"><path fill-rule="evenodd" class="" fill="currentColor" d="M10.995 5.799c.056-.63-.373-.813-.579-.813H7.54l-.039.002c-.169.001-.282-.157-.244-.347.043-.41.244-1.611.244-1.856 0-.274-.042-.552-.09-.824a1.388 1.388 0 0 0-.332-.716c-.2-.217-.446-.293-.727-.2-.276.092-.458.278-.473.587-.02.422-.027.844-.044 1.266a.39.39 0 0 1-.043.166c-.416.747-.857 1.383-1.266 2.134-.096.177-.204.224-.411.273-.195.023-.63.172-.63.172A.738.738 0 0 0 3 6.297v3.205c0 .275.22.545.488.604 0 0 .544.11.626.16.476.283.819.36 1.298.639a.306.306 0 0 0 .145.042c1.173.003 2.171 0 3.345 0 .17 0 .728-.073.87-.682.145-.612-.44-.8-.44-.8s.724.087.844-.589c.112-.634-.438-.824-.463-.834.224-.038.733-.147.84-.618.11-.48-.226-.788-.407-.91.274-.007.8-.175.849-.715zM1 9.754c0 .277.217.501.493.501h.573a.498.498 0 0 0 .493-.5V6.077c0-.277-.217-.5-.493-.5h-.573a.498.498 0 0 0-.493.5v3.676z" style="display:inline;height:auto;min-height:0px;min-width:0px;overflow-x:visible;overflow-y:visible;width:auto;perspective-origin:0px 0px;transform-origin:0px 0px;fill:rgb(51, 51, 51);fill-rule:evenodd;shape-rendering:geometricprecision;d:path(&quot;M 10.995 5.799 C 11.051 5.169 10.622 4.986 10.416 4.986 H 7.54 L 7.501 4.988 C 7.332 4.989 7.219 4.831 7.257 4.641 C 7.3 4.231 7.501 3.03 7.501 2.785 C 7.501 2.511 7.459 2.233 7.411 1.961 A 1.388 1.388 0 0 0 7.079 1.245 C 6.879 1.028 6.633 0.951999 6.352 1.045 C 6.076 1.137 5.894 1.323 5.879 1.632 C 5.859 2.054 5.852 2.476 5.835 2.898 A 0.39 0.39 0 0 1 5.792 3.064 C 5.376 3.811 4.935 4.447 4.526 5.198 C 4.43 5.375 4.322 5.422 4.115 5.471 C 3.92 5.494 3.485 5.643 3.485 5.643 A 0.738 0.738 0 0 0 3 6.297 V 9.502 C 3 9.777 3.22 10.047 3.488 10.106 C 3.488 10.106 4.032 10.216 4.114 10.266 C 4.59 10.549 4.933 10.626 5.412 10.905 A 0.306 0.306 0 0 0 5.557 10.947 C 6.73 10.95 7.728 10.947 8.902 10.947 C 9.072 10.947 9.63 10.874 9.772 10.265 C 9.917 9.653 9.332 9.465 9.332 9.465 S 10.056 9.552 10.176 8.876 C 10.288 8.242 9.738 8.052 9.713 8.042 C 9.937 8.004 10.446 7.895 10.553 7.424 C 10.663 6.944 10.327 6.636 10.146 6.514 C 10.42 6.507 10.946 6.339 10.995 5.799 Z M 1 9.754 C 1 10.031 1.217 10.255 1.493 10.255 H 2.066 A 0.498 0.498 0 0 0 2.559 9.755 V 6.077 C 2.559 5.8 2.342 5.577 2.066 5.577 H 1.493 A 0.498 0.498 0 0 0 1 6.077 V 9.753 Z&quot;);"/></svg>