<?xml version="1.0" standalone="no"?><!DOCTYPE svg PUBLIC "-//W3C//DTD SVG 1.1//EN" "http://www.w3.org/Graphics/SVG/1.1/DTD/svg11.dtd"><svg width="16" height="16" viewBox="0 0 16 16" class="time" style="height:16px;margin-right:8px;width:16px;perspective-origin:8px 8px;transform-origin:8px 8px;shape-rendering:geometricprecision;" version="1.1" xmlns="http://www.w3.org/2000/svg" xmlns:xlink="http://www.w3.org/1999/xlink"><path fill-rule="evenodd" class="" fill="currentColor" d="M8,0 C12.418,0 16,3.582 16,8 C16,12.418 12.418,16 8,16 C3.582,16 0,12.418 0,8 C0,3.582 3.582,0 8,0 Z M8,2 C4.692,2 2,4.692 2,8 C2,11.308 4.692,14 8,14 C11.308,14 14,11.308 14,8 C14,4.692 11.308,2 8,2 Z M11.0093722,6.81393832 C11.1869056,6.80171574 11.3902483,6.8209993 11.5909071,6.89932646 C11.9980469,7.0582535 12.25,7.41593872 12.25,7.9707 C12.25,8.71905692 11.9405369,9.10504068 11.4133258,9.19533412 C11.2968713,9.21527884 11.206245,9.21916031 11.03169,9.21875075 C11.0154321,9.21871244 11.0154321,9.21871244 11,9.2187 L8.0298,9.2187 C7.3406155,9.2187 6.7808,8.65965826 6.78080752,7.97263915 L6.75,4 C6.75,3.19576788 7.03110947,2.75 8.0298,2.75 C8.77892842,2.75 9.15546292,3.06066987 9.23324737,3.59140329 C9.24887805,3.69805344 9.25158437,3.78155321 9.25031295,3.94283886 C9.25007528,3.97279143 9.25007528,3.97279143 9.25,4 L9.25,6.8157 L10.9877173,6.8157 C10.9925047,6.81529591 10.9991438,6.81476155 11.0093722,6.81393832 Z" style="display:inline;height:auto;min-height:0px;min-width:0px;overflow-x:visible;overflow-y:visible;width:auto;perspective-origin:0px 0px;transform-origin:0px 0px;fill:rgb(51, 51, 51);fill-rule:evenodd;shape-rendering:geometricprecision;d:path(&quot;M 8 0 C 12.418 0 16 3.582 16 8 C 16 12.418 12.418 16 8 16 C 3.582 16 0 12.418 0 8 C 0 3.582 3.582 0 8 0 Z M 8 2 C 4.692 2 2 4.692 2 8 C 2 11.308 4.692 14 8 14 C 11.308 14 14 11.308 14 8 C 14 4.692 11.308 2 8 2 Z M 11.0094 6.81394 C 11.1869 6.80172 11.3902 6.821 11.5909 6.89933 C 11.998 7.05825 12.25 7.41594 12.25 7.9707 C 12.25 8.71906 11.9405 9.10504 11.4133 9.19533 C 11.2969 9.21528 11.2062 9.21916 11.0317 9.21875 C 11.0154 9.21871 11.0154 9.21871 11 9.2187 L 8.0298 9.2187 C 7.34062 9.2187 6.7808 8.65966 6.78081 7.97264 L 6.75 4 C 6.75 3.19577 7.03111 2.75 8.0298 2.75 C 8.77893 2.75 9.15546 3.06067 9.23325 3.5914 C 9.24888 3.69805 9.25158 3.78155 9.25031 3.94284 C 9.25008 3.97279 9.25008 3.97279 9.25 4 L 9.25 6.8157 L 10.9877 6.8157 C 10.9925 6.8153 10.9991 6.81476 11.0094 6.81394 Z&quot;);"/></svg>