<?xml version="1.0" standalone="no"?><!DOCTYPE svg PUBLIC "-//W3C//DTD SVG 1.1//EN" "http://www.w3.org/Graphics/SVG/1.1/DTD/svg11.dtd"><svg width="12" height="12" viewBox="0 0 12 12" version="1.1" xmlns="http://www.w3.org/2000/svg" xmlns:xlink="http://www.w3.org/1999/xlink"><path fill-rule="evenodd" fill="currentColor" d="M6,0 C2.686,0 0,2.686 0,6 C0,9.314 2.686,12 6,12 C9.314,12 12,9.314 12,6 C12,2.686 9.314,0 6,0 M6,1.5 C8.481,1.5 10.5,3.519 10.5,6 C10.5,8.481 8.481,10.5 6,10.5 C3.519,10.5 1.5,8.481 1.5,6 C1.5,3.519 3.519,1.5 6,1.5 Z M8.5,5.32 C7.5,5.32 6.705,5.32 6.705,5.32 L6.705,2.73052979 C6.705,2.45452979 6.5,1.98052979 6,1.98052979 C5.5,1.98052979 5.25,2.45452979 5.25,2.73052979 L5.25,6 C5.25,6.414 5.586,6.75 6,6.75 L8.5,6.75 C9,6.75 9.12567139,6.25177002 9.12567139,6 C9.12567139,5.74822998 9,5.32 8.5,5.32 Z"/></svg>