<?xml version="1.0" standalone="no"?><!DOCTYPE svg PUBLIC "-//W3C//DTD SVG 1.1//EN" "http://www.w3.org/Graphics/SVG/1.1/DTD/svg11.dtd"><svg width="16" height="16" viewBox="0 0 16 16" version="1.1" xmlns="http://www.w3.org/2000/svg" xmlns:xlink="http://www.w3.org/1999/xlink"><path fill-rule="evenodd" fill="currentColor" d="M8,0 C12.418,0 16,3.582 16,8 C16,12.418 12.418,16 8,16 C3.582,16 0,12.418 0,8 C0,3.582 3.582,0 8,0 Z M8,2 C4.692,2 2,4.692 2,8 C2,11.308 4.692,14 8,14 C11.308,14 14,11.308 14,8 C14,4.692 11.308,2 8,2 Z M11.0093722,6.81393832 C11.1869056,6.80171574 11.3902483,6.8209993 11.5909071,6.89932646 C11.9980469,7.0582535 12.25,7.41593872 12.25,7.9707 C12.25,8.71905692 11.9405369,9.10504068 11.4133258,9.19533412 C11.2968713,9.21527884 11.206245,9.21916031 11.03169,9.21875075 C11.0154321,9.21871244 11.0154321,9.21871244 11,9.2187 L8.0298,9.2187 C7.3406155,9.2187 6.7808,8.65965826 6.78080752,7.97263915 L6.75,4 C6.75,3.19576788 7.03110947,2.75 8.0298,2.75 C8.77892842,2.75 9.15546292,3.06066987 9.23324737,3.59140329 C9.24887805,3.69805344 9.25158437,3.78155321 9.25031295,3.94283886 C9.25007528,3.97279143 9.25007528,3.97279143 9.25,4 L9.25,6.8157 L10.9877173,6.8157 C10.9925047,6.81529591 10.9991438,6.81476155 11.0093722,6.81393832 Z"/></svg>