<?xml version="1.0" standalone="no"?><!DOCTYPE svg PUBLIC "-//W3C//DTD SVG 1.1//EN" "http://www.w3.org/Graphics/SVG/1.1/DTD/svg11.dtd"><svg width="12" height="12" viewBox="0 0 12 12" version="1.1" xmlns="http://www.w3.org/2000/svg" xmlns:xlink="http://www.w3.org/1999/xlink"><path fill-rule="evenodd" fill="currentColor" d="M5,3 L7,3 L7,2 L5,2 L5,3 L5,3 L5,3 Z M9.5,3 C9.775,3 10,3.225 10,3.5 C10,3.775 9.775,4 9.5,4 L2.5,4 C2.225,4 2,3.775 2,3.5 C2,3.225 2.225,3 2.5,3 L4,3 L4,1.5 C4,1.225 4.225,1 4.5,1 L7.5,1 C7.775,1 8,1.225 8,1.5 L8,3 L9.5,3 Z M3,5.99077797 C3,5.44358641 3.45097518,5 3.99077797,5 L8.00922203,5 C8.55641359,5 9,5.45097518 9,5.99077797 L9,10.009222 C9,10.5564136 8.54902482,11 8.00922203,11 L3.99077797,11 C3.44358641,11 3,10.5490248 3,10.009222 L3,5.99077797 Z"/></svg>