<?xml version="1.0" standalone="no"?><!DOCTYPE svg PUBLIC "-//W3C//DTD SVG 1.1//EN" "http://www.w3.org/Graphics/SVG/1.1/DTD/svg11.dtd"><svg width="16" height="16" viewBox="0 0 16 16" version="1.1" xmlns="http://www.w3.org/2000/svg" xmlns:xlink="http://www.w3.org/1999/xlink"><path fill-rule="evenodd" fill="currentColor" d="M4,7.50639765 C4,6.6744372 4.66831553,6 5.50473881,6 L10.4952612,6 C11.3263055,6 12,6.67646277 12,7.50639765 L12,13.0026083 C12,14.1057373 11.1132936,15 10.0018986,15 L5.99810135,15 C4.89458045,15 4,14.1041422 4,13.0026083 L4,7.50639765 Z M11,3 L5,3 L5,1.5 C5,1.225 5.225,1 5.5,1 L10.5,1 C10.775,1 11,1.225 11,1.5 L11,3 Z M3,4 C3,3.44771525 3.4556644,3 3.99539757,3 L12.0046024,3 C12.5543453,3 13,3.44386482 13,4 C13,4.55228475 12.5443356,5 12.0046024,5 L3.99539757,5 C3.44565467,5 3,4.55613518 3,4 Z M6,3 L10,3 L10,2 L6,2 L6,3 Z"/></svg>