<?xml version="1.0" standalone="no"?><!DOCTYPE svg PUBLIC "-//W3C//DTD SVG 1.1//EN" "http://www.w3.org/Graphics/SVG/1.1/DTD/svg11.dtd"><svg width="16" height="16" viewBox="0 0 16 16" class="trash" style="height:16px;margin-right:8px;width:16px;perspective-origin:8px 8px;transform-origin:8px 8px;shape-rendering:geometricprecision;" version="1.1" xmlns="http://www.w3.org/2000/svg" xmlns:xlink="http://www.w3.org/1999/xlink"><path fill-rule="evenodd" class="" fill="currentColor" d="M4,7.50639765 C4,6.6744372 4.66831553,6 5.50473881,6 L10.4952612,6 C11.3263055,6 12,6.67646277 12,7.50639765 L12,13.0026083 C12,14.1057373 11.1132936,15 10.0018986,15 L5.99810135,15 C4.89458045,15 4,14.1041422 4,13.0026083 L4,7.50639765 Z M11,3 L5,3 L5,1.5 C5,1.225 5.225,1 5.5,1 L10.5,1 C10.775,1 11,1.225 11,1.5 L11,3 Z M3,4 C3,3.44771525 3.4556644,3 3.99539757,3 L12.0046024,3 C12.5543453,3 13,3.44386482 13,4 C13,4.55228475 12.5443356,5 12.0046024,5 L3.99539757,5 C3.44565467,5 3,4.55613518 3,4 Z M6,3 L10,3 L10,2 L6,2 L6,3 Z" style="display:inline;height:auto;min-height:0px;min-width:0px;overflow-x:visible;overflow-y:visible;width:auto;perspective-origin:0px 0px;transform-origin:0px 0px;fill:rgb(51, 51, 51);fill-rule:evenodd;shape-rendering:geometricprecision;d:path(&quot;M 4 7.5064 C 4 6.67444 4.66832 6 5.50474 6 L 10.4953 6 C 11.3263 6 12 6.67646 12 7.5064 L 12 13.0026 C 12 14.1057 11.1133 15 10.0019 15 L 5.9981 15 C 4.89458 15 4 14.1041 4 13.0026 L 4 7.5064 Z M 11 3 L 5 3 L 5 1.5 C 5 1.225 5.225 1 5.5 1 L 10.5 1 C 10.775 1 11 1.225 11 1.5 L 11 3 Z M 3 4 C 3 3.44772 3.45566 3 3.9954 3 L 12.0046 3 C 12.5543 3 13 3.44386 13 4 C 13 4.55228 12.5443 5 12.0046 5 L 3.9954 5 C 3.44565 5 3 4.55614 3 4 Z M 6 3 L 10 3 L 10 2 L 6 2 L 6 3 Z&quot;);"/></svg>