<?xml version="1.0" standalone="no"?><!DOCTYPE svg PUBLIC "-//W3C//DTD SVG 1.1//EN" "http://www.w3.org/Graphics/SVG/1.1/DTD/svg11.dtd"><svg width="16" height="16" viewBox="0 0 16 16" class="twitter" style="height:16px;margin-right:8px;width:16px;perspective-origin:8px 8px;transform-origin:8px 8px;shape-rendering:geometricprecision;" version="1.1" xmlns="http://www.w3.org/2000/svg" xmlns:xlink="http://www.w3.org/1999/xlink"><path fill-rule="evenodd" class="" fill="currentColor" d="M13.2998018,4.32976877 C13.8902861,3.97262684 14.343681,3.40737926 14.5572713,2.73398009 C14.0046293,3.06465754 13.3926228,3.3045144 12.7407338,3.4338026 C12.2192022,2.87334804 11.4757162,2.52302537 10.6529754,2.52302537 C9.0730805,2.52302537 7.79255878,3.81436451 7.79255878,5.40737611 C7.79255878,5.63353274 7.81762045,5.85374438 7.86659117,6.06471968 C5.4891497,5.94458554 3.38139912,4.79590569 1.97052,3.05097788 C1.72427916,3.47679581 1.58323205,3.97221542 1.58323205,4.50091878 C1.58323205,5.50177604 2.08802526,6.38449454 2.85579768,6.90195589 C2.38690886,6.88717569 1.94576433,6.75736293 1.5600778,6.54116262 C1.5596392,6.55329946 1.5596392,6.56531288 1.5596392,6.57736743 C1.5596392,7.97516106 2.54578576,9.14070906 3.85425578,9.40586815 C3.61443081,9.47179793 3.36178431,9.50666563 3.10087571,9.50666563 C2.91636593,9.50666563 2.73746622,9.48906721 2.56250374,9.45523834 C2.92675984,10.6011411 3.98297096,11.4351888 5.23493238,11.4585368 C4.25513028,12.2323118 3.02191666,12.6932031 1.6816223,12.6932031 C1.45088563,12.6932031 1.22301519,12.6795029 0.99905139,12.652987 C2.26549696,13.4713802 3.76889107,13.9487489 5.38448638,13.9487489 C10.6459068,13.9487489 13.5227456,9.55367017 13.5227456,5.74167404 C13.5227456,5.61667488 13.5198895,5.49252941 13.5146875,5.36882622 C14.0733475,4.9618204 14.5582607,4.45393481 14.9419888,3.87537784 C14.4297699,4.10481554 13.878352,4.25989966 13.2998018,4.32976877 Z" style="display:inline;height:auto;min-height:0px;min-width:0px;overflow-x:visible;overflow-y:visible;width:auto;perspective-origin:0px 0px;transform-origin:0px 0px;fill:rgb(51, 51, 51);fill-rule:evenodd;shape-rendering:geometricprecision;d:path(&quot;M 13.2998 4.32977 C 13.8903 3.97263 14.3437 3.40738 14.5573 2.73398 C 14.0046 3.06466 13.3926 3.30451 12.7407 3.4338 C 12.2192 2.87335 11.4757 2.52303 10.653 2.52303 C 9.07308 2.52303 7.79256 3.81436 7.79256 5.40738 C 7.79256 5.63353 7.81762 5.85374 7.86659 6.06472 C 5.48915 5.94459 3.3814 4.79591 1.97052 3.05098 C 1.72428 3.4768 1.58323 3.97222 1.58323 4.50092 C 1.58323 5.50178 2.08803 6.38449 2.8558 6.90196 C 2.38691 6.88718 1.94576 6.75736 1.56008 6.54116 C 1.55964 6.5533 1.55964 6.56531 1.55964 6.57737 C 1.55964 7.97516 2.54579 9.14071 3.85426 9.40587 C 3.61443 9.4718 3.36178 9.50667 3.10088 9.50667 C 2.91637 9.50667 2.73747 9.48907 2.5625 9.45524 C 2.92676 10.6011 3.98297 11.4352 5.23493 11.4585 C 4.25513 12.2323 3.02192 12.6932 1.68162 12.6932 C 1.45089 12.6932 1.22302 12.6795 0.999051 12.653 C 2.2655 13.4714 3.76889 13.9487 5.38449 13.9487 C 10.6459 13.9487 13.5227 9.55367 13.5227 5.74167 C 13.5227 5.61667 13.5199 5.49253 13.5147 5.36883 C 14.0733 4.96182 14.5583 4.45393 14.942 3.87538 C 14.4298 4.10482 13.8784 4.2599 13.2998 4.32977 Z&quot;);"/></svg>