<?xml version="1.0" standalone="no"?><!DOCTYPE svg PUBLIC "-//W3C//DTD SVG 1.1//EN" "http://www.w3.org/Graphics/SVG/1.1/DTD/svg11.dtd"><svg width="12" height="12" viewBox="0 0 12 12" class="twitterMicro" style="height:12px;margin-right:16px;width:12px;perspective-origin:6px 6px;transform-origin:6px 6px;shape-rendering:geometricprecision;" version="1.1" xmlns="http://www.w3.org/2000/svg" xmlns:xlink="http://www.w3.org/1999/xlink"><path fill-rule="evenodd" class="" fill="currentColor" d="M11,3.49289236 C10.6322585,3.65745551 10.236792,3.76867892 9.82186668,3.81878773 C10.2453509,3.56265226 10.5705172,3.15726733 10.7237001,2.67431813 C10.3273557,2.91147377 9.88843615,3.08349459 9.42091364,3.17621765 C9.046881,2.77427019 8.51366686,2.52302537 7.92361263,2.52302537 C6.79054172,2.52302537 5.87217564,3.4491495 5.87217564,4.59162744 C5.87217564,4.75382272 5.8901494,4.91175436 5.92527028,5.06306187 C4.220214,4.97690393 2.70857495,4.15309236 1.696719,2.90166297 C1.52011971,3.20705158 1.41896337,3.5623572 1.41896337,3.94153329 C1.41896337,4.65932929 1.78099156,5.29239839 2.3316235,5.66351193 C1.99534526,5.65291184 1.67896471,5.55981258 1.40235758,5.40475779 C1.40204302,5.4134621 1.40204302,5.42207789 1.40204302,5.43072319 C1.40204302,6.43319447 2.10928878,7.26910357 3.04769885,7.45927067 C2.8757009,7.50655427 2.69450758,7.53156073 2.50738885,7.53156073 C2.37506191,7.53156073 2.2467584,7.51893947 2.1212786,7.49467805 C2.38251622,8.31649795 3.14001096,8.91466128 4.03789412,8.93140602 C3.3351985,9.48634284 2.4507609,9.81688544 1.48952701,9.81688544 C1.32404701,9.81688544 1.16062262,9.80705989 1,9.78804318 C1.90827093,10.3749794 2.98647689,10.7173392 4.14515144,10.7173392 C7.91854311,10.7173392 9.98175777,7.5652715 9.98175777,4.83137962 C9.98175777,4.74173257 9.97970948,4.65269778 9.97597866,4.56398018 C10.3766391,4.27208326 10.7244097,3.90783728 10.9996123,3.49290711" style="display:inline;height:auto;min-height:0px;min-width:0px;overflow-x:visible;overflow-y:visible;width:auto;perspective-origin:0px 0px;transform-origin:0px 0px;fill:rgb(51, 51, 51);fill-rule:evenodd;shape-rendering:geometricprecision;d:path(&quot;M 11 3.49289 C 10.6323 3.65746 10.2368 3.76868 9.82187 3.81879 C 10.2454 3.56265 10.5705 3.15727 10.7237 2.67432 C 10.3274 2.91147 9.88844 3.08349 9.42091 3.17622 C 9.04688 2.77427 8.51367 2.52303 7.92361 2.52303 C 6.79054 2.52303 5.87218 3.44915 5.87218 4.59163 C 5.87218 4.75382 5.89015 4.91175 5.92527 5.06306 C 4.22021 4.9769 2.70858 4.15309 1.69672 2.90166 C 1.52012 3.20705 1.41896 3.56236 1.41896 3.94153 C 1.41896 4.65933 1.78099 5.2924 2.33162 5.66351 C 1.99535 5.65291 1.67896 5.55981 1.40236 5.40476 C 1.40204 5.41346 1.40204 5.42208 1.40204 5.43072 C 1.40204 6.43319 2.10929 7.2691 3.0477 7.45927 C 2.8757 7.50655 2.69451 7.53156 2.50739 7.53156 C 2.37506 7.53156 2.24676 7.51894 2.12128 7.49468 C 2.38252 8.3165 3.14001 8.91466 4.03789 8.93141 C 3.3352 9.48634 2.45076 9.81688 1.48953 9.81688 C 1.32405 9.81688 1.16062 9.80706 1 9.78804 C 1.90827 10.375 2.98648 10.7173 4.14515 10.7173 C 7.91854 10.7173 9.98176 7.56527 9.98176 4.83138 C 9.98176 4.74173 9.97971 4.6527 9.97598 4.56398 C 10.3766 4.27208 10.7244 3.90784 10.9996 3.49291&quot;);"/></svg>