<?xml version="1.0" standalone="no"?><!DOCTYPE svg PUBLIC "-//W3C//DTD SVG 1.1//EN" "http://www.w3.org/Graphics/SVG/1.1/DTD/svg11.dtd"><svg width="16" height="16" viewBox="0 0 16 16" version="1.1" xmlns="http://www.w3.org/2000/svg" xmlns:xlink="http://www.w3.org/1999/xlink"><path fill-rule="evenodd" fill="currentColor" d="M13.2998018,4.32976877 C13.8902861,3.97262684 14.343681,3.40737926 14.5572713,2.73398009 C14.0046293,3.06465754 13.3926228,3.3045144 12.7407338,3.4338026 C12.2192022,2.87334804 11.4757162,2.52302537 10.6529754,2.52302537 C9.0730805,2.52302537 7.79255878,3.81436451 7.79255878,5.40737611 C7.79255878,5.63353274 7.81762045,5.85374438 7.86659117,6.06471968 C5.4891497,5.94458554 3.38139912,4.79590569 1.97052,3.05097788 C1.72427916,3.47679581 1.58323205,3.97221542 1.58323205,4.50091878 C1.58323205,5.50177604 2.08802526,6.38449454 2.85579768,6.90195589 C2.38690886,6.88717569 1.94576433,6.75736293 1.5600778,6.54116262 C1.5596392,6.55329946 1.5596392,6.56531288 1.5596392,6.57736743 C1.5596392,7.97516106 2.54578576,9.14070906 3.85425578,9.40586815 C3.61443081,9.47179793 3.36178431,9.50666563 3.10087571,9.50666563 C2.91636593,9.50666563 2.73746622,9.48906721 2.56250374,9.45523834 C2.92675984,10.6011411 3.98297096,11.4351888 5.23493238,11.4585368 C4.25513028,12.2323118 3.02191666,12.6932031 1.6816223,12.6932031 C1.45088563,12.6932031 1.22301519,12.6795029 0.99905139,12.652987 C2.26549696,13.4713802 3.76889107,13.9487489 5.38448638,13.9487489 C10.6459068,13.9487489 13.5227456,9.55367017 13.5227456,5.74167404 C13.5227456,5.61667488 13.5198895,5.49252941 13.5146875,5.36882622 C14.0733475,4.9618204 14.5582607,4.45393481 14.9419888,3.87537784 C14.4297699,4.10481554 13.878352,4.25989966 13.2998018,4.32976877 Z"/></svg>