<?xml version="1.0" standalone="no"?><!DOCTYPE svg PUBLIC "-//W3C//DTD SVG 1.1//EN" "http://www.w3.org/Graphics/SVG/1.1/DTD/svg11.dtd"><svg width="16" height="16" viewBox="0 0 16 16" version="1.1" xmlns="http://www.w3.org/2000/svg" xmlns:xlink="http://www.w3.org/1999/xlink"><path fill-rule="evenodd" fill="currentColor" d="M5.94042969,3 C5.94042969,2.44771525 6.39683944,2 6.944884,2 L12.9955457,2 C13.5502905,2 14,2.44386482 14,3 C14,3.55228475 13.5435903,4 12.9955457,4 L6.944884,4 C6.3901392,4 5.94042969,3.55613518 5.94042969,3 Z M5.94042969,8 C5.94042969,7.44771525 6.39683944,7 6.944884,7 L12.9955457,7 C13.5502905,7 14,7.44386482 14,8 C14,8.55228475 13.5435903,9 12.9955457,9 L6.944884,9 C6.3901392,9 5.94042969,8.55613518 5.94042969,8 Z M5.94042969,13 C5.94042969,12.4477153 6.39683944,12 6.944884,12 L12.9955457,12 C13.5502905,12 14,12.4438648 14,13 C14,13.5522847 13.5435903,14 12.9955457,14 L6.944884,14 C6.3901392,14 5.94042969,13.5561352 5.94042969,13 Z M3,5 C1.8954305,5 1,4.1045695 1,3 C1,1.8954305 1.8954305,1 3,1 C4.1045695,1 5,1.8954305 5,3 C5,4.1045695 4.1045695,5 3,5 Z M3,10 C1.8954305,10 1,9.1045695 1,8 C1,6.8954305 1.8954305,6 3,6 C4.1045695,6 5,6.8954305 5,8 C5,9.1045695 4.1045695,10 3,10 Z M3,15 C1.8954305,15 1,14.1045695 1,13 C1,11.8954305 1.8954305,11 3,11 C4.1045695,11 5,11.8954305 5,13 C5,14.1045695 4.1045695,15 3,15 Z"/></svg>