<?xml version="1.0" standalone="no"?><!DOCTYPE svg PUBLIC "-//W3C//DTD SVG 1.1//EN" "http://www.w3.org/Graphics/SVG/1.1/DTD/svg11.dtd"><svg width="12" height="12" viewBox="0 0 12 12" class="ulMicro" style="height:12px;margin-right:16px;width:12px;perspective-origin:6px 6px;transform-origin:6px 6px;shape-rendering:geometricprecision;" version="1.1" xmlns="http://www.w3.org/2000/svg" xmlns:xlink="http://www.w3.org/1999/xlink"><path fill-rule="evenodd" class="" fill="currentColor" d="M3,3 C2.44771525,3 2,2.55228475 2,2 C2,1.44771525 2.44771525,1 3,1 C3.55228475,1 4,1.44771525 4,2 C4,2.55228475 3.55228475,3 3,3 Z M3,7 C2.44771525,7 2,6.55228475 2,6 C2,5.44771525 2.44771525,5 3,5 C3.55228475,5 4,5.44771525 4,6 C4,6.55228475 3.55228475,7 3,7 Z M3,11 C2.44771525,11 2,10.5522847 2,10 C2,9.44771525 2.44771525,9 3,9 C3.55228475,9 4,9.44771525 4,10 C4,10.5522847 3.55228475,11 3,11 Z M5.05126953,2 C5.05126953,1.44771525 5.50404358,1 6.04412243,1 L8.96466663,1 C9.51300415,1 9.95751953,1.44386482 9.95751953,2 C9.95751953,2.55228475 9.50474548,3 8.96466663,3 L6.04412243,3 C5.49578491,3 5.05126953,2.55613518 5.05126953,2 Z M5.05126953,6 C5.05126953,5.44771525 5.50404358,5 6.04412243,5 L8.96466663,5 C9.51300415,5 9.95751953,5.44386482 9.95751953,6 C9.95751953,6.55228475 9.50474548,7 8.96466663,7 L6.04412243,7 C5.49578491,7 5.05126953,6.55613518 5.05126953,6 Z M5.05126953,10 C5.05126953,9.44771525 5.50404358,9 6.04412243,9 L8.96466663,9 C9.51300415,9 9.95751953,9.44386482 9.95751953,10 C9.95751953,10.5522847 9.50474548,11 8.96466663,11 L6.04412243,11 C5.49578491,11 5.05126953,10.5561352 5.05126953,10 Z" style="display:inline;height:auto;min-height:0px;min-width:0px;overflow-x:visible;overflow-y:visible;width:auto;perspective-origin:0px 0px;transform-origin:0px 0px;fill:rgb(51, 51, 51);fill-rule:evenodd;shape-rendering:geometricprecision;d:path(&quot;M 3 3 C 2.44772 3 2 2.55228 2 2 C 2 1.44772 2.44772 1 3 1 C 3.55228 1 4 1.44772 4 2 C 4 2.55228 3.55228 3 3 3 Z M 3 7 C 2.44772 7 2 6.55228 2 6 C 2 5.44772 2.44772 5 3 5 C 3.55228 5 4 5.44772 4 6 C 4 6.55228 3.55228 7 3 7 Z M 3 11 C 2.44772 11 2 10.5523 2 10 C 2 9.44772 2.44772 9 3 9 C 3.55228 9 4 9.44772 4 10 C 4 10.5523 3.55228 11 3 11 Z M 5.05127 2 C 5.05127 1.44772 5.50404 1 6.04412 1 L 8.96467 1 C 9.513 1 9.95752 1.44386 9.95752 2 C 9.95752 2.55228 9.50475 3 8.96467 3 L 6.04412 3 C 5.49578 3 5.05127 2.55614 5.05127 2 Z M 5.05127 6 C 5.05127 5.44772 5.50404 5 6.04412 5 L 8.96467 5 C 9.513 5 9.95752 5.44386 9.95752 6 C 9.95752 6.55228 9.50475 7 8.96467 7 L 6.04412 7 C 5.49578 7 5.05127 6.55614 5.05127 6 Z M 5.05127 10 C 5.05127 9.44772 5.50404 9 6.04412 9 L 8.96467 9 C 9.513 9 9.95752 9.44386 9.95752 10 C 9.95752 10.5523 9.50475 11 8.96467 11 L 6.04412 11 C 5.49578 11 5.05127 10.5561 5.05127 10 Z&quot;);"/></svg>