<?xml version="1.0" standalone="no"?><!DOCTYPE svg PUBLIC "-//W3C//DTD SVG 1.1//EN" "http://www.w3.org/Graphics/SVG/1.1/DTD/svg11.dtd"><svg width="12" height="12" viewBox="0 0 12 12" version="1.1" xmlns="http://www.w3.org/2000/svg" xmlns:xlink="http://www.w3.org/1999/xlink"><path fill-rule="evenodd" fill="currentColor" d="M3,3 C2.44771525,3 2,2.55228475 2,2 C2,1.44771525 2.44771525,1 3,1 C3.55228475,1 4,1.44771525 4,2 C4,2.55228475 3.55228475,3 3,3 Z M3,7 C2.44771525,7 2,6.55228475 2,6 C2,5.44771525 2.44771525,5 3,5 C3.55228475,5 4,5.44771525 4,6 C4,6.55228475 3.55228475,7 3,7 Z M3,11 C2.44771525,11 2,10.5522847 2,10 C2,9.44771525 2.44771525,9 3,9 C3.55228475,9 4,9.44771525 4,10 C4,10.5522847 3.55228475,11 3,11 Z M5.05126953,2 C5.05126953,1.44771525 5.50404358,1 6.04412243,1 L8.96466663,1 C9.51300415,1 9.95751953,1.44386482 9.95751953,2 C9.95751953,2.55228475 9.50474548,3 8.96466663,3 L6.04412243,3 C5.49578491,3 5.05126953,2.55613518 5.05126953,2 Z M5.05126953,6 C5.05126953,5.44771525 5.50404358,5 6.04412243,5 L8.96466663,5 C9.51300415,5 9.95751953,5.44386482 9.95751953,6 C9.95751953,6.55228475 9.50474548,7 8.96466663,7 L6.04412243,7 C5.49578491,7 5.05126953,6.55613518 5.05126953,6 Z M5.05126953,10 C5.05126953,9.44771525 5.50404358,9 6.04412243,9 L8.96466663,9 C9.51300415,9 9.95751953,9.44386482 9.95751953,10 C9.95751953,10.5522847 9.50474548,11 8.96466663,11 L6.04412243,11 C5.49578491,11 5.05126953,10.5561352 5.05126953,10 Z"/></svg>