<?xml version="1.0" standalone="no"?><!DOCTYPE svg PUBLIC "-//W3C//DTD SVG 1.1//EN" "http://www.w3.org/Graphics/SVG/1.1/DTD/svg11.dtd"><svg width="12" height="12" viewBox="0 0 12 12" class="underlineMicro" style="height:12px;margin-right:16px;width:12px;perspective-origin:6px 6px;transform-origin:6px 6px;shape-rendering:geometricprecision;" version="1.1" xmlns="http://www.w3.org/2000/svg" xmlns:xlink="http://www.w3.org/1999/xlink"><path fill-rule="evenodd" class="" fill="currentColor" d="M2.8125 6.5999V2.4749C2.8125 2.0249 3.1875 1.6499 3.6375 1.6499C4.0875 1.6499 4.4625 2.0249 4.4625 2.4749V6.5249C4.4625 6.9749 4.6125 7.3499 4.8375 7.5749C5.0625 7.7999 5.4375 7.9499 5.9625 7.9499C6.4875 7.9499 6.8625 7.7999 7.0875 7.5749C7.3125 7.3499 7.4625 6.9749 7.4625 6.5249V2.4749C7.5375 2.0249 7.9125 1.6499 8.3625 1.6499C8.8125 1.6499 9.1875 2.0249 9.1875 2.4749V6.5999C9.1875 7.4249 8.8875 8.1749 8.2875 8.6999C7.7625 9.2249 6.9375 9.5249 5.9625 9.5249C4.9875 9.5249 4.2375 9.2249 3.6375 8.6999C3.1125 8.1749 2.8125 7.4999 2.8125 6.5999ZM3.5625 10.4999H8.4375C8.8875 10.4999 9.1875 10.7999 9.1875 11.2499C9.1875 11.6999 8.8875 11.9999 8.4375 11.9999H3.5625C3.1125 11.9999 2.8125 11.6999 2.8125 11.2499C2.8125 10.7999 3.1125 10.4999 3.5625 10.4999Z" style="display:inline;height:auto;min-height:0px;min-width:0px;overflow-x:visible;overflow-y:visible;width:auto;perspective-origin:0px 0px;transform-origin:0px 0px;fill:rgb(51, 51, 51);fill-rule:evenodd;shape-rendering:geometricprecision;d:path(&quot;M 2.8125 6.5999 V 2.4749 C 2.8125 2.0249 3.1875 1.6499 3.6375 1.6499 C 4.0875 1.6499 4.4625 2.0249 4.4625 2.4749 V 6.5249 C 4.4625 6.9749 4.6125 7.3499 4.8375 7.5749 C 5.0625 7.7999 5.4375 7.9499 5.9625 7.9499 C 6.4875 7.9499 6.8625 7.7999 7.0875 7.5749 C 7.3125 7.3499 7.4625 6.9749 7.4625 6.5249 V 2.4749 C 7.5375 2.0249 7.9125 1.6499 8.3625 1.6499 C 8.8125 1.6499 9.1875 2.0249 9.1875 2.4749 V 6.5999 C 9.1875 7.4249 8.8875 8.1749 8.2875 8.6999 C 7.7625 9.2249 6.9375 9.5249 5.9625 9.5249 C 4.9875 9.5249 4.2375 9.2249 3.6375 8.6999 C 3.1125 8.1749 2.8125 7.4999 2.8125 6.5999 Z M 3.5625 10.4999 H 8.4375 C 8.8875 10.4999 9.1875 10.7999 9.1875 11.2499 C 9.1875 11.6999 8.8875 11.9999 8.4375 11.9999 H 3.5625 C 3.1125 11.9999 2.8125 11.6999 2.8125 11.2499 C 2.8125 10.7999 3.1125 10.4999 3.5625 10.4999 Z&quot;);"/></svg>