<?xml version="1.0" standalone="no"?><!DOCTYPE svg PUBLIC "-//W3C//DTD SVG 1.1//EN" "http://www.w3.org/Graphics/SVG/1.1/DTD/svg11.dtd"><svg width="16" height="16" viewBox="0 0 16 16" class="underline" style="height:16px;margin-right:8px;text-decoration:underline solid rgb(51, 51, 51);text-decoration-line:underline;width:16px;perspective-origin:8px 8px;-webkit-text-decorations-in-effect:underline;transform-origin:8px 8px;shape-rendering:geometricprecision;" version="1.1" xmlns="http://www.w3.org/2000/svg" xmlns:xlink="http://www.w3.org/1999/xlink"><path fill-rule="evenodd" class="" fill="currentColor" d="M3.75 8.79995V3.29995C3.75 2.69995 4.25 2.19995 4.85 2.19995C5.45 2.19995 5.95 2.69995 5.95 3.29995V8.69995C5.95 9.29995 6.15 9.79995 6.45 10.1C6.75 10.4 7.25 10.6 7.95 10.6C8.65 10.6 9.15 10.4 9.45 10.1C9.75 9.79995 9.95 9.29995 9.95 8.69995V3.29995C10.05 2.69995 10.55 2.19995 11.15 2.19995C11.75 2.19995 12.25 2.69995 12.25 3.29995V8.79995C12.25 9.89995 11.85 10.9 11.05 11.6C10.35 12.3 9.25 12.7 7.95 12.7C6.65 12.7 5.65 12.3 4.85 11.6C4.15 10.9 3.75 9.99995 3.75 8.79995ZM4.75 14H11.25C11.85 14 12.25 14.4 12.25 15C12.25 15.6 11.85 16 11.25 16H4.75C4.15 16 3.75 15.6 3.75 15C3.75 14.4 4.15 14 4.75 14Z" style="display:inline;height:auto;min-height:0px;min-width:0px;overflow-x:visible;overflow-y:visible;width:auto;perspective-origin:0px 0px;-webkit-text-decorations-in-effect:underline;transform-origin:0px 0px;fill:rgb(51, 51, 51);fill-rule:evenodd;shape-rendering:geometricprecision;d:path(&quot;M 3.75 8.79995 V 3.29995 C 3.75 2.69995 4.25 2.19995 4.85 2.19995 C 5.45 2.19995 5.95 2.69995 5.95 3.29995 V 8.69995 C 5.95 9.29995 6.15 9.79995 6.45 10.1 C 6.75 10.4 7.25 10.6 7.95 10.6 C 8.65 10.6 9.15 10.4 9.45 10.1 C 9.75 9.79995 9.95 9.29995 9.95 8.69995 V 3.29995 C 10.05 2.69995 10.55 2.19995 11.15 2.19995 C 11.75 2.19995 12.25 2.69995 12.25 3.29995 V 8.79995 C 12.25 9.89995 11.85 10.9 11.05 11.6 C 10.35 12.3 9.25 12.7 7.95 12.7 C 6.65 12.7 5.65 12.3 4.85 11.6 C 4.15 10.9 3.75 9.99995 3.75 8.79995 Z M 4.75 14 H 11.25 C 11.85 14 12.25 14.4 12.25 15 C 12.25 15.6 11.85 16 11.25 16 H 4.75 C 4.15 16 3.75 15.6 3.75 15 C 3.75 14.4 4.15 14 4.75 14 Z&quot;);"/></svg>