<?xml version="1.0" standalone="no"?><!DOCTYPE svg PUBLIC "-//W3C//DTD SVG 1.1//EN" "http://www.w3.org/Graphics/SVG/1.1/DTD/svg11.dtd"><svg width="16" height="16" viewBox="0 0 16 16" version="1.1" xmlns="http://www.w3.org/2000/svg" xmlns:xlink="http://www.w3.org/1999/xlink"><path fill-rule="evenodd" fill="currentColor" d="M3.75 8.79995V3.29995C3.75 2.69995 4.25 2.19995 4.85 2.19995C5.45 2.19995 5.95 2.69995 5.95 3.29995V8.69995C5.95 9.29995 6.15 9.79995 6.45 10.1C6.75 10.4 7.25 10.6 7.95 10.6C8.65 10.6 9.15 10.4 9.45 10.1C9.75 9.79995 9.95 9.29995 9.95 8.69995V3.29995C10.05 2.69995 10.55 2.19995 11.15 2.19995C11.75 2.19995 12.25 2.69995 12.25 3.29995V8.79995C12.25 9.89995 11.85 10.9 11.05 11.6C10.35 12.3 9.25 12.7 7.95 12.7C6.65 12.7 5.65 12.3 4.85 11.6C4.15 10.9 3.75 9.99995 3.75 8.79995ZM4.75 14H11.25C11.85 14 12.25 14.4 12.25 15C12.25 15.6 11.85 16 11.25 16H4.75C4.15 16 3.75 15.6 3.75 15C3.75 14.4 4.15 14 4.75 14Z"/></svg>