<?xml version="1.0" standalone="no"?><!DOCTYPE svg PUBLIC "-//W3C//DTD SVG 1.1//EN" "http://www.w3.org/Graphics/SVG/1.1/DTD/svg11.dtd"><svg width="12" height="12" viewBox="0 0 12 12" version="1.1" xmlns="http://www.w3.org/2000/svg" xmlns:xlink="http://www.w3.org/1999/xlink"><path fill-rule="evenodd" fill="currentColor" d="M3.853 7c.048-.294.135-.61.29-.883C4.583 5.343 5.462 5 6.5 5 8.154 5 10 6.665 10 8.082c0 .918 1 .918 1 0C11 5.325 9.257 3 6.5 3c-2.17 0-4.248.937-4.941 3.01-.138.413-.231.736-.292.99H1.01c-.559 0-.75.363-.43.812L1.92 9.688c.322.45.871.472 1.231.053l1.698-1.982c.363-.423.2-.759-.358-.759h-.638z"/></svg>