<?xml version="1.0" standalone="no"?><!DOCTYPE svg PUBLIC "-//W3C//DTD SVG 1.1//EN" "http://www.w3.org/Graphics/SVG/1.1/DTD/svg11.dtd"><svg width="12" height="12" viewBox="0 0 12 12" class="undoMicro" style="height:12px;margin-right:16px;width:12px;perspective-origin:6px 6px;transform-origin:6px 6px;shape-rendering:geometricprecision;" version="1.1" xmlns="http://www.w3.org/2000/svg" xmlns:xlink="http://www.w3.org/1999/xlink"><path fill-rule="evenodd" class="" fill="currentColor" d="M3.853 7c.048-.294.135-.61.29-.883C4.583 5.343 5.462 5 6.5 5 8.154 5 10 6.665 10 8.082c0 .918 1 .918 1 0C11 5.325 9.257 3 6.5 3c-2.17 0-4.248.937-4.941 3.01-.138.413-.231.736-.292.99H1.01c-.559 0-.75.363-.43.812L1.92 9.688c.322.45.871.472 1.231.053l1.698-1.982c.363-.423.2-.759-.358-.759h-.638z" style="display:inline;height:auto;min-height:0px;min-width:0px;overflow-x:visible;overflow-y:visible;width:auto;perspective-origin:0px 0px;transform-origin:0px 0px;fill:rgb(51, 51, 51);fill-rule:evenodd;shape-rendering:geometricprecision;d:path(&quot;M 3.853 7 C 3.901 6.706 3.988 6.39 4.143 6.117 C 4.583 5.343 5.462 5 6.5 5 C 8.154 5 10 6.665 10 8.082 C 10 9 11 9 11 8.082 C 11 5.325 9.257 3 6.5 3 C 4.33 3 2.252 3.937 1.559 6.01 C 1.421 6.423 1.328 6.746 1.267 7 H 1.01 C 0.451 7 0.26 7.363 0.58 7.812 L 1.92 9.688 C 2.242 10.138 2.791 10.16 3.151 9.741 L 4.849 7.759 C 5.212 7.336 5.049 7 4.491 7 H 3.853 Z&quot;);"/></svg>