<?xml version="1.0" standalone="no"?><!DOCTYPE svg PUBLIC "-//W3C//DTD SVG 1.1//EN" "http://www.w3.org/Graphics/SVG/1.1/DTD/svg11.dtd"><svg width="12" height="12" viewBox="0 0 12 12" version="1.1" xmlns="http://www.w3.org/2000/svg" xmlns:xlink="http://www.w3.org/1999/xlink"><path fill-rule="evenodd" fill="currentColor" d="M6,12 C9.314,12 12,9.314 12,6 C12,2.686 9.314,0 6,0 C2.686,-1.77635684e-15 1.77635684e-15,2.686 0,6 C0,9.314 2.686,12 6,12 Z M6,10.5 C3.519,10.5 1.5,8.481 1.5,6 C1.5,3.519 3.519,1.5 6,1.5 C8.481,1.5 10.5,3.519 10.5,6 C10.5,8.481 8.481,10.5 6,10.5 Z M4,4.5 C3.53256107,5.08253537 3.5,5.50000006 4,5.5 L5,5.5 L5,8.5 C5.00000004,9.05217842 5.44341282,9.5 5.99954793,9.5 C6.55568304,9.5 7.00000001,9.05609083 7,8.5 L7,5.5 L8,5.5 C8.5,5.50000006 8.46498427,5.08123034 8,4.5 C6,2 6.313091,2.39161325 6.313091,2.39161325 C6.13992594,2.17533122 5.86739659,2.1676178 5.68894242,2.39161325 C5.68894242,2.39161325 6.00605386,2 4,4.5 Z"/></svg>