<?xml version="1.0" standalone="no"?><!DOCTYPE svg PUBLIC "-//W3C//DTD SVG 1.1//EN" "http://www.w3.org/Graphics/SVG/1.1/DTD/svg11.dtd"><svg width="16" height="16" viewBox="0 0 16 16" class="upload" style="height:16px;margin-right:8px;width:16px;perspective-origin:8px 8px;transform-origin:8px 8px;shape-rendering:geometricprecision;" version="1.1" xmlns="http://www.w3.org/2000/svg" xmlns:xlink="http://www.w3.org/1999/xlink"><path fill-rule="evenodd" class="" fill="currentColor" d="M8,16 C12.418,16 16,12.418 16,8 C16,3.582 12.418,0 8,0 C3.582,0 0,3.582 0,8 C-1.77635684e-15,12.418 3.582,16 8,16 Z M8,14 C4.692,14 2,11.308 2,8 C2,4.692 4.692,2 8,2 C11.308,2 14,4.692 14,8 C14,11.308 11.308,14 8,14 Z M5,6.5 C4.53256107,7.08253537 4.5,7.5 5.5,7.5 L6.5,7.5 L6.5,11 C6.50000004,11.5521784 7,12.5 7.99954793,12.5 C8.99909586,12.5 9.50000001,11.5560908 9.5,11 L9.5,7.5 L10.5,7.5 C11.5,7.5 11.4649843,7.08123034 11,6.5 C9,4 8.33822872,3.35751796 8.33822872,3.35751796 C8.15118048,3.16006624 7.84633636,3.15980649 7.66246576,3.35751796 C7.66246576,3.35751796 7.00605386,4 5,6.5 Z" style="display:inline;height:auto;min-height:0px;min-width:0px;overflow-x:visible;overflow-y:visible;width:auto;perspective-origin:0px 0px;transform-origin:0px 0px;fill:rgb(51, 51, 51);fill-rule:evenodd;shape-rendering:geometricprecision;d:path(&quot;M 8 16 C 12.418 16 16 12.418 16 8 C 16 3.582 12.418 0 8 0 C 3.582 0 0 3.582 0 8 C -1.77636e-15 12.418 3.582 16 8 16 Z M 8 14 C 4.692 14 2 11.308 2 8 C 2 4.692 4.692 2 8 2 C 11.308 2 14 4.692 14 8 C 14 11.308 11.308 14 8 14 Z M 5 6.5 C 4.53256 7.08254 4.5 7.5 5.5 7.5 L 6.5 7.5 L 6.5 11 C 6.5 11.5522 7 12.5 7.99955 12.5 C 8.9991 12.5 9.5 11.5561 9.5 11 L 9.5 7.5 L 10.5 7.5 C 11.5 7.5 11.465 7.08123 11 6.5 C 9 4 8.33823 3.35752 8.33823 3.35752 C 8.15118 3.16007 7.84634 3.15981 7.66247 3.35752 C 7.66247 3.35752 7.00605 4 5 6.5 Z&quot;);"/></svg>