<?xml version="1.0" standalone="no"?><!DOCTYPE svg PUBLIC "-//W3C//DTD SVG 1.1//EN" "http://www.w3.org/Graphics/SVG/1.1/DTD/svg11.dtd"><svg width="12" height="12" viewBox="0 0 12 12" class="uploadMicro" style="height:12px;margin-right:16px;width:12px;perspective-origin:6px 6px;transform-origin:6px 6px;shape-rendering:geometricprecision;" version="1.1" xmlns="http://www.w3.org/2000/svg" xmlns:xlink="http://www.w3.org/1999/xlink"><path fill-rule="evenodd" class="" fill="currentColor" d="M6,12 C9.314,12 12,9.314 12,6 C12,2.686 9.314,0 6,0 C2.686,-1.77635684e-15 1.77635684e-15,2.686 0,6 C0,9.314 2.686,12 6,12 Z M6,10.5 C3.519,10.5 1.5,8.481 1.5,6 C1.5,3.519 3.519,1.5 6,1.5 C8.481,1.5 10.5,3.519 10.5,6 C10.5,8.481 8.481,10.5 6,10.5 Z M4,4.5 C3.53256107,5.08253537 3.5,5.50000006 4,5.5 L5,5.5 L5,8.5 C5.00000004,9.05217842 5.44341282,9.5 5.99954793,9.5 C6.55568304,9.5 7.00000001,9.05609083 7,8.5 L7,5.5 L8,5.5 C8.5,5.50000006 8.46498427,5.08123034 8,4.5 C6,2 6.313091,2.39161325 6.313091,2.39161325 C6.13992594,2.17533122 5.86739659,2.1676178 5.68894242,2.39161325 C5.68894242,2.39161325 6.00605386,2 4,4.5 Z" style="display:inline;height:auto;min-height:0px;min-width:0px;overflow-x:visible;overflow-y:visible;width:auto;perspective-origin:0px 0px;transform-origin:0px 0px;fill:rgb(51, 51, 51);fill-rule:evenodd;shape-rendering:geometricprecision;d:path(&quot;M 6 12 C 9.314 12 12 9.314 12 6 C 12 2.686 9.314 0 6 0 C 2.686 -1.77636e-15 1.77636e-15 2.686 0 6 C 0 9.314 2.686 12 6 12 Z M 6 10.5 C 3.519 10.5 1.5 8.481 1.5 6 C 1.5 3.519 3.519 1.5 6 1.5 C 8.481 1.5 10.5 3.519 10.5 6 C 10.5 8.481 8.481 10.5 6 10.5 Z M 4 4.5 C 3.53256 5.08254 3.5 5.5 4 5.5 L 5 5.5 L 5 8.5 C 5 9.05218 5.44341 9.5 5.99955 9.5 C 6.55568 9.5 7 9.05609 7 8.5 L 7 5.5 L 8 5.5 C 8.5 5.5 8.46498 5.08123 8 4.5 C 6 2 6.31309 2.39161 6.31309 2.39161 C 6.13993 2.17533 5.8674 2.16762 5.68894 2.39161 C 5.68894 2.39161 6.00605 2 4 4.5 Z&quot;);"/></svg>