<?xml version="1.0" standalone="no"?><!DOCTYPE svg PUBLIC "-//W3C//DTD SVG 1.1//EN" "http://www.w3.org/Graphics/SVG/1.1/DTD/svg11.dtd"><svg width="16" height="16" viewBox="0 0 16 16" version="1.1" xmlns="http://www.w3.org/2000/svg" xmlns:xlink="http://www.w3.org/1999/xlink"><path fill-rule="evenodd" fill="currentColor" d="M10 6.824l2.498-1.451A1 1 0 0 1 14 6.237v3.931a1 1 0 0 1-1.54.842L10 9.429v.648c0 .669-.07.911-.2 1.156-.131.244-.323.436-.567.567-.245.13-.487.2-1.156.2H3.923c-.669 0-.911-.07-1.156-.2a1.363 1.363 0 0 1-.567-.567c-.13-.245-.2-.487-.2-1.156V5.923c0-.669.07-.911.2-1.156.131-.244.323-.436.567-.567.245-.13.487-.2 1.156-.2h4.154c.669 0 .911.07 1.156.2.244.131.436.323.567.567.13.245.2.487.2 1.156v.9z"/></svg>