<?xml version="1.0" standalone="no"?><!DOCTYPE svg PUBLIC "-//W3C//DTD SVG 1.1//EN" "http://www.w3.org/Graphics/SVG/1.1/DTD/svg11.dtd"><svg width="16" height="16" viewBox="0 0 16 16" class="video" style="height:16px;margin-right:8px;width:16px;perspective-origin:8px 8px;transform-origin:8px 8px;shape-rendering:geometricprecision;" version="1.1" xmlns="http://www.w3.org/2000/svg" xmlns:xlink="http://www.w3.org/1999/xlink"><path fill-rule="evenodd" class="" fill="currentColor" d="M10 6.824l2.498-1.451A1 1 0 0 1 14 6.237v3.931a1 1 0 0 1-1.54.842L10 9.429v.648c0 .669-.07.911-.2 1.156-.131.244-.323.436-.567.567-.245.13-.487.2-1.156.2H3.923c-.669 0-.911-.07-1.156-.2a1.363 1.363 0 0 1-.567-.567c-.13-.245-.2-.487-.2-1.156V5.923c0-.669.07-.911.2-1.156.131-.244.323-.436.567-.567.245-.13.487-.2 1.156-.2h4.154c.669 0 .911.07 1.156.2.244.131.436.323.567.567.13.245.2.487.2 1.156v.9z" style="display:inline;height:auto;min-height:0px;min-width:0px;overflow-x:visible;overflow-y:visible;width:auto;perspective-origin:0px 0px;transform-origin:0px 0px;fill:rgb(51, 51, 51);fill-rule:evenodd;shape-rendering:geometricprecision;d:path(&quot;M 10 6.824 L 12.498 5.373 A 1 1 0 0 1 14 6.237 V 10.168 A 1 1 0 0 1 12.46 11.01 L 10 9.429 V 10.077 C 10 10.746 9.93 10.988 9.8 11.233 C 9.669 11.477 9.477 11.669 9.233 11.8 C 8.988 11.93 8.746 12 8.077 12 H 3.923 C 3.254 12 3.012 11.93 2.767 11.8 A 1.363 1.363 0 0 1 2.2 11.233 C 2.07 10.988 2 10.746 2 10.077 V 5.923 C 2 5.254 2.07 5.012 2.2 4.767 C 2.331 4.523 2.523 4.331 2.767 4.2 C 3.012 4.07 3.254 4 3.923 4 H 8.077 C 8.746 4 8.988 4.07 9.233 4.2 C 9.477 4.331 9.669 4.523 9.8 4.767 C 9.93 5.012 10 5.254 10 5.923 V 6.823 Z&quot;);"/></svg>