<?xml version="1.0" standalone="no"?><!DOCTYPE svg PUBLIC "-//W3C//DTD SVG 1.1//EN" "http://www.w3.org/Graphics/SVG/1.1/DTD/svg11.dtd"><svg width="12" height="12" viewBox="0 0 12 12" class="videoMicro" style="height:12px;margin-right:16px;width:12px;perspective-origin:6px 6px;transform-origin:6px 6px;shape-rendering:geometricprecision;" version="1.1" xmlns="http://www.w3.org/2000/svg" xmlns:xlink="http://www.w3.org/1999/xlink"><path fill-rule="evenodd" class="" fill="currentColor" d="M7.667 5.307l2.583-1.491a.5.5 0 0 1 .75.433v3.977a.5.5 0 0 1-.75.433L7.666 7.168c-.006.6-.075.832-.2 1.065-.13.244-.322.436-.567.567-.244.13-.487.2-1.155.2H2.923c-.669 0-.911-.07-1.156-.2a1.363 1.363 0 0 1-.567-.567c-.13-.245-.2-.487-.2-1.156V4.923c0-.669.07-.911.2-1.156.131-.244.323-.436.567-.567.245-.13.487-.2 1.156-.2h2.82c.67 0 .912.07 1.156.2.245.131.437.323.567.567.131.245.2.487.2 1.156v.384z" style="display:inline;height:auto;min-height:0px;min-width:0px;overflow-x:visible;overflow-y:visible;width:auto;perspective-origin:0px 0px;transform-origin:0px 0px;fill:rgb(51, 51, 51);fill-rule:evenodd;shape-rendering:geometricprecision;d:path(&quot;M 7.667 5.307 L 10.25 3.816 A 0.5 0.5 0 0 1 11 4.249 V 8.226 A 0.5 0.5 0 0 1 10.25 8.659 L 7.666 7.168 C 7.66 7.768 7.591 8 7.466 8.233 C 7.336 8.477 7.144 8.669 6.899 8.8 C 6.655 8.93 6.412 9 5.744 9 H 2.923 C 2.254 9 2.012 8.93 1.767 8.8 A 1.363 1.363 0 0 1 1.2 8.233 C 1.07 7.988 1 7.746 1 7.077 V 4.923 C 1 4.254 1.07 4.012 1.2 3.767 C 1.331 3.523 1.523 3.331 1.767 3.2 C 2.012 3.07 2.254 3 2.923 3 H 5.743 C 6.413 3 6.655 3.07 6.899 3.2 C 7.144 3.331 7.336 3.523 7.466 3.767 C 7.597 4.012 7.666 4.254 7.666 4.923 V 5.307 Z&quot;);"/></svg>