<?xml version="1.0" standalone="no"?><!DOCTYPE svg PUBLIC "-//W3C//DTD SVG 1.1//EN" "http://www.w3.org/Graphics/SVG/1.1/DTD/svg11.dtd"><svg width="12" height="12" viewBox="0 0 12 12" version="1.1" xmlns="http://www.w3.org/2000/svg" xmlns:xlink="http://www.w3.org/1999/xlink"><path fill-rule="evenodd" fill="currentColor" d="M7.667 5.307l2.583-1.491a.5.5 0 0 1 .75.433v3.977a.5.5 0 0 1-.75.433L7.666 7.168c-.006.6-.075.832-.2 1.065-.13.244-.322.436-.567.567-.244.13-.487.2-1.155.2H2.923c-.669 0-.911-.07-1.156-.2a1.363 1.363 0 0 1-.567-.567c-.13-.245-.2-.487-.2-1.156V4.923c0-.669.07-.911.2-1.156.131-.244.323-.436.567-.567.245-.13.487-.2 1.156-.2h2.82c.67 0 .912.07 1.156.2.245.131.437.323.567.567.131.245.2.487.2 1.156v.384z"/></svg>