<?xml version="1.0" standalone="no"?><!DOCTYPE svg PUBLIC "-//W3C//DTD SVG 1.1//EN" "http://www.w3.org/Graphics/SVG/1.1/DTD/svg11.dtd"><svg width="12" height="12" viewBox="0 0 12 12" class="viewMicro" style="height:12px;margin-right:16px;width:12px;perspective-origin:6px 6px;transform-origin:6px 6px;shape-rendering:geometricprecision;" version="1.1" xmlns="http://www.w3.org/2000/svg" xmlns:xlink="http://www.w3.org/1999/xlink"><path fill-rule="evenodd" class="" fill="currentColor" d="M0 2.009A2.01 2.01 0 0 1 2.009 0H9.99A2.01 2.01 0 0 1 12 2.009V9.99A2.01 2.01 0 0 1 9.991 12H2.01A2.01 2.01 0 0 1 0 9.991V2.01zm2.073 4.918A.25.25 0 0 0 2 7.104V8.5A1.5 1.5 0 0 0 3.5 10H9a1.5 1.5 0 0 0 1.5-1.5V6.982a.25.25 0 0 0-.077-.18L7.5 4l-3 2.875L3 6l-.927.927zM3 4a1 1 0 1 0 0-2 1 1 0 0 0 0 2z" style="display:inline;height:auto;min-height:0px;min-width:0px;overflow-x:visible;overflow-y:visible;width:auto;perspective-origin:0px 0px;transform-origin:0px 0px;fill:rgb(51, 51, 51);fill-rule:evenodd;shape-rendering:geometricprecision;d:path(&quot;M 0 2.009 A 2.01 2.01 0 0 1 2.009 0 H 9.99 A 2.01 2.01 0 0 1 12 2.009 V 9.99 A 2.01 2.01 0 0 1 9.991 12 H 2.01 A 2.01 2.01 0 0 1 0 9.991 V 2.01 Z M 2.073 6.927 A 0.25 0.25 0 0 0 2 7.104 V 8.5 A 1.5 1.5 0 0 0 3.5 10 H 9 A 1.5 1.5 0 0 0 10.5 8.5 V 6.982 A 0.25 0.25 0 0 0 10.423 6.802 L 7.5 4 L 4.5 6.875 L 3 6 L 2.073 6.927 Z M 3 4 A 1 1 0 1 0 3 2 A 1 1 0 0 0 3 4 Z&quot;);"/></svg>