<?xml version="1.0" standalone="no"?><!DOCTYPE svg PUBLIC "-//W3C//DTD SVG 1.1//EN" "http://www.w3.org/Graphics/SVG/1.1/DTD/svg11.dtd"><svg width="12" height="12" viewBox="0 0 12 12" version="1.1" xmlns="http://www.w3.org/2000/svg" xmlns:xlink="http://www.w3.org/1999/xlink"><path fill-rule="evenodd" fill="currentColor" d="M0 2.009A2.01 2.01 0 0 1 2.009 0H9.99A2.01 2.01 0 0 1 12 2.009V9.99A2.01 2.01 0 0 1 9.991 12H2.01A2.01 2.01 0 0 1 0 9.991V2.01zm2.073 4.918A.25.25 0 0 0 2 7.104V8.5A1.5 1.5 0 0 0 3.5 10H9a1.5 1.5 0 0 0 1.5-1.5V6.982a.25.25 0 0 0-.077-.18L7.5 4l-3 2.875L3 6l-.927.927zM3 4a1 1 0 1 0 0-2 1 1 0 0 0 0 2z"/></svg>