<?xml version="1.0" standalone="no"?><!DOCTYPE svg PUBLIC "-//W3C//DTD SVG 1.1//EN" "http://www.w3.org/Graphics/SVG/1.1/DTD/svg11.dtd"><svg width="16" height="16" viewBox="0 0 16 16" class="view" style="height:16px;margin-right:8px;width:16px;perspective-origin:8px 8px;transform-origin:8px 8px;shape-rendering:geometricprecision;" version="1.1" xmlns="http://www.w3.org/2000/svg" xmlns:xlink="http://www.w3.org/1999/xlink"><path fill-rule="evenodd" class="" fill="currentColor" d="M0 1.994C0 .893.895 0 1.994 0h12.012C15.107 0 16 .895 16 1.994v12.012A1.995 1.995 0 0 1 14.006 16H1.994A1.995 1.995 0 0 1 0 14.006V1.994zm2.073 6.933A.25.25 0 0 0 2 9.104V12.5A1.5 1.5 0 0 0 3.5 14h9a1.5 1.5 0 0 0 1.5-1.5V8.125a.25.25 0 0 0-.1-.2L10 5 6 8 4 7 2.073 8.927zM3.5 5a1.5 1.5 0 1 0 0-3 1.5 1.5 0 0 0 0 3z" style="display:inline;height:auto;min-height:0px;min-width:0px;overflow-x:visible;overflow-y:visible;width:auto;perspective-origin:0px 0px;transform-origin:0px 0px;fill:rgb(51, 51, 51);fill-rule:evenodd;shape-rendering:geometricprecision;d:path(&quot;M 0 1.994 C 0 0.893 0.895 0 1.994 0 H 14.006 C 15.107 0 16 0.895 16 1.994 V 14.006 A 1.995 1.995 0 0 1 14.006 16 H 1.994 A 1.995 1.995 0 0 1 0 14.006 V 1.994 Z M 2.073 8.927 A 0.25 0.25 0 0 0 2 9.104 V 12.5 A 1.5 1.5 0 0 0 3.5 14 H 12.5 A 1.5 1.5 0 0 0 14 12.5 V 8.125 A 0.25 0.25 0 0 0 13.9 7.925 L 10 5 L 6 8 L 4 7 L 2.073 8.927 Z M 3.5 5 A 1.5 1.5 0 1 0 3.5 2 A 1.5 1.5 0 0 0 3.5 5 Z&quot;);"/></svg>