<?xml version="1.0" standalone="no"?><!DOCTYPE svg PUBLIC "-//W3C//DTD SVG 1.1//EN" "http://www.w3.org/Graphics/SVG/1.1/DTD/svg11.dtd"><svg width="16" height="16" viewBox="0 0 16 16" class="warning" style="height:16px;margin-right:8px;width:16px;perspective-origin:8px 8px;transform-origin:8px 8px;shape-rendering:geometricprecision;" version="1.1" xmlns="http://www.w3.org/2000/svg" xmlns:xlink="http://www.w3.org/1999/xlink"><path fill-rule="evenodd" class="" fill="currentColor" d="M9.10048253,7.92285185 C9.10048253,8.55841334 8.60526539,9.07841821 8,9.07841821 C7.39473461,9.07841821 6.89951747,8.55841334 6.89951747,7.92285185 L6.89951747,4.45615277 C6.89951747,3.82059127 7.39473461,3.30058641 8,3.30058641 C8.60526539,3.30058641 9.10048253,3.82059127 9.10048253,4.45615277 L9.10048253,7.92285185 L9.10048253,7.92285185 L9.10048253,7.92285185 L9.10048253,7.92285185 L9.10048253,7.92285185 Z M8,12.5451173 C7.39473461,12.5451173 6.89951747,12.0251124 6.89951747,11.3895509 C6.89951747,10.7539894 7.39473461,10.2339846 8,10.2339846 C8.60526539,10.2339846 9.10048253,10.7539894 9.10048253,11.3895509 C9.10048253,12.0251124 8.60526539,12.5451173 8,12.5451173 L8,12.5451173 L8,12.5451173 L8,12.5451173 L8,12.5451173 L8,12.5451173 Z M15.8508424,13.1229005 L8.95301787,0.578072071 C8.5293321,-0.19269069 7.4706679,-0.19269069 7.04698213,0.578072071 L0.149157622,13.1229005 C-0.274528153,13.8936632 0.254803945,14.85625 1.10217549,14.85625 L14.8978245,14.85625 C15.7451961,14.85625 16.2745282,13.8936632 15.8508424,13.1229005 L15.8508424,13.1229005 L15.8508424,13.1229005 L15.8508424,13.1229005 L15.8508424,13.1229005 L15.8508424,13.1229005 Z" style="display:inline;height:auto;min-height:0px;min-width:0px;overflow-x:visible;overflow-y:visible;width:auto;perspective-origin:0px 0px;transform-origin:0px 0px;fill:rgb(51, 51, 51);fill-rule:evenodd;shape-rendering:geometricprecision;d:path(&quot;M 9.10048 7.92285 C 9.10048 8.55841 8.60527 9.07842 8 9.07842 C 7.39473 9.07842 6.89952 8.55841 6.89952 7.92285 L 6.89952 4.45615 C 6.89952 3.82059 7.39473 3.30059 8 3.30059 C 8.60527 3.30059 9.10048 3.82059 9.10048 4.45615 L 9.10048 7.92285 L 9.10048 7.92285 L 9.10048 7.92285 L 9.10048 7.92285 L 9.10048 7.92285 Z M 8 12.5451 C 7.39473 12.5451 6.89952 12.0251 6.89952 11.3896 C 6.89952 10.754 7.39473 10.234 8 10.234 C 8.60527 10.234 9.10048 10.754 9.10048 11.3896 C 9.10048 12.0251 8.60527 12.5451 8 12.5451 L 8 12.5451 L 8 12.5451 L 8 12.5451 L 8 12.5451 L 8 12.5451 Z M 15.8508 13.1229 L 8.95302 0.578072 C 8.52933 -0.192691 7.47067 -0.192691 7.04698 0.578072 L 0.149158 13.1229 C -0.274528 13.8937 0.254804 14.8562 1.10218 14.8562 L 14.8978 14.8562 C 15.7452 14.8562 16.2745 13.8937 15.8508 13.1229 L 15.8508 13.1229 L 15.8508 13.1229 L 15.8508 13.1229 L 15.8508 13.1229 L 15.8508 13.1229 Z&quot;);"/></svg>