<?xml version="1.0" standalone="no"?><!DOCTYPE svg PUBLIC "-//W3C//DTD SVG 1.1//EN" "http://www.w3.org/Graphics/SVG/1.1/DTD/svg11.dtd"><svg width="12" height="12" viewBox="0 0 12 12" version="1.1" xmlns="http://www.w3.org/2000/svg" xmlns:xlink="http://www.w3.org/1999/xlink"><path fill-rule="evenodd" fill="currentColor" d="M0.460887779,10.1167095 L5.07609578,1.27167242 C5.58808735,0.290441573 6.41433749,0.293204761 6.92479743,1.27167242 L11.5391933,10.1167095 C11.7934846,10.604144 11.5511774,11 10.9975267,11 L1.00247329,11 C0.455760956,11 0.206346487,10.6045374 0.460887779,10.1167095 Z M5,4.0093689 L5,5.9906311 C5,6.55664682 5.44771525,7 6,7 C6.55613518,7 7,6.54809015 7,5.9906311 L7,4.0093689 C7,3.44335318 6.55228475,3 6,3 C5.44386482,3 5,3.45190985 5,4.0093689 Z M6,10 C6.55228475,10 7,9.55228475 7,9 C7,8.44771525 6.55228475,8 6,8 C5.44771525,8 5,8.44771525 5,9 C5,9.55228475 5.44771525,10 6,10 Z"/></svg>