<?xml version="1.0" standalone="no"?><!DOCTYPE svg PUBLIC "-//W3C//DTD SVG 1.1//EN" "http://www.w3.org/Graphics/SVG/1.1/DTD/svg11.dtd"><svg width="12" height="12" viewBox="0 0 12 12" class="warningMicro" style="height:12px;margin-right:16px;width:12px;perspective-origin:6px 6px;transform-origin:6px 6px;shape-rendering:geometricprecision;" version="1.1" xmlns="http://www.w3.org/2000/svg" xmlns:xlink="http://www.w3.org/1999/xlink"><path fill-rule="evenodd" class="" fill="currentColor" d="M0.460887779,10.1167095 L5.07609578,1.27167242 C5.58808735,0.290441573 6.41433749,0.293204761 6.92479743,1.27167242 L11.5391933,10.1167095 C11.7934846,10.604144 11.5511774,11 10.9975267,11 L1.00247329,11 C0.455760956,11 0.206346487,10.6045374 0.460887779,10.1167095 Z M5,4.0093689 L5,5.9906311 C5,6.55664682 5.44771525,7 6,7 C6.55613518,7 7,6.54809015 7,5.9906311 L7,4.0093689 C7,3.44335318 6.55228475,3 6,3 C5.44386482,3 5,3.45190985 5,4.0093689 Z M6,10 C6.55228475,10 7,9.55228475 7,9 C7,8.44771525 6.55228475,8 6,8 C5.44771525,8 5,8.44771525 5,9 C5,9.55228475 5.44771525,10 6,10 Z" style="display:inline;height:auto;min-height:0px;min-width:0px;overflow-x:visible;overflow-y:visible;width:auto;perspective-origin:0px 0px;transform-origin:0px 0px;fill:rgb(51, 51, 51);fill-rule:evenodd;shape-rendering:geometricprecision;d:path(&quot;M 0.460888 10.1167 L 5.0761 1.27167 C 5.58809 0.290442 6.41434 0.293205 6.9248 1.27167 L 11.5392 10.1167 C 11.7935 10.6041 11.5512 11 10.9975 11 L 1.00247 11 C 0.455761 11 0.206346 10.6045 0.460888 10.1167 Z M 5 4.00937 L 5 5.99063 C 5 6.55665 5.44772 7 6 7 C 6.55614 7 7 6.54809 7 5.99063 L 7 4.00937 C 7 3.44335 6.55228 3 6 3 C 5.44386 3 5 3.45191 5 4.00937 Z M 6 10 C 6.55228 10 7 9.55228 7 9 C 7 8.44772 6.55228 8 6 8 C 5.44772 8 5 8.44772 5 9 C 5 9.55228 5.44772 10 6 10 Z&quot;);"/></svg>