<?xml version="1.0" standalone="no"?><!DOCTYPE svg PUBLIC "-//W3C//DTD SVG 1.1//EN" "http://www.w3.org/Graphics/SVG/1.1/DTD/svg11.dtd"><svg width="16" height="16" viewBox="0 0 16 16" version="1.1" xmlns="http://www.w3.org/2000/svg" xmlns:xlink="http://www.w3.org/1999/xlink"><path fill-rule="evenodd" fill="currentColor" d="M9.10048253,7.92285185 C9.10048253,8.55841334 8.60526539,9.07841821 8,9.07841821 C7.39473461,9.07841821 6.89951747,8.55841334 6.89951747,7.92285185 L6.89951747,4.45615277 C6.89951747,3.82059127 7.39473461,3.30058641 8,3.30058641 C8.60526539,3.30058641 9.10048253,3.82059127 9.10048253,4.45615277 L9.10048253,7.92285185 L9.10048253,7.92285185 L9.10048253,7.92285185 L9.10048253,7.92285185 L9.10048253,7.92285185 Z M8,12.5451173 C7.39473461,12.5451173 6.89951747,12.0251124 6.89951747,11.3895509 C6.89951747,10.7539894 7.39473461,10.2339846 8,10.2339846 C8.60526539,10.2339846 9.10048253,10.7539894 9.10048253,11.3895509 C9.10048253,12.0251124 8.60526539,12.5451173 8,12.5451173 L8,12.5451173 L8,12.5451173 L8,12.5451173 L8,12.5451173 L8,12.5451173 Z M15.8508424,13.1229005 L8.95301787,0.578072071 C8.5293321,-0.19269069 7.4706679,-0.19269069 7.04698213,0.578072071 L0.149157622,13.1229005 C-0.274528153,13.8936632 0.254803945,14.85625 1.10217549,14.85625 L14.8978245,14.85625 C15.7451961,14.85625 16.2745282,13.8936632 15.8508424,13.1229005 L15.8508424,13.1229005 L15.8508424,13.1229005 L15.8508424,13.1229005 L15.8508424,13.1229005 L15.8508424,13.1229005 Z"/></svg>