<?xml version="1.0" standalone="no"?><!DOCTYPE svg PUBLIC "-//W3C//DTD SVG 1.1//EN" "http://www.w3.org/Graphics/SVG/1.1/DTD/svg11.dtd"><svg width="16" height="16" viewBox="0 0 16 16" version="1.1" xmlns="http://www.w3.org/2000/svg" xmlns:xlink="http://www.w3.org/1999/xlink"><path fill-rule="evenodd" fill="currentColor" d="M12.9541732,4.96004034 C13.1437497,4.77046381 13.1435266,4.45113844 12.9464351,4.25404691 L12.2459531,3.55356494 C12.0404329,3.34804477 11.7327775,3.35300891 11.5399597,3.54582678 L8,7.08578644 L4.46004034,3.54582678 C4.27046381,3.35625025 3.95113844,3.3564734 3.75404691,3.55356494 L3.05356494,4.25404691 C2.84804477,4.45956708 2.85300891,4.76722247 3.04582678,4.96004034 L6.58578644,8.5 L3.04582678,12.0399597 C2.85625025,12.2295362 2.8564734,12.5488616 3.05356494,12.7459531 L3.75404691,13.4464351 C3.95956708,13.6519552 4.26722247,13.6469911 4.46004034,13.4541732 L8,9.91421356 L11.5399597,13.4541732 C11.7295362,13.6437497 12.0488616,13.6435266 12.2459531,13.4464351 L12.9464351,12.7459531 C13.1519552,12.5404329 13.1469911,12.2327775 12.9541732,12.0399597 L9.41421356,8.5 L12.9541732,4.96004034 Z"/></svg>