<?xml version="1.0" standalone="no"?><!DOCTYPE svg PUBLIC "-//W3C//DTD SVG 1.1//EN" "http://www.w3.org/Graphics/SVG/1.1/DTD/svg11.dtd"><svg width="16" height="16" viewBox="0 0 16 16" class="x" style="height:16px;margin-right:8px;width:16px;perspective-origin:8px 8px;transform-origin:8px 8px;shape-rendering:geometricprecision;" version="1.1" xmlns="http://www.w3.org/2000/svg" xmlns:xlink="http://www.w3.org/1999/xlink"><path fill-rule="evenodd" class="" fill="currentColor" d="M12.9541732,4.96004034 C13.1437497,4.77046381 13.1435266,4.45113844 12.9464351,4.25404691 L12.2459531,3.55356494 C12.0404329,3.34804477 11.7327775,3.35300891 11.5399597,3.54582678 L8,7.08578644 L4.46004034,3.54582678 C4.27046381,3.35625025 3.95113844,3.3564734 3.75404691,3.55356494 L3.05356494,4.25404691 C2.84804477,4.45956708 2.85300891,4.76722247 3.04582678,4.96004034 L6.58578644,8.5 L3.04582678,12.0399597 C2.85625025,12.2295362 2.8564734,12.5488616 3.05356494,12.7459531 L3.75404691,13.4464351 C3.95956708,13.6519552 4.26722247,13.6469911 4.46004034,13.4541732 L8,9.91421356 L11.5399597,13.4541732 C11.7295362,13.6437497 12.0488616,13.6435266 12.2459531,13.4464351 L12.9464351,12.7459531 C13.1519552,12.5404329 13.1469911,12.2327775 12.9541732,12.0399597 L9.41421356,8.5 L12.9541732,4.96004034 Z" style="display:inline;height:auto;min-height:0px;min-width:0px;overflow-x:visible;overflow-y:visible;width:auto;perspective-origin:0px 0px;transform-origin:0px 0px;fill:rgb(51, 51, 51);fill-rule:evenodd;shape-rendering:geometricprecision;d:path(&quot;M 12.9542 4.96004 C 13.1437 4.77046 13.1435 4.45114 12.9464 4.25405 L 12.246 3.55357 C 12.0404 3.34804 11.7328 3.35301 11.54 3.54583 L 8 7.08579 L 4.46004 3.54583 C 4.27046 3.35625 3.95114 3.35647 3.75405 3.55357 L 3.05357 4.25405 C 2.84804 4.45957 2.85301 4.76722 3.04583 4.96004 L 6.58579 8.5 L 3.04583 12.04 C 2.85625 12.2295 2.85647 12.5489 3.05357 12.746 L 3.75405 13.4464 C 3.95957 13.652 4.26722 13.647 4.46004 13.4542 L 8 9.91421 L 11.54 13.4542 C 11.7295 13.6438 12.0489 13.6435 12.246 13.4464 L 12.9464 12.746 C 13.152 12.5404 13.147 12.2328 12.9542 12.04 L 9.41421 8.5 L 12.9542 4.96004 Z&quot;);"/></svg>