<?xml version="1.0" standalone="no"?><!DOCTYPE svg PUBLIC "-//W3C//DTD SVG 1.1//EN" "http://www.w3.org/Graphics/SVG/1.1/DTD/svg11.dtd"><svg width="12" height="12" viewBox="0 0 12 12" class="xMicro" style="height:12px;margin-right:16px;width:12px;perspective-origin:6px 6px;transform-origin:6px 6px;shape-rendering:geometricprecision;" version="1.1" xmlns="http://www.w3.org/2000/svg" xmlns:xlink="http://www.w3.org/1999/xlink"><path fill-rule="evenodd" class="" fill="currentColor" d="M7.41421356,6 L9.88226406,3.5319495 C10.0816659,3.33254771 10.0828664,3.01179862 9.88577489,2.81470708 L9.18529292,2.11422511 C8.97977275,1.90870494 8.66708101,1.91870543 8.4680505,2.11773594 L6,4.58578644 L3.5319495,2.11773594 C3.33254771,1.91833414 3.01179862,1.91713357 2.81470708,2.11422511 L2.11422511,2.81470708 C1.90870494,3.02022725 1.91870543,3.33291899 2.11773594,3.5319495 L4.58578644,6 L2.11773594,8.4680505 C1.91833414,8.66745229 1.91713357,8.98820138 2.11422511,9.18529292 L2.81470708,9.88577489 C3.02022725,10.0912951 3.33291899,10.0812946 3.5319495,9.88226406 L6,7.41421356 L8.4680505,9.88226406 C8.66745229,10.0816659 8.98820138,10.0828664 9.18529292,9.88577489 L9.88577489,9.18529292 C10.0912951,8.97977275 10.0812946,8.66708101 9.88226406,8.4680505 L7.41421356,6 L7.41421356,6 Z" style="display:inline;height:auto;min-height:0px;min-width:0px;overflow-x:visible;overflow-y:visible;width:auto;perspective-origin:0px 0px;transform-origin:0px 0px;fill:rgb(51, 51, 51);fill-rule:evenodd;shape-rendering:geometricprecision;d:path(&quot;M 7.41421 6 L 9.88226 3.53195 C 10.0817 3.33255 10.0829 3.0118 9.88577 2.81471 L 9.18529 2.11423 C 8.97977 1.9087 8.66708 1.91871 8.46805 2.11774 L 6 4.58579 L 3.53195 2.11774 C 3.33255 1.91833 3.0118 1.91713 2.81471 2.11423 L 2.11423 2.81471 C 1.9087 3.02023 1.91871 3.33292 2.11774 3.53195 L 4.58579 6 L 2.11774 8.46805 C 1.91833 8.66745 1.91713 8.9882 2.11423 9.18529 L 2.81471 9.88577 C 3.02023 10.0913 3.33292 10.0813 3.53195 9.88226 L 6 7.41421 L 8.46805 9.88226 C 8.66745 10.0817 8.9882 10.0829 9.18529 9.88577 L 9.88577 9.18529 C 10.0913 8.97977 10.0813 8.66708 9.88226 8.46805 L 7.41421 6 L 7.41421 6 Z&quot;);"/></svg>